%TF.GenerationSoftware,KiCad,Pcbnew,10.0.3*%
%TF.CreationDate,2026-06-20T15:09:47+09:00*%
%TF.ProjectId,bottom-plate,626f7474-6f6d-42d7-906c-6174652e6b69,rev?*%
%TF.SameCoordinates,Original*%
%TF.FileFunction,Legend,Bot*%
%TF.FilePolarity,Positive*%
%FSLAX46Y46*%
G04 Gerber Fmt 4.6, Leading zero omitted, Abs format (unit mm)*
G04 Created by KiCad (PCBNEW 10.0.3) date 2026-06-20 15:09:47*
%MOMM*%
%LPD*%
G01*
G04 APERTURE LIST*
%ADD10C,0.160000*%
%ADD11C,0.300000*%
%ADD12C,0.000000*%
G04 APERTURE END LIST*
D10*
X153000206Y-121803944D02*
X153333539Y-121327753D01*
X153571634Y-121803944D02*
X153571634Y-120803944D01*
X153571634Y-120803944D02*
X153190682Y-120803944D01*
X153190682Y-120803944D02*
X153095444Y-120851563D01*
X153095444Y-120851563D02*
X153047825Y-120899182D01*
X153047825Y-120899182D02*
X153000206Y-120994420D01*
X153000206Y-120994420D02*
X153000206Y-121137277D01*
X153000206Y-121137277D02*
X153047825Y-121232515D01*
X153047825Y-121232515D02*
X153095444Y-121280134D01*
X153095444Y-121280134D02*
X153190682Y-121327753D01*
X153190682Y-121327753D02*
X153571634Y-121327753D01*
X152190682Y-121756325D02*
X152285920Y-121803944D01*
X152285920Y-121803944D02*
X152476396Y-121803944D01*
X152476396Y-121803944D02*
X152571634Y-121756325D01*
X152571634Y-121756325D02*
X152619253Y-121661086D01*
X152619253Y-121661086D02*
X152619253Y-121280134D01*
X152619253Y-121280134D02*
X152571634Y-121184896D01*
X152571634Y-121184896D02*
X152476396Y-121137277D01*
X152476396Y-121137277D02*
X152285920Y-121137277D01*
X152285920Y-121137277D02*
X152190682Y-121184896D01*
X152190682Y-121184896D02*
X152143063Y-121280134D01*
X152143063Y-121280134D02*
X152143063Y-121375372D01*
X152143063Y-121375372D02*
X152619253Y-121470610D01*
X151809729Y-121137277D02*
X151571634Y-121803944D01*
X151571634Y-121803944D02*
X151333539Y-121137277D01*
X150952586Y-121708705D02*
X150904967Y-121756325D01*
X150904967Y-121756325D02*
X150952586Y-121803944D01*
X150952586Y-121803944D02*
X151000205Y-121756325D01*
X151000205Y-121756325D02*
X150952586Y-121708705D01*
X150952586Y-121708705D02*
X150952586Y-121803944D01*
X150524015Y-120899182D02*
X150476396Y-120851563D01*
X150476396Y-120851563D02*
X150381158Y-120803944D01*
X150381158Y-120803944D02*
X150143063Y-120803944D01*
X150143063Y-120803944D02*
X150047825Y-120851563D01*
X150047825Y-120851563D02*
X150000206Y-120899182D01*
X150000206Y-120899182D02*
X149952587Y-120994420D01*
X149952587Y-120994420D02*
X149952587Y-121089658D01*
X149952587Y-121089658D02*
X150000206Y-121232515D01*
X150000206Y-121232515D02*
X150571634Y-121803944D01*
X150571634Y-121803944D02*
X149952587Y-121803944D01*
D11*
X153532271Y-118185234D02*
X152675129Y-118185234D01*
X153103700Y-119685234D02*
X153103700Y-118185234D01*
X152175129Y-119685234D02*
X152175129Y-118685234D01*
X152175129Y-118970948D02*
X152103700Y-118828091D01*
X152103700Y-118828091D02*
X152032272Y-118756663D01*
X152032272Y-118756663D02*
X151889414Y-118685234D01*
X151889414Y-118685234D02*
X151746557Y-118685234D01*
X150603701Y-118685234D02*
X150603701Y-119685234D01*
X151246558Y-118685234D02*
X151246558Y-119470948D01*
X151246558Y-119470948D02*
X151175129Y-119613806D01*
X151175129Y-119613806D02*
X151032272Y-119685234D01*
X151032272Y-119685234D02*
X150817986Y-119685234D01*
X150817986Y-119685234D02*
X150675129Y-119613806D01*
X150675129Y-119613806D02*
X150603701Y-119542377D01*
X149317986Y-119613806D02*
X149460843Y-119685234D01*
X149460843Y-119685234D02*
X149746558Y-119685234D01*
X149746558Y-119685234D02*
X149889415Y-119613806D01*
X149889415Y-119613806D02*
X149960843Y-119470948D01*
X149960843Y-119470948D02*
X149960843Y-118899520D01*
X149960843Y-118899520D02*
X149889415Y-118756663D01*
X149889415Y-118756663D02*
X149746558Y-118685234D01*
X149746558Y-118685234D02*
X149460843Y-118685234D01*
X149460843Y-118685234D02*
X149317986Y-118756663D01*
X149317986Y-118756663D02*
X149246558Y-118899520D01*
X149246558Y-118899520D02*
X149246558Y-119042377D01*
X149246558Y-119042377D02*
X149960843Y-119185234D01*
X148675129Y-119613806D02*
X148460844Y-119685234D01*
X148460844Y-119685234D02*
X148103701Y-119685234D01*
X148103701Y-119685234D02*
X147960844Y-119613806D01*
X147960844Y-119613806D02*
X147889415Y-119542377D01*
X147889415Y-119542377D02*
X147817986Y-119399520D01*
X147817986Y-119399520D02*
X147817986Y-119256663D01*
X147817986Y-119256663D02*
X147889415Y-119113806D01*
X147889415Y-119113806D02*
X147960844Y-119042377D01*
X147960844Y-119042377D02*
X148103701Y-118970948D01*
X148103701Y-118970948D02*
X148389415Y-118899520D01*
X148389415Y-118899520D02*
X148532272Y-118828091D01*
X148532272Y-118828091D02*
X148603701Y-118756663D01*
X148603701Y-118756663D02*
X148675129Y-118613806D01*
X148675129Y-118613806D02*
X148675129Y-118470948D01*
X148675129Y-118470948D02*
X148603701Y-118328091D01*
X148603701Y-118328091D02*
X148532272Y-118256663D01*
X148532272Y-118256663D02*
X148389415Y-118185234D01*
X148389415Y-118185234D02*
X148032272Y-118185234D01*
X148032272Y-118185234D02*
X147817986Y-118256663D01*
X147389415Y-118685234D02*
X146817987Y-118685234D01*
X147175130Y-118185234D02*
X147175130Y-119470948D01*
X147175130Y-119470948D02*
X147103701Y-119613806D01*
X147103701Y-119613806D02*
X146960844Y-119685234D01*
X146960844Y-119685234D02*
X146817987Y-119685234D01*
X146317987Y-119685234D02*
X146317987Y-118685234D01*
X146317987Y-118970948D02*
X146246558Y-118828091D01*
X146246558Y-118828091D02*
X146175130Y-118756663D01*
X146175130Y-118756663D02*
X146032272Y-118685234D01*
X146032272Y-118685234D02*
X145889415Y-118685234D01*
X145389416Y-119685234D02*
X145389416Y-118685234D01*
X145389416Y-118185234D02*
X145460844Y-118256663D01*
X145460844Y-118256663D02*
X145389416Y-118328091D01*
X145389416Y-118328091D02*
X145317987Y-118256663D01*
X145317987Y-118256663D02*
X145389416Y-118185234D01*
X145389416Y-118185234D02*
X145389416Y-118328091D01*
X144675130Y-119685234D02*
X144675130Y-118185234D01*
X144532273Y-119113806D02*
X144103701Y-119685234D01*
X144103701Y-118685234D02*
X144675130Y-119256663D01*
X142889415Y-119613806D02*
X143032272Y-119685234D01*
X143032272Y-119685234D02*
X143317987Y-119685234D01*
X143317987Y-119685234D02*
X143460844Y-119613806D01*
X143460844Y-119613806D02*
X143532272Y-119470948D01*
X143532272Y-119470948D02*
X143532272Y-118899520D01*
X143532272Y-118899520D02*
X143460844Y-118756663D01*
X143460844Y-118756663D02*
X143317987Y-118685234D01*
X143317987Y-118685234D02*
X143032272Y-118685234D01*
X143032272Y-118685234D02*
X142889415Y-118756663D01*
X142889415Y-118756663D02*
X142817987Y-118899520D01*
X142817987Y-118899520D02*
X142817987Y-119042377D01*
X142817987Y-119042377D02*
X143532272Y-119185234D01*
X141460844Y-118185234D02*
X142175130Y-118185234D01*
X142175130Y-118185234D02*
X142246558Y-118899520D01*
X142246558Y-118899520D02*
X142175130Y-118828091D01*
X142175130Y-118828091D02*
X142032273Y-118756663D01*
X142032273Y-118756663D02*
X141675130Y-118756663D01*
X141675130Y-118756663D02*
X141532273Y-118828091D01*
X141532273Y-118828091D02*
X141460844Y-118899520D01*
X141460844Y-118899520D02*
X141389415Y-119042377D01*
X141389415Y-119042377D02*
X141389415Y-119399520D01*
X141389415Y-119399520D02*
X141460844Y-119542377D01*
X141460844Y-119542377D02*
X141532273Y-119613806D01*
X141532273Y-119613806D02*
X141675130Y-119685234D01*
X141675130Y-119685234D02*
X142032273Y-119685234D01*
X142032273Y-119685234D02*
X142175130Y-119613806D01*
X142175130Y-119613806D02*
X142246558Y-119542377D01*
X140103702Y-118185234D02*
X140389416Y-118185234D01*
X140389416Y-118185234D02*
X140532273Y-118256663D01*
X140532273Y-118256663D02*
X140603702Y-118328091D01*
X140603702Y-118328091D02*
X140746559Y-118542377D01*
X140746559Y-118542377D02*
X140817987Y-118828091D01*
X140817987Y-118828091D02*
X140817987Y-119399520D01*
X140817987Y-119399520D02*
X140746559Y-119542377D01*
X140746559Y-119542377D02*
X140675130Y-119613806D01*
X140675130Y-119613806D02*
X140532273Y-119685234D01*
X140532273Y-119685234D02*
X140246559Y-119685234D01*
X140246559Y-119685234D02*
X140103702Y-119613806D01*
X140103702Y-119613806D02*
X140032273Y-119542377D01*
X140032273Y-119542377D02*
X139960844Y-119399520D01*
X139960844Y-119399520D02*
X139960844Y-119042377D01*
X139960844Y-119042377D02*
X140032273Y-118899520D01*
X140032273Y-118899520D02*
X140103702Y-118828091D01*
X140103702Y-118828091D02*
X140246559Y-118756663D01*
X140246559Y-118756663D02*
X140532273Y-118756663D01*
X140532273Y-118756663D02*
X140675130Y-118828091D01*
X140675130Y-118828091D02*
X140746559Y-118899520D01*
X140746559Y-118899520D02*
X140817987Y-119042377D01*
D12*
%TO.C,G\u002A\u002A\u002A*%
G36*
X156584828Y-120970965D02*
G01*
X156631870Y-121001276D01*
X156689431Y-121035543D01*
X156748469Y-121067760D01*
X156808306Y-121097542D01*
X156814061Y-121100325D01*
X156820985Y-121103854D01*
X156826251Y-121106773D01*
X156829496Y-121108874D01*
X156830343Y-121109934D01*
X156829729Y-121110382D01*
X156826794Y-121112403D01*
X156821590Y-121115941D01*
X156814274Y-121120892D01*
X156805004Y-121127147D01*
X156793934Y-121134604D01*
X156781228Y-121143156D01*
X156767037Y-121152696D01*
X156751520Y-121163119D01*
X156734835Y-121174319D01*
X156717139Y-121186191D01*
X156698587Y-121198629D01*
X156679337Y-121211527D01*
X156666776Y-121219939D01*
X156647999Y-121232505D01*
X156630032Y-121244517D01*
X156613033Y-121255872D01*
X156597157Y-121266466D01*
X156582563Y-121276195D01*
X156569394Y-121284956D01*
X156557819Y-121292646D01*
X156547991Y-121299160D01*
X156540064Y-121304394D01*
X156534194Y-121308245D01*
X156530536Y-121310613D01*
X156529248Y-121311389D01*
X156529273Y-121309892D01*
X156529492Y-121305587D01*
X156529887Y-121298708D01*
X156530447Y-121289481D01*
X156531154Y-121278139D01*
X156531992Y-121264912D01*
X156532946Y-121250030D01*
X156534002Y-121233724D01*
X156535146Y-121216222D01*
X156536356Y-121197757D01*
X156537621Y-121178558D01*
X156538928Y-121158854D01*
X156540258Y-121138878D01*
X156541597Y-121118858D01*
X156542930Y-121099025D01*
X156544242Y-121079609D01*
X156545515Y-121060841D01*
X156546735Y-121042951D01*
X156547891Y-121026172D01*
X156548958Y-121010724D01*
X156549929Y-120996849D01*
X156550786Y-120984773D01*
X156551514Y-120974723D01*
X156552096Y-120966937D01*
X156552518Y-120961638D01*
X156552767Y-120959059D01*
X156553941Y-120950329D01*
X156584828Y-120970965D01*
G37*
G36*
X158471808Y-118888619D02*
G01*
X158471667Y-118891611D01*
X158471338Y-118897350D01*
X158470831Y-118905652D01*
X158470162Y-118916322D01*
X158469340Y-118929172D01*
X158468379Y-118944014D01*
X158467290Y-118960658D01*
X158466086Y-118978914D01*
X158464781Y-118998593D01*
X158463383Y-119019505D01*
X158461908Y-119041462D01*
X158460367Y-119064273D01*
X158459637Y-119075062D01*
X158458114Y-119097610D01*
X158456654Y-119119269D01*
X158455272Y-119139846D01*
X158453977Y-119159142D01*
X158452786Y-119176965D01*
X158451711Y-119193120D01*
X158450764Y-119207411D01*
X158449958Y-119219644D01*
X158449307Y-119229620D01*
X158448824Y-119237156D01*
X158448516Y-119242046D01*
X158448410Y-119244097D01*
X158447910Y-119246985D01*
X158446440Y-119247897D01*
X158444878Y-119247054D01*
X158441094Y-119244729D01*
X158435471Y-119241155D01*
X158428363Y-119236560D01*
X158420123Y-119231170D01*
X158411107Y-119225213D01*
X158398069Y-119216655D01*
X158363080Y-119194536D01*
X158326991Y-119172879D01*
X158290435Y-119152036D01*
X158254042Y-119132364D01*
X158218447Y-119114217D01*
X158184279Y-119097950D01*
X158180105Y-119095992D01*
X158175003Y-119093427D01*
X158171515Y-119091459D01*
X158170221Y-119090402D01*
X158170894Y-119089849D01*
X158173864Y-119087729D01*
X158179032Y-119084145D01*
X158186210Y-119079224D01*
X158195207Y-119073096D01*
X158205838Y-119065882D01*
X158217910Y-119057712D01*
X158231238Y-119048711D01*
X158245630Y-119039007D01*
X158260900Y-119028726D01*
X158276857Y-119017994D01*
X158293316Y-119006938D01*
X158310084Y-118995684D01*
X158326974Y-118984359D01*
X158343797Y-118973086D01*
X158360367Y-118962002D01*
X158376491Y-118951221D01*
X158391984Y-118940876D01*
X158406654Y-118931092D01*
X158420313Y-118921997D01*
X158432776Y-118913715D01*
X158443850Y-118906375D01*
X158453348Y-118900102D01*
X158461081Y-118895022D01*
X158466861Y-118891264D01*
X158470501Y-118888952D01*
X158471804Y-118888215D01*
X158471808Y-118888619D01*
G37*
G36*
X156530152Y-118888799D02*
G01*
X156533173Y-118890703D01*
X156538390Y-118894085D01*
X156545613Y-118898819D01*
X156554657Y-118904777D01*
X156565330Y-118911833D01*
X156577442Y-118919862D01*
X156590810Y-118928737D01*
X156605230Y-118938329D01*
X156620534Y-118948519D01*
X156636520Y-118959174D01*
X156653001Y-118970170D01*
X156669788Y-118981379D01*
X156686694Y-118992677D01*
X156703528Y-119003937D01*
X156720103Y-119015033D01*
X156736228Y-119025838D01*
X156751715Y-119036226D01*
X156766375Y-119046070D01*
X156780019Y-119055246D01*
X156792458Y-119063623D01*
X156803503Y-119071080D01*
X156812965Y-119077488D01*
X156820656Y-119082721D01*
X156826385Y-119086653D01*
X156829965Y-119089158D01*
X156831208Y-119090109D01*
X156830794Y-119090419D01*
X156828101Y-119091915D01*
X156823177Y-119094480D01*
X156816347Y-119097949D01*
X156807935Y-119102159D01*
X156798263Y-119106946D01*
X156787656Y-119112146D01*
X156765183Y-119123305D01*
X156703023Y-119156268D01*
X156642941Y-119191282D01*
X156585096Y-119228258D01*
X156579864Y-119231751D01*
X156571920Y-119237009D01*
X156565042Y-119241511D01*
X156559591Y-119245020D01*
X156555932Y-119247306D01*
X156554430Y-119248128D01*
X156553961Y-119247511D01*
X156553192Y-119244631D01*
X156552531Y-119240186D01*
X156552332Y-119237997D01*
X156551921Y-119232772D01*
X156551353Y-119225049D01*
X156550642Y-119215061D01*
X156549803Y-119203037D01*
X156548852Y-119189210D01*
X156547803Y-119173807D01*
X156546671Y-119157061D01*
X156545472Y-119139202D01*
X156544221Y-119120459D01*
X156542933Y-119101063D01*
X156541623Y-119081245D01*
X156540306Y-119061234D01*
X156538998Y-119041262D01*
X156537712Y-119021557D01*
X156536469Y-119002353D01*
X156535274Y-118983875D01*
X156534148Y-118966360D01*
X156533108Y-118950034D01*
X156532166Y-118935128D01*
X156531339Y-118921872D01*
X156530641Y-118910497D01*
X156530087Y-118901233D01*
X156529692Y-118894311D01*
X156529468Y-118889962D01*
X156529443Y-118888414D01*
X156530152Y-118888799D01*
G37*
G36*
X158447730Y-120950958D02*
G01*
X158447963Y-120953703D01*
X158448377Y-120959211D01*
X158448959Y-120967291D01*
X158449693Y-120977755D01*
X158450573Y-120990409D01*
X158451573Y-121005064D01*
X158452698Y-121021530D01*
X158453922Y-121039616D01*
X158455234Y-121059131D01*
X158456625Y-121079884D01*
X158458074Y-121101685D01*
X158459575Y-121124346D01*
X158460126Y-121132648D01*
X158461622Y-121155215D01*
X158463068Y-121176956D01*
X158464450Y-121197671D01*
X158465754Y-121217160D01*
X158466968Y-121235220D01*
X158468079Y-121251654D01*
X158469068Y-121266257D01*
X158469927Y-121278831D01*
X158470641Y-121289174D01*
X158471196Y-121297087D01*
X158471577Y-121302368D01*
X158471775Y-121304817D01*
X158471977Y-121306934D01*
X158472069Y-121310131D01*
X158471447Y-121311164D01*
X158469927Y-121310634D01*
X158469655Y-121310478D01*
X158466910Y-121308756D01*
X158461947Y-121305527D01*
X158454956Y-121300919D01*
X158446125Y-121295061D01*
X158435645Y-121288080D01*
X158423705Y-121280104D01*
X158410496Y-121271262D01*
X158396204Y-121261680D01*
X158381026Y-121251488D01*
X158365146Y-121240813D01*
X158348754Y-121229783D01*
X158332040Y-121218526D01*
X158315197Y-121207168D01*
X158298411Y-121195842D01*
X158281873Y-121184669D01*
X158265773Y-121173787D01*
X158250300Y-121163314D01*
X158235645Y-121153382D01*
X158221996Y-121144120D01*
X158209544Y-121135652D01*
X158198478Y-121128113D01*
X158188989Y-121121621D01*
X158181266Y-121116313D01*
X158175500Y-121112314D01*
X158171875Y-121109749D01*
X158170588Y-121108750D01*
X158170500Y-121107937D01*
X158171799Y-121106847D01*
X158173230Y-121106408D01*
X158177167Y-121104730D01*
X158183190Y-121101970D01*
X158190946Y-121098291D01*
X158200095Y-121093865D01*
X158210293Y-121088863D01*
X158221199Y-121083456D01*
X158232469Y-121077812D01*
X158243759Y-121072103D01*
X158254728Y-121066500D01*
X158265031Y-121061171D01*
X158274326Y-121056287D01*
X158282270Y-121052020D01*
X158300190Y-121042057D01*
X158323343Y-121028731D01*
X158347236Y-121014536D01*
X158370990Y-121000004D01*
X158393729Y-120985664D01*
X158414576Y-120972046D01*
X158422586Y-120966725D01*
X158430626Y-120961432D01*
X158437494Y-120956962D01*
X158442853Y-120953536D01*
X158446365Y-120951366D01*
X158447689Y-120950676D01*
X158447730Y-120950958D01*
G37*
G36*
X157504028Y-119356527D02*
G01*
X157507829Y-119358723D01*
X157512902Y-119362137D01*
X157514969Y-119363548D01*
X157528689Y-119373595D01*
X157543648Y-119385576D01*
X157559363Y-119399044D01*
X157575355Y-119413558D01*
X157591143Y-119428659D01*
X157606246Y-119443916D01*
X157620184Y-119458874D01*
X157632476Y-119473092D01*
X157640659Y-119483166D01*
X157670725Y-119523169D01*
X157698537Y-119565072D01*
X157724062Y-119608729D01*
X157747269Y-119653992D01*
X157768123Y-119700715D01*
X157786592Y-119748751D01*
X157802642Y-119797953D01*
X157816245Y-119848174D01*
X157827360Y-119899274D01*
X157835959Y-119951095D01*
X157842009Y-120003498D01*
X157845477Y-120056335D01*
X157846329Y-120109458D01*
X157844533Y-120162722D01*
X157840055Y-120215978D01*
X157832864Y-120269082D01*
X157822925Y-120321886D01*
X157811781Y-120368392D01*
X157798510Y-120414284D01*
X157783271Y-120459109D01*
X157766156Y-120502713D01*
X157747261Y-120544944D01*
X157726671Y-120585642D01*
X157704486Y-120624658D01*
X157680795Y-120661836D01*
X157655700Y-120697023D01*
X157629276Y-120730063D01*
X157601630Y-120760803D01*
X157572852Y-120789088D01*
X157543034Y-120814765D01*
X157512268Y-120837679D01*
X157509778Y-120839381D01*
X157505145Y-120842493D01*
X157501814Y-120844645D01*
X157500384Y-120845449D01*
X157499693Y-120845168D01*
X157496789Y-120843379D01*
X157492089Y-120840174D01*
X157485981Y-120835832D01*
X157478862Y-120830629D01*
X157471125Y-120824843D01*
X157442453Y-120801661D01*
X157412029Y-120773558D01*
X157382906Y-120742928D01*
X157355161Y-120709914D01*
X157328870Y-120674663D01*
X157304109Y-120637322D01*
X157280953Y-120598036D01*
X157259483Y-120556957D01*
X157239772Y-120514228D01*
X157221896Y-120469997D01*
X157205933Y-120424412D01*
X157191959Y-120377618D01*
X157180049Y-120329764D01*
X157170282Y-120280995D01*
X157162731Y-120231459D01*
X157158677Y-120193178D01*
X157156043Y-120152626D01*
X157154893Y-120111045D01*
X157155234Y-120069247D01*
X157157073Y-120028058D01*
X157160419Y-119988297D01*
X157165780Y-119945973D01*
X157174063Y-119897704D01*
X157184520Y-119850147D01*
X157197074Y-119803454D01*
X157211646Y-119757776D01*
X157228156Y-119713265D01*
X157246525Y-119670077D01*
X157266676Y-119628361D01*
X157288530Y-119588269D01*
X157312004Y-119549957D01*
X157337023Y-119513574D01*
X157363508Y-119479273D01*
X157391380Y-119447209D01*
X157420558Y-119417534D01*
X157450966Y-119390393D01*
X157482523Y-119365951D01*
X157488621Y-119361569D01*
X157493796Y-119358074D01*
X157497657Y-119356123D01*
X157500853Y-119355634D01*
X157504028Y-119356527D01*
G37*
G36*
X157501073Y-118100906D02*
G01*
X157502663Y-118104827D01*
X157505250Y-118111331D01*
X157508785Y-118120285D01*
X157513215Y-118131559D01*
X157518489Y-118145020D01*
X157524558Y-118160535D01*
X157531369Y-118177979D01*
X157538872Y-118197214D01*
X157547016Y-118218111D01*
X157555749Y-118240536D01*
X157565022Y-118264362D01*
X157574782Y-118289454D01*
X157584976Y-118315681D01*
X157595561Y-118342911D01*
X157606478Y-118371015D01*
X157617679Y-118399859D01*
X157629113Y-118429312D01*
X157640729Y-118459243D01*
X157652474Y-118489525D01*
X157664303Y-118520013D01*
X157676157Y-118550588D01*
X157687990Y-118581115D01*
X157699750Y-118611462D01*
X157711385Y-118641498D01*
X157722845Y-118671091D01*
X157734078Y-118700109D01*
X157745036Y-118728422D01*
X157755665Y-118755897D01*
X157765915Y-118782403D01*
X157775734Y-118807808D01*
X157785072Y-118831981D01*
X157793880Y-118854791D01*
X157802104Y-118876105D01*
X157809690Y-118895793D01*
X157816594Y-118913723D01*
X157822761Y-118929763D01*
X157828142Y-118943782D01*
X157832684Y-118955648D01*
X157836337Y-118965229D01*
X157839050Y-118972396D01*
X157840771Y-118977015D01*
X157841451Y-118978953D01*
X157841713Y-118980110D01*
X157841511Y-118981847D01*
X157839497Y-118981642D01*
X157838944Y-118981478D01*
X157834662Y-118980431D01*
X157827936Y-118978990D01*
X157819222Y-118977236D01*
X157808976Y-118975255D01*
X157797654Y-118973133D01*
X157785715Y-118970952D01*
X157773609Y-118968798D01*
X157761799Y-118966756D01*
X157750739Y-118964910D01*
X157740885Y-118963345D01*
X157736283Y-118962645D01*
X157667217Y-118953767D01*
X157598178Y-118947928D01*
X157529170Y-118945127D01*
X157460196Y-118945365D01*
X157391252Y-118948646D01*
X157322347Y-118954965D01*
X157253477Y-118964320D01*
X157184647Y-118976717D01*
X157177556Y-118978136D01*
X157170031Y-118979610D01*
X157164021Y-118980746D01*
X157160018Y-118981454D01*
X157158506Y-118981642D01*
X157158517Y-118981576D01*
X157159207Y-118979580D01*
X157160941Y-118974909D01*
X157163664Y-118967696D01*
X157167326Y-118958071D01*
X157171877Y-118946163D01*
X157177266Y-118932110D01*
X157183441Y-118916034D01*
X157190353Y-118898071D01*
X157197950Y-118878355D01*
X157206179Y-118857012D01*
X157214992Y-118834175D01*
X157224343Y-118809976D01*
X157234166Y-118784546D01*
X157244423Y-118758015D01*
X157255061Y-118730514D01*
X157266028Y-118702178D01*
X157277272Y-118673133D01*
X157288743Y-118643514D01*
X157300391Y-118613450D01*
X157312164Y-118583073D01*
X157324012Y-118552511D01*
X157335883Y-118521903D01*
X157347727Y-118491374D01*
X157359493Y-118461057D01*
X157371130Y-118431082D01*
X157382586Y-118401580D01*
X157393813Y-118372684D01*
X157404757Y-118344524D01*
X157415369Y-118317232D01*
X157425598Y-118290937D01*
X157435392Y-118265775D01*
X157444701Y-118241872D01*
X157453475Y-118219361D01*
X157461661Y-118198375D01*
X157469210Y-118179043D01*
X157476070Y-118161496D01*
X157482190Y-118145866D01*
X157487520Y-118132285D01*
X157492009Y-118120883D01*
X157495607Y-118111791D01*
X157498260Y-118105141D01*
X157499919Y-118101064D01*
X157500535Y-118099691D01*
X157501073Y-118100906D01*
G37*
G36*
X157161312Y-121218332D02*
G01*
X157166045Y-121219126D01*
X157172736Y-121220342D01*
X157180939Y-121221899D01*
X157190208Y-121223717D01*
X157227837Y-121230788D01*
X157282320Y-121239453D01*
X157336145Y-121246052D01*
X157390097Y-121250664D01*
X157444961Y-121253365D01*
X157501519Y-121254231D01*
X157560610Y-121253186D01*
X157622725Y-121249755D01*
X157684048Y-121243879D01*
X157745179Y-121235498D01*
X157806716Y-121224554D01*
X157812261Y-121223474D01*
X157821532Y-121221711D01*
X157829532Y-121220262D01*
X157835844Y-121219199D01*
X157840028Y-121218594D01*
X157841663Y-121218519D01*
X157841689Y-121218573D01*
X157841330Y-121220478D01*
X157840053Y-121224581D01*
X157838044Y-121230321D01*
X157835488Y-121237140D01*
X157835480Y-121237156D01*
X157834332Y-121240132D01*
X157832163Y-121245739D01*
X157829026Y-121253849D01*
X157824972Y-121264327D01*
X157820053Y-121277040D01*
X157814321Y-121291853D01*
X157807827Y-121308635D01*
X157800623Y-121327251D01*
X157792760Y-121347568D01*
X157784291Y-121369452D01*
X157775266Y-121392771D01*
X157765738Y-121417390D01*
X157755758Y-121443177D01*
X157745378Y-121469998D01*
X157734649Y-121497720D01*
X157723623Y-121526208D01*
X157712351Y-121555332D01*
X157700886Y-121584954D01*
X157689281Y-121614943D01*
X157677581Y-121645167D01*
X157665844Y-121675490D01*
X157654120Y-121705780D01*
X157642462Y-121735904D01*
X157630917Y-121765730D01*
X157619542Y-121795118D01*
X157608384Y-121823941D01*
X157597502Y-121852065D01*
X157586937Y-121879355D01*
X157576745Y-121905677D01*
X157566983Y-121930900D01*
X157557696Y-121954887D01*
X157548942Y-121977507D01*
X157540768Y-121998628D01*
X157533224Y-122018114D01*
X157526365Y-122035833D01*
X157520241Y-122051651D01*
X157514905Y-122065435D01*
X157510409Y-122077052D01*
X157506801Y-122086366D01*
X157504136Y-122093247D01*
X157502465Y-122097559D01*
X157501840Y-122099171D01*
X157501798Y-122099275D01*
X157500870Y-122100597D01*
X157499609Y-122099171D01*
X157499594Y-122099142D01*
X157498828Y-122097300D01*
X157497028Y-122092772D01*
X157494242Y-122085691D01*
X157490524Y-122076194D01*
X157485922Y-122064406D01*
X157480488Y-122050459D01*
X157474274Y-122034486D01*
X157467328Y-122016619D01*
X157459702Y-121996988D01*
X157451448Y-121975724D01*
X157442616Y-121952959D01*
X157433257Y-121928825D01*
X157423421Y-121903452D01*
X157413160Y-121876973D01*
X157402524Y-121849518D01*
X157391564Y-121821218D01*
X157380331Y-121792206D01*
X157368875Y-121762613D01*
X157357248Y-121732569D01*
X157345500Y-121702209D01*
X157333682Y-121671658D01*
X157321845Y-121641053D01*
X157310040Y-121610523D01*
X157298318Y-121580200D01*
X157286727Y-121550215D01*
X157275322Y-121520699D01*
X157264153Y-121491784D01*
X157253266Y-121463602D01*
X157242717Y-121436283D01*
X157232556Y-121409958D01*
X157222834Y-121384761D01*
X157213600Y-121360822D01*
X157204904Y-121338270D01*
X157196801Y-121317241D01*
X157189338Y-121297861D01*
X157182568Y-121280266D01*
X157176540Y-121264587D01*
X157171307Y-121250949D01*
X157166917Y-121239491D01*
X157163424Y-121230342D01*
X157160877Y-121223633D01*
X157159326Y-121219494D01*
X157158824Y-121218059D01*
X157158984Y-121218039D01*
X157161312Y-121218332D01*
G37*
G36*
X158994638Y-119856893D02*
G01*
X158999116Y-119857929D01*
X159006279Y-119859616D01*
X159015996Y-119861916D01*
X159028136Y-119864802D01*
X159042570Y-119868244D01*
X159059164Y-119872209D01*
X159077793Y-119876664D01*
X159098314Y-119881579D01*
X159120609Y-119886922D01*
X159144541Y-119892662D01*
X159169981Y-119898767D01*
X159196797Y-119905205D01*
X159224860Y-119911945D01*
X159254036Y-119918956D01*
X159284194Y-119926204D01*
X159315209Y-119933662D01*
X159346945Y-119941294D01*
X159379272Y-119949072D01*
X159412058Y-119956963D01*
X159445174Y-119964934D01*
X159478488Y-119972956D01*
X159511870Y-119980995D01*
X159545190Y-119989022D01*
X159578315Y-119997004D01*
X159611115Y-120004909D01*
X159643459Y-120012707D01*
X159675217Y-120020366D01*
X159706257Y-120027853D01*
X159736448Y-120035140D01*
X159765660Y-120042190D01*
X159793762Y-120048977D01*
X159820623Y-120055466D01*
X159846112Y-120061627D01*
X159870098Y-120067428D01*
X159892451Y-120072841D01*
X159913039Y-120077825D01*
X159931734Y-120082357D01*
X159948394Y-120086403D01*
X159962906Y-120089931D01*
X159975126Y-120092913D01*
X159984928Y-120095310D01*
X159992180Y-120097097D01*
X159996751Y-120098243D01*
X159998511Y-120098709D01*
X159998631Y-120098756D01*
X160000030Y-120099607D01*
X159998509Y-120100472D01*
X159998230Y-120100550D01*
X159995496Y-120101236D01*
X159989956Y-120102600D01*
X159981720Y-120104616D01*
X159970895Y-120107257D01*
X159957589Y-120110498D01*
X159941910Y-120114311D01*
X159923967Y-120118672D01*
X159903865Y-120123553D01*
X159881716Y-120128928D01*
X159857626Y-120134772D01*
X159831703Y-120141058D01*
X159804056Y-120147760D01*
X159774793Y-120154852D01*
X159744018Y-120162306D01*
X159711850Y-120170099D01*
X159678385Y-120178201D01*
X159643738Y-120186588D01*
X159608013Y-120195235D01*
X159571321Y-120204114D01*
X159533769Y-120213198D01*
X159495465Y-120222464D01*
X159480547Y-120226071D01*
X159442538Y-120235264D01*
X159405327Y-120244261D01*
X159369026Y-120253040D01*
X159333738Y-120261572D01*
X159299570Y-120269831D01*
X159266640Y-120277792D01*
X159235044Y-120285432D01*
X159204895Y-120292720D01*
X159176299Y-120299631D01*
X159149365Y-120306140D01*
X159124200Y-120312221D01*
X159100912Y-120317848D01*
X159079608Y-120322995D01*
X159060401Y-120327635D01*
X159043387Y-120331742D01*
X159028684Y-120335291D01*
X159016397Y-120338256D01*
X159006633Y-120340610D01*
X158999500Y-120342328D01*
X158995107Y-120343383D01*
X158993559Y-120343749D01*
X158993499Y-120343757D01*
X158992420Y-120342967D01*
X158992629Y-120342419D01*
X158993979Y-120339495D01*
X158996441Y-120334376D01*
X158999855Y-120327388D01*
X159004057Y-120318861D01*
X159008887Y-120309127D01*
X159014180Y-120298513D01*
X159033031Y-120259766D01*
X159054974Y-120211385D01*
X159074716Y-120163815D01*
X159092448Y-120116588D01*
X159098442Y-120099742D01*
X159089710Y-120075554D01*
X159088052Y-120070982D01*
X159065755Y-120013539D01*
X159040612Y-119955671D01*
X159012565Y-119897248D01*
X159010933Y-119893994D01*
X159006001Y-119884093D01*
X159001625Y-119875205D01*
X158997972Y-119867658D01*
X158995202Y-119861806D01*
X158993480Y-119857987D01*
X158992970Y-119856539D01*
X158992977Y-119856538D01*
X158994638Y-119856893D01*
G37*
G36*
X156008155Y-119857026D02*
G01*
X156006802Y-119860094D01*
X156004341Y-119865341D01*
X156000926Y-119872446D01*
X155996711Y-119881087D01*
X155991853Y-119890943D01*
X155986505Y-119901693D01*
X155974792Y-119925428D01*
X155963140Y-119949819D01*
X155952515Y-119973029D01*
X155942598Y-119995790D01*
X155933074Y-120018829D01*
X155923625Y-120042876D01*
X155913936Y-120068655D01*
X155902519Y-120099622D01*
X155911151Y-120123368D01*
X155926041Y-120162804D01*
X155944984Y-120208929D01*
X155965529Y-120254751D01*
X155988120Y-120301294D01*
X155990419Y-120305870D01*
X155995438Y-120315881D01*
X155999915Y-120324845D01*
X156003686Y-120332430D01*
X156006584Y-120338302D01*
X156008444Y-120342125D01*
X156009101Y-120343571D01*
X156008662Y-120343745D01*
X156006443Y-120343331D01*
X156006426Y-120343327D01*
X156004557Y-120342859D01*
X155999879Y-120341716D01*
X155992524Y-120339927D01*
X155982623Y-120337524D01*
X155970304Y-120334535D01*
X155955701Y-120331006D01*
X155938944Y-120326953D01*
X155920167Y-120322413D01*
X155899494Y-120317417D01*
X155877062Y-120312000D01*
X155852999Y-120306186D01*
X155827437Y-120300014D01*
X155800511Y-120293512D01*
X155772345Y-120286713D01*
X155743074Y-120279648D01*
X155712828Y-120272349D01*
X155681737Y-120264847D01*
X155649934Y-120257173D01*
X155617549Y-120249360D01*
X155584713Y-120241440D01*
X155551557Y-120233442D01*
X155518212Y-120225400D01*
X155484808Y-120217345D01*
X155451478Y-120209308D01*
X155418352Y-120201321D01*
X155385560Y-120193415D01*
X155353237Y-120185623D01*
X155321507Y-120177977D01*
X155290505Y-120170504D01*
X155260364Y-120163237D01*
X155231213Y-120156216D01*
X155203182Y-120149463D01*
X155176403Y-120143014D01*
X155151006Y-120136897D01*
X155127125Y-120131146D01*
X155104887Y-120125793D01*
X155084425Y-120120870D01*
X155065870Y-120116406D01*
X155049353Y-120112435D01*
X155035005Y-120108989D01*
X155022956Y-120106096D01*
X155013338Y-120103791D01*
X155006282Y-120102104D01*
X155001917Y-120101068D01*
X155000379Y-120100708D01*
X155000116Y-120100469D01*
X155001490Y-120099369D01*
X155001537Y-120099351D01*
X155003537Y-120098808D01*
X155008337Y-120097593D01*
X155015809Y-120095736D01*
X155025819Y-120093267D01*
X155038239Y-120090221D01*
X155052933Y-120086628D01*
X155069776Y-120082518D01*
X155088635Y-120077929D01*
X155109379Y-120072883D01*
X155131878Y-120067418D01*
X155155999Y-120061565D01*
X155181615Y-120055351D01*
X155208592Y-120048813D01*
X155236800Y-120041980D01*
X155266109Y-120034885D01*
X155296391Y-120027559D01*
X155327505Y-120020031D01*
X155359330Y-120012337D01*
X155391733Y-120004506D01*
X155424582Y-119996569D01*
X155457747Y-119988559D01*
X155491097Y-119980507D01*
X155524501Y-119972444D01*
X155557829Y-119964403D01*
X155590948Y-119956415D01*
X155623730Y-119948511D01*
X155656043Y-119940723D01*
X155687756Y-119933082D01*
X155718738Y-119925622D01*
X155748859Y-119918371D01*
X155777987Y-119911363D01*
X155805993Y-119904627D01*
X155832745Y-119898198D01*
X155858112Y-119892105D01*
X155881964Y-119886379D01*
X155904170Y-119881057D01*
X155924599Y-119876164D01*
X155943119Y-119871735D01*
X155959602Y-119867800D01*
X155973915Y-119864391D01*
X155985926Y-119861542D01*
X155995510Y-119859281D01*
X156002530Y-119857641D01*
X156006859Y-119856652D01*
X156008363Y-119856350D01*
X156008155Y-119857026D01*
G37*
%TD*%
M02*
