M48
; DRILL file KiCad 10.0.3 date 2026-06-20T15:08:11
; FORMAT={-:-/ absolute / metric / decimal}
; #@! TF.CreationDate,2026-06-20T15:08:11+09:00
; #@! TF.GenerationSoftware,Kicad,Pcbnew,10.0.3
; #@! TF.FileFunction,Plated,1,2,PTH
FMAT,2
METRIC
; #@! TA.AperFunction,Plated,PTH,ViaDrill
T1C0.300
; #@! TA.AperFunction,Plated,PTH,ComponentDrill
T2C0.900
; #@! TA.AperFunction,Plated,PTH,ComponentDrill
T3C1.000
; #@! TA.AperFunction,Plated,PTH,ComponentDrill
T4C1.100
%
G90
G05
T1
X83.994Y-121.742
X85.71Y-102.132
X87.34Y-90.385
X87.878Y-92.982
X88.352Y-90.474
X88.893Y-85.757
X89.481Y-65.921
X89.63Y-89.901
X90.517Y-102.509
X91.46Y-86.299
X91.908Y-83.344
X91.926Y-81.688
X92.665Y-109.672
X93.615Y-91.524
X97.488Y-95.689
X97.5Y-120.374
X97.598Y-94.423
X98.654Y-92.603
X98.715Y-90.058
X99.097Y-87.542
X99.608Y-95.876
X100.491Y-91.616
X101.682Y-65.284
X102.697Y-83.074
X104.248Y-97.684
X105.363Y-100.969
X113.271Y-102.601
X122.281Y-121.267
X123.843Y-101.563
X125.319Y-90.521
X125.934Y-92.95
X126.331Y-90.609
X127.046Y-85.351
X127.515Y-65.424
X127.793Y-89.925
X129.697Y-86.395
X129.934Y-83.674
X130.133Y-81.397
X130.664Y-112.486
X131.88Y-91.303
X132.459Y-148.603
X133.645Y-103.389
X135.567Y-95.705
X135.676Y-121.164
X135.715Y-94.443
X136.897Y-92.634
X136.958Y-90.09
X137.34Y-87.573
X137.908Y-95.657
X138.206Y-91.856
X139.858Y-66.074
X139.986Y-84.811
X143.39Y-98.368
X143.539Y-101.759
X151.203Y-105.92
X151.847Y-150.743
X157.245Y-103.617
X157.673Y-82.086
X158.243Y-87.235
X159.959Y-127.751
X161.675Y-108.141
X161.924Y-98.011
X163.199Y-97.612
X163.566Y-100.107
X163.747Y-91.749
X164.064Y-114.298
X164.662Y-71.884
X165.026Y-97.135
X167.32Y-93.511
X167.683Y-90.802
X167.847Y-88.202
X168.515Y-115.543
X169.458Y-98.925
X170.773Y-110.334
X173.244Y-128.913
X173.251Y-105.324
X173.342Y-102.962
X173.453Y-101.697
X174.581Y-97.206
X174.703Y-99.916
X175.086Y-91.994
X175.829Y-98.972
X175.963Y-104.924
X176.916Y-158.013
X177.391Y-92.505
X177.426Y-73.823
X178.853Y-156.271
X180.466Y-110.29
X180.878Y-106.31
X181.268Y-147.718
X183.554Y-125.782
X184.904Y-106.714
X186.553Y-76.165
X186.864Y-87.954
X188.398Y-70.24
X189.2Y-137.3
X189.5Y-116.0
X189.6Y-112.4
X190.9Y-143.5
X192.5Y-109.7
X192.972Y-154.785
X193.772Y-155.585
X193.972Y-150.285
X194.372Y-156.385
X194.772Y-151.585
X195.205Y-89.252
X195.472Y-152.785
X196.0Y-119.0
X196.8Y-86.8
X197.4Y-94.8
X197.4Y-97.6
X198.863Y-154.535
X199.163Y-155.735
X199.2Y-89.2
X199.4Y-92.0
X199.55Y-144.65
X199.563Y-156.935
X200.1Y-101.7
X200.663Y-150.635
X200.75Y-104.55
X200.8Y-118.025
X201.105Y-119.295
X201.4Y-105.185
X201.4Y-123.105
X201.4Y-124.375
X201.4Y-125.645
X201.8Y-91.8
X202.2Y-120.6
X202.4Y-94.4
X202.4Y-96.7
X202.6Y-100.4
X204.172Y-152.785
X204.972Y-150.385
X205.072Y-156.585
X205.972Y-155.685
X206.6Y-120.2
X206.672Y-149.185
X207.8Y-117.355
X207.893Y-154.364
X209.572Y-103.685
X210.472Y-103.185
X211.072Y-102.485
X215.845Y-72.033
X217.51Y-89.608
X219.159Y-108.459
X220.578Y-127.585
X222.414Y-74.263
X223.084Y-148.388
X223.917Y-100.185
X224.732Y-109.501
X224.812Y-92.921
X225.313Y-98.956
X225.677Y-101.387
X225.841Y-97.665
X226.691Y-129.17
X227.367Y-88.618
X227.622Y-91.528
X227.782Y-94.064
X231.152Y-98.358
X231.707Y-117.815
X232.165Y-128.124
X234.787Y-94.375
X235.276Y-101.183
X235.387Y-102.449
X235.524Y-154.565
X235.736Y-72.274
X236.044Y-96.719
X236.18Y-99.193
X237.5Y-98.058
X237.535Y-91.171
X238.346Y-102.833
X239.318Y-121.234
X239.57Y-97.834
X243.322Y-103.609
X243.754Y-108.543
X244.869Y-122.023
X245.774Y-126.533
X250.072Y-126.767
X255.017Y-149.874
X259.363Y-98.274
X259.444Y-66.387
X261.124Y-92.873
X261.737Y-85.309
X262.449Y-91.795
X262.543Y-101.812
X263.031Y-94.175
X263.912Y-91.03
X264.259Y-121.422
X264.924Y-80.743
X265.165Y-84.227
X265.425Y-87.178
X268.626Y-91.0
X269.413Y-113.114
X271.259Y-120.702
X271.977Y-87.775
X272.899Y-94.067
X273.01Y-95.332
X273.161Y-89.647
X273.624Y-92.128
X273.678Y-65.895
X274.107Y-85.166
X274.617Y-90.986
X275.906Y-90.461
X276.113Y-97.362
X277.052Y-115.383
X279.831Y-96.144
X280.709Y-98.171
X281.179Y-102.082
X282.523Y-115.988
X282.897Y-120.991
X291.445Y-121.985
X297.62Y-65.597
X297.733Y-94.162
X299.261Y-91.634
X299.913Y-84.519
X300.439Y-91.786
X300.72Y-101.021
X301.89Y-90.894
X302.112Y-93.425
X302.435Y-120.631
X303.364Y-80.057
X303.455Y-84.001
X303.647Y-86.916
X307.111Y-90.82
X307.484Y-109.655
X311.461Y-89.547
X311.577Y-86.685
X311.965Y-66.37
X312.123Y-91.833
X312.923Y-85.85
X313.343Y-90.657
X314.24Y-97.468
X315.454Y-115.72
X319.389Y-98.038
X319.777Y-102.466
X320.89Y-116.647
X321.311Y-121.454
T2
X193.15Y-120.2
X194.375Y-122.59
X194.375Y-125.13
X194.375Y-127.67
X194.375Y-130.21
X195.0Y-120.2
T3
X196.138Y-111.212
X198.678Y-111.212
X201.218Y-111.212
X203.758Y-111.212
T4
X192.38Y-103.97
X192.38Y-76.03
X192.38Y-78.57
X192.38Y-81.11
X192.38Y-86.19
X192.38Y-93.81
X192.38Y-98.89
X192.38Y-88.73
X192.38Y-96.35
X192.38Y-101.43
X192.38Y-83.65
X192.38Y-91.27
X207.62Y-88.73
X207.62Y-96.35
X207.62Y-78.57
X207.62Y-83.65
X207.62Y-91.27
X207.62Y-81.11
X207.62Y-86.19
X207.62Y-93.81
X207.62Y-98.89
X207.62Y-101.43
X207.62Y-103.97
X207.62Y-76.03
M30
