%TF.GenerationSoftware,KiCad,Pcbnew,10.0.3*%
%TF.CreationDate,2026-06-20T15:07:42+09:00*%
%TF.ProjectId,TrueStrike56,54727565-5374-4726-996b-6535362e6b69,rev?*%
%TF.SameCoordinates,Original*%
%TF.FileFunction,Paste,Bot*%
%TF.FilePolarity,Positive*%
%FSLAX46Y46*%
G04 Gerber Fmt 4.6, Leading zero omitted, Abs format (unit mm)*
G04 Created by KiCad (PCBNEW 10.0.3) date 2026-06-20 15:07:42*
%MOMM*%
%LPD*%
G01*
G04 APERTURE LIST*
G04 Aperture macros list*
%AMRoundRect*
0 Rectangle with rounded corners*
0 $1 Rounding radius*
0 $2 $3 $4 $5 $6 $7 $8 $9 X,Y pos of 4 corners*
0 Add a 4 corners polygon primitive as box body*
4,1,4,$2,$3,$4,$5,$6,$7,$8,$9,$2,$3,0*
0 Add four circle primitives for the rounded corners*
1,1,$1+$1,$2,$3*
1,1,$1+$1,$4,$5*
1,1,$1+$1,$6,$7*
1,1,$1+$1,$8,$9*
0 Add four rect primitives between the rounded corners*
20,1,$1+$1,$2,$3,$4,$5,0*
20,1,$1+$1,$4,$5,$6,$7,0*
20,1,$1+$1,$6,$7,$8,$9,0*
20,1,$1+$1,$8,$9,$2,$3,0*%
G04 Aperture macros list end*
%ADD10RoundRect,0.250000X-0.443777X0.377615X-0.502608X-0.294817X0.443777X-0.377615X0.502608X0.294817X0*%
%ADD11RoundRect,0.150000X0.572191X0.200633X-0.598338X0.098225X-0.572191X-0.200633X0.598338X-0.098225X0*%
%ADD12RoundRect,0.250000X-0.502608X0.294817X-0.443777X-0.377615X0.502608X-0.294817X0.443777X0.377615X0*%
%ADD13RoundRect,0.150000X0.598338X0.098225X-0.572191X0.200633X-0.598338X-0.098225X0.572191X-0.200633X0*%
%ADD14RoundRect,0.250000X0.475000X-0.337500X0.475000X0.337500X-0.475000X0.337500X-0.475000X-0.337500X0*%
%ADD15RoundRect,0.250000X-0.377615X-0.443777X0.294817X-0.502608X0.377615X0.443777X-0.294817X0.502608X0*%
%ADD16RoundRect,0.250000X-0.294817X-0.502608X0.377615X-0.443777X0.294817X0.502608X-0.377615X0.443777X0*%
%ADD17R,1.000000X0.750000*%
%ADD18RoundRect,0.150000X0.834934X0.077526X-0.808787X0.221333X-0.834934X-0.077526X0.808787X-0.221333X0*%
%ADD19RoundRect,0.150000X0.808787X0.221333X-0.834934X0.077526X-0.808787X-0.221333X0.834934X-0.077526X0*%
%ADD20RoundRect,0.150000X0.825000X0.150000X-0.825000X0.150000X-0.825000X-0.150000X0.825000X-0.150000X0*%
%ADD21RoundRect,0.150000X0.606304X-0.007167X-0.528659X0.296945X-0.606304X0.007167X0.528659X-0.296945X0*%
%ADD22RoundRect,0.250000X-0.371463X0.448939X-0.546166X-0.203061X0.371463X-0.448939X0.546166X0.203061X0*%
%ADD23RoundRect,0.250000X-0.546166X0.203061X-0.371463X-0.448939X0.546166X-0.203061X0.371463X0.448939X0*%
%ADD24RoundRect,0.150000X0.528659X0.296945X-0.606304X-0.007167X-0.528659X-0.296945X0.606304X0.007167X0*%
G04 APERTURE END LIST*
D10*
%TO.C,C9*%
X130094235Y-59253478D03*
X129913387Y-61320582D03*
%TD*%
D11*
%TO.C,S43*%
X298692898Y-100419429D03*
X298858495Y-102312200D03*
X296907832Y-101529230D03*
%TD*%
D12*
%TO.C,C25*%
X223415308Y-66759710D03*
X223596156Y-68826814D03*
%TD*%
D13*
%TO.C,S22*%
X180623303Y-89896470D03*
X180457707Y-91789241D03*
X178672644Y-90679440D03*
%TD*%
D14*
%TO.C,C73*%
X193100002Y-116437502D03*
X193099998Y-114362498D03*
%TD*%
D13*
%TO.C,S2*%
X85680411Y-82227475D03*
X85514815Y-84120246D03*
X83729752Y-83010445D03*
%TD*%
D11*
%TO.C,S56*%
X280713363Y-142650808D03*
X280878960Y-144543579D03*
X278928297Y-143760609D03*
%TD*%
D10*
%TO.C,C15*%
X145861796Y-97603644D03*
X145680948Y-99670748D03*
%TD*%
D12*
%TO.C,C37*%
X280418733Y-58410973D03*
X280599581Y-60478077D03*
%TD*%
%TO.C,C41*%
X299159312Y-58220691D03*
X299340160Y-60287795D03*
%TD*%
%TO.C,C40*%
X285052072Y-115548368D03*
X285232920Y-117615472D03*
%TD*%
D13*
%TO.C,S18*%
X161645795Y-88236164D03*
X161480199Y-90128935D03*
X159695136Y-89019134D03*
%TD*%
D12*
%TO.C,C55*%
X265885669Y-140035680D03*
X266066517Y-142102784D03*
%TD*%
D10*
%TO.C,C18*%
X166112225Y-84714544D03*
X165931377Y-86781648D03*
%TD*%
D13*
%TO.C,S7*%
X103218970Y-100334976D03*
X103053374Y-102227747D03*
X101268311Y-101117946D03*
%TD*%
%TO.C,S4*%
X82359772Y-120182507D03*
X82194176Y-122075278D03*
X80409113Y-120965477D03*
%TD*%
D12*
%TO.C,C46*%
X320018515Y-78068210D03*
X320199363Y-80135314D03*
%TD*%
D15*
%TO.C,C67*%
X131417034Y-83230509D03*
X133484138Y-83411357D03*
%TD*%
D10*
%TO.C,C8*%
X106025096Y-115790859D03*
X105844248Y-117857963D03*
%TD*%
%TO.C,C6*%
X109345726Y-77835833D03*
X109164878Y-79902937D03*
%TD*%
%TO.C,C12*%
X125113290Y-116186008D03*
X124932442Y-118253112D03*
%TD*%
%TO.C,C22*%
X185089733Y-86374860D03*
X184908885Y-88441964D03*
%TD*%
D12*
%TO.C,C33*%
X260982920Y-59010986D03*
X261163768Y-61078090D03*
%TD*%
D13*
%TO.C,S49*%
X120834484Y-142678216D03*
X120668888Y-144570987D03*
X118883825Y-143461186D03*
%TD*%
D12*
%TO.C,C34*%
X262643238Y-77988496D03*
X262824086Y-80055600D03*
%TD*%
D13*
%TO.C,S19*%
X159985479Y-107213672D03*
X159819883Y-109106443D03*
X158034820Y-107996642D03*
%TD*%
D11*
%TO.C,S31*%
X241926411Y-107298129D03*
X242092008Y-109190900D03*
X240141345Y-108407930D03*
%TD*%
D10*
%TO.C,C19*%
X163186733Y-103581353D03*
X163005885Y-105648457D03*
%TD*%
D11*
%TO.C,S32*%
X243586732Y-126275626D03*
X243752329Y-128168397D03*
X241801666Y-127385427D03*
%TD*%
%TO.C,S36*%
X262176831Y-120187229D03*
X262342428Y-122080000D03*
X260391765Y-121297030D03*
%TD*%
D16*
%TO.C,C70*%
X266570947Y-83785736D03*
X268638051Y-83604888D03*
%TD*%
D12*
%TO.C,C28*%
X228396256Y-123692249D03*
X228577104Y-125759353D03*
%TD*%
D13*
%TO.C,S24*%
X177302659Y-127851503D03*
X177137063Y-129744274D03*
X175352000Y-128634473D03*
%TD*%
D12*
%TO.C,C38*%
X281731436Y-77593354D03*
X281912284Y-79660458D03*
%TD*%
D13*
%TO.C,S20*%
X158325148Y-126191181D03*
X158159552Y-128083952D03*
X156374489Y-126974151D03*
%TD*%
D17*
%TO.C,SW1*%
X203000000Y-137825000D03*
X197000000Y-137825000D03*
X203000000Y-141575000D03*
X197000000Y-141575000D03*
%TD*%
D10*
%TO.C,C50*%
X144278413Y-140816907D03*
X144097565Y-142884011D03*
%TD*%
D11*
%TO.C,S48*%
X319552107Y-120266949D03*
X319717704Y-122159720D03*
X317767041Y-121376750D03*
%TD*%
D13*
%TO.C,S5*%
X106539603Y-62379958D03*
X106374007Y-64272729D03*
X104588944Y-63162928D03*
%TD*%
D12*
%TO.C,C35*%
X263038377Y-97076692D03*
X263219225Y-99143796D03*
%TD*%
D13*
%TO.C,S23*%
X178962974Y-108873982D03*
X178797378Y-110766753D03*
X177012315Y-109656952D03*
%TD*%
%TO.C,S12*%
X120646859Y-119707636D03*
X120481263Y-121600407D03*
X118696200Y-120490606D03*
%TD*%
D12*
%TO.C,C48*%
X323339151Y-116023238D03*
X323519999Y-118090342D03*
%TD*%
D11*
%TO.C,S28*%
X224609207Y-127935951D03*
X224774804Y-129828722D03*
X222824141Y-129045752D03*
%TD*%
%TO.C,S33*%
X257195877Y-63254701D03*
X257361474Y-65147472D03*
X255410811Y-64364502D03*
%TD*%
D10*
%TO.C,C7*%
X107685416Y-96813349D03*
X107504568Y-98880453D03*
%TD*%
D11*
%TO.C,S41*%
X295372259Y-62464402D03*
X295537856Y-64357173D03*
X293587193Y-63574203D03*
%TD*%
D18*
%TO.C,U2*%
X96285946Y-87933524D03*
X96175258Y-89198692D03*
X96064570Y-90463854D03*
X95953883Y-91729025D03*
X95843194Y-92994193D03*
X95732507Y-94259360D03*
X95621819Y-95524528D03*
X95511132Y-96789694D03*
X90579968Y-96358274D03*
X90690656Y-95093106D03*
X90801344Y-93827944D03*
X90912031Y-92562773D03*
X91022720Y-91297605D03*
X91133407Y-90032438D03*
X91244095Y-88767270D03*
X91354782Y-87502104D03*
%TD*%
D15*
%TO.C,C68*%
X169039988Y-90346646D03*
X171107092Y-90527494D03*
%TD*%
D13*
%TO.C,S8*%
X101558650Y-119312471D03*
X101393054Y-121205242D03*
X99607991Y-120095441D03*
%TD*%
D11*
%TO.C,S45*%
X314571152Y-63334427D03*
X314736749Y-65227198D03*
X312786086Y-64444228D03*
%TD*%
D13*
%TO.C,S10*%
X123967493Y-81752606D03*
X123801897Y-83645377D03*
X122016834Y-82535576D03*
%TD*%
D12*
%TO.C,C27*%
X225470777Y-104825412D03*
X225651625Y-106892516D03*
%TD*%
D13*
%TO.C,S3*%
X84020087Y-101204990D03*
X83854491Y-103097761D03*
X82069428Y-101987960D03*
%TD*%
%TO.C,S6*%
X104879284Y-81357463D03*
X104713688Y-83250234D03*
X102928625Y-82140433D03*
%TD*%
D12*
%TO.C,C26*%
X225075624Y-85737224D03*
X225256472Y-87804328D03*
%TD*%
D19*
%TO.C,U5*%
X232834524Y-95023820D03*
X232945211Y-96288987D03*
X233055899Y-97554154D03*
X233166586Y-98819321D03*
X233277275Y-100084489D03*
X233387962Y-101349660D03*
X233498650Y-102614822D03*
X233609338Y-103879990D03*
X228678174Y-104311410D03*
X228567487Y-103046243D03*
X228456799Y-101781076D03*
X228346112Y-100515909D03*
X228235423Y-99250741D03*
X228124736Y-97985570D03*
X228014048Y-96720408D03*
X227903360Y-95455240D03*
%TD*%
D12*
%TO.C,C42*%
X300819632Y-77198204D03*
X301000480Y-79265308D03*
%TD*%
%TO.C,C39*%
X283391745Y-96570857D03*
X283572593Y-98637961D03*
%TD*%
D13*
%TO.C,S11*%
X122307167Y-100730115D03*
X122141571Y-102622886D03*
X120356508Y-101513085D03*
%TD*%
D14*
%TO.C,C72*%
X194171513Y-148522785D03*
X194171509Y-146447781D03*
%TD*%
D12*
%TO.C,C31*%
X245713457Y-103054411D03*
X245894305Y-105121515D03*
%TD*%
D11*
%TO.C,S34*%
X258856192Y-82232215D03*
X259021789Y-84124986D03*
X257071126Y-83342016D03*
%TD*%
D10*
%TO.C,C5*%
X111006026Y-58858329D03*
X110825178Y-60925433D03*
%TD*%
D13*
%TO.C,S17*%
X163306100Y-69258665D03*
X163140504Y-71151436D03*
X161355441Y-70041635D03*
%TD*%
D11*
%TO.C,S25*%
X219628259Y-71003417D03*
X219793856Y-72896188D03*
X217843193Y-72113218D03*
%TD*%
D10*
%TO.C,C2*%
X90146836Y-78705852D03*
X89965988Y-80772956D03*
%TD*%
%TO.C,C14*%
X147522120Y-78626134D03*
X147341272Y-80693238D03*
%TD*%
D12*
%TO.C,C43*%
X300944955Y-96310003D03*
X301125803Y-98377107D03*
%TD*%
%TO.C,C36*%
X265963873Y-115943518D03*
X266144721Y-118010622D03*
%TD*%
D13*
%TO.C,S15*%
X141395785Y-101120516D03*
X141230189Y-103013287D03*
X139445126Y-101903486D03*
%TD*%
D11*
%TO.C,S46*%
X316231472Y-82311934D03*
X316397069Y-84204705D03*
X314446406Y-83421735D03*
%TD*%
%TO.C,S44*%
X300353218Y-119396927D03*
X300518815Y-121289698D03*
X298568152Y-120506728D03*
%TD*%
D20*
%TO.C,U8*%
X202348002Y-148547002D03*
X202348002Y-149817002D03*
X202348002Y-151087002D03*
X202348002Y-152357002D03*
X202348002Y-153627002D03*
X202348002Y-154897002D03*
X202348002Y-156167002D03*
X202348002Y-157437002D03*
X197398002Y-157437002D03*
X197398002Y-156167002D03*
X197398002Y-154897002D03*
X197398002Y-153627002D03*
X197398002Y-152357002D03*
X197398002Y-151087002D03*
X197398002Y-149817002D03*
X197398002Y-148547002D03*
%TD*%
D10*
%TO.C,C16*%
X144201476Y-116581154D03*
X144020628Y-118648258D03*
%TD*%
D11*
%TO.C,S53*%
X215747953Y-152044689D03*
X215913548Y-153937458D03*
X213962886Y-153154491D03*
%TD*%
%TO.C,S42*%
X297032584Y-81441915D03*
X297198181Y-83334686D03*
X295247518Y-82551716D03*
%TD*%
D12*
%TO.C,C44*%
X304140270Y-115153216D03*
X304321118Y-117220320D03*
%TD*%
D10*
%TO.C,C10*%
X128433912Y-78230978D03*
X128253064Y-80298082D03*
%TD*%
D21*
%TO.C,S51*%
X160655925Y-148252320D03*
X160164165Y-150087581D03*
X158598933Y-148684665D03*
%TD*%
D13*
%TO.C,S13*%
X144716415Y-63165491D03*
X144550819Y-65058262D03*
X142765756Y-63948461D03*
%TD*%
D10*
%TO.C,C52*%
X190184428Y-148655151D03*
X190003582Y-150722255D03*
%TD*%
D18*
%TO.C,U3*%
X134528763Y-87964731D03*
X134418075Y-89229899D03*
X134307387Y-90495061D03*
X134196700Y-91760232D03*
X134086011Y-93025400D03*
X133975324Y-94290567D03*
X133864636Y-95555735D03*
X133753949Y-96820901D03*
X128822785Y-96389481D03*
X128933473Y-95124313D03*
X129044161Y-93859151D03*
X129154848Y-92593980D03*
X129265537Y-91328812D03*
X129376224Y-90063645D03*
X129486912Y-88798477D03*
X129597599Y-87533311D03*
%TD*%
D13*
%TO.C,S52*%
X185638306Y-152169801D03*
X185472711Y-154062570D03*
X183687644Y-152952768D03*
%TD*%
D11*
%TO.C,S55*%
X261735851Y-144311130D03*
X261901448Y-146203901D03*
X259950785Y-145420931D03*
%TD*%
D19*
%TO.C,U6*%
X270457484Y-87907687D03*
X270568171Y-89172854D03*
X270678859Y-90438021D03*
X270789546Y-91703188D03*
X270900235Y-92968356D03*
X271010922Y-94233527D03*
X271121610Y-95498689D03*
X271232298Y-96763857D03*
X266301134Y-97195277D03*
X266190447Y-95930110D03*
X266079759Y-94664943D03*
X265969072Y-93399776D03*
X265858383Y-92134608D03*
X265747696Y-90869437D03*
X265637008Y-89604275D03*
X265526320Y-88339107D03*
%TD*%
D12*
%TO.C,C29*%
X242392823Y-65099388D03*
X242573671Y-67166492D03*
%TD*%
D11*
%TO.C,S39*%
X279604714Y-100814564D03*
X279770311Y-102707335D03*
X277819648Y-101924365D03*
%TD*%
D12*
%TO.C,C47*%
X321678834Y-97045726D03*
X321859682Y-99112830D03*
%TD*%
D22*
%TO.C,C51*%
X165666011Y-145559784D03*
X165128963Y-147564080D03*
%TD*%
D10*
%TO.C,C1*%
X91807164Y-59728345D03*
X91626316Y-61795449D03*
%TD*%
D13*
%TO.C,S9*%
X125627807Y-62775098D03*
X125462211Y-64667869D03*
X123677148Y-63558068D03*
%TD*%
%TO.C,S1*%
X87340724Y-63249972D03*
X87175129Y-65142737D03*
X85390057Y-64032937D03*
%TD*%
D18*
%TO.C,U4*%
X172140653Y-95207379D03*
X172029965Y-96472547D03*
X171919277Y-97737709D03*
X171808590Y-99002880D03*
X171697901Y-100268048D03*
X171587214Y-101533215D03*
X171476526Y-102798383D03*
X171365839Y-104063549D03*
X166434675Y-103632129D03*
X166545363Y-102366961D03*
X166656051Y-101101799D03*
X166766738Y-99836628D03*
X166877427Y-98571460D03*
X166988114Y-97306293D03*
X167098802Y-96041125D03*
X167209489Y-94775959D03*
%TD*%
D10*
%TO.C,C11*%
X125508437Y-97097816D03*
X125327589Y-99164920D03*
%TD*%
%TO.C,C13*%
X149182437Y-59648627D03*
X149001589Y-61715731D03*
%TD*%
D11*
%TO.C,S38*%
X277944392Y-81837059D03*
X278109989Y-83729830D03*
X276159326Y-82946860D03*
%TD*%
D19*
%TO.C,U7*%
X308689224Y-87749972D03*
X308799911Y-89015139D03*
X308910599Y-90280306D03*
X309021286Y-91545473D03*
X309131975Y-92810641D03*
X309242662Y-94075812D03*
X309353350Y-95340974D03*
X309464038Y-96606142D03*
X304532874Y-97037562D03*
X304422187Y-95772395D03*
X304311499Y-94507228D03*
X304200812Y-93242061D03*
X304090123Y-91976893D03*
X303979436Y-90711722D03*
X303868748Y-89446560D03*
X303758060Y-88181392D03*
%TD*%
D10*
%TO.C,C21*%
X186750038Y-67397345D03*
X186569190Y-69464449D03*
%TD*%
%TO.C,C24*%
X181769092Y-124329865D03*
X181588244Y-126396969D03*
%TD*%
D11*
%TO.C,S35*%
X260516515Y-101209721D03*
X260682112Y-103102492D03*
X258731449Y-102319522D03*
%TD*%
D12*
%TO.C,C53*%
X219614697Y-147794015D03*
X219795543Y-149861119D03*
%TD*%
D10*
%TO.C,C17*%
X167772539Y-65737032D03*
X167591691Y-67804136D03*
%TD*%
%TO.C,C49*%
X125300907Y-139156584D03*
X125120059Y-141223688D03*
%TD*%
D11*
%TO.C,S40*%
X281265017Y-119792081D03*
X281430614Y-121684852D03*
X279479951Y-120901882D03*
%TD*%
D15*
%TO.C,C66*%
X93185299Y-83072789D03*
X95252403Y-83253637D03*
%TD*%
D12*
%TO.C,C30*%
X244053140Y-84076903D03*
X244233988Y-86144007D03*
%TD*%
D10*
%TO.C,C23*%
X183429406Y-105352363D03*
X183248558Y-107419467D03*
%TD*%
D11*
%TO.C,S30*%
X240266089Y-88320614D03*
X240431686Y-90213385D03*
X238481023Y-89430415D03*
%TD*%
D10*
%TO.C,C3*%
X87853933Y-97628018D03*
X87673085Y-99695122D03*
%TD*%
D11*
%TO.C,S26*%
X221288579Y-89980927D03*
X221454176Y-91873698D03*
X219503513Y-91090728D03*
%TD*%
%TO.C,S29*%
X238605773Y-69343107D03*
X238771370Y-71235878D03*
X236820707Y-70452908D03*
%TD*%
D12*
%TO.C,C32*%
X247373765Y-122031930D03*
X247554613Y-124099034D03*
%TD*%
D11*
%TO.C,S37*%
X276284069Y-62859557D03*
X276449666Y-64752328D03*
X274499003Y-63969358D03*
%TD*%
%TO.C,S27*%
X222948891Y-108958438D03*
X223114488Y-110851209D03*
X221163825Y-110068239D03*
%TD*%
D16*
%TO.C,C69*%
X228947988Y-90901865D03*
X231015092Y-90721017D03*
%TD*%
D13*
%TO.C,S16*%
X139735468Y-120098017D03*
X139569872Y-121990788D03*
X137784809Y-120880987D03*
%TD*%
D10*
%TO.C,C4*%
X86826209Y-116660884D03*
X86645361Y-118727988D03*
%TD*%
D20*
%TO.C,U10*%
X203975000Y-116755000D03*
X203975000Y-118025000D03*
X203975000Y-119295000D03*
X203975000Y-120565000D03*
X203975000Y-121835000D03*
X203975000Y-123105000D03*
X203975000Y-124375000D03*
X203975000Y-125645000D03*
X199025000Y-125645000D03*
X199025000Y-124375000D03*
X199025000Y-123105000D03*
X199025000Y-121835000D03*
X199025000Y-120565000D03*
X199025000Y-119295000D03*
X199025000Y-118025000D03*
X199025000Y-116755000D03*
%TD*%
D12*
%TO.C,C56*%
X284500419Y-138407103D03*
X284681267Y-140474207D03*
%TD*%
D13*
%TO.C,S14*%
X143056103Y-82143010D03*
X142890507Y-84035781D03*
X141105444Y-82925980D03*
%TD*%
%TO.C,S21*%
X182283623Y-70918966D03*
X182118027Y-72811737D03*
X180332964Y-71701936D03*
%TD*%
D16*
%TO.C,C71*%
X304791615Y-83501509D03*
X306858719Y-83320661D03*
%TD*%
D12*
%TO.C,C45*%
X318358192Y-59090709D03*
X318539040Y-61157813D03*
%TD*%
D11*
%TO.C,S47*%
X317891781Y-101289432D03*
X318057378Y-103182203D03*
X316106715Y-102399233D03*
%TD*%
D13*
%TO.C,S50*%
X139811981Y-144338536D03*
X139646385Y-146231307D03*
X137861322Y-145121506D03*
%TD*%
D10*
%TO.C,C20*%
X162791587Y-122669550D03*
X162610739Y-124736654D03*
%TD*%
D23*
%TO.C,C54*%
X243827779Y-143066190D03*
X244364827Y-145070486D03*
%TD*%
D24*
%TO.C,S54*%
X240835168Y-147903041D03*
X241326926Y-149738301D03*
X239269936Y-149305957D03*
%TD*%
M02*
