%TF.GenerationSoftware,KiCad,Pcbnew,10.0.3*%
%TF.CreationDate,2026-06-20T15:07:42+09:00*%
%TF.ProjectId,TrueStrike56,54727565-5374-4726-996b-6535362e6b69,rev?*%
%TF.SameCoordinates,Original*%
%TF.FileFunction,Legend,Top*%
%TF.FilePolarity,Positive*%
%FSLAX46Y46*%
G04 Gerber Fmt 4.6, Leading zero omitted, Abs format (unit mm)*
G04 Created by KiCad (PCBNEW 10.0.3) date 2026-06-20 15:07:42*
%MOMM*%
%LPD*%
G01*
G04 APERTURE LIST*
%ADD10C,0.160000*%
%ADD11C,0.150000*%
G04 APERTURE END LIST*
D10*
X193818736Y-88948584D02*
X194294926Y-88948584D01*
X193723498Y-89234299D02*
X194056831Y-88234299D01*
X194056831Y-88234299D02*
X194390164Y-89234299D01*
X194675879Y-88329537D02*
X194723498Y-88281918D01*
X194723498Y-88281918D02*
X194818736Y-88234299D01*
X194818736Y-88234299D02*
X195056831Y-88234299D01*
X195056831Y-88234299D02*
X195152069Y-88281918D01*
X195152069Y-88281918D02*
X195199688Y-88329537D01*
X195199688Y-88329537D02*
X195247307Y-88424775D01*
X195247307Y-88424775D02*
X195247307Y-88520013D01*
X195247307Y-88520013D02*
X195199688Y-88662870D01*
X195199688Y-88662870D02*
X194628260Y-89234299D01*
X194628260Y-89234299D02*
X195247307Y-89234299D01*
X196390164Y-88186680D02*
X195533022Y-89472394D01*
X197056831Y-88710489D02*
X196723498Y-88710489D01*
X196723498Y-89234299D02*
X196723498Y-88234299D01*
X196723498Y-88234299D02*
X197199688Y-88234299D01*
X198056831Y-88234299D02*
X197580641Y-88234299D01*
X197580641Y-88234299D02*
X197533022Y-88710489D01*
X197533022Y-88710489D02*
X197580641Y-88662870D01*
X197580641Y-88662870D02*
X197675879Y-88615251D01*
X197675879Y-88615251D02*
X197913974Y-88615251D01*
X197913974Y-88615251D02*
X198009212Y-88662870D01*
X198009212Y-88662870D02*
X198056831Y-88710489D01*
X198056831Y-88710489D02*
X198104450Y-88805727D01*
X198104450Y-88805727D02*
X198104450Y-89043822D01*
X198104450Y-89043822D02*
X198056831Y-89139060D01*
X198056831Y-89139060D02*
X198009212Y-89186680D01*
X198009212Y-89186680D02*
X197913974Y-89234299D01*
X197913974Y-89234299D02*
X197675879Y-89234299D01*
X197675879Y-89234299D02*
X197580641Y-89186680D01*
X197580641Y-89186680D02*
X197533022Y-89139060D01*
X194390167Y-78181924D02*
X194294929Y-78134305D01*
X194294929Y-78134305D02*
X194152072Y-78134305D01*
X194152072Y-78134305D02*
X194009215Y-78181924D01*
X194009215Y-78181924D02*
X193913977Y-78277162D01*
X193913977Y-78277162D02*
X193866358Y-78372400D01*
X193866358Y-78372400D02*
X193818739Y-78562876D01*
X193818739Y-78562876D02*
X193818739Y-78705733D01*
X193818739Y-78705733D02*
X193866358Y-78896209D01*
X193866358Y-78896209D02*
X193913977Y-78991447D01*
X193913977Y-78991447D02*
X194009215Y-79086686D01*
X194009215Y-79086686D02*
X194152072Y-79134305D01*
X194152072Y-79134305D02*
X194247310Y-79134305D01*
X194247310Y-79134305D02*
X194390167Y-79086686D01*
X194390167Y-79086686D02*
X194437786Y-79039066D01*
X194437786Y-79039066D02*
X194437786Y-78705733D01*
X194437786Y-78705733D02*
X194247310Y-78705733D01*
X194866358Y-79134305D02*
X194866358Y-78134305D01*
X194866358Y-78134305D02*
X195437786Y-79134305D01*
X195437786Y-79134305D02*
X195437786Y-78134305D01*
X195913977Y-79134305D02*
X195913977Y-78134305D01*
X195913977Y-78134305D02*
X196152072Y-78134305D01*
X196152072Y-78134305D02*
X196294929Y-78181924D01*
X196294929Y-78181924D02*
X196390167Y-78277162D01*
X196390167Y-78277162D02*
X196437786Y-78372400D01*
X196437786Y-78372400D02*
X196485405Y-78562876D01*
X196485405Y-78562876D02*
X196485405Y-78705733D01*
X196485405Y-78705733D02*
X196437786Y-78896209D01*
X196437786Y-78896209D02*
X196390167Y-78991447D01*
X196390167Y-78991447D02*
X196294929Y-79086686D01*
X196294929Y-79086686D02*
X196152072Y-79134305D01*
X196152072Y-79134305D02*
X195913977Y-79134305D01*
X193818739Y-91548588D02*
X194294929Y-91548588D01*
X193723501Y-91834303D02*
X194056834Y-90834303D01*
X194056834Y-90834303D02*
X194390167Y-91834303D01*
X195247310Y-91834303D02*
X194675882Y-91834303D01*
X194961596Y-91834303D02*
X194961596Y-90834303D01*
X194961596Y-90834303D02*
X194866358Y-90977160D01*
X194866358Y-90977160D02*
X194771120Y-91072398D01*
X194771120Y-91072398D02*
X194675882Y-91120017D01*
X196390167Y-90786684D02*
X195533025Y-92072398D01*
X197056834Y-91310493D02*
X196723501Y-91310493D01*
X196723501Y-91834303D02*
X196723501Y-90834303D01*
X196723501Y-90834303D02*
X197199691Y-90834303D01*
X198009215Y-90834303D02*
X197818739Y-90834303D01*
X197818739Y-90834303D02*
X197723501Y-90881922D01*
X197723501Y-90881922D02*
X197675882Y-90929541D01*
X197675882Y-90929541D02*
X197580644Y-91072398D01*
X197580644Y-91072398D02*
X197533025Y-91262874D01*
X197533025Y-91262874D02*
X197533025Y-91643826D01*
X197533025Y-91643826D02*
X197580644Y-91739064D01*
X197580644Y-91739064D02*
X197628263Y-91786684D01*
X197628263Y-91786684D02*
X197723501Y-91834303D01*
X197723501Y-91834303D02*
X197913977Y-91834303D01*
X197913977Y-91834303D02*
X198009215Y-91786684D01*
X198009215Y-91786684D02*
X198056834Y-91739064D01*
X198056834Y-91739064D02*
X198104453Y-91643826D01*
X198104453Y-91643826D02*
X198104453Y-91405731D01*
X198104453Y-91405731D02*
X198056834Y-91310493D01*
X198056834Y-91310493D02*
X198009215Y-91262874D01*
X198009215Y-91262874D02*
X197913977Y-91215255D01*
X197913977Y-91215255D02*
X197723501Y-91215255D01*
X197723501Y-91215255D02*
X197628263Y-91262874D01*
X197628263Y-91262874D02*
X197580644Y-91310493D01*
X197580644Y-91310493D02*
X197533025Y-91405731D01*
X194390167Y-104534304D02*
X193818739Y-104534304D01*
X194104453Y-104534304D02*
X194104453Y-103534304D01*
X194104453Y-103534304D02*
X194009215Y-103677161D01*
X194009215Y-103677161D02*
X193913977Y-103772399D01*
X193913977Y-103772399D02*
X193818739Y-103820018D01*
X194771120Y-103629542D02*
X194818739Y-103581923D01*
X194818739Y-103581923D02*
X194913977Y-103534304D01*
X194913977Y-103534304D02*
X195152072Y-103534304D01*
X195152072Y-103534304D02*
X195247310Y-103581923D01*
X195247310Y-103581923D02*
X195294929Y-103629542D01*
X195294929Y-103629542D02*
X195342548Y-103724780D01*
X195342548Y-103724780D02*
X195342548Y-103820018D01*
X195342548Y-103820018D02*
X195294929Y-103962875D01*
X195294929Y-103962875D02*
X194723501Y-104534304D01*
X194723501Y-104534304D02*
X195342548Y-104534304D01*
X196485405Y-103486685D02*
X195628263Y-104772399D01*
X197152072Y-104010494D02*
X197294929Y-104058113D01*
X197294929Y-104058113D02*
X197342548Y-104105732D01*
X197342548Y-104105732D02*
X197390167Y-104200970D01*
X197390167Y-104200970D02*
X197390167Y-104343827D01*
X197390167Y-104343827D02*
X197342548Y-104439065D01*
X197342548Y-104439065D02*
X197294929Y-104486685D01*
X197294929Y-104486685D02*
X197199691Y-104534304D01*
X197199691Y-104534304D02*
X196818739Y-104534304D01*
X196818739Y-104534304D02*
X196818739Y-103534304D01*
X196818739Y-103534304D02*
X197152072Y-103534304D01*
X197152072Y-103534304D02*
X197247310Y-103581923D01*
X197247310Y-103581923D02*
X197294929Y-103629542D01*
X197294929Y-103629542D02*
X197342548Y-103724780D01*
X197342548Y-103724780D02*
X197342548Y-103820018D01*
X197342548Y-103820018D02*
X197294929Y-103915256D01*
X197294929Y-103915256D02*
X197247310Y-103962875D01*
X197247310Y-103962875D02*
X197152072Y-104010494D01*
X197152072Y-104010494D02*
X196818739Y-104010494D01*
X198247310Y-103534304D02*
X198056834Y-103534304D01*
X198056834Y-103534304D02*
X197961596Y-103581923D01*
X197961596Y-103581923D02*
X197913977Y-103629542D01*
X197913977Y-103629542D02*
X197818739Y-103772399D01*
X197818739Y-103772399D02*
X197771120Y-103962875D01*
X197771120Y-103962875D02*
X197771120Y-104343827D01*
X197771120Y-104343827D02*
X197818739Y-104439065D01*
X197818739Y-104439065D02*
X197866358Y-104486685D01*
X197866358Y-104486685D02*
X197961596Y-104534304D01*
X197961596Y-104534304D02*
X198152072Y-104534304D01*
X198152072Y-104534304D02*
X198247310Y-104486685D01*
X198247310Y-104486685D02*
X198294929Y-104439065D01*
X198294929Y-104439065D02*
X198342548Y-104343827D01*
X198342548Y-104343827D02*
X198342548Y-104105732D01*
X198342548Y-104105732D02*
X198294929Y-104010494D01*
X198294929Y-104010494D02*
X198247310Y-103962875D01*
X198247310Y-103962875D02*
X198152072Y-103915256D01*
X198152072Y-103915256D02*
X197961596Y-103915256D01*
X197961596Y-103915256D02*
X197866358Y-103962875D01*
X197866358Y-103962875D02*
X197818739Y-104010494D01*
X197818739Y-104010494D02*
X197771120Y-104105732D01*
G36*
X195533032Y-76725413D02*
G01*
X193628002Y-76725413D01*
X193628002Y-76018214D01*
X193739113Y-76018214D01*
X193740277Y-76022071D01*
X193740277Y-76026099D01*
X193744751Y-76036902D01*
X193748130Y-76048099D01*
X193750680Y-76051216D01*
X193752222Y-76054938D01*
X193760492Y-76063208D01*
X193767896Y-76072257D01*
X193771444Y-76074160D01*
X193774294Y-76077010D01*
X193785098Y-76081485D01*
X193795403Y-76087013D01*
X193799412Y-76087413D01*
X193803133Y-76088955D01*
X193814822Y-76088955D01*
X193826462Y-76090119D01*
X193830320Y-76088955D01*
X193834347Y-76088955D01*
X193845150Y-76084480D01*
X193856347Y-76081102D01*
X193859464Y-76078551D01*
X193863186Y-76077010D01*
X193875309Y-76067061D01*
X193913748Y-76028620D01*
X193980482Y-75995254D01*
X194180807Y-75995254D01*
X194247539Y-76028620D01*
X194276801Y-76057881D01*
X194310168Y-76124615D01*
X194310168Y-76324940D01*
X194276800Y-76391674D01*
X194247540Y-76420935D01*
X194180807Y-76454302D01*
X193980482Y-76454302D01*
X193913748Y-76420935D01*
X193875309Y-76382495D01*
X193863187Y-76372546D01*
X193834348Y-76360600D01*
X193803134Y-76360599D01*
X193774295Y-76372545D01*
X193752223Y-76394616D01*
X193740277Y-76423455D01*
X193740276Y-76454669D01*
X193752222Y-76483508D01*
X193762171Y-76495631D01*
X193809790Y-76543251D01*
X193815925Y-76548286D01*
X193817310Y-76549883D01*
X193819714Y-76551396D01*
X193821912Y-76553200D01*
X193823864Y-76554008D01*
X193830582Y-76558237D01*
X193925820Y-76605856D01*
X193940466Y-76611461D01*
X193943333Y-76611664D01*
X193945990Y-76612765D01*
X193961597Y-76614302D01*
X194199692Y-76614302D01*
X194215299Y-76612765D01*
X194217955Y-76611664D01*
X194220822Y-76611461D01*
X194235469Y-76605856D01*
X194330707Y-76558237D01*
X194337424Y-76554008D01*
X194339377Y-76553200D01*
X194341574Y-76551396D01*
X194343979Y-76549883D01*
X194345363Y-76548286D01*
X194351499Y-76543251D01*
X194399118Y-76495631D01*
X194404151Y-76489497D01*
X194405749Y-76488112D01*
X194407264Y-76485704D01*
X194409067Y-76483508D01*
X194409875Y-76481556D01*
X194414103Y-76474840D01*
X194461722Y-76379602D01*
X194467327Y-76364956D01*
X194467530Y-76362088D01*
X194468631Y-76359432D01*
X194470168Y-76343825D01*
X194470168Y-76105730D01*
X194468631Y-76090123D01*
X194467530Y-76087466D01*
X194467327Y-76084599D01*
X194461722Y-76069953D01*
X194414103Y-75974715D01*
X194409873Y-75967996D01*
X194409066Y-75966046D01*
X194407264Y-75963851D01*
X194405749Y-75961443D01*
X194404151Y-75960057D01*
X194399117Y-75953923D01*
X194351499Y-75906304D01*
X194345361Y-75901267D01*
X194343979Y-75899673D01*
X194341575Y-75898160D01*
X194339376Y-75896355D01*
X194337421Y-75895545D01*
X194330707Y-75891319D01*
X194235469Y-75843700D01*
X194220822Y-75838095D01*
X194217955Y-75837891D01*
X194215299Y-75836791D01*
X194199692Y-75835254D01*
X193961597Y-75835254D01*
X193945990Y-75836791D01*
X193943333Y-75837891D01*
X193940466Y-75838095D01*
X193925820Y-75843700D01*
X193915291Y-75848964D01*
X193938758Y-75614302D01*
X194342549Y-75614302D01*
X194358156Y-75612765D01*
X194386995Y-75600820D01*
X194409067Y-75578748D01*
X194421012Y-75549909D01*
X194421012Y-75544308D01*
X194596511Y-75544308D01*
X194599988Y-75559600D01*
X194933321Y-76559600D01*
X194939715Y-76573920D01*
X194943459Y-76578237D01*
X194946016Y-76583351D01*
X194953591Y-76589921D01*
X194960166Y-76597502D01*
X194965282Y-76600059D01*
X194969598Y-76603803D01*
X194979110Y-76606973D01*
X194988085Y-76611461D01*
X194993786Y-76611866D01*
X194999210Y-76613674D01*
X195009222Y-76612962D01*
X195019222Y-76613673D01*
X195024639Y-76611867D01*
X195030346Y-76611462D01*
X195039324Y-76606972D01*
X195048834Y-76603803D01*
X195053150Y-76600059D01*
X195058265Y-76597502D01*
X195064837Y-76589923D01*
X195072416Y-76583351D01*
X195074972Y-76578237D01*
X195078717Y-76573920D01*
X195085111Y-76559600D01*
X195418444Y-75559601D01*
X195421921Y-75544308D01*
X195419708Y-75513172D01*
X195405749Y-75485253D01*
X195382167Y-75464801D01*
X195352555Y-75454931D01*
X195321418Y-75457143D01*
X195293499Y-75471102D01*
X195273048Y-75494684D01*
X195266654Y-75509004D01*
X195009216Y-76281318D01*
X194751778Y-75509004D01*
X194745384Y-75494684D01*
X194724932Y-75471102D01*
X194697013Y-75457142D01*
X194665877Y-75454930D01*
X194636265Y-75464801D01*
X194612683Y-75485253D01*
X194598723Y-75513172D01*
X194596511Y-75544308D01*
X194421012Y-75544308D01*
X194421012Y-75518695D01*
X194409067Y-75489856D01*
X194386995Y-75467784D01*
X194358156Y-75455839D01*
X194342549Y-75454302D01*
X193866359Y-75454302D01*
X193860589Y-75454870D01*
X193858637Y-75454675D01*
X193856730Y-75455250D01*
X193850752Y-75455839D01*
X193839948Y-75460313D01*
X193828752Y-75463692D01*
X193825634Y-75466242D01*
X193821913Y-75467784D01*
X193813642Y-75476054D01*
X193804594Y-75483458D01*
X193802690Y-75487006D01*
X193799841Y-75489856D01*
X193795365Y-75500660D01*
X193789838Y-75510965D01*
X193788656Y-75516858D01*
X193787896Y-75518695D01*
X193787896Y-75520654D01*
X193786756Y-75526342D01*
X193739137Y-76002532D01*
X193739113Y-76018214D01*
X193628002Y-76018214D01*
X193628002Y-75343191D01*
X195533032Y-75343191D01*
X195533032Y-76725413D01*
G37*
X193818741Y-86448589D02*
X194294931Y-86448589D01*
X193723503Y-86734304D02*
X194056836Y-85734304D01*
X194056836Y-85734304D02*
X194390169Y-86734304D01*
X194628265Y-85734304D02*
X195247312Y-85734304D01*
X195247312Y-85734304D02*
X194913979Y-86115256D01*
X194913979Y-86115256D02*
X195056836Y-86115256D01*
X195056836Y-86115256D02*
X195152074Y-86162875D01*
X195152074Y-86162875D02*
X195199693Y-86210494D01*
X195199693Y-86210494D02*
X195247312Y-86305732D01*
X195247312Y-86305732D02*
X195247312Y-86543827D01*
X195247312Y-86543827D02*
X195199693Y-86639065D01*
X195199693Y-86639065D02*
X195152074Y-86686685D01*
X195152074Y-86686685D02*
X195056836Y-86734304D01*
X195056836Y-86734304D02*
X194771122Y-86734304D01*
X194771122Y-86734304D02*
X194675884Y-86686685D01*
X194675884Y-86686685D02*
X194628265Y-86639065D01*
X196390169Y-85686685D02*
X195533027Y-86972399D01*
X197056836Y-86210494D02*
X196723503Y-86210494D01*
X196723503Y-86734304D02*
X196723503Y-85734304D01*
X196723503Y-85734304D02*
X197199693Y-85734304D01*
X198009217Y-86067637D02*
X198009217Y-86734304D01*
X197771122Y-85686685D02*
X197533027Y-86400970D01*
X197533027Y-86400970D02*
X198152074Y-86400970D01*
X194390169Y-99534307D02*
X193818741Y-99534307D01*
X194104455Y-99534307D02*
X194104455Y-98534307D01*
X194104455Y-98534307D02*
X194009217Y-98677164D01*
X194009217Y-98677164D02*
X193913979Y-98772402D01*
X193913979Y-98772402D02*
X193818741Y-98820021D01*
X195247312Y-98867640D02*
X195247312Y-99534307D01*
X195009217Y-98486688D02*
X194771122Y-99200973D01*
X194771122Y-99200973D02*
X195390169Y-99200973D01*
X196485407Y-98486688D02*
X195628265Y-99772402D01*
X197152074Y-99010497D02*
X197294931Y-99058116D01*
X197294931Y-99058116D02*
X197342550Y-99105735D01*
X197342550Y-99105735D02*
X197390169Y-99200973D01*
X197390169Y-99200973D02*
X197390169Y-99343830D01*
X197390169Y-99343830D02*
X197342550Y-99439068D01*
X197342550Y-99439068D02*
X197294931Y-99486688D01*
X197294931Y-99486688D02*
X197199693Y-99534307D01*
X197199693Y-99534307D02*
X196818741Y-99534307D01*
X196818741Y-99534307D02*
X196818741Y-98534307D01*
X196818741Y-98534307D02*
X197152074Y-98534307D01*
X197152074Y-98534307D02*
X197247312Y-98581926D01*
X197247312Y-98581926D02*
X197294931Y-98629545D01*
X197294931Y-98629545D02*
X197342550Y-98724783D01*
X197342550Y-98724783D02*
X197342550Y-98820021D01*
X197342550Y-98820021D02*
X197294931Y-98915259D01*
X197294931Y-98915259D02*
X197247312Y-98962878D01*
X197247312Y-98962878D02*
X197152074Y-99010497D01*
X197152074Y-99010497D02*
X196818741Y-99010497D01*
X197723503Y-98534307D02*
X198342550Y-98534307D01*
X198342550Y-98534307D02*
X198009217Y-98915259D01*
X198009217Y-98915259D02*
X198152074Y-98915259D01*
X198152074Y-98915259D02*
X198247312Y-98962878D01*
X198247312Y-98962878D02*
X198294931Y-99010497D01*
X198294931Y-99010497D02*
X198342550Y-99105735D01*
X198342550Y-99105735D02*
X198342550Y-99343830D01*
X198342550Y-99343830D02*
X198294931Y-99439068D01*
X198294931Y-99439068D02*
X198247312Y-99486688D01*
X198247312Y-99486688D02*
X198152074Y-99534307D01*
X198152074Y-99534307D02*
X197866360Y-99534307D01*
X197866360Y-99534307D02*
X197771122Y-99486688D01*
X197771122Y-99486688D02*
X197723503Y-99439068D01*
X193818743Y-94148593D02*
X194294933Y-94148593D01*
X193723505Y-94434308D02*
X194056838Y-93434308D01*
X194056838Y-93434308D02*
X194390171Y-94434308D01*
X194913981Y-93434308D02*
X195009219Y-93434308D01*
X195009219Y-93434308D02*
X195104457Y-93481927D01*
X195104457Y-93481927D02*
X195152076Y-93529546D01*
X195152076Y-93529546D02*
X195199695Y-93624784D01*
X195199695Y-93624784D02*
X195247314Y-93815260D01*
X195247314Y-93815260D02*
X195247314Y-94053355D01*
X195247314Y-94053355D02*
X195199695Y-94243831D01*
X195199695Y-94243831D02*
X195152076Y-94339069D01*
X195152076Y-94339069D02*
X195104457Y-94386689D01*
X195104457Y-94386689D02*
X195009219Y-94434308D01*
X195009219Y-94434308D02*
X194913981Y-94434308D01*
X194913981Y-94434308D02*
X194818743Y-94386689D01*
X194818743Y-94386689D02*
X194771124Y-94339069D01*
X194771124Y-94339069D02*
X194723505Y-94243831D01*
X194723505Y-94243831D02*
X194675886Y-94053355D01*
X194675886Y-94053355D02*
X194675886Y-93815260D01*
X194675886Y-93815260D02*
X194723505Y-93624784D01*
X194723505Y-93624784D02*
X194771124Y-93529546D01*
X194771124Y-93529546D02*
X194818743Y-93481927D01*
X194818743Y-93481927D02*
X194913981Y-93434308D01*
X196390171Y-93386689D02*
X195533029Y-94672403D01*
X197056838Y-93910498D02*
X196723505Y-93910498D01*
X196723505Y-94434308D02*
X196723505Y-93434308D01*
X196723505Y-93434308D02*
X197199695Y-93434308D01*
X197485410Y-93434308D02*
X198152076Y-93434308D01*
X198152076Y-93434308D02*
X197723505Y-94434308D01*
X194390171Y-96934303D02*
X193818743Y-96934303D01*
X194104457Y-96934303D02*
X194104457Y-95934303D01*
X194104457Y-95934303D02*
X194009219Y-96077160D01*
X194009219Y-96077160D02*
X193913981Y-96172398D01*
X193913981Y-96172398D02*
X193818743Y-96220017D01*
X195294933Y-95934303D02*
X194818743Y-95934303D01*
X194818743Y-95934303D02*
X194771124Y-96410493D01*
X194771124Y-96410493D02*
X194818743Y-96362874D01*
X194818743Y-96362874D02*
X194913981Y-96315255D01*
X194913981Y-96315255D02*
X195152076Y-96315255D01*
X195152076Y-96315255D02*
X195247314Y-96362874D01*
X195247314Y-96362874D02*
X195294933Y-96410493D01*
X195294933Y-96410493D02*
X195342552Y-96505731D01*
X195342552Y-96505731D02*
X195342552Y-96743826D01*
X195342552Y-96743826D02*
X195294933Y-96839064D01*
X195294933Y-96839064D02*
X195247314Y-96886684D01*
X195247314Y-96886684D02*
X195152076Y-96934303D01*
X195152076Y-96934303D02*
X194913981Y-96934303D01*
X194913981Y-96934303D02*
X194818743Y-96886684D01*
X194818743Y-96886684D02*
X194771124Y-96839064D01*
X196485409Y-95886684D02*
X195628267Y-97172398D01*
X197152076Y-96410493D02*
X197294933Y-96458112D01*
X197294933Y-96458112D02*
X197342552Y-96505731D01*
X197342552Y-96505731D02*
X197390171Y-96600969D01*
X197390171Y-96600969D02*
X197390171Y-96743826D01*
X197390171Y-96743826D02*
X197342552Y-96839064D01*
X197342552Y-96839064D02*
X197294933Y-96886684D01*
X197294933Y-96886684D02*
X197199695Y-96934303D01*
X197199695Y-96934303D02*
X196818743Y-96934303D01*
X196818743Y-96934303D02*
X196818743Y-95934303D01*
X196818743Y-95934303D02*
X197152076Y-95934303D01*
X197152076Y-95934303D02*
X197247314Y-95981922D01*
X197247314Y-95981922D02*
X197294933Y-96029541D01*
X197294933Y-96029541D02*
X197342552Y-96124779D01*
X197342552Y-96124779D02*
X197342552Y-96220017D01*
X197342552Y-96220017D02*
X197294933Y-96315255D01*
X197294933Y-96315255D02*
X197247314Y-96362874D01*
X197247314Y-96362874D02*
X197152076Y-96410493D01*
X197152076Y-96410493D02*
X196818743Y-96410493D01*
X198342552Y-96934303D02*
X197771124Y-96934303D01*
X198056838Y-96934303D02*
X198056838Y-95934303D01*
X198056838Y-95934303D02*
X197961600Y-96077160D01*
X197961600Y-96077160D02*
X197866362Y-96172398D01*
X197866362Y-96172398D02*
X197771124Y-96220017D01*
X194390175Y-102034299D02*
X193818747Y-102034299D01*
X194104461Y-102034299D02*
X194104461Y-101034299D01*
X194104461Y-101034299D02*
X194009223Y-101177156D01*
X194009223Y-101177156D02*
X193913985Y-101272394D01*
X193913985Y-101272394D02*
X193818747Y-101320013D01*
X194723509Y-101034299D02*
X195342556Y-101034299D01*
X195342556Y-101034299D02*
X195009223Y-101415251D01*
X195009223Y-101415251D02*
X195152080Y-101415251D01*
X195152080Y-101415251D02*
X195247318Y-101462870D01*
X195247318Y-101462870D02*
X195294937Y-101510489D01*
X195294937Y-101510489D02*
X195342556Y-101605727D01*
X195342556Y-101605727D02*
X195342556Y-101843822D01*
X195342556Y-101843822D02*
X195294937Y-101939060D01*
X195294937Y-101939060D02*
X195247318Y-101986680D01*
X195247318Y-101986680D02*
X195152080Y-102034299D01*
X195152080Y-102034299D02*
X194866366Y-102034299D01*
X194866366Y-102034299D02*
X194771128Y-101986680D01*
X194771128Y-101986680D02*
X194723509Y-101939060D01*
X196485413Y-100986680D02*
X195628271Y-102272394D01*
X197152080Y-101510489D02*
X197294937Y-101558108D01*
X197294937Y-101558108D02*
X197342556Y-101605727D01*
X197342556Y-101605727D02*
X197390175Y-101700965D01*
X197390175Y-101700965D02*
X197390175Y-101843822D01*
X197390175Y-101843822D02*
X197342556Y-101939060D01*
X197342556Y-101939060D02*
X197294937Y-101986680D01*
X197294937Y-101986680D02*
X197199699Y-102034299D01*
X197199699Y-102034299D02*
X196818747Y-102034299D01*
X196818747Y-102034299D02*
X196818747Y-101034299D01*
X196818747Y-101034299D02*
X197152080Y-101034299D01*
X197152080Y-101034299D02*
X197247318Y-101081918D01*
X197247318Y-101081918D02*
X197294937Y-101129537D01*
X197294937Y-101129537D02*
X197342556Y-101224775D01*
X197342556Y-101224775D02*
X197342556Y-101320013D01*
X197342556Y-101320013D02*
X197294937Y-101415251D01*
X197294937Y-101415251D02*
X197247318Y-101462870D01*
X197247318Y-101462870D02*
X197152080Y-101510489D01*
X197152080Y-101510489D02*
X196818747Y-101510489D01*
X197771128Y-101129537D02*
X197818747Y-101081918D01*
X197818747Y-101081918D02*
X197913985Y-101034299D01*
X197913985Y-101034299D02*
X198152080Y-101034299D01*
X198152080Y-101034299D02*
X198247318Y-101081918D01*
X198247318Y-101081918D02*
X198294937Y-101129537D01*
X198294937Y-101129537D02*
X198342556Y-101224775D01*
X198342556Y-101224775D02*
X198342556Y-101320013D01*
X198342556Y-101320013D02*
X198294937Y-101462870D01*
X198294937Y-101462870D02*
X197723509Y-102034299D01*
X197723509Y-102034299D02*
X198342556Y-102034299D01*
G36*
X196390812Y-84425424D02*
G01*
X193581555Y-84425424D01*
X193581555Y-84154680D01*
X193692666Y-84154680D01*
X193704612Y-84183519D01*
X193714561Y-84195642D01*
X193762180Y-84243262D01*
X193768315Y-84248297D01*
X193769700Y-84249894D01*
X193772104Y-84251407D01*
X193774302Y-84253211D01*
X193776254Y-84254019D01*
X193782972Y-84258248D01*
X193878210Y-84305867D01*
X193892856Y-84311472D01*
X193895723Y-84311675D01*
X193898380Y-84312776D01*
X193913987Y-84314313D01*
X194199701Y-84314313D01*
X194215308Y-84312776D01*
X194217964Y-84311675D01*
X194220831Y-84311472D01*
X194235478Y-84305867D01*
X194330716Y-84258248D01*
X194337433Y-84254019D01*
X194339386Y-84253211D01*
X194341583Y-84251407D01*
X194343988Y-84249894D01*
X194345372Y-84248297D01*
X194351508Y-84243262D01*
X194399127Y-84195642D01*
X194404160Y-84189508D01*
X194405758Y-84188123D01*
X194407273Y-84185715D01*
X194409076Y-84183519D01*
X194409884Y-84181567D01*
X194414112Y-84174851D01*
X194461731Y-84079613D01*
X194467336Y-84064967D01*
X194467539Y-84062099D01*
X194468640Y-84059443D01*
X194470177Y-84043836D01*
X194470177Y-83805741D01*
X194468640Y-83790134D01*
X194467539Y-83787477D01*
X194467336Y-83784610D01*
X194461731Y-83769964D01*
X194414112Y-83674726D01*
X194409882Y-83668007D01*
X194409075Y-83666057D01*
X194407273Y-83663862D01*
X194405758Y-83661454D01*
X194404160Y-83660068D01*
X194399126Y-83653934D01*
X194351508Y-83606315D01*
X194345370Y-83601278D01*
X194343988Y-83599684D01*
X194341584Y-83598171D01*
X194339385Y-83596366D01*
X194337430Y-83595556D01*
X194330716Y-83591330D01*
X194235478Y-83543711D01*
X194228193Y-83540923D01*
X194450383Y-83286993D01*
X194455204Y-83280249D01*
X194456695Y-83278759D01*
X194457280Y-83277346D01*
X194459504Y-83274236D01*
X194463668Y-83261922D01*
X194468640Y-83249920D01*
X194468640Y-83247223D01*
X194469505Y-83244666D01*
X194469482Y-83244319D01*
X194596520Y-83244319D01*
X194599997Y-83259611D01*
X194933330Y-84259611D01*
X194939724Y-84273931D01*
X194943468Y-84278248D01*
X194946025Y-84283362D01*
X194953600Y-84289932D01*
X194960175Y-84297513D01*
X194965291Y-84300070D01*
X194969607Y-84303814D01*
X194979119Y-84306984D01*
X194988094Y-84311472D01*
X194993795Y-84311877D01*
X194999219Y-84313685D01*
X195009231Y-84312973D01*
X195019231Y-84313684D01*
X195024648Y-84311878D01*
X195030355Y-84311473D01*
X195039333Y-84306983D01*
X195048843Y-84303814D01*
X195053159Y-84300070D01*
X195058274Y-84297513D01*
X195064846Y-84289934D01*
X195072425Y-84283362D01*
X195074981Y-84278248D01*
X195078726Y-84273931D01*
X195085120Y-84259611D01*
X195120097Y-84154680D01*
X195502190Y-84154680D01*
X195514136Y-84183519D01*
X195524085Y-84195642D01*
X195571704Y-84243262D01*
X195577839Y-84248297D01*
X195579224Y-84249894D01*
X195581628Y-84251407D01*
X195583826Y-84253211D01*
X195585778Y-84254019D01*
X195592496Y-84258248D01*
X195687734Y-84305867D01*
X195702380Y-84311472D01*
X195705247Y-84311675D01*
X195707904Y-84312776D01*
X195723511Y-84314313D01*
X196009225Y-84314313D01*
X196024832Y-84312776D01*
X196027488Y-84311675D01*
X196030355Y-84311472D01*
X196045002Y-84305867D01*
X196140240Y-84258248D01*
X196146957Y-84254019D01*
X196148910Y-84253211D01*
X196151107Y-84251407D01*
X196153512Y-84249894D01*
X196154896Y-84248297D01*
X196161032Y-84243262D01*
X196208651Y-84195642D01*
X196213684Y-84189508D01*
X196215282Y-84188123D01*
X196216797Y-84185715D01*
X196218600Y-84183519D01*
X196219408Y-84181567D01*
X196223636Y-84174851D01*
X196271255Y-84079613D01*
X196276860Y-84064967D01*
X196277063Y-84062099D01*
X196278164Y-84059443D01*
X196279701Y-84043836D01*
X196279701Y-83805741D01*
X196278164Y-83790134D01*
X196277063Y-83787477D01*
X196276860Y-83784610D01*
X196271255Y-83769964D01*
X196223636Y-83674726D01*
X196219406Y-83668007D01*
X196218599Y-83666057D01*
X196216797Y-83663862D01*
X196215282Y-83661454D01*
X196213684Y-83660068D01*
X196208650Y-83653934D01*
X196161032Y-83606315D01*
X196154894Y-83601278D01*
X196153512Y-83599684D01*
X196151108Y-83598171D01*
X196148909Y-83596366D01*
X196146954Y-83595556D01*
X196140240Y-83591330D01*
X196045002Y-83543711D01*
X196037717Y-83540923D01*
X196259907Y-83286993D01*
X196264728Y-83280249D01*
X196266219Y-83278759D01*
X196266804Y-83277346D01*
X196269028Y-83274236D01*
X196273192Y-83261922D01*
X196278164Y-83249920D01*
X196278164Y-83247223D01*
X196279029Y-83244666D01*
X196278164Y-83231695D01*
X196278164Y-83218706D01*
X196277131Y-83216213D01*
X196276952Y-83213521D01*
X196271192Y-83201874D01*
X196266219Y-83189867D01*
X196264310Y-83187958D01*
X196263115Y-83185541D01*
X196253337Y-83176985D01*
X196244147Y-83167795D01*
X196241654Y-83166762D01*
X196239624Y-83164986D01*
X196227310Y-83160821D01*
X196215308Y-83155850D01*
X196211503Y-83155475D01*
X196210054Y-83154985D01*
X196207949Y-83155125D01*
X196199701Y-83154313D01*
X195580654Y-83154313D01*
X195565047Y-83155850D01*
X195536208Y-83167795D01*
X195514136Y-83189867D01*
X195502191Y-83218706D01*
X195502191Y-83249920D01*
X195514136Y-83278759D01*
X195536208Y-83300831D01*
X195565047Y-83312776D01*
X195580654Y-83314313D01*
X196023400Y-83314313D01*
X195806162Y-83562585D01*
X195801340Y-83569328D01*
X195799850Y-83570819D01*
X195799264Y-83572231D01*
X195797041Y-83575342D01*
X195792876Y-83587655D01*
X195787905Y-83599658D01*
X195787905Y-83602354D01*
X195787040Y-83604912D01*
X195787905Y-83617882D01*
X195787905Y-83630872D01*
X195788937Y-83633364D01*
X195789117Y-83636057D01*
X195794876Y-83647703D01*
X195799850Y-83659711D01*
X195801758Y-83661619D01*
X195802954Y-83664037D01*
X195812731Y-83672592D01*
X195821922Y-83681783D01*
X195824414Y-83682815D01*
X195826445Y-83684592D01*
X195838758Y-83688756D01*
X195850761Y-83693728D01*
X195854565Y-83694102D01*
X195856015Y-83694593D01*
X195858119Y-83694452D01*
X195866368Y-83695265D01*
X195990340Y-83695265D01*
X196057072Y-83728631D01*
X196086334Y-83757892D01*
X196119701Y-83824626D01*
X196119701Y-84024951D01*
X196086333Y-84091685D01*
X196057073Y-84120946D01*
X195990340Y-84154313D01*
X195742396Y-84154313D01*
X195675662Y-84120946D01*
X195637223Y-84082506D01*
X195625101Y-84072557D01*
X195596262Y-84060611D01*
X195565048Y-84060610D01*
X195536209Y-84072556D01*
X195514137Y-84094627D01*
X195502191Y-84123466D01*
X195502190Y-84154680D01*
X195120097Y-84154680D01*
X195418453Y-83259612D01*
X195421930Y-83244319D01*
X195419717Y-83213183D01*
X195405758Y-83185264D01*
X195382176Y-83164812D01*
X195352564Y-83154942D01*
X195321427Y-83157154D01*
X195293508Y-83171113D01*
X195273057Y-83194695D01*
X195266663Y-83209015D01*
X195009225Y-83981329D01*
X194751787Y-83209015D01*
X194745393Y-83194695D01*
X194724941Y-83171113D01*
X194697022Y-83157153D01*
X194665886Y-83154941D01*
X194636274Y-83164812D01*
X194612692Y-83185264D01*
X194598732Y-83213183D01*
X194596520Y-83244319D01*
X194469482Y-83244319D01*
X194468640Y-83231695D01*
X194468640Y-83218706D01*
X194467607Y-83216213D01*
X194467428Y-83213521D01*
X194461668Y-83201874D01*
X194456695Y-83189867D01*
X194454786Y-83187958D01*
X194453591Y-83185541D01*
X194443813Y-83176985D01*
X194434623Y-83167795D01*
X194432130Y-83166762D01*
X194430100Y-83164986D01*
X194417786Y-83160821D01*
X194405784Y-83155850D01*
X194401979Y-83155475D01*
X194400530Y-83154985D01*
X194398425Y-83155125D01*
X194390177Y-83154313D01*
X193771130Y-83154313D01*
X193755523Y-83155850D01*
X193726684Y-83167795D01*
X193704612Y-83189867D01*
X193692667Y-83218706D01*
X193692667Y-83249920D01*
X193704612Y-83278759D01*
X193726684Y-83300831D01*
X193755523Y-83312776D01*
X193771130Y-83314313D01*
X194213876Y-83314313D01*
X193996638Y-83562585D01*
X193991816Y-83569328D01*
X193990326Y-83570819D01*
X193989740Y-83572231D01*
X193987517Y-83575342D01*
X193983352Y-83587655D01*
X193978381Y-83599658D01*
X193978381Y-83602354D01*
X193977516Y-83604912D01*
X193978381Y-83617882D01*
X193978381Y-83630872D01*
X193979413Y-83633364D01*
X193979593Y-83636057D01*
X193985352Y-83647703D01*
X193990326Y-83659711D01*
X193992234Y-83661619D01*
X193993430Y-83664037D01*
X194003207Y-83672592D01*
X194012398Y-83681783D01*
X194014890Y-83682815D01*
X194016921Y-83684592D01*
X194029234Y-83688756D01*
X194041237Y-83693728D01*
X194045041Y-83694102D01*
X194046491Y-83694593D01*
X194048595Y-83694452D01*
X194056844Y-83695265D01*
X194180816Y-83695265D01*
X194247548Y-83728631D01*
X194276810Y-83757892D01*
X194310177Y-83824626D01*
X194310177Y-84024951D01*
X194276809Y-84091685D01*
X194247549Y-84120946D01*
X194180816Y-84154313D01*
X193932872Y-84154313D01*
X193866138Y-84120946D01*
X193827699Y-84082506D01*
X193815577Y-84072557D01*
X193786738Y-84060611D01*
X193755524Y-84060610D01*
X193726685Y-84072556D01*
X193704613Y-84094627D01*
X193692667Y-84123466D01*
X193692666Y-84154680D01*
X193581555Y-84154680D01*
X193581555Y-83043202D01*
X196390812Y-83043202D01*
X196390812Y-84425424D01*
G37*
X194437797Y-81634300D02*
X194104464Y-81158109D01*
X193866369Y-81634300D02*
X193866369Y-80634300D01*
X193866369Y-80634300D02*
X194247321Y-80634300D01*
X194247321Y-80634300D02*
X194342559Y-80681919D01*
X194342559Y-80681919D02*
X194390178Y-80729538D01*
X194390178Y-80729538D02*
X194437797Y-80824776D01*
X194437797Y-80824776D02*
X194437797Y-80967633D01*
X194437797Y-80967633D02*
X194390178Y-81062871D01*
X194390178Y-81062871D02*
X194342559Y-81110490D01*
X194342559Y-81110490D02*
X194247321Y-81158109D01*
X194247321Y-81158109D02*
X193866369Y-81158109D01*
X194866369Y-81110490D02*
X195199702Y-81110490D01*
X195342559Y-81634300D02*
X194866369Y-81634300D01*
X194866369Y-81634300D02*
X194866369Y-80634300D01*
X194866369Y-80634300D02*
X195342559Y-80634300D01*
X195723512Y-81586681D02*
X195866369Y-81634300D01*
X195866369Y-81634300D02*
X196104464Y-81634300D01*
X196104464Y-81634300D02*
X196199702Y-81586681D01*
X196199702Y-81586681D02*
X196247321Y-81539061D01*
X196247321Y-81539061D02*
X196294940Y-81443823D01*
X196294940Y-81443823D02*
X196294940Y-81348585D01*
X196294940Y-81348585D02*
X196247321Y-81253347D01*
X196247321Y-81253347D02*
X196199702Y-81205728D01*
X196199702Y-81205728D02*
X196104464Y-81158109D01*
X196104464Y-81158109D02*
X195913988Y-81110490D01*
X195913988Y-81110490D02*
X195818750Y-81062871D01*
X195818750Y-81062871D02*
X195771131Y-81015252D01*
X195771131Y-81015252D02*
X195723512Y-80920014D01*
X195723512Y-80920014D02*
X195723512Y-80824776D01*
X195723512Y-80824776D02*
X195771131Y-80729538D01*
X195771131Y-80729538D02*
X195818750Y-80681919D01*
X195818750Y-80681919D02*
X195913988Y-80634300D01*
X195913988Y-80634300D02*
X196152083Y-80634300D01*
X196152083Y-80634300D02*
X196294940Y-80681919D01*
X196723512Y-81110490D02*
X197056845Y-81110490D01*
X197199702Y-81634300D02*
X196723512Y-81634300D01*
X196723512Y-81634300D02*
X196723512Y-80634300D01*
X196723512Y-80634300D02*
X197199702Y-80634300D01*
X197485417Y-80634300D02*
X198056845Y-80634300D01*
X197771131Y-81634300D02*
X197771131Y-80634300D01*
X204189121Y-83218274D02*
X204093883Y-83170655D01*
X204093883Y-83170655D02*
X203951026Y-83170655D01*
X203951026Y-83170655D02*
X203808169Y-83218274D01*
X203808169Y-83218274D02*
X203712931Y-83313512D01*
X203712931Y-83313512D02*
X203665312Y-83408750D01*
X203665312Y-83408750D02*
X203617693Y-83599226D01*
X203617693Y-83599226D02*
X203617693Y-83742083D01*
X203617693Y-83742083D02*
X203665312Y-83932559D01*
X203665312Y-83932559D02*
X203712931Y-84027797D01*
X203712931Y-84027797D02*
X203808169Y-84123036D01*
X203808169Y-84123036D02*
X203951026Y-84170655D01*
X203951026Y-84170655D02*
X204046264Y-84170655D01*
X204046264Y-84170655D02*
X204189121Y-84123036D01*
X204189121Y-84123036D02*
X204236740Y-84075416D01*
X204236740Y-84075416D02*
X204236740Y-83742083D01*
X204236740Y-83742083D02*
X204046264Y-83742083D01*
X204665312Y-84170655D02*
X204665312Y-83170655D01*
X204665312Y-83170655D02*
X205236740Y-84170655D01*
X205236740Y-84170655D02*
X205236740Y-83170655D01*
X205712931Y-84170655D02*
X205712931Y-83170655D01*
X205712931Y-83170655D02*
X205951026Y-83170655D01*
X205951026Y-83170655D02*
X206093883Y-83218274D01*
X206093883Y-83218274D02*
X206189121Y-83313512D01*
X206189121Y-83313512D02*
X206236740Y-83408750D01*
X206236740Y-83408750D02*
X206284359Y-83599226D01*
X206284359Y-83599226D02*
X206284359Y-83742083D01*
X206284359Y-83742083D02*
X206236740Y-83932559D01*
X206236740Y-83932559D02*
X206189121Y-84027797D01*
X206189121Y-84027797D02*
X206093883Y-84123036D01*
X206093883Y-84123036D02*
X205951026Y-84170655D01*
X205951026Y-84170655D02*
X205712931Y-84170655D01*
X201998649Y-76534293D02*
X201998649Y-75534293D01*
X201998649Y-75534293D02*
X202236744Y-75534293D01*
X202236744Y-75534293D02*
X202379601Y-75581912D01*
X202379601Y-75581912D02*
X202474839Y-75677150D01*
X202474839Y-75677150D02*
X202522458Y-75772388D01*
X202522458Y-75772388D02*
X202570077Y-75962864D01*
X202570077Y-75962864D02*
X202570077Y-76105721D01*
X202570077Y-76105721D02*
X202522458Y-76296197D01*
X202522458Y-76296197D02*
X202474839Y-76391435D01*
X202474839Y-76391435D02*
X202379601Y-76486674D01*
X202379601Y-76486674D02*
X202236744Y-76534293D01*
X202236744Y-76534293D02*
X201998649Y-76534293D01*
X202903411Y-75534293D02*
X203522458Y-75534293D01*
X203522458Y-75534293D02*
X203189125Y-75915245D01*
X203189125Y-75915245D02*
X203331982Y-75915245D01*
X203331982Y-75915245D02*
X203427220Y-75962864D01*
X203427220Y-75962864D02*
X203474839Y-76010483D01*
X203474839Y-76010483D02*
X203522458Y-76105721D01*
X203522458Y-76105721D02*
X203522458Y-76343816D01*
X203522458Y-76343816D02*
X203474839Y-76439054D01*
X203474839Y-76439054D02*
X203427220Y-76486674D01*
X203427220Y-76486674D02*
X203331982Y-76534293D01*
X203331982Y-76534293D02*
X203046268Y-76534293D01*
X203046268Y-76534293D02*
X202951030Y-76486674D01*
X202951030Y-76486674D02*
X202903411Y-76439054D01*
X204665315Y-75486674D02*
X203808173Y-76772388D01*
X204855792Y-75534293D02*
X205427220Y-75534293D01*
X205141506Y-76534293D02*
X205141506Y-75534293D01*
X205665316Y-75534293D02*
X206331982Y-76534293D01*
X206331982Y-75534293D02*
X205665316Y-76534293D01*
X201760554Y-79079739D02*
X201760554Y-78079739D01*
X201760554Y-78079739D02*
X201998649Y-78079739D01*
X201998649Y-78079739D02*
X202141506Y-78127358D01*
X202141506Y-78127358D02*
X202236744Y-78222596D01*
X202236744Y-78222596D02*
X202284363Y-78317834D01*
X202284363Y-78317834D02*
X202331982Y-78508310D01*
X202331982Y-78508310D02*
X202331982Y-78651167D01*
X202331982Y-78651167D02*
X202284363Y-78841643D01*
X202284363Y-78841643D02*
X202236744Y-78936881D01*
X202236744Y-78936881D02*
X202141506Y-79032120D01*
X202141506Y-79032120D02*
X201998649Y-79079739D01*
X201998649Y-79079739D02*
X201760554Y-79079739D01*
X202712935Y-78174977D02*
X202760554Y-78127358D01*
X202760554Y-78127358D02*
X202855792Y-78079739D01*
X202855792Y-78079739D02*
X203093887Y-78079739D01*
X203093887Y-78079739D02*
X203189125Y-78127358D01*
X203189125Y-78127358D02*
X203236744Y-78174977D01*
X203236744Y-78174977D02*
X203284363Y-78270215D01*
X203284363Y-78270215D02*
X203284363Y-78365453D01*
X203284363Y-78365453D02*
X203236744Y-78508310D01*
X203236744Y-78508310D02*
X202665316Y-79079739D01*
X202665316Y-79079739D02*
X203284363Y-79079739D01*
X204427220Y-78032120D02*
X203570078Y-79317834D01*
X205331982Y-79079739D02*
X204998649Y-78603548D01*
X204760554Y-79079739D02*
X204760554Y-78079739D01*
X204760554Y-78079739D02*
X205141506Y-78079739D01*
X205141506Y-78079739D02*
X205236744Y-78127358D01*
X205236744Y-78127358D02*
X205284363Y-78174977D01*
X205284363Y-78174977D02*
X205331982Y-78270215D01*
X205331982Y-78270215D02*
X205331982Y-78413072D01*
X205331982Y-78413072D02*
X205284363Y-78508310D01*
X205284363Y-78508310D02*
X205236744Y-78555929D01*
X205236744Y-78555929D02*
X205141506Y-78603548D01*
X205141506Y-78603548D02*
X204760554Y-78603548D01*
X205665316Y-78079739D02*
X206331982Y-79079739D01*
X206331982Y-78079739D02*
X205665316Y-79079739D01*
X202855795Y-98919569D02*
X203189128Y-98919569D01*
X203331985Y-99443379D02*
X202855795Y-99443379D01*
X202855795Y-99443379D02*
X202855795Y-98443379D01*
X202855795Y-98443379D02*
X203331985Y-98443379D01*
X204189128Y-98443379D02*
X203998652Y-98443379D01*
X203998652Y-98443379D02*
X203903414Y-98490998D01*
X203903414Y-98490998D02*
X203855795Y-98538617D01*
X203855795Y-98538617D02*
X203760557Y-98681474D01*
X203760557Y-98681474D02*
X203712938Y-98871950D01*
X203712938Y-98871950D02*
X203712938Y-99252902D01*
X203712938Y-99252902D02*
X203760557Y-99348140D01*
X203760557Y-99348140D02*
X203808176Y-99395760D01*
X203808176Y-99395760D02*
X203903414Y-99443379D01*
X203903414Y-99443379D02*
X204093890Y-99443379D01*
X204093890Y-99443379D02*
X204189128Y-99395760D01*
X204189128Y-99395760D02*
X204236747Y-99348140D01*
X204236747Y-99348140D02*
X204284366Y-99252902D01*
X204284366Y-99252902D02*
X204284366Y-99014807D01*
X204284366Y-99014807D02*
X204236747Y-98919569D01*
X204236747Y-98919569D02*
X204189128Y-98871950D01*
X204189128Y-98871950D02*
X204093890Y-98824331D01*
X204093890Y-98824331D02*
X203903414Y-98824331D01*
X203903414Y-98824331D02*
X203808176Y-98871950D01*
X203808176Y-98871950D02*
X203760557Y-98919569D01*
X203760557Y-98919569D02*
X203712938Y-99014807D01*
X205427223Y-98395760D02*
X204570081Y-99681474D01*
X205665319Y-98443379D02*
X206331985Y-98443379D01*
X206331985Y-98443379D02*
X205903414Y-99443379D01*
X203903418Y-89213938D02*
X204046275Y-89261557D01*
X204046275Y-89261557D02*
X204284370Y-89261557D01*
X204284370Y-89261557D02*
X204379608Y-89213938D01*
X204379608Y-89213938D02*
X204427227Y-89166318D01*
X204427227Y-89166318D02*
X204474846Y-89071080D01*
X204474846Y-89071080D02*
X204474846Y-88975842D01*
X204474846Y-88975842D02*
X204427227Y-88880604D01*
X204427227Y-88880604D02*
X204379608Y-88832985D01*
X204379608Y-88832985D02*
X204284370Y-88785366D01*
X204284370Y-88785366D02*
X204093894Y-88737747D01*
X204093894Y-88737747D02*
X203998656Y-88690128D01*
X203998656Y-88690128D02*
X203951037Y-88642509D01*
X203951037Y-88642509D02*
X203903418Y-88547271D01*
X203903418Y-88547271D02*
X203903418Y-88452033D01*
X203903418Y-88452033D02*
X203951037Y-88356795D01*
X203951037Y-88356795D02*
X203998656Y-88309176D01*
X203998656Y-88309176D02*
X204093894Y-88261557D01*
X204093894Y-88261557D02*
X204331989Y-88261557D01*
X204331989Y-88261557D02*
X204474846Y-88309176D01*
X205474846Y-89166318D02*
X205427227Y-89213938D01*
X205427227Y-89213938D02*
X205284370Y-89261557D01*
X205284370Y-89261557D02*
X205189132Y-89261557D01*
X205189132Y-89261557D02*
X205046275Y-89213938D01*
X205046275Y-89213938D02*
X204951037Y-89118699D01*
X204951037Y-89118699D02*
X204903418Y-89023461D01*
X204903418Y-89023461D02*
X204855799Y-88832985D01*
X204855799Y-88832985D02*
X204855799Y-88690128D01*
X204855799Y-88690128D02*
X204903418Y-88499652D01*
X204903418Y-88499652D02*
X204951037Y-88404414D01*
X204951037Y-88404414D02*
X205046275Y-88309176D01*
X205046275Y-88309176D02*
X205189132Y-88261557D01*
X205189132Y-88261557D02*
X205284370Y-88261557D01*
X205284370Y-88261557D02*
X205427227Y-88309176D01*
X205427227Y-88309176D02*
X205474846Y-88356795D01*
X206379608Y-89261557D02*
X205903418Y-89261557D01*
X205903418Y-89261557D02*
X205903418Y-88261557D01*
X202760563Y-91807019D02*
X202760563Y-90807019D01*
X202760563Y-90807019D02*
X202998658Y-90807019D01*
X202998658Y-90807019D02*
X203141515Y-90854638D01*
X203141515Y-90854638D02*
X203236753Y-90949876D01*
X203236753Y-90949876D02*
X203284372Y-91045114D01*
X203284372Y-91045114D02*
X203331991Y-91235590D01*
X203331991Y-91235590D02*
X203331991Y-91378447D01*
X203331991Y-91378447D02*
X203284372Y-91568923D01*
X203284372Y-91568923D02*
X203236753Y-91664161D01*
X203236753Y-91664161D02*
X203141515Y-91759400D01*
X203141515Y-91759400D02*
X202998658Y-91807019D01*
X202998658Y-91807019D02*
X202760563Y-91807019D01*
X204189134Y-91140352D02*
X204189134Y-91807019D01*
X203951039Y-90759400D02*
X203712944Y-91473685D01*
X203712944Y-91473685D02*
X204331991Y-91473685D01*
X205427229Y-90759400D02*
X204570087Y-92045114D01*
X206189134Y-91140352D02*
X206189134Y-91807019D01*
X205951039Y-90759400D02*
X205712944Y-91473685D01*
X205712944Y-91473685D02*
X206331991Y-91473685D01*
X202760563Y-96897915D02*
X202760563Y-95897915D01*
X202760563Y-95897915D02*
X202998658Y-95897915D01*
X202998658Y-95897915D02*
X203141515Y-95945534D01*
X203141515Y-95945534D02*
X203236753Y-96040772D01*
X203236753Y-96040772D02*
X203284372Y-96136010D01*
X203284372Y-96136010D02*
X203331991Y-96326486D01*
X203331991Y-96326486D02*
X203331991Y-96469343D01*
X203331991Y-96469343D02*
X203284372Y-96659819D01*
X203284372Y-96659819D02*
X203236753Y-96755057D01*
X203236753Y-96755057D02*
X203141515Y-96850296D01*
X203141515Y-96850296D02*
X202998658Y-96897915D01*
X202998658Y-96897915D02*
X202760563Y-96897915D01*
X203665325Y-95897915D02*
X204331991Y-95897915D01*
X204331991Y-95897915D02*
X203903420Y-96897915D01*
X205427229Y-95850296D02*
X204570087Y-97136010D01*
X206189134Y-95897915D02*
X205998658Y-95897915D01*
X205998658Y-95897915D02*
X205903420Y-95945534D01*
X205903420Y-95945534D02*
X205855801Y-95993153D01*
X205855801Y-95993153D02*
X205760563Y-96136010D01*
X205760563Y-96136010D02*
X205712944Y-96326486D01*
X205712944Y-96326486D02*
X205712944Y-96707438D01*
X205712944Y-96707438D02*
X205760563Y-96802676D01*
X205760563Y-96802676D02*
X205808182Y-96850296D01*
X205808182Y-96850296D02*
X205903420Y-96897915D01*
X205903420Y-96897915D02*
X206093896Y-96897915D01*
X206093896Y-96897915D02*
X206189134Y-96850296D01*
X206189134Y-96850296D02*
X206236753Y-96802676D01*
X206236753Y-96802676D02*
X206284372Y-96707438D01*
X206284372Y-96707438D02*
X206284372Y-96469343D01*
X206284372Y-96469343D02*
X206236753Y-96374105D01*
X206236753Y-96374105D02*
X206189134Y-96326486D01*
X206189134Y-96326486D02*
X206093896Y-96278867D01*
X206093896Y-96278867D02*
X205903420Y-96278867D01*
X205903420Y-96278867D02*
X205808182Y-96326486D01*
X205808182Y-96326486D02*
X205760563Y-96374105D01*
X205760563Y-96374105D02*
X205712944Y-96469343D01*
X203093897Y-101465008D02*
X203236754Y-101512627D01*
X203236754Y-101512627D02*
X203284373Y-101560246D01*
X203284373Y-101560246D02*
X203331992Y-101655484D01*
X203331992Y-101655484D02*
X203331992Y-101798341D01*
X203331992Y-101798341D02*
X203284373Y-101893579D01*
X203284373Y-101893579D02*
X203236754Y-101941199D01*
X203236754Y-101941199D02*
X203141516Y-101988818D01*
X203141516Y-101988818D02*
X202760564Y-101988818D01*
X202760564Y-101988818D02*
X202760564Y-100988818D01*
X202760564Y-100988818D02*
X203093897Y-100988818D01*
X203093897Y-100988818D02*
X203189135Y-101036437D01*
X203189135Y-101036437D02*
X203236754Y-101084056D01*
X203236754Y-101084056D02*
X203284373Y-101179294D01*
X203284373Y-101179294D02*
X203284373Y-101274532D01*
X203284373Y-101274532D02*
X203236754Y-101369770D01*
X203236754Y-101369770D02*
X203189135Y-101417389D01*
X203189135Y-101417389D02*
X203093897Y-101465008D01*
X203093897Y-101465008D02*
X202760564Y-101465008D01*
X204189135Y-101322151D02*
X204189135Y-101988818D01*
X203951040Y-100941199D02*
X203712945Y-101655484D01*
X203712945Y-101655484D02*
X204331992Y-101655484D01*
X205427230Y-100941199D02*
X204570088Y-102226913D01*
X205903421Y-101417389D02*
X205808183Y-101369770D01*
X205808183Y-101369770D02*
X205760564Y-101322151D01*
X205760564Y-101322151D02*
X205712945Y-101226913D01*
X205712945Y-101226913D02*
X205712945Y-101179294D01*
X205712945Y-101179294D02*
X205760564Y-101084056D01*
X205760564Y-101084056D02*
X205808183Y-101036437D01*
X205808183Y-101036437D02*
X205903421Y-100988818D01*
X205903421Y-100988818D02*
X206093897Y-100988818D01*
X206093897Y-100988818D02*
X206189135Y-101036437D01*
X206189135Y-101036437D02*
X206236754Y-101084056D01*
X206236754Y-101084056D02*
X206284373Y-101179294D01*
X206284373Y-101179294D02*
X206284373Y-101226913D01*
X206284373Y-101226913D02*
X206236754Y-101322151D01*
X206236754Y-101322151D02*
X206189135Y-101369770D01*
X206189135Y-101369770D02*
X206093897Y-101417389D01*
X206093897Y-101417389D02*
X205903421Y-101417389D01*
X205903421Y-101417389D02*
X205808183Y-101465008D01*
X205808183Y-101465008D02*
X205760564Y-101512627D01*
X205760564Y-101512627D02*
X205712945Y-101607865D01*
X205712945Y-101607865D02*
X205712945Y-101798341D01*
X205712945Y-101798341D02*
X205760564Y-101893579D01*
X205760564Y-101893579D02*
X205808183Y-101941199D01*
X205808183Y-101941199D02*
X205903421Y-101988818D01*
X205903421Y-101988818D02*
X206093897Y-101988818D01*
X206093897Y-101988818D02*
X206189135Y-101941199D01*
X206189135Y-101941199D02*
X206236754Y-101893579D01*
X206236754Y-101893579D02*
X206284373Y-101798341D01*
X206284373Y-101798341D02*
X206284373Y-101607865D01*
X206284373Y-101607865D02*
X206236754Y-101512627D01*
X206236754Y-101512627D02*
X206189135Y-101465008D01*
X206189135Y-101465008D02*
X206093897Y-101417389D01*
X203855807Y-86668497D02*
X203998664Y-86716116D01*
X203998664Y-86716116D02*
X204236759Y-86716116D01*
X204236759Y-86716116D02*
X204331997Y-86668497D01*
X204331997Y-86668497D02*
X204379616Y-86620877D01*
X204379616Y-86620877D02*
X204427235Y-86525639D01*
X204427235Y-86525639D02*
X204427235Y-86430401D01*
X204427235Y-86430401D02*
X204379616Y-86335163D01*
X204379616Y-86335163D02*
X204331997Y-86287544D01*
X204331997Y-86287544D02*
X204236759Y-86239925D01*
X204236759Y-86239925D02*
X204046283Y-86192306D01*
X204046283Y-86192306D02*
X203951045Y-86144687D01*
X203951045Y-86144687D02*
X203903426Y-86097068D01*
X203903426Y-86097068D02*
X203855807Y-86001830D01*
X203855807Y-86001830D02*
X203855807Y-85906592D01*
X203855807Y-85906592D02*
X203903426Y-85811354D01*
X203903426Y-85811354D02*
X203951045Y-85763735D01*
X203951045Y-85763735D02*
X204046283Y-85716116D01*
X204046283Y-85716116D02*
X204284378Y-85716116D01*
X204284378Y-85716116D02*
X204427235Y-85763735D01*
X204855807Y-86716116D02*
X204855807Y-85716116D01*
X204855807Y-85716116D02*
X205093902Y-85716116D01*
X205093902Y-85716116D02*
X205236759Y-85763735D01*
X205236759Y-85763735D02*
X205331997Y-85858973D01*
X205331997Y-85858973D02*
X205379616Y-85954211D01*
X205379616Y-85954211D02*
X205427235Y-86144687D01*
X205427235Y-86144687D02*
X205427235Y-86287544D01*
X205427235Y-86287544D02*
X205379616Y-86478020D01*
X205379616Y-86478020D02*
X205331997Y-86573258D01*
X205331997Y-86573258D02*
X205236759Y-86668497D01*
X205236759Y-86668497D02*
X205093902Y-86716116D01*
X205093902Y-86716116D02*
X204855807Y-86716116D01*
X205808188Y-86430401D02*
X206284378Y-86430401D01*
X205712950Y-86716116D02*
X206046283Y-85716116D01*
X206046283Y-85716116D02*
X206379616Y-86716116D01*
X203093902Y-104010480D02*
X203236759Y-104058099D01*
X203236759Y-104058099D02*
X203284378Y-104105718D01*
X203284378Y-104105718D02*
X203331997Y-104200956D01*
X203331997Y-104200956D02*
X203331997Y-104343813D01*
X203331997Y-104343813D02*
X203284378Y-104439051D01*
X203284378Y-104439051D02*
X203236759Y-104486671D01*
X203236759Y-104486671D02*
X203141521Y-104534290D01*
X203141521Y-104534290D02*
X202760569Y-104534290D01*
X202760569Y-104534290D02*
X202760569Y-103534290D01*
X202760569Y-103534290D02*
X203093902Y-103534290D01*
X203093902Y-103534290D02*
X203189140Y-103581909D01*
X203189140Y-103581909D02*
X203236759Y-103629528D01*
X203236759Y-103629528D02*
X203284378Y-103724766D01*
X203284378Y-103724766D02*
X203284378Y-103820004D01*
X203284378Y-103820004D02*
X203236759Y-103915242D01*
X203236759Y-103915242D02*
X203189140Y-103962861D01*
X203189140Y-103962861D02*
X203093902Y-104010480D01*
X203093902Y-104010480D02*
X202760569Y-104010480D01*
X204236759Y-103534290D02*
X203760569Y-103534290D01*
X203760569Y-103534290D02*
X203712950Y-104010480D01*
X203712950Y-104010480D02*
X203760569Y-103962861D01*
X203760569Y-103962861D02*
X203855807Y-103915242D01*
X203855807Y-103915242D02*
X204093902Y-103915242D01*
X204093902Y-103915242D02*
X204189140Y-103962861D01*
X204189140Y-103962861D02*
X204236759Y-104010480D01*
X204236759Y-104010480D02*
X204284378Y-104105718D01*
X204284378Y-104105718D02*
X204284378Y-104343813D01*
X204284378Y-104343813D02*
X204236759Y-104439051D01*
X204236759Y-104439051D02*
X204189140Y-104486671D01*
X204189140Y-104486671D02*
X204093902Y-104534290D01*
X204093902Y-104534290D02*
X203855807Y-104534290D01*
X203855807Y-104534290D02*
X203760569Y-104486671D01*
X203760569Y-104486671D02*
X203712950Y-104439051D01*
X205427235Y-103486671D02*
X204570093Y-104772385D01*
X205808188Y-104534290D02*
X205998664Y-104534290D01*
X205998664Y-104534290D02*
X206093902Y-104486671D01*
X206093902Y-104486671D02*
X206141521Y-104439051D01*
X206141521Y-104439051D02*
X206236759Y-104296194D01*
X206236759Y-104296194D02*
X206284378Y-104105718D01*
X206284378Y-104105718D02*
X206284378Y-103724766D01*
X206284378Y-103724766D02*
X206236759Y-103629528D01*
X206236759Y-103629528D02*
X206189140Y-103581909D01*
X206189140Y-103581909D02*
X206093902Y-103534290D01*
X206093902Y-103534290D02*
X205903426Y-103534290D01*
X205903426Y-103534290D02*
X205808188Y-103581909D01*
X205808188Y-103581909D02*
X205760569Y-103629528D01*
X205760569Y-103629528D02*
X205712950Y-103724766D01*
X205712950Y-103724766D02*
X205712950Y-103962861D01*
X205712950Y-103962861D02*
X205760569Y-104058099D01*
X205760569Y-104058099D02*
X205808188Y-104105718D01*
X205808188Y-104105718D02*
X205903426Y-104153337D01*
X205903426Y-104153337D02*
X206093902Y-104153337D01*
X206093902Y-104153337D02*
X206189140Y-104105718D01*
X206189140Y-104105718D02*
X206236759Y-104058099D01*
X206236759Y-104058099D02*
X206284378Y-103962861D01*
X204189141Y-80672826D02*
X204093903Y-80625207D01*
X204093903Y-80625207D02*
X203951046Y-80625207D01*
X203951046Y-80625207D02*
X203808189Y-80672826D01*
X203808189Y-80672826D02*
X203712951Y-80768064D01*
X203712951Y-80768064D02*
X203665332Y-80863302D01*
X203665332Y-80863302D02*
X203617713Y-81053778D01*
X203617713Y-81053778D02*
X203617713Y-81196635D01*
X203617713Y-81196635D02*
X203665332Y-81387111D01*
X203665332Y-81387111D02*
X203712951Y-81482349D01*
X203712951Y-81482349D02*
X203808189Y-81577588D01*
X203808189Y-81577588D02*
X203951046Y-81625207D01*
X203951046Y-81625207D02*
X204046284Y-81625207D01*
X204046284Y-81625207D02*
X204189141Y-81577588D01*
X204189141Y-81577588D02*
X204236760Y-81529968D01*
X204236760Y-81529968D02*
X204236760Y-81196635D01*
X204236760Y-81196635D02*
X204046284Y-81196635D01*
X204665332Y-81625207D02*
X204665332Y-80625207D01*
X204665332Y-80625207D02*
X205236760Y-81625207D01*
X205236760Y-81625207D02*
X205236760Y-80625207D01*
X205712951Y-81625207D02*
X205712951Y-80625207D01*
X205712951Y-80625207D02*
X205951046Y-80625207D01*
X205951046Y-80625207D02*
X206093903Y-80672826D01*
X206093903Y-80672826D02*
X206189141Y-80768064D01*
X206189141Y-80768064D02*
X206236760Y-80863302D01*
X206236760Y-80863302D02*
X206284379Y-81053778D01*
X206284379Y-81053778D02*
X206284379Y-81196635D01*
X206284379Y-81196635D02*
X206236760Y-81387111D01*
X206236760Y-81387111D02*
X206189141Y-81482349D01*
X206189141Y-81482349D02*
X206093903Y-81577588D01*
X206093903Y-81577588D02*
X205951046Y-81625207D01*
X205951046Y-81625207D02*
X205712951Y-81625207D01*
X203331998Y-94257232D02*
X203284379Y-94304852D01*
X203284379Y-94304852D02*
X203141522Y-94352471D01*
X203141522Y-94352471D02*
X203046284Y-94352471D01*
X203046284Y-94352471D02*
X202903427Y-94304852D01*
X202903427Y-94304852D02*
X202808189Y-94209613D01*
X202808189Y-94209613D02*
X202760570Y-94114375D01*
X202760570Y-94114375D02*
X202712951Y-93923899D01*
X202712951Y-93923899D02*
X202712951Y-93781042D01*
X202712951Y-93781042D02*
X202760570Y-93590566D01*
X202760570Y-93590566D02*
X202808189Y-93495328D01*
X202808189Y-93495328D02*
X202903427Y-93400090D01*
X202903427Y-93400090D02*
X203046284Y-93352471D01*
X203046284Y-93352471D02*
X203141522Y-93352471D01*
X203141522Y-93352471D02*
X203284379Y-93400090D01*
X203284379Y-93400090D02*
X203331998Y-93447709D01*
X204189141Y-93352471D02*
X203998665Y-93352471D01*
X203998665Y-93352471D02*
X203903427Y-93400090D01*
X203903427Y-93400090D02*
X203855808Y-93447709D01*
X203855808Y-93447709D02*
X203760570Y-93590566D01*
X203760570Y-93590566D02*
X203712951Y-93781042D01*
X203712951Y-93781042D02*
X203712951Y-94161994D01*
X203712951Y-94161994D02*
X203760570Y-94257232D01*
X203760570Y-94257232D02*
X203808189Y-94304852D01*
X203808189Y-94304852D02*
X203903427Y-94352471D01*
X203903427Y-94352471D02*
X204093903Y-94352471D01*
X204093903Y-94352471D02*
X204189141Y-94304852D01*
X204189141Y-94304852D02*
X204236760Y-94257232D01*
X204236760Y-94257232D02*
X204284379Y-94161994D01*
X204284379Y-94161994D02*
X204284379Y-93923899D01*
X204284379Y-93923899D02*
X204236760Y-93828661D01*
X204236760Y-93828661D02*
X204189141Y-93781042D01*
X204189141Y-93781042D02*
X204093903Y-93733423D01*
X204093903Y-93733423D02*
X203903427Y-93733423D01*
X203903427Y-93733423D02*
X203808189Y-93781042D01*
X203808189Y-93781042D02*
X203760570Y-93828661D01*
X203760570Y-93828661D02*
X203712951Y-93923899D01*
X205427236Y-93304852D02*
X204570094Y-94590566D01*
X206236760Y-93352471D02*
X205760570Y-93352471D01*
X205760570Y-93352471D02*
X205712951Y-93828661D01*
X205712951Y-93828661D02*
X205760570Y-93781042D01*
X205760570Y-93781042D02*
X205855808Y-93733423D01*
X205855808Y-93733423D02*
X206093903Y-93733423D01*
X206093903Y-93733423D02*
X206189141Y-93781042D01*
X206189141Y-93781042D02*
X206236760Y-93828661D01*
X206236760Y-93828661D02*
X206284379Y-93923899D01*
X206284379Y-93923899D02*
X206284379Y-94161994D01*
X206284379Y-94161994D02*
X206236760Y-94257232D01*
X206236760Y-94257232D02*
X206189141Y-94304852D01*
X206189141Y-94304852D02*
X206093903Y-94352471D01*
X206093903Y-94352471D02*
X205855808Y-94352471D01*
X205855808Y-94352471D02*
X205760570Y-94304852D01*
X205760570Y-94304852D02*
X205712951Y-94257232D01*
X292244896Y-108087267D02*
X292391360Y-108122254D01*
X292391360Y-108122254D02*
X292628549Y-108101502D01*
X292628549Y-108101502D02*
X292719274Y-108045764D01*
X292719274Y-108045764D02*
X292762562Y-107994176D01*
X292762562Y-107994176D02*
X292801699Y-107895150D01*
X292801699Y-107895150D02*
X292793399Y-107800274D01*
X292793399Y-107800274D02*
X292737660Y-107709549D01*
X292737660Y-107709549D02*
X292686072Y-107666261D01*
X292686072Y-107666261D02*
X292587046Y-107627124D01*
X292587046Y-107627124D02*
X292393144Y-107596287D01*
X292393144Y-107596287D02*
X292294118Y-107557150D01*
X292294118Y-107557150D02*
X292242530Y-107513862D01*
X292242530Y-107513862D02*
X292186792Y-107423137D01*
X292186792Y-107423137D02*
X292178491Y-107328261D01*
X292178491Y-107328261D02*
X292217629Y-107229235D01*
X292217629Y-107229235D02*
X292260916Y-107177647D01*
X292260916Y-107177647D02*
X292351642Y-107121909D01*
X292351642Y-107121909D02*
X292588831Y-107101157D01*
X292588831Y-107101157D02*
X292735295Y-107136144D01*
X293614078Y-107346066D02*
X293672181Y-108010196D01*
X293343686Y-106987315D02*
X293168751Y-107719634D01*
X293168751Y-107719634D02*
X293785443Y-107665681D01*
X294011966Y-106976649D02*
X294628658Y-106922696D01*
X294628658Y-106922696D02*
X294329796Y-107331250D01*
X294329796Y-107331250D02*
X294472109Y-107318799D01*
X294472109Y-107318799D02*
X294571135Y-107357937D01*
X294571135Y-107357937D02*
X294622723Y-107401224D01*
X294622723Y-107401224D02*
X294678462Y-107491950D01*
X294678462Y-107491950D02*
X294699213Y-107729139D01*
X294699213Y-107729139D02*
X294660076Y-107828165D01*
X294660076Y-107828165D02*
X294616788Y-107879753D01*
X294616788Y-107879753D02*
X294526063Y-107935491D01*
X294526063Y-107935491D02*
X294241436Y-107960393D01*
X294241436Y-107960393D02*
X294142410Y-107921256D01*
X294142410Y-107921256D02*
X294090822Y-107877968D01*
X172941758Y-96328135D02*
X173079921Y-96388024D01*
X173079921Y-96388024D02*
X173317110Y-96408775D01*
X173317110Y-96408775D02*
X173416136Y-96369638D01*
X173416136Y-96369638D02*
X173467724Y-96326350D01*
X173467724Y-96326350D02*
X173523463Y-96235625D01*
X173523463Y-96235625D02*
X173531763Y-96140749D01*
X173531763Y-96140749D02*
X173492626Y-96041723D01*
X173492626Y-96041723D02*
X173449338Y-95990135D01*
X173449338Y-95990135D02*
X173358613Y-95934397D01*
X173358613Y-95934397D02*
X173173012Y-95870358D01*
X173173012Y-95870358D02*
X173082287Y-95814620D01*
X173082287Y-95814620D02*
X173038999Y-95763031D01*
X173038999Y-95763031D02*
X172999862Y-95664006D01*
X172999862Y-95664006D02*
X173008162Y-95569130D01*
X173008162Y-95569130D02*
X173063901Y-95478404D01*
X173063901Y-95478404D02*
X173115489Y-95435117D01*
X173115489Y-95435117D02*
X173214515Y-95395980D01*
X173214515Y-95395980D02*
X173451704Y-95416731D01*
X173451704Y-95416731D02*
X173589867Y-95476620D01*
X173965220Y-95557260D02*
X174016808Y-95513972D01*
X174016808Y-95513972D02*
X174115834Y-95474835D01*
X174115834Y-95474835D02*
X174353023Y-95495586D01*
X174353023Y-95495586D02*
X174443748Y-95551325D01*
X174443748Y-95551325D02*
X174487036Y-95602913D01*
X174487036Y-95602913D02*
X174526173Y-95701939D01*
X174526173Y-95701939D02*
X174517873Y-95796814D01*
X174517873Y-95796814D02*
X174457984Y-95934978D01*
X174457984Y-95934978D02*
X173838927Y-96454428D01*
X173838927Y-96454428D02*
X174455619Y-96508382D01*
X174913977Y-95640265D02*
X174965565Y-95596978D01*
X174965565Y-95596978D02*
X175064591Y-95557840D01*
X175064591Y-95557840D02*
X175301780Y-95578592D01*
X175301780Y-95578592D02*
X175392505Y-95634330D01*
X175392505Y-95634330D02*
X175435793Y-95685918D01*
X175435793Y-95685918D02*
X175474930Y-95784944D01*
X175474930Y-95784944D02*
X175466630Y-95879820D01*
X175466630Y-95879820D02*
X175406741Y-96017983D01*
X175406741Y-96017983D02*
X174787684Y-96537434D01*
X174787684Y-96537434D02*
X175404375Y-96591387D01*
X77998866Y-88659140D02*
X78137029Y-88719029D01*
X78137029Y-88719029D02*
X78374218Y-88739780D01*
X78374218Y-88739780D02*
X78473244Y-88700643D01*
X78473244Y-88700643D02*
X78524832Y-88657355D01*
X78524832Y-88657355D02*
X78580571Y-88566630D01*
X78580571Y-88566630D02*
X78588871Y-88471754D01*
X78588871Y-88471754D02*
X78549734Y-88372728D01*
X78549734Y-88372728D02*
X78506446Y-88321140D01*
X78506446Y-88321140D02*
X78415721Y-88265402D01*
X78415721Y-88265402D02*
X78230120Y-88201363D01*
X78230120Y-88201363D02*
X78139395Y-88145625D01*
X78139395Y-88145625D02*
X78096107Y-88094036D01*
X78096107Y-88094036D02*
X78056970Y-87995011D01*
X78056970Y-87995011D02*
X78065270Y-87900135D01*
X78065270Y-87900135D02*
X78121009Y-87809409D01*
X78121009Y-87809409D02*
X78172597Y-87766122D01*
X78172597Y-87766122D02*
X78271623Y-87726985D01*
X78271623Y-87726985D02*
X78508812Y-87747736D01*
X78508812Y-87747736D02*
X78646975Y-87807625D01*
X79022328Y-87888265D02*
X79073916Y-87844977D01*
X79073916Y-87844977D02*
X79172942Y-87805840D01*
X79172942Y-87805840D02*
X79410131Y-87826591D01*
X79410131Y-87826591D02*
X79500856Y-87882330D01*
X79500856Y-87882330D02*
X79544144Y-87933918D01*
X79544144Y-87933918D02*
X79583281Y-88032944D01*
X79583281Y-88032944D02*
X79574981Y-88127819D01*
X79574981Y-88127819D02*
X79515092Y-88265983D01*
X79515092Y-88265983D02*
X78896035Y-88785433D01*
X78896035Y-88785433D02*
X79512727Y-88839387D01*
X274265361Y-150318646D02*
X274411825Y-150353633D01*
X274411825Y-150353633D02*
X274649014Y-150332881D01*
X274649014Y-150332881D02*
X274739739Y-150277143D01*
X274739739Y-150277143D02*
X274783027Y-150225555D01*
X274783027Y-150225555D02*
X274822164Y-150126529D01*
X274822164Y-150126529D02*
X274813864Y-150031653D01*
X274813864Y-150031653D02*
X274758125Y-149940928D01*
X274758125Y-149940928D02*
X274706537Y-149897640D01*
X274706537Y-149897640D02*
X274607511Y-149858503D01*
X274607511Y-149858503D02*
X274413609Y-149827666D01*
X274413609Y-149827666D02*
X274314583Y-149788529D01*
X274314583Y-149788529D02*
X274262995Y-149745241D01*
X274262995Y-149745241D02*
X274207257Y-149654516D01*
X274207257Y-149654516D02*
X274198956Y-149559640D01*
X274198956Y-149559640D02*
X274238094Y-149460614D01*
X274238094Y-149460614D02*
X274281381Y-149409026D01*
X274281381Y-149409026D02*
X274372107Y-149353288D01*
X274372107Y-149353288D02*
X274609296Y-149332536D01*
X274609296Y-149332536D02*
X274755760Y-149367523D01*
X275652929Y-149241230D02*
X275178550Y-149282733D01*
X275178550Y-149282733D02*
X275172615Y-149761262D01*
X275172615Y-149761262D02*
X275215903Y-149709674D01*
X275215903Y-149709674D02*
X275306628Y-149653935D01*
X275306628Y-149653935D02*
X275543817Y-149633184D01*
X275543817Y-149633184D02*
X275642843Y-149672321D01*
X275642843Y-149672321D02*
X275694431Y-149715609D01*
X275694431Y-149715609D02*
X275750170Y-149806334D01*
X275750170Y-149806334D02*
X275770921Y-150043523D01*
X275770921Y-150043523D02*
X275731784Y-150142549D01*
X275731784Y-150142549D02*
X275688496Y-150194137D01*
X275688496Y-150194137D02*
X275597771Y-150249876D01*
X275597771Y-150249876D02*
X275360582Y-150270627D01*
X275360582Y-150270627D02*
X275261556Y-150231490D01*
X275261556Y-150231490D02*
X275209967Y-150188202D01*
X276554248Y-149162375D02*
X276364496Y-149178976D01*
X276364496Y-149178976D02*
X276273771Y-149234715D01*
X276273771Y-149234715D02*
X276230483Y-149286303D01*
X276230483Y-149286303D02*
X276148058Y-149436917D01*
X276148058Y-149436917D02*
X276117222Y-149630818D01*
X276117222Y-149630818D02*
X276150424Y-150010321D01*
X276150424Y-150010321D02*
X276206162Y-150101047D01*
X276206162Y-150101047D02*
X276257750Y-150144334D01*
X276257750Y-150144334D02*
X276356776Y-150183471D01*
X276356776Y-150183471D02*
X276546528Y-150166870D01*
X276546528Y-150166870D02*
X276637253Y-150111132D01*
X276637253Y-150111132D02*
X276680541Y-150059544D01*
X276680541Y-150059544D02*
X276719678Y-149960518D01*
X276719678Y-149960518D02*
X276698927Y-149723329D01*
X276698927Y-149723329D02*
X276643188Y-149632603D01*
X276643188Y-149632603D02*
X276591600Y-149589316D01*
X276591600Y-149589316D02*
X276492574Y-149550178D01*
X276492574Y-149550178D02*
X276302823Y-149566779D01*
X276302823Y-149566779D02*
X276212097Y-149622518D01*
X276212097Y-149622518D02*
X276168810Y-149674106D01*
X276168810Y-149674106D02*
X276129672Y-149773132D01*
X153964250Y-94667829D02*
X154102413Y-94727718D01*
X154102413Y-94727718D02*
X154339602Y-94748469D01*
X154339602Y-94748469D02*
X154438628Y-94709332D01*
X154438628Y-94709332D02*
X154490216Y-94666044D01*
X154490216Y-94666044D02*
X154545955Y-94575319D01*
X154545955Y-94575319D02*
X154554255Y-94480443D01*
X154554255Y-94480443D02*
X154515118Y-94381417D01*
X154515118Y-94381417D02*
X154471830Y-94329829D01*
X154471830Y-94329829D02*
X154381105Y-94274091D01*
X154381105Y-94274091D02*
X154195504Y-94210052D01*
X154195504Y-94210052D02*
X154104779Y-94154314D01*
X154104779Y-94154314D02*
X154061491Y-94102725D01*
X154061491Y-94102725D02*
X154022354Y-94003700D01*
X154022354Y-94003700D02*
X154030654Y-93908824D01*
X154030654Y-93908824D02*
X154086393Y-93818098D01*
X154086393Y-93818098D02*
X154137981Y-93774811D01*
X154137981Y-93774811D02*
X154237007Y-93735674D01*
X154237007Y-93735674D02*
X154474196Y-93756425D01*
X154474196Y-93756425D02*
X154612359Y-93816314D01*
X155478111Y-94848076D02*
X154908856Y-94798273D01*
X155193484Y-94823174D02*
X155280639Y-93826980D01*
X155280639Y-93826980D02*
X155173313Y-93960993D01*
X155173313Y-93960993D02*
X155070137Y-94047568D01*
X155070137Y-94047568D02*
X154971111Y-94086705D01*
X156097168Y-94328625D02*
X156006443Y-94272887D01*
X156006443Y-94272887D02*
X155963155Y-94221299D01*
X155963155Y-94221299D02*
X155924018Y-94122273D01*
X155924018Y-94122273D02*
X155928168Y-94074835D01*
X155928168Y-94074835D02*
X155983906Y-93984109D01*
X155983906Y-93984109D02*
X156035495Y-93940822D01*
X156035495Y-93940822D02*
X156134520Y-93901685D01*
X156134520Y-93901685D02*
X156324272Y-93918286D01*
X156324272Y-93918286D02*
X156414997Y-93974024D01*
X156414997Y-93974024D02*
X156458285Y-94025612D01*
X156458285Y-94025612D02*
X156497422Y-94124638D01*
X156497422Y-94124638D02*
X156493272Y-94172076D01*
X156493272Y-94172076D02*
X156437533Y-94262801D01*
X156437533Y-94262801D02*
X156385945Y-94306089D01*
X156385945Y-94306089D02*
X156286919Y-94345226D01*
X156286919Y-94345226D02*
X156097168Y-94328625D01*
X156097168Y-94328625D02*
X155998142Y-94367762D01*
X155998142Y-94367762D02*
X155946554Y-94411050D01*
X155946554Y-94411050D02*
X155890816Y-94501775D01*
X155890816Y-94501775D02*
X155874214Y-94691527D01*
X155874214Y-94691527D02*
X155913352Y-94790553D01*
X155913352Y-94790553D02*
X155956639Y-94842141D01*
X155956639Y-94842141D02*
X156047365Y-94897879D01*
X156047365Y-94897879D02*
X156237116Y-94914480D01*
X156237116Y-94914480D02*
X156336142Y-94875343D01*
X156336142Y-94875343D02*
X156387730Y-94832055D01*
X156387730Y-94832055D02*
X156443469Y-94741330D01*
X156443469Y-94741330D02*
X156460070Y-94551579D01*
X156460070Y-94551579D02*
X156420932Y-94452553D01*
X156420932Y-94452553D02*
X156377645Y-94400965D01*
X156377645Y-94400965D02*
X156286919Y-94345226D01*
X95537425Y-106766641D02*
X95675588Y-106826530D01*
X95675588Y-106826530D02*
X95912777Y-106847281D01*
X95912777Y-106847281D02*
X96011803Y-106808144D01*
X96011803Y-106808144D02*
X96063391Y-106764856D01*
X96063391Y-106764856D02*
X96119130Y-106674131D01*
X96119130Y-106674131D02*
X96127430Y-106579255D01*
X96127430Y-106579255D02*
X96088293Y-106480229D01*
X96088293Y-106480229D02*
X96045005Y-106428641D01*
X96045005Y-106428641D02*
X95954280Y-106372903D01*
X95954280Y-106372903D02*
X95768679Y-106308864D01*
X95768679Y-106308864D02*
X95677954Y-106253126D01*
X95677954Y-106253126D02*
X95634666Y-106201537D01*
X95634666Y-106201537D02*
X95595529Y-106102512D01*
X95595529Y-106102512D02*
X95603829Y-106007636D01*
X95603829Y-106007636D02*
X95659568Y-105916910D01*
X95659568Y-105916910D02*
X95711156Y-105873623D01*
X95711156Y-105873623D02*
X95810182Y-105834486D01*
X95810182Y-105834486D02*
X96047371Y-105855237D01*
X96047371Y-105855237D02*
X96185534Y-105915126D01*
X96521749Y-105896740D02*
X97185879Y-105954844D01*
X97185879Y-105954844D02*
X96671783Y-106913686D01*
X74678227Y-126614172D02*
X74816390Y-126674061D01*
X74816390Y-126674061D02*
X75053579Y-126694812D01*
X75053579Y-126694812D02*
X75152605Y-126655675D01*
X75152605Y-126655675D02*
X75204193Y-126612387D01*
X75204193Y-126612387D02*
X75259932Y-126521662D01*
X75259932Y-126521662D02*
X75268232Y-126426786D01*
X75268232Y-126426786D02*
X75229095Y-126327760D01*
X75229095Y-126327760D02*
X75185807Y-126276172D01*
X75185807Y-126276172D02*
X75095082Y-126220434D01*
X75095082Y-126220434D02*
X74909481Y-126156395D01*
X74909481Y-126156395D02*
X74818756Y-126100657D01*
X74818756Y-126100657D02*
X74775468Y-126049068D01*
X74775468Y-126049068D02*
X74736331Y-125950043D01*
X74736331Y-125950043D02*
X74744631Y-125855167D01*
X74744631Y-125855167D02*
X74800370Y-125764441D01*
X74800370Y-125764441D02*
X74851958Y-125721154D01*
X74851958Y-125721154D02*
X74950984Y-125682017D01*
X74950984Y-125682017D02*
X75188173Y-125702768D01*
X75188173Y-125702768D02*
X75326336Y-125762657D01*
X76155316Y-126121989D02*
X76097212Y-126786118D01*
X75951329Y-125721734D02*
X75651885Y-126412551D01*
X75651885Y-126412551D02*
X76268577Y-126466504D01*
X113152939Y-149109881D02*
X113291102Y-149169770D01*
X113291102Y-149169770D02*
X113528291Y-149190521D01*
X113528291Y-149190521D02*
X113627317Y-149151384D01*
X113627317Y-149151384D02*
X113678905Y-149108096D01*
X113678905Y-149108096D02*
X113734644Y-149017371D01*
X113734644Y-149017371D02*
X113742944Y-148922495D01*
X113742944Y-148922495D02*
X113703807Y-148823469D01*
X113703807Y-148823469D02*
X113660519Y-148771881D01*
X113660519Y-148771881D02*
X113569794Y-148716143D01*
X113569794Y-148716143D02*
X113384193Y-148652104D01*
X113384193Y-148652104D02*
X113293468Y-148596366D01*
X113293468Y-148596366D02*
X113250180Y-148544777D01*
X113250180Y-148544777D02*
X113211043Y-148445752D01*
X113211043Y-148445752D02*
X113219343Y-148350876D01*
X113219343Y-148350876D02*
X113275082Y-148260150D01*
X113275082Y-148260150D02*
X113326670Y-148216863D01*
X113326670Y-148216863D02*
X113425696Y-148177726D01*
X113425696Y-148177726D02*
X113662885Y-148198477D01*
X113662885Y-148198477D02*
X113801048Y-148258366D01*
X114630028Y-148617698D02*
X114571924Y-149281827D01*
X114426041Y-148217443D02*
X114126597Y-148908260D01*
X114126597Y-148908260D02*
X114743289Y-148962213D01*
X115141178Y-149331631D02*
X115330929Y-149348232D01*
X115330929Y-149348232D02*
X115429955Y-149309094D01*
X115429955Y-149309094D02*
X115481543Y-149265807D01*
X115481543Y-149265807D02*
X115588870Y-149131794D01*
X115588870Y-149131794D02*
X115652909Y-148946193D01*
X115652909Y-148946193D02*
X115686111Y-148566690D01*
X115686111Y-148566690D02*
X115646974Y-148467664D01*
X115646974Y-148467664D02*
X115603686Y-148416076D01*
X115603686Y-148416076D02*
X115512961Y-148360338D01*
X115512961Y-148360338D02*
X115323209Y-148343737D01*
X115323209Y-148343737D02*
X115224184Y-148382874D01*
X115224184Y-148382874D02*
X115172595Y-148426161D01*
X115172595Y-148426161D02*
X115116857Y-148516887D01*
X115116857Y-148516887D02*
X115096106Y-148754076D01*
X115096106Y-148754076D02*
X115135243Y-148853102D01*
X115135243Y-148853102D02*
X115178530Y-148904690D01*
X115178530Y-148904690D02*
X115269256Y-148960428D01*
X115269256Y-148960428D02*
X115459007Y-148977030D01*
X115459007Y-148977030D02*
X115558033Y-148937892D01*
X115558033Y-148937892D02*
X115609621Y-148894605D01*
X115609621Y-148894605D02*
X115665360Y-148803879D01*
X152303934Y-113645337D02*
X152442097Y-113705226D01*
X152442097Y-113705226D02*
X152679286Y-113725977D01*
X152679286Y-113725977D02*
X152778312Y-113686840D01*
X152778312Y-113686840D02*
X152829900Y-113643552D01*
X152829900Y-113643552D02*
X152885639Y-113552827D01*
X152885639Y-113552827D02*
X152893939Y-113457951D01*
X152893939Y-113457951D02*
X152854802Y-113358925D01*
X152854802Y-113358925D02*
X152811514Y-113307337D01*
X152811514Y-113307337D02*
X152720789Y-113251599D01*
X152720789Y-113251599D02*
X152535188Y-113187560D01*
X152535188Y-113187560D02*
X152444463Y-113131822D01*
X152444463Y-113131822D02*
X152401175Y-113080233D01*
X152401175Y-113080233D02*
X152362038Y-112981208D01*
X152362038Y-112981208D02*
X152370338Y-112886332D01*
X152370338Y-112886332D02*
X152426077Y-112795606D01*
X152426077Y-112795606D02*
X152477665Y-112752319D01*
X152477665Y-112752319D02*
X152576691Y-112713182D01*
X152576691Y-112713182D02*
X152813880Y-112733933D01*
X152813880Y-112733933D02*
X152952043Y-112793822D01*
X153817795Y-113825584D02*
X153248540Y-113775781D01*
X153533168Y-113800682D02*
X153620323Y-112804488D01*
X153620323Y-112804488D02*
X153512997Y-112938501D01*
X153512997Y-112938501D02*
X153409821Y-113025076D01*
X153409821Y-113025076D02*
X153310795Y-113064213D01*
X154292173Y-113867087D02*
X154481924Y-113883688D01*
X154481924Y-113883688D02*
X154580950Y-113844550D01*
X154580950Y-113844550D02*
X154632538Y-113801263D01*
X154632538Y-113801263D02*
X154739865Y-113667250D01*
X154739865Y-113667250D02*
X154803904Y-113481649D01*
X154803904Y-113481649D02*
X154837106Y-113102146D01*
X154837106Y-113102146D02*
X154797969Y-113003120D01*
X154797969Y-113003120D02*
X154754681Y-112951532D01*
X154754681Y-112951532D02*
X154663956Y-112895794D01*
X154663956Y-112895794D02*
X154474204Y-112879193D01*
X154474204Y-112879193D02*
X154375179Y-112918330D01*
X154375179Y-112918330D02*
X154323590Y-112961617D01*
X154323590Y-112961617D02*
X154267852Y-113052343D01*
X154267852Y-113052343D02*
X154247101Y-113289532D01*
X154247101Y-113289532D02*
X154286238Y-113388558D01*
X154286238Y-113388558D02*
X154329525Y-113440146D01*
X154329525Y-113440146D02*
X154420251Y-113495884D01*
X154420251Y-113495884D02*
X154610002Y-113512486D01*
X154610002Y-113512486D02*
X154709028Y-113473348D01*
X154709028Y-113473348D02*
X154760616Y-113430061D01*
X154760616Y-113430061D02*
X154816355Y-113339335D01*
X235478409Y-114965967D02*
X235624873Y-115000954D01*
X235624873Y-115000954D02*
X235862062Y-114980202D01*
X235862062Y-114980202D02*
X235952787Y-114924464D01*
X235952787Y-114924464D02*
X235996075Y-114872876D01*
X235996075Y-114872876D02*
X236035212Y-114773850D01*
X236035212Y-114773850D02*
X236026912Y-114678974D01*
X236026912Y-114678974D02*
X235971173Y-114588249D01*
X235971173Y-114588249D02*
X235919585Y-114544961D01*
X235919585Y-114544961D02*
X235820559Y-114505824D01*
X235820559Y-114505824D02*
X235626657Y-114474987D01*
X235626657Y-114474987D02*
X235527631Y-114435850D01*
X235527631Y-114435850D02*
X235476043Y-114392562D01*
X235476043Y-114392562D02*
X235420305Y-114301837D01*
X235420305Y-114301837D02*
X235412004Y-114206961D01*
X235412004Y-114206961D02*
X235451142Y-114107935D01*
X235451142Y-114107935D02*
X235494429Y-114056347D01*
X235494429Y-114056347D02*
X235585155Y-114000609D01*
X235585155Y-114000609D02*
X235822344Y-113979857D01*
X235822344Y-113979857D02*
X235968808Y-114014844D01*
X236296722Y-113938355D02*
X236913414Y-113884401D01*
X236913414Y-113884401D02*
X236614552Y-114292956D01*
X236614552Y-114292956D02*
X236756865Y-114280505D01*
X236756865Y-114280505D02*
X236855891Y-114319642D01*
X236855891Y-114319642D02*
X236907479Y-114362930D01*
X236907479Y-114362930D02*
X236963218Y-114453655D01*
X236963218Y-114453655D02*
X236983969Y-114690844D01*
X236983969Y-114690844D02*
X236944832Y-114789870D01*
X236944832Y-114789870D02*
X236901544Y-114841458D01*
X236901544Y-114841458D02*
X236810819Y-114897197D01*
X236810819Y-114897197D02*
X236526192Y-114922098D01*
X236526192Y-114922098D02*
X236427166Y-114882961D01*
X236427166Y-114882961D02*
X236375578Y-114839674D01*
X237949327Y-114797590D02*
X237380073Y-114847393D01*
X237664700Y-114822492D02*
X237577544Y-113826297D01*
X237577544Y-113826297D02*
X237495119Y-113976911D01*
X237495119Y-113976911D02*
X237408544Y-114080087D01*
X237408544Y-114080087D02*
X237317819Y-114135826D01*
X237138730Y-133943464D02*
X237285194Y-133978451D01*
X237285194Y-133978451D02*
X237522383Y-133957699D01*
X237522383Y-133957699D02*
X237613108Y-133901961D01*
X237613108Y-133901961D02*
X237656396Y-133850373D01*
X237656396Y-133850373D02*
X237695533Y-133751347D01*
X237695533Y-133751347D02*
X237687233Y-133656471D01*
X237687233Y-133656471D02*
X237631494Y-133565746D01*
X237631494Y-133565746D02*
X237579906Y-133522458D01*
X237579906Y-133522458D02*
X237480880Y-133483321D01*
X237480880Y-133483321D02*
X237286978Y-133452484D01*
X237286978Y-133452484D02*
X237187952Y-133413347D01*
X237187952Y-133413347D02*
X237136364Y-133370059D01*
X237136364Y-133370059D02*
X237080626Y-133279334D01*
X237080626Y-133279334D02*
X237072325Y-133184458D01*
X237072325Y-133184458D02*
X237111463Y-133085432D01*
X237111463Y-133085432D02*
X237154750Y-133033844D01*
X237154750Y-133033844D02*
X237245476Y-132978106D01*
X237245476Y-132978106D02*
X237482665Y-132957354D01*
X237482665Y-132957354D02*
X237629129Y-132992341D01*
X237957043Y-132915852D02*
X238573735Y-132861898D01*
X238573735Y-132861898D02*
X238274873Y-133270453D01*
X238274873Y-133270453D02*
X238417186Y-133258002D01*
X238417186Y-133258002D02*
X238516212Y-133297139D01*
X238516212Y-133297139D02*
X238567800Y-133340427D01*
X238567800Y-133340427D02*
X238623539Y-133431152D01*
X238623539Y-133431152D02*
X238644290Y-133668341D01*
X238644290Y-133668341D02*
X238605153Y-133767367D01*
X238605153Y-133767367D02*
X238561865Y-133818955D01*
X238561865Y-133818955D02*
X238471140Y-133874694D01*
X238471140Y-133874694D02*
X238186513Y-133899595D01*
X238186513Y-133899595D02*
X238087487Y-133860458D01*
X238087487Y-133860458D02*
X238035899Y-133817171D01*
X238961539Y-132923571D02*
X239004826Y-132871983D01*
X239004826Y-132871983D02*
X239095552Y-132816245D01*
X239095552Y-132816245D02*
X239332741Y-132795494D01*
X239332741Y-132795494D02*
X239431767Y-132834631D01*
X239431767Y-132834631D02*
X239483355Y-132877918D01*
X239483355Y-132877918D02*
X239539093Y-132968644D01*
X239539093Y-132968644D02*
X239547394Y-133063520D01*
X239547394Y-133063520D02*
X239512407Y-133209983D01*
X239512407Y-133209983D02*
X238992956Y-133829041D01*
X238992956Y-133829041D02*
X239609648Y-133775087D01*
X255728829Y-127855067D02*
X255875293Y-127890054D01*
X255875293Y-127890054D02*
X256112482Y-127869302D01*
X256112482Y-127869302D02*
X256203207Y-127813564D01*
X256203207Y-127813564D02*
X256246495Y-127761976D01*
X256246495Y-127761976D02*
X256285632Y-127662950D01*
X256285632Y-127662950D02*
X256277332Y-127568074D01*
X256277332Y-127568074D02*
X256221593Y-127477349D01*
X256221593Y-127477349D02*
X256170005Y-127434061D01*
X256170005Y-127434061D02*
X256070979Y-127394924D01*
X256070979Y-127394924D02*
X255877077Y-127364087D01*
X255877077Y-127364087D02*
X255778051Y-127324950D01*
X255778051Y-127324950D02*
X255726463Y-127281662D01*
X255726463Y-127281662D02*
X255670725Y-127190937D01*
X255670725Y-127190937D02*
X255662424Y-127096061D01*
X255662424Y-127096061D02*
X255701562Y-126997035D01*
X255701562Y-126997035D02*
X255744849Y-126945447D01*
X255744849Y-126945447D02*
X255835575Y-126889709D01*
X255835575Y-126889709D02*
X256072764Y-126868957D01*
X256072764Y-126868957D02*
X256219228Y-126903944D01*
X256547142Y-126827455D02*
X257163834Y-126773501D01*
X257163834Y-126773501D02*
X256864972Y-127182056D01*
X256864972Y-127182056D02*
X257007285Y-127169605D01*
X257007285Y-127169605D02*
X257106311Y-127208742D01*
X257106311Y-127208742D02*
X257157899Y-127252030D01*
X257157899Y-127252030D02*
X257213638Y-127342755D01*
X257213638Y-127342755D02*
X257234389Y-127579944D01*
X257234389Y-127579944D02*
X257195252Y-127678970D01*
X257195252Y-127678970D02*
X257151964Y-127730558D01*
X257151964Y-127730558D02*
X257061239Y-127786297D01*
X257061239Y-127786297D02*
X256776612Y-127811198D01*
X256776612Y-127811198D02*
X256677586Y-127772061D01*
X256677586Y-127772061D02*
X256625998Y-127728774D01*
X258017716Y-126698796D02*
X257827964Y-126715397D01*
X257827964Y-126715397D02*
X257737239Y-126771136D01*
X257737239Y-126771136D02*
X257693951Y-126822724D01*
X257693951Y-126822724D02*
X257611526Y-126973338D01*
X257611526Y-126973338D02*
X257580690Y-127167239D01*
X257580690Y-127167239D02*
X257613892Y-127546742D01*
X257613892Y-127546742D02*
X257669630Y-127637468D01*
X257669630Y-127637468D02*
X257721218Y-127680755D01*
X257721218Y-127680755D02*
X257820244Y-127719892D01*
X257820244Y-127719892D02*
X258009996Y-127703291D01*
X258009996Y-127703291D02*
X258100721Y-127647553D01*
X258100721Y-127647553D02*
X258144009Y-127595965D01*
X258144009Y-127595965D02*
X258183146Y-127496939D01*
X258183146Y-127496939D02*
X258162395Y-127259750D01*
X258162395Y-127259750D02*
X258106656Y-127169024D01*
X258106656Y-127169024D02*
X258055068Y-127125737D01*
X258055068Y-127125737D02*
X257956042Y-127086599D01*
X257956042Y-127086599D02*
X257766291Y-127103200D01*
X257766291Y-127103200D02*
X257675565Y-127158939D01*
X257675565Y-127158939D02*
X257632278Y-127210527D01*
X257632278Y-127210527D02*
X257593140Y-127309553D01*
X169621114Y-134283168D02*
X169759277Y-134343057D01*
X169759277Y-134343057D02*
X169996466Y-134363808D01*
X169996466Y-134363808D02*
X170095492Y-134324671D01*
X170095492Y-134324671D02*
X170147080Y-134281383D01*
X170147080Y-134281383D02*
X170202819Y-134190658D01*
X170202819Y-134190658D02*
X170211119Y-134095782D01*
X170211119Y-134095782D02*
X170171982Y-133996756D01*
X170171982Y-133996756D02*
X170128694Y-133945168D01*
X170128694Y-133945168D02*
X170037969Y-133889430D01*
X170037969Y-133889430D02*
X169852368Y-133825391D01*
X169852368Y-133825391D02*
X169761643Y-133769653D01*
X169761643Y-133769653D02*
X169718355Y-133718064D01*
X169718355Y-133718064D02*
X169679218Y-133619039D01*
X169679218Y-133619039D02*
X169687518Y-133524163D01*
X169687518Y-133524163D02*
X169743257Y-133433437D01*
X169743257Y-133433437D02*
X169794845Y-133390150D01*
X169794845Y-133390150D02*
X169893871Y-133351013D01*
X169893871Y-133351013D02*
X170131060Y-133371764D01*
X170131060Y-133371764D02*
X170269223Y-133431653D01*
X170644576Y-133512293D02*
X170696164Y-133469005D01*
X170696164Y-133469005D02*
X170795190Y-133429868D01*
X170795190Y-133429868D02*
X171032379Y-133450619D01*
X171032379Y-133450619D02*
X171123104Y-133506358D01*
X171123104Y-133506358D02*
X171166392Y-133557946D01*
X171166392Y-133557946D02*
X171205529Y-133656972D01*
X171205529Y-133656972D02*
X171197229Y-133751847D01*
X171197229Y-133751847D02*
X171137340Y-133890011D01*
X171137340Y-133890011D02*
X170518283Y-134409461D01*
X170518283Y-134409461D02*
X171134975Y-134463415D01*
X172046960Y-133873990D02*
X171988856Y-134538120D01*
X171842973Y-133473736D02*
X171543529Y-134164552D01*
X171543529Y-134164552D02*
X172160221Y-134218506D01*
X150643603Y-132622846D02*
X150781766Y-132682735D01*
X150781766Y-132682735D02*
X151018955Y-132703486D01*
X151018955Y-132703486D02*
X151117981Y-132664349D01*
X151117981Y-132664349D02*
X151169569Y-132621061D01*
X151169569Y-132621061D02*
X151225308Y-132530336D01*
X151225308Y-132530336D02*
X151233608Y-132435460D01*
X151233608Y-132435460D02*
X151194471Y-132336434D01*
X151194471Y-132336434D02*
X151151183Y-132284846D01*
X151151183Y-132284846D02*
X151060458Y-132229108D01*
X151060458Y-132229108D02*
X150874857Y-132165069D01*
X150874857Y-132165069D02*
X150784132Y-132109331D01*
X150784132Y-132109331D02*
X150740844Y-132057742D01*
X150740844Y-132057742D02*
X150701707Y-131958717D01*
X150701707Y-131958717D02*
X150710007Y-131863841D01*
X150710007Y-131863841D02*
X150765746Y-131773115D01*
X150765746Y-131773115D02*
X150817334Y-131729828D01*
X150817334Y-131729828D02*
X150916360Y-131690691D01*
X150916360Y-131690691D02*
X151153549Y-131711442D01*
X151153549Y-131711442D02*
X151291712Y-131771331D01*
X151667065Y-131851971D02*
X151718653Y-131808683D01*
X151718653Y-131808683D02*
X151817679Y-131769546D01*
X151817679Y-131769546D02*
X152054868Y-131790297D01*
X152054868Y-131790297D02*
X152145593Y-131846036D01*
X152145593Y-131846036D02*
X152188881Y-131897624D01*
X152188881Y-131897624D02*
X152228018Y-131996650D01*
X152228018Y-131996650D02*
X152219718Y-132091525D01*
X152219718Y-132091525D02*
X152159829Y-132229689D01*
X152159829Y-132229689D02*
X151540772Y-132749139D01*
X151540772Y-132749139D02*
X152157464Y-132803093D01*
X152861311Y-131860852D02*
X152956187Y-131869152D01*
X152956187Y-131869152D02*
X153046912Y-131924891D01*
X153046912Y-131924891D02*
X153090200Y-131976479D01*
X153090200Y-131976479D02*
X153129337Y-132075505D01*
X153129337Y-132075505D02*
X153160174Y-132269406D01*
X153160174Y-132269406D02*
X153139423Y-132506596D01*
X153139423Y-132506596D02*
X153075384Y-132692197D01*
X153075384Y-132692197D02*
X153019645Y-132782922D01*
X153019645Y-132782922D02*
X152968057Y-132826210D01*
X152968057Y-132826210D02*
X152869031Y-132865347D01*
X152869031Y-132865347D02*
X152774156Y-132857046D01*
X152774156Y-132857046D02*
X152683430Y-132801308D01*
X152683430Y-132801308D02*
X152640143Y-132749720D01*
X152640143Y-132749720D02*
X152601005Y-132650694D01*
X152601005Y-132650694D02*
X152570169Y-132456792D01*
X152570169Y-132456792D02*
X152590920Y-132219603D01*
X152590920Y-132219603D02*
X152654959Y-132034002D01*
X152654959Y-132034002D02*
X152710697Y-131943277D01*
X152710697Y-131943277D02*
X152762285Y-131899989D01*
X152762285Y-131899989D02*
X152861311Y-131860852D01*
X313104105Y-127934787D02*
X313250569Y-127969774D01*
X313250569Y-127969774D02*
X313487758Y-127949022D01*
X313487758Y-127949022D02*
X313578483Y-127893284D01*
X313578483Y-127893284D02*
X313621771Y-127841696D01*
X313621771Y-127841696D02*
X313660908Y-127742670D01*
X313660908Y-127742670D02*
X313652608Y-127647794D01*
X313652608Y-127647794D02*
X313596869Y-127557069D01*
X313596869Y-127557069D02*
X313545281Y-127513781D01*
X313545281Y-127513781D02*
X313446255Y-127474644D01*
X313446255Y-127474644D02*
X313252353Y-127443807D01*
X313252353Y-127443807D02*
X313153327Y-127404670D01*
X313153327Y-127404670D02*
X313101739Y-127361382D01*
X313101739Y-127361382D02*
X313046001Y-127270657D01*
X313046001Y-127270657D02*
X313037700Y-127175781D01*
X313037700Y-127175781D02*
X313076838Y-127076755D01*
X313076838Y-127076755D02*
X313120125Y-127025167D01*
X313120125Y-127025167D02*
X313210851Y-126969429D01*
X313210851Y-126969429D02*
X313448040Y-126948677D01*
X313448040Y-126948677D02*
X313594504Y-126983664D01*
X314473287Y-127193586D02*
X314531390Y-127857716D01*
X314202895Y-126834835D02*
X314027960Y-127567154D01*
X314027960Y-127567154D02*
X314644652Y-127513201D01*
X315145717Y-127230358D02*
X315046691Y-127191221D01*
X315046691Y-127191221D02*
X314995103Y-127147933D01*
X314995103Y-127147933D02*
X314939365Y-127057208D01*
X314939365Y-127057208D02*
X314935214Y-127009770D01*
X314935214Y-127009770D02*
X314974352Y-126910744D01*
X314974352Y-126910744D02*
X315017639Y-126859156D01*
X315017639Y-126859156D02*
X315108365Y-126803418D01*
X315108365Y-126803418D02*
X315298116Y-126786817D01*
X315298116Y-126786817D02*
X315397142Y-126825954D01*
X315397142Y-126825954D02*
X315448730Y-126869241D01*
X315448730Y-126869241D02*
X315504468Y-126959967D01*
X315504468Y-126959967D02*
X315508619Y-127007405D01*
X315508619Y-127007405D02*
X315469481Y-127106431D01*
X315469481Y-127106431D02*
X315426194Y-127158019D01*
X315426194Y-127158019D02*
X315335468Y-127213757D01*
X315335468Y-127213757D02*
X315145717Y-127230358D01*
X315145717Y-127230358D02*
X315054992Y-127286097D01*
X315054992Y-127286097D02*
X315011704Y-127337685D01*
X315011704Y-127337685D02*
X314972567Y-127436711D01*
X314972567Y-127436711D02*
X314989168Y-127626462D01*
X314989168Y-127626462D02*
X315044906Y-127717188D01*
X315044906Y-127717188D02*
X315096494Y-127760475D01*
X315096494Y-127760475D02*
X315195520Y-127799612D01*
X315195520Y-127799612D02*
X315385272Y-127783011D01*
X315385272Y-127783011D02*
X315475997Y-127727273D01*
X315475997Y-127727273D02*
X315519285Y-127675685D01*
X315519285Y-127675685D02*
X315558422Y-127576659D01*
X315558422Y-127576659D02*
X315541821Y-127386907D01*
X315541821Y-127386907D02*
X315486082Y-127296182D01*
X315486082Y-127296182D02*
X315434494Y-127252894D01*
X315434494Y-127252894D02*
X315335468Y-127213757D01*
X98858058Y-68811623D02*
X98996221Y-68871512D01*
X98996221Y-68871512D02*
X99233410Y-68892263D01*
X99233410Y-68892263D02*
X99332436Y-68853126D01*
X99332436Y-68853126D02*
X99384024Y-68809838D01*
X99384024Y-68809838D02*
X99439763Y-68719113D01*
X99439763Y-68719113D02*
X99448063Y-68624237D01*
X99448063Y-68624237D02*
X99408926Y-68525211D01*
X99408926Y-68525211D02*
X99365638Y-68473623D01*
X99365638Y-68473623D02*
X99274913Y-68417885D01*
X99274913Y-68417885D02*
X99089312Y-68353846D01*
X99089312Y-68353846D02*
X98998587Y-68298108D01*
X98998587Y-68298108D02*
X98955299Y-68246519D01*
X98955299Y-68246519D02*
X98916162Y-68147494D01*
X98916162Y-68147494D02*
X98924462Y-68052618D01*
X98924462Y-68052618D02*
X98980201Y-67961892D01*
X98980201Y-67961892D02*
X99031789Y-67918605D01*
X99031789Y-67918605D02*
X99130815Y-67879468D01*
X99130815Y-67879468D02*
X99368004Y-67900219D01*
X99368004Y-67900219D02*
X99506167Y-67960108D01*
X100411636Y-67991525D02*
X99937258Y-67950022D01*
X99937258Y-67950022D02*
X99848317Y-68420250D01*
X99848317Y-68420250D02*
X99899906Y-68376963D01*
X99899906Y-68376963D02*
X99998932Y-68337826D01*
X99998932Y-68337826D02*
X100236121Y-68358577D01*
X100236121Y-68358577D02*
X100326846Y-68414315D01*
X100326846Y-68414315D02*
X100370134Y-68465903D01*
X100370134Y-68465903D02*
X100409271Y-68564929D01*
X100409271Y-68564929D02*
X100388520Y-68802119D01*
X100388520Y-68802119D02*
X100332781Y-68892844D01*
X100332781Y-68892844D02*
X100281193Y-68936132D01*
X100281193Y-68936132D02*
X100182167Y-68975269D01*
X100182167Y-68975269D02*
X99944978Y-68954517D01*
X99944978Y-68954517D02*
X99854253Y-68898779D01*
X99854253Y-68898779D02*
X99810965Y-68847191D01*
X171281429Y-115305647D02*
X171419592Y-115365536D01*
X171419592Y-115365536D02*
X171656781Y-115386287D01*
X171656781Y-115386287D02*
X171755807Y-115347150D01*
X171755807Y-115347150D02*
X171807395Y-115303862D01*
X171807395Y-115303862D02*
X171863134Y-115213137D01*
X171863134Y-115213137D02*
X171871434Y-115118261D01*
X171871434Y-115118261D02*
X171832297Y-115019235D01*
X171832297Y-115019235D02*
X171789009Y-114967647D01*
X171789009Y-114967647D02*
X171698284Y-114911909D01*
X171698284Y-114911909D02*
X171512683Y-114847870D01*
X171512683Y-114847870D02*
X171421958Y-114792132D01*
X171421958Y-114792132D02*
X171378670Y-114740543D01*
X171378670Y-114740543D02*
X171339533Y-114641518D01*
X171339533Y-114641518D02*
X171347833Y-114546642D01*
X171347833Y-114546642D02*
X171403572Y-114455916D01*
X171403572Y-114455916D02*
X171455160Y-114412629D01*
X171455160Y-114412629D02*
X171554186Y-114373492D01*
X171554186Y-114373492D02*
X171791375Y-114394243D01*
X171791375Y-114394243D02*
X171929538Y-114454132D01*
X172304891Y-114534772D02*
X172356479Y-114491484D01*
X172356479Y-114491484D02*
X172455505Y-114452347D01*
X172455505Y-114452347D02*
X172692694Y-114473098D01*
X172692694Y-114473098D02*
X172783419Y-114528837D01*
X172783419Y-114528837D02*
X172826707Y-114580425D01*
X172826707Y-114580425D02*
X172865844Y-114679451D01*
X172865844Y-114679451D02*
X172857544Y-114774326D01*
X172857544Y-114774326D02*
X172797655Y-114912490D01*
X172797655Y-114912490D02*
X172178598Y-115431940D01*
X172178598Y-115431940D02*
X172795290Y-115485894D01*
X173214510Y-114518751D02*
X173831202Y-114572705D01*
X173831202Y-114572705D02*
X173465935Y-114923156D01*
X173465935Y-114923156D02*
X173608249Y-114935606D01*
X173608249Y-114935606D02*
X173698974Y-114991345D01*
X173698974Y-114991345D02*
X173742262Y-115042933D01*
X173742262Y-115042933D02*
X173781399Y-115141959D01*
X173781399Y-115141959D02*
X173760648Y-115379148D01*
X173760648Y-115379148D02*
X173704909Y-115469873D01*
X173704909Y-115469873D02*
X173653321Y-115513161D01*
X173653321Y-115513161D02*
X173554295Y-115552298D01*
X173554295Y-115552298D02*
X173269668Y-115527397D01*
X173269668Y-115527397D02*
X173178943Y-115471658D01*
X173178943Y-115471658D02*
X173135655Y-115420070D01*
X112965314Y-126139301D02*
X113103477Y-126199190D01*
X113103477Y-126199190D02*
X113340666Y-126219941D01*
X113340666Y-126219941D02*
X113439692Y-126180804D01*
X113439692Y-126180804D02*
X113491280Y-126137516D01*
X113491280Y-126137516D02*
X113547019Y-126046791D01*
X113547019Y-126046791D02*
X113555319Y-125951915D01*
X113555319Y-125951915D02*
X113516182Y-125852889D01*
X113516182Y-125852889D02*
X113472894Y-125801301D01*
X113472894Y-125801301D02*
X113382169Y-125745563D01*
X113382169Y-125745563D02*
X113196568Y-125681524D01*
X113196568Y-125681524D02*
X113105843Y-125625786D01*
X113105843Y-125625786D02*
X113062555Y-125574197D01*
X113062555Y-125574197D02*
X113023418Y-125475172D01*
X113023418Y-125475172D02*
X113031718Y-125380296D01*
X113031718Y-125380296D02*
X113087457Y-125289570D01*
X113087457Y-125289570D02*
X113139045Y-125246283D01*
X113139045Y-125246283D02*
X113238071Y-125207146D01*
X113238071Y-125207146D02*
X113475260Y-125227897D01*
X113475260Y-125227897D02*
X113613423Y-125287786D01*
X114479175Y-126319548D02*
X113909920Y-126269745D01*
X114194548Y-126294646D02*
X114281703Y-125298452D01*
X114281703Y-125298452D02*
X114174377Y-125432465D01*
X114174377Y-125432465D02*
X114071201Y-125519040D01*
X114071201Y-125519040D02*
X113972175Y-125558177D01*
X114937533Y-125451431D02*
X114989121Y-125408144D01*
X114989121Y-125408144D02*
X115088147Y-125369006D01*
X115088147Y-125369006D02*
X115325336Y-125389758D01*
X115325336Y-125389758D02*
X115416061Y-125445496D01*
X115416061Y-125445496D02*
X115459349Y-125497084D01*
X115459349Y-125497084D02*
X115498486Y-125596110D01*
X115498486Y-125596110D02*
X115490186Y-125690986D01*
X115490186Y-125690986D02*
X115430297Y-125829149D01*
X115430297Y-125829149D02*
X114811240Y-126348600D01*
X114811240Y-126348600D02*
X115427931Y-126402553D01*
X218161205Y-135603789D02*
X218307669Y-135638776D01*
X218307669Y-135638776D02*
X218544858Y-135618024D01*
X218544858Y-135618024D02*
X218635583Y-135562286D01*
X218635583Y-135562286D02*
X218678871Y-135510698D01*
X218678871Y-135510698D02*
X218718008Y-135411672D01*
X218718008Y-135411672D02*
X218709708Y-135316796D01*
X218709708Y-135316796D02*
X218653969Y-135226071D01*
X218653969Y-135226071D02*
X218602381Y-135182783D01*
X218602381Y-135182783D02*
X218503355Y-135143646D01*
X218503355Y-135143646D02*
X218309453Y-135112809D01*
X218309453Y-135112809D02*
X218210427Y-135073672D01*
X218210427Y-135073672D02*
X218158839Y-135030384D01*
X218158839Y-135030384D02*
X218103101Y-134939659D01*
X218103101Y-134939659D02*
X218094800Y-134844783D01*
X218094800Y-134844783D02*
X218133938Y-134745757D01*
X218133938Y-134745757D02*
X218177225Y-134694169D01*
X218177225Y-134694169D02*
X218267951Y-134638431D01*
X218267951Y-134638431D02*
X218505140Y-134617679D01*
X218505140Y-134617679D02*
X218651604Y-134652666D01*
X219035257Y-134666902D02*
X219078544Y-134615314D01*
X219078544Y-134615314D02*
X219169270Y-134559575D01*
X219169270Y-134559575D02*
X219406459Y-134538824D01*
X219406459Y-134538824D02*
X219505485Y-134577961D01*
X219505485Y-134577961D02*
X219557073Y-134621249D01*
X219557073Y-134621249D02*
X219612811Y-134711974D01*
X219612811Y-134711974D02*
X219621112Y-134806850D01*
X219621112Y-134806850D02*
X219586125Y-134953314D01*
X219586125Y-134953314D02*
X219066674Y-135572371D01*
X219066674Y-135572371D02*
X219683366Y-135518418D01*
X220202817Y-134899360D02*
X220103791Y-134860223D01*
X220103791Y-134860223D02*
X220052203Y-134816935D01*
X220052203Y-134816935D02*
X219996465Y-134726210D01*
X219996465Y-134726210D02*
X219992314Y-134678772D01*
X219992314Y-134678772D02*
X220031452Y-134579746D01*
X220031452Y-134579746D02*
X220074739Y-134528158D01*
X220074739Y-134528158D02*
X220165465Y-134472420D01*
X220165465Y-134472420D02*
X220355216Y-134455819D01*
X220355216Y-134455819D02*
X220454242Y-134494956D01*
X220454242Y-134494956D02*
X220505830Y-134538243D01*
X220505830Y-134538243D02*
X220561568Y-134628969D01*
X220561568Y-134628969D02*
X220565719Y-134676407D01*
X220565719Y-134676407D02*
X220526581Y-134775433D01*
X220526581Y-134775433D02*
X220483294Y-134827021D01*
X220483294Y-134827021D02*
X220392568Y-134882759D01*
X220392568Y-134882759D02*
X220202817Y-134899360D01*
X220202817Y-134899360D02*
X220112092Y-134955099D01*
X220112092Y-134955099D02*
X220068804Y-135006687D01*
X220068804Y-135006687D02*
X220029667Y-135105713D01*
X220029667Y-135105713D02*
X220046268Y-135295464D01*
X220046268Y-135295464D02*
X220102006Y-135386190D01*
X220102006Y-135386190D02*
X220153594Y-135429477D01*
X220153594Y-135429477D02*
X220252620Y-135468614D01*
X220252620Y-135468614D02*
X220442372Y-135452013D01*
X220442372Y-135452013D02*
X220533097Y-135396275D01*
X220533097Y-135396275D02*
X220576385Y-135344687D01*
X220576385Y-135344687D02*
X220615522Y-135245661D01*
X220615522Y-135245661D02*
X220598921Y-135055909D01*
X220598921Y-135055909D02*
X220543182Y-134965184D01*
X220543182Y-134965184D02*
X220491594Y-134921896D01*
X220491594Y-134921896D02*
X220392568Y-134882759D01*
X250747875Y-70922539D02*
X250894339Y-70957526D01*
X250894339Y-70957526D02*
X251131528Y-70936774D01*
X251131528Y-70936774D02*
X251222253Y-70881036D01*
X251222253Y-70881036D02*
X251265541Y-70829448D01*
X251265541Y-70829448D02*
X251304678Y-70730422D01*
X251304678Y-70730422D02*
X251296378Y-70635546D01*
X251296378Y-70635546D02*
X251240639Y-70544821D01*
X251240639Y-70544821D02*
X251189051Y-70501533D01*
X251189051Y-70501533D02*
X251090025Y-70462396D01*
X251090025Y-70462396D02*
X250896123Y-70431559D01*
X250896123Y-70431559D02*
X250797097Y-70392422D01*
X250797097Y-70392422D02*
X250745509Y-70349134D01*
X250745509Y-70349134D02*
X250689771Y-70258409D01*
X250689771Y-70258409D02*
X250681470Y-70163533D01*
X250681470Y-70163533D02*
X250720608Y-70064507D01*
X250720608Y-70064507D02*
X250763895Y-70012919D01*
X250763895Y-70012919D02*
X250854621Y-69957181D01*
X250854621Y-69957181D02*
X251091810Y-69936429D01*
X251091810Y-69936429D02*
X251238274Y-69971416D01*
X251566188Y-69894927D02*
X252182880Y-69840973D01*
X252182880Y-69840973D02*
X251884018Y-70249528D01*
X251884018Y-70249528D02*
X252026331Y-70237077D01*
X252026331Y-70237077D02*
X252125357Y-70276214D01*
X252125357Y-70276214D02*
X252176945Y-70319502D01*
X252176945Y-70319502D02*
X252232684Y-70410227D01*
X252232684Y-70410227D02*
X252253435Y-70647416D01*
X252253435Y-70647416D02*
X252214298Y-70746442D01*
X252214298Y-70746442D02*
X252171010Y-70798030D01*
X252171010Y-70798030D02*
X252080285Y-70853769D01*
X252080285Y-70853769D02*
X251795658Y-70878670D01*
X251795658Y-70878670D02*
X251696632Y-70839533D01*
X251696632Y-70839533D02*
X251645044Y-70796246D01*
X252514945Y-69811921D02*
X253131637Y-69757968D01*
X253131637Y-69757968D02*
X252832775Y-70166522D01*
X252832775Y-70166522D02*
X252975088Y-70154071D01*
X252975088Y-70154071D02*
X253074114Y-70193209D01*
X253074114Y-70193209D02*
X253125702Y-70236496D01*
X253125702Y-70236496D02*
X253181441Y-70327222D01*
X253181441Y-70327222D02*
X253202192Y-70564411D01*
X253202192Y-70564411D02*
X253163055Y-70663437D01*
X253163055Y-70663437D02*
X253119767Y-70715025D01*
X253119767Y-70715025D02*
X253029042Y-70770763D01*
X253029042Y-70770763D02*
X252744415Y-70795665D01*
X252744415Y-70795665D02*
X252645389Y-70756528D01*
X252645389Y-70756528D02*
X252593801Y-70713240D01*
X288924257Y-70132240D02*
X289070721Y-70167227D01*
X289070721Y-70167227D02*
X289307910Y-70146475D01*
X289307910Y-70146475D02*
X289398635Y-70090737D01*
X289398635Y-70090737D02*
X289441923Y-70039149D01*
X289441923Y-70039149D02*
X289481060Y-69940123D01*
X289481060Y-69940123D02*
X289472760Y-69845247D01*
X289472760Y-69845247D02*
X289417021Y-69754522D01*
X289417021Y-69754522D02*
X289365433Y-69711234D01*
X289365433Y-69711234D02*
X289266407Y-69672097D01*
X289266407Y-69672097D02*
X289072505Y-69641260D01*
X289072505Y-69641260D02*
X288973479Y-69602123D01*
X288973479Y-69602123D02*
X288921891Y-69558835D01*
X288921891Y-69558835D02*
X288866153Y-69468110D01*
X288866153Y-69468110D02*
X288857852Y-69373234D01*
X288857852Y-69373234D02*
X288896990Y-69274208D01*
X288896990Y-69274208D02*
X288940277Y-69222620D01*
X288940277Y-69222620D02*
X289031003Y-69166882D01*
X289031003Y-69166882D02*
X289268192Y-69146130D01*
X289268192Y-69146130D02*
X289414656Y-69181117D01*
X290293439Y-69391039D02*
X290351542Y-70055169D01*
X290023047Y-69032288D02*
X289848112Y-69764607D01*
X289848112Y-69764607D02*
X290464804Y-69710654D01*
X291395175Y-69963863D02*
X290825921Y-70013666D01*
X291110548Y-69988765D02*
X291023392Y-68992570D01*
X291023392Y-68992570D02*
X290940967Y-69143184D01*
X290940967Y-69143184D02*
X290854392Y-69246360D01*
X290854392Y-69246360D02*
X290763667Y-69302099D01*
X93877105Y-125744136D02*
X94015268Y-125804025D01*
X94015268Y-125804025D02*
X94252457Y-125824776D01*
X94252457Y-125824776D02*
X94351483Y-125785639D01*
X94351483Y-125785639D02*
X94403071Y-125742351D01*
X94403071Y-125742351D02*
X94458810Y-125651626D01*
X94458810Y-125651626D02*
X94467110Y-125556750D01*
X94467110Y-125556750D02*
X94427973Y-125457724D01*
X94427973Y-125457724D02*
X94384685Y-125406136D01*
X94384685Y-125406136D02*
X94293960Y-125350398D01*
X94293960Y-125350398D02*
X94108359Y-125286359D01*
X94108359Y-125286359D02*
X94017634Y-125230621D01*
X94017634Y-125230621D02*
X93974346Y-125179032D01*
X93974346Y-125179032D02*
X93935209Y-125080007D01*
X93935209Y-125080007D02*
X93943509Y-124985131D01*
X93943509Y-124985131D02*
X93999248Y-124894405D01*
X93999248Y-124894405D02*
X94050836Y-124851118D01*
X94050836Y-124851118D02*
X94149862Y-124811981D01*
X94149862Y-124811981D02*
X94387051Y-124832732D01*
X94387051Y-124832732D02*
X94525214Y-124892621D01*
X95061266Y-125321927D02*
X94970541Y-125266188D01*
X94970541Y-125266188D02*
X94927253Y-125214600D01*
X94927253Y-125214600D02*
X94888116Y-125115574D01*
X94888116Y-125115574D02*
X94892266Y-125068136D01*
X94892266Y-125068136D02*
X94948004Y-124977411D01*
X94948004Y-124977411D02*
X94999593Y-124934123D01*
X94999593Y-124934123D02*
X95098619Y-124894986D01*
X95098619Y-124894986D02*
X95288370Y-124911587D01*
X95288370Y-124911587D02*
X95379095Y-124967326D01*
X95379095Y-124967326D02*
X95422383Y-125018914D01*
X95422383Y-125018914D02*
X95461520Y-125117940D01*
X95461520Y-125117940D02*
X95457370Y-125165377D01*
X95457370Y-125165377D02*
X95401632Y-125256103D01*
X95401632Y-125256103D02*
X95350043Y-125299390D01*
X95350043Y-125299390D02*
X95251017Y-125338528D01*
X95251017Y-125338528D02*
X95061266Y-125321927D01*
X95061266Y-125321927D02*
X94962240Y-125361064D01*
X94962240Y-125361064D02*
X94910652Y-125404351D01*
X94910652Y-125404351D02*
X94854914Y-125495077D01*
X94854914Y-125495077D02*
X94838313Y-125684828D01*
X94838313Y-125684828D02*
X94877450Y-125783854D01*
X94877450Y-125783854D02*
X94920737Y-125835442D01*
X94920737Y-125835442D02*
X95011463Y-125891181D01*
X95011463Y-125891181D02*
X95201214Y-125907782D01*
X95201214Y-125907782D02*
X95300240Y-125868645D01*
X95300240Y-125868645D02*
X95351828Y-125825357D01*
X95351828Y-125825357D02*
X95407567Y-125734632D01*
X95407567Y-125734632D02*
X95424168Y-125544880D01*
X95424168Y-125544880D02*
X95385030Y-125445854D01*
X95385030Y-125445854D02*
X95341743Y-125394266D01*
X95341743Y-125394266D02*
X95251017Y-125338528D01*
X308123150Y-71002265D02*
X308269614Y-71037252D01*
X308269614Y-71037252D02*
X308506803Y-71016500D01*
X308506803Y-71016500D02*
X308597528Y-70960762D01*
X308597528Y-70960762D02*
X308640816Y-70909174D01*
X308640816Y-70909174D02*
X308679953Y-70810148D01*
X308679953Y-70810148D02*
X308671653Y-70715272D01*
X308671653Y-70715272D02*
X308615914Y-70624547D01*
X308615914Y-70624547D02*
X308564326Y-70581259D01*
X308564326Y-70581259D02*
X308465300Y-70542122D01*
X308465300Y-70542122D02*
X308271398Y-70511285D01*
X308271398Y-70511285D02*
X308172372Y-70472148D01*
X308172372Y-70472148D02*
X308120784Y-70428860D01*
X308120784Y-70428860D02*
X308065046Y-70338135D01*
X308065046Y-70338135D02*
X308056745Y-70243259D01*
X308056745Y-70243259D02*
X308095883Y-70144233D01*
X308095883Y-70144233D02*
X308139170Y-70092645D01*
X308139170Y-70092645D02*
X308229896Y-70036907D01*
X308229896Y-70036907D02*
X308467085Y-70016155D01*
X308467085Y-70016155D02*
X308613549Y-70051142D01*
X309492332Y-70261064D02*
X309550435Y-70925194D01*
X309221940Y-69902313D02*
X309047005Y-70634632D01*
X309047005Y-70634632D02*
X309663697Y-70580679D01*
X310459474Y-69841844D02*
X309985096Y-69883347D01*
X309985096Y-69883347D02*
X309979161Y-70361875D01*
X309979161Y-70361875D02*
X310022448Y-70310287D01*
X310022448Y-70310287D02*
X310113174Y-70254549D01*
X310113174Y-70254549D02*
X310350363Y-70233797D01*
X310350363Y-70233797D02*
X310449389Y-70272935D01*
X310449389Y-70272935D02*
X310500977Y-70316222D01*
X310500977Y-70316222D02*
X310556716Y-70406948D01*
X310556716Y-70406948D02*
X310577467Y-70644137D01*
X310577467Y-70644137D02*
X310538330Y-70743163D01*
X310538330Y-70743163D02*
X310495042Y-70794751D01*
X310495042Y-70794751D02*
X310404317Y-70850489D01*
X310404317Y-70850489D02*
X310167127Y-70871241D01*
X310167127Y-70871241D02*
X310068101Y-70832103D01*
X310068101Y-70832103D02*
X310016513Y-70788816D01*
X116285948Y-88184271D02*
X116424111Y-88244160D01*
X116424111Y-88244160D02*
X116661300Y-88264911D01*
X116661300Y-88264911D02*
X116760326Y-88225774D01*
X116760326Y-88225774D02*
X116811914Y-88182486D01*
X116811914Y-88182486D02*
X116867653Y-88091761D01*
X116867653Y-88091761D02*
X116875953Y-87996885D01*
X116875953Y-87996885D02*
X116836816Y-87897859D01*
X116836816Y-87897859D02*
X116793528Y-87846271D01*
X116793528Y-87846271D02*
X116702803Y-87790533D01*
X116702803Y-87790533D02*
X116517202Y-87726494D01*
X116517202Y-87726494D02*
X116426477Y-87670756D01*
X116426477Y-87670756D02*
X116383189Y-87619167D01*
X116383189Y-87619167D02*
X116344052Y-87520142D01*
X116344052Y-87520142D02*
X116352352Y-87425266D01*
X116352352Y-87425266D02*
X116408091Y-87334540D01*
X116408091Y-87334540D02*
X116459679Y-87291253D01*
X116459679Y-87291253D02*
X116558705Y-87252116D01*
X116558705Y-87252116D02*
X116795894Y-87272867D01*
X116795894Y-87272867D02*
X116934057Y-87332756D01*
X117799809Y-88364518D02*
X117230554Y-88314715D01*
X117515182Y-88339616D02*
X117602337Y-87343422D01*
X117602337Y-87343422D02*
X117495011Y-87477435D01*
X117495011Y-87477435D02*
X117391835Y-87564010D01*
X117391835Y-87564010D02*
X117292809Y-87603147D01*
X118503656Y-87422277D02*
X118598532Y-87430577D01*
X118598532Y-87430577D02*
X118689257Y-87486316D01*
X118689257Y-87486316D02*
X118732545Y-87537904D01*
X118732545Y-87537904D02*
X118771682Y-87636930D01*
X118771682Y-87636930D02*
X118802519Y-87830831D01*
X118802519Y-87830831D02*
X118781768Y-88068021D01*
X118781768Y-88068021D02*
X118717729Y-88253622D01*
X118717729Y-88253622D02*
X118661990Y-88344347D01*
X118661990Y-88344347D02*
X118610402Y-88387635D01*
X118610402Y-88387635D02*
X118511376Y-88426772D01*
X118511376Y-88426772D02*
X118416501Y-88418471D01*
X118416501Y-88418471D02*
X118325775Y-88362733D01*
X118325775Y-88362733D02*
X118282488Y-88311145D01*
X118282488Y-88311145D02*
X118243350Y-88212119D01*
X118243350Y-88212119D02*
X118212514Y-88018217D01*
X118212514Y-88018217D02*
X118233265Y-87781028D01*
X118233265Y-87781028D02*
X118297304Y-87595427D01*
X118297304Y-87595427D02*
X118353042Y-87504702D01*
X118353042Y-87504702D02*
X118404630Y-87461414D01*
X118404630Y-87461414D02*
X118503656Y-87422277D01*
X76338542Y-107636655D02*
X76476705Y-107696544D01*
X76476705Y-107696544D02*
X76713894Y-107717295D01*
X76713894Y-107717295D02*
X76812920Y-107678158D01*
X76812920Y-107678158D02*
X76864508Y-107634870D01*
X76864508Y-107634870D02*
X76920247Y-107544145D01*
X76920247Y-107544145D02*
X76928547Y-107449269D01*
X76928547Y-107449269D02*
X76889410Y-107350243D01*
X76889410Y-107350243D02*
X76846122Y-107298655D01*
X76846122Y-107298655D02*
X76755397Y-107242917D01*
X76755397Y-107242917D02*
X76569796Y-107178878D01*
X76569796Y-107178878D02*
X76479071Y-107123140D01*
X76479071Y-107123140D02*
X76435783Y-107071551D01*
X76435783Y-107071551D02*
X76396646Y-106972526D01*
X76396646Y-106972526D02*
X76404946Y-106877650D01*
X76404946Y-106877650D02*
X76460685Y-106786924D01*
X76460685Y-106786924D02*
X76512273Y-106743637D01*
X76512273Y-106743637D02*
X76611299Y-106704500D01*
X76611299Y-106704500D02*
X76848488Y-106725251D01*
X76848488Y-106725251D02*
X76986651Y-106785140D01*
X77322866Y-106766754D02*
X77939558Y-106820707D01*
X77939558Y-106820707D02*
X77574291Y-107171158D01*
X77574291Y-107171158D02*
X77716605Y-107183609D01*
X77716605Y-107183609D02*
X77807330Y-107239347D01*
X77807330Y-107239347D02*
X77850618Y-107290935D01*
X77850618Y-107290935D02*
X77889755Y-107389961D01*
X77889755Y-107389961D02*
X77869004Y-107627151D01*
X77869004Y-107627151D02*
X77813265Y-107717876D01*
X77813265Y-107717876D02*
X77761677Y-107761164D01*
X77761677Y-107761164D02*
X77662651Y-107800301D01*
X77662651Y-107800301D02*
X77378024Y-107775399D01*
X77378024Y-107775399D02*
X77287299Y-107719661D01*
X77287299Y-107719661D02*
X77244011Y-107668073D01*
X97197739Y-87789128D02*
X97335902Y-87849017D01*
X97335902Y-87849017D02*
X97573091Y-87869768D01*
X97573091Y-87869768D02*
X97672117Y-87830631D01*
X97672117Y-87830631D02*
X97723705Y-87787343D01*
X97723705Y-87787343D02*
X97779444Y-87696618D01*
X97779444Y-87696618D02*
X97787744Y-87601742D01*
X97787744Y-87601742D02*
X97748607Y-87502716D01*
X97748607Y-87502716D02*
X97705319Y-87451128D01*
X97705319Y-87451128D02*
X97614594Y-87395390D01*
X97614594Y-87395390D02*
X97428993Y-87331351D01*
X97428993Y-87331351D02*
X97338268Y-87275613D01*
X97338268Y-87275613D02*
X97294980Y-87224024D01*
X97294980Y-87224024D02*
X97255843Y-87124999D01*
X97255843Y-87124999D02*
X97264143Y-87030123D01*
X97264143Y-87030123D02*
X97319882Y-86939397D01*
X97319882Y-86939397D02*
X97371470Y-86896110D01*
X97371470Y-86896110D02*
X97470496Y-86856973D01*
X97470496Y-86856973D02*
X97707685Y-86877724D01*
X97707685Y-86877724D02*
X97845848Y-86937613D01*
X98703880Y-86964880D02*
X98514128Y-86948279D01*
X98514128Y-86948279D02*
X98415102Y-86987416D01*
X98415102Y-86987416D02*
X98363514Y-87030703D01*
X98363514Y-87030703D02*
X98256188Y-87164716D01*
X98256188Y-87164716D02*
X98192149Y-87350318D01*
X98192149Y-87350318D02*
X98158947Y-87729820D01*
X98158947Y-87729820D02*
X98198084Y-87828846D01*
X98198084Y-87828846D02*
X98241371Y-87880434D01*
X98241371Y-87880434D02*
X98332097Y-87936173D01*
X98332097Y-87936173D02*
X98521848Y-87952774D01*
X98521848Y-87952774D02*
X98620874Y-87913637D01*
X98620874Y-87913637D02*
X98672462Y-87870349D01*
X98672462Y-87870349D02*
X98728201Y-87779624D01*
X98728201Y-87779624D02*
X98748952Y-87542434D01*
X98748952Y-87542434D02*
X98709815Y-87443408D01*
X98709815Y-87443408D02*
X98666527Y-87391820D01*
X98666527Y-87391820D02*
X98575802Y-87336082D01*
X98575802Y-87336082D02*
X98386050Y-87319481D01*
X98386050Y-87319481D02*
X98287024Y-87358618D01*
X98287024Y-87358618D02*
X98235436Y-87401906D01*
X98235436Y-87401906D02*
X98179698Y-87492631D01*
X114625622Y-107161780D02*
X114763785Y-107221669D01*
X114763785Y-107221669D02*
X115000974Y-107242420D01*
X115000974Y-107242420D02*
X115100000Y-107203283D01*
X115100000Y-107203283D02*
X115151588Y-107159995D01*
X115151588Y-107159995D02*
X115207327Y-107069270D01*
X115207327Y-107069270D02*
X115215627Y-106974394D01*
X115215627Y-106974394D02*
X115176490Y-106875368D01*
X115176490Y-106875368D02*
X115133202Y-106823780D01*
X115133202Y-106823780D02*
X115042477Y-106768042D01*
X115042477Y-106768042D02*
X114856876Y-106704003D01*
X114856876Y-106704003D02*
X114766151Y-106648265D01*
X114766151Y-106648265D02*
X114722863Y-106596676D01*
X114722863Y-106596676D02*
X114683726Y-106497651D01*
X114683726Y-106497651D02*
X114692026Y-106402775D01*
X114692026Y-106402775D02*
X114747765Y-106312049D01*
X114747765Y-106312049D02*
X114799353Y-106268762D01*
X114799353Y-106268762D02*
X114898379Y-106229625D01*
X114898379Y-106229625D02*
X115135568Y-106250376D01*
X115135568Y-106250376D02*
X115273731Y-106310265D01*
X116139483Y-107342027D02*
X115570228Y-107292224D01*
X115854856Y-107317125D02*
X115942011Y-106320931D01*
X115942011Y-106320931D02*
X115834685Y-106454944D01*
X115834685Y-106454944D02*
X115731509Y-106541519D01*
X115731509Y-106541519D02*
X115632483Y-106580656D01*
X117088239Y-107425032D02*
X116518985Y-107375229D01*
X116803612Y-107400131D02*
X116890768Y-106403936D01*
X116890768Y-106403936D02*
X116783442Y-106537949D01*
X116783442Y-106537949D02*
X116680265Y-106624524D01*
X116680265Y-106624524D02*
X116581239Y-106663661D01*
X252408190Y-89900053D02*
X252554654Y-89935040D01*
X252554654Y-89935040D02*
X252791843Y-89914288D01*
X252791843Y-89914288D02*
X252882568Y-89858550D01*
X252882568Y-89858550D02*
X252925856Y-89806962D01*
X252925856Y-89806962D02*
X252964993Y-89707936D01*
X252964993Y-89707936D02*
X252956693Y-89613060D01*
X252956693Y-89613060D02*
X252900954Y-89522335D01*
X252900954Y-89522335D02*
X252849366Y-89479047D01*
X252849366Y-89479047D02*
X252750340Y-89439910D01*
X252750340Y-89439910D02*
X252556438Y-89409073D01*
X252556438Y-89409073D02*
X252457412Y-89369936D01*
X252457412Y-89369936D02*
X252405824Y-89326648D01*
X252405824Y-89326648D02*
X252350086Y-89235923D01*
X252350086Y-89235923D02*
X252341785Y-89141047D01*
X252341785Y-89141047D02*
X252380923Y-89042021D01*
X252380923Y-89042021D02*
X252424210Y-88990433D01*
X252424210Y-88990433D02*
X252514936Y-88934695D01*
X252514936Y-88934695D02*
X252752125Y-88913943D01*
X252752125Y-88913943D02*
X252898589Y-88948930D01*
X253226503Y-88872441D02*
X253843195Y-88818487D01*
X253843195Y-88818487D02*
X253544333Y-89227042D01*
X253544333Y-89227042D02*
X253686646Y-89214591D01*
X253686646Y-89214591D02*
X253785672Y-89253728D01*
X253785672Y-89253728D02*
X253837260Y-89297016D01*
X253837260Y-89297016D02*
X253892999Y-89387741D01*
X253892999Y-89387741D02*
X253913750Y-89624930D01*
X253913750Y-89624930D02*
X253874613Y-89723956D01*
X253874613Y-89723956D02*
X253831325Y-89775544D01*
X253831325Y-89775544D02*
X253740600Y-89831283D01*
X253740600Y-89831283D02*
X253455973Y-89856184D01*
X253455973Y-89856184D02*
X253356947Y-89817047D01*
X253356947Y-89817047D02*
X253305359Y-89773760D01*
X254726128Y-89075847D02*
X254784232Y-89739977D01*
X254455737Y-88717096D02*
X254280802Y-89449415D01*
X254280802Y-89449415D02*
X254897494Y-89395461D01*
X155624555Y-75690330D02*
X155762718Y-75750219D01*
X155762718Y-75750219D02*
X155999907Y-75770970D01*
X155999907Y-75770970D02*
X156098933Y-75731833D01*
X156098933Y-75731833D02*
X156150521Y-75688545D01*
X156150521Y-75688545D02*
X156206260Y-75597820D01*
X156206260Y-75597820D02*
X156214560Y-75502944D01*
X156214560Y-75502944D02*
X156175423Y-75403918D01*
X156175423Y-75403918D02*
X156132135Y-75352330D01*
X156132135Y-75352330D02*
X156041410Y-75296592D01*
X156041410Y-75296592D02*
X155855809Y-75232553D01*
X155855809Y-75232553D02*
X155765084Y-75176815D01*
X155765084Y-75176815D02*
X155721796Y-75125226D01*
X155721796Y-75125226D02*
X155682659Y-75026201D01*
X155682659Y-75026201D02*
X155690959Y-74931325D01*
X155690959Y-74931325D02*
X155746698Y-74840599D01*
X155746698Y-74840599D02*
X155798286Y-74797312D01*
X155798286Y-74797312D02*
X155897312Y-74758175D01*
X155897312Y-74758175D02*
X156134501Y-74778926D01*
X156134501Y-74778926D02*
X156272664Y-74838815D01*
X157138416Y-75870577D02*
X156569161Y-75820774D01*
X156853789Y-75845675D02*
X156940944Y-74849481D01*
X156940944Y-74849481D02*
X156833618Y-74983494D01*
X156833618Y-74983494D02*
X156730442Y-75070069D01*
X156730442Y-75070069D02*
X156631416Y-75109206D01*
X157557636Y-74903434D02*
X158221766Y-74961538D01*
X158221766Y-74961538D02*
X157707670Y-75920380D01*
X213180257Y-78671255D02*
X213326721Y-78706242D01*
X213326721Y-78706242D02*
X213563910Y-78685490D01*
X213563910Y-78685490D02*
X213654635Y-78629752D01*
X213654635Y-78629752D02*
X213697923Y-78578164D01*
X213697923Y-78578164D02*
X213737060Y-78479138D01*
X213737060Y-78479138D02*
X213728760Y-78384262D01*
X213728760Y-78384262D02*
X213673021Y-78293537D01*
X213673021Y-78293537D02*
X213621433Y-78250249D01*
X213621433Y-78250249D02*
X213522407Y-78211112D01*
X213522407Y-78211112D02*
X213328505Y-78180275D01*
X213328505Y-78180275D02*
X213229479Y-78141138D01*
X213229479Y-78141138D02*
X213177891Y-78097850D01*
X213177891Y-78097850D02*
X213122153Y-78007125D01*
X213122153Y-78007125D02*
X213113852Y-77912249D01*
X213113852Y-77912249D02*
X213152990Y-77813223D01*
X213152990Y-77813223D02*
X213196277Y-77761635D01*
X213196277Y-77761635D02*
X213287003Y-77705897D01*
X213287003Y-77705897D02*
X213524192Y-77685145D01*
X213524192Y-77685145D02*
X213670656Y-77720132D01*
X214054309Y-77734368D02*
X214097596Y-77682780D01*
X214097596Y-77682780D02*
X214188322Y-77627041D01*
X214188322Y-77627041D02*
X214425511Y-77606290D01*
X214425511Y-77606290D02*
X214524537Y-77645427D01*
X214524537Y-77645427D02*
X214576125Y-77688715D01*
X214576125Y-77688715D02*
X214631863Y-77779440D01*
X214631863Y-77779440D02*
X214640164Y-77874316D01*
X214640164Y-77874316D02*
X214605177Y-78020780D01*
X214605177Y-78020780D02*
X214085726Y-78639837D01*
X214085726Y-78639837D02*
X214702418Y-78585884D01*
X215516581Y-77510834D02*
X215042203Y-77552337D01*
X215042203Y-77552337D02*
X215036268Y-78030865D01*
X215036268Y-78030865D02*
X215079555Y-77979277D01*
X215079555Y-77979277D02*
X215170281Y-77923539D01*
X215170281Y-77923539D02*
X215407470Y-77902787D01*
X215407470Y-77902787D02*
X215506496Y-77941925D01*
X215506496Y-77941925D02*
X215558084Y-77985212D01*
X215558084Y-77985212D02*
X215613823Y-78075938D01*
X215613823Y-78075938D02*
X215634574Y-78313127D01*
X215634574Y-78313127D02*
X215595437Y-78412153D01*
X215595437Y-78412153D02*
X215552149Y-78463741D01*
X215552149Y-78463741D02*
X215461424Y-78519479D01*
X215461424Y-78519479D02*
X215224234Y-78540231D01*
X215224234Y-78540231D02*
X215125208Y-78501093D01*
X215125208Y-78501093D02*
X215073620Y-78457806D01*
X133714240Y-107552181D02*
X133852403Y-107612070D01*
X133852403Y-107612070D02*
X134089592Y-107632821D01*
X134089592Y-107632821D02*
X134188618Y-107593684D01*
X134188618Y-107593684D02*
X134240206Y-107550396D01*
X134240206Y-107550396D02*
X134295945Y-107459671D01*
X134295945Y-107459671D02*
X134304245Y-107364795D01*
X134304245Y-107364795D02*
X134265108Y-107265769D01*
X134265108Y-107265769D02*
X134221820Y-107214181D01*
X134221820Y-107214181D02*
X134131095Y-107158443D01*
X134131095Y-107158443D02*
X133945494Y-107094404D01*
X133945494Y-107094404D02*
X133854769Y-107038666D01*
X133854769Y-107038666D02*
X133811481Y-106987077D01*
X133811481Y-106987077D02*
X133772344Y-106888052D01*
X133772344Y-106888052D02*
X133780644Y-106793176D01*
X133780644Y-106793176D02*
X133836383Y-106702450D01*
X133836383Y-106702450D02*
X133887971Y-106659163D01*
X133887971Y-106659163D02*
X133986997Y-106620026D01*
X133986997Y-106620026D02*
X134224186Y-106640777D01*
X134224186Y-106640777D02*
X134362349Y-106700666D01*
X135228101Y-107732428D02*
X134658846Y-107682625D01*
X134943474Y-107707526D02*
X135030629Y-106711332D01*
X135030629Y-106711332D02*
X134923303Y-106845345D01*
X134923303Y-106845345D02*
X134820127Y-106931920D01*
X134820127Y-106931920D02*
X134721101Y-106971057D01*
X136216575Y-106815088D02*
X135742197Y-106773586D01*
X135742197Y-106773586D02*
X135653256Y-107243814D01*
X135653256Y-107243814D02*
X135704844Y-107200526D01*
X135704844Y-107200526D02*
X135803870Y-107161389D01*
X135803870Y-107161389D02*
X136041060Y-107182140D01*
X136041060Y-107182140D02*
X136131785Y-107237879D01*
X136131785Y-107237879D02*
X136175073Y-107289467D01*
X136175073Y-107289467D02*
X136214210Y-107388493D01*
X136214210Y-107388493D02*
X136193459Y-107625682D01*
X136193459Y-107625682D02*
X136137720Y-107716407D01*
X136137720Y-107716407D02*
X136086132Y-107759695D01*
X136086132Y-107759695D02*
X135987106Y-107798832D01*
X135987106Y-107798832D02*
X135749917Y-107778081D01*
X135749917Y-107778081D02*
X135659191Y-107722343D01*
X135659191Y-107722343D02*
X135615904Y-107670754D01*
X309783470Y-89979772D02*
X309929934Y-90014759D01*
X309929934Y-90014759D02*
X310167123Y-89994007D01*
X310167123Y-89994007D02*
X310257848Y-89938269D01*
X310257848Y-89938269D02*
X310301136Y-89886681D01*
X310301136Y-89886681D02*
X310340273Y-89787655D01*
X310340273Y-89787655D02*
X310331973Y-89692779D01*
X310331973Y-89692779D02*
X310276234Y-89602054D01*
X310276234Y-89602054D02*
X310224646Y-89558766D01*
X310224646Y-89558766D02*
X310125620Y-89519629D01*
X310125620Y-89519629D02*
X309931718Y-89488792D01*
X309931718Y-89488792D02*
X309832692Y-89449655D01*
X309832692Y-89449655D02*
X309781104Y-89406367D01*
X309781104Y-89406367D02*
X309725366Y-89315642D01*
X309725366Y-89315642D02*
X309717065Y-89220766D01*
X309717065Y-89220766D02*
X309756203Y-89121740D01*
X309756203Y-89121740D02*
X309799490Y-89070152D01*
X309799490Y-89070152D02*
X309890216Y-89014414D01*
X309890216Y-89014414D02*
X310127405Y-88993662D01*
X310127405Y-88993662D02*
X310273869Y-89028649D01*
X311152652Y-89238571D02*
X311210755Y-89902701D01*
X310882260Y-88879820D02*
X310707325Y-89612139D01*
X310707325Y-89612139D02*
X311324017Y-89558186D01*
X312072357Y-88823501D02*
X311882605Y-88840102D01*
X311882605Y-88840102D02*
X311791880Y-88895841D01*
X311791880Y-88895841D02*
X311748592Y-88947429D01*
X311748592Y-88947429D02*
X311666167Y-89098043D01*
X311666167Y-89098043D02*
X311635331Y-89291944D01*
X311635331Y-89291944D02*
X311668533Y-89671447D01*
X311668533Y-89671447D02*
X311724271Y-89762173D01*
X311724271Y-89762173D02*
X311775859Y-89805460D01*
X311775859Y-89805460D02*
X311874885Y-89844597D01*
X311874885Y-89844597D02*
X312064637Y-89827996D01*
X312064637Y-89827996D02*
X312155362Y-89772258D01*
X312155362Y-89772258D02*
X312198650Y-89720670D01*
X312198650Y-89720670D02*
X312237787Y-89621644D01*
X312237787Y-89621644D02*
X312217036Y-89384455D01*
X312217036Y-89384455D02*
X312161297Y-89293729D01*
X312161297Y-89293729D02*
X312109709Y-89250442D01*
X312109709Y-89250442D02*
X312010683Y-89211304D01*
X312010683Y-89211304D02*
X311820932Y-89227905D01*
X311820932Y-89227905D02*
X311730206Y-89283644D01*
X311730206Y-89283644D02*
X311686919Y-89335232D01*
X311686919Y-89335232D02*
X311647781Y-89434258D01*
X293905216Y-127064765D02*
X294051680Y-127099752D01*
X294051680Y-127099752D02*
X294288869Y-127079000D01*
X294288869Y-127079000D02*
X294379594Y-127023262D01*
X294379594Y-127023262D02*
X294422882Y-126971674D01*
X294422882Y-126971674D02*
X294462019Y-126872648D01*
X294462019Y-126872648D02*
X294453719Y-126777772D01*
X294453719Y-126777772D02*
X294397980Y-126687047D01*
X294397980Y-126687047D02*
X294346392Y-126643759D01*
X294346392Y-126643759D02*
X294247366Y-126604622D01*
X294247366Y-126604622D02*
X294053464Y-126573785D01*
X294053464Y-126573785D02*
X293954438Y-126534648D01*
X293954438Y-126534648D02*
X293902850Y-126491360D01*
X293902850Y-126491360D02*
X293847112Y-126400635D01*
X293847112Y-126400635D02*
X293838811Y-126305759D01*
X293838811Y-126305759D02*
X293877949Y-126206733D01*
X293877949Y-126206733D02*
X293921236Y-126155145D01*
X293921236Y-126155145D02*
X294011962Y-126099407D01*
X294011962Y-126099407D02*
X294249151Y-126078655D01*
X294249151Y-126078655D02*
X294395615Y-126113642D01*
X295274398Y-126323564D02*
X295332501Y-126987694D01*
X295004006Y-125964813D02*
X294829071Y-126697132D01*
X294829071Y-126697132D02*
X295445763Y-126643179D01*
X296223154Y-126240559D02*
X296281258Y-126904689D01*
X295952763Y-125881808D02*
X295777828Y-126614127D01*
X295777828Y-126614127D02*
X296394520Y-126560173D01*
X209379645Y-159705556D02*
X209526109Y-159740543D01*
X209526109Y-159740543D02*
X209763298Y-159719791D01*
X209763298Y-159719791D02*
X209854023Y-159664053D01*
X209854023Y-159664053D02*
X209897311Y-159612465D01*
X209897311Y-159612465D02*
X209936448Y-159513439D01*
X209936448Y-159513439D02*
X209928148Y-159418563D01*
X209928148Y-159418563D02*
X209872409Y-159327838D01*
X209872409Y-159327838D02*
X209820821Y-159284550D01*
X209820821Y-159284550D02*
X209721795Y-159245413D01*
X209721795Y-159245413D02*
X209527893Y-159214576D01*
X209527893Y-159214576D02*
X209428867Y-159175439D01*
X209428867Y-159175439D02*
X209377279Y-159132151D01*
X209377279Y-159132151D02*
X209321541Y-159041426D01*
X209321541Y-159041426D02*
X209313240Y-158946550D01*
X209313240Y-158946550D02*
X209352378Y-158847524D01*
X209352378Y-158847524D02*
X209395665Y-158795936D01*
X209395665Y-158795936D02*
X209486391Y-158740198D01*
X209486391Y-158740198D02*
X209723580Y-158719446D01*
X209723580Y-158719446D02*
X209870044Y-158754433D01*
X210767213Y-158628140D02*
X210292834Y-158669643D01*
X210292834Y-158669643D02*
X210286899Y-159148172D01*
X210286899Y-159148172D02*
X210330187Y-159096584D01*
X210330187Y-159096584D02*
X210420912Y-159040845D01*
X210420912Y-159040845D02*
X210658101Y-159020094D01*
X210658101Y-159020094D02*
X210757127Y-159059231D01*
X210757127Y-159059231D02*
X210808715Y-159102519D01*
X210808715Y-159102519D02*
X210864454Y-159193244D01*
X210864454Y-159193244D02*
X210885205Y-159430433D01*
X210885205Y-159430433D02*
X210846068Y-159529459D01*
X210846068Y-159529459D02*
X210802780Y-159581047D01*
X210802780Y-159581047D02*
X210712055Y-159636786D01*
X210712055Y-159636786D02*
X210474866Y-159657537D01*
X210474866Y-159657537D02*
X210375840Y-159618400D01*
X210375840Y-159618400D02*
X210324251Y-159575112D01*
X211146715Y-158594938D02*
X211763407Y-158540985D01*
X211763407Y-158540985D02*
X211464545Y-158949539D01*
X211464545Y-158949539D02*
X211606858Y-158937088D01*
X211606858Y-158937088D02*
X211705884Y-158976226D01*
X211705884Y-158976226D02*
X211757472Y-159019513D01*
X211757472Y-159019513D02*
X211813211Y-159110239D01*
X211813211Y-159110239D02*
X211833962Y-159347428D01*
X211833962Y-159347428D02*
X211794825Y-159446454D01*
X211794825Y-159446454D02*
X211751537Y-159498042D01*
X211751537Y-159498042D02*
X211660812Y-159553780D01*
X211660812Y-159553780D02*
X211376185Y-159578682D01*
X211376185Y-159578682D02*
X211277159Y-159539545D01*
X211277159Y-159539545D02*
X211225571Y-159496257D01*
X290584582Y-89109753D02*
X290731046Y-89144740D01*
X290731046Y-89144740D02*
X290968235Y-89123988D01*
X290968235Y-89123988D02*
X291058960Y-89068250D01*
X291058960Y-89068250D02*
X291102248Y-89016662D01*
X291102248Y-89016662D02*
X291141385Y-88917636D01*
X291141385Y-88917636D02*
X291133085Y-88822760D01*
X291133085Y-88822760D02*
X291077346Y-88732035D01*
X291077346Y-88732035D02*
X291025758Y-88688747D01*
X291025758Y-88688747D02*
X290926732Y-88649610D01*
X290926732Y-88649610D02*
X290732830Y-88618773D01*
X290732830Y-88618773D02*
X290633804Y-88579636D01*
X290633804Y-88579636D02*
X290582216Y-88536348D01*
X290582216Y-88536348D02*
X290526478Y-88445623D01*
X290526478Y-88445623D02*
X290518177Y-88350747D01*
X290518177Y-88350747D02*
X290557315Y-88251721D01*
X290557315Y-88251721D02*
X290600602Y-88200133D01*
X290600602Y-88200133D02*
X290691328Y-88144395D01*
X290691328Y-88144395D02*
X290928517Y-88123643D01*
X290928517Y-88123643D02*
X291074981Y-88158630D01*
X291953764Y-88368552D02*
X292011867Y-89032682D01*
X291683372Y-88009801D02*
X291508437Y-88742120D01*
X291508437Y-88742120D02*
X292125129Y-88688167D01*
X292407391Y-88089860D02*
X292450678Y-88038272D01*
X292450678Y-88038272D02*
X292541404Y-87982534D01*
X292541404Y-87982534D02*
X292778593Y-87961783D01*
X292778593Y-87961783D02*
X292877619Y-88000920D01*
X292877619Y-88000920D02*
X292929207Y-88044207D01*
X292929207Y-88044207D02*
X292984945Y-88134933D01*
X292984945Y-88134933D02*
X292993246Y-88229809D01*
X292993246Y-88229809D02*
X292958259Y-88376272D01*
X292958259Y-88376272D02*
X292438808Y-88995330D01*
X292438808Y-88995330D02*
X293055500Y-88941376D01*
X151974227Y-153252386D02*
X152099892Y-153335357D01*
X152099892Y-153335357D02*
X152329874Y-153396980D01*
X152329874Y-153396980D02*
X152434192Y-153375633D01*
X152434192Y-153375633D02*
X152492513Y-153341962D01*
X152492513Y-153341962D02*
X152563159Y-153262293D01*
X152563159Y-153262293D02*
X152587808Y-153170300D01*
X152587808Y-153170300D02*
X152566461Y-153065983D01*
X152566461Y-153065983D02*
X152532790Y-153007662D01*
X152532790Y-153007662D02*
X152453121Y-152937016D01*
X152453121Y-152937016D02*
X152281460Y-152841720D01*
X152281460Y-152841720D02*
X152201792Y-152771074D01*
X152201792Y-152771074D02*
X152168120Y-152712753D01*
X152168120Y-152712753D02*
X152146773Y-152608436D01*
X152146773Y-152608436D02*
X152171423Y-152516443D01*
X152171423Y-152516443D02*
X152242068Y-152436774D01*
X152242068Y-152436774D02*
X152300390Y-152403103D01*
X152300390Y-152403103D02*
X152404707Y-152381756D01*
X152404707Y-152381756D02*
X152634690Y-152443379D01*
X152634690Y-152443379D02*
X152760354Y-152526350D01*
X153646612Y-152714523D02*
X153186647Y-152591276D01*
X153186647Y-152591276D02*
X153017404Y-153038916D01*
X153017404Y-153038916D02*
X153075725Y-153005244D01*
X153075725Y-153005244D02*
X153180042Y-152983897D01*
X153180042Y-152983897D02*
X153410025Y-153045521D01*
X153410025Y-153045521D02*
X153489693Y-153116167D01*
X153489693Y-153116167D02*
X153523365Y-153174488D01*
X153523365Y-153174488D02*
X153544712Y-153278805D01*
X153544712Y-153278805D02*
X153483088Y-153508788D01*
X153483088Y-153508788D02*
X153412442Y-153588456D01*
X153412442Y-153588456D02*
X153354121Y-153622128D01*
X153354121Y-153622128D02*
X153249804Y-153643475D01*
X153249804Y-153643475D02*
X153019821Y-153581851D01*
X153019821Y-153581851D02*
X152940153Y-153511205D01*
X152940153Y-153511205D02*
X152906481Y-153452884D01*
X154353719Y-153939268D02*
X153801761Y-153791371D01*
X154077740Y-153865320D02*
X154336559Y-152899394D01*
X154336559Y-152899394D02*
X154207592Y-153012734D01*
X154207592Y-153012734D02*
X154090950Y-153080077D01*
X154090950Y-153080077D02*
X153986632Y-153101424D01*
X137034870Y-69597156D02*
X137173033Y-69657045D01*
X137173033Y-69657045D02*
X137410222Y-69677796D01*
X137410222Y-69677796D02*
X137509248Y-69638659D01*
X137509248Y-69638659D02*
X137560836Y-69595371D01*
X137560836Y-69595371D02*
X137616575Y-69504646D01*
X137616575Y-69504646D02*
X137624875Y-69409770D01*
X137624875Y-69409770D02*
X137585738Y-69310744D01*
X137585738Y-69310744D02*
X137542450Y-69259156D01*
X137542450Y-69259156D02*
X137451725Y-69203418D01*
X137451725Y-69203418D02*
X137266124Y-69139379D01*
X137266124Y-69139379D02*
X137175399Y-69083641D01*
X137175399Y-69083641D02*
X137132111Y-69032052D01*
X137132111Y-69032052D02*
X137092974Y-68933027D01*
X137092974Y-68933027D02*
X137101274Y-68838151D01*
X137101274Y-68838151D02*
X137157013Y-68747425D01*
X137157013Y-68747425D02*
X137208601Y-68704138D01*
X137208601Y-68704138D02*
X137307627Y-68665001D01*
X137307627Y-68665001D02*
X137544816Y-68685752D01*
X137544816Y-68685752D02*
X137682979Y-68745641D01*
X138548731Y-69777403D02*
X137979476Y-69727600D01*
X138264104Y-69752501D02*
X138351259Y-68756307D01*
X138351259Y-68756307D02*
X138243933Y-68890320D01*
X138243933Y-68890320D02*
X138140757Y-68976895D01*
X138140757Y-68976895D02*
X138041731Y-69016032D01*
X138967951Y-68810260D02*
X139584643Y-68864214D01*
X139584643Y-68864214D02*
X139219376Y-69214665D01*
X139219376Y-69214665D02*
X139361690Y-69227115D01*
X139361690Y-69227115D02*
X139452415Y-69282854D01*
X139452415Y-69282854D02*
X139495703Y-69334442D01*
X139495703Y-69334442D02*
X139534840Y-69433468D01*
X139534840Y-69433468D02*
X139514089Y-69670657D01*
X139514089Y-69670657D02*
X139458350Y-69761382D01*
X139458350Y-69761382D02*
X139406762Y-69804670D01*
X139406762Y-69804670D02*
X139307736Y-69843807D01*
X139307736Y-69843807D02*
X139023109Y-69818906D01*
X139023109Y-69818906D02*
X138932384Y-69763167D01*
X138932384Y-69763167D02*
X138889096Y-69711579D01*
X178036453Y-158608436D02*
X178174616Y-158668325D01*
X178174616Y-158668325D02*
X178411805Y-158689076D01*
X178411805Y-158689076D02*
X178510831Y-158649939D01*
X178510831Y-158649939D02*
X178562419Y-158606651D01*
X178562419Y-158606651D02*
X178618158Y-158515926D01*
X178618158Y-158515926D02*
X178626458Y-158421050D01*
X178626458Y-158421050D02*
X178587321Y-158322024D01*
X178587321Y-158322024D02*
X178544033Y-158270436D01*
X178544033Y-158270436D02*
X178453308Y-158214698D01*
X178453308Y-158214698D02*
X178267707Y-158150659D01*
X178267707Y-158150659D02*
X178176982Y-158094921D01*
X178176982Y-158094921D02*
X178133694Y-158043332D01*
X178133694Y-158043332D02*
X178094557Y-157944307D01*
X178094557Y-157944307D02*
X178102857Y-157849431D01*
X178102857Y-157849431D02*
X178158596Y-157758705D01*
X178158596Y-157758705D02*
X178210184Y-157715418D01*
X178210184Y-157715418D02*
X178309210Y-157676281D01*
X178309210Y-157676281D02*
X178546399Y-157697032D01*
X178546399Y-157697032D02*
X178684562Y-157756921D01*
X179590031Y-157788338D02*
X179115653Y-157746835D01*
X179115653Y-157746835D02*
X179026712Y-158217063D01*
X179026712Y-158217063D02*
X179078301Y-158173776D01*
X179078301Y-158173776D02*
X179177327Y-158134639D01*
X179177327Y-158134639D02*
X179414516Y-158155390D01*
X179414516Y-158155390D02*
X179505241Y-158211128D01*
X179505241Y-158211128D02*
X179548529Y-158262716D01*
X179548529Y-158262716D02*
X179587666Y-158361742D01*
X179587666Y-158361742D02*
X179566915Y-158598932D01*
X179566915Y-158598932D02*
X179511176Y-158689657D01*
X179511176Y-158689657D02*
X179459588Y-158732945D01*
X179459588Y-158732945D02*
X179360562Y-158772082D01*
X179360562Y-158772082D02*
X179123373Y-158751330D01*
X179123373Y-158751330D02*
X179032648Y-158695592D01*
X179032648Y-158695592D02*
X178989360Y-158644004D01*
X180008672Y-157920566D02*
X180060260Y-157877279D01*
X180060260Y-157877279D02*
X180159286Y-157838141D01*
X180159286Y-157838141D02*
X180396475Y-157858893D01*
X180396475Y-157858893D02*
X180487200Y-157914631D01*
X180487200Y-157914631D02*
X180530488Y-157966219D01*
X180530488Y-157966219D02*
X180569625Y-158065245D01*
X180569625Y-158065245D02*
X180561325Y-158160121D01*
X180561325Y-158160121D02*
X180501436Y-158298284D01*
X180501436Y-158298284D02*
X179882379Y-158817735D01*
X179882379Y-158817735D02*
X180499070Y-158871688D01*
X255287849Y-151978968D02*
X255434313Y-152013955D01*
X255434313Y-152013955D02*
X255671502Y-151993203D01*
X255671502Y-151993203D02*
X255762227Y-151937465D01*
X255762227Y-151937465D02*
X255805515Y-151885877D01*
X255805515Y-151885877D02*
X255844652Y-151786851D01*
X255844652Y-151786851D02*
X255836352Y-151691975D01*
X255836352Y-151691975D02*
X255780613Y-151601250D01*
X255780613Y-151601250D02*
X255729025Y-151557962D01*
X255729025Y-151557962D02*
X255629999Y-151518825D01*
X255629999Y-151518825D02*
X255436097Y-151487988D01*
X255436097Y-151487988D02*
X255337071Y-151448851D01*
X255337071Y-151448851D02*
X255285483Y-151405563D01*
X255285483Y-151405563D02*
X255229745Y-151314838D01*
X255229745Y-151314838D02*
X255221444Y-151219962D01*
X255221444Y-151219962D02*
X255260582Y-151120936D01*
X255260582Y-151120936D02*
X255303869Y-151069348D01*
X255303869Y-151069348D02*
X255394595Y-151013610D01*
X255394595Y-151013610D02*
X255631784Y-150992858D01*
X255631784Y-150992858D02*
X255778248Y-151027845D01*
X256675417Y-150901552D02*
X256201038Y-150943055D01*
X256201038Y-150943055D02*
X256195103Y-151421584D01*
X256195103Y-151421584D02*
X256238391Y-151369996D01*
X256238391Y-151369996D02*
X256329116Y-151314257D01*
X256329116Y-151314257D02*
X256566305Y-151293506D01*
X256566305Y-151293506D02*
X256665331Y-151332643D01*
X256665331Y-151332643D02*
X256716919Y-151375931D01*
X256716919Y-151375931D02*
X256772658Y-151466656D01*
X256772658Y-151466656D02*
X256793409Y-151703845D01*
X256793409Y-151703845D02*
X256754272Y-151802871D01*
X256754272Y-151802871D02*
X256710984Y-151854459D01*
X256710984Y-151854459D02*
X256620259Y-151910198D01*
X256620259Y-151910198D02*
X256383070Y-151930949D01*
X256383070Y-151930949D02*
X256284044Y-151891812D01*
X256284044Y-151891812D02*
X256232455Y-151848524D01*
X257624173Y-150818547D02*
X257149795Y-150860050D01*
X257149795Y-150860050D02*
X257143860Y-151338578D01*
X257143860Y-151338578D02*
X257187147Y-151286990D01*
X257187147Y-151286990D02*
X257277873Y-151231252D01*
X257277873Y-151231252D02*
X257515062Y-151210500D01*
X257515062Y-151210500D02*
X257614088Y-151249638D01*
X257614088Y-151249638D02*
X257665676Y-151292925D01*
X257665676Y-151292925D02*
X257721415Y-151383651D01*
X257721415Y-151383651D02*
X257742166Y-151620840D01*
X257742166Y-151620840D02*
X257703029Y-151719866D01*
X257703029Y-151719866D02*
X257659741Y-151771454D01*
X257659741Y-151771454D02*
X257569016Y-151827192D01*
X257569016Y-151827192D02*
X257331826Y-151847944D01*
X257331826Y-151847944D02*
X257232800Y-151808806D01*
X257232800Y-151808806D02*
X257181212Y-151765519D01*
X273156712Y-108482402D02*
X273303176Y-108517389D01*
X273303176Y-108517389D02*
X273540365Y-108496637D01*
X273540365Y-108496637D02*
X273631090Y-108440899D01*
X273631090Y-108440899D02*
X273674378Y-108389311D01*
X273674378Y-108389311D02*
X273713515Y-108290285D01*
X273713515Y-108290285D02*
X273705215Y-108195409D01*
X273705215Y-108195409D02*
X273649476Y-108104684D01*
X273649476Y-108104684D02*
X273597888Y-108061396D01*
X273597888Y-108061396D02*
X273498862Y-108022259D01*
X273498862Y-108022259D02*
X273304960Y-107991422D01*
X273304960Y-107991422D02*
X273205934Y-107952285D01*
X273205934Y-107952285D02*
X273154346Y-107908997D01*
X273154346Y-107908997D02*
X273098608Y-107818272D01*
X273098608Y-107818272D02*
X273090307Y-107723396D01*
X273090307Y-107723396D02*
X273129445Y-107624370D01*
X273129445Y-107624370D02*
X273172732Y-107572782D01*
X273172732Y-107572782D02*
X273263458Y-107517044D01*
X273263458Y-107517044D02*
X273500647Y-107496292D01*
X273500647Y-107496292D02*
X273647111Y-107531279D01*
X273975025Y-107454790D02*
X274591717Y-107400836D01*
X274591717Y-107400836D02*
X274292855Y-107809391D01*
X274292855Y-107809391D02*
X274435168Y-107796940D01*
X274435168Y-107796940D02*
X274534194Y-107836077D01*
X274534194Y-107836077D02*
X274585782Y-107879365D01*
X274585782Y-107879365D02*
X274641521Y-107970090D01*
X274641521Y-107970090D02*
X274662272Y-108207279D01*
X274662272Y-108207279D02*
X274623135Y-108306305D01*
X274623135Y-108306305D02*
X274579847Y-108357893D01*
X274579847Y-108357893D02*
X274489122Y-108413632D01*
X274489122Y-108413632D02*
X274204495Y-108438533D01*
X274204495Y-108438533D02*
X274105469Y-108399396D01*
X274105469Y-108399396D02*
X274053881Y-108356109D01*
X275153252Y-108355528D02*
X275343003Y-108338927D01*
X275343003Y-108338927D02*
X275433728Y-108283188D01*
X275433728Y-108283188D02*
X275477016Y-108231600D01*
X275477016Y-108231600D02*
X275559441Y-108080986D01*
X275559441Y-108080986D02*
X275590278Y-107887085D01*
X275590278Y-107887085D02*
X275557075Y-107507582D01*
X275557075Y-107507582D02*
X275501337Y-107416856D01*
X275501337Y-107416856D02*
X275449749Y-107373569D01*
X275449749Y-107373569D02*
X275350723Y-107334432D01*
X275350723Y-107334432D02*
X275160972Y-107351033D01*
X275160972Y-107351033D02*
X275070246Y-107406771D01*
X275070246Y-107406771D02*
X275026959Y-107458359D01*
X275026959Y-107458359D02*
X274987821Y-107557385D01*
X274987821Y-107557385D02*
X275008573Y-107794574D01*
X275008573Y-107794574D02*
X275064311Y-107885300D01*
X275064311Y-107885300D02*
X275115899Y-107928587D01*
X275115899Y-107928587D02*
X275214925Y-107967725D01*
X275214925Y-107967725D02*
X275404676Y-107951124D01*
X275404676Y-107951124D02*
X275495402Y-107895385D01*
X275495402Y-107895385D02*
X275538689Y-107843797D01*
X275538689Y-107843797D02*
X275577827Y-107744771D01*
X117946262Y-69206763D02*
X118084425Y-69266652D01*
X118084425Y-69266652D02*
X118321614Y-69287403D01*
X118321614Y-69287403D02*
X118420640Y-69248266D01*
X118420640Y-69248266D02*
X118472228Y-69204978D01*
X118472228Y-69204978D02*
X118527967Y-69114253D01*
X118527967Y-69114253D02*
X118536267Y-69019377D01*
X118536267Y-69019377D02*
X118497130Y-68920351D01*
X118497130Y-68920351D02*
X118453842Y-68868763D01*
X118453842Y-68868763D02*
X118363117Y-68813025D01*
X118363117Y-68813025D02*
X118177516Y-68748986D01*
X118177516Y-68748986D02*
X118086791Y-68693248D01*
X118086791Y-68693248D02*
X118043503Y-68641659D01*
X118043503Y-68641659D02*
X118004366Y-68542634D01*
X118004366Y-68542634D02*
X118012666Y-68447758D01*
X118012666Y-68447758D02*
X118068405Y-68357032D01*
X118068405Y-68357032D02*
X118119993Y-68313745D01*
X118119993Y-68313745D02*
X118219019Y-68274608D01*
X118219019Y-68274608D02*
X118456208Y-68295359D01*
X118456208Y-68295359D02*
X118594371Y-68355248D01*
X118985744Y-69345507D02*
X119175496Y-69362108D01*
X119175496Y-69362108D02*
X119274521Y-69322971D01*
X119274521Y-69322971D02*
X119326110Y-69279683D01*
X119326110Y-69279683D02*
X119433436Y-69145670D01*
X119433436Y-69145670D02*
X119497475Y-68960069D01*
X119497475Y-68960069D02*
X119530677Y-68580567D01*
X119530677Y-68580567D02*
X119491540Y-68481541D01*
X119491540Y-68481541D02*
X119448252Y-68429953D01*
X119448252Y-68429953D02*
X119357527Y-68374214D01*
X119357527Y-68374214D02*
X119167776Y-68357613D01*
X119167776Y-68357613D02*
X119068750Y-68396750D01*
X119068750Y-68396750D02*
X119017161Y-68440038D01*
X119017161Y-68440038D02*
X118961423Y-68530763D01*
X118961423Y-68530763D02*
X118940672Y-68767953D01*
X118940672Y-68767953D02*
X118979809Y-68866978D01*
X118979809Y-68866978D02*
X119023097Y-68918567D01*
X119023097Y-68918567D02*
X119113822Y-68974305D01*
X119113822Y-68974305D02*
X119303573Y-68990906D01*
X119303573Y-68990906D02*
X119402599Y-68951769D01*
X119402599Y-68951769D02*
X119454187Y-68908481D01*
X119454187Y-68908481D02*
X119509926Y-68817756D01*
X79659176Y-69681632D02*
X79797339Y-69741521D01*
X79797339Y-69741521D02*
X80034528Y-69762272D01*
X80034528Y-69762272D02*
X80133554Y-69723135D01*
X80133554Y-69723135D02*
X80185142Y-69679847D01*
X80185142Y-69679847D02*
X80240881Y-69589122D01*
X80240881Y-69589122D02*
X80249181Y-69494246D01*
X80249181Y-69494246D02*
X80210044Y-69395220D01*
X80210044Y-69395220D02*
X80166756Y-69343632D01*
X80166756Y-69343632D02*
X80076031Y-69287894D01*
X80076031Y-69287894D02*
X79890430Y-69223855D01*
X79890430Y-69223855D02*
X79799705Y-69168117D01*
X79799705Y-69168117D02*
X79756417Y-69116528D01*
X79756417Y-69116528D02*
X79717280Y-69017503D01*
X79717280Y-69017503D02*
X79725580Y-68922627D01*
X79725580Y-68922627D02*
X79781319Y-68831901D01*
X79781319Y-68831901D02*
X79832907Y-68788614D01*
X79832907Y-68788614D02*
X79931933Y-68749477D01*
X79931933Y-68749477D02*
X80169122Y-68770228D01*
X80169122Y-68770228D02*
X80307285Y-68830117D01*
X81173037Y-69861879D02*
X80603782Y-69812076D01*
X80888410Y-69836977D02*
X80975565Y-68840783D01*
X80975565Y-68840783D02*
X80868239Y-68974796D01*
X80868239Y-68974796D02*
X80765063Y-69061371D01*
X80765063Y-69061371D02*
X80666037Y-69100508D01*
X271496390Y-89504897D02*
X271642854Y-89539884D01*
X271642854Y-89539884D02*
X271880043Y-89519132D01*
X271880043Y-89519132D02*
X271970768Y-89463394D01*
X271970768Y-89463394D02*
X272014056Y-89411806D01*
X272014056Y-89411806D02*
X272053193Y-89312780D01*
X272053193Y-89312780D02*
X272044893Y-89217904D01*
X272044893Y-89217904D02*
X271989154Y-89127179D01*
X271989154Y-89127179D02*
X271937566Y-89083891D01*
X271937566Y-89083891D02*
X271838540Y-89044754D01*
X271838540Y-89044754D02*
X271644638Y-89013917D01*
X271644638Y-89013917D02*
X271545612Y-88974780D01*
X271545612Y-88974780D02*
X271494024Y-88931492D01*
X271494024Y-88931492D02*
X271438286Y-88840767D01*
X271438286Y-88840767D02*
X271429985Y-88745891D01*
X271429985Y-88745891D02*
X271469123Y-88646865D01*
X271469123Y-88646865D02*
X271512410Y-88595277D01*
X271512410Y-88595277D02*
X271603136Y-88539539D01*
X271603136Y-88539539D02*
X271840325Y-88518787D01*
X271840325Y-88518787D02*
X271986789Y-88553774D01*
X272314703Y-88477285D02*
X272931395Y-88423331D01*
X272931395Y-88423331D02*
X272632533Y-88831886D01*
X272632533Y-88831886D02*
X272774846Y-88819435D01*
X272774846Y-88819435D02*
X272873872Y-88858572D01*
X272873872Y-88858572D02*
X272925460Y-88901860D01*
X272925460Y-88901860D02*
X272981199Y-88992585D01*
X272981199Y-88992585D02*
X273001950Y-89229774D01*
X273001950Y-89229774D02*
X272962813Y-89328800D01*
X272962813Y-89328800D02*
X272919525Y-89380388D01*
X272919525Y-89380388D02*
X272828800Y-89436127D01*
X272828800Y-89436127D02*
X272544173Y-89461028D01*
X272544173Y-89461028D02*
X272445147Y-89421891D01*
X272445147Y-89421891D02*
X272393559Y-89378604D01*
X273538002Y-88800468D02*
X273438976Y-88761331D01*
X273438976Y-88761331D02*
X273387388Y-88718043D01*
X273387388Y-88718043D02*
X273331650Y-88627318D01*
X273331650Y-88627318D02*
X273327499Y-88579880D01*
X273327499Y-88579880D02*
X273366637Y-88480854D01*
X273366637Y-88480854D02*
X273409924Y-88429266D01*
X273409924Y-88429266D02*
X273500650Y-88373528D01*
X273500650Y-88373528D02*
X273690401Y-88356927D01*
X273690401Y-88356927D02*
X273789427Y-88396064D01*
X273789427Y-88396064D02*
X273841015Y-88439351D01*
X273841015Y-88439351D02*
X273896753Y-88530077D01*
X273896753Y-88530077D02*
X273900904Y-88577515D01*
X273900904Y-88577515D02*
X273861766Y-88676541D01*
X273861766Y-88676541D02*
X273818479Y-88728129D01*
X273818479Y-88728129D02*
X273727753Y-88783867D01*
X273727753Y-88783867D02*
X273538002Y-88800468D01*
X273538002Y-88800468D02*
X273447277Y-88856207D01*
X273447277Y-88856207D02*
X273403989Y-88907795D01*
X273403989Y-88907795D02*
X273364852Y-89006821D01*
X273364852Y-89006821D02*
X273381453Y-89196572D01*
X273381453Y-89196572D02*
X273437191Y-89287298D01*
X273437191Y-89287298D02*
X273488779Y-89330585D01*
X273488779Y-89330585D02*
X273587805Y-89369722D01*
X273587805Y-89369722D02*
X273777557Y-89353121D01*
X273777557Y-89353121D02*
X273868282Y-89297383D01*
X273868282Y-89297383D02*
X273911570Y-89245795D01*
X273911570Y-89245795D02*
X273950707Y-89146769D01*
X273950707Y-89146769D02*
X273934106Y-88957017D01*
X273934106Y-88957017D02*
X273878367Y-88866292D01*
X273878367Y-88866292D02*
X273826779Y-88823004D01*
X273826779Y-88823004D02*
X273727753Y-88783867D01*
X254068513Y-108877559D02*
X254214977Y-108912546D01*
X254214977Y-108912546D02*
X254452166Y-108891794D01*
X254452166Y-108891794D02*
X254542891Y-108836056D01*
X254542891Y-108836056D02*
X254586179Y-108784468D01*
X254586179Y-108784468D02*
X254625316Y-108685442D01*
X254625316Y-108685442D02*
X254617016Y-108590566D01*
X254617016Y-108590566D02*
X254561277Y-108499841D01*
X254561277Y-108499841D02*
X254509689Y-108456553D01*
X254509689Y-108456553D02*
X254410663Y-108417416D01*
X254410663Y-108417416D02*
X254216761Y-108386579D01*
X254216761Y-108386579D02*
X254117735Y-108347442D01*
X254117735Y-108347442D02*
X254066147Y-108304154D01*
X254066147Y-108304154D02*
X254010409Y-108213429D01*
X254010409Y-108213429D02*
X254002108Y-108118553D01*
X254002108Y-108118553D02*
X254041246Y-108019527D01*
X254041246Y-108019527D02*
X254084533Y-107967939D01*
X254084533Y-107967939D02*
X254175259Y-107912201D01*
X254175259Y-107912201D02*
X254412448Y-107891449D01*
X254412448Y-107891449D02*
X254558912Y-107926436D01*
X254886826Y-107849947D02*
X255503518Y-107795993D01*
X255503518Y-107795993D02*
X255204656Y-108204548D01*
X255204656Y-108204548D02*
X255346969Y-108192097D01*
X255346969Y-108192097D02*
X255445995Y-108231234D01*
X255445995Y-108231234D02*
X255497583Y-108274522D01*
X255497583Y-108274522D02*
X255553322Y-108365247D01*
X255553322Y-108365247D02*
X255574073Y-108602436D01*
X255574073Y-108602436D02*
X255534936Y-108701462D01*
X255534936Y-108701462D02*
X255491648Y-108753050D01*
X255491648Y-108753050D02*
X255400923Y-108808789D01*
X255400923Y-108808789D02*
X255116296Y-108833690D01*
X255116296Y-108833690D02*
X255017270Y-108794553D01*
X255017270Y-108794553D02*
X254965682Y-108751266D01*
X256404837Y-107717138D02*
X255930459Y-107758641D01*
X255930459Y-107758641D02*
X255924524Y-108237169D01*
X255924524Y-108237169D02*
X255967811Y-108185581D01*
X255967811Y-108185581D02*
X256058537Y-108129843D01*
X256058537Y-108129843D02*
X256295726Y-108109091D01*
X256295726Y-108109091D02*
X256394752Y-108148229D01*
X256394752Y-108148229D02*
X256446340Y-108191516D01*
X256446340Y-108191516D02*
X256502079Y-108282242D01*
X256502079Y-108282242D02*
X256522830Y-108519431D01*
X256522830Y-108519431D02*
X256483693Y-108618457D01*
X256483693Y-108618457D02*
X256440405Y-108670045D01*
X256440405Y-108670045D02*
X256349680Y-108725783D01*
X256349680Y-108725783D02*
X256112490Y-108746535D01*
X256112490Y-108746535D02*
X256013464Y-108707397D01*
X256013464Y-108707397D02*
X255961876Y-108664110D01*
X274817015Y-127459919D02*
X274963479Y-127494906D01*
X274963479Y-127494906D02*
X275200668Y-127474154D01*
X275200668Y-127474154D02*
X275291393Y-127418416D01*
X275291393Y-127418416D02*
X275334681Y-127366828D01*
X275334681Y-127366828D02*
X275373818Y-127267802D01*
X275373818Y-127267802D02*
X275365518Y-127172926D01*
X275365518Y-127172926D02*
X275309779Y-127082201D01*
X275309779Y-127082201D02*
X275258191Y-127038913D01*
X275258191Y-127038913D02*
X275159165Y-126999776D01*
X275159165Y-126999776D02*
X274965263Y-126968939D01*
X274965263Y-126968939D02*
X274866237Y-126929802D01*
X274866237Y-126929802D02*
X274814649Y-126886514D01*
X274814649Y-126886514D02*
X274758911Y-126795789D01*
X274758911Y-126795789D02*
X274750610Y-126700913D01*
X274750610Y-126700913D02*
X274789748Y-126601887D01*
X274789748Y-126601887D02*
X274833035Y-126550299D01*
X274833035Y-126550299D02*
X274923761Y-126494561D01*
X274923761Y-126494561D02*
X275160950Y-126473809D01*
X275160950Y-126473809D02*
X275307414Y-126508796D01*
X276186197Y-126718718D02*
X276244300Y-127382848D01*
X275915805Y-126359967D02*
X275740870Y-127092286D01*
X275740870Y-127092286D02*
X276357562Y-127038333D01*
X276868712Y-126324399D02*
X276963588Y-126316099D01*
X276963588Y-126316099D02*
X277062614Y-126355236D01*
X277062614Y-126355236D02*
X277114202Y-126398524D01*
X277114202Y-126398524D02*
X277169941Y-126489249D01*
X277169941Y-126489249D02*
X277233979Y-126674850D01*
X277233979Y-126674850D02*
X277254731Y-126912039D01*
X277254731Y-126912039D02*
X277223894Y-127105941D01*
X277223894Y-127105941D02*
X277184757Y-127204967D01*
X277184757Y-127204967D02*
X277141469Y-127256555D01*
X277141469Y-127256555D02*
X277050744Y-127312294D01*
X277050744Y-127312294D02*
X276955868Y-127320594D01*
X276955868Y-127320594D02*
X276856842Y-127281457D01*
X276856842Y-127281457D02*
X276805254Y-127238169D01*
X276805254Y-127238169D02*
X276749516Y-127147444D01*
X276749516Y-127147444D02*
X276685477Y-126961843D01*
X276685477Y-126961843D02*
X276664725Y-126724654D01*
X276664725Y-126724654D02*
X276695562Y-126530752D01*
X276695562Y-126530752D02*
X276734699Y-126431726D01*
X276734699Y-126431726D02*
X276777987Y-126380138D01*
X276777987Y-126380138D02*
X276868712Y-126324399D01*
X233818087Y-95988452D02*
X233964551Y-96023439D01*
X233964551Y-96023439D02*
X234201740Y-96002687D01*
X234201740Y-96002687D02*
X234292465Y-95946949D01*
X234292465Y-95946949D02*
X234335753Y-95895361D01*
X234335753Y-95895361D02*
X234374890Y-95796335D01*
X234374890Y-95796335D02*
X234366590Y-95701459D01*
X234366590Y-95701459D02*
X234310851Y-95610734D01*
X234310851Y-95610734D02*
X234259263Y-95567446D01*
X234259263Y-95567446D02*
X234160237Y-95528309D01*
X234160237Y-95528309D02*
X233966335Y-95497472D01*
X233966335Y-95497472D02*
X233867309Y-95458335D01*
X233867309Y-95458335D02*
X233815721Y-95415047D01*
X233815721Y-95415047D02*
X233759983Y-95324322D01*
X233759983Y-95324322D02*
X233751682Y-95229446D01*
X233751682Y-95229446D02*
X233790820Y-95130420D01*
X233790820Y-95130420D02*
X233834107Y-95078832D01*
X233834107Y-95078832D02*
X233924833Y-95023094D01*
X233924833Y-95023094D02*
X234162022Y-95002342D01*
X234162022Y-95002342D02*
X234308486Y-95037329D01*
X234636400Y-94960840D02*
X235253092Y-94906886D01*
X235253092Y-94906886D02*
X234954230Y-95315441D01*
X234954230Y-95315441D02*
X235096543Y-95302990D01*
X235096543Y-95302990D02*
X235195569Y-95342127D01*
X235195569Y-95342127D02*
X235247157Y-95385415D01*
X235247157Y-95385415D02*
X235302896Y-95476140D01*
X235302896Y-95476140D02*
X235323647Y-95713329D01*
X235323647Y-95713329D02*
X235284510Y-95812355D01*
X235284510Y-95812355D02*
X235241222Y-95863943D01*
X235241222Y-95863943D02*
X235150497Y-95919682D01*
X235150497Y-95919682D02*
X234865870Y-95944583D01*
X234865870Y-95944583D02*
X234766844Y-95905446D01*
X234766844Y-95905446D02*
X234715256Y-95862159D01*
X235869784Y-94852932D02*
X235964660Y-94844632D01*
X235964660Y-94844632D02*
X236063686Y-94883769D01*
X236063686Y-94883769D02*
X236115274Y-94927057D01*
X236115274Y-94927057D02*
X236171013Y-95017782D01*
X236171013Y-95017782D02*
X236235051Y-95203383D01*
X236235051Y-95203383D02*
X236255803Y-95440572D01*
X236255803Y-95440572D02*
X236224966Y-95634474D01*
X236224966Y-95634474D02*
X236185829Y-95733500D01*
X236185829Y-95733500D02*
X236142541Y-95785088D01*
X236142541Y-95785088D02*
X236051816Y-95840827D01*
X236051816Y-95840827D02*
X235956940Y-95849127D01*
X235956940Y-95849127D02*
X235857914Y-95809990D01*
X235857914Y-95809990D02*
X235806326Y-95766702D01*
X235806326Y-95766702D02*
X235750588Y-95675977D01*
X235750588Y-95675977D02*
X235686549Y-95490376D01*
X235686549Y-95490376D02*
X235665797Y-95253187D01*
X235665797Y-95253187D02*
X235696634Y-95059285D01*
X235696634Y-95059285D02*
X235735771Y-94960259D01*
X235735771Y-94960259D02*
X235779059Y-94908671D01*
X235779059Y-94908671D02*
X235869784Y-94852932D01*
X214840577Y-97648765D02*
X214987041Y-97683752D01*
X214987041Y-97683752D02*
X215224230Y-97663000D01*
X215224230Y-97663000D02*
X215314955Y-97607262D01*
X215314955Y-97607262D02*
X215358243Y-97555674D01*
X215358243Y-97555674D02*
X215397380Y-97456648D01*
X215397380Y-97456648D02*
X215389080Y-97361772D01*
X215389080Y-97361772D02*
X215333341Y-97271047D01*
X215333341Y-97271047D02*
X215281753Y-97227759D01*
X215281753Y-97227759D02*
X215182727Y-97188622D01*
X215182727Y-97188622D02*
X214988825Y-97157785D01*
X214988825Y-97157785D02*
X214889799Y-97118648D01*
X214889799Y-97118648D02*
X214838211Y-97075360D01*
X214838211Y-97075360D02*
X214782473Y-96984635D01*
X214782473Y-96984635D02*
X214774172Y-96889759D01*
X214774172Y-96889759D02*
X214813310Y-96790733D01*
X214813310Y-96790733D02*
X214856597Y-96739145D01*
X214856597Y-96739145D02*
X214947323Y-96683407D01*
X214947323Y-96683407D02*
X215184512Y-96662655D01*
X215184512Y-96662655D02*
X215330976Y-96697642D01*
X215714629Y-96711878D02*
X215757916Y-96660290D01*
X215757916Y-96660290D02*
X215848642Y-96604551D01*
X215848642Y-96604551D02*
X216085831Y-96583800D01*
X216085831Y-96583800D02*
X216184857Y-96622937D01*
X216184857Y-96622937D02*
X216236445Y-96666225D01*
X216236445Y-96666225D02*
X216292183Y-96756950D01*
X216292183Y-96756950D02*
X216300484Y-96851826D01*
X216300484Y-96851826D02*
X216265497Y-96998290D01*
X216265497Y-96998290D02*
X215746046Y-97617347D01*
X215746046Y-97617347D02*
X216362738Y-97563394D01*
X217129464Y-96492494D02*
X216939712Y-96509095D01*
X216939712Y-96509095D02*
X216848987Y-96564834D01*
X216848987Y-96564834D02*
X216805699Y-96616422D01*
X216805699Y-96616422D02*
X216723274Y-96767036D01*
X216723274Y-96767036D02*
X216692438Y-96960937D01*
X216692438Y-96960937D02*
X216725640Y-97340440D01*
X216725640Y-97340440D02*
X216781378Y-97431166D01*
X216781378Y-97431166D02*
X216832966Y-97474453D01*
X216832966Y-97474453D02*
X216931992Y-97513590D01*
X216931992Y-97513590D02*
X217121744Y-97496989D01*
X217121744Y-97496989D02*
X217212469Y-97441251D01*
X217212469Y-97441251D02*
X217255757Y-97389663D01*
X217255757Y-97389663D02*
X217294894Y-97290637D01*
X217294894Y-97290637D02*
X217274143Y-97053448D01*
X217274143Y-97053448D02*
X217218404Y-96962722D01*
X217218404Y-96962722D02*
X217166816Y-96919435D01*
X217166816Y-96919435D02*
X217067790Y-96880297D01*
X217067790Y-96880297D02*
X216878039Y-96896898D01*
X216878039Y-96896898D02*
X216787313Y-96952637D01*
X216787313Y-96952637D02*
X216744026Y-97004225D01*
X216744026Y-97004225D02*
X216704888Y-97103251D01*
X232157771Y-77010945D02*
X232304235Y-77045932D01*
X232304235Y-77045932D02*
X232541424Y-77025180D01*
X232541424Y-77025180D02*
X232632149Y-76969442D01*
X232632149Y-76969442D02*
X232675437Y-76917854D01*
X232675437Y-76917854D02*
X232714574Y-76818828D01*
X232714574Y-76818828D02*
X232706274Y-76723952D01*
X232706274Y-76723952D02*
X232650535Y-76633227D01*
X232650535Y-76633227D02*
X232598947Y-76589939D01*
X232598947Y-76589939D02*
X232499921Y-76550802D01*
X232499921Y-76550802D02*
X232306019Y-76519965D01*
X232306019Y-76519965D02*
X232206993Y-76480828D01*
X232206993Y-76480828D02*
X232155405Y-76437540D01*
X232155405Y-76437540D02*
X232099667Y-76346815D01*
X232099667Y-76346815D02*
X232091366Y-76251939D01*
X232091366Y-76251939D02*
X232130504Y-76152913D01*
X232130504Y-76152913D02*
X232173791Y-76101325D01*
X232173791Y-76101325D02*
X232264517Y-76045587D01*
X232264517Y-76045587D02*
X232501706Y-76024835D01*
X232501706Y-76024835D02*
X232648170Y-76059822D01*
X233031823Y-76074058D02*
X233075110Y-76022470D01*
X233075110Y-76022470D02*
X233165836Y-75966731D01*
X233165836Y-75966731D02*
X233403025Y-75945980D01*
X233403025Y-75945980D02*
X233502051Y-75985117D01*
X233502051Y-75985117D02*
X233553639Y-76028405D01*
X233553639Y-76028405D02*
X233609377Y-76119130D01*
X233609377Y-76119130D02*
X233617678Y-76214006D01*
X233617678Y-76214006D02*
X233582691Y-76360470D01*
X233582691Y-76360470D02*
X233063240Y-76979527D01*
X233063240Y-76979527D02*
X233679932Y-76925574D01*
X234154311Y-76884071D02*
X234344062Y-76867470D01*
X234344062Y-76867470D02*
X234434787Y-76811731D01*
X234434787Y-76811731D02*
X234478075Y-76760143D01*
X234478075Y-76760143D02*
X234560500Y-76609529D01*
X234560500Y-76609529D02*
X234591337Y-76415628D01*
X234591337Y-76415628D02*
X234558134Y-76036125D01*
X234558134Y-76036125D02*
X234502396Y-75945399D01*
X234502396Y-75945399D02*
X234450808Y-75902112D01*
X234450808Y-75902112D02*
X234351782Y-75862975D01*
X234351782Y-75862975D02*
X234162031Y-75879576D01*
X234162031Y-75879576D02*
X234071305Y-75935314D01*
X234071305Y-75935314D02*
X234028018Y-75986902D01*
X234028018Y-75986902D02*
X233988880Y-76085928D01*
X233988880Y-76085928D02*
X234009632Y-76323117D01*
X234009632Y-76323117D02*
X234065370Y-76413843D01*
X234065370Y-76413843D02*
X234116958Y-76457130D01*
X234116958Y-76457130D02*
X234215984Y-76496268D01*
X234215984Y-76496268D02*
X234405735Y-76479667D01*
X234405735Y-76479667D02*
X234496461Y-76423928D01*
X234496461Y-76423928D02*
X234539748Y-76372340D01*
X234539748Y-76372340D02*
X234578886Y-76273314D01*
X269836067Y-70527395D02*
X269982531Y-70562382D01*
X269982531Y-70562382D02*
X270219720Y-70541630D01*
X270219720Y-70541630D02*
X270310445Y-70485892D01*
X270310445Y-70485892D02*
X270353733Y-70434304D01*
X270353733Y-70434304D02*
X270392870Y-70335278D01*
X270392870Y-70335278D02*
X270384570Y-70240402D01*
X270384570Y-70240402D02*
X270328831Y-70149677D01*
X270328831Y-70149677D02*
X270277243Y-70106389D01*
X270277243Y-70106389D02*
X270178217Y-70067252D01*
X270178217Y-70067252D02*
X269984315Y-70036415D01*
X269984315Y-70036415D02*
X269885289Y-69997278D01*
X269885289Y-69997278D02*
X269833701Y-69953990D01*
X269833701Y-69953990D02*
X269777963Y-69863265D01*
X269777963Y-69863265D02*
X269769662Y-69768389D01*
X269769662Y-69768389D02*
X269808800Y-69669363D01*
X269808800Y-69669363D02*
X269852087Y-69617775D01*
X269852087Y-69617775D02*
X269942813Y-69562037D01*
X269942813Y-69562037D02*
X270180002Y-69541285D01*
X270180002Y-69541285D02*
X270326466Y-69576272D01*
X270654380Y-69499783D02*
X271271072Y-69445829D01*
X271271072Y-69445829D02*
X270972210Y-69854384D01*
X270972210Y-69854384D02*
X271114523Y-69841933D01*
X271114523Y-69841933D02*
X271213549Y-69881070D01*
X271213549Y-69881070D02*
X271265137Y-69924358D01*
X271265137Y-69924358D02*
X271320876Y-70015083D01*
X271320876Y-70015083D02*
X271341627Y-70252272D01*
X271341627Y-70252272D02*
X271302490Y-70351298D01*
X271302490Y-70351298D02*
X271259202Y-70402886D01*
X271259202Y-70402886D02*
X271168477Y-70458625D01*
X271168477Y-70458625D02*
X270883850Y-70483526D01*
X270883850Y-70483526D02*
X270784824Y-70444389D01*
X270784824Y-70444389D02*
X270733236Y-70401102D01*
X271603137Y-69416777D02*
X272267267Y-69358673D01*
X272267267Y-69358673D02*
X271927482Y-70392220D01*
X216500889Y-116626276D02*
X216647353Y-116661263D01*
X216647353Y-116661263D02*
X216884542Y-116640511D01*
X216884542Y-116640511D02*
X216975267Y-116584773D01*
X216975267Y-116584773D02*
X217018555Y-116533185D01*
X217018555Y-116533185D02*
X217057692Y-116434159D01*
X217057692Y-116434159D02*
X217049392Y-116339283D01*
X217049392Y-116339283D02*
X216993653Y-116248558D01*
X216993653Y-116248558D02*
X216942065Y-116205270D01*
X216942065Y-116205270D02*
X216843039Y-116166133D01*
X216843039Y-116166133D02*
X216649137Y-116135296D01*
X216649137Y-116135296D02*
X216550111Y-116096159D01*
X216550111Y-116096159D02*
X216498523Y-116052871D01*
X216498523Y-116052871D02*
X216442785Y-115962146D01*
X216442785Y-115962146D02*
X216434484Y-115867270D01*
X216434484Y-115867270D02*
X216473622Y-115768244D01*
X216473622Y-115768244D02*
X216516909Y-115716656D01*
X216516909Y-115716656D02*
X216607635Y-115660918D01*
X216607635Y-115660918D02*
X216844824Y-115640166D01*
X216844824Y-115640166D02*
X216991288Y-115675153D01*
X217374941Y-115689389D02*
X217418228Y-115637801D01*
X217418228Y-115637801D02*
X217508954Y-115582062D01*
X217508954Y-115582062D02*
X217746143Y-115561311D01*
X217746143Y-115561311D02*
X217845169Y-115600448D01*
X217845169Y-115600448D02*
X217896757Y-115643736D01*
X217896757Y-115643736D02*
X217952495Y-115734461D01*
X217952495Y-115734461D02*
X217960796Y-115829337D01*
X217960796Y-115829337D02*
X217925809Y-115975801D01*
X217925809Y-115975801D02*
X217406358Y-116594858D01*
X217406358Y-116594858D02*
X218023050Y-116540905D01*
X218267959Y-115515658D02*
X218932089Y-115457554D01*
X218932089Y-115457554D02*
X218592304Y-116491101D01*
X132053923Y-126529682D02*
X132192086Y-126589571D01*
X132192086Y-126589571D02*
X132429275Y-126610322D01*
X132429275Y-126610322D02*
X132528301Y-126571185D01*
X132528301Y-126571185D02*
X132579889Y-126527897D01*
X132579889Y-126527897D02*
X132635628Y-126437172D01*
X132635628Y-126437172D02*
X132643928Y-126342296D01*
X132643928Y-126342296D02*
X132604791Y-126243270D01*
X132604791Y-126243270D02*
X132561503Y-126191682D01*
X132561503Y-126191682D02*
X132470778Y-126135944D01*
X132470778Y-126135944D02*
X132285177Y-126071905D01*
X132285177Y-126071905D02*
X132194452Y-126016167D01*
X132194452Y-126016167D02*
X132151164Y-125964578D01*
X132151164Y-125964578D02*
X132112027Y-125865553D01*
X132112027Y-125865553D02*
X132120327Y-125770677D01*
X132120327Y-125770677D02*
X132176066Y-125679951D01*
X132176066Y-125679951D02*
X132227654Y-125636664D01*
X132227654Y-125636664D02*
X132326680Y-125597527D01*
X132326680Y-125597527D02*
X132563869Y-125618278D01*
X132563869Y-125618278D02*
X132702032Y-125678167D01*
X133567784Y-126709929D02*
X132998529Y-126660126D01*
X133283157Y-126685027D02*
X133370312Y-125688833D01*
X133370312Y-125688833D02*
X133262986Y-125822846D01*
X133262986Y-125822846D02*
X133159810Y-125909421D01*
X133159810Y-125909421D02*
X133060784Y-125948558D01*
X134508821Y-125788439D02*
X134319069Y-125771838D01*
X134319069Y-125771838D02*
X134220043Y-125810975D01*
X134220043Y-125810975D02*
X134168455Y-125854263D01*
X134168455Y-125854263D02*
X134061129Y-125988276D01*
X134061129Y-125988276D02*
X133997090Y-126173877D01*
X133997090Y-126173877D02*
X133963887Y-126553380D01*
X133963887Y-126553380D02*
X134003025Y-126652406D01*
X134003025Y-126652406D02*
X134046312Y-126703994D01*
X134046312Y-126703994D02*
X134137038Y-126759732D01*
X134137038Y-126759732D02*
X134326789Y-126776333D01*
X134326789Y-126776333D02*
X134425815Y-126737196D01*
X134425815Y-126737196D02*
X134477403Y-126693908D01*
X134477403Y-126693908D02*
X134533142Y-126603183D01*
X134533142Y-126603183D02*
X134553893Y-126365994D01*
X134553893Y-126365994D02*
X134514756Y-126266968D01*
X134514756Y-126266968D02*
X134471468Y-126215380D01*
X134471468Y-126215380D02*
X134380743Y-126159641D01*
X134380743Y-126159641D02*
X134190991Y-126143040D01*
X134190991Y-126143040D02*
X134091965Y-126182178D01*
X134091965Y-126182178D02*
X134040377Y-126225465D01*
X134040377Y-126225465D02*
X133984639Y-126316191D01*
X135374558Y-88574675D02*
X135512721Y-88634564D01*
X135512721Y-88634564D02*
X135749910Y-88655315D01*
X135749910Y-88655315D02*
X135848936Y-88616178D01*
X135848936Y-88616178D02*
X135900524Y-88572890D01*
X135900524Y-88572890D02*
X135956263Y-88482165D01*
X135956263Y-88482165D02*
X135964563Y-88387289D01*
X135964563Y-88387289D02*
X135925426Y-88288263D01*
X135925426Y-88288263D02*
X135882138Y-88236675D01*
X135882138Y-88236675D02*
X135791413Y-88180937D01*
X135791413Y-88180937D02*
X135605812Y-88116898D01*
X135605812Y-88116898D02*
X135515087Y-88061160D01*
X135515087Y-88061160D02*
X135471799Y-88009571D01*
X135471799Y-88009571D02*
X135432662Y-87910546D01*
X135432662Y-87910546D02*
X135440962Y-87815670D01*
X135440962Y-87815670D02*
X135496701Y-87724944D01*
X135496701Y-87724944D02*
X135548289Y-87681657D01*
X135548289Y-87681657D02*
X135647315Y-87642520D01*
X135647315Y-87642520D02*
X135884504Y-87663271D01*
X135884504Y-87663271D02*
X136022667Y-87723160D01*
X136888419Y-88754922D02*
X136319164Y-88705119D01*
X136603792Y-88730020D02*
X136690947Y-87733826D01*
X136690947Y-87733826D02*
X136583621Y-87867839D01*
X136583621Y-87867839D02*
X136480445Y-87954414D01*
X136480445Y-87954414D02*
X136381419Y-87993551D01*
X137800404Y-88165497D02*
X137742300Y-88829627D01*
X137596417Y-87765243D02*
X137296973Y-88456059D01*
X137296973Y-88456059D02*
X137913665Y-88510013D01*
X174602078Y-77350631D02*
X174740241Y-77410520D01*
X174740241Y-77410520D02*
X174977430Y-77431271D01*
X174977430Y-77431271D02*
X175076456Y-77392134D01*
X175076456Y-77392134D02*
X175128044Y-77348846D01*
X175128044Y-77348846D02*
X175183783Y-77258121D01*
X175183783Y-77258121D02*
X175192083Y-77163245D01*
X175192083Y-77163245D02*
X175152946Y-77064219D01*
X175152946Y-77064219D02*
X175109658Y-77012631D01*
X175109658Y-77012631D02*
X175018933Y-76956893D01*
X175018933Y-76956893D02*
X174833332Y-76892854D01*
X174833332Y-76892854D02*
X174742607Y-76837116D01*
X174742607Y-76837116D02*
X174699319Y-76785527D01*
X174699319Y-76785527D02*
X174660182Y-76686502D01*
X174660182Y-76686502D02*
X174668482Y-76591626D01*
X174668482Y-76591626D02*
X174724221Y-76500900D01*
X174724221Y-76500900D02*
X174775809Y-76457613D01*
X174775809Y-76457613D02*
X174874835Y-76418476D01*
X174874835Y-76418476D02*
X175112024Y-76439227D01*
X175112024Y-76439227D02*
X175250187Y-76499116D01*
X175625540Y-76579756D02*
X175677128Y-76536468D01*
X175677128Y-76536468D02*
X175776154Y-76497331D01*
X175776154Y-76497331D02*
X176013343Y-76518082D01*
X176013343Y-76518082D02*
X176104068Y-76573821D01*
X176104068Y-76573821D02*
X176147356Y-76625409D01*
X176147356Y-76625409D02*
X176186493Y-76724435D01*
X176186493Y-76724435D02*
X176178193Y-76819310D01*
X176178193Y-76819310D02*
X176118304Y-76957474D01*
X176118304Y-76957474D02*
X175499247Y-77476924D01*
X175499247Y-77476924D02*
X176115939Y-77530878D01*
X177064695Y-77613883D02*
X176495441Y-77564080D01*
X176780068Y-77588982D02*
X176867224Y-76592787D01*
X176867224Y-76592787D02*
X176759898Y-76726800D01*
X176759898Y-76726800D02*
X176656721Y-76813375D01*
X176656721Y-76813375D02*
X176557695Y-76852512D01*
X311443779Y-108957270D02*
X311590243Y-108992257D01*
X311590243Y-108992257D02*
X311827432Y-108971505D01*
X311827432Y-108971505D02*
X311918157Y-108915767D01*
X311918157Y-108915767D02*
X311961445Y-108864179D01*
X311961445Y-108864179D02*
X312000582Y-108765153D01*
X312000582Y-108765153D02*
X311992282Y-108670277D01*
X311992282Y-108670277D02*
X311936543Y-108579552D01*
X311936543Y-108579552D02*
X311884955Y-108536264D01*
X311884955Y-108536264D02*
X311785929Y-108497127D01*
X311785929Y-108497127D02*
X311592027Y-108466290D01*
X311592027Y-108466290D02*
X311493001Y-108427153D01*
X311493001Y-108427153D02*
X311441413Y-108383865D01*
X311441413Y-108383865D02*
X311385675Y-108293140D01*
X311385675Y-108293140D02*
X311377374Y-108198264D01*
X311377374Y-108198264D02*
X311416512Y-108099238D01*
X311416512Y-108099238D02*
X311459799Y-108047650D01*
X311459799Y-108047650D02*
X311550525Y-107991912D01*
X311550525Y-107991912D02*
X311787714Y-107971160D01*
X311787714Y-107971160D02*
X311934178Y-108006147D01*
X312812961Y-108216069D02*
X312871064Y-108880199D01*
X312542569Y-107857318D02*
X312367634Y-108589637D01*
X312367634Y-108589637D02*
X312984326Y-108535684D01*
X313210849Y-107846652D02*
X313874979Y-107788548D01*
X313874979Y-107788548D02*
X313535194Y-108822095D01*
X132130436Y-150770201D02*
X132268599Y-150830090D01*
X132268599Y-150830090D02*
X132505788Y-150850841D01*
X132505788Y-150850841D02*
X132604814Y-150811704D01*
X132604814Y-150811704D02*
X132656402Y-150768416D01*
X132656402Y-150768416D02*
X132712141Y-150677691D01*
X132712141Y-150677691D02*
X132720441Y-150582815D01*
X132720441Y-150582815D02*
X132681304Y-150483789D01*
X132681304Y-150483789D02*
X132638016Y-150432201D01*
X132638016Y-150432201D02*
X132547291Y-150376463D01*
X132547291Y-150376463D02*
X132361690Y-150312424D01*
X132361690Y-150312424D02*
X132270965Y-150256686D01*
X132270965Y-150256686D02*
X132227677Y-150205097D01*
X132227677Y-150205097D02*
X132188540Y-150106072D01*
X132188540Y-150106072D02*
X132196840Y-150011196D01*
X132196840Y-150011196D02*
X132252579Y-149920470D01*
X132252579Y-149920470D02*
X132304167Y-149877183D01*
X132304167Y-149877183D02*
X132403193Y-149838046D01*
X132403193Y-149838046D02*
X132640382Y-149858797D01*
X132640382Y-149858797D02*
X132778545Y-149918686D01*
X133684014Y-149950103D02*
X133209636Y-149908600D01*
X133209636Y-149908600D02*
X133120695Y-150378828D01*
X133120695Y-150378828D02*
X133172284Y-150335541D01*
X133172284Y-150335541D02*
X133271310Y-150296404D01*
X133271310Y-150296404D02*
X133508499Y-150317155D01*
X133508499Y-150317155D02*
X133599224Y-150372893D01*
X133599224Y-150372893D02*
X133642512Y-150424481D01*
X133642512Y-150424481D02*
X133681649Y-150523507D01*
X133681649Y-150523507D02*
X133660898Y-150760697D01*
X133660898Y-150760697D02*
X133605159Y-150851422D01*
X133605159Y-150851422D02*
X133553571Y-150894710D01*
X133553571Y-150894710D02*
X133454545Y-150933847D01*
X133454545Y-150933847D02*
X133217356Y-150913095D01*
X133217356Y-150913095D02*
X133126631Y-150857357D01*
X133126631Y-150857357D02*
X133083343Y-150805769D01*
X134348144Y-150008207D02*
X134443020Y-150016507D01*
X134443020Y-150016507D02*
X134533745Y-150072246D01*
X134533745Y-150072246D02*
X134577033Y-150123834D01*
X134577033Y-150123834D02*
X134616170Y-150222860D01*
X134616170Y-150222860D02*
X134647007Y-150416761D01*
X134647007Y-150416761D02*
X134626256Y-150653951D01*
X134626256Y-150653951D02*
X134562217Y-150839552D01*
X134562217Y-150839552D02*
X134506478Y-150930277D01*
X134506478Y-150930277D02*
X134454890Y-150973565D01*
X134454890Y-150973565D02*
X134355864Y-151012702D01*
X134355864Y-151012702D02*
X134260989Y-151004401D01*
X134260989Y-151004401D02*
X134170263Y-150948663D01*
X134170263Y-150948663D02*
X134126976Y-150897075D01*
X134126976Y-150897075D02*
X134087838Y-150798049D01*
X134087838Y-150798049D02*
X134057002Y-150604147D01*
X134057002Y-150604147D02*
X134077753Y-150366958D01*
X134077753Y-150366958D02*
X134141792Y-150181357D01*
X134141792Y-150181357D02*
X134197530Y-150090632D01*
X134197530Y-150090632D02*
X134249118Y-150047344D01*
X134249118Y-150047344D02*
X134348144Y-150008207D01*
X235816634Y-156574071D02*
X235966948Y-156583094D01*
X235966948Y-156583094D02*
X236196931Y-156521470D01*
X236196931Y-156521470D02*
X236276599Y-156450824D01*
X236276599Y-156450824D02*
X236310271Y-156392503D01*
X236310271Y-156392503D02*
X236331618Y-156288185D01*
X236331618Y-156288185D02*
X236306968Y-156196192D01*
X236306968Y-156196192D02*
X236236322Y-156116524D01*
X236236322Y-156116524D02*
X236178001Y-156082852D01*
X236178001Y-156082852D02*
X236073683Y-156061505D01*
X236073683Y-156061505D02*
X235877373Y-156064808D01*
X235877373Y-156064808D02*
X235773055Y-156043461D01*
X235773055Y-156043461D02*
X235714734Y-156009789D01*
X235714734Y-156009789D02*
X235644088Y-155930121D01*
X235644088Y-155930121D02*
X235619439Y-155838128D01*
X235619439Y-155838128D02*
X235640786Y-155733810D01*
X235640786Y-155733810D02*
X235674457Y-155675489D01*
X235674457Y-155675489D02*
X235754126Y-155604843D01*
X235754126Y-155604843D02*
X235984108Y-155543219D01*
X235984108Y-155543219D02*
X236134422Y-155552242D01*
X236996030Y-155272076D02*
X236536066Y-155395323D01*
X236536066Y-155395323D02*
X236613316Y-155867612D01*
X236613316Y-155867612D02*
X236646988Y-155809291D01*
X236646988Y-155809291D02*
X236726656Y-155738645D01*
X236726656Y-155738645D02*
X236956639Y-155677022D01*
X236956639Y-155677022D02*
X237060956Y-155698369D01*
X237060956Y-155698369D02*
X237119278Y-155732040D01*
X237119278Y-155732040D02*
X237189923Y-155811709D01*
X237189923Y-155811709D02*
X237251547Y-156041691D01*
X237251547Y-156041691D02*
X237230200Y-156146009D01*
X237230200Y-156146009D02*
X237196528Y-156204330D01*
X237196528Y-156204330D02*
X237116860Y-156274976D01*
X237116860Y-156274976D02*
X236886878Y-156336599D01*
X236886878Y-156336599D02*
X236782560Y-156315252D01*
X236782560Y-156315252D02*
X236724239Y-156281580D01*
X237956236Y-155359881D02*
X238128782Y-156003832D01*
X237627656Y-155053533D02*
X237582545Y-155805104D01*
X237582545Y-155805104D02*
X238180499Y-155644882D01*
%TO.C,S43*%
D11*
X290258311Y-95084249D02*
X290432623Y-97076638D01*
X291304179Y-107038585D02*
X291478491Y-109030975D01*
X291478491Y-109030975D02*
X293470880Y-108856663D01*
X292250701Y-94909937D02*
X290258311Y-95084249D01*
X302212648Y-94038381D02*
X304205037Y-93864069D01*
X303432827Y-107985107D02*
X305425217Y-107810795D01*
X304205037Y-93864069D02*
X304379349Y-95856459D01*
X305425217Y-107810795D02*
X305250905Y-105818406D01*
%TO.C,S22*%
X172023123Y-97124421D02*
X174015513Y-97298735D01*
X172197435Y-95132032D02*
X172023123Y-97124421D01*
X173243303Y-83177695D02*
X173068989Y-85170085D01*
X175235692Y-83352007D02*
X173243303Y-83177695D01*
X183977460Y-98170289D02*
X185969849Y-98344601D01*
X185197639Y-84223561D02*
X187190029Y-84397875D01*
X185969849Y-98344601D02*
X186144163Y-96352211D01*
X187190029Y-84397875D02*
X187015717Y-86390264D01*
%TO.C,S2*%
X77080231Y-89455426D02*
X79072621Y-89629740D01*
X77254543Y-87463037D02*
X77080231Y-89455426D01*
X78300411Y-75508700D02*
X78126097Y-77501090D01*
X80292800Y-75683012D02*
X78300411Y-75508700D01*
X89034568Y-90501294D02*
X91026957Y-90675606D01*
X90254747Y-76554566D02*
X92247137Y-76728880D01*
X91026957Y-90675606D02*
X91201271Y-88683216D01*
X92247137Y-76728880D02*
X92072825Y-78721269D01*
%TO.C,S56*%
X272278776Y-137315628D02*
X272453088Y-139308017D01*
X273324644Y-149269964D02*
X273498956Y-151262354D01*
X273498956Y-151262354D02*
X275491345Y-151088042D01*
X274271166Y-137141316D02*
X272278776Y-137315628D01*
X284233113Y-136269760D02*
X286225502Y-136095448D01*
X285453292Y-150216486D02*
X287445682Y-150042174D01*
X286225502Y-136095448D02*
X286399814Y-138087838D01*
X287445682Y-150042174D02*
X287271370Y-148049785D01*
%TO.C,S18*%
X153045615Y-95464115D02*
X155038005Y-95638429D01*
X153219927Y-93471726D02*
X153045615Y-95464115D01*
X154265795Y-81517389D02*
X154091481Y-83509779D01*
X156258184Y-81691701D02*
X154265795Y-81517389D01*
X164999952Y-96509983D02*
X166992341Y-96684295D01*
X166220131Y-82563255D02*
X168212521Y-82737569D01*
X166992341Y-96684295D02*
X167166655Y-94691905D01*
X168212521Y-82737569D02*
X168038209Y-84729958D01*
%TO.C,S7*%
X94618790Y-107562927D02*
X96611180Y-107737241D01*
X94793102Y-105570538D02*
X94618790Y-107562927D01*
X95838970Y-93616201D02*
X95664656Y-95608591D01*
X97831359Y-93790513D02*
X95838970Y-93616201D01*
X106573127Y-108608795D02*
X108565516Y-108783107D01*
X107793306Y-94662067D02*
X109785696Y-94836381D01*
X108565516Y-108783107D02*
X108739830Y-106790717D01*
X109785696Y-94836381D02*
X109611384Y-96828770D01*
%TO.C,S4*%
X73759592Y-127410458D02*
X75751982Y-127584772D01*
X73933904Y-125418069D02*
X73759592Y-127410458D01*
X74979772Y-113463732D02*
X74805458Y-115456122D01*
X76972161Y-113638044D02*
X74979772Y-113463732D01*
X85713929Y-128456326D02*
X87706318Y-128630638D01*
X86934108Y-114509598D02*
X88926498Y-114683912D01*
X87706318Y-128630638D02*
X87880632Y-126638248D01*
X88926498Y-114683912D02*
X88752186Y-116676301D01*
%TO.C,S49*%
X112234304Y-149906167D02*
X114226694Y-150080481D01*
X112408616Y-147913778D02*
X112234304Y-149906167D01*
X113454484Y-135959441D02*
X113280170Y-137951831D01*
X115446873Y-136133753D02*
X113454484Y-135959441D01*
X124188641Y-150952035D02*
X126181030Y-151126347D01*
X125408820Y-137005307D02*
X127401210Y-137179621D01*
X126181030Y-151126347D02*
X126355344Y-149133957D01*
X127401210Y-137179621D02*
X127226898Y-139172010D01*
%TO.C,S19*%
X151385299Y-114441623D02*
X153377689Y-114615937D01*
X151559611Y-112449234D02*
X151385299Y-114441623D01*
X152605479Y-100494897D02*
X152431165Y-102487287D01*
X154597868Y-100669209D02*
X152605479Y-100494897D01*
X163339636Y-115487491D02*
X165332025Y-115661803D01*
X164559815Y-101540763D02*
X166552205Y-101715077D01*
X165332025Y-115661803D02*
X165506339Y-113669413D01*
X166552205Y-101715077D02*
X166377893Y-103707466D01*
%TO.C,S31*%
X233491824Y-101962949D02*
X233666136Y-103955338D01*
X234537692Y-113917285D02*
X234712004Y-115909675D01*
X234712004Y-115909675D02*
X236704393Y-115735363D01*
X235484214Y-101788637D02*
X233491824Y-101962949D01*
X245446161Y-100917081D02*
X247438550Y-100742769D01*
X246666340Y-114863807D02*
X248658730Y-114689495D01*
X247438550Y-100742769D02*
X247612862Y-102735159D01*
X248658730Y-114689495D02*
X248484418Y-112697106D01*
%TO.C,S32*%
X235152145Y-120940446D02*
X235326457Y-122932835D01*
X236198013Y-132894782D02*
X236372325Y-134887172D01*
X236372325Y-134887172D02*
X238364714Y-134712860D01*
X237144535Y-120766134D02*
X235152145Y-120940446D01*
X247106482Y-119894578D02*
X249098871Y-119720266D01*
X248326661Y-133841304D02*
X250319051Y-133666992D01*
X249098871Y-119720266D02*
X249273183Y-121712656D01*
X250319051Y-133666992D02*
X250144739Y-131674603D01*
%TO.C,S36*%
X253742244Y-114852049D02*
X253916556Y-116844438D01*
X254788112Y-126806385D02*
X254962424Y-128798775D01*
X254962424Y-128798775D02*
X256954813Y-128624463D01*
X255734634Y-114677737D02*
X253742244Y-114852049D01*
X265696581Y-113806181D02*
X267688970Y-113631869D01*
X266916760Y-127752907D02*
X268909150Y-127578595D01*
X267688970Y-113631869D02*
X267863282Y-115624259D01*
X268909150Y-127578595D02*
X268734838Y-125586206D01*
%TO.C,S24*%
X168702479Y-135079454D02*
X170694869Y-135253768D01*
X168876791Y-133087065D02*
X168702479Y-135079454D01*
X169922659Y-121132728D02*
X169748345Y-123125118D01*
X171915048Y-121307040D02*
X169922659Y-121132728D01*
X180656816Y-136125322D02*
X182649205Y-136299634D01*
X181876995Y-122178594D02*
X183869385Y-122352908D01*
X182649205Y-136299634D02*
X182823519Y-134307244D01*
X183869385Y-122352908D02*
X183695073Y-124345297D01*
%TO.C,S20*%
X149724968Y-133419132D02*
X151717358Y-133593446D01*
X149899280Y-131426743D02*
X149724968Y-133419132D01*
X150945148Y-119472406D02*
X150770834Y-121464796D01*
X152937537Y-119646718D02*
X150945148Y-119472406D01*
X161679305Y-134465000D02*
X163671694Y-134639312D01*
X162899484Y-120518272D02*
X164891874Y-120692586D01*
X163671694Y-134639312D02*
X163846008Y-132646922D01*
X164891874Y-120692586D02*
X164717562Y-122684975D01*
%TO.C,S48*%
X311117520Y-114931769D02*
X311291832Y-116924158D01*
X312163388Y-126886105D02*
X312337700Y-128878495D01*
X312337700Y-128878495D02*
X314330089Y-128704183D01*
X313109910Y-114757457D02*
X311117520Y-114931769D01*
X323071857Y-113885901D02*
X325064246Y-113711589D01*
X324292036Y-127832627D02*
X326284426Y-127658315D01*
X325064246Y-113711589D02*
X325238558Y-115703979D01*
X326284426Y-127658315D02*
X326110114Y-125665926D01*
%TO.C,S5*%
X97939423Y-69607909D02*
X99931813Y-69782223D01*
X98113735Y-67615520D02*
X97939423Y-69607909D01*
X99159603Y-55661183D02*
X98985289Y-57653573D01*
X101151992Y-55835495D02*
X99159603Y-55661183D01*
X109893760Y-70653777D02*
X111886149Y-70828089D01*
X111113939Y-56707049D02*
X113106329Y-56881363D01*
X111886149Y-70828089D02*
X112060463Y-68835699D01*
X113106329Y-56881363D02*
X112932017Y-58873752D01*
%TO.C,S23*%
X170362794Y-116101933D02*
X172355184Y-116276247D01*
X170537106Y-114109544D02*
X170362794Y-116101933D01*
X171582974Y-102155207D02*
X171408660Y-104147597D01*
X173575363Y-102329519D02*
X171582974Y-102155207D01*
X182317131Y-117147801D02*
X184309520Y-117322113D01*
X183537310Y-103201073D02*
X185529700Y-103375387D01*
X184309520Y-117322113D02*
X184483834Y-115329723D01*
X185529700Y-103375387D02*
X185355388Y-105367776D01*
%TO.C,S12*%
X112046679Y-126935587D02*
X114039069Y-127109901D01*
X112220991Y-124943198D02*
X112046679Y-126935587D01*
X113266859Y-112988861D02*
X113092545Y-114981251D01*
X115259248Y-113163173D02*
X113266859Y-112988861D01*
X124001016Y-127981455D02*
X125993405Y-128155767D01*
X125221195Y-114034727D02*
X127213585Y-114209041D01*
X125993405Y-128155767D02*
X126167719Y-126163377D01*
X127213585Y-114209041D02*
X127039273Y-116201430D01*
%TO.C,S28*%
X216174620Y-122600771D02*
X216348932Y-124593160D01*
X217220488Y-134555107D02*
X217394800Y-136547497D01*
X217394800Y-136547497D02*
X219387189Y-136373185D01*
X218167010Y-122426459D02*
X216174620Y-122600771D01*
X228128957Y-121554903D02*
X230121346Y-121380591D01*
X229349136Y-135501629D02*
X231341526Y-135327317D01*
X230121346Y-121380591D02*
X230295658Y-123372981D01*
X231341526Y-135327317D02*
X231167214Y-133334928D01*
%TO.C,S33*%
X248761290Y-57919521D02*
X248935602Y-59911910D01*
X249807158Y-69873857D02*
X249981470Y-71866247D01*
X249981470Y-71866247D02*
X251973859Y-71691935D01*
X250753680Y-57745209D02*
X248761290Y-57919521D01*
X260715627Y-56873653D02*
X262708016Y-56699341D01*
X261935806Y-70820379D02*
X263928196Y-70646067D01*
X262708016Y-56699341D02*
X262882328Y-58691731D01*
X263928196Y-70646067D02*
X263753884Y-68653678D01*
%TO.C,S41*%
X286937672Y-57129222D02*
X287111984Y-59121611D01*
X287983540Y-69083558D02*
X288157852Y-71075948D01*
X288157852Y-71075948D02*
X290150241Y-70901636D01*
X288930062Y-56954910D02*
X286937672Y-57129222D01*
X298892009Y-56083354D02*
X300884398Y-55909042D01*
X300112188Y-70030080D02*
X302104578Y-69855768D01*
X300884398Y-55909042D02*
X301058710Y-57901432D01*
X302104578Y-69855768D02*
X301930266Y-67863379D01*
%TO.C,S8*%
X92958470Y-126540422D02*
X94950860Y-126714736D01*
X93132782Y-124548033D02*
X92958470Y-126540422D01*
X94178650Y-112593696D02*
X94004336Y-114586086D01*
X96171039Y-112768008D02*
X94178650Y-112593696D01*
X104912807Y-127586290D02*
X106905196Y-127760602D01*
X106132986Y-113639562D02*
X108125376Y-113813876D01*
X106905196Y-127760602D02*
X107079510Y-125768212D01*
X108125376Y-113813876D02*
X107951064Y-115806265D01*
%TO.C,S45*%
X306136565Y-57999247D02*
X306310877Y-59991636D01*
X307182433Y-69953583D02*
X307356745Y-71945973D01*
X307356745Y-71945973D02*
X309349134Y-71771661D01*
X308128955Y-57824935D02*
X306136565Y-57999247D01*
X318090902Y-56953379D02*
X320083291Y-56779067D01*
X319311081Y-70900105D02*
X321303471Y-70725793D01*
X320083291Y-56779067D02*
X320257603Y-58771457D01*
X321303471Y-70725793D02*
X321129159Y-68733404D01*
%TO.C,S10*%
X115367313Y-88980557D02*
X117359703Y-89154871D01*
X115541625Y-86988168D02*
X115367313Y-88980557D01*
X116587493Y-75033831D02*
X116413179Y-77026221D01*
X118579882Y-75208143D02*
X116587493Y-75033831D01*
X127321650Y-90026425D02*
X129314039Y-90200737D01*
X128541829Y-76079697D02*
X130534219Y-76254011D01*
X129314039Y-90200737D02*
X129488353Y-88208347D01*
X130534219Y-76254011D02*
X130359907Y-78246400D01*
%TO.C,S3*%
X75419907Y-108432941D02*
X77412297Y-108607255D01*
X75594219Y-106440552D02*
X75419907Y-108432941D01*
X76640087Y-94486215D02*
X76465773Y-96478605D01*
X78632476Y-94660527D02*
X76640087Y-94486215D01*
X87374244Y-109478809D02*
X89366633Y-109653121D01*
X88594423Y-95532081D02*
X90586813Y-95706395D01*
X89366633Y-109653121D02*
X89540947Y-107660731D01*
X90586813Y-95706395D02*
X90412501Y-97698784D01*
%TO.C,S6*%
X96279104Y-88585414D02*
X98271494Y-88759728D01*
X96453416Y-86593025D02*
X96279104Y-88585414D01*
X97499284Y-74638688D02*
X97324970Y-76631078D01*
X99491673Y-74813000D02*
X97499284Y-74638688D01*
X108233441Y-89631282D02*
X110225830Y-89805594D01*
X109453620Y-75684554D02*
X111446010Y-75858868D01*
X110225830Y-89805594D02*
X110400144Y-87813204D01*
X111446010Y-75858868D02*
X111271698Y-77851257D01*
%TO.C,S11*%
X113706987Y-107958066D02*
X115699377Y-108132380D01*
X113881299Y-105965677D02*
X113706987Y-107958066D01*
X114927167Y-94011340D02*
X114752853Y-96003730D01*
X116919556Y-94185652D02*
X114927167Y-94011340D01*
X125661324Y-109003934D02*
X127653713Y-109178246D01*
X126881503Y-95057206D02*
X128873893Y-95231520D01*
X127653713Y-109178246D02*
X127828027Y-107185856D01*
X128873893Y-95231520D02*
X128699581Y-97223909D01*
%TO.C,S34*%
X250421605Y-76897035D02*
X250595917Y-78889424D01*
X251467473Y-88851371D02*
X251641785Y-90843761D01*
X251641785Y-90843761D02*
X253634174Y-90669449D01*
X252413995Y-76722723D02*
X250421605Y-76897035D01*
X262375942Y-75851167D02*
X264368331Y-75676855D01*
X263596121Y-89797893D02*
X265588511Y-89623581D01*
X264368331Y-75676855D02*
X264542643Y-77669245D01*
X265588511Y-89623581D02*
X265414199Y-87631192D01*
%TO.C,S17*%
X154705920Y-76486616D02*
X156698310Y-76660930D01*
X154880232Y-74494227D02*
X154705920Y-76486616D01*
X155926100Y-62539890D02*
X155751786Y-64532280D01*
X157918489Y-62714202D02*
X155926100Y-62539890D01*
X166660257Y-77532484D02*
X168652646Y-77706796D01*
X167880436Y-63585756D02*
X169872826Y-63760070D01*
X168652646Y-77706796D02*
X168826960Y-75714406D01*
X169872826Y-63760070D02*
X169698514Y-65752459D01*
%TO.C,S25*%
X211193672Y-65668237D02*
X211367984Y-67660626D01*
X212239540Y-77622573D02*
X212413852Y-79614963D01*
X212413852Y-79614963D02*
X214406241Y-79440651D01*
X213186062Y-65493925D02*
X211193672Y-65668237D01*
X223148009Y-64622369D02*
X225140398Y-64448057D01*
X224368188Y-78569095D02*
X226360578Y-78394783D01*
X225140398Y-64448057D02*
X225314710Y-66440447D01*
X226360578Y-78394783D02*
X226186266Y-76402394D01*
%TO.C,S15*%
X132795605Y-108348467D02*
X134787995Y-108522781D01*
X132969917Y-106356078D02*
X132795605Y-108348467D01*
X134015785Y-94401741D02*
X133841471Y-96394131D01*
X136008174Y-94576053D02*
X134015785Y-94401741D01*
X144749942Y-109394335D02*
X146742331Y-109568647D01*
X145970121Y-95447607D02*
X147962511Y-95621921D01*
X146742331Y-109568647D02*
X146916645Y-107576257D01*
X147962511Y-95621921D02*
X147788199Y-97614310D01*
%TO.C,S46*%
X307796885Y-76976754D02*
X307971197Y-78969143D01*
X308842753Y-88931090D02*
X309017065Y-90923480D01*
X309017065Y-90923480D02*
X311009454Y-90749168D01*
X309789275Y-76802442D02*
X307796885Y-76976754D01*
X319751222Y-75930886D02*
X321743611Y-75756574D01*
X320971401Y-89877612D02*
X322963791Y-89703300D01*
X321743611Y-75756574D02*
X321917923Y-77748964D01*
X322963791Y-89703300D02*
X322789479Y-87710911D01*
%TO.C,S44*%
X291918631Y-114061747D02*
X292092943Y-116054136D01*
X292964499Y-126016083D02*
X293138811Y-128008473D01*
X293138811Y-128008473D02*
X295131200Y-127834161D01*
X293911021Y-113887435D02*
X291918631Y-114061747D01*
X303872968Y-113015879D02*
X305865357Y-112841567D01*
X305093147Y-126962605D02*
X307085537Y-126788293D01*
X305865357Y-112841567D02*
X306039669Y-114833957D01*
X307085537Y-126788293D02*
X306911225Y-124795904D01*
%TO.C,S53*%
X207393061Y-146702536D02*
X207567373Y-148694926D01*
X208438929Y-158656874D02*
X208613239Y-160649262D01*
X208613239Y-160649262D02*
X210605629Y-160474950D01*
X209385449Y-146528226D02*
X207393061Y-146702536D01*
X219347397Y-145656670D02*
X221339787Y-145482358D01*
X220567577Y-159603394D02*
X222559965Y-159429084D01*
X221339787Y-145482358D02*
X221514097Y-147474746D01*
X222559965Y-159429084D02*
X222385653Y-157436694D01*
%TO.C,S42*%
X288597997Y-76106735D02*
X288772309Y-78099124D01*
X289643865Y-88061071D02*
X289818177Y-90053461D01*
X289818177Y-90053461D02*
X291810566Y-89879149D01*
X290590387Y-75932423D02*
X288597997Y-76106735D01*
X300552334Y-75060867D02*
X302544723Y-74886555D01*
X301772513Y-89007593D02*
X303764903Y-88833281D01*
X302544723Y-74886555D02*
X302719035Y-76878945D01*
X303764903Y-88833281D02*
X303590591Y-86840892D01*
%TO.C,S51*%
X150931275Y-153877055D02*
X152863127Y-154394693D01*
X151448913Y-151945204D02*
X150931275Y-153877055D01*
X154554742Y-140354094D02*
X154037104Y-142285946D01*
X156486593Y-140871732D02*
X154554742Y-140354094D01*
X162522385Y-156982884D02*
X164454236Y-157500522D01*
X164454236Y-157500522D02*
X164971874Y-155568670D01*
X166145851Y-143459923D02*
X168077703Y-143977561D01*
X168077703Y-143977561D02*
X167560065Y-145909412D01*
%TO.C,S13*%
X136116235Y-70393442D02*
X138108625Y-70567756D01*
X136290547Y-68401053D02*
X136116235Y-70393442D01*
X137336415Y-56446716D02*
X137162101Y-58439106D01*
X139328804Y-56621028D02*
X137336415Y-56446716D01*
X148070572Y-71439310D02*
X150062961Y-71613622D01*
X149290751Y-57492582D02*
X151283141Y-57666896D01*
X150062961Y-71613622D02*
X150237275Y-69621232D01*
X151283141Y-57666896D02*
X151108829Y-59659285D01*
%TO.C,S52*%
X177117819Y-159404723D02*
X179110207Y-159579033D01*
X177292131Y-157412333D02*
X177117819Y-159404723D01*
X178337997Y-145457997D02*
X178163687Y-147450385D01*
X180330387Y-145632309D02*
X178337997Y-145457997D01*
X189072155Y-160450589D02*
X191064545Y-160624901D01*
X190292335Y-146503865D02*
X192284723Y-146678175D01*
X191064545Y-160624901D02*
X191238855Y-158632513D01*
X192284723Y-146678175D02*
X192110411Y-148670565D01*
%TO.C,S55*%
X253301264Y-138975950D02*
X253475576Y-140968339D01*
X254347132Y-150930286D02*
X254521444Y-152922676D01*
X254521444Y-152922676D02*
X256513833Y-152748364D01*
X255293654Y-138801638D02*
X253301264Y-138975950D01*
X265255601Y-137930082D02*
X267247990Y-137755770D01*
X266475780Y-151876808D02*
X268468170Y-151702496D01*
X267247990Y-137755770D02*
X267422302Y-139748160D01*
X268468170Y-151702496D02*
X268293858Y-149710107D01*
%TO.C,S39*%
X271170127Y-95479384D02*
X271344439Y-97471773D01*
X272215995Y-107433720D02*
X272390307Y-109426110D01*
X272390307Y-109426110D02*
X274382696Y-109251798D01*
X273162517Y-95305072D02*
X271170127Y-95479384D01*
X283124464Y-94433516D02*
X285116853Y-94259204D01*
X284344643Y-108380242D02*
X286337033Y-108205930D01*
X285116853Y-94259204D02*
X285291165Y-96251594D01*
X286337033Y-108205930D02*
X286162721Y-106213541D01*
%TO.C,S9*%
X117027627Y-70003049D02*
X119020017Y-70177363D01*
X117201939Y-68010660D02*
X117027627Y-70003049D01*
X118247807Y-56056323D02*
X118073493Y-58048713D01*
X120240196Y-56230635D02*
X118247807Y-56056323D01*
X128981964Y-71048917D02*
X130974353Y-71223229D01*
X130202143Y-57102189D02*
X132194533Y-57276503D01*
X130974353Y-71223229D02*
X131148667Y-69230839D01*
X132194533Y-57276503D02*
X132020221Y-59268892D01*
%TO.C,S1*%
X78740541Y-70477919D02*
X80732930Y-70652230D01*
X78914852Y-68485529D02*
X78740541Y-70477919D01*
X79960721Y-56531193D02*
X79786410Y-58523582D01*
X81953111Y-56705504D02*
X79960721Y-56531193D01*
X90694877Y-71523788D02*
X92687267Y-71698099D01*
X91915058Y-57577062D02*
X93907447Y-57751373D01*
X92687267Y-71698099D02*
X92861578Y-69705710D01*
X93907447Y-57751373D02*
X93733136Y-59743763D01*
%TO.C,S38*%
X269509805Y-76501879D02*
X269684117Y-78494268D01*
X270555673Y-88456215D02*
X270729985Y-90448605D01*
X270729985Y-90448605D02*
X272722374Y-90274293D01*
X271502195Y-76327567D02*
X269509805Y-76501879D01*
X281464142Y-75456011D02*
X283456531Y-75281699D01*
X282684321Y-89402737D02*
X284676711Y-89228425D01*
X283456531Y-75281699D02*
X283630843Y-77274089D01*
X284676711Y-89228425D02*
X284502399Y-87236036D01*
%TO.C,S35*%
X252081928Y-95874541D02*
X252256240Y-97866930D01*
X253127796Y-107828877D02*
X253302108Y-109821267D01*
X253302108Y-109821267D02*
X255294497Y-109646955D01*
X254074318Y-95700229D02*
X252081928Y-95874541D01*
X264036265Y-94828673D02*
X266028654Y-94654361D01*
X265256444Y-108775399D02*
X267248834Y-108601087D01*
X266028654Y-94654361D02*
X266202966Y-96646751D01*
X267248834Y-108601087D02*
X267074522Y-106608698D01*
%TO.C,S40*%
X272830430Y-114456901D02*
X273004742Y-116449290D01*
X273876298Y-126411237D02*
X274050610Y-128403627D01*
X274050610Y-128403627D02*
X276042999Y-128229315D01*
X274822820Y-114282589D02*
X272830430Y-114456901D01*
X284784767Y-113411033D02*
X286777156Y-113236721D01*
X286004946Y-127357759D02*
X287997336Y-127183447D01*
X286777156Y-113236721D02*
X286951468Y-115229111D01*
X287997336Y-127183447D02*
X287823024Y-125191058D01*
%TO.C,U1*%
X191110001Y-74760000D02*
X191110001Y-105240000D01*
X191110001Y-105240000D02*
X208889999Y-105240000D01*
X196190002Y-74760000D02*
X191110001Y-74760000D01*
X208889999Y-74760000D02*
X203810001Y-74760000D01*
X208889999Y-105240000D02*
X208889999Y-74760000D01*
%TO.C,S30*%
X231831502Y-82985434D02*
X232005814Y-84977823D01*
X232877370Y-94939770D02*
X233051682Y-96932160D01*
X233051682Y-96932160D02*
X235044071Y-96757848D01*
X233823892Y-82811122D02*
X231831502Y-82985434D01*
X243785839Y-81939566D02*
X245778228Y-81765254D01*
X245006018Y-95886292D02*
X246998408Y-95711980D01*
X245778228Y-81765254D02*
X245952540Y-83757644D01*
X246998408Y-95711980D02*
X246824096Y-93719591D01*
%TO.C,S26*%
X212853992Y-84645747D02*
X213028304Y-86638136D01*
X213899860Y-96600083D02*
X214074172Y-98592473D01*
X214074172Y-98592473D02*
X216066561Y-98418161D01*
X214846382Y-84471435D02*
X212853992Y-84645747D01*
X224808329Y-83599879D02*
X226800718Y-83425567D01*
X226028508Y-97546605D02*
X228020898Y-97372293D01*
X226800718Y-83425567D02*
X226975030Y-85417957D01*
X228020898Y-97372293D02*
X227846586Y-95379904D01*
%TO.C,S29*%
X230171186Y-64007927D02*
X230345498Y-66000316D01*
X231217054Y-75962263D02*
X231391366Y-77954653D01*
X231391366Y-77954653D02*
X233383755Y-77780341D01*
X232163576Y-63833615D02*
X230171186Y-64007927D01*
X242125523Y-62962059D02*
X244117912Y-62787747D01*
X243345702Y-76908785D02*
X245338092Y-76734473D01*
X244117912Y-62787747D02*
X244292224Y-64780137D01*
X245338092Y-76734473D02*
X245163780Y-74742084D01*
%TO.C,S37*%
X267849482Y-57524377D02*
X268023794Y-59516766D01*
X268895350Y-69478713D02*
X269069662Y-71471103D01*
X269069662Y-71471103D02*
X271062051Y-71296791D01*
X269841872Y-57350065D02*
X267849482Y-57524377D01*
X279803819Y-56478509D02*
X281796208Y-56304197D01*
X281023998Y-70425235D02*
X283016388Y-70250923D01*
X281796208Y-56304197D02*
X281970520Y-58296587D01*
X283016388Y-70250923D02*
X282842076Y-68258534D01*
%TO.C,S27*%
X214514304Y-103623258D02*
X214688616Y-105615647D01*
X215560172Y-115577594D02*
X215734484Y-117569984D01*
X215734484Y-117569984D02*
X217726873Y-117395672D01*
X216506694Y-103448946D02*
X214514304Y-103623258D01*
X226468641Y-102577390D02*
X228461030Y-102403078D01*
X227688820Y-116524116D02*
X229681210Y-116349804D01*
X228461030Y-102403078D02*
X228635342Y-104395468D01*
X229681210Y-116349804D02*
X229506898Y-114357415D01*
%TO.C,S16*%
X131135288Y-127325968D02*
X133127678Y-127500282D01*
X131309600Y-125333579D02*
X131135288Y-127325968D01*
X132355468Y-113379242D02*
X132181154Y-115371632D01*
X134347857Y-113553554D02*
X132355468Y-113379242D01*
X143089625Y-128371836D02*
X145082014Y-128546148D01*
X144309804Y-114425108D02*
X146302194Y-114599422D01*
X145082014Y-128546148D02*
X145256328Y-126553758D01*
X146302194Y-114599422D02*
X146127882Y-116591811D01*
%TO.C,S14*%
X134455923Y-89370961D02*
X136448313Y-89545275D01*
X134630235Y-87378572D02*
X134455923Y-89370961D01*
X135676103Y-75424235D02*
X135501789Y-77416625D01*
X137668492Y-75598547D02*
X135676103Y-75424235D01*
X146410260Y-90416829D02*
X148402649Y-90591141D01*
X147630439Y-76470101D02*
X149622829Y-76644415D01*
X148402649Y-90591141D02*
X148576963Y-88598751D01*
X149622829Y-76644415D02*
X149448517Y-78636804D01*
%TO.C,S21*%
X173683443Y-78146917D02*
X175675833Y-78321231D01*
X173857755Y-76154528D02*
X173683443Y-78146917D01*
X174903623Y-64200191D02*
X174729309Y-66192581D01*
X176896012Y-64374503D02*
X174903623Y-64200191D01*
X185637780Y-79192785D02*
X187630169Y-79367097D01*
X186857959Y-65246057D02*
X188850349Y-65420371D01*
X187630169Y-79367097D02*
X187804483Y-77374707D01*
X188850349Y-65420371D02*
X188676037Y-67412760D01*
%TO.C,S47*%
X309457194Y-95954252D02*
X309631506Y-97946641D01*
X310503062Y-107908588D02*
X310677374Y-109900978D01*
X310677374Y-109900978D02*
X312669763Y-109726666D01*
X311449584Y-95779940D02*
X309457194Y-95954252D01*
X321411531Y-94908384D02*
X323403920Y-94734072D01*
X322631710Y-108855110D02*
X324624100Y-108680798D01*
X323403920Y-94734072D02*
X323578232Y-96726462D01*
X324624100Y-108680798D02*
X324449788Y-106688409D01*
%TO.C,S50*%
X131211801Y-151566487D02*
X133204191Y-151740801D01*
X131386113Y-149574098D02*
X131211801Y-151566487D01*
X132431981Y-137619761D02*
X132257667Y-139612151D01*
X134424370Y-137794073D02*
X132431981Y-137619761D01*
X143166138Y-152612355D02*
X145158527Y-152786667D01*
X144386317Y-138665627D02*
X146378707Y-138839941D01*
X145158527Y-152786667D02*
X145332841Y-150794277D01*
X146378707Y-138839941D02*
X146204395Y-140832330D01*
%TO.C,S54*%
X231602278Y-144113567D02*
X232119916Y-146045418D01*
X233534130Y-143595929D02*
X231602278Y-144113567D01*
X234708107Y-155704676D02*
X235225745Y-157636528D01*
X235225745Y-157636528D02*
X237157596Y-157118890D01*
X243193388Y-141007738D02*
X245125239Y-140490100D01*
X245125239Y-140490100D02*
X245642877Y-142421952D01*
X246816854Y-154530699D02*
X248748706Y-154013061D01*
X248748706Y-154013061D02*
X248231068Y-152081210D01*
%TD*%
M02*
