%TF.GenerationSoftware,KiCad,Pcbnew,10.0.3*%
%TF.CreationDate,2026-06-20T15:07:42+09:00*%
%TF.ProjectId,TrueStrike56,54727565-5374-4726-996b-6535362e6b69,rev?*%
%TF.SameCoordinates,Original*%
%TF.FileFunction,Soldermask,Top*%
%TF.FilePolarity,Negative*%
%FSLAX46Y46*%
G04 Gerber Fmt 4.6, Leading zero omitted, Abs format (unit mm)*
G04 Created by KiCad (PCBNEW 10.0.3) date 2026-06-20 15:07:42*
%MOMM*%
%LPD*%
G01*
G04 APERTURE LIST*
G04 Aperture macros list*
%AMRoundRect*
0 Rectangle with rounded corners*
0 $1 Rounding radius*
0 $2 $3 $4 $5 $6 $7 $8 $9 X,Y pos of 4 corners*
0 Add a 4 corners polygon primitive as box body*
4,1,4,$2,$3,$4,$5,$6,$7,$8,$9,$2,$3,0*
0 Add four circle primitives for the rounded corners*
1,1,$1+$1,$2,$3*
1,1,$1+$1,$4,$5*
1,1,$1+$1,$6,$7*
1,1,$1+$1,$8,$9*
0 Add four rect primitives between the rounded corners*
20,1,$1+$1,$2,$3,$4,$5,0*
20,1,$1+$1,$4,$5,$6,$7,0*
20,1,$1+$1,$6,$7,$8,$9,0*
20,1,$1+$1,$8,$9,$2,$3,0*%
G04 Aperture macros list end*
%ADD10C,3.500000*%
%ADD11RoundRect,0.170000X0.680000X0.680000X-0.680000X0.680000X-0.680000X-0.680000X0.680000X-0.680000X0*%
%ADD12C,1.700000*%
%ADD13C,1.500000*%
%ADD14C,1.600000*%
%ADD15C,1.701800*%
%ADD16R,1.600000X1.600000*%
G04 APERTURE END LIST*
D10*
%TO.C,H8*%
X305750000Y-134550000D03*
%TD*%
%TO.C,H3*%
X93900000Y-134100000D03*
%TD*%
%TO.C,H1*%
X95100000Y-73200000D03*
%TD*%
D11*
%TO.C,U11*%
X203758006Y-111212002D03*
D12*
X201218005Y-111212002D03*
X198678005Y-111212003D03*
X196138003Y-111212000D03*
%TD*%
D10*
%TO.C,H4*%
X171700000Y-140050000D03*
%TD*%
%TO.C,H6*%
X304950000Y-73400000D03*
%TD*%
D13*
%TO.C,SW2*%
X194375000Y-132700000D03*
D14*
X194375000Y-122590000D03*
X194375000Y-125130000D03*
X194375000Y-127670000D03*
X194375000Y-130210000D03*
X193150000Y-120200000D03*
X195000000Y-120200000D03*
%TD*%
D10*
%TO.C,H2*%
X170950000Y-80450000D03*
%TD*%
%TO.C,H7*%
X228050000Y-140250000D03*
%TD*%
%TO.C,H5*%
X229100000Y-80700000D03*
%TD*%
D15*
%TO.C,S43*%
X302902433Y-101004771D03*
X292781095Y-101890273D03*
%TD*%
%TO.C,S22*%
X184667245Y-91203899D03*
X174545907Y-90318397D03*
%TD*%
%TO.C,S2*%
X89724353Y-83534904D03*
X79603015Y-82649402D03*
%TD*%
%TO.C,S56*%
X284922898Y-143236150D03*
X274801560Y-144121652D03*
%TD*%
%TO.C,S18*%
X165689737Y-89543593D03*
X155568399Y-88658091D03*
%TD*%
%TO.C,S7*%
X107262912Y-101642405D03*
X97141574Y-100756903D03*
%TD*%
%TO.C,S4*%
X86403714Y-121489936D03*
X76282376Y-120604434D03*
%TD*%
%TO.C,S49*%
X124878426Y-143985645D03*
X114757088Y-143100143D03*
%TD*%
%TO.C,S19*%
X164029421Y-108521101D03*
X153908083Y-107635599D03*
%TD*%
%TO.C,S31*%
X246135946Y-107883471D03*
X236014608Y-108768973D03*
%TD*%
%TO.C,S32*%
X247796267Y-126860968D03*
X237674929Y-127746470D03*
%TD*%
%TO.C,S36*%
X266386366Y-120772571D03*
X256265028Y-121658073D03*
%TD*%
%TO.C,S24*%
X181346601Y-129158932D03*
X171225263Y-128273430D03*
%TD*%
%TO.C,S20*%
X162369090Y-127498610D03*
X152247752Y-126613108D03*
%TD*%
%TO.C,S48*%
X323761642Y-120852291D03*
X313640304Y-121737793D03*
%TD*%
%TO.C,S5*%
X110583545Y-63687387D03*
X100462207Y-62801885D03*
%TD*%
%TO.C,S23*%
X183006916Y-110181411D03*
X172885578Y-109295909D03*
%TD*%
%TO.C,S12*%
X124690801Y-121015065D03*
X114569463Y-120129563D03*
%TD*%
%TO.C,S28*%
X228818742Y-128521293D03*
X218697404Y-129406795D03*
%TD*%
%TO.C,S33*%
X261405412Y-63840043D03*
X251284074Y-64725545D03*
%TD*%
%TO.C,S41*%
X299581794Y-63049744D03*
X289460456Y-63935246D03*
%TD*%
%TO.C,S8*%
X105602592Y-120619900D03*
X95481254Y-119734398D03*
%TD*%
%TO.C,S45*%
X318780687Y-63919769D03*
X308659349Y-64805271D03*
%TD*%
%TO.C,S10*%
X128011435Y-83060035D03*
X117890097Y-82174533D03*
%TD*%
%TO.C,S3*%
X88064029Y-102512419D03*
X77942691Y-101626917D03*
%TD*%
%TO.C,S6*%
X108923226Y-82664892D03*
X98801888Y-81779390D03*
%TD*%
%TO.C,S11*%
X126351109Y-102037544D03*
X116229771Y-101152042D03*
%TD*%
%TO.C,S34*%
X263065727Y-82817557D03*
X252944389Y-83703059D03*
%TD*%
%TO.C,S17*%
X167350042Y-70566094D03*
X157228704Y-69680592D03*
%TD*%
%TO.C,S25*%
X223837794Y-71588759D03*
X213716456Y-72474261D03*
%TD*%
%TO.C,S15*%
X145439727Y-102427945D03*
X135318389Y-101542443D03*
%TD*%
%TO.C,S46*%
X320441007Y-82897276D03*
X310319669Y-83782778D03*
%TD*%
%TO.C,S44*%
X304562753Y-119982269D03*
X294441415Y-120867771D03*
%TD*%
%TO.C,S53*%
X220037183Y-152623059D03*
X209915843Y-153508561D03*
%TD*%
%TO.C,S42*%
X301242119Y-82027257D03*
X291120781Y-82912759D03*
%TD*%
%TO.C,S51*%
X164411393Y-150242109D03*
X154597585Y-147612507D03*
%TD*%
%TO.C,S13*%
X148760357Y-64472920D03*
X138639019Y-63587418D03*
%TD*%
%TO.C,S52*%
X189761941Y-153484200D03*
X179640601Y-152598698D03*
%TD*%
%TO.C,S55*%
X265945386Y-144896472D03*
X255824048Y-145781974D03*
%TD*%
%TO.C,S39*%
X283814249Y-101399906D03*
X273692911Y-102285408D03*
%TD*%
%TO.C,S9*%
X129671749Y-64082527D03*
X119550411Y-63197025D03*
%TD*%
%TO.C,S1*%
X91384663Y-64557397D03*
X81263325Y-63671895D03*
%TD*%
%TO.C,S38*%
X282153927Y-82422401D03*
X272032589Y-83307903D03*
%TD*%
%TO.C,S35*%
X264726050Y-101795063D03*
X254604712Y-102680565D03*
%TD*%
%TO.C,S40*%
X285474552Y-120377423D03*
X275353214Y-121262925D03*
%TD*%
D16*
%TO.C,U1*%
X207620002Y-76030000D03*
D14*
X207619998Y-78570000D03*
X207620000Y-81109998D03*
X207619999Y-83649997D03*
X207620000Y-86189999D03*
X207619994Y-88730000D03*
X207619999Y-91270000D03*
X207620000Y-93810000D03*
X207619995Y-96350000D03*
X207620000Y-98890002D03*
X207620001Y-101430001D03*
X207620001Y-103969996D03*
X192379998Y-103970000D03*
X192380002Y-101430000D03*
X192380000Y-98890002D03*
X192380001Y-96350003D03*
X192380000Y-93810001D03*
X192380006Y-91270000D03*
X192380001Y-88730000D03*
X192380000Y-86190000D03*
X192380005Y-83650000D03*
X192380000Y-81109998D03*
X192379999Y-78569999D03*
X192379999Y-76030004D03*
%TD*%
D15*
%TO.C,S30*%
X244475624Y-88905956D03*
X234354286Y-89791458D03*
%TD*%
%TO.C,S26*%
X225498114Y-90566269D03*
X215376776Y-91451771D03*
%TD*%
%TO.C,S29*%
X242815308Y-69928449D03*
X232693970Y-70813951D03*
%TD*%
%TO.C,S37*%
X280493604Y-63444899D03*
X270372266Y-64330401D03*
%TD*%
%TO.C,S27*%
X227158426Y-109543780D03*
X217037088Y-110429282D03*
%TD*%
%TO.C,S16*%
X143779410Y-121405446D03*
X133658072Y-120519944D03*
%TD*%
%TO.C,S14*%
X147100045Y-83450439D03*
X136978707Y-82564937D03*
%TD*%
%TO.C,S21*%
X186327565Y-72226395D03*
X176206227Y-71340893D03*
%TD*%
%TO.C,S47*%
X322101316Y-101874774D03*
X311979978Y-102760276D03*
%TD*%
%TO.C,S50*%
X143855923Y-145645965D03*
X133734585Y-144760463D03*
%TD*%
%TO.C,S54*%
X245082396Y-147748513D03*
X235268588Y-150378115D03*
%TD*%
M02*
