M48
; DRILL file KiCad 10.0.3 date 2026-06-20T15:08:11
; FORMAT={-:-/ absolute / metric / decimal}
; #@! TF.CreationDate,2026-06-20T15:08:11+09:00
; #@! TF.GenerationSoftware,Kicad,Pcbnew,10.0.3
; #@! TF.FileFunction,NonPlated,1,2,NPTH
FMAT,2
METRIC
; #@! TA.AperFunction,NonPlated,NPTH,ComponentDrill
T1C1.500
; #@! TA.AperFunction,NonPlated,NPTH,ComponentDrill
T2C1.702
; #@! TA.AperFunction,NonPlated,NPTH,ComponentDrill
T3C3.500
%
G90
G05
T1
X194.375Y-132.7
T2
X76.282Y-120.604
X77.943Y-101.627
X79.603Y-82.649
X81.263Y-63.672
X86.404Y-121.49
X88.064Y-102.512
X89.724Y-83.535
X91.385Y-64.557
X95.481Y-119.734
X97.142Y-100.757
X98.802Y-81.779
X100.462Y-62.802
X105.603Y-120.62
X107.263Y-101.642
X108.923Y-82.665
X110.584Y-63.687
X114.569Y-120.13
X114.757Y-143.1
X116.23Y-101.152
X117.89Y-82.175
X119.55Y-63.197
X124.691Y-121.015
X124.878Y-143.986
X126.351Y-102.038
X128.011Y-83.06
X129.672Y-64.083
X133.658Y-120.52
X133.735Y-144.76
X135.318Y-101.542
X136.979Y-82.565
X138.639Y-63.587
X143.779Y-121.405
X143.856Y-145.646
X145.44Y-102.428
X147.1Y-83.45
X148.76Y-64.473
X152.248Y-126.613
X153.908Y-107.636
X154.598Y-147.613
X155.568Y-88.658
X157.229Y-69.681
X162.369Y-127.499
X164.029Y-108.521
X164.411Y-150.242
X165.69Y-89.544
X167.35Y-70.566
X171.225Y-128.273
X172.886Y-109.296
X174.546Y-90.318
X176.206Y-71.341
X179.641Y-152.599
X181.347Y-129.159
X183.007Y-110.181
X184.667Y-91.204
X186.328Y-72.226
X189.762Y-153.484
X209.916Y-153.509
X213.716Y-72.474
X215.377Y-91.452
X217.037Y-110.429
X218.697Y-129.407
X220.037Y-152.623
X223.838Y-71.589
X225.498Y-90.566
X227.158Y-109.544
X228.819Y-128.521
X232.694Y-70.814
X234.354Y-89.791
X235.269Y-150.378
X236.015Y-108.769
X237.675Y-127.746
X242.815Y-69.928
X244.476Y-88.906
X245.082Y-147.749
X246.136Y-107.883
X247.796Y-126.861
X251.284Y-64.726
X252.944Y-83.703
X254.605Y-102.681
X255.824Y-145.782
X256.265Y-121.658
X261.405Y-63.84
X263.066Y-82.818
X264.726Y-101.795
X265.945Y-144.896
X266.386Y-120.773
X270.372Y-64.33
X272.033Y-83.308
X273.693Y-102.285
X274.802Y-144.122
X275.353Y-121.263
X280.494Y-63.445
X282.154Y-82.422
X283.814Y-101.4
X284.923Y-143.236
X285.475Y-120.377
X289.46Y-63.935
X291.121Y-82.913
X292.781Y-101.89
X294.441Y-120.868
X299.582Y-63.05
X301.242Y-82.027
X302.902Y-101.005
X304.563Y-119.982
X308.659Y-64.805
X310.32Y-83.783
X311.98Y-102.76
X313.64Y-121.738
X318.781Y-63.92
X320.441Y-82.897
X322.101Y-101.875
X323.762Y-120.852
T3
X93.9Y-134.1
X95.1Y-73.2
X170.95Y-80.45
X171.7Y-140.05
X228.05Y-140.25
X229.1Y-80.7
X304.95Y-73.4
X305.75Y-134.55
M30
