G04 #@! TF.GenerationSoftware,KiCad,Pcbnew,9.0.7*
G04 #@! TF.CreationDate,2026-02-21T19:32:25+09:00*
G04 #@! TF.ProjectId,TrueStrike56,54727565-5374-4726-996b-6535362e6b69,rev?*
G04 #@! TF.SameCoordinates,Original*
G04 #@! TF.FileFunction,Profile,NP*
%FSLAX46Y46*%
G04 Gerber Fmt 4.6, Leading zero omitted, Abs format (unit mm)*
G04 Created by KiCad (PCBNEW 9.0.7) date 2026-02-21 19:32:25*
%MOMM*%
%LPD*%
G01*
G04 APERTURE LIST*
G04 #@! TA.AperFunction,Profile*
%ADD10C,0.050000*%
G04 #@! TD*
G04 #@! TA.AperFunction,Profile*
%ADD11C,0.120000*%
G04 #@! TD*
G04 APERTURE END LIST*
D10*
X337596977Y-36284878D02*
X357307371Y-109944881D01*
X156596574Y-149975276D02*
X119563372Y-140018480D01*
X261447774Y-158204874D02*
X237876571Y-174714872D01*
X119563372Y-140018480D02*
X78364574Y-109894077D01*
X237876571Y-174714872D02*
X197795373Y-174714874D01*
X174224176Y-158204874D02*
X156596574Y-149975276D01*
X154615373Y-46190877D02*
X173004972Y-51118472D01*
X173004972Y-51118472D02*
X208666567Y-64934970D01*
X357307371Y-109944881D02*
X316057774Y-140018475D01*
X98074974Y-36284875D02*
X117175772Y-38774069D01*
X135870174Y-42482478D02*
X154615373Y-46190877D01*
X279075370Y-149975281D02*
X261447774Y-158204874D01*
X262666976Y-51118477D02*
X281056571Y-46190873D01*
X281056571Y-46190873D02*
X299750973Y-42482475D01*
X316057774Y-140018475D02*
X279075370Y-149975281D01*
X78364574Y-109894077D02*
X98074974Y-36284875D01*
X318496172Y-38774073D02*
X337596977Y-36284878D01*
X299750973Y-42482475D02*
X318496172Y-38774073D01*
X197795373Y-174714874D02*
X174224176Y-158204874D01*
X208666567Y-64934970D02*
X227005373Y-64934966D01*
X117175772Y-38774069D02*
X135870174Y-42482478D01*
X227005373Y-64934966D02*
X262666976Y-51118477D01*
D11*
X247004673Y-96015968D02*
X246171275Y-92905687D01*
X247004673Y-96015968D02*
X243450067Y-96968421D01*
X246171275Y-92905687D02*
X242616669Y-93858140D01*
X242616669Y-93858140D02*
X243450067Y-96968421D01*
X256865672Y-132817741D02*
X256032274Y-129707460D01*
X256865672Y-132817741D02*
X253311066Y-133770194D01*
X256032274Y-129707460D02*
X252477668Y-130659913D01*
X252477668Y-130659913D02*
X253311066Y-133770194D01*
X270573299Y-150408991D02*
X269212468Y-147490680D01*
X267238086Y-151964226D02*
X270573299Y-150408991D01*
X265877255Y-149045915D02*
X269212468Y-147490680D01*
X265877255Y-149045915D02*
X267238086Y-151964226D01*
X277725496Y-63460527D02*
X276892098Y-60350246D01*
X274170890Y-64412980D02*
X277725496Y-63460527D01*
X273337492Y-61302699D02*
X276892098Y-60350246D01*
X273337492Y-61302699D02*
X274170890Y-64412980D01*
X301385578Y-78157648D02*
X300552180Y-75047367D01*
X301385578Y-78157648D02*
X297830972Y-79110101D01*
X300552180Y-75047367D02*
X296997574Y-75999820D01*
X296997574Y-75999820D02*
X297830972Y-79110101D01*
X95955997Y-88219876D02*
X92401390Y-87267422D01*
X95122600Y-91330158D02*
X95955997Y-88219876D01*
X95122600Y-91330158D02*
X91567993Y-90377704D01*
X92401390Y-87267422D02*
X91567993Y-90377704D01*
X339173455Y-71976815D02*
X338340057Y-68866534D01*
X339173455Y-71976815D02*
X335618849Y-72929268D01*
X338340057Y-68866534D02*
X334785451Y-69818987D01*
X334785451Y-69818987D02*
X335618849Y-72929268D01*
X119111388Y-75406325D02*
X119944785Y-72296043D01*
X116390178Y-71343589D02*
X119944785Y-72296043D01*
X116390178Y-71343589D02*
X115556781Y-74453871D01*
X115556781Y-74453871D02*
X119111388Y-75406325D01*
X146709549Y-119615647D02*
X147542946Y-116505365D01*
X143988339Y-115552911D02*
X147542946Y-116505365D01*
X143988339Y-115552911D02*
X143154942Y-118663193D01*
X143154942Y-118663193D02*
X146709549Y-119615647D01*
X329976175Y-111255641D02*
X329142777Y-108145360D01*
X329976175Y-111255641D02*
X326421569Y-112208094D01*
X329142777Y-108145360D02*
X325588171Y-109097813D01*
X325588171Y-109097813D02*
X326421569Y-112208094D01*
X179584902Y-70526752D02*
X176030295Y-69574298D01*
X178751505Y-73637034D02*
X179584902Y-70526752D01*
X178751505Y-73637034D02*
X175196898Y-72684580D01*
X176030295Y-69574298D02*
X175196898Y-72684580D01*
X307798395Y-138892368D02*
X306964997Y-135782087D01*
X304243789Y-139844821D02*
X307798395Y-138892368D01*
X303410391Y-136734540D02*
X306964997Y-135782087D01*
X303410391Y-136734540D02*
X304243789Y-139844821D01*
X182360875Y-133770201D02*
X183194272Y-130659919D01*
X179639665Y-129707465D02*
X183194272Y-130659919D01*
X179639665Y-129707465D02*
X178806268Y-132817747D01*
X178806268Y-132817747D02*
X182360875Y-133770201D01*
X270336059Y-109486356D02*
X269502661Y-106376075D01*
X266781453Y-110438809D02*
X270336059Y-109486356D01*
X265948055Y-107328528D02*
X269502661Y-106376075D01*
X265948055Y-107328528D02*
X266781453Y-110438809D01*
X251935174Y-114416849D02*
X251101776Y-111306568D01*
X248380568Y-115369302D02*
X251935174Y-114416849D01*
X247547170Y-112259021D02*
X251101776Y-111306568D01*
X247547170Y-112259021D02*
X248380568Y-115369302D01*
X189381740Y-164759488D02*
X191228656Y-162121819D01*
X188214176Y-160011058D02*
X191228656Y-162121819D01*
X188214176Y-160011058D02*
X186367260Y-162648727D01*
X186367260Y-162648727D02*
X189381740Y-164759488D01*
X163959993Y-128839685D02*
X164793390Y-125729403D01*
X161238783Y-124776949D02*
X164793390Y-125729403D01*
X161238783Y-124776949D02*
X160405386Y-127887231D01*
X160405386Y-127887231D02*
X163959993Y-128839685D01*
X249252021Y-162738005D02*
X247405105Y-160100336D01*
X246237541Y-164848766D02*
X249252021Y-162738005D01*
X244390625Y-162211097D02*
X247405105Y-160100336D01*
X244390625Y-162211097D02*
X246237541Y-164848766D01*
X173821002Y-92037920D02*
X174654399Y-88927638D01*
X171099792Y-87975184D02*
X174654399Y-88927638D01*
X171099792Y-87975184D02*
X170266395Y-91085466D01*
X170266395Y-91085466D02*
X173821002Y-92037920D01*
X133743863Y-94400709D02*
X130189256Y-93448255D01*
X132910466Y-97510991D02*
X133743863Y-94400709D01*
X132910466Y-97510991D02*
X129355859Y-96558537D01*
X130189256Y-93448255D02*
X129355859Y-96558537D01*
X162334459Y-61302715D02*
X158779852Y-60350261D01*
X161501062Y-64412997D02*
X162334459Y-61302715D01*
X161501062Y-64412997D02*
X157946455Y-63460543D01*
X158779852Y-60350261D02*
X157946455Y-63460543D01*
X260475051Y-72684578D02*
X259641653Y-69574297D01*
X256920445Y-73637031D02*
X260475051Y-72684578D01*
X256087047Y-70526750D02*
X259641653Y-69574297D01*
X256087047Y-70526750D02*
X256920445Y-73637031D01*
X306316082Y-96558532D02*
X305482684Y-93448251D01*
X302761476Y-97510985D02*
X306316082Y-96558532D01*
X301928078Y-94400704D02*
X305482684Y-93448251D01*
X301928078Y-94400704D02*
X302761476Y-97510985D01*
X292517000Y-118663188D02*
X291683602Y-115552907D01*
X292517000Y-118663188D02*
X288962394Y-119615641D01*
X291683602Y-115552907D02*
X288128996Y-116505360D01*
X288128996Y-116505360D02*
X288962394Y-119615641D01*
X127979966Y-115911877D02*
X128813363Y-112801595D01*
X125258756Y-111849141D02*
X128813363Y-112801595D01*
X125258756Y-111849141D02*
X124425359Y-114959423D01*
X124425359Y-114959423D02*
X127979966Y-115911877D01*
X149829033Y-144775335D02*
X150662430Y-141665053D01*
X147107823Y-140712599D02*
X150662430Y-141665053D01*
X147107823Y-140712599D02*
X146274426Y-143822881D01*
X146274426Y-143822881D02*
X149829033Y-144775335D01*
X265405556Y-91085470D02*
X264572158Y-87975189D01*
X265405556Y-91085470D02*
X261850950Y-92037923D01*
X264572158Y-87975189D02*
X261017552Y-88927642D01*
X261017552Y-88927642D02*
X261850950Y-92037923D01*
X115014288Y-90696925D02*
X111459681Y-89744471D01*
X114180891Y-93807207D02*
X115014288Y-90696925D01*
X114180891Y-93807207D02*
X110626284Y-92854753D01*
X111459681Y-89744471D02*
X110626284Y-92854753D01*
X109250381Y-112208096D02*
X110083778Y-109097814D01*
X106529171Y-108145360D02*
X110083778Y-109097814D01*
X106529171Y-108145360D02*
X105695774Y-111255642D01*
X105695774Y-111255642D02*
X109250381Y-112208096D01*
X169723896Y-107328514D02*
X166169289Y-106376060D01*
X168890499Y-110438796D02*
X169723896Y-107328514D01*
X168890499Y-110438796D02*
X165335892Y-109486342D01*
X166169289Y-106376060D02*
X165335892Y-109486342D01*
X349034462Y-108778577D02*
X348201064Y-105668296D01*
X349034462Y-108778577D02*
X345479856Y-109731030D01*
X348201064Y-105668296D02*
X344646458Y-106620749D01*
X344646458Y-106620749D02*
X345479856Y-109731030D01*
X344103959Y-90377697D02*
X343270561Y-87267416D01*
X340549353Y-91330150D02*
X344103959Y-90377697D01*
X339715955Y-88219869D02*
X343270561Y-87267416D01*
X339715955Y-88219869D02*
X340549353Y-91330150D01*
X325045669Y-92854760D02*
X324212271Y-89744479D01*
X321491063Y-93807213D02*
X325045669Y-92854760D01*
X320657665Y-90696932D02*
X324212271Y-89744479D01*
X320657665Y-90696932D02*
X321491063Y-93807213D01*
X156570567Y-82813871D02*
X157403964Y-79703589D01*
X153849357Y-78751135D02*
X157403964Y-79703589D01*
X153849357Y-78751135D02*
X153015960Y-81861417D01*
X153015960Y-81861417D02*
X156570567Y-82813871D01*
X311246585Y-114959413D02*
X310413187Y-111849132D01*
X311246585Y-114959413D02*
X307691979Y-115911866D01*
X310413187Y-111849132D02*
X306858581Y-112801585D01*
X306858581Y-112801585D02*
X307691979Y-115911866D01*
X242074165Y-77615073D02*
X241240767Y-74504792D01*
X238519559Y-78567526D02*
X242074165Y-77615073D01*
X237686161Y-75457245D02*
X241240767Y-74504792D01*
X237686161Y-75457245D02*
X238519559Y-78567526D01*
X124875287Y-53895147D02*
X121320680Y-52942693D01*
X124041890Y-57005429D02*
X124875287Y-53895147D01*
X124041890Y-57005429D02*
X120487283Y-56052975D01*
X121320680Y-52942693D02*
X120487283Y-56052975D01*
X275266565Y-127887238D02*
X274433167Y-124776957D01*
X275266565Y-127887238D02*
X271711959Y-128839691D01*
X274433167Y-124776957D02*
X270878561Y-125729410D01*
X270878561Y-125729410D02*
X271711959Y-128839691D01*
X131428165Y-139844831D02*
X132261562Y-136734549D01*
X128706955Y-135782095D02*
X132261562Y-136734549D01*
X128706955Y-135782095D02*
X127873558Y-138892377D01*
X127873558Y-138892377D02*
X131428165Y-139844831D01*
X90192094Y-109731042D02*
X91025491Y-106620760D01*
X87470884Y-105668306D02*
X91025491Y-106620760D01*
X87470884Y-105668306D02*
X86637487Y-108778588D01*
X86637487Y-108778588D02*
X90192094Y-109731042D01*
X168433861Y-151964232D02*
X169794692Y-149045921D01*
X166459479Y-147490686D02*
X169794692Y-149045921D01*
X166459479Y-147490686D02*
X165098648Y-150408997D01*
X165098648Y-150408997D02*
X168433861Y-151964232D01*
X188124771Y-112259028D02*
X184570164Y-111306574D01*
X187291374Y-115369310D02*
X188124771Y-112259028D01*
X187291374Y-115369310D02*
X183736767Y-114416856D01*
X184570164Y-111306574D02*
X183736767Y-114416856D01*
X289385410Y-143777681D02*
X288552012Y-140667400D01*
X285830804Y-144730134D02*
X289385410Y-143777681D01*
X284997406Y-141619853D02*
X288552012Y-140667400D01*
X284997406Y-141619853D02*
X285830804Y-144730134D01*
X315184657Y-56052979D02*
X314351259Y-52942698D01*
X311630051Y-57005432D02*
X315184657Y-56052979D01*
X310796653Y-53895151D02*
X314351259Y-52942698D01*
X310796653Y-53895151D02*
X311630051Y-57005432D01*
X105817004Y-51418095D02*
X102262397Y-50465641D01*
X104983607Y-54528377D02*
X105817004Y-51418095D01*
X104983607Y-54528377D02*
X101429000Y-53575923D01*
X102262397Y-50465641D02*
X101429000Y-53575923D01*
X287586500Y-100262300D02*
X286753102Y-97152019D01*
X284031894Y-101214753D02*
X287586500Y-100262300D01*
X283198496Y-98104472D02*
X286753102Y-97152019D01*
X283198496Y-98104472D02*
X284031894Y-101214753D01*
X296455082Y-59756757D02*
X295621684Y-56646476D01*
X292900476Y-60709210D02*
X296455082Y-59756757D01*
X292067078Y-57598929D02*
X295621684Y-56646476D01*
X292067078Y-57598929D02*
X292900476Y-60709210D01*
X282655999Y-81861414D02*
X281822601Y-78751133D01*
X282655999Y-81861414D02*
X279101393Y-82813867D01*
X281822601Y-78751133D02*
X278267995Y-79703586D01*
X278267995Y-79703586D02*
X279101393Y-82813867D01*
X137840978Y-79110097D02*
X138674375Y-75999815D01*
X135119768Y-75047361D02*
X138674375Y-75999815D01*
X135119768Y-75047361D02*
X134286371Y-78157643D01*
X134286371Y-78157643D02*
X137840978Y-79110097D01*
X152473457Y-98104482D02*
X148918850Y-97152028D01*
X151640060Y-101214764D02*
X152473457Y-98104482D01*
X151640060Y-101214764D02*
X148085453Y-100262310D01*
X148918850Y-97152028D02*
X148085453Y-100262310D01*
X192221885Y-96968423D02*
X193055282Y-93858141D01*
X189500675Y-92905687D02*
X193055282Y-93858141D01*
X189500675Y-92905687D02*
X188667278Y-96015969D01*
X188667278Y-96015969D02*
X192221885Y-96968423D01*
X143604873Y-57598936D02*
X140050266Y-56646482D01*
X142771476Y-60709218D02*
X143604873Y-57598936D01*
X142771476Y-60709218D02*
X139216869Y-59756764D01*
X140050266Y-56646482D02*
X139216869Y-59756764D01*
X320115165Y-74453865D02*
X319281767Y-71343584D01*
X320115165Y-74453865D02*
X316560559Y-75406318D01*
X319281767Y-71343584D02*
X315727161Y-72296037D01*
X315727161Y-72296037D02*
X316560559Y-75406318D01*
X100053099Y-72929263D02*
X100886496Y-69818981D01*
X97331889Y-68866527D02*
X100886496Y-69818981D01*
X97331889Y-68866527D02*
X96498492Y-71976809D01*
X96498492Y-71976809D02*
X100053099Y-72929263D01*
X334242951Y-53575923D02*
X333409553Y-50465642D01*
X330688345Y-54528376D02*
X334242951Y-53575923D01*
X329854947Y-51418095D02*
X333409553Y-50465642D01*
X329854947Y-51418095D02*
X330688345Y-54528376D01*
X197985778Y-75457245D02*
X194431171Y-74504791D01*
X197152381Y-78567527D02*
X197985778Y-75457245D01*
X197152381Y-78567527D02*
X193597774Y-77615073D01*
X194431171Y-74504791D02*
X193597774Y-77615073D01*
M02*
