M48
; DRILL file {KiCad 9.0.7} date 2026-02-21T16:52:33+0900
; FORMAT={-:-/ absolute / metric / decimal}
; #@! TF.CreationDate,2026-02-21T16:52:33+09:00
; #@! TF.GenerationSoftware,Kicad,Pcbnew,9.0.7
; #@! TF.FileFunction,NonPlated,1,2,NPTH
FMAT,2
METRIC
; #@! TA.AperFunction,NonPlated,NPTH,ComponentDrill
T1C1.702
; #@! TA.AperFunction,NonPlated,NPTH,ComponentDrill
T2C2.200
; #@! TA.AperFunction,NonPlated,NPTH,ComponentDrill
T3C3.500
%
G90
G05
T1
X85.141Y-101.846
X90.071Y-83.445
X94.955Y-104.476
X95.002Y-65.044
X99.885Y-86.075
X99.932Y-46.643
X104.199Y-104.323
X104.816Y-67.674
X109.13Y-85.922
X109.746Y-49.273
X114.013Y-106.953
X114.06Y-67.521
X118.943Y-88.552
X118.991Y-49.12
X122.929Y-108.027
X123.874Y-70.151
X126.377Y-131.96
X127.859Y-89.626
X128.804Y-51.75
X132.742Y-110.656
X132.79Y-71.225
X136.191Y-134.589
X137.673Y-92.256
X137.72Y-52.824
X141.659Y-111.726
X142.603Y-73.855
X144.778Y-136.89
X146.59Y-93.325
X147.534Y-55.454
X151.473Y-114.356
X151.52Y-74.924
X154.592Y-139.52
X156.404Y-95.955
X156.451Y-56.523
X158.909Y-120.955
X161.334Y-77.554
X163.839Y-102.554
X164.829Y-143.322
X166.265Y-59.153
X168.722Y-123.584
X168.77Y-84.153
X173.653Y-105.183
X173.7Y-65.752
X174.037Y-147.616
X177.31Y-125.885
X178.583Y-86.782
X182.24Y-107.484
X183.514Y-68.382
X187.123Y-128.515
X187.171Y-89.083
X187.385Y-155.712
X192.054Y-110.114
X192.101Y-70.682
X195.707Y-161.539
X196.984Y-91.713
X201.915Y-73.312
X233.757Y-73.312
X238.688Y-91.713
X239.965Y-161.539
X243.571Y-70.682
X243.618Y-110.114
X248.287Y-155.712
X248.501Y-89.083
X248.549Y-128.515
X252.158Y-68.382
X253.432Y-107.484
X257.088Y-86.782
X258.362Y-125.885
X261.635Y-147.616
X261.972Y-65.752
X262.019Y-105.183
X266.902Y-84.153
X266.949Y-123.584
X269.408Y-59.158
X270.843Y-143.322
X271.833Y-102.554
X274.339Y-77.558
X276.763Y-120.955
X279.222Y-56.528
X279.269Y-95.959
X281.08Y-139.52
X284.153Y-74.929
X284.2Y-114.36
X288.138Y-55.454
X289.083Y-93.33
X290.894Y-136.89
X293.068Y-73.855
X294.014Y-111.731
X297.952Y-52.824
X297.999Y-92.256
X299.481Y-134.589
X302.882Y-71.225
X302.929Y-110.656
X306.868Y-51.75
X307.813Y-89.626
X309.295Y-131.96
X311.798Y-70.151
X312.743Y-108.027
X316.681Y-49.12
X316.729Y-88.552
X321.612Y-67.521
X321.659Y-106.953
X325.926Y-49.273
X326.542Y-85.922
X330.856Y-67.674
X331.473Y-104.323
X335.74Y-46.643
X335.787Y-86.075
X340.67Y-65.044
X340.717Y-104.476
X345.601Y-83.445
X350.531Y-101.846
T2
X194.341Y-141.466
X205.136Y-93.206
X230.536Y-93.206
X241.331Y-141.466
T3
X100.457Y-117.729
X112.014Y-58.293
X162.179Y-134.62
X185.293Y-78.74
X250.317Y-78.74
X273.431Y-134.62
X323.596Y-58.293
X335.153Y-117.729
M30
