%TF.GenerationSoftware,KiCad,Pcbnew,9.0.7*%
%TF.CreationDate,2026-02-21T16:52:33+09:00*%
%TF.ProjectId,TrueStrike56,54727565-5374-4726-996b-6535362e6b69,rev?*%
%TF.SameCoordinates,Original*%
%TF.FileFunction,Drillmap*%
%TF.FilePolarity,Positive*%
%FSLAX45Y45*%
G04 Gerber Fmt 4.5, Leading zero omitted, Abs format (unit mm)*
G04 Created by KiCad (PCBNEW 9.0.7) date 2026-02-21 16:52:33*
%MOMM*%
%LPD*%
G01*
G04 APERTURE LIST*
%ADD10C,0.050000*%
%ADD11C,0.120000*%
%ADD12C,0.200000*%
%ADD13C,0.100000*%
%ADD14C,0.110000*%
G04 APERTURE END LIST*
D10*
X33759698Y-3628488D02*
X35730737Y-10994488D01*
X15659657Y-14997528D02*
X11956337Y-14001848D01*
X26144777Y-15820487D02*
X23787657Y-17471487D01*
X11956337Y-14001848D02*
X7836457Y-10989408D01*
X23787657Y-17471487D02*
X19779537Y-17471487D01*
X17422418Y-15820487D02*
X15659657Y-14997528D01*
X15461537Y-4619088D02*
X17300497Y-5111847D01*
X17300497Y-5111847D02*
X20866657Y-6493497D01*
X35730737Y-10994488D02*
X31605777Y-14001847D01*
X9807497Y-3628487D02*
X11717577Y-3877407D01*
X13587017Y-4248248D02*
X15461537Y-4619088D01*
X27907537Y-14997528D02*
X26144777Y-15820487D01*
X26266698Y-5111848D02*
X28105657Y-4619087D01*
X28105657Y-4619087D02*
X29975097Y-4248248D01*
X31605777Y-14001847D02*
X27907537Y-14997528D01*
X7836457Y-10989408D02*
X9807497Y-3628487D01*
X31849617Y-3877407D02*
X33759698Y-3628488D01*
X29975097Y-4248248D02*
X31849617Y-3877407D01*
X19779537Y-17471487D02*
X17422418Y-15820487D01*
X20866657Y-6493497D02*
X22700537Y-6493497D01*
X11717577Y-3877407D02*
X13587017Y-4248248D01*
X22700537Y-6493497D02*
X26266698Y-5111848D01*
D11*
X24700467Y-9601597D02*
X24617127Y-9290569D01*
X24700467Y-9601597D02*
X24345007Y-9696842D01*
X24617127Y-9290569D02*
X24261667Y-9385814D01*
X24261667Y-9385814D02*
X24345007Y-9696842D01*
X25686567Y-13281774D02*
X25603227Y-12970746D01*
X25686567Y-13281774D02*
X25331107Y-13377019D01*
X25603227Y-12970746D02*
X25247767Y-13065991D01*
X25247767Y-13065991D02*
X25331107Y-13377019D01*
X27057330Y-15040899D02*
X26921247Y-14749068D01*
X26723809Y-15196423D02*
X27057330Y-15040899D01*
X26587725Y-14904591D02*
X26921247Y-14749068D01*
X26587725Y-14904591D02*
X26723809Y-15196423D01*
X27772550Y-6346053D02*
X27689210Y-6035025D01*
X27417089Y-6441298D02*
X27772550Y-6346053D01*
X27333749Y-6130270D02*
X27689210Y-6035025D01*
X27333749Y-6130270D02*
X27417089Y-6441298D01*
X30138558Y-7815765D02*
X30055218Y-7504737D01*
X30138558Y-7815765D02*
X29783097Y-7911010D01*
X30055218Y-7504737D02*
X29699757Y-7599982D01*
X29699757Y-7599982D02*
X29783097Y-7911010D01*
X9595600Y-8821988D02*
X9240139Y-8726742D01*
X9512260Y-9133016D02*
X9595600Y-8821988D01*
X9512260Y-9133016D02*
X9156799Y-9037770D01*
X9240139Y-8726742D02*
X9156799Y-9037770D01*
X33917346Y-7197681D02*
X33834006Y-6886653D01*
X33917346Y-7197681D02*
X33561885Y-7292927D01*
X33834006Y-6886653D02*
X33478545Y-6981899D01*
X33478545Y-6981899D02*
X33561885Y-7292927D01*
X11911139Y-7540632D02*
X11994478Y-7229604D01*
X11639018Y-7134359D02*
X11994478Y-7229604D01*
X11639018Y-7134359D02*
X11555678Y-7445387D01*
X11555678Y-7445387D02*
X11911139Y-7540632D01*
X14670955Y-11961565D02*
X14754295Y-11650536D01*
X14398834Y-11555291D02*
X14754295Y-11650536D01*
X14398834Y-11555291D02*
X14315494Y-11866319D01*
X14315494Y-11866319D02*
X14670955Y-11961565D01*
X32997617Y-11125564D02*
X32914278Y-10814536D01*
X32997617Y-11125564D02*
X32642157Y-11220809D01*
X32914278Y-10814536D02*
X32558817Y-10909781D01*
X32558817Y-10909781D02*
X32642157Y-11220809D01*
X17958490Y-7052675D02*
X17603030Y-6957430D01*
X17875151Y-7363703D02*
X17958490Y-7052675D01*
X17875151Y-7363703D02*
X17519690Y-7268458D01*
X17603030Y-6957430D02*
X17519690Y-7268458D01*
X30779839Y-13889237D02*
X30696500Y-13578209D01*
X30424379Y-13984482D02*
X30779839Y-13889237D01*
X30341039Y-13673454D02*
X30696500Y-13578209D01*
X30341039Y-13673454D02*
X30424379Y-13984482D01*
X18236088Y-13377020D02*
X18319427Y-13065992D01*
X17963967Y-12970746D02*
X18319427Y-13065992D01*
X17963967Y-12970746D02*
X17880627Y-13281775D01*
X17880627Y-13281775D02*
X18236088Y-13377020D01*
X27033606Y-10948636D02*
X26950266Y-10637608D01*
X26678145Y-11043881D02*
X27033606Y-10948636D01*
X26594805Y-10732853D02*
X26950266Y-10637608D01*
X26594805Y-10732853D02*
X26678145Y-11043881D01*
X25193517Y-11441685D02*
X25110178Y-11130657D01*
X24838057Y-11536930D02*
X25193517Y-11441685D01*
X24754717Y-11225902D02*
X25110178Y-11130657D01*
X24754717Y-11225902D02*
X24838057Y-11536930D01*
X18938174Y-16475949D02*
X19122866Y-16212182D01*
X18821418Y-16001106D02*
X19122866Y-16212182D01*
X18821418Y-16001106D02*
X18636726Y-16264873D01*
X18636726Y-16264873D02*
X18938174Y-16475949D01*
X16395999Y-12883968D02*
X16479339Y-12572940D01*
X16123878Y-12477695D02*
X16479339Y-12572940D01*
X16123878Y-12477695D02*
X16040539Y-12788723D01*
X16040539Y-12788723D02*
X16395999Y-12883968D01*
X24925202Y-16273800D02*
X24740510Y-16010034D01*
X24623754Y-16484877D02*
X24925202Y-16273800D01*
X24439062Y-16221110D02*
X24740510Y-16010034D01*
X24439062Y-16221110D02*
X24623754Y-16484877D01*
X17382100Y-9203792D02*
X17465440Y-8892764D01*
X17109979Y-8797518D02*
X17465440Y-8892764D01*
X17109979Y-8797518D02*
X17026640Y-9108547D01*
X17026640Y-9108547D02*
X17382100Y-9203792D01*
X13374386Y-9440071D02*
X13018926Y-9344826D01*
X13291047Y-9751099D02*
X13374386Y-9440071D01*
X13291047Y-9751099D02*
X12935586Y-9655854D01*
X13018926Y-9344826D02*
X12935586Y-9655854D01*
X16233446Y-6130271D02*
X15877985Y-6035026D01*
X16150106Y-6441300D02*
X16233446Y-6130271D01*
X16150106Y-6441300D02*
X15794645Y-6346054D01*
X15877985Y-6035026D02*
X15794645Y-6346054D01*
X26047505Y-7268458D02*
X25964165Y-6957430D01*
X25692044Y-7363703D02*
X26047505Y-7268458D01*
X25608705Y-7052675D02*
X25964165Y-6957430D01*
X25608705Y-7052675D02*
X25692044Y-7363703D01*
X30631608Y-9655853D02*
X30548268Y-9344825D01*
X30276148Y-9751099D02*
X30631608Y-9655853D01*
X30192808Y-9440070D02*
X30548268Y-9344825D01*
X30192808Y-9440070D02*
X30276148Y-9751099D01*
X29251700Y-11866319D02*
X29168360Y-11555291D01*
X29251700Y-11866319D02*
X28896239Y-11961564D01*
X29168360Y-11555291D02*
X28812900Y-11650536D01*
X28812900Y-11650536D02*
X28896239Y-11961564D01*
X12797997Y-11591188D02*
X12881336Y-11280159D01*
X12525876Y-11184914D02*
X12881336Y-11280159D01*
X12525876Y-11184914D02*
X12442536Y-11495942D01*
X12442536Y-11495942D02*
X12797997Y-11591188D01*
X14982903Y-14477533D02*
X15066243Y-14166505D01*
X14710782Y-14071260D02*
X15066243Y-14166505D01*
X14710782Y-14071260D02*
X14627443Y-14382288D01*
X14627443Y-14382288D02*
X14982903Y-14477533D01*
X26540556Y-9108547D02*
X26457216Y-8797519D01*
X26540556Y-9108547D02*
X26185095Y-9203792D01*
X26457216Y-8797519D02*
X26101755Y-8892764D01*
X26101755Y-8892764D02*
X26185095Y-9203792D01*
X11501429Y-9069693D02*
X11145968Y-8974447D01*
X11418089Y-9380721D02*
X11501429Y-9069693D01*
X11418089Y-9380721D02*
X11062628Y-9285475D01*
X11145968Y-8974447D02*
X11062628Y-9285475D01*
X10925038Y-11220810D02*
X11008378Y-10909781D01*
X10652917Y-10814536D02*
X11008378Y-10909781D01*
X10652917Y-10814536D02*
X10569577Y-11125564D01*
X10569577Y-11125564D02*
X10925038Y-11220810D01*
X16972390Y-10732851D02*
X16616929Y-10637606D01*
X16889050Y-11043880D02*
X16972390Y-10732851D01*
X16889050Y-11043880D02*
X16533589Y-10948634D01*
X16616929Y-10637606D02*
X16533589Y-10948634D01*
X34903446Y-10877858D02*
X34820106Y-10566830D01*
X34903446Y-10877858D02*
X34547986Y-10973103D01*
X34820106Y-10566830D02*
X34464646Y-10662075D01*
X34464646Y-10662075D02*
X34547986Y-10973103D01*
X34410396Y-9037770D02*
X34327056Y-8726742D01*
X34054935Y-9133015D02*
X34410396Y-9037770D01*
X33971596Y-8821987D02*
X34327056Y-8726742D01*
X33971596Y-8821987D02*
X34054935Y-9133015D01*
X32504567Y-9285476D02*
X32421227Y-8974448D01*
X32149106Y-9380721D02*
X32504567Y-9285476D01*
X32065766Y-9069693D02*
X32421227Y-8974448D01*
X32065766Y-9069693D02*
X32149106Y-9380721D01*
X15657057Y-8281387D02*
X15740396Y-7970359D01*
X15384936Y-7875113D02*
X15740396Y-7970359D01*
X15384936Y-7875113D02*
X15301596Y-8186142D01*
X15301596Y-8186142D02*
X15657057Y-8281387D01*
X31124658Y-11495941D02*
X31041319Y-11184913D01*
X31124658Y-11495941D02*
X30769198Y-11591187D01*
X31041319Y-11184913D02*
X30685858Y-11280158D01*
X30685858Y-11280158D02*
X30769198Y-11591187D01*
X24207416Y-7761507D02*
X24124077Y-7450479D01*
X23851956Y-7856753D02*
X24207416Y-7761507D01*
X23768616Y-7545724D02*
X24124077Y-7450479D01*
X23768616Y-7545724D02*
X23851956Y-7856753D01*
X12487529Y-5389515D02*
X12132068Y-5294269D01*
X12404189Y-5700543D02*
X12487529Y-5389515D01*
X12404189Y-5700543D02*
X12048728Y-5605297D01*
X12132068Y-5294269D02*
X12048728Y-5605297D01*
X27526656Y-12788724D02*
X27443317Y-12477696D01*
X27526656Y-12788724D02*
X27171196Y-12883969D01*
X27443317Y-12477696D02*
X27087856Y-12572941D01*
X27087856Y-12572941D02*
X27171196Y-12883969D01*
X13142816Y-13984483D02*
X13226156Y-13673455D01*
X12870695Y-13578209D02*
X13226156Y-13673455D01*
X12870695Y-13578209D02*
X12787356Y-13889238D01*
X12787356Y-13889238D02*
X13142816Y-13984483D01*
X9019209Y-10973104D02*
X9102549Y-10662076D01*
X8747088Y-10566831D02*
X9102549Y-10662076D01*
X8747088Y-10566831D02*
X8663749Y-10877859D01*
X8663749Y-10877859D02*
X9019209Y-10973104D01*
X16843386Y-15196423D02*
X16979469Y-14904592D01*
X16645948Y-14749069D02*
X16979469Y-14904592D01*
X16645948Y-14749069D02*
X16509865Y-15040900D01*
X16509865Y-15040900D02*
X16843386Y-15196423D01*
X18812477Y-11225903D02*
X18457016Y-11130657D01*
X18729137Y-11536931D02*
X18812477Y-11225903D01*
X18729137Y-11536931D02*
X18373677Y-11441686D01*
X18457016Y-11130657D02*
X18373677Y-11441686D01*
X28938541Y-14377768D02*
X28855201Y-14066740D01*
X28583080Y-14473013D02*
X28938541Y-14377768D01*
X28499741Y-14161985D02*
X28855201Y-14066740D01*
X28499741Y-14161985D02*
X28583080Y-14473013D01*
X31518466Y-5605298D02*
X31435126Y-5294270D01*
X31163005Y-5700543D02*
X31518466Y-5605298D01*
X31079665Y-5389515D02*
X31435126Y-5294270D01*
X31079665Y-5389515D02*
X31163005Y-5700543D01*
X10581700Y-5141810D02*
X10226240Y-5046564D01*
X10498361Y-5452838D02*
X10581700Y-5141810D01*
X10498361Y-5452838D02*
X10142900Y-5357592D01*
X10226240Y-5046564D02*
X10142900Y-5357592D01*
X28758650Y-10026230D02*
X28675310Y-9715202D01*
X28403189Y-10121475D02*
X28758650Y-10026230D01*
X28319850Y-9810447D02*
X28675310Y-9715202D01*
X28319850Y-9810447D02*
X28403189Y-10121475D01*
X29645508Y-5975676D02*
X29562168Y-5664648D01*
X29290048Y-6070921D02*
X29645508Y-5975676D01*
X29206708Y-5759893D02*
X29562168Y-5664648D01*
X29206708Y-5759893D02*
X29290048Y-6070921D01*
X28265600Y-8186141D02*
X28182260Y-7875113D01*
X28265600Y-8186141D02*
X27910139Y-8281387D01*
X28182260Y-7875113D02*
X27826799Y-7970359D01*
X27826799Y-7970359D02*
X27910139Y-8281387D01*
X13784098Y-7911010D02*
X13867437Y-7599981D01*
X13511977Y-7504736D02*
X13867437Y-7599981D01*
X13511977Y-7504736D02*
X13428637Y-7815764D01*
X13428637Y-7815764D02*
X13784098Y-7911010D01*
X15247346Y-9810448D02*
X14891885Y-9715203D01*
X15164006Y-10121476D02*
X15247346Y-9810448D01*
X15164006Y-10121476D02*
X14808545Y-10026231D01*
X14891885Y-9715203D02*
X14808545Y-10026231D01*
X19222189Y-9696842D02*
X19305528Y-9385814D01*
X18950068Y-9290569D02*
X19305528Y-9385814D01*
X18950068Y-9290569D02*
X18866728Y-9601597D01*
X18866728Y-9601597D02*
X19222189Y-9696842D01*
X14360487Y-5759894D02*
X14005027Y-5664648D01*
X14277148Y-6070922D02*
X14360487Y-5759894D01*
X14277148Y-6070922D02*
X13921687Y-5975676D01*
X14005027Y-5664648D02*
X13921687Y-5975676D01*
X32011516Y-7445386D02*
X31928177Y-7134358D01*
X32011516Y-7445386D02*
X31656056Y-7540632D01*
X31928177Y-7134358D02*
X31572716Y-7229604D01*
X31572716Y-7229604D02*
X31656056Y-7540632D01*
X10005310Y-7292926D02*
X10088650Y-6981898D01*
X9733189Y-6886653D02*
X10088650Y-6981898D01*
X9733189Y-6886653D02*
X9649849Y-7197681D01*
X9649849Y-7197681D02*
X10005310Y-7292926D01*
X33424295Y-5357592D02*
X33340955Y-5046564D01*
X33068834Y-5452838D02*
X33424295Y-5357592D01*
X32985495Y-5141810D02*
X33340955Y-5046564D01*
X32985495Y-5141810D02*
X33068834Y-5452838D01*
X19798578Y-7545724D02*
X19443117Y-7450479D01*
X19715238Y-7856753D02*
X19798578Y-7545724D01*
X19715238Y-7856753D02*
X19359777Y-7761507D01*
X19443117Y-7450479D02*
X19359777Y-7761507D01*
D12*
D13*
X8325102Y-10622607D02*
X8355102Y-10652607D01*
X8355102Y-10622607D02*
X8325102Y-10652607D01*
X8767322Y-8874083D02*
X8797322Y-8904083D01*
X8797322Y-8874083D02*
X8767322Y-8904083D01*
X9238772Y-10415548D02*
X9268772Y-10445548D01*
X9268772Y-10415548D02*
X9238772Y-10445548D01*
X9271115Y-6944835D02*
X9301115Y-6974835D01*
X9301115Y-6944835D02*
X9271115Y-6974835D01*
X9722314Y-5211864D02*
X9752314Y-5241864D01*
X9752314Y-5211864D02*
X9722314Y-5241864D01*
X9748258Y-8514124D02*
X9778258Y-8544124D01*
X9778258Y-8514124D02*
X9748258Y-8544124D01*
X10112820Y-7385582D02*
X10142820Y-7415582D01*
X10142820Y-7385582D02*
X10112820Y-7415582D01*
X10120685Y-7650649D02*
X10150685Y-7680649D01*
X10150685Y-7650649D02*
X10120685Y-7680649D01*
X10210959Y-7411878D02*
X10240959Y-7441878D01*
X10240959Y-7411878D02*
X10210959Y-7441878D01*
X10215097Y-8634752D02*
X10245097Y-8664752D01*
X10245097Y-8634752D02*
X10215097Y-8664752D01*
X10302255Y-9377402D02*
X10332255Y-9407402D01*
X10332255Y-9377402D02*
X10302255Y-9407402D01*
X10319596Y-7196918D02*
X10349596Y-7226918D01*
X10349596Y-7196918D02*
X10319596Y-7226918D01*
X10346056Y-6956757D02*
X10376056Y-6986757D01*
X10376056Y-6956757D02*
X10346056Y-6986757D01*
X10346758Y-7377682D02*
X10376758Y-7407682D01*
X10376758Y-7377682D02*
X10346758Y-7407682D01*
X10477709Y-7005182D02*
X10507709Y-7035182D01*
X10507709Y-7005182D02*
X10477709Y-7035182D01*
X10589502Y-7054703D02*
X10619502Y-7084703D01*
X10619502Y-7054703D02*
X10589502Y-7084703D01*
X10592574Y-10515338D02*
X10622574Y-10545338D01*
X10622574Y-10515338D02*
X10592574Y-10545338D01*
X10684963Y-6771459D02*
X10714963Y-6801459D01*
X10714963Y-6771459D02*
X10684963Y-6801459D01*
X10710960Y-7606749D02*
X10740960Y-7636749D01*
X10740960Y-7606749D02*
X10710960Y-7636749D01*
X10715426Y-6608697D02*
X10745426Y-6638697D01*
X10745426Y-6608697D02*
X10715426Y-6638697D01*
X10748424Y-5013482D02*
X10778424Y-5043482D01*
X10778424Y-5013482D02*
X10748424Y-5043482D01*
X11020041Y-8084112D02*
X11050041Y-8114112D01*
X11050041Y-8084112D02*
X11020041Y-8114112D01*
X11052937Y-7961342D02*
X11082937Y-7991342D01*
X11082937Y-7961342D02*
X11052937Y-7991342D01*
X11188544Y-7800458D02*
X11218544Y-7830458D01*
X11218544Y-7800458D02*
X11188544Y-7830458D01*
X11210458Y-7214669D02*
X11240458Y-7244669D01*
X11240458Y-7214669D02*
X11210458Y-7244669D01*
X11225648Y-8139357D02*
X11255648Y-8169357D01*
X11255648Y-8139357D02*
X11225648Y-8169357D01*
X11238689Y-7550934D02*
X11268689Y-7580934D01*
X11268689Y-7550934D02*
X11238689Y-7580934D01*
X11320024Y-7309767D02*
X11350024Y-7339767D01*
X11350024Y-7309767D02*
X11320024Y-7339767D01*
X11356636Y-7503292D02*
X11386636Y-7533292D01*
X11386636Y-7503292D02*
X11356636Y-7533292D01*
X11386539Y-7735178D02*
X11416539Y-7765178D01*
X11416539Y-7735178D02*
X11386539Y-7765178D01*
X11651140Y-8397996D02*
X11681140Y-8427996D01*
X11681140Y-8397996D02*
X11651140Y-8427996D01*
X11703905Y-8740835D02*
X11733905Y-8770835D01*
X11733905Y-8740835D02*
X11703905Y-8770835D01*
X11752140Y-6932243D02*
X11782140Y-6962243D01*
X11782140Y-6932243D02*
X11752140Y-6962243D01*
X11961084Y-5162645D02*
X11991084Y-5192645D01*
X11991084Y-5162645D02*
X11961084Y-5192645D01*
X12454417Y-9038928D02*
X12484417Y-9068928D01*
X12484417Y-9038928D02*
X12454417Y-9068928D01*
X12794362Y-13227236D02*
X12824362Y-13257236D01*
X12824362Y-13227236D02*
X12794362Y-13257236D01*
X13017559Y-11033630D02*
X13047559Y-11063630D01*
X13047559Y-11033630D02*
X13017559Y-11063630D01*
X13080158Y-12356901D02*
X13110158Y-12386901D01*
X13110158Y-12356901D02*
X13080158Y-12386901D01*
X13513524Y-9120279D02*
X13543524Y-9150279D01*
X13543524Y-9120279D02*
X13513524Y-9150279D01*
X13850640Y-8058427D02*
X13880640Y-8088427D01*
X13880640Y-8058427D02*
X13850640Y-8088427D01*
X13868990Y-8308312D02*
X13898990Y-8338312D01*
X13898990Y-8308312D02*
X13868990Y-8338312D01*
X13948778Y-8084723D02*
X13978778Y-8114723D01*
X13978778Y-8084723D02*
X13948778Y-8114723D01*
X13995581Y-10314434D02*
X14025581Y-10344434D01*
X14025581Y-10314434D02*
X13995581Y-10344434D01*
X14104650Y-8042757D02*
X14134650Y-8072757D01*
X14134650Y-8042757D02*
X14104650Y-8072757D01*
X14104793Y-7832428D02*
X14134793Y-7862428D01*
X14134793Y-7832428D02*
X14104793Y-7862428D01*
X14110501Y-7579301D02*
X14140501Y-7609301D01*
X14140501Y-7579301D02*
X14110501Y-7609301D01*
X14235571Y-7676824D02*
X14265571Y-7706824D01*
X14265571Y-7676824D02*
X14235571Y-7706824D01*
X14270433Y-14030337D02*
X14300433Y-14060337D01*
X14300433Y-14030337D02*
X14270433Y-14060337D01*
X14338491Y-11256093D02*
X14368491Y-11286093D01*
X14368491Y-11256093D02*
X14338491Y-11286093D01*
X14353458Y-7728133D02*
X14383458Y-7758133D01*
X14383458Y-7728133D02*
X14353458Y-7758133D01*
X14423985Y-7464349D02*
X14453985Y-7494349D01*
X14453985Y-7464349D02*
X14423985Y-7494349D01*
X14447134Y-9470306D02*
X14477134Y-9500306D01*
X14477134Y-9470306D02*
X14447134Y-9500306D01*
X14483151Y-7243538D02*
X14513151Y-7273538D01*
X14513151Y-7243538D02*
X14483151Y-7273538D01*
X14483173Y-8249366D02*
X14513173Y-8279366D01*
X14513173Y-8249366D02*
X14483173Y-8279366D01*
X14502677Y-5624991D02*
X14532677Y-5654991D01*
X14532677Y-5624991D02*
X14502677Y-5654991D01*
X14769853Y-8746919D02*
X14799853Y-8776919D01*
X14799853Y-8746919D02*
X14769853Y-8776919D01*
X14806309Y-8625207D02*
X14836309Y-8655207D01*
X14836309Y-8625207D02*
X14806309Y-8655207D01*
X14810219Y-13375416D02*
X14840219Y-13405416D01*
X14840219Y-13375416D02*
X14810219Y-13405416D01*
X14954183Y-8467609D02*
X14984183Y-8497609D01*
X14984183Y-8467609D02*
X14954183Y-8497609D01*
X14963830Y-7878534D02*
X14993830Y-7908534D01*
X14993830Y-7878534D02*
X14963830Y-7908534D01*
X15001190Y-8782867D02*
X15031190Y-8812867D01*
X15031190Y-8782867D02*
X15001190Y-8812867D01*
X15004328Y-8218086D02*
X15034328Y-8248086D01*
X15034328Y-8218086D02*
X15004328Y-8248086D01*
X15083418Y-8168258D02*
X15113418Y-8198258D01*
X15113418Y-8168258D02*
X15083418Y-8198258D01*
X15085663Y-7976919D02*
X15115663Y-8006919D01*
X15115663Y-7976919D02*
X15085663Y-8006919D01*
X15096536Y-8413716D02*
X15126536Y-8443716D01*
X15126536Y-8413716D02*
X15096536Y-8443716D01*
X15394219Y-7750876D02*
X15424219Y-7780876D01*
X15424219Y-7750876D02*
X15394219Y-7780876D01*
X15449822Y-9481590D02*
X15479822Y-9511590D01*
X15479822Y-9481590D02*
X15449822Y-9511590D01*
X15493993Y-9145003D02*
X15523993Y-9175003D01*
X15523993Y-9145003D02*
X15493993Y-9175003D01*
X15503532Y-11332602D02*
X15533532Y-11362602D01*
X15533532Y-11332602D02*
X15503532Y-11362602D01*
X15707001Y-5903400D02*
X15737001Y-5933400D01*
X15737001Y-5903400D02*
X15707001Y-5933400D01*
X16132337Y-10024448D02*
X16162337Y-10054448D01*
X16162337Y-10024448D02*
X16132337Y-10054448D01*
X16142652Y-14577736D02*
X16172652Y-14607736D01*
X16172652Y-14577736D02*
X16142652Y-14607736D01*
X16381312Y-8771120D02*
X16411312Y-8801120D01*
X16411312Y-8771120D02*
X16381312Y-8801120D01*
X16392525Y-8287647D02*
X16422525Y-8317647D01*
X16422525Y-8287647D02*
X16392525Y-8317647D01*
X16615561Y-12326412D02*
X16645561Y-12356412D01*
X16645561Y-12326412D02*
X16615561Y-12356412D01*
X16767337Y-9902527D02*
X16797337Y-9932527D01*
X16797337Y-9902527D02*
X16767337Y-9932527D01*
X16874361Y-6931031D02*
X16904361Y-6961031D01*
X16904361Y-6931031D02*
X16874361Y-6961031D01*
X16885575Y-6447559D02*
X16915575Y-6477559D01*
X16915575Y-6447559D02*
X16885575Y-6477559D01*
X16946267Y-6319193D02*
X16976267Y-6349193D01*
X16976267Y-6319193D02*
X16946267Y-6349193D01*
X16962874Y-6796971D02*
X16992874Y-6826971D01*
X16992874Y-6796971D02*
X16962874Y-6826971D01*
X17125047Y-10424988D02*
X17155047Y-10454988D01*
X17155047Y-10424988D02*
X17125047Y-10454988D01*
X17150045Y-8306552D02*
X17180045Y-8336552D01*
X17180045Y-8306552D02*
X17150045Y-8336552D01*
X17183386Y-7789566D02*
X17213386Y-7819566D01*
X17213386Y-7789566D02*
X17183386Y-7819566D01*
X17253389Y-11072873D02*
X17283389Y-11102873D01*
X17283389Y-11072873D02*
X17253389Y-11102873D01*
X17325460Y-9431691D02*
X17355460Y-9461691D01*
X17355460Y-9431691D02*
X17325460Y-9461691D01*
X17450733Y-9666631D02*
X17480733Y-9696631D01*
X17480733Y-9666631D02*
X17450733Y-9696631D01*
X17457951Y-9414600D02*
X17487951Y-9444600D01*
X17487951Y-9414600D02*
X17457951Y-9444600D01*
X17613693Y-8846680D02*
X17643693Y-8876680D01*
X17643693Y-8846680D02*
X17613693Y-8876680D01*
X17628714Y-9169858D02*
X17658714Y-9199858D01*
X17658714Y-9169858D02*
X17628714Y-9199858D01*
X17646129Y-9399282D02*
X17676129Y-9429282D01*
X17676129Y-9399282D02*
X17646129Y-9429282D01*
X17670065Y-11272714D02*
X17700065Y-11302714D01*
X17700065Y-11272714D02*
X17670065Y-11302714D01*
X17808602Y-15657479D02*
X17838602Y-15687479D01*
X17838602Y-15657479D02*
X17808602Y-15687479D01*
X17856023Y-9008491D02*
X17886023Y-9038491D01*
X17886023Y-9008491D02*
X17856023Y-9038491D01*
X17903624Y-12671548D02*
X17933624Y-12701548D01*
X17933624Y-12671548D02*
X17903624Y-12701548D01*
X17935026Y-9082252D02*
X17965026Y-9112252D01*
X17965026Y-9082252D02*
X17935026Y-9112252D01*
X17982919Y-10799009D02*
X18012919Y-10829009D01*
X18012919Y-10799009D02*
X17982919Y-10829009D01*
X18017819Y-8821754D02*
X18047819Y-8851754D01*
X18047819Y-8821754D02*
X18017819Y-8851754D01*
X18048808Y-6906243D02*
X18078808Y-6936243D01*
X18078808Y-6906243D02*
X18048808Y-6936243D01*
X18051592Y-9652555D02*
X18081592Y-9682555D01*
X18081592Y-9652555D02*
X18051592Y-9682555D01*
X18079068Y-8568631D02*
X18109068Y-8598631D01*
X18109068Y-8568631D02*
X18079068Y-8598631D01*
X18216729Y-15888840D02*
X18246729Y-15918840D01*
X18246729Y-15888840D02*
X18216729Y-15918840D01*
X18313963Y-10348643D02*
X18343963Y-10378643D01*
X18343963Y-10348643D02*
X18313963Y-10378643D01*
X18363987Y-10117552D02*
X18393987Y-10147552D01*
X18393987Y-10117552D02*
X18363987Y-10147552D01*
X18396831Y-9994977D02*
X18426831Y-10024977D01*
X18426831Y-9994977D02*
X18396831Y-10024977D01*
X18431325Y-13632965D02*
X18461325Y-13662965D01*
X18461325Y-13632965D02*
X18431325Y-13662965D01*
X18465761Y-9119277D02*
X18495761Y-9149277D01*
X18495761Y-9119277D02*
X18465761Y-9149277D01*
X18471641Y-15834774D02*
X18501641Y-15864774D01*
X18501641Y-15834774D02*
X18471641Y-15864774D01*
X18520955Y-13249393D02*
X18550955Y-13279393D01*
X18550955Y-13249393D02*
X18520955Y-13279393D01*
X18550868Y-9841294D02*
X18580868Y-9871294D01*
X18580868Y-9841294D02*
X18550868Y-9871294D01*
X18585895Y-9572204D02*
X18615895Y-9602204D01*
X18615895Y-9572204D02*
X18585895Y-9602204D01*
X18588010Y-10356334D02*
X18618010Y-10386334D01*
X18618010Y-10356334D02*
X18588010Y-10386334D01*
X18666072Y-9567391D02*
X18696072Y-9597391D01*
X18696072Y-9567391D02*
X18666072Y-9597391D01*
X18678104Y-9767835D02*
X18708104Y-9797835D01*
X18708104Y-9767835D02*
X18678104Y-9797835D01*
X18726112Y-9067677D02*
X18756112Y-9097677D01*
X18756112Y-9067677D02*
X18726112Y-9097677D01*
X18915102Y-12987118D02*
X18945102Y-13017118D01*
X18945102Y-12987118D02*
X18915102Y-13017118D01*
X18938240Y-10962950D02*
X18968240Y-10992950D01*
X18968240Y-10962950D02*
X18938240Y-10992950D01*
X18944244Y-9158124D02*
X18974244Y-9188124D01*
X18974244Y-9158124D02*
X18944244Y-9188124D01*
X18973382Y-12542296D02*
X19003382Y-12572296D01*
X19003382Y-12542296D02*
X18973382Y-12572296D01*
X19047914Y-10578175D02*
X19077914Y-10608175D01*
X19077914Y-10578175D02*
X19047914Y-10608175D01*
X19190796Y-11338343D02*
X19220796Y-11368343D01*
X19220796Y-11338343D02*
X19190796Y-11368343D01*
X19272133Y-7318856D02*
X19302133Y-7348856D01*
X19302133Y-7318856D02*
X19272133Y-7348856D01*
X19437408Y-10687857D02*
X19467408Y-10717857D01*
X19467408Y-10687857D02*
X19437408Y-10717857D01*
X19650975Y-9620927D02*
X19680975Y-9650927D01*
X19680975Y-9620927D02*
X19650975Y-9650927D01*
X19661591Y-11004313D02*
X19691591Y-11034313D01*
X19691591Y-11004313D02*
X19661591Y-11034313D01*
X19956195Y-8874386D02*
X19986195Y-8904386D01*
X19986195Y-8874386D02*
X19956195Y-8904386D01*
X20071263Y-9450861D02*
X20101263Y-9480861D01*
X20101263Y-9450861D02*
X20071263Y-9480861D01*
X20104898Y-10245428D02*
X20134898Y-10275428D01*
X20134898Y-10245428D02*
X20104898Y-10275428D01*
X20130298Y-7707967D02*
X20160298Y-7737967D01*
X20160298Y-7707967D02*
X20130298Y-7737967D01*
X20130298Y-10347027D02*
X20160298Y-10377027D01*
X20160298Y-10347027D02*
X20130298Y-10377027D01*
X20168398Y-10461328D02*
X20198398Y-10491328D01*
X20198398Y-10461328D02*
X20168398Y-10491328D01*
X20219198Y-16671628D02*
X20249198Y-16701628D01*
X20249198Y-16671628D02*
X20219198Y-16701628D01*
X20338448Y-8932378D02*
X20368448Y-8962378D01*
X20368448Y-8932378D02*
X20338448Y-8962378D01*
X20339848Y-8816678D02*
X20369848Y-8846678D01*
X20369848Y-8816678D02*
X20339848Y-8846678D01*
X20339849Y-8708728D02*
X20369849Y-8738728D01*
X20369849Y-8708728D02*
X20339849Y-8738728D01*
X20429501Y-11465130D02*
X20459501Y-11495130D01*
X20459501Y-11465130D02*
X20429501Y-11495130D01*
X20429501Y-11338130D02*
X20459501Y-11368130D01*
X20459501Y-11338130D02*
X20429501Y-11368130D01*
X20441491Y-8044617D02*
X20471491Y-8074617D01*
X20471491Y-8044617D02*
X20441491Y-8074617D01*
X20526781Y-7186553D02*
X20556781Y-7216553D01*
X20556781Y-7186553D02*
X20526781Y-7216553D01*
X20539754Y-8311971D02*
X20569754Y-8341971D01*
X20569754Y-8311971D02*
X20539754Y-8341971D01*
X20663698Y-16798628D02*
X20693698Y-16828628D01*
X20693698Y-16798628D02*
X20663698Y-16828628D01*
X20775848Y-10385128D02*
X20805848Y-10415128D01*
X20805848Y-10385128D02*
X20775848Y-10415128D01*
X20835147Y-7610177D02*
X20865147Y-7640177D01*
X20865147Y-7610177D02*
X20835147Y-7640177D01*
X20943097Y-11070928D02*
X20973097Y-11100928D01*
X20973097Y-11070928D02*
X20943097Y-11100928D01*
X20968497Y-11337627D02*
X20998497Y-11367627D01*
X20998497Y-11337627D02*
X20968497Y-11367627D01*
X20993897Y-16925628D02*
X21023897Y-16955628D01*
X21023897Y-16925628D02*
X20993897Y-16955628D01*
X20993898Y-16392228D02*
X21023898Y-16422228D01*
X21023898Y-16392228D02*
X20993898Y-16422228D01*
X21184398Y-16328728D02*
X21214398Y-16358728D01*
X21214398Y-16328728D02*
X21184398Y-16358728D01*
X21197098Y-6702127D02*
X21227098Y-6732127D01*
X21227098Y-6702127D02*
X21197098Y-6732127D01*
X21209797Y-8721427D02*
X21239797Y-8751427D01*
X21239797Y-8721427D02*
X21209797Y-8751427D01*
X21247897Y-16163628D02*
X21277897Y-16193628D01*
X21277897Y-16163628D02*
X21247897Y-16193628D01*
X21273297Y-9966027D02*
X21303297Y-9996027D01*
X21303297Y-9966027D02*
X21273297Y-9996027D01*
X21285998Y-8505527D02*
X21315998Y-8535527D01*
X21315998Y-8505527D02*
X21285998Y-8535527D01*
X21324097Y-7718128D02*
X21354097Y-7748128D01*
X21354097Y-7718128D02*
X21324097Y-7748128D01*
X21331201Y-11465130D02*
X21361201Y-11495130D01*
X21361201Y-11465130D02*
X21331201Y-11495130D01*
X21349498Y-16544627D02*
X21379498Y-16574627D01*
X21379498Y-16544627D02*
X21349498Y-16574627D01*
X21355848Y-8270577D02*
X21385848Y-8300577D01*
X21385848Y-8270577D02*
X21355848Y-8300577D01*
X21362198Y-9889828D02*
X21392198Y-9919828D01*
X21392198Y-9889828D02*
X21362198Y-9919828D01*
X21463798Y-9889827D02*
X21493798Y-9919827D01*
X21493798Y-9889827D02*
X21463798Y-9919827D01*
X21495548Y-7991178D02*
X21525548Y-8021178D01*
X21525548Y-7991178D02*
X21495548Y-8021178D01*
X21641597Y-7464128D02*
X21671597Y-7494128D01*
X21671597Y-7464128D02*
X21641597Y-7494128D01*
X21768597Y-6702127D02*
X21798597Y-6732127D01*
X21798597Y-6702127D02*
X21768597Y-6732127D01*
X21947453Y-7219362D02*
X21977453Y-7249362D01*
X21977453Y-7219362D02*
X21947453Y-7249362D01*
X21971798Y-9496127D02*
X22001798Y-9526127D01*
X22001798Y-9496127D02*
X21971798Y-9526127D01*
X22009897Y-9229428D02*
X22039897Y-9259428D01*
X22039897Y-9229428D02*
X22009897Y-9259428D01*
X22060698Y-8975428D02*
X22090698Y-9005428D01*
X22090698Y-8975428D02*
X22060698Y-9005428D01*
X22098798Y-11845628D02*
X22128798Y-11875628D01*
X22128798Y-11845628D02*
X22098798Y-11875628D01*
X22143247Y-11712278D02*
X22173247Y-11742278D01*
X22173247Y-11712278D02*
X22143247Y-11742278D01*
X22163353Y-13099462D02*
X22193353Y-13129462D01*
X22193353Y-13099462D02*
X22163353Y-13129462D01*
X22187697Y-11591627D02*
X22217697Y-11621627D01*
X22217697Y-11591627D02*
X22187697Y-11621627D01*
X22225797Y-16544627D02*
X22255797Y-16574627D01*
X22255797Y-16544627D02*
X22225797Y-16574627D01*
X22238497Y-11007427D02*
X22268497Y-11037427D01*
X22268497Y-11007427D02*
X22238497Y-11037427D01*
X22257547Y-16233477D02*
X22287547Y-16263477D01*
X22287547Y-16233477D02*
X22257547Y-16263477D01*
X22301997Y-8238828D02*
X22331997Y-8268828D01*
X22331997Y-8238828D02*
X22301997Y-8268828D01*
X22416298Y-16163627D02*
X22446298Y-16193627D01*
X22446298Y-16163627D02*
X22416298Y-16193627D01*
X22441697Y-13674427D02*
X22471697Y-13704427D01*
X22471697Y-13674427D02*
X22441697Y-13704427D01*
X22454397Y-16357528D02*
X22484397Y-16387528D01*
X22484397Y-16357528D02*
X22454397Y-16387528D01*
X22505197Y-15211127D02*
X22535197Y-15241127D01*
X22535197Y-15211127D02*
X22505197Y-15241127D01*
X22568698Y-11058228D02*
X22598698Y-11088228D01*
X22598698Y-11058228D02*
X22568698Y-11088228D01*
X22619497Y-11223327D02*
X22649497Y-11253327D01*
X22649497Y-11223327D02*
X22619497Y-11253327D01*
X22638548Y-10391477D02*
X22668548Y-10421477D01*
X22668548Y-10391477D02*
X22638548Y-10421477D01*
X22657597Y-16474407D02*
X22687597Y-16504407D01*
X22687597Y-16474407D02*
X22657597Y-16504407D01*
X22723421Y-11289151D02*
X22753421Y-11319151D01*
X22753421Y-11289151D02*
X22723421Y-11319151D01*
X22771797Y-8162627D02*
X22801797Y-8192627D01*
X22801797Y-8162627D02*
X22771797Y-8192627D01*
X22771897Y-7857828D02*
X22801897Y-7887828D01*
X22801897Y-7857828D02*
X22771897Y-7887828D01*
X23121147Y-11318577D02*
X23151147Y-11348577D01*
X23151147Y-11318577D02*
X23121147Y-11348577D01*
X23190998Y-11070927D02*
X23220998Y-11100927D01*
X23220998Y-11070927D02*
X23190998Y-11100927D01*
X23222748Y-12067878D02*
X23252748Y-12097878D01*
X23252748Y-12067878D02*
X23222748Y-12097878D01*
X23241620Y-8294774D02*
X23271620Y-8324774D01*
X23271620Y-8294774D02*
X23241620Y-8324774D01*
X23298947Y-11940877D02*
X23328947Y-11970877D01*
X23328947Y-11940877D02*
X23298947Y-11970877D01*
X23406897Y-11566227D02*
X23436897Y-11596227D01*
X23436897Y-11566227D02*
X23406897Y-11596227D01*
X23421997Y-9311430D02*
X23451997Y-9341430D01*
X23451997Y-9311430D02*
X23421997Y-9341430D01*
X23429325Y-7915778D02*
X23459325Y-7945778D01*
X23459325Y-7915778D02*
X23429325Y-7945778D01*
X23562677Y-7235794D02*
X23592677Y-7265794D01*
X23592677Y-7235794D02*
X23562677Y-7265794D01*
X23584697Y-12056009D02*
X23614697Y-12086009D01*
X23614697Y-12056009D02*
X23584697Y-12086009D01*
X23920614Y-9651154D02*
X23950614Y-9681154D01*
X23950614Y-9651154D02*
X23920614Y-9681154D01*
X24002915Y-11430379D02*
X24032915Y-11460379D01*
X24032915Y-11430379D02*
X24002915Y-11460379D01*
X24031837Y-8937656D02*
X24061837Y-8967656D01*
X24061837Y-8937656D02*
X24031837Y-8967656D01*
X24248354Y-7341324D02*
X24278354Y-7371324D01*
X24278354Y-7341324D02*
X24248354Y-7371324D01*
X24439961Y-11589381D02*
X24469961Y-11619381D01*
X24469961Y-11589381D02*
X24439961Y-11619381D01*
X24521601Y-10765478D02*
X24551601Y-10795478D01*
X24551601Y-10765478D02*
X24521601Y-10795478D01*
X24523551Y-13079004D02*
X24553551Y-13109004D01*
X24553551Y-13079004D02*
X24523551Y-13109004D01*
X24808433Y-9137156D02*
X24838433Y-9167156D01*
X24838433Y-9137156D02*
X24808433Y-9167156D01*
X24846510Y-9868085D02*
X24876510Y-9898085D01*
X24876510Y-9868085D02*
X24846510Y-9898085D01*
X24882180Y-13337906D02*
X24912180Y-13367906D01*
X24912180Y-13337906D02*
X24882180Y-13367906D01*
X24962634Y-9722790D02*
X24992634Y-9752790D01*
X24992634Y-9722790D02*
X24962634Y-9752790D01*
X24985396Y-8669003D02*
X25015396Y-8699003D01*
X25015396Y-8669003D02*
X24985396Y-8699003D01*
X24993404Y-12624408D02*
X25023404Y-12654408D01*
X25023404Y-12624408D02*
X24993404Y-12654408D01*
X25040640Y-9955853D02*
X25070640Y-9985853D01*
X25070640Y-9955853D02*
X25040640Y-9985853D01*
X25058230Y-9622439D02*
X25088230Y-9652439D01*
X25088230Y-9622439D02*
X25058230Y-9652439D01*
X25060997Y-8951150D02*
X25090997Y-8981150D01*
X25090997Y-8951150D02*
X25060997Y-8981150D01*
X25088537Y-10771344D02*
X25118537Y-10801344D01*
X25118537Y-10771344D02*
X25088537Y-10801344D01*
X25120749Y-9198099D02*
X25150749Y-9228099D01*
X25150749Y-9198099D02*
X25120749Y-9228099D01*
X25525728Y-6914129D02*
X25555728Y-6944129D01*
X25555728Y-6914129D02*
X25525728Y-6944129D01*
X25527216Y-9562516D02*
X25557216Y-9592516D01*
X25557216Y-9562516D02*
X25527216Y-9592516D01*
X25623005Y-12674379D02*
X25653005Y-12704379D01*
X25653005Y-12674379D02*
X25623005Y-12704379D01*
X25816058Y-9107109D02*
X25846058Y-9137109D01*
X25846058Y-9107109D02*
X25816058Y-9137109D01*
X25919722Y-11468989D02*
X25949722Y-11498989D01*
X25949722Y-11468989D02*
X25919722Y-11498989D01*
X25980547Y-9316140D02*
X26010547Y-9346140D01*
X26010547Y-9316140D02*
X25980547Y-9346140D01*
X25982458Y-9769130D02*
X26012458Y-9799130D01*
X26012458Y-9769130D02*
X25982458Y-9799130D01*
X26015328Y-9891803D02*
X26045328Y-9921803D01*
X26045328Y-9891803D02*
X26015328Y-9921803D01*
X26030991Y-8743833D02*
X26060991Y-8773833D01*
X26060991Y-8743833D02*
X26030991Y-8773833D01*
X26036882Y-9557431D02*
X26066882Y-9587431D01*
X26066882Y-9557431D02*
X26036882Y-9587431D01*
X26143909Y-12476234D02*
X26173909Y-12506234D01*
X26173909Y-12476234D02*
X26143909Y-12506234D01*
X26147153Y-9422700D02*
X26177153Y-9452700D01*
X26177153Y-9422700D02*
X26147153Y-9452700D01*
X26246423Y-15154434D02*
X26276423Y-15184434D01*
X26276423Y-15154434D02*
X26246423Y-15184434D01*
X26313416Y-9878304D02*
X26343416Y-9908304D01*
X26343416Y-9878304D02*
X26313416Y-9908304D01*
X26347109Y-9364734D02*
X26377109Y-9394734D01*
X26377109Y-9364734D02*
X26347109Y-9394734D01*
X26728696Y-11673492D02*
X26758696Y-11703492D01*
X26758696Y-11673492D02*
X26728696Y-11703492D01*
X26816932Y-9868294D02*
X26846932Y-9898294D01*
X26846932Y-9868294D02*
X26816932Y-9898294D01*
X26945126Y-10346717D02*
X26975126Y-10376717D01*
X26975126Y-10346717D02*
X26945126Y-10376717D01*
X27289058Y-11654823D02*
X27319058Y-11684823D01*
X27319058Y-11654823D02*
X27289058Y-11684823D01*
X27456459Y-12083297D02*
X27486459Y-12113297D01*
X27486459Y-12083297D02*
X27456459Y-12113297D01*
X27758291Y-5922667D02*
X27788291Y-5952667D01*
X27788291Y-5922667D02*
X27758291Y-5952667D01*
X27883809Y-12031734D02*
X27913809Y-12061734D01*
X27913809Y-12031734D02*
X27883809Y-12061734D01*
X27953772Y-11810759D02*
X27983772Y-11840759D01*
X27983772Y-11810759D02*
X27953772Y-11840759D01*
X28084587Y-14353954D02*
X28114587Y-14383954D01*
X28114587Y-14353954D02*
X28084587Y-14383954D01*
X28304017Y-9064328D02*
X28334017Y-9094328D01*
X28334017Y-9064328D02*
X28304017Y-9094328D01*
X28312679Y-7746320D02*
X28342679Y-7776320D01*
X28342679Y-7746320D02*
X28312679Y-7776320D01*
X28353698Y-13450511D02*
X28383698Y-13480511D01*
X28383698Y-13450511D02*
X28353698Y-13480511D01*
X28383640Y-8501848D02*
X28413640Y-8531848D01*
X28413640Y-8501848D02*
X28383640Y-8531848D01*
X28495420Y-8372747D02*
X28525420Y-8402747D01*
X28525420Y-8372747D02*
X28495420Y-8402747D01*
X28547242Y-7241280D02*
X28577242Y-7271280D01*
X28577242Y-7241280D02*
X28547242Y-7271280D01*
X28594080Y-8596996D02*
X28624080Y-8626996D01*
X28624080Y-8596996D02*
X28594080Y-8626996D01*
X28626192Y-8271967D02*
X28656192Y-8301967D01*
X28656192Y-8271967D02*
X28626192Y-8301967D01*
X28631501Y-7580274D02*
X28661501Y-7610274D01*
X28661501Y-7580274D02*
X28631501Y-7610274D01*
X28678652Y-9357499D02*
X28708652Y-9387499D01*
X28708652Y-9357499D02*
X28678652Y-9387499D01*
X28708295Y-7866294D02*
X28738295Y-7896294D01*
X28738295Y-7866294D02*
X28708295Y-7896294D01*
X29089943Y-8187149D02*
X29119943Y-8217149D01*
X29119943Y-8187149D02*
X29089943Y-8217149D01*
X29151551Y-5627041D02*
X29181551Y-5657041D01*
X29181551Y-5627041D02*
X29151551Y-5657041D01*
X29188137Y-11258924D02*
X29218137Y-11288924D01*
X29218137Y-11258924D02*
X29188137Y-11288924D01*
X29363945Y-7811326D02*
X29393945Y-7841326D01*
X29393945Y-7811326D02*
X29363945Y-7841326D01*
X29513045Y-7975169D02*
X29543045Y-8005169D01*
X29543045Y-7975169D02*
X29513045Y-8005169D01*
X29528450Y-7517435D02*
X29558450Y-7547435D01*
X29558450Y-7517435D02*
X29528450Y-7547435D01*
X29551475Y-10351235D02*
X29581475Y-10381235D01*
X29581475Y-10351235D02*
X29551475Y-10381235D01*
X29564026Y-8415012D02*
X29594026Y-8445012D01*
X29594026Y-8415012D02*
X29564026Y-8445012D01*
X29596896Y-8537685D02*
X29626896Y-8567685D01*
X29626896Y-8537685D02*
X29596896Y-8567685D01*
X29601768Y-8211406D02*
X29631768Y-8241406D01*
X29631768Y-8211406D02*
X29601768Y-8241406D01*
X29679651Y-8081729D02*
X29709651Y-8111729D01*
X29709651Y-8081729D02*
X29679651Y-8111729D01*
X29797537Y-8007687D02*
X29827537Y-8037687D01*
X29827537Y-8007687D02*
X29797537Y-8037687D01*
X29865009Y-11066534D02*
X29895009Y-11096534D01*
X29895009Y-11066534D02*
X29865009Y-11096534D01*
X29937715Y-8683661D02*
X29967715Y-8713661D01*
X29967715Y-8683661D02*
X29937715Y-8713661D01*
X30282724Y-8499179D02*
X30312724Y-8529179D01*
X30312724Y-8499179D02*
X30282724Y-8529179D01*
X30343133Y-10442046D02*
X30373133Y-10472046D01*
X30373133Y-10442046D02*
X30343133Y-10472046D01*
X30404429Y-8683511D02*
X30434429Y-8713511D01*
X30434429Y-8683511D02*
X30404429Y-8713511D01*
X30518594Y-9060509D02*
X30548594Y-9090509D01*
X30548594Y-9060509D02*
X30518594Y-9090509D01*
X30892431Y-10406620D02*
X30922431Y-10436620D01*
X30922431Y-10406620D02*
X30892431Y-10436620D01*
X30980164Y-12175909D02*
X31010164Y-12205909D01*
X31010164Y-12175909D02*
X30980164Y-12205909D01*
X31016134Y-10892820D02*
X31046134Y-10922820D01*
X31046134Y-10892820D02*
X31016134Y-10922820D01*
X31203621Y-13451480D02*
X31233621Y-13481480D01*
X31233621Y-13451480D02*
X31203621Y-13481480D01*
X31504209Y-5181912D02*
X31534209Y-5211912D01*
X31534209Y-5181912D02*
X31504209Y-5211912D01*
X31875258Y-10842328D02*
X31905258Y-10872328D01*
X31905258Y-10842328D02*
X31875258Y-10872328D01*
X32011309Y-7993134D02*
X32041309Y-8023134D01*
X32041309Y-7993134D02*
X32011309Y-8023134D01*
X32058596Y-7005564D02*
X32088596Y-7035564D01*
X32088596Y-7005564D02*
X32058596Y-7035564D01*
X32117919Y-7717654D02*
X32147919Y-7747654D01*
X32147919Y-7717654D02*
X32117919Y-7747654D01*
X32236526Y-7712169D02*
X32266526Y-7742169D01*
X32266526Y-7712169D02*
X32236526Y-7742169D01*
X32320981Y-6506218D02*
X32350981Y-6536218D01*
X32350981Y-6506218D02*
X32320981Y-6536218D01*
X32364011Y-7599122D02*
X32394011Y-7629122D01*
X32394011Y-7599122D02*
X32364011Y-7629122D01*
X32398343Y-6893078D02*
X32428343Y-6923078D01*
X32428343Y-6893078D02*
X32398343Y-6923078D01*
X32424569Y-8616744D02*
X32454569Y-8646744D01*
X32454569Y-8616744D02*
X32424569Y-8646744D01*
X32429751Y-7844467D02*
X32459751Y-7874467D01*
X32459751Y-7844467D02*
X32429751Y-7874467D01*
X32467956Y-7176830D02*
X32497956Y-7206830D01*
X32497956Y-7176830D02*
X32467956Y-7206830D01*
X32876829Y-7501156D02*
X32906829Y-7531156D01*
X32906829Y-7501156D02*
X32876829Y-7531156D01*
X32930339Y-5008958D02*
X32960339Y-5038958D01*
X32960339Y-5008958D02*
X32930339Y-5038958D01*
X32934054Y-10518169D02*
X32964054Y-10548169D01*
X32964054Y-10518169D02*
X32934054Y-10548169D01*
X33240634Y-9349580D02*
X33270634Y-9379580D01*
X33270634Y-9349580D02*
X33240634Y-9379580D01*
X33244823Y-7016417D02*
X33274823Y-7046417D01*
X33274823Y-7016417D02*
X33244823Y-7046417D01*
X33283174Y-7300240D02*
X33313174Y-7330240D01*
X33313174Y-7300240D02*
X33283174Y-7330240D01*
X33362880Y-6910739D02*
X33392880Y-6940739D01*
X33392880Y-6910739D02*
X33362880Y-6940739D01*
X33387978Y-7513847D02*
X33417978Y-7543847D01*
X33417978Y-7513847D02*
X33387978Y-7543847D01*
X33487786Y-7376895D02*
X33517786Y-7406895D01*
X33517786Y-7376895D02*
X33487786Y-7406895D01*
X33694375Y-8032063D02*
X33724375Y-8062063D01*
X33724375Y-8032063D02*
X33694375Y-8062063D01*
X34130901Y-9808409D02*
X34160901Y-9838409D01*
X34160901Y-9808409D02*
X34130901Y-9838409D01*
X34211361Y-7998721D02*
X34241361Y-8028721D01*
X34241361Y-7998721D02*
X34211361Y-8028721D01*
X34271775Y-6917015D02*
X34301775Y-6947015D01*
X34301775Y-6917015D02*
X34271775Y-6947015D01*
X34326406Y-8428075D02*
X34356406Y-8458075D01*
X34356406Y-8428075D02*
X34326406Y-8458075D01*
X34682282Y-9805295D02*
X34712282Y-9835295D01*
X34712282Y-9805295D02*
X34682282Y-9835295D01*
X34740935Y-8618876D02*
X34770935Y-8648876D01*
X34770935Y-8618876D02*
X34740935Y-8648876D01*
X34807189Y-10271451D02*
X34837189Y-10301451D01*
X34837189Y-10271451D02*
X34807189Y-10301451D01*
X35129827Y-10616979D02*
X35159827Y-10646979D01*
X35159827Y-10616979D02*
X35129827Y-10646979D01*
X35208715Y-10911393D02*
X35238715Y-10941393D01*
X35238715Y-10911393D02*
X35208715Y-10941393D01*
X21439897Y-14127127D02*
G75*
G02*
X21339897Y-14127127I-50000J0D01*
G01*
X21339897Y-14127127D02*
G75*
G02*
X21439897Y-14127127I50000J0D01*
G01*
X21693897Y-14127127D02*
G75*
G02*
X21593897Y-14127127I-50000J0D01*
G01*
X21593897Y-14127127D02*
G75*
G02*
X21693897Y-14127127I50000J0D01*
G01*
X21947897Y-14127127D02*
G75*
G02*
X21847897Y-14127127I-50000J0D01*
G01*
X21847897Y-14127127D02*
G75*
G02*
X21947897Y-14127127I50000J0D01*
G01*
X22201897Y-14127127D02*
G75*
G02*
X22101897Y-14127127I-50000J0D01*
G01*
X22101897Y-14127127D02*
G75*
G02*
X22201897Y-14127127I50000J0D01*
G01*
D14*
X21021597Y-6598627D02*
X21021597Y-6708627D01*
X20966597Y-6653627D02*
X21076597Y-6653627D01*
X21021597Y-9138628D02*
X21021597Y-9248628D01*
X20966597Y-9193628D02*
X21076597Y-9193628D01*
X21021597Y-9392627D02*
X21021597Y-9502627D01*
X20966597Y-9447627D02*
X21076597Y-9447627D01*
X21021597Y-7106627D02*
X21021597Y-7216627D01*
X20966597Y-7161627D02*
X21076597Y-7161627D01*
X21021597Y-7614627D02*
X21021597Y-7724627D01*
X20966597Y-7669627D02*
X21076597Y-7669627D01*
X21021597Y-8376627D02*
X21021597Y-8486628D01*
X20966597Y-8431628D02*
X21076597Y-8431628D01*
X21021597Y-8884628D02*
X21021597Y-8994628D01*
X20966597Y-8939628D02*
X21076597Y-8939628D01*
X21021597Y-7360627D02*
X21021597Y-7470627D01*
X20966597Y-7415627D02*
X21076597Y-7415627D01*
X21021597Y-8122627D02*
X21021597Y-8232627D01*
X20966597Y-8177627D02*
X21076597Y-8177627D01*
X21021597Y-6852627D02*
X21021597Y-6962627D01*
X20966597Y-6907627D02*
X21076597Y-6907627D01*
X21021598Y-8630628D02*
X21021598Y-8740628D01*
X20966598Y-8685628D02*
X21076598Y-8685628D01*
X21021598Y-7868627D02*
X21021598Y-7978627D01*
X20966598Y-7923627D02*
X21076598Y-7923627D01*
X22545596Y-8122627D02*
X22545596Y-8232627D01*
X22490596Y-8177627D02*
X22600596Y-8177627D01*
X22545597Y-7360627D02*
X22545597Y-7470627D01*
X22490597Y-7415627D02*
X22600597Y-7415627D01*
X22545597Y-9138628D02*
X22545597Y-9248628D01*
X22490597Y-9193628D02*
X22600597Y-9193628D01*
X22545597Y-7868627D02*
X22545597Y-7978627D01*
X22490597Y-7923627D02*
X22600597Y-7923627D01*
X22545597Y-8630628D02*
X22545597Y-8740628D01*
X22490597Y-8685628D02*
X22600597Y-8685628D01*
X22545597Y-7106627D02*
X22545597Y-7216627D01*
X22490597Y-7161627D02*
X22600597Y-7161627D01*
X22545597Y-7614627D02*
X22545597Y-7724627D01*
X22490597Y-7669627D02*
X22600597Y-7669627D01*
X22545597Y-8376628D02*
X22545597Y-8486628D01*
X22490597Y-8431628D02*
X22600597Y-8431628D01*
X22545597Y-8884628D02*
X22545597Y-8994628D01*
X22490597Y-8939628D02*
X22600597Y-8939628D01*
X22545597Y-6598628D02*
X22545597Y-6708628D01*
X22490597Y-6653628D02*
X22600597Y-6653628D01*
X22545597Y-6852627D02*
X22545597Y-6962627D01*
X22490597Y-6907627D02*
X22600597Y-6907627D01*
X22545597Y-9392628D02*
X22545597Y-9502628D01*
X22490597Y-9447628D02*
X22600597Y-9447628D01*
D12*
X8094734Y-17785471D02*
X8094734Y-17585471D01*
X8094734Y-17585471D02*
X8142353Y-17585471D01*
X8142353Y-17585471D02*
X8170925Y-17594995D01*
X8170925Y-17594995D02*
X8189972Y-17614043D01*
X8189972Y-17614043D02*
X8199496Y-17633090D01*
X8199496Y-17633090D02*
X8209020Y-17671185D01*
X8209020Y-17671185D02*
X8209020Y-17699757D01*
X8209020Y-17699757D02*
X8199496Y-17737852D01*
X8199496Y-17737852D02*
X8189972Y-17756900D01*
X8189972Y-17756900D02*
X8170925Y-17775947D01*
X8170925Y-17775947D02*
X8142353Y-17785471D01*
X8142353Y-17785471D02*
X8094734Y-17785471D01*
X8294734Y-17785471D02*
X8294734Y-17652138D01*
X8294734Y-17690233D02*
X8304258Y-17671185D01*
X8304258Y-17671185D02*
X8313782Y-17661662D01*
X8313782Y-17661662D02*
X8332829Y-17652138D01*
X8332829Y-17652138D02*
X8351877Y-17652138D01*
X8418544Y-17785471D02*
X8418544Y-17652138D01*
X8418544Y-17585471D02*
X8409020Y-17594995D01*
X8409020Y-17594995D02*
X8418544Y-17604519D01*
X8418544Y-17604519D02*
X8428068Y-17594995D01*
X8428068Y-17594995D02*
X8418544Y-17585471D01*
X8418544Y-17585471D02*
X8418544Y-17604519D01*
X8542353Y-17785471D02*
X8523306Y-17775947D01*
X8523306Y-17775947D02*
X8513782Y-17756900D01*
X8513782Y-17756900D02*
X8513782Y-17585471D01*
X8647115Y-17785471D02*
X8628068Y-17775947D01*
X8628068Y-17775947D02*
X8618544Y-17756900D01*
X8618544Y-17756900D02*
X8618544Y-17585471D01*
X8875687Y-17785471D02*
X8875687Y-17585471D01*
X8875687Y-17585471D02*
X8942353Y-17728328D01*
X8942353Y-17728328D02*
X9009020Y-17585471D01*
X9009020Y-17585471D02*
X9009020Y-17785471D01*
X9189972Y-17785471D02*
X9189972Y-17680709D01*
X9189972Y-17680709D02*
X9180449Y-17661662D01*
X9180449Y-17661662D02*
X9161401Y-17652138D01*
X9161401Y-17652138D02*
X9123306Y-17652138D01*
X9123306Y-17652138D02*
X9104258Y-17661662D01*
X9189972Y-17775947D02*
X9170925Y-17785471D01*
X9170925Y-17785471D02*
X9123306Y-17785471D01*
X9123306Y-17785471D02*
X9104258Y-17775947D01*
X9104258Y-17775947D02*
X9094734Y-17756900D01*
X9094734Y-17756900D02*
X9094734Y-17737852D01*
X9094734Y-17737852D02*
X9104258Y-17718805D01*
X9104258Y-17718805D02*
X9123306Y-17709281D01*
X9123306Y-17709281D02*
X9170925Y-17709281D01*
X9170925Y-17709281D02*
X9189972Y-17699757D01*
X9285210Y-17652138D02*
X9285210Y-17852138D01*
X9285210Y-17661662D02*
X9304258Y-17652138D01*
X9304258Y-17652138D02*
X9342353Y-17652138D01*
X9342353Y-17652138D02*
X9361401Y-17661662D01*
X9361401Y-17661662D02*
X9370925Y-17671185D01*
X9370925Y-17671185D02*
X9380449Y-17690233D01*
X9380449Y-17690233D02*
X9380449Y-17747376D01*
X9380449Y-17747376D02*
X9370925Y-17766424D01*
X9370925Y-17766424D02*
X9361401Y-17775947D01*
X9361401Y-17775947D02*
X9342353Y-17785471D01*
X9342353Y-17785471D02*
X9304258Y-17785471D01*
X9304258Y-17785471D02*
X9285210Y-17775947D01*
X9466163Y-17766424D02*
X9475687Y-17775947D01*
X9475687Y-17775947D02*
X9466163Y-17785471D01*
X9466163Y-17785471D02*
X9456639Y-17775947D01*
X9456639Y-17775947D02*
X9466163Y-17766424D01*
X9466163Y-17766424D02*
X9466163Y-17785471D01*
X9466163Y-17661662D02*
X9475687Y-17671185D01*
X9475687Y-17671185D02*
X9466163Y-17680709D01*
X9466163Y-17680709D02*
X9456639Y-17671185D01*
X9456639Y-17671185D02*
X9466163Y-17661662D01*
X9466163Y-17661662D02*
X9466163Y-17680709D01*
D13*
X7803957Y-18098987D02*
X7833957Y-18128987D01*
X7833957Y-18098987D02*
X7803957Y-18128987D01*
D12*
X8132829Y-18005471D02*
X8151877Y-18005471D01*
X8151877Y-18005471D02*
X8170925Y-18014995D01*
X8170925Y-18014995D02*
X8180448Y-18024519D01*
X8180448Y-18024519D02*
X8189972Y-18043566D01*
X8189972Y-18043566D02*
X8199496Y-18081662D01*
X8199496Y-18081662D02*
X8199496Y-18129281D01*
X8199496Y-18129281D02*
X8189972Y-18167376D01*
X8189972Y-18167376D02*
X8180448Y-18186424D01*
X8180448Y-18186424D02*
X8170925Y-18195947D01*
X8170925Y-18195947D02*
X8151877Y-18205471D01*
X8151877Y-18205471D02*
X8132829Y-18205471D01*
X8132829Y-18205471D02*
X8113782Y-18195947D01*
X8113782Y-18195947D02*
X8104258Y-18186424D01*
X8104258Y-18186424D02*
X8094734Y-18167376D01*
X8094734Y-18167376D02*
X8085210Y-18129281D01*
X8085210Y-18129281D02*
X8085210Y-18081662D01*
X8085210Y-18081662D02*
X8094734Y-18043566D01*
X8094734Y-18043566D02*
X8104258Y-18024519D01*
X8104258Y-18024519D02*
X8113782Y-18014995D01*
X8113782Y-18014995D02*
X8132829Y-18005471D01*
X8285210Y-18186424D02*
X8294734Y-18195947D01*
X8294734Y-18195947D02*
X8285210Y-18205471D01*
X8285210Y-18205471D02*
X8275687Y-18195947D01*
X8275687Y-18195947D02*
X8285210Y-18186424D01*
X8285210Y-18186424D02*
X8285210Y-18205471D01*
X8361401Y-18005471D02*
X8485210Y-18005471D01*
X8485210Y-18005471D02*
X8418544Y-18081662D01*
X8418544Y-18081662D02*
X8447115Y-18081662D01*
X8447115Y-18081662D02*
X8466163Y-18091185D01*
X8466163Y-18091185D02*
X8475687Y-18100709D01*
X8475687Y-18100709D02*
X8485210Y-18119757D01*
X8485210Y-18119757D02*
X8485210Y-18167376D01*
X8485210Y-18167376D02*
X8475687Y-18186424D01*
X8475687Y-18186424D02*
X8466163Y-18195947D01*
X8466163Y-18195947D02*
X8447115Y-18205471D01*
X8447115Y-18205471D02*
X8389972Y-18205471D01*
X8389972Y-18205471D02*
X8370925Y-18195947D01*
X8370925Y-18195947D02*
X8361401Y-18186424D01*
X8609020Y-18005471D02*
X8628068Y-18005471D01*
X8628068Y-18005471D02*
X8647115Y-18014995D01*
X8647115Y-18014995D02*
X8656639Y-18024519D01*
X8656639Y-18024519D02*
X8666163Y-18043566D01*
X8666163Y-18043566D02*
X8675687Y-18081662D01*
X8675687Y-18081662D02*
X8675687Y-18129281D01*
X8675687Y-18129281D02*
X8666163Y-18167376D01*
X8666163Y-18167376D02*
X8656639Y-18186424D01*
X8656639Y-18186424D02*
X8647115Y-18195947D01*
X8647115Y-18195947D02*
X8628068Y-18205471D01*
X8628068Y-18205471D02*
X8609020Y-18205471D01*
X8609020Y-18205471D02*
X8589972Y-18195947D01*
X8589972Y-18195947D02*
X8580449Y-18186424D01*
X8580449Y-18186424D02*
X8570925Y-18167376D01*
X8570925Y-18167376D02*
X8561401Y-18129281D01*
X8561401Y-18129281D02*
X8561401Y-18081662D01*
X8561401Y-18081662D02*
X8570925Y-18043566D01*
X8570925Y-18043566D02*
X8580449Y-18024519D01*
X8580449Y-18024519D02*
X8589972Y-18014995D01*
X8589972Y-18014995D02*
X8609020Y-18005471D01*
X8799496Y-18005471D02*
X8818544Y-18005471D01*
X8818544Y-18005471D02*
X8837591Y-18014995D01*
X8837591Y-18014995D02*
X8847115Y-18024519D01*
X8847115Y-18024519D02*
X8856639Y-18043566D01*
X8856639Y-18043566D02*
X8866163Y-18081662D01*
X8866163Y-18081662D02*
X8866163Y-18129281D01*
X8866163Y-18129281D02*
X8856639Y-18167376D01*
X8856639Y-18167376D02*
X8847115Y-18186424D01*
X8847115Y-18186424D02*
X8837591Y-18195947D01*
X8837591Y-18195947D02*
X8818544Y-18205471D01*
X8818544Y-18205471D02*
X8799496Y-18205471D01*
X8799496Y-18205471D02*
X8780449Y-18195947D01*
X8780449Y-18195947D02*
X8770925Y-18186424D01*
X8770925Y-18186424D02*
X8761401Y-18167376D01*
X8761401Y-18167376D02*
X8751877Y-18129281D01*
X8751877Y-18129281D02*
X8751877Y-18081662D01*
X8751877Y-18081662D02*
X8761401Y-18043566D01*
X8761401Y-18043566D02*
X8770925Y-18024519D01*
X8770925Y-18024519D02*
X8780449Y-18014995D01*
X8780449Y-18014995D02*
X8799496Y-18005471D01*
X8951877Y-18205471D02*
X8951877Y-18072138D01*
X8951877Y-18091185D02*
X8961401Y-18081662D01*
X8961401Y-18081662D02*
X8980449Y-18072138D01*
X8980449Y-18072138D02*
X9009020Y-18072138D01*
X9009020Y-18072138D02*
X9028068Y-18081662D01*
X9028068Y-18081662D02*
X9037591Y-18100709D01*
X9037591Y-18100709D02*
X9037591Y-18205471D01*
X9037591Y-18100709D02*
X9047115Y-18081662D01*
X9047115Y-18081662D02*
X9066163Y-18072138D01*
X9066163Y-18072138D02*
X9094734Y-18072138D01*
X9094734Y-18072138D02*
X9113782Y-18081662D01*
X9113782Y-18081662D02*
X9123306Y-18100709D01*
X9123306Y-18100709D02*
X9123306Y-18205471D01*
X9218544Y-18205471D02*
X9218544Y-18072138D01*
X9218544Y-18091185D02*
X9228068Y-18081662D01*
X9228068Y-18081662D02*
X9247115Y-18072138D01*
X9247115Y-18072138D02*
X9275687Y-18072138D01*
X9275687Y-18072138D02*
X9294734Y-18081662D01*
X9294734Y-18081662D02*
X9304258Y-18100709D01*
X9304258Y-18100709D02*
X9304258Y-18205471D01*
X9304258Y-18100709D02*
X9313782Y-18081662D01*
X9313782Y-18081662D02*
X9332830Y-18072138D01*
X9332830Y-18072138D02*
X9361401Y-18072138D01*
X9361401Y-18072138D02*
X9380449Y-18081662D01*
X9380449Y-18081662D02*
X9389972Y-18100709D01*
X9389972Y-18100709D02*
X9389972Y-18205471D01*
X9780449Y-17995947D02*
X9609020Y-18253090D01*
X10037592Y-18005471D02*
X10056639Y-18005471D01*
X10056639Y-18005471D02*
X10075687Y-18014995D01*
X10075687Y-18014995D02*
X10085211Y-18024519D01*
X10085211Y-18024519D02*
X10094734Y-18043566D01*
X10094734Y-18043566D02*
X10104258Y-18081662D01*
X10104258Y-18081662D02*
X10104258Y-18129281D01*
X10104258Y-18129281D02*
X10094734Y-18167376D01*
X10094734Y-18167376D02*
X10085211Y-18186424D01*
X10085211Y-18186424D02*
X10075687Y-18195947D01*
X10075687Y-18195947D02*
X10056639Y-18205471D01*
X10056639Y-18205471D02*
X10037592Y-18205471D01*
X10037592Y-18205471D02*
X10018544Y-18195947D01*
X10018544Y-18195947D02*
X10009020Y-18186424D01*
X10009020Y-18186424D02*
X9999496Y-18167376D01*
X9999496Y-18167376D02*
X9989973Y-18129281D01*
X9989973Y-18129281D02*
X9989973Y-18081662D01*
X9989973Y-18081662D02*
X9999496Y-18043566D01*
X9999496Y-18043566D02*
X10009020Y-18024519D01*
X10009020Y-18024519D02*
X10018544Y-18014995D01*
X10018544Y-18014995D02*
X10037592Y-18005471D01*
X10189973Y-18186424D02*
X10199496Y-18195947D01*
X10199496Y-18195947D02*
X10189973Y-18205471D01*
X10189973Y-18205471D02*
X10180449Y-18195947D01*
X10180449Y-18195947D02*
X10189973Y-18186424D01*
X10189973Y-18186424D02*
X10189973Y-18205471D01*
X10323306Y-18005471D02*
X10342354Y-18005471D01*
X10342354Y-18005471D02*
X10361401Y-18014995D01*
X10361401Y-18014995D02*
X10370925Y-18024519D01*
X10370925Y-18024519D02*
X10380449Y-18043566D01*
X10380449Y-18043566D02*
X10389973Y-18081662D01*
X10389973Y-18081662D02*
X10389973Y-18129281D01*
X10389973Y-18129281D02*
X10380449Y-18167376D01*
X10380449Y-18167376D02*
X10370925Y-18186424D01*
X10370925Y-18186424D02*
X10361401Y-18195947D01*
X10361401Y-18195947D02*
X10342354Y-18205471D01*
X10342354Y-18205471D02*
X10323306Y-18205471D01*
X10323306Y-18205471D02*
X10304258Y-18195947D01*
X10304258Y-18195947D02*
X10294734Y-18186424D01*
X10294734Y-18186424D02*
X10285211Y-18167376D01*
X10285211Y-18167376D02*
X10275687Y-18129281D01*
X10275687Y-18129281D02*
X10275687Y-18081662D01*
X10275687Y-18081662D02*
X10285211Y-18043566D01*
X10285211Y-18043566D02*
X10294734Y-18024519D01*
X10294734Y-18024519D02*
X10304258Y-18014995D01*
X10304258Y-18014995D02*
X10323306Y-18005471D01*
X10580449Y-18205471D02*
X10466163Y-18205471D01*
X10523306Y-18205471D02*
X10523306Y-18005471D01*
X10523306Y-18005471D02*
X10504258Y-18034043D01*
X10504258Y-18034043D02*
X10485211Y-18053090D01*
X10485211Y-18053090D02*
X10466163Y-18062614D01*
X10770925Y-18205471D02*
X10656639Y-18205471D01*
X10713782Y-18205471D02*
X10713782Y-18005471D01*
X10713782Y-18005471D02*
X10694734Y-18034043D01*
X10694734Y-18034043D02*
X10675687Y-18053090D01*
X10675687Y-18053090D02*
X10656639Y-18062614D01*
X10885211Y-18091185D02*
X10866163Y-18081662D01*
X10866163Y-18081662D02*
X10856639Y-18072138D01*
X10856639Y-18072138D02*
X10847115Y-18053090D01*
X10847115Y-18053090D02*
X10847115Y-18043566D01*
X10847115Y-18043566D02*
X10856639Y-18024519D01*
X10856639Y-18024519D02*
X10866163Y-18014995D01*
X10866163Y-18014995D02*
X10885211Y-18005471D01*
X10885211Y-18005471D02*
X10923306Y-18005471D01*
X10923306Y-18005471D02*
X10942354Y-18014995D01*
X10942354Y-18014995D02*
X10951877Y-18024519D01*
X10951877Y-18024519D02*
X10961401Y-18043566D01*
X10961401Y-18043566D02*
X10961401Y-18053090D01*
X10961401Y-18053090D02*
X10951877Y-18072138D01*
X10951877Y-18072138D02*
X10942354Y-18081662D01*
X10942354Y-18081662D02*
X10923306Y-18091185D01*
X10923306Y-18091185D02*
X10885211Y-18091185D01*
X10885211Y-18091185D02*
X10866163Y-18100709D01*
X10866163Y-18100709D02*
X10856639Y-18110233D01*
X10856639Y-18110233D02*
X10847115Y-18129281D01*
X10847115Y-18129281D02*
X10847115Y-18167376D01*
X10847115Y-18167376D02*
X10856639Y-18186424D01*
X10856639Y-18186424D02*
X10866163Y-18195947D01*
X10866163Y-18195947D02*
X10885211Y-18205471D01*
X10885211Y-18205471D02*
X10923306Y-18205471D01*
X10923306Y-18205471D02*
X10942354Y-18195947D01*
X10942354Y-18195947D02*
X10951877Y-18186424D01*
X10951877Y-18186424D02*
X10961401Y-18167376D01*
X10961401Y-18167376D02*
X10961401Y-18129281D01*
X10961401Y-18129281D02*
X10951877Y-18110233D01*
X10951877Y-18110233D02*
X10942354Y-18100709D01*
X10942354Y-18100709D02*
X10923306Y-18091185D01*
X11037592Y-18005471D02*
X11037592Y-18043566D01*
X11113782Y-18005471D02*
X11113782Y-18043566D01*
X11409020Y-18281662D02*
X11399496Y-18272138D01*
X11399496Y-18272138D02*
X11380449Y-18243566D01*
X11380449Y-18243566D02*
X11370925Y-18224519D01*
X11370925Y-18224519D02*
X11361401Y-18195947D01*
X11361401Y-18195947D02*
X11351877Y-18148328D01*
X11351877Y-18148328D02*
X11351877Y-18110233D01*
X11351877Y-18110233D02*
X11361401Y-18062614D01*
X11361401Y-18062614D02*
X11370925Y-18034043D01*
X11370925Y-18034043D02*
X11380449Y-18014995D01*
X11380449Y-18014995D02*
X11399496Y-17986424D01*
X11399496Y-17986424D02*
X11409020Y-17976900D01*
X11466163Y-18005471D02*
X11589973Y-18005471D01*
X11589973Y-18005471D02*
X11523306Y-18081662D01*
X11523306Y-18081662D02*
X11551877Y-18081662D01*
X11551877Y-18081662D02*
X11570925Y-18091185D01*
X11570925Y-18091185D02*
X11580449Y-18100709D01*
X11580449Y-18100709D02*
X11589973Y-18119757D01*
X11589973Y-18119757D02*
X11589973Y-18167376D01*
X11589973Y-18167376D02*
X11580449Y-18186424D01*
X11580449Y-18186424D02*
X11570925Y-18195947D01*
X11570925Y-18195947D02*
X11551877Y-18205471D01*
X11551877Y-18205471D02*
X11494734Y-18205471D01*
X11494734Y-18205471D02*
X11475687Y-18195947D01*
X11475687Y-18195947D02*
X11466163Y-18186424D01*
X11713782Y-18005471D02*
X11732830Y-18005471D01*
X11732830Y-18005471D02*
X11751877Y-18014995D01*
X11751877Y-18014995D02*
X11761401Y-18024519D01*
X11761401Y-18024519D02*
X11770925Y-18043566D01*
X11770925Y-18043566D02*
X11780449Y-18081662D01*
X11780449Y-18081662D02*
X11780449Y-18129281D01*
X11780449Y-18129281D02*
X11770925Y-18167376D01*
X11770925Y-18167376D02*
X11761401Y-18186424D01*
X11761401Y-18186424D02*
X11751877Y-18195947D01*
X11751877Y-18195947D02*
X11732830Y-18205471D01*
X11732830Y-18205471D02*
X11713782Y-18205471D01*
X11713782Y-18205471D02*
X11694734Y-18195947D01*
X11694734Y-18195947D02*
X11685211Y-18186424D01*
X11685211Y-18186424D02*
X11675687Y-18167376D01*
X11675687Y-18167376D02*
X11666163Y-18129281D01*
X11666163Y-18129281D02*
X11666163Y-18081662D01*
X11666163Y-18081662D02*
X11675687Y-18043566D01*
X11675687Y-18043566D02*
X11685211Y-18024519D01*
X11685211Y-18024519D02*
X11694734Y-18014995D01*
X11694734Y-18014995D02*
X11713782Y-18005471D01*
X11904258Y-18005471D02*
X11923306Y-18005471D01*
X11923306Y-18005471D02*
X11942354Y-18014995D01*
X11942354Y-18014995D02*
X11951877Y-18024519D01*
X11951877Y-18024519D02*
X11961401Y-18043566D01*
X11961401Y-18043566D02*
X11970925Y-18081662D01*
X11970925Y-18081662D02*
X11970925Y-18129281D01*
X11970925Y-18129281D02*
X11961401Y-18167376D01*
X11961401Y-18167376D02*
X11951877Y-18186424D01*
X11951877Y-18186424D02*
X11942354Y-18195947D01*
X11942354Y-18195947D02*
X11923306Y-18205471D01*
X11923306Y-18205471D02*
X11904258Y-18205471D01*
X11904258Y-18205471D02*
X11885211Y-18195947D01*
X11885211Y-18195947D02*
X11875687Y-18186424D01*
X11875687Y-18186424D02*
X11866163Y-18167376D01*
X11866163Y-18167376D02*
X11856639Y-18129281D01*
X11856639Y-18129281D02*
X11856639Y-18081662D01*
X11856639Y-18081662D02*
X11866163Y-18043566D01*
X11866163Y-18043566D02*
X11875687Y-18024519D01*
X11875687Y-18024519D02*
X11885211Y-18014995D01*
X11885211Y-18014995D02*
X11904258Y-18005471D01*
X12209020Y-18205471D02*
X12209020Y-18005471D01*
X12294735Y-18205471D02*
X12294735Y-18100709D01*
X12294735Y-18100709D02*
X12285211Y-18081662D01*
X12285211Y-18081662D02*
X12266163Y-18072138D01*
X12266163Y-18072138D02*
X12237592Y-18072138D01*
X12237592Y-18072138D02*
X12218544Y-18081662D01*
X12218544Y-18081662D02*
X12209020Y-18091185D01*
X12418544Y-18205471D02*
X12399496Y-18195947D01*
X12399496Y-18195947D02*
X12389973Y-18186424D01*
X12389973Y-18186424D02*
X12380449Y-18167376D01*
X12380449Y-18167376D02*
X12380449Y-18110233D01*
X12380449Y-18110233D02*
X12389973Y-18091185D01*
X12389973Y-18091185D02*
X12399496Y-18081662D01*
X12399496Y-18081662D02*
X12418544Y-18072138D01*
X12418544Y-18072138D02*
X12447116Y-18072138D01*
X12447116Y-18072138D02*
X12466163Y-18081662D01*
X12466163Y-18081662D02*
X12475687Y-18091185D01*
X12475687Y-18091185D02*
X12485211Y-18110233D01*
X12485211Y-18110233D02*
X12485211Y-18167376D01*
X12485211Y-18167376D02*
X12475687Y-18186424D01*
X12475687Y-18186424D02*
X12466163Y-18195947D01*
X12466163Y-18195947D02*
X12447116Y-18205471D01*
X12447116Y-18205471D02*
X12418544Y-18205471D01*
X12599496Y-18205471D02*
X12580449Y-18195947D01*
X12580449Y-18195947D02*
X12570925Y-18176900D01*
X12570925Y-18176900D02*
X12570925Y-18005471D01*
X12751877Y-18195947D02*
X12732830Y-18205471D01*
X12732830Y-18205471D02*
X12694735Y-18205471D01*
X12694735Y-18205471D02*
X12675687Y-18195947D01*
X12675687Y-18195947D02*
X12666163Y-18176900D01*
X12666163Y-18176900D02*
X12666163Y-18100709D01*
X12666163Y-18100709D02*
X12675687Y-18081662D01*
X12675687Y-18081662D02*
X12694735Y-18072138D01*
X12694735Y-18072138D02*
X12732830Y-18072138D01*
X12732830Y-18072138D02*
X12751877Y-18081662D01*
X12751877Y-18081662D02*
X12761401Y-18100709D01*
X12761401Y-18100709D02*
X12761401Y-18119757D01*
X12761401Y-18119757D02*
X12666163Y-18138805D01*
X12837592Y-18195947D02*
X12856639Y-18205471D01*
X12856639Y-18205471D02*
X12894735Y-18205471D01*
X12894735Y-18205471D02*
X12913782Y-18195947D01*
X12913782Y-18195947D02*
X12923306Y-18176900D01*
X12923306Y-18176900D02*
X12923306Y-18167376D01*
X12923306Y-18167376D02*
X12913782Y-18148328D01*
X12913782Y-18148328D02*
X12894735Y-18138805D01*
X12894735Y-18138805D02*
X12866163Y-18138805D01*
X12866163Y-18138805D02*
X12847116Y-18129281D01*
X12847116Y-18129281D02*
X12837592Y-18110233D01*
X12837592Y-18110233D02*
X12837592Y-18100709D01*
X12837592Y-18100709D02*
X12847116Y-18081662D01*
X12847116Y-18081662D02*
X12866163Y-18072138D01*
X12866163Y-18072138D02*
X12894735Y-18072138D01*
X12894735Y-18072138D02*
X12913782Y-18081662D01*
X12989973Y-18281662D02*
X12999497Y-18272138D01*
X12999497Y-18272138D02*
X13018544Y-18243566D01*
X13018544Y-18243566D02*
X13028068Y-18224519D01*
X13028068Y-18224519D02*
X13037592Y-18195947D01*
X13037592Y-18195947D02*
X13047116Y-18148328D01*
X13047116Y-18148328D02*
X13047116Y-18110233D01*
X13047116Y-18110233D02*
X13037592Y-18062614D01*
X13037592Y-18062614D02*
X13028068Y-18034043D01*
X13028068Y-18034043D02*
X13018544Y-18014995D01*
X13018544Y-18014995D02*
X12999497Y-17986424D01*
X12999497Y-17986424D02*
X12989973Y-17976900D01*
D13*
X7833957Y-18377987D02*
G75*
G02*
X7733957Y-18377987I-50000J0D01*
G01*
X7733957Y-18377987D02*
G75*
G02*
X7833957Y-18377987I50000J0D01*
G01*
D12*
X8199496Y-18469471D02*
X8085210Y-18469471D01*
X8142353Y-18469471D02*
X8142353Y-18269471D01*
X8142353Y-18269471D02*
X8123306Y-18298043D01*
X8123306Y-18298043D02*
X8104258Y-18317090D01*
X8104258Y-18317090D02*
X8085210Y-18326614D01*
X8285210Y-18450424D02*
X8294734Y-18459947D01*
X8294734Y-18459947D02*
X8285210Y-18469471D01*
X8285210Y-18469471D02*
X8275687Y-18459947D01*
X8275687Y-18459947D02*
X8285210Y-18450424D01*
X8285210Y-18450424D02*
X8285210Y-18469471D01*
X8418544Y-18269471D02*
X8437591Y-18269471D01*
X8437591Y-18269471D02*
X8456639Y-18278995D01*
X8456639Y-18278995D02*
X8466163Y-18288519D01*
X8466163Y-18288519D02*
X8475687Y-18307566D01*
X8475687Y-18307566D02*
X8485210Y-18345662D01*
X8485210Y-18345662D02*
X8485210Y-18393281D01*
X8485210Y-18393281D02*
X8475687Y-18431376D01*
X8475687Y-18431376D02*
X8466163Y-18450424D01*
X8466163Y-18450424D02*
X8456639Y-18459947D01*
X8456639Y-18459947D02*
X8437591Y-18469471D01*
X8437591Y-18469471D02*
X8418544Y-18469471D01*
X8418544Y-18469471D02*
X8399496Y-18459947D01*
X8399496Y-18459947D02*
X8389972Y-18450424D01*
X8389972Y-18450424D02*
X8380448Y-18431376D01*
X8380448Y-18431376D02*
X8370925Y-18393281D01*
X8370925Y-18393281D02*
X8370925Y-18345662D01*
X8370925Y-18345662D02*
X8380448Y-18307566D01*
X8380448Y-18307566D02*
X8389972Y-18288519D01*
X8389972Y-18288519D02*
X8399496Y-18278995D01*
X8399496Y-18278995D02*
X8418544Y-18269471D01*
X8609020Y-18269471D02*
X8628068Y-18269471D01*
X8628068Y-18269471D02*
X8647115Y-18278995D01*
X8647115Y-18278995D02*
X8656639Y-18288519D01*
X8656639Y-18288519D02*
X8666163Y-18307566D01*
X8666163Y-18307566D02*
X8675687Y-18345662D01*
X8675687Y-18345662D02*
X8675687Y-18393281D01*
X8675687Y-18393281D02*
X8666163Y-18431376D01*
X8666163Y-18431376D02*
X8656639Y-18450424D01*
X8656639Y-18450424D02*
X8647115Y-18459947D01*
X8647115Y-18459947D02*
X8628068Y-18469471D01*
X8628068Y-18469471D02*
X8609020Y-18469471D01*
X8609020Y-18469471D02*
X8589972Y-18459947D01*
X8589972Y-18459947D02*
X8580449Y-18450424D01*
X8580449Y-18450424D02*
X8570925Y-18431376D01*
X8570925Y-18431376D02*
X8561401Y-18393281D01*
X8561401Y-18393281D02*
X8561401Y-18345662D01*
X8561401Y-18345662D02*
X8570925Y-18307566D01*
X8570925Y-18307566D02*
X8580449Y-18288519D01*
X8580449Y-18288519D02*
X8589972Y-18278995D01*
X8589972Y-18278995D02*
X8609020Y-18269471D01*
X8799496Y-18269471D02*
X8818544Y-18269471D01*
X8818544Y-18269471D02*
X8837591Y-18278995D01*
X8837591Y-18278995D02*
X8847115Y-18288519D01*
X8847115Y-18288519D02*
X8856639Y-18307566D01*
X8856639Y-18307566D02*
X8866163Y-18345662D01*
X8866163Y-18345662D02*
X8866163Y-18393281D01*
X8866163Y-18393281D02*
X8856639Y-18431376D01*
X8856639Y-18431376D02*
X8847115Y-18450424D01*
X8847115Y-18450424D02*
X8837591Y-18459947D01*
X8837591Y-18459947D02*
X8818544Y-18469471D01*
X8818544Y-18469471D02*
X8799496Y-18469471D01*
X8799496Y-18469471D02*
X8780449Y-18459947D01*
X8780449Y-18459947D02*
X8770925Y-18450424D01*
X8770925Y-18450424D02*
X8761401Y-18431376D01*
X8761401Y-18431376D02*
X8751877Y-18393281D01*
X8751877Y-18393281D02*
X8751877Y-18345662D01*
X8751877Y-18345662D02*
X8761401Y-18307566D01*
X8761401Y-18307566D02*
X8770925Y-18288519D01*
X8770925Y-18288519D02*
X8780449Y-18278995D01*
X8780449Y-18278995D02*
X8799496Y-18269471D01*
X8951877Y-18469471D02*
X8951877Y-18336138D01*
X8951877Y-18355185D02*
X8961401Y-18345662D01*
X8961401Y-18345662D02*
X8980449Y-18336138D01*
X8980449Y-18336138D02*
X9009020Y-18336138D01*
X9009020Y-18336138D02*
X9028068Y-18345662D01*
X9028068Y-18345662D02*
X9037591Y-18364709D01*
X9037591Y-18364709D02*
X9037591Y-18469471D01*
X9037591Y-18364709D02*
X9047115Y-18345662D01*
X9047115Y-18345662D02*
X9066163Y-18336138D01*
X9066163Y-18336138D02*
X9094734Y-18336138D01*
X9094734Y-18336138D02*
X9113782Y-18345662D01*
X9113782Y-18345662D02*
X9123306Y-18364709D01*
X9123306Y-18364709D02*
X9123306Y-18469471D01*
X9218544Y-18469471D02*
X9218544Y-18336138D01*
X9218544Y-18355185D02*
X9228068Y-18345662D01*
X9228068Y-18345662D02*
X9247115Y-18336138D01*
X9247115Y-18336138D02*
X9275687Y-18336138D01*
X9275687Y-18336138D02*
X9294734Y-18345662D01*
X9294734Y-18345662D02*
X9304258Y-18364709D01*
X9304258Y-18364709D02*
X9304258Y-18469471D01*
X9304258Y-18364709D02*
X9313782Y-18345662D01*
X9313782Y-18345662D02*
X9332830Y-18336138D01*
X9332830Y-18336138D02*
X9361401Y-18336138D01*
X9361401Y-18336138D02*
X9380449Y-18345662D01*
X9380449Y-18345662D02*
X9389972Y-18364709D01*
X9389972Y-18364709D02*
X9389972Y-18469471D01*
X9780449Y-18259947D02*
X9609020Y-18517090D01*
X10037592Y-18269471D02*
X10056639Y-18269471D01*
X10056639Y-18269471D02*
X10075687Y-18278995D01*
X10075687Y-18278995D02*
X10085211Y-18288519D01*
X10085211Y-18288519D02*
X10094734Y-18307566D01*
X10094734Y-18307566D02*
X10104258Y-18345662D01*
X10104258Y-18345662D02*
X10104258Y-18393281D01*
X10104258Y-18393281D02*
X10094734Y-18431376D01*
X10094734Y-18431376D02*
X10085211Y-18450424D01*
X10085211Y-18450424D02*
X10075687Y-18459947D01*
X10075687Y-18459947D02*
X10056639Y-18469471D01*
X10056639Y-18469471D02*
X10037592Y-18469471D01*
X10037592Y-18469471D02*
X10018544Y-18459947D01*
X10018544Y-18459947D02*
X10009020Y-18450424D01*
X10009020Y-18450424D02*
X9999496Y-18431376D01*
X9999496Y-18431376D02*
X9989973Y-18393281D01*
X9989973Y-18393281D02*
X9989973Y-18345662D01*
X9989973Y-18345662D02*
X9999496Y-18307566D01*
X9999496Y-18307566D02*
X10009020Y-18288519D01*
X10009020Y-18288519D02*
X10018544Y-18278995D01*
X10018544Y-18278995D02*
X10037592Y-18269471D01*
X10189973Y-18450424D02*
X10199496Y-18459947D01*
X10199496Y-18459947D02*
X10189973Y-18469471D01*
X10189973Y-18469471D02*
X10180449Y-18459947D01*
X10180449Y-18459947D02*
X10189973Y-18450424D01*
X10189973Y-18450424D02*
X10189973Y-18469471D01*
X10323306Y-18269471D02*
X10342354Y-18269471D01*
X10342354Y-18269471D02*
X10361401Y-18278995D01*
X10361401Y-18278995D02*
X10370925Y-18288519D01*
X10370925Y-18288519D02*
X10380449Y-18307566D01*
X10380449Y-18307566D02*
X10389973Y-18345662D01*
X10389973Y-18345662D02*
X10389973Y-18393281D01*
X10389973Y-18393281D02*
X10380449Y-18431376D01*
X10380449Y-18431376D02*
X10370925Y-18450424D01*
X10370925Y-18450424D02*
X10361401Y-18459947D01*
X10361401Y-18459947D02*
X10342354Y-18469471D01*
X10342354Y-18469471D02*
X10323306Y-18469471D01*
X10323306Y-18469471D02*
X10304258Y-18459947D01*
X10304258Y-18459947D02*
X10294734Y-18450424D01*
X10294734Y-18450424D02*
X10285211Y-18431376D01*
X10285211Y-18431376D02*
X10275687Y-18393281D01*
X10275687Y-18393281D02*
X10275687Y-18345662D01*
X10275687Y-18345662D02*
X10285211Y-18307566D01*
X10285211Y-18307566D02*
X10294734Y-18288519D01*
X10294734Y-18288519D02*
X10304258Y-18278995D01*
X10304258Y-18278995D02*
X10323306Y-18269471D01*
X10456639Y-18269471D02*
X10580449Y-18269471D01*
X10580449Y-18269471D02*
X10513782Y-18345662D01*
X10513782Y-18345662D02*
X10542354Y-18345662D01*
X10542354Y-18345662D02*
X10561401Y-18355185D01*
X10561401Y-18355185D02*
X10570925Y-18364709D01*
X10570925Y-18364709D02*
X10580449Y-18383757D01*
X10580449Y-18383757D02*
X10580449Y-18431376D01*
X10580449Y-18431376D02*
X10570925Y-18450424D01*
X10570925Y-18450424D02*
X10561401Y-18459947D01*
X10561401Y-18459947D02*
X10542354Y-18469471D01*
X10542354Y-18469471D02*
X10485211Y-18469471D01*
X10485211Y-18469471D02*
X10466163Y-18459947D01*
X10466163Y-18459947D02*
X10456639Y-18450424D01*
X10675687Y-18469471D02*
X10713782Y-18469471D01*
X10713782Y-18469471D02*
X10732830Y-18459947D01*
X10732830Y-18459947D02*
X10742354Y-18450424D01*
X10742354Y-18450424D02*
X10761401Y-18421852D01*
X10761401Y-18421852D02*
X10770925Y-18383757D01*
X10770925Y-18383757D02*
X10770925Y-18307566D01*
X10770925Y-18307566D02*
X10761401Y-18288519D01*
X10761401Y-18288519D02*
X10751877Y-18278995D01*
X10751877Y-18278995D02*
X10732830Y-18269471D01*
X10732830Y-18269471D02*
X10694734Y-18269471D01*
X10694734Y-18269471D02*
X10675687Y-18278995D01*
X10675687Y-18278995D02*
X10666163Y-18288519D01*
X10666163Y-18288519D02*
X10656639Y-18307566D01*
X10656639Y-18307566D02*
X10656639Y-18355185D01*
X10656639Y-18355185D02*
X10666163Y-18374233D01*
X10666163Y-18374233D02*
X10675687Y-18383757D01*
X10675687Y-18383757D02*
X10694734Y-18393281D01*
X10694734Y-18393281D02*
X10732830Y-18393281D01*
X10732830Y-18393281D02*
X10751877Y-18383757D01*
X10751877Y-18383757D02*
X10761401Y-18374233D01*
X10761401Y-18374233D02*
X10770925Y-18355185D01*
X10942354Y-18336138D02*
X10942354Y-18469471D01*
X10894734Y-18259947D02*
X10847115Y-18402805D01*
X10847115Y-18402805D02*
X10970925Y-18402805D01*
X11037592Y-18269471D02*
X11037592Y-18307566D01*
X11113782Y-18269471D02*
X11113782Y-18307566D01*
X11409020Y-18545662D02*
X11399496Y-18536138D01*
X11399496Y-18536138D02*
X11380449Y-18507566D01*
X11380449Y-18507566D02*
X11370925Y-18488519D01*
X11370925Y-18488519D02*
X11361401Y-18459947D01*
X11361401Y-18459947D02*
X11351877Y-18412328D01*
X11351877Y-18412328D02*
X11351877Y-18374233D01*
X11351877Y-18374233D02*
X11361401Y-18326614D01*
X11361401Y-18326614D02*
X11370925Y-18298043D01*
X11370925Y-18298043D02*
X11380449Y-18278995D01*
X11380449Y-18278995D02*
X11399496Y-18250424D01*
X11399496Y-18250424D02*
X11409020Y-18240900D01*
X11570925Y-18336138D02*
X11570925Y-18469471D01*
X11523306Y-18259947D02*
X11475687Y-18402805D01*
X11475687Y-18402805D02*
X11599496Y-18402805D01*
X11828068Y-18469471D02*
X11828068Y-18269471D01*
X11913782Y-18469471D02*
X11913782Y-18364709D01*
X11913782Y-18364709D02*
X11904258Y-18345662D01*
X11904258Y-18345662D02*
X11885211Y-18336138D01*
X11885211Y-18336138D02*
X11856639Y-18336138D01*
X11856639Y-18336138D02*
X11837592Y-18345662D01*
X11837592Y-18345662D02*
X11828068Y-18355185D01*
X12037592Y-18469471D02*
X12018544Y-18459947D01*
X12018544Y-18459947D02*
X12009020Y-18450424D01*
X12009020Y-18450424D02*
X11999496Y-18431376D01*
X11999496Y-18431376D02*
X11999496Y-18374233D01*
X11999496Y-18374233D02*
X12009020Y-18355185D01*
X12009020Y-18355185D02*
X12018544Y-18345662D01*
X12018544Y-18345662D02*
X12037592Y-18336138D01*
X12037592Y-18336138D02*
X12066163Y-18336138D01*
X12066163Y-18336138D02*
X12085211Y-18345662D01*
X12085211Y-18345662D02*
X12094735Y-18355185D01*
X12094735Y-18355185D02*
X12104258Y-18374233D01*
X12104258Y-18374233D02*
X12104258Y-18431376D01*
X12104258Y-18431376D02*
X12094735Y-18450424D01*
X12094735Y-18450424D02*
X12085211Y-18459947D01*
X12085211Y-18459947D02*
X12066163Y-18469471D01*
X12066163Y-18469471D02*
X12037592Y-18469471D01*
X12218544Y-18469471D02*
X12199496Y-18459947D01*
X12199496Y-18459947D02*
X12189973Y-18440900D01*
X12189973Y-18440900D02*
X12189973Y-18269471D01*
X12370925Y-18459947D02*
X12351877Y-18469471D01*
X12351877Y-18469471D02*
X12313782Y-18469471D01*
X12313782Y-18469471D02*
X12294735Y-18459947D01*
X12294735Y-18459947D02*
X12285211Y-18440900D01*
X12285211Y-18440900D02*
X12285211Y-18364709D01*
X12285211Y-18364709D02*
X12294735Y-18345662D01*
X12294735Y-18345662D02*
X12313782Y-18336138D01*
X12313782Y-18336138D02*
X12351877Y-18336138D01*
X12351877Y-18336138D02*
X12370925Y-18345662D01*
X12370925Y-18345662D02*
X12380449Y-18364709D01*
X12380449Y-18364709D02*
X12380449Y-18383757D01*
X12380449Y-18383757D02*
X12285211Y-18402805D01*
X12456639Y-18459947D02*
X12475687Y-18469471D01*
X12475687Y-18469471D02*
X12513782Y-18469471D01*
X12513782Y-18469471D02*
X12532830Y-18459947D01*
X12532830Y-18459947D02*
X12542354Y-18440900D01*
X12542354Y-18440900D02*
X12542354Y-18431376D01*
X12542354Y-18431376D02*
X12532830Y-18412328D01*
X12532830Y-18412328D02*
X12513782Y-18402805D01*
X12513782Y-18402805D02*
X12485211Y-18402805D01*
X12485211Y-18402805D02*
X12466163Y-18393281D01*
X12466163Y-18393281D02*
X12456639Y-18374233D01*
X12456639Y-18374233D02*
X12456639Y-18364709D01*
X12456639Y-18364709D02*
X12466163Y-18345662D01*
X12466163Y-18345662D02*
X12485211Y-18336138D01*
X12485211Y-18336138D02*
X12513782Y-18336138D01*
X12513782Y-18336138D02*
X12532830Y-18345662D01*
X12609020Y-18545662D02*
X12618544Y-18536138D01*
X12618544Y-18536138D02*
X12637592Y-18507566D01*
X12637592Y-18507566D02*
X12647116Y-18488519D01*
X12647116Y-18488519D02*
X12656639Y-18459947D01*
X12656639Y-18459947D02*
X12666163Y-18412328D01*
X12666163Y-18412328D02*
X12666163Y-18374233D01*
X12666163Y-18374233D02*
X12656639Y-18326614D01*
X12656639Y-18326614D02*
X12647116Y-18298043D01*
X12647116Y-18298043D02*
X12637592Y-18278995D01*
X12637592Y-18278995D02*
X12618544Y-18250424D01*
X12618544Y-18250424D02*
X12609020Y-18240900D01*
D14*
X7778957Y-18586987D02*
X7778957Y-18696987D01*
X7723957Y-18641987D02*
X7833957Y-18641987D01*
D12*
X8199496Y-18733471D02*
X8085210Y-18733471D01*
X8142353Y-18733471D02*
X8142353Y-18533471D01*
X8142353Y-18533471D02*
X8123306Y-18562043D01*
X8123306Y-18562043D02*
X8104258Y-18581090D01*
X8104258Y-18581090D02*
X8085210Y-18590614D01*
X8285210Y-18714424D02*
X8294734Y-18723947D01*
X8294734Y-18723947D02*
X8285210Y-18733471D01*
X8285210Y-18733471D02*
X8275687Y-18723947D01*
X8275687Y-18723947D02*
X8285210Y-18714424D01*
X8285210Y-18714424D02*
X8285210Y-18733471D01*
X8485210Y-18733471D02*
X8370925Y-18733471D01*
X8428068Y-18733471D02*
X8428068Y-18533471D01*
X8428068Y-18533471D02*
X8409020Y-18562043D01*
X8409020Y-18562043D02*
X8389972Y-18581090D01*
X8389972Y-18581090D02*
X8370925Y-18590614D01*
X8609020Y-18533471D02*
X8628068Y-18533471D01*
X8628068Y-18533471D02*
X8647115Y-18542995D01*
X8647115Y-18542995D02*
X8656639Y-18552519D01*
X8656639Y-18552519D02*
X8666163Y-18571566D01*
X8666163Y-18571566D02*
X8675687Y-18609662D01*
X8675687Y-18609662D02*
X8675687Y-18657281D01*
X8675687Y-18657281D02*
X8666163Y-18695376D01*
X8666163Y-18695376D02*
X8656639Y-18714424D01*
X8656639Y-18714424D02*
X8647115Y-18723947D01*
X8647115Y-18723947D02*
X8628068Y-18733471D01*
X8628068Y-18733471D02*
X8609020Y-18733471D01*
X8609020Y-18733471D02*
X8589972Y-18723947D01*
X8589972Y-18723947D02*
X8580449Y-18714424D01*
X8580449Y-18714424D02*
X8570925Y-18695376D01*
X8570925Y-18695376D02*
X8561401Y-18657281D01*
X8561401Y-18657281D02*
X8561401Y-18609662D01*
X8561401Y-18609662D02*
X8570925Y-18571566D01*
X8570925Y-18571566D02*
X8580449Y-18552519D01*
X8580449Y-18552519D02*
X8589972Y-18542995D01*
X8589972Y-18542995D02*
X8609020Y-18533471D01*
X8799496Y-18533471D02*
X8818544Y-18533471D01*
X8818544Y-18533471D02*
X8837591Y-18542995D01*
X8837591Y-18542995D02*
X8847115Y-18552519D01*
X8847115Y-18552519D02*
X8856639Y-18571566D01*
X8856639Y-18571566D02*
X8866163Y-18609662D01*
X8866163Y-18609662D02*
X8866163Y-18657281D01*
X8866163Y-18657281D02*
X8856639Y-18695376D01*
X8856639Y-18695376D02*
X8847115Y-18714424D01*
X8847115Y-18714424D02*
X8837591Y-18723947D01*
X8837591Y-18723947D02*
X8818544Y-18733471D01*
X8818544Y-18733471D02*
X8799496Y-18733471D01*
X8799496Y-18733471D02*
X8780449Y-18723947D01*
X8780449Y-18723947D02*
X8770925Y-18714424D01*
X8770925Y-18714424D02*
X8761401Y-18695376D01*
X8761401Y-18695376D02*
X8751877Y-18657281D01*
X8751877Y-18657281D02*
X8751877Y-18609662D01*
X8751877Y-18609662D02*
X8761401Y-18571566D01*
X8761401Y-18571566D02*
X8770925Y-18552519D01*
X8770925Y-18552519D02*
X8780449Y-18542995D01*
X8780449Y-18542995D02*
X8799496Y-18533471D01*
X8951877Y-18733471D02*
X8951877Y-18600138D01*
X8951877Y-18619185D02*
X8961401Y-18609662D01*
X8961401Y-18609662D02*
X8980449Y-18600138D01*
X8980449Y-18600138D02*
X9009020Y-18600138D01*
X9009020Y-18600138D02*
X9028068Y-18609662D01*
X9028068Y-18609662D02*
X9037591Y-18628709D01*
X9037591Y-18628709D02*
X9037591Y-18733471D01*
X9037591Y-18628709D02*
X9047115Y-18609662D01*
X9047115Y-18609662D02*
X9066163Y-18600138D01*
X9066163Y-18600138D02*
X9094734Y-18600138D01*
X9094734Y-18600138D02*
X9113782Y-18609662D01*
X9113782Y-18609662D02*
X9123306Y-18628709D01*
X9123306Y-18628709D02*
X9123306Y-18733471D01*
X9218544Y-18733471D02*
X9218544Y-18600138D01*
X9218544Y-18619185D02*
X9228068Y-18609662D01*
X9228068Y-18609662D02*
X9247115Y-18600138D01*
X9247115Y-18600138D02*
X9275687Y-18600138D01*
X9275687Y-18600138D02*
X9294734Y-18609662D01*
X9294734Y-18609662D02*
X9304258Y-18628709D01*
X9304258Y-18628709D02*
X9304258Y-18733471D01*
X9304258Y-18628709D02*
X9313782Y-18609662D01*
X9313782Y-18609662D02*
X9332830Y-18600138D01*
X9332830Y-18600138D02*
X9361401Y-18600138D01*
X9361401Y-18600138D02*
X9380449Y-18609662D01*
X9380449Y-18609662D02*
X9389972Y-18628709D01*
X9389972Y-18628709D02*
X9389972Y-18733471D01*
X9780449Y-18523947D02*
X9609020Y-18781090D01*
X10037592Y-18533471D02*
X10056639Y-18533471D01*
X10056639Y-18533471D02*
X10075687Y-18542995D01*
X10075687Y-18542995D02*
X10085211Y-18552519D01*
X10085211Y-18552519D02*
X10094734Y-18571566D01*
X10094734Y-18571566D02*
X10104258Y-18609662D01*
X10104258Y-18609662D02*
X10104258Y-18657281D01*
X10104258Y-18657281D02*
X10094734Y-18695376D01*
X10094734Y-18695376D02*
X10085211Y-18714424D01*
X10085211Y-18714424D02*
X10075687Y-18723947D01*
X10075687Y-18723947D02*
X10056639Y-18733471D01*
X10056639Y-18733471D02*
X10037592Y-18733471D01*
X10037592Y-18733471D02*
X10018544Y-18723947D01*
X10018544Y-18723947D02*
X10009020Y-18714424D01*
X10009020Y-18714424D02*
X9999496Y-18695376D01*
X9999496Y-18695376D02*
X9989973Y-18657281D01*
X9989973Y-18657281D02*
X9989973Y-18609662D01*
X9989973Y-18609662D02*
X9999496Y-18571566D01*
X9999496Y-18571566D02*
X10009020Y-18552519D01*
X10009020Y-18552519D02*
X10018544Y-18542995D01*
X10018544Y-18542995D02*
X10037592Y-18533471D01*
X10189973Y-18714424D02*
X10199496Y-18723947D01*
X10199496Y-18723947D02*
X10189973Y-18733471D01*
X10189973Y-18733471D02*
X10180449Y-18723947D01*
X10180449Y-18723947D02*
X10189973Y-18714424D01*
X10189973Y-18714424D02*
X10189973Y-18733471D01*
X10323306Y-18533471D02*
X10342354Y-18533471D01*
X10342354Y-18533471D02*
X10361401Y-18542995D01*
X10361401Y-18542995D02*
X10370925Y-18552519D01*
X10370925Y-18552519D02*
X10380449Y-18571566D01*
X10380449Y-18571566D02*
X10389973Y-18609662D01*
X10389973Y-18609662D02*
X10389973Y-18657281D01*
X10389973Y-18657281D02*
X10380449Y-18695376D01*
X10380449Y-18695376D02*
X10370925Y-18714424D01*
X10370925Y-18714424D02*
X10361401Y-18723947D01*
X10361401Y-18723947D02*
X10342354Y-18733471D01*
X10342354Y-18733471D02*
X10323306Y-18733471D01*
X10323306Y-18733471D02*
X10304258Y-18723947D01*
X10304258Y-18723947D02*
X10294734Y-18714424D01*
X10294734Y-18714424D02*
X10285211Y-18695376D01*
X10285211Y-18695376D02*
X10275687Y-18657281D01*
X10275687Y-18657281D02*
X10275687Y-18609662D01*
X10275687Y-18609662D02*
X10285211Y-18571566D01*
X10285211Y-18571566D02*
X10294734Y-18552519D01*
X10294734Y-18552519D02*
X10304258Y-18542995D01*
X10304258Y-18542995D02*
X10323306Y-18533471D01*
X10561401Y-18600138D02*
X10561401Y-18733471D01*
X10513782Y-18523947D02*
X10466163Y-18666805D01*
X10466163Y-18666805D02*
X10589973Y-18666805D01*
X10647115Y-18533471D02*
X10770925Y-18533471D01*
X10770925Y-18533471D02*
X10704258Y-18609662D01*
X10704258Y-18609662D02*
X10732830Y-18609662D01*
X10732830Y-18609662D02*
X10751877Y-18619185D01*
X10751877Y-18619185D02*
X10761401Y-18628709D01*
X10761401Y-18628709D02*
X10770925Y-18647757D01*
X10770925Y-18647757D02*
X10770925Y-18695376D01*
X10770925Y-18695376D02*
X10761401Y-18714424D01*
X10761401Y-18714424D02*
X10751877Y-18723947D01*
X10751877Y-18723947D02*
X10732830Y-18733471D01*
X10732830Y-18733471D02*
X10675687Y-18733471D01*
X10675687Y-18733471D02*
X10656639Y-18723947D01*
X10656639Y-18723947D02*
X10647115Y-18714424D01*
X10837592Y-18533471D02*
X10961401Y-18533471D01*
X10961401Y-18533471D02*
X10894734Y-18609662D01*
X10894734Y-18609662D02*
X10923306Y-18609662D01*
X10923306Y-18609662D02*
X10942354Y-18619185D01*
X10942354Y-18619185D02*
X10951877Y-18628709D01*
X10951877Y-18628709D02*
X10961401Y-18647757D01*
X10961401Y-18647757D02*
X10961401Y-18695376D01*
X10961401Y-18695376D02*
X10951877Y-18714424D01*
X10951877Y-18714424D02*
X10942354Y-18723947D01*
X10942354Y-18723947D02*
X10923306Y-18733471D01*
X10923306Y-18733471D02*
X10866163Y-18733471D01*
X10866163Y-18733471D02*
X10847115Y-18723947D01*
X10847115Y-18723947D02*
X10837592Y-18714424D01*
X11037592Y-18533471D02*
X11037592Y-18571566D01*
X11113782Y-18533471D02*
X11113782Y-18571566D01*
X11409020Y-18809662D02*
X11399496Y-18800138D01*
X11399496Y-18800138D02*
X11380449Y-18771566D01*
X11380449Y-18771566D02*
X11370925Y-18752519D01*
X11370925Y-18752519D02*
X11361401Y-18723947D01*
X11361401Y-18723947D02*
X11351877Y-18676328D01*
X11351877Y-18676328D02*
X11351877Y-18638233D01*
X11351877Y-18638233D02*
X11361401Y-18590614D01*
X11361401Y-18590614D02*
X11370925Y-18562043D01*
X11370925Y-18562043D02*
X11380449Y-18542995D01*
X11380449Y-18542995D02*
X11399496Y-18514424D01*
X11399496Y-18514424D02*
X11409020Y-18504900D01*
X11475687Y-18552519D02*
X11485211Y-18542995D01*
X11485211Y-18542995D02*
X11504258Y-18533471D01*
X11504258Y-18533471D02*
X11551877Y-18533471D01*
X11551877Y-18533471D02*
X11570925Y-18542995D01*
X11570925Y-18542995D02*
X11580449Y-18552519D01*
X11580449Y-18552519D02*
X11589973Y-18571566D01*
X11589973Y-18571566D02*
X11589973Y-18590614D01*
X11589973Y-18590614D02*
X11580449Y-18619185D01*
X11580449Y-18619185D02*
X11466163Y-18733471D01*
X11466163Y-18733471D02*
X11589973Y-18733471D01*
X11761401Y-18600138D02*
X11761401Y-18733471D01*
X11713782Y-18523947D02*
X11666163Y-18666805D01*
X11666163Y-18666805D02*
X11789973Y-18666805D01*
X12018544Y-18733471D02*
X12018544Y-18533471D01*
X12104258Y-18733471D02*
X12104258Y-18628709D01*
X12104258Y-18628709D02*
X12094735Y-18609662D01*
X12094735Y-18609662D02*
X12075687Y-18600138D01*
X12075687Y-18600138D02*
X12047115Y-18600138D01*
X12047115Y-18600138D02*
X12028068Y-18609662D01*
X12028068Y-18609662D02*
X12018544Y-18619185D01*
X12228068Y-18733471D02*
X12209020Y-18723947D01*
X12209020Y-18723947D02*
X12199496Y-18714424D01*
X12199496Y-18714424D02*
X12189973Y-18695376D01*
X12189973Y-18695376D02*
X12189973Y-18638233D01*
X12189973Y-18638233D02*
X12199496Y-18619185D01*
X12199496Y-18619185D02*
X12209020Y-18609662D01*
X12209020Y-18609662D02*
X12228068Y-18600138D01*
X12228068Y-18600138D02*
X12256639Y-18600138D01*
X12256639Y-18600138D02*
X12275687Y-18609662D01*
X12275687Y-18609662D02*
X12285211Y-18619185D01*
X12285211Y-18619185D02*
X12294735Y-18638233D01*
X12294735Y-18638233D02*
X12294735Y-18695376D01*
X12294735Y-18695376D02*
X12285211Y-18714424D01*
X12285211Y-18714424D02*
X12275687Y-18723947D01*
X12275687Y-18723947D02*
X12256639Y-18733471D01*
X12256639Y-18733471D02*
X12228068Y-18733471D01*
X12409020Y-18733471D02*
X12389973Y-18723947D01*
X12389973Y-18723947D02*
X12380449Y-18704900D01*
X12380449Y-18704900D02*
X12380449Y-18533471D01*
X12561401Y-18723947D02*
X12542354Y-18733471D01*
X12542354Y-18733471D02*
X12504258Y-18733471D01*
X12504258Y-18733471D02*
X12485211Y-18723947D01*
X12485211Y-18723947D02*
X12475687Y-18704900D01*
X12475687Y-18704900D02*
X12475687Y-18628709D01*
X12475687Y-18628709D02*
X12485211Y-18609662D01*
X12485211Y-18609662D02*
X12504258Y-18600138D01*
X12504258Y-18600138D02*
X12542354Y-18600138D01*
X12542354Y-18600138D02*
X12561401Y-18609662D01*
X12561401Y-18609662D02*
X12570925Y-18628709D01*
X12570925Y-18628709D02*
X12570925Y-18647757D01*
X12570925Y-18647757D02*
X12475687Y-18666805D01*
X12647116Y-18723947D02*
X12666163Y-18733471D01*
X12666163Y-18733471D02*
X12704258Y-18733471D01*
X12704258Y-18733471D02*
X12723306Y-18723947D01*
X12723306Y-18723947D02*
X12732830Y-18704900D01*
X12732830Y-18704900D02*
X12732830Y-18695376D01*
X12732830Y-18695376D02*
X12723306Y-18676328D01*
X12723306Y-18676328D02*
X12704258Y-18666805D01*
X12704258Y-18666805D02*
X12675687Y-18666805D01*
X12675687Y-18666805D02*
X12656639Y-18657281D01*
X12656639Y-18657281D02*
X12647116Y-18638233D01*
X12647116Y-18638233D02*
X12647116Y-18628709D01*
X12647116Y-18628709D02*
X12656639Y-18609662D01*
X12656639Y-18609662D02*
X12675687Y-18600138D01*
X12675687Y-18600138D02*
X12704258Y-18600138D01*
X12704258Y-18600138D02*
X12723306Y-18609662D01*
X12799497Y-18809662D02*
X12809020Y-18800138D01*
X12809020Y-18800138D02*
X12828068Y-18771566D01*
X12828068Y-18771566D02*
X12837592Y-18752519D01*
X12837592Y-18752519D02*
X12847116Y-18723947D01*
X12847116Y-18723947D02*
X12856639Y-18676328D01*
X12856639Y-18676328D02*
X12856639Y-18638233D01*
X12856639Y-18638233D02*
X12847116Y-18590614D01*
X12847116Y-18590614D02*
X12837592Y-18562043D01*
X12837592Y-18562043D02*
X12828068Y-18542995D01*
X12828068Y-18542995D02*
X12809020Y-18514424D01*
X12809020Y-18514424D02*
X12799497Y-18504900D01*
M02*
