G04 #@! TF.GenerationSoftware,KiCad,Pcbnew,9.0.7*
G04 #@! TF.CreationDate,2026-02-21T16:52:39+09:00*
G04 #@! TF.ProjectId,TrueStrike56,54727565-5374-4726-996b-6535362e6b69,rev?*
G04 #@! TF.SameCoordinates,Original*
G04 #@! TF.FileFunction,Paste,Bot*
G04 #@! TF.FilePolarity,Positive*
%FSLAX46Y46*%
G04 Gerber Fmt 4.6, Leading zero omitted, Abs format (unit mm)*
G04 Created by KiCad (PCBNEW 9.0.7) date 2026-02-21 16:52:39*
%MOMM*%
%LPD*%
G01*
G04 APERTURE LIST*
G04 Aperture macros list*
%AMRoundRect*
0 Rectangle with rounded corners*
0 $1 Rounding radius*
0 $2 $3 $4 $5 $6 $7 $8 $9 X,Y pos of 4 corners*
0 Add a 4 corners polygon primitive as box body*
4,1,4,$2,$3,$4,$5,$6,$7,$8,$9,$2,$3,0*
0 Add four circle primitives for the rounded corners*
1,1,$1+$1,$2,$3*
1,1,$1+$1,$4,$5*
1,1,$1+$1,$6,$7*
1,1,$1+$1,$8,$9*
0 Add four rect primitives between the rounded corners*
20,1,$1+$1,$2,$3,$4,$5,0*
20,1,$1+$1,$4,$5,$6,$7,0*
20,1,$1+$1,$6,$7,$8,$9,0*
20,1,$1+$1,$8,$9,$2,$3,0*%
%AMRotRect*
0 Rectangle, with rotation*
0 The origin of the aperture is its center*
0 $1 length*
0 $2 width*
0 $3 Rotation angle, in degrees counterclockwise*
0 Add horizontal line*
21,1,$1,$2,0,0,$3*%
G04 Aperture macros list end*
%ADD10RoundRect,0.150000X-0.528659X-0.296945X0.606304X0.007167X0.528659X0.296945X-0.606304X-0.007167X0*%
%ADD11RoundRect,0.150000X-0.606304X0.007167X0.528659X-0.296945X0.606304X-0.007167X-0.528659X0.296945X0*%
%ADD12RoundRect,0.150000X-0.395215X-0.459849X0.567288X0.214103X0.395215X0.459849X-0.567288X-0.214103X0*%
%ADD13RoundRect,0.150000X-0.595849X0.112342X0.469063X-0.384234X0.595849X-0.112342X-0.469063X0.384234X0*%
%ADD14RoundRect,0.150000X-0.567288X0.214103X0.395215X-0.459849X0.567288X-0.214103X-0.395215X0.459849X0*%
%ADD15RoundRect,0.150000X-0.469063X-0.384234X0.595849X0.112342X0.469063X0.384234X-0.595849X-0.112342X0*%
%ADD16RoundRect,0.250000X-0.371463X0.448939X-0.546166X-0.203061X0.371463X-0.448939X0.546166X0.203061X0*%
%ADD17RotRect,1.250000X0.900000X195.000000*%
%ADD18RotRect,1.250000X0.900000X25.000000*%
%ADD19RotRect,1.240000X0.900000X25.000000*%
%ADD20RoundRect,0.250000X-0.546166X0.203061X-0.371463X-0.448939X0.546166X-0.203061X0.371463X0.448939X0*%
%ADD21RoundRect,0.250000X-0.337500X-0.475000X0.337500X-0.475000X0.337500X0.475000X-0.337500X0.475000X0*%
%ADD22RotRect,1.250000X0.900000X15.000000*%
%ADD23RotRect,1.240000X0.900000X15.000000*%
%ADD24RotRect,1.250000X0.900000X165.000000*%
%ADD25RoundRect,0.250000X-0.448939X-0.371463X0.203061X-0.546166X0.448939X0.371463X-0.203061X0.546166X0*%
%ADD26RotRect,1.250000X0.900000X345.000000*%
%ADD27RotRect,1.240000X0.900000X345.000000*%
%ADD28RoundRect,0.250000X0.546166X-0.203061X0.371463X0.448939X-0.546166X0.203061X-0.371463X-0.448939X0*%
%ADD29RoundRect,0.250000X-0.203061X-0.546166X0.448939X-0.371463X0.203061X0.546166X-0.448939X0.371463X0*%
%ADD30RotRect,1.250000X0.900000X325.000000*%
%ADD31RotRect,1.240000X0.900000X325.000000*%
%ADD32RotRect,1.250000X0.900000X35.000000*%
%ADD33RotRect,1.240000X0.900000X35.000000*%
%ADD34R,1.250000X1.000000*%
%ADD35RoundRect,0.250000X0.195515X-0.548913X0.582679X0.004015X-0.195515X0.548913X-0.582679X-0.004015X0*%
%ADD36RoundRect,0.150000X0.835712X-0.068637X-0.758066X0.358415X-0.835712X0.068637X0.758066X-0.358415X0*%
%ADD37RoundRect,0.150000X0.758066X0.358415X-0.835712X-0.068637X-0.758066X-0.358415X0.835712X0.068637X0*%
%ADD38RoundRect,0.150000X0.825000X0.150000X-0.825000X0.150000X-0.825000X-0.150000X0.825000X-0.150000X0*%
%ADD39RotRect,1.250000X0.900000X335.000000*%
%ADD40RotRect,1.240000X0.900000X335.000000*%
%ADD41RoundRect,0.250000X-0.195515X0.548913X-0.582679X-0.004015X0.195515X-0.548913X0.582679X0.004015X0*%
%ADD42RoundRect,0.250000X-0.287863X0.506623X-0.573130X-0.105135X0.287863X-0.506623X0.573130X0.105135X0*%
%ADD43RoundRect,0.250000X-0.582679X0.004015X-0.195515X-0.548913X0.582679X-0.004015X0.195515X0.548913X0*%
%ADD44RoundRect,0.250000X-0.573130X0.105135X-0.287863X-0.506623X0.573130X-0.105135X0.287863X0.506623X0*%
G04 APERTURE END LIST*
D10*
X320729923Y-87479602D03*
X322786911Y-87911948D03*
X322295154Y-86076687D03*
D11*
X191171921Y-90155517D03*
X192737153Y-91558432D03*
X193228910Y-89723173D03*
X99003134Y-66116373D03*
X100568366Y-67519288D03*
X101060123Y-65684029D03*
D10*
X303482649Y-133517210D03*
X305539637Y-133949556D03*
X305047880Y-132114295D03*
D11*
X172771034Y-85225026D03*
X174336266Y-86627941D03*
X174828023Y-84792682D03*
X113130910Y-86994315D03*
X114696142Y-88397230D03*
X115187899Y-86561971D03*
X89142120Y-102918152D03*
X90707352Y-104321067D03*
X91199109Y-102485808D03*
X130378192Y-133031931D03*
X131943424Y-134434846D03*
X132435181Y-132599587D03*
X167840531Y-103625911D03*
X169405763Y-105028826D03*
X169897520Y-103193567D03*
D10*
X266020319Y-104111196D03*
X268077307Y-104543542D03*
X267585550Y-102708281D03*
X270950824Y-122512073D03*
X273007812Y-122944419D03*
X272516055Y-121109158D03*
X288201261Y-113288035D03*
X290258249Y-113720381D03*
X289766492Y-111885120D03*
D11*
X181310904Y-126957306D03*
X182876136Y-128360221D03*
X183367893Y-126524962D03*
X162910015Y-122026794D03*
X164475247Y-123429709D03*
X164967004Y-121594450D03*
D10*
X344718717Y-103403434D03*
X346775705Y-103835780D03*
X346283948Y-102000519D03*
D11*
X122991914Y-50192541D03*
X124557146Y-51595456D03*
X125048903Y-49760197D03*
X186241407Y-108556406D03*
X187806639Y-109959321D03*
X188298396Y-108124062D03*
X126930001Y-109098983D03*
X128495233Y-110501898D03*
X128986990Y-108666639D03*
D10*
X252549923Y-127442587D03*
X254606911Y-127874933D03*
X254115154Y-126039672D03*
X273409749Y-58085374D03*
X275466737Y-58517720D03*
X274974980Y-56682459D03*
X310868912Y-50677820D03*
X312925900Y-51110166D03*
X312434143Y-49274905D03*
D11*
X108200407Y-105395190D03*
X109765639Y-106798105D03*
X110257396Y-104962846D03*
D10*
X329927206Y-48200776D03*
X331984194Y-48633122D03*
X331492437Y-46797861D03*
D11*
X136791007Y-72297199D03*
X138356239Y-73700114D03*
X138847996Y-71864855D03*
X94072619Y-84517262D03*
X95637851Y-85920177D03*
X96129608Y-84084918D03*
X118061411Y-68593424D03*
X119626643Y-69996339D03*
X120118400Y-68161080D03*
X131860496Y-90698084D03*
X133425728Y-92100999D03*
X133917485Y-90265740D03*
D10*
X278340249Y-76486265D03*
X280397237Y-76918611D03*
X279905480Y-75083350D03*
D11*
X177701522Y-66824143D03*
X179266754Y-68227058D03*
X179758511Y-66391799D03*
D10*
X237758416Y-72239921D03*
X239815404Y-72672267D03*
X239323647Y-70837006D03*
D11*
X150591323Y-94397256D03*
X152156555Y-95800171D03*
X152648312Y-93964912D03*
D10*
X334857716Y-66601659D03*
X336914704Y-67034005D03*
X336422947Y-65198744D03*
X325660426Y-105880480D03*
X327717414Y-106312826D03*
X327225657Y-104477565D03*
D12*
X243292601Y-159208975D03*
X245373408Y-158911714D03*
X244283613Y-157355325D03*
D10*
X315799421Y-69078709D03*
X317856409Y-69511055D03*
X317364652Y-67675794D03*
D13*
X168582894Y-145072508D03*
X169880734Y-146725910D03*
X170683709Y-145003925D03*
D11*
X160452326Y-57595475D03*
X162017558Y-58998390D03*
X162509315Y-57163131D03*
D14*
X190712372Y-158041750D03*
X191703384Y-159895400D03*
X192793179Y-158339011D03*
D10*
X285081759Y-138447717D03*
X287138747Y-138880063D03*
X286646990Y-137044802D03*
X302000344Y-91183366D03*
X304057332Y-91615712D03*
X303565575Y-89780451D03*
D11*
X141721508Y-53896313D03*
X143286740Y-55299228D03*
X143778497Y-53463969D03*
X103933628Y-47715485D03*
X105498860Y-49118400D03*
X105990617Y-47283141D03*
D10*
X297069838Y-72782481D03*
X299126826Y-73214827D03*
X298635069Y-71379566D03*
X283270759Y-94887149D03*
X285327747Y-95319495D03*
X284835990Y-93484234D03*
X306930839Y-109584259D03*
X308987827Y-110016605D03*
X308496070Y-108181344D03*
X261089812Y-85710305D03*
X263146800Y-86142651D03*
X262655043Y-84307390D03*
X242688922Y-90640806D03*
X244745910Y-91073152D03*
X244254153Y-89237891D03*
X256159310Y-67309418D03*
X258216298Y-67741764D03*
X257724541Y-65906503D03*
X292139330Y-54381602D03*
X294196318Y-54813948D03*
X293704561Y-52978687D03*
X247619420Y-109041694D03*
X249676408Y-109474040D03*
X249184651Y-107638779D03*
D11*
X145660822Y-112798135D03*
X147226054Y-114201050D03*
X147717811Y-112365791D03*
X155521827Y-75996370D03*
X157087059Y-77399285D03*
X157578816Y-75564026D03*
X196102430Y-71754635D03*
X197667662Y-73157550D03*
X198159419Y-71322291D03*
D10*
X339788209Y-85002538D03*
X341845197Y-85434884D03*
X341353440Y-83599623D03*
D11*
X148779069Y-137962434D03*
X150344301Y-139365349D03*
X150836058Y-137530090D03*
D15*
X265389725Y-145864911D03*
X267490540Y-145933495D03*
X266687564Y-144211510D03*
D16*
X148251541Y-52775729D03*
X148788591Y-50771433D03*
D17*
X247490187Y-93442623D03*
X247878416Y-94891510D03*
X242131155Y-96431485D03*
X241742926Y-94982598D03*
X257351186Y-130244396D03*
X257739415Y-131693283D03*
X251992154Y-133233258D03*
X251603925Y-131784371D03*
D18*
X265845975Y-151664473D03*
D19*
X265207516Y-150307125D03*
D18*
X270604579Y-147790433D03*
X271238505Y-149149895D03*
D16*
X199155771Y-97839216D03*
X199692821Y-95834920D03*
D20*
X242853301Y-68004448D03*
X242316251Y-66000152D03*
D16*
X189261894Y-134763658D03*
X189798944Y-132759362D03*
D21*
X227763477Y-105779280D03*
X225688477Y-105779280D03*
D22*
X272851978Y-63876044D03*
D23*
X272458921Y-62428449D03*
D22*
X278211010Y-60887182D03*
X278599239Y-62336069D03*
D17*
X301871092Y-75584303D03*
X302259321Y-77033190D03*
X296512060Y-78573165D03*
X296123831Y-77124278D03*
D16*
X157120118Y-93281277D03*
X157657168Y-91276981D03*
D24*
X96829739Y-89344332D03*
X96441510Y-90793221D03*
X90694251Y-89253248D03*
X91082480Y-87804359D03*
D20*
X297540974Y-49884009D03*
X297003924Y-47879713D03*
X315963798Y-46442349D03*
X315426748Y-44438053D03*
X312025729Y-105348785D03*
X311488679Y-103344489D03*
X290528390Y-134117995D03*
X289991340Y-132113699D03*
D16*
X179301068Y-84104442D03*
X179838118Y-82100146D03*
D20*
X339952588Y-62366179D03*
X339415538Y-60361883D03*
D25*
X147932021Y-75150951D03*
X145927725Y-74613901D03*
D16*
X114730450Y-104274620D03*
X115267500Y-102270324D03*
X124591459Y-67472839D03*
X125128509Y-65468543D03*
D17*
X339658969Y-69403470D03*
X340047198Y-70852357D03*
X334299937Y-72392332D03*
X333911708Y-70943445D03*
D26*
X114683039Y-73329415D03*
D27*
X115066438Y-71879232D03*
D26*
X120818527Y-73420499D03*
X120430298Y-74869388D03*
D16*
X133460035Y-107978394D03*
X133997085Y-105974098D03*
X197701954Y-89034945D03*
X198239004Y-87030649D03*
D28*
X246004482Y-133250053D03*
X246541532Y-135254349D03*
X236143474Y-96448279D03*
X236680524Y-98452575D03*
D20*
X278504627Y-53849899D03*
X277967577Y-51845603D03*
D26*
X142281200Y-117538737D03*
D27*
X142664599Y-116088554D03*
D26*
X148416688Y-117629821D03*
X148028459Y-119078710D03*
D17*
X330461689Y-108682296D03*
X330849918Y-110131183D03*
X325102657Y-111671158D03*
X324714428Y-110222271D03*
D20*
X283435131Y-72250789D03*
X282898081Y-70246493D03*
D16*
X173143833Y-102176619D03*
X173680883Y-100172323D03*
D28*
X241336938Y-115830548D03*
X241873988Y-117834844D03*
D29*
X289777095Y-74736568D03*
X287772799Y-75273618D03*
D24*
X180458644Y-71651208D03*
X180070415Y-73100097D03*
X174323156Y-71560124D03*
X174711385Y-70111235D03*
D22*
X302924877Y-139307885D03*
D23*
X302531820Y-137860290D03*
D22*
X308283909Y-136319023D03*
X308672138Y-137767910D03*
D20*
X257644808Y-123207121D03*
X257107758Y-121202825D03*
D26*
X177932526Y-131693291D03*
D27*
X178315925Y-130243108D03*
D26*
X184068014Y-131784375D03*
X183679785Y-133233264D03*
D22*
X265462541Y-109901873D03*
D23*
X265069484Y-108454278D03*
D22*
X270821573Y-106913011D03*
X271209802Y-108361898D03*
D20*
X302164719Y-68547014D03*
X301627669Y-66542718D03*
D22*
X247061656Y-114832366D03*
D23*
X246668599Y-113384771D03*
D22*
X252420688Y-111843504D03*
X252808917Y-113292391D03*
D30*
X185930798Y-161293247D03*
D31*
X186787067Y-160061651D03*
D30*
X191665118Y-163477299D03*
X190804753Y-164706027D03*
D26*
X159531644Y-126762775D03*
D27*
X159915043Y-125312592D03*
D26*
X165667132Y-126853859D03*
X165278903Y-128302748D03*
D32*
X244814528Y-164795306D03*
D33*
X243950068Y-163569445D03*
D32*
X248828118Y-160153796D03*
X249688483Y-161382522D03*
D26*
X169392653Y-89961010D03*
D27*
X169776052Y-88510827D03*
D26*
X175528141Y-90052094D03*
X175139912Y-91500983D03*
D34*
X214087971Y-133592279D03*
X221837971Y-133592279D03*
D24*
X134617605Y-95525165D03*
X134229376Y-96974054D03*
X128482117Y-95434081D03*
X128870346Y-93985192D03*
D16*
X155309107Y-136841846D03*
X155846157Y-134837550D03*
D24*
X163208201Y-62427171D03*
X162819972Y-63876060D03*
X157072713Y-62336087D03*
X157460942Y-60887198D03*
D22*
X255601533Y-73100095D03*
D23*
X255208476Y-71652500D03*
D22*
X260960565Y-70111233D03*
X261348794Y-71560120D03*
D20*
X287138898Y-90980374D03*
X286601848Y-88976078D03*
D22*
X301442564Y-96974049D03*
D23*
X301049507Y-95526454D03*
D22*
X306801596Y-93985187D03*
X307189825Y-95434074D03*
D17*
X293002514Y-116089843D03*
X293390743Y-117538730D03*
X287643482Y-119078705D03*
X287255253Y-117629818D03*
D26*
X123551617Y-113834967D03*
D27*
X123935016Y-112384784D03*
D26*
X129687105Y-113926051D03*
X129298876Y-115374940D03*
D20*
X349813600Y-99167960D03*
X349276550Y-97163664D03*
D35*
X181192665Y-157373455D03*
X180002493Y-159073195D03*
D16*
X119660955Y-85873732D03*
X120198005Y-83869436D03*
D26*
X145400684Y-142698425D03*
D27*
X145784083Y-141248242D03*
D26*
X151536172Y-142789509D03*
X151147943Y-144238398D03*
D36*
X105732354Y-71863865D03*
X105403654Y-73090590D03*
X105074954Y-74317316D03*
X104746254Y-75544042D03*
X104417553Y-76770768D03*
X104088853Y-77997495D03*
X103760153Y-79224219D03*
X103431453Y-80450945D03*
X108212786Y-81732099D03*
X108541486Y-80505374D03*
X108870186Y-79278648D03*
X109198886Y-78051922D03*
X109527587Y-76825196D03*
X109856287Y-75598469D03*
X110184987Y-74371745D03*
X110513687Y-73145019D03*
D25*
X183747691Y-88692135D03*
X181743395Y-88155085D03*
D17*
X265891070Y-88512125D03*
X266279299Y-89961012D03*
X260532038Y-91500987D03*
X260143809Y-90052100D03*
D24*
X115888030Y-91821381D03*
X115499801Y-93270270D03*
X109752542Y-91730297D03*
X110140771Y-90281408D03*
D26*
X104822032Y-110131186D03*
D27*
X105205431Y-108681003D03*
D26*
X110957520Y-110222270D03*
X110569291Y-111671159D03*
D20*
X251487585Y-105134921D03*
X250950535Y-103130625D03*
D16*
X194488227Y-115258724D03*
X195025277Y-113254428D03*
X204103894Y-78391208D03*
X204640944Y-76386912D03*
D24*
X170597638Y-108452970D03*
X170209409Y-109901859D03*
X164462150Y-108361886D03*
X164850379Y-106912997D03*
D20*
X247783805Y-86405341D03*
X247246755Y-84401045D03*
D37*
X251719048Y-93480393D03*
X252047748Y-94707119D03*
X252376448Y-95933843D03*
X252705148Y-97160570D03*
X253033849Y-98387296D03*
X253362549Y-99614022D03*
X253691249Y-100840747D03*
X254019948Y-102067473D03*
X258801282Y-100786319D03*
X258472582Y-99559593D03*
X258143882Y-98332869D03*
X257815182Y-97106142D03*
X257486481Y-95879416D03*
X257157781Y-94652690D03*
X256829081Y-93425965D03*
X256500382Y-92199239D03*
D20*
X320894304Y-64843239D03*
X320357254Y-62838943D03*
X307095214Y-86947899D03*
X306558164Y-84943603D03*
D21*
X218873477Y-155436281D03*
X216798477Y-155436281D03*
D20*
X271115199Y-99875720D03*
X270578149Y-97871424D03*
D16*
X129521940Y-49071953D03*
X130058990Y-47067657D03*
D17*
X349519976Y-106205232D03*
X349908205Y-107654119D03*
X344160944Y-109194094D03*
X343772715Y-107745207D03*
D22*
X339230441Y-90793214D03*
D23*
X338837384Y-89345619D03*
D22*
X344589473Y-87804352D03*
X344977702Y-89253239D03*
X320172151Y-93270277D03*
D23*
X319779094Y-91822682D03*
D22*
X325531183Y-90281415D03*
X325919412Y-91730302D03*
D16*
X105533163Y-64995788D03*
X106070213Y-62991492D03*
D26*
X152142218Y-80736961D03*
D27*
X152525617Y-79286778D03*
D26*
X158277706Y-80828045D03*
X157889477Y-82276934D03*
D17*
X311732099Y-112386068D03*
X312120328Y-113834955D03*
X306373067Y-115374930D03*
X305984838Y-113926043D03*
D38*
X206470980Y-110986274D03*
X206470980Y-112256274D03*
X206470980Y-113526274D03*
X206470980Y-114796274D03*
X206470980Y-116066274D03*
X206470980Y-117336274D03*
X206470980Y-118606274D03*
X211420980Y-118606274D03*
X211420980Y-117336274D03*
X211420980Y-116066274D03*
X211420980Y-114796274D03*
X211420980Y-113526274D03*
X211420980Y-112256274D03*
X211420980Y-110986274D03*
D16*
X162050630Y-74880396D03*
X162587680Y-72876100D03*
D22*
X237200647Y-78030590D03*
D23*
X236807590Y-76582995D03*
D22*
X242559679Y-75041728D03*
X242947908Y-76490615D03*
D20*
X324336455Y-83642922D03*
X323799405Y-81638626D03*
X293296138Y-109052566D03*
X292759088Y-107048270D03*
D24*
X125749029Y-55019603D03*
X125360800Y-56468492D03*
X119613541Y-54928519D03*
X120001770Y-53479630D03*
D17*
X275752079Y-125313893D03*
X276140308Y-126762780D03*
X270393047Y-128302755D03*
X270004818Y-126853868D03*
D21*
X209983473Y-106287274D03*
X207908473Y-106287274D03*
D38*
X215360973Y-160516268D03*
X215360973Y-161786268D03*
X215360973Y-163056268D03*
X215360973Y-164326268D03*
X215360973Y-165596268D03*
X215360973Y-166866268D03*
X215360973Y-168136268D03*
X215360973Y-169406268D03*
X220310973Y-169406268D03*
X220310973Y-168136268D03*
X220310973Y-166866268D03*
X220310973Y-165596268D03*
X220310973Y-164326268D03*
X220310973Y-163056268D03*
X220310973Y-161786268D03*
X220310973Y-160516268D03*
D16*
X152189612Y-111682166D03*
X152726662Y-109677870D03*
D20*
X330755316Y-101645006D03*
X330218266Y-99640710D03*
D16*
X143321034Y-71176608D03*
X143858084Y-69172312D03*
D26*
X126999816Y-137767921D03*
D27*
X127383215Y-136317738D03*
D26*
X133135304Y-137859005D03*
X132747075Y-139307894D03*
X85763745Y-107654132D03*
D27*
X86147144Y-106203949D03*
D26*
X91899233Y-107745216D03*
X91511004Y-109194105D03*
D39*
X164433442Y-149149901D03*
D40*
X165062836Y-147788326D03*
D39*
X170459898Y-150305017D03*
X169825972Y-151664479D03*
D41*
X197297390Y-159268035D03*
X198487562Y-157568295D03*
D24*
X188998513Y-113383484D03*
X188610284Y-114832373D03*
X182863025Y-113292400D03*
X183251254Y-111843511D03*
D36*
X143388757Y-78535392D03*
X143060057Y-79762117D03*
X142731357Y-80988843D03*
X142402657Y-82215569D03*
X142073956Y-83442295D03*
X141745256Y-84669022D03*
X141416556Y-85895746D03*
X141087856Y-87122472D03*
X145869189Y-88403626D03*
X146197889Y-87176901D03*
X146526589Y-85950175D03*
X146855289Y-84723449D03*
X147183990Y-83496723D03*
X147512690Y-82269996D03*
X147841390Y-81043272D03*
X148170090Y-79816546D03*
D22*
X284511892Y-144193198D03*
D23*
X284118835Y-142745603D03*
D22*
X289870924Y-141204336D03*
X290259153Y-142653223D03*
D37*
X287534725Y-79939212D03*
X287863425Y-81165938D03*
X288192125Y-82392662D03*
X288520825Y-83619389D03*
X288849526Y-84846115D03*
X289178226Y-86072841D03*
X289506926Y-87299566D03*
X289835625Y-88526292D03*
X294616959Y-87245138D03*
X294288259Y-86018412D03*
X293959559Y-84791688D03*
X293630859Y-83564961D03*
X293302158Y-82338235D03*
X292973458Y-81111509D03*
X292644758Y-79884784D03*
X292316059Y-78658058D03*
D20*
X261254195Y-63073941D03*
X260717145Y-61069645D03*
X344883093Y-80767069D03*
X344346043Y-78762773D03*
D42*
X175208304Y-145102878D03*
X176085236Y-143222290D03*
D22*
X310311139Y-56468496D03*
D23*
X309918082Y-55020901D03*
D22*
X315670171Y-53479634D03*
X316058400Y-54928521D03*
D16*
X110463675Y-46594904D03*
X111000725Y-44590608D03*
D24*
X106690746Y-52542551D03*
X106302517Y-53991440D03*
X100555258Y-52451467D03*
X100943487Y-51002578D03*
D22*
X282712982Y-100677817D03*
D23*
X282319925Y-99230222D03*
D22*
X288072014Y-97688955D03*
X288460243Y-99137842D03*
D36*
X179171564Y-92199246D03*
X178842864Y-93425971D03*
X178514164Y-94652697D03*
X178185464Y-95879423D03*
X177856763Y-97106149D03*
X177528063Y-98332876D03*
X177199363Y-99559600D03*
X176870663Y-100786326D03*
X181651996Y-102067480D03*
X181980696Y-100840755D03*
X182309396Y-99614029D03*
X182638096Y-98387303D03*
X182966797Y-97160577D03*
X183295497Y-95933850D03*
X183624197Y-94707126D03*
X183952897Y-93480400D03*
D16*
X137163807Y-89248810D03*
X137700857Y-87244514D03*
X166981132Y-56479506D03*
X167518182Y-54475210D03*
D22*
X291581564Y-60172274D03*
D23*
X291188507Y-58724679D03*
D22*
X296940596Y-57183412D03*
X297328825Y-58632299D03*
D28*
X231541674Y-79274117D03*
X232078724Y-81278413D03*
D37*
X325158253Y-73145022D03*
X325486953Y-74371748D03*
X325815653Y-75598472D03*
X326144353Y-76825199D03*
X326473054Y-78051925D03*
X326801754Y-79278651D03*
X327130454Y-80505376D03*
X327459153Y-81732102D03*
X332240487Y-80450948D03*
X331911787Y-79224222D03*
X331583087Y-77997498D03*
X331254387Y-76770771D03*
X330925686Y-75544045D03*
X330596986Y-74317319D03*
X330268286Y-73090594D03*
X329939587Y-71863868D03*
D16*
X202632447Y-70634048D03*
X203169497Y-68629752D03*
X187840944Y-125836707D03*
X188377994Y-123832411D03*
D17*
X283141513Y-79288069D03*
X283529742Y-80736956D03*
X277782481Y-82276931D03*
X277394252Y-80828044D03*
D43*
X246697145Y-153440496D03*
X245506973Y-151740756D03*
D16*
X184231568Y-65703550D03*
X184768618Y-63699254D03*
X136908222Y-131911341D03*
X137445272Y-129907045D03*
D25*
X110308500Y-68356759D03*
X108304204Y-67819709D03*
D20*
X266184696Y-81474832D03*
X265647646Y-79470536D03*
D16*
X192771443Y-107435826D03*
X193308493Y-105431530D03*
D26*
X133412629Y-77033187D03*
D27*
X133796028Y-75583004D03*
D26*
X139548117Y-77124271D03*
X139159888Y-78573160D03*
D16*
X99989293Y-83232323D03*
X100526343Y-81228027D03*
D24*
X153347199Y-99228938D03*
X152958970Y-100677827D03*
X147211711Y-99137854D03*
X147599940Y-97688965D03*
D26*
X187793536Y-94891513D03*
D27*
X188176935Y-93441330D03*
D26*
X193929024Y-94982597D03*
X193540795Y-96431486D03*
D20*
X276045698Y-118276615D03*
X275508648Y-116272319D03*
D29*
X253961416Y-88277744D03*
X251957120Y-88814794D03*
D16*
X95672160Y-101797571D03*
X96209210Y-99793275D03*
D38*
X224250976Y-110351276D03*
X224250976Y-111621276D03*
X224250976Y-112891276D03*
X224250976Y-114161276D03*
X224250976Y-115431276D03*
X224250976Y-116701276D03*
X224250976Y-117971276D03*
X224250976Y-119241276D03*
X229200976Y-119241276D03*
X229200976Y-117971276D03*
X229200976Y-116701276D03*
X229200976Y-115431276D03*
X229200976Y-114161276D03*
X229200976Y-112891276D03*
X229200976Y-111621276D03*
X229200976Y-110351276D03*
D24*
X144478615Y-58723392D03*
X144090386Y-60172281D03*
X138343127Y-58632308D03*
X138731356Y-57183419D03*
D20*
X308577539Y-129281739D03*
X308040489Y-127277443D03*
D17*
X320600679Y-71880520D03*
X320988908Y-73329407D03*
X315241647Y-74869382D03*
X314853418Y-73420495D03*
D29*
X327367748Y-67819709D03*
X325363452Y-68356759D03*
D20*
X335022083Y-43965297D03*
X334485033Y-41961001D03*
D26*
X95624750Y-70852353D03*
D27*
X96008149Y-69402170D03*
D26*
X101760238Y-70943437D03*
X101372009Y-72392326D03*
D22*
X329369433Y-53991440D03*
D23*
X328976376Y-52543845D03*
D22*
X334728465Y-51002578D03*
X335116694Y-52451465D03*
D24*
X198859520Y-76581701D03*
X198471291Y-78030590D03*
X192724032Y-76490617D03*
X193112261Y-75041728D03*
D16*
X169440058Y-120906207D03*
X169977108Y-118901911D03*
D44*
X269671729Y-140809066D03*
X268794797Y-138928478D03*
M02*
