G04 #@! TF.GenerationSoftware,KiCad,Pcbnew,9.0.7*
G04 #@! TF.CreationDate,2026-02-21T19:32:25+09:00*
G04 #@! TF.ProjectId,TrueStrike56,54727565-5374-4726-996b-6535362e6b69,rev?*
G04 #@! TF.SameCoordinates,Original*
G04 #@! TF.FileFunction,Legend,Top*
G04 #@! TF.FilePolarity,Positive*
%FSLAX46Y46*%
G04 Gerber Fmt 4.6, Leading zero omitted, Abs format (unit mm)*
G04 Created by KiCad (PCBNEW 9.0.7) date 2026-02-21 19:32:25*
%MOMM*%
%LPD*%
G01*
G04 APERTURE LIST*
%ADD10C,0.160000*%
%ADD11C,0.150000*%
%ADD12C,0.120000*%
%ADD13C,1.600000*%
%ADD14R,1.600000X1.600000*%
G04 APERTURE END LIST*
D10*
X211932546Y-94516756D02*
X212075403Y-94564375D01*
X212075403Y-94564375D02*
X212123022Y-94611994D01*
X212123022Y-94611994D02*
X212170641Y-94707232D01*
X212170641Y-94707232D02*
X212170641Y-94850089D01*
X212170641Y-94850089D02*
X212123022Y-94945327D01*
X212123022Y-94945327D02*
X212075403Y-94992947D01*
X212075403Y-94992947D02*
X211980165Y-95040566D01*
X211980165Y-95040566D02*
X211599213Y-95040566D01*
X211599213Y-95040566D02*
X211599213Y-94040566D01*
X211599213Y-94040566D02*
X211932546Y-94040566D01*
X211932546Y-94040566D02*
X212027784Y-94088185D01*
X212027784Y-94088185D02*
X212075403Y-94135804D01*
X212075403Y-94135804D02*
X212123022Y-94231042D01*
X212123022Y-94231042D02*
X212123022Y-94326280D01*
X212123022Y-94326280D02*
X212075403Y-94421518D01*
X212075403Y-94421518D02*
X212027784Y-94469137D01*
X212027784Y-94469137D02*
X211932546Y-94516756D01*
X211932546Y-94516756D02*
X211599213Y-94516756D01*
X213075403Y-94040566D02*
X212599213Y-94040566D01*
X212599213Y-94040566D02*
X212551594Y-94516756D01*
X212551594Y-94516756D02*
X212599213Y-94469137D01*
X212599213Y-94469137D02*
X212694451Y-94421518D01*
X212694451Y-94421518D02*
X212932546Y-94421518D01*
X212932546Y-94421518D02*
X213027784Y-94469137D01*
X213027784Y-94469137D02*
X213075403Y-94516756D01*
X213075403Y-94516756D02*
X213123022Y-94611994D01*
X213123022Y-94611994D02*
X213123022Y-94850089D01*
X213123022Y-94850089D02*
X213075403Y-94945327D01*
X213075403Y-94945327D02*
X213027784Y-94992947D01*
X213027784Y-94992947D02*
X212932546Y-95040566D01*
X212932546Y-95040566D02*
X212694451Y-95040566D01*
X212694451Y-95040566D02*
X212599213Y-94992947D01*
X212599213Y-94992947D02*
X212551594Y-94945327D01*
X214265879Y-93992947D02*
X213408737Y-95278661D01*
X214646832Y-95040566D02*
X214837308Y-95040566D01*
X214837308Y-95040566D02*
X214932546Y-94992947D01*
X214932546Y-94992947D02*
X214980165Y-94945327D01*
X214980165Y-94945327D02*
X215075403Y-94802470D01*
X215075403Y-94802470D02*
X215123022Y-94611994D01*
X215123022Y-94611994D02*
X215123022Y-94231042D01*
X215123022Y-94231042D02*
X215075403Y-94135804D01*
X215075403Y-94135804D02*
X215027784Y-94088185D01*
X215027784Y-94088185D02*
X214932546Y-94040566D01*
X214932546Y-94040566D02*
X214742070Y-94040566D01*
X214742070Y-94040566D02*
X214646832Y-94088185D01*
X214646832Y-94088185D02*
X214599213Y-94135804D01*
X214599213Y-94135804D02*
X214551594Y-94231042D01*
X214551594Y-94231042D02*
X214551594Y-94469137D01*
X214551594Y-94469137D02*
X214599213Y-94564375D01*
X214599213Y-94564375D02*
X214646832Y-94611994D01*
X214646832Y-94611994D02*
X214742070Y-94659613D01*
X214742070Y-94659613D02*
X214932546Y-94659613D01*
X214932546Y-94659613D02*
X215027784Y-94611994D01*
X215027784Y-94611994D02*
X215075403Y-94564375D01*
X215075403Y-94564375D02*
X215123022Y-94469137D01*
X219731516Y-76954862D02*
X220207706Y-76954862D01*
X219636278Y-77240577D02*
X219969611Y-76240577D01*
X219969611Y-76240577D02*
X220302944Y-77240577D01*
X220541040Y-76240577D02*
X221160087Y-76240577D01*
X221160087Y-76240577D02*
X220826754Y-76621529D01*
X220826754Y-76621529D02*
X220969611Y-76621529D01*
X220969611Y-76621529D02*
X221064849Y-76669148D01*
X221064849Y-76669148D02*
X221112468Y-76716767D01*
X221112468Y-76716767D02*
X221160087Y-76812005D01*
X221160087Y-76812005D02*
X221160087Y-77050100D01*
X221160087Y-77050100D02*
X221112468Y-77145338D01*
X221112468Y-77145338D02*
X221064849Y-77192958D01*
X221064849Y-77192958D02*
X220969611Y-77240577D01*
X220969611Y-77240577D02*
X220683897Y-77240577D01*
X220683897Y-77240577D02*
X220588659Y-77192958D01*
X220588659Y-77192958D02*
X220541040Y-77145338D01*
X222302944Y-76192958D02*
X221445802Y-77478672D01*
X222969611Y-76716767D02*
X222636278Y-76716767D01*
X222636278Y-77240577D02*
X222636278Y-76240577D01*
X222636278Y-76240577D02*
X223112468Y-76240577D01*
X223921992Y-76573910D02*
X223921992Y-77240577D01*
X223683897Y-76192958D02*
X223445802Y-76907243D01*
X223445802Y-76907243D02*
X224064849Y-76907243D01*
G36*
X224302955Y-67231689D02*
G01*
X222397925Y-67231689D01*
X222397925Y-66524490D01*
X222509036Y-66524490D01*
X222510200Y-66528347D01*
X222510200Y-66532375D01*
X222514674Y-66543178D01*
X222518053Y-66554375D01*
X222520603Y-66557492D01*
X222522145Y-66561214D01*
X222530415Y-66569484D01*
X222537819Y-66578533D01*
X222541367Y-66580436D01*
X222544217Y-66583286D01*
X222555021Y-66587761D01*
X222565326Y-66593289D01*
X222569335Y-66593689D01*
X222573056Y-66595231D01*
X222584745Y-66595231D01*
X222596385Y-66596395D01*
X222600243Y-66595231D01*
X222604270Y-66595231D01*
X222615073Y-66590756D01*
X222626270Y-66587378D01*
X222629387Y-66584827D01*
X222633109Y-66583286D01*
X222645232Y-66573337D01*
X222683671Y-66534896D01*
X222750405Y-66501530D01*
X222950730Y-66501530D01*
X223017462Y-66534896D01*
X223046724Y-66564157D01*
X223080091Y-66630891D01*
X223080091Y-66831216D01*
X223046723Y-66897950D01*
X223017463Y-66927211D01*
X222950730Y-66960578D01*
X222750405Y-66960578D01*
X222683671Y-66927211D01*
X222645232Y-66888771D01*
X222633110Y-66878822D01*
X222604271Y-66866876D01*
X222573057Y-66866875D01*
X222544218Y-66878821D01*
X222522146Y-66900892D01*
X222510200Y-66929731D01*
X222510199Y-66960945D01*
X222522145Y-66989784D01*
X222532094Y-67001907D01*
X222579713Y-67049527D01*
X222585848Y-67054562D01*
X222587233Y-67056159D01*
X222589637Y-67057672D01*
X222591835Y-67059476D01*
X222593787Y-67060284D01*
X222600505Y-67064513D01*
X222695743Y-67112132D01*
X222710389Y-67117737D01*
X222713256Y-67117940D01*
X222715913Y-67119041D01*
X222731520Y-67120578D01*
X222969615Y-67120578D01*
X222985222Y-67119041D01*
X222987878Y-67117940D01*
X222990745Y-67117737D01*
X223005392Y-67112132D01*
X223100630Y-67064513D01*
X223107347Y-67060284D01*
X223109300Y-67059476D01*
X223111497Y-67057672D01*
X223113902Y-67056159D01*
X223115286Y-67054562D01*
X223121422Y-67049527D01*
X223169041Y-67001907D01*
X223174074Y-66995773D01*
X223175672Y-66994388D01*
X223177187Y-66991980D01*
X223178990Y-66989784D01*
X223179798Y-66987832D01*
X223184026Y-66981116D01*
X223231645Y-66885878D01*
X223237250Y-66871232D01*
X223237453Y-66868364D01*
X223238554Y-66865708D01*
X223240091Y-66850101D01*
X223240091Y-66612006D01*
X223238554Y-66596399D01*
X223237453Y-66593742D01*
X223237250Y-66590875D01*
X223231645Y-66576229D01*
X223184026Y-66480991D01*
X223179796Y-66474272D01*
X223178989Y-66472322D01*
X223177187Y-66470127D01*
X223175672Y-66467719D01*
X223174074Y-66466333D01*
X223169040Y-66460199D01*
X223121422Y-66412580D01*
X223115284Y-66407543D01*
X223113902Y-66405949D01*
X223111498Y-66404436D01*
X223109299Y-66402631D01*
X223107344Y-66401821D01*
X223100630Y-66397595D01*
X223005392Y-66349976D01*
X222990745Y-66344371D01*
X222987878Y-66344167D01*
X222985222Y-66343067D01*
X222969615Y-66341530D01*
X222731520Y-66341530D01*
X222715913Y-66343067D01*
X222713256Y-66344167D01*
X222710389Y-66344371D01*
X222695743Y-66349976D01*
X222685214Y-66355240D01*
X222708681Y-66120578D01*
X223112472Y-66120578D01*
X223128079Y-66119041D01*
X223156918Y-66107096D01*
X223178990Y-66085024D01*
X223190935Y-66056185D01*
X223190935Y-66050584D01*
X223366434Y-66050584D01*
X223369911Y-66065876D01*
X223703244Y-67065876D01*
X223709638Y-67080196D01*
X223713382Y-67084513D01*
X223715939Y-67089627D01*
X223723514Y-67096197D01*
X223730089Y-67103778D01*
X223735205Y-67106335D01*
X223739521Y-67110079D01*
X223749033Y-67113249D01*
X223758008Y-67117737D01*
X223763709Y-67118142D01*
X223769133Y-67119950D01*
X223779145Y-67119238D01*
X223789145Y-67119949D01*
X223794562Y-67118143D01*
X223800269Y-67117738D01*
X223809247Y-67113248D01*
X223818757Y-67110079D01*
X223823073Y-67106335D01*
X223828188Y-67103778D01*
X223834760Y-67096199D01*
X223842339Y-67089627D01*
X223844895Y-67084513D01*
X223848640Y-67080196D01*
X223855034Y-67065876D01*
X224188367Y-66065877D01*
X224191844Y-66050584D01*
X224189631Y-66019448D01*
X224175672Y-65991529D01*
X224152090Y-65971077D01*
X224122478Y-65961207D01*
X224091341Y-65963419D01*
X224063422Y-65977378D01*
X224042971Y-66000960D01*
X224036577Y-66015280D01*
X223779139Y-66787594D01*
X223521701Y-66015280D01*
X223515307Y-66000960D01*
X223494855Y-65977378D01*
X223466936Y-65963418D01*
X223435800Y-65961206D01*
X223406188Y-65971077D01*
X223382606Y-65991529D01*
X223368646Y-66019448D01*
X223366434Y-66050584D01*
X223190935Y-66050584D01*
X223190935Y-66024971D01*
X223178990Y-65996132D01*
X223156918Y-65974060D01*
X223128079Y-65962115D01*
X223112472Y-65960578D01*
X222636282Y-65960578D01*
X222630512Y-65961146D01*
X222628560Y-65960951D01*
X222626653Y-65961526D01*
X222620675Y-65962115D01*
X222609871Y-65966589D01*
X222598675Y-65969968D01*
X222595557Y-65972518D01*
X222591836Y-65974060D01*
X222583565Y-65982330D01*
X222574517Y-65989734D01*
X222572613Y-65993282D01*
X222569764Y-65996132D01*
X222565288Y-66006936D01*
X222559761Y-66017241D01*
X222558579Y-66023134D01*
X222557819Y-66024971D01*
X222557819Y-66026930D01*
X222556679Y-66032618D01*
X222509060Y-66508808D01*
X222509036Y-66524490D01*
X222397925Y-66524490D01*
X222397925Y-65849467D01*
X224302955Y-65849467D01*
X224302955Y-67231689D01*
G37*
X220064853Y-95040578D02*
X219493425Y-95040578D01*
X219779139Y-95040578D02*
X219779139Y-94040578D01*
X219779139Y-94040578D02*
X219683901Y-94183435D01*
X219683901Y-94183435D02*
X219588663Y-94278673D01*
X219588663Y-94278673D02*
X219493425Y-94326292D01*
X220445806Y-94135816D02*
X220493425Y-94088197D01*
X220493425Y-94088197D02*
X220588663Y-94040578D01*
X220588663Y-94040578D02*
X220826758Y-94040578D01*
X220826758Y-94040578D02*
X220921996Y-94088197D01*
X220921996Y-94088197D02*
X220969615Y-94135816D01*
X220969615Y-94135816D02*
X221017234Y-94231054D01*
X221017234Y-94231054D02*
X221017234Y-94326292D01*
X221017234Y-94326292D02*
X220969615Y-94469149D01*
X220969615Y-94469149D02*
X220398187Y-95040578D01*
X220398187Y-95040578D02*
X221017234Y-95040578D01*
X222160091Y-93992959D02*
X221302949Y-95278673D01*
X222826758Y-94516768D02*
X222969615Y-94564387D01*
X222969615Y-94564387D02*
X223017234Y-94612006D01*
X223017234Y-94612006D02*
X223064853Y-94707244D01*
X223064853Y-94707244D02*
X223064853Y-94850101D01*
X223064853Y-94850101D02*
X223017234Y-94945339D01*
X223017234Y-94945339D02*
X222969615Y-94992959D01*
X222969615Y-94992959D02*
X222874377Y-95040578D01*
X222874377Y-95040578D02*
X222493425Y-95040578D01*
X222493425Y-95040578D02*
X222493425Y-94040578D01*
X222493425Y-94040578D02*
X222826758Y-94040578D01*
X222826758Y-94040578D02*
X222921996Y-94088197D01*
X222921996Y-94088197D02*
X222969615Y-94135816D01*
X222969615Y-94135816D02*
X223017234Y-94231054D01*
X223017234Y-94231054D02*
X223017234Y-94326292D01*
X223017234Y-94326292D02*
X222969615Y-94421530D01*
X222969615Y-94421530D02*
X222921996Y-94469149D01*
X222921996Y-94469149D02*
X222826758Y-94516768D01*
X222826758Y-94516768D02*
X222493425Y-94516768D01*
X223921996Y-94040578D02*
X223731520Y-94040578D01*
X223731520Y-94040578D02*
X223636282Y-94088197D01*
X223636282Y-94088197D02*
X223588663Y-94135816D01*
X223588663Y-94135816D02*
X223493425Y-94278673D01*
X223493425Y-94278673D02*
X223445806Y-94469149D01*
X223445806Y-94469149D02*
X223445806Y-94850101D01*
X223445806Y-94850101D02*
X223493425Y-94945339D01*
X223493425Y-94945339D02*
X223541044Y-94992959D01*
X223541044Y-94992959D02*
X223636282Y-95040578D01*
X223636282Y-95040578D02*
X223826758Y-95040578D01*
X223826758Y-95040578D02*
X223921996Y-94992959D01*
X223921996Y-94992959D02*
X223969615Y-94945339D01*
X223969615Y-94945339D02*
X224017234Y-94850101D01*
X224017234Y-94850101D02*
X224017234Y-94612006D01*
X224017234Y-94612006D02*
X223969615Y-94516768D01*
X223969615Y-94516768D02*
X223921996Y-94469149D01*
X223921996Y-94469149D02*
X223826758Y-94421530D01*
X223826758Y-94421530D02*
X223636282Y-94421530D01*
X223636282Y-94421530D02*
X223541044Y-94469149D01*
X223541044Y-94469149D02*
X223493425Y-94516768D01*
X223493425Y-94516768D02*
X223445806Y-94612006D01*
X220064850Y-87440578D02*
X219493422Y-87440578D01*
X219779136Y-87440578D02*
X219779136Y-86440578D01*
X219779136Y-86440578D02*
X219683898Y-86583435D01*
X219683898Y-86583435D02*
X219588660Y-86678673D01*
X219588660Y-86678673D02*
X219493422Y-86726292D01*
X220969612Y-86440578D02*
X220493422Y-86440578D01*
X220493422Y-86440578D02*
X220445803Y-86916768D01*
X220445803Y-86916768D02*
X220493422Y-86869149D01*
X220493422Y-86869149D02*
X220588660Y-86821530D01*
X220588660Y-86821530D02*
X220826755Y-86821530D01*
X220826755Y-86821530D02*
X220921993Y-86869149D01*
X220921993Y-86869149D02*
X220969612Y-86916768D01*
X220969612Y-86916768D02*
X221017231Y-87012006D01*
X221017231Y-87012006D02*
X221017231Y-87250101D01*
X221017231Y-87250101D02*
X220969612Y-87345339D01*
X220969612Y-87345339D02*
X220921993Y-87392959D01*
X220921993Y-87392959D02*
X220826755Y-87440578D01*
X220826755Y-87440578D02*
X220588660Y-87440578D01*
X220588660Y-87440578D02*
X220493422Y-87392959D01*
X220493422Y-87392959D02*
X220445803Y-87345339D01*
X222160088Y-86392959D02*
X221302946Y-87678673D01*
X222826755Y-86916768D02*
X222969612Y-86964387D01*
X222969612Y-86964387D02*
X223017231Y-87012006D01*
X223017231Y-87012006D02*
X223064850Y-87107244D01*
X223064850Y-87107244D02*
X223064850Y-87250101D01*
X223064850Y-87250101D02*
X223017231Y-87345339D01*
X223017231Y-87345339D02*
X222969612Y-87392959D01*
X222969612Y-87392959D02*
X222874374Y-87440578D01*
X222874374Y-87440578D02*
X222493422Y-87440578D01*
X222493422Y-87440578D02*
X222493422Y-86440578D01*
X222493422Y-86440578D02*
X222826755Y-86440578D01*
X222826755Y-86440578D02*
X222921993Y-86488197D01*
X222921993Y-86488197D02*
X222969612Y-86535816D01*
X222969612Y-86535816D02*
X223017231Y-86631054D01*
X223017231Y-86631054D02*
X223017231Y-86726292D01*
X223017231Y-86726292D02*
X222969612Y-86821530D01*
X222969612Y-86821530D02*
X222921993Y-86869149D01*
X222921993Y-86869149D02*
X222826755Y-86916768D01*
X222826755Y-86916768D02*
X222493422Y-86916768D01*
X224017231Y-87440578D02*
X223445803Y-87440578D01*
X223731517Y-87440578D02*
X223731517Y-86440578D01*
X223731517Y-86440578D02*
X223636279Y-86583435D01*
X223636279Y-86583435D02*
X223541041Y-86678673D01*
X223541041Y-86678673D02*
X223445803Y-86726292D01*
X211599230Y-67040568D02*
X211599230Y-66040568D01*
X211599230Y-66040568D02*
X211837325Y-66040568D01*
X211837325Y-66040568D02*
X211980182Y-66088187D01*
X211980182Y-66088187D02*
X212075420Y-66183425D01*
X212075420Y-66183425D02*
X212123039Y-66278663D01*
X212123039Y-66278663D02*
X212170658Y-66469139D01*
X212170658Y-66469139D02*
X212170658Y-66611996D01*
X212170658Y-66611996D02*
X212123039Y-66802472D01*
X212123039Y-66802472D02*
X212075420Y-66897710D01*
X212075420Y-66897710D02*
X211980182Y-66992949D01*
X211980182Y-66992949D02*
X211837325Y-67040568D01*
X211837325Y-67040568D02*
X211599230Y-67040568D01*
X212503992Y-66040568D02*
X213123039Y-66040568D01*
X213123039Y-66040568D02*
X212789706Y-66421520D01*
X212789706Y-66421520D02*
X212932563Y-66421520D01*
X212932563Y-66421520D02*
X213027801Y-66469139D01*
X213027801Y-66469139D02*
X213075420Y-66516758D01*
X213075420Y-66516758D02*
X213123039Y-66611996D01*
X213123039Y-66611996D02*
X213123039Y-66850091D01*
X213123039Y-66850091D02*
X213075420Y-66945329D01*
X213075420Y-66945329D02*
X213027801Y-66992949D01*
X213027801Y-66992949D02*
X212932563Y-67040568D01*
X212932563Y-67040568D02*
X212646849Y-67040568D01*
X212646849Y-67040568D02*
X212551611Y-66992949D01*
X212551611Y-66992949D02*
X212503992Y-66945329D01*
X214265896Y-65992949D02*
X213408754Y-67278663D01*
X214456373Y-66040568D02*
X215027801Y-66040568D01*
X214742087Y-67040568D02*
X214742087Y-66040568D01*
X215265897Y-66040568D02*
X215932563Y-67040568D01*
X215932563Y-66040568D02*
X215265897Y-67040568D01*
X211932553Y-91971284D02*
X212075410Y-92018903D01*
X212075410Y-92018903D02*
X212123029Y-92066522D01*
X212123029Y-92066522D02*
X212170648Y-92161760D01*
X212170648Y-92161760D02*
X212170648Y-92304617D01*
X212170648Y-92304617D02*
X212123029Y-92399855D01*
X212123029Y-92399855D02*
X212075410Y-92447475D01*
X212075410Y-92447475D02*
X211980172Y-92495094D01*
X211980172Y-92495094D02*
X211599220Y-92495094D01*
X211599220Y-92495094D02*
X211599220Y-91495094D01*
X211599220Y-91495094D02*
X211932553Y-91495094D01*
X211932553Y-91495094D02*
X212027791Y-91542713D01*
X212027791Y-91542713D02*
X212075410Y-91590332D01*
X212075410Y-91590332D02*
X212123029Y-91685570D01*
X212123029Y-91685570D02*
X212123029Y-91780808D01*
X212123029Y-91780808D02*
X212075410Y-91876046D01*
X212075410Y-91876046D02*
X212027791Y-91923665D01*
X212027791Y-91923665D02*
X211932553Y-91971284D01*
X211932553Y-91971284D02*
X211599220Y-91971284D01*
X213027791Y-91828427D02*
X213027791Y-92495094D01*
X212789696Y-91447475D02*
X212551601Y-92161760D01*
X212551601Y-92161760D02*
X213170648Y-92161760D01*
X214265886Y-91447475D02*
X213408744Y-92733189D01*
X214742077Y-91923665D02*
X214646839Y-91876046D01*
X214646839Y-91876046D02*
X214599220Y-91828427D01*
X214599220Y-91828427D02*
X214551601Y-91733189D01*
X214551601Y-91733189D02*
X214551601Y-91685570D01*
X214551601Y-91685570D02*
X214599220Y-91590332D01*
X214599220Y-91590332D02*
X214646839Y-91542713D01*
X214646839Y-91542713D02*
X214742077Y-91495094D01*
X214742077Y-91495094D02*
X214932553Y-91495094D01*
X214932553Y-91495094D02*
X215027791Y-91542713D01*
X215027791Y-91542713D02*
X215075410Y-91590332D01*
X215075410Y-91590332D02*
X215123029Y-91685570D01*
X215123029Y-91685570D02*
X215123029Y-91733189D01*
X215123029Y-91733189D02*
X215075410Y-91828427D01*
X215075410Y-91828427D02*
X215027791Y-91876046D01*
X215027791Y-91876046D02*
X214932553Y-91923665D01*
X214932553Y-91923665D02*
X214742077Y-91923665D01*
X214742077Y-91923665D02*
X214646839Y-91971284D01*
X214646839Y-91971284D02*
X214599220Y-92018903D01*
X214599220Y-92018903D02*
X214551601Y-92114141D01*
X214551601Y-92114141D02*
X214551601Y-92304617D01*
X214551601Y-92304617D02*
X214599220Y-92399855D01*
X214599220Y-92399855D02*
X214646839Y-92447475D01*
X214646839Y-92447475D02*
X214742077Y-92495094D01*
X214742077Y-92495094D02*
X214932553Y-92495094D01*
X214932553Y-92495094D02*
X215027791Y-92447475D01*
X215027791Y-92447475D02*
X215075410Y-92399855D01*
X215075410Y-92399855D02*
X215123029Y-92304617D01*
X215123029Y-92304617D02*
X215123029Y-92114141D01*
X215123029Y-92114141D02*
X215075410Y-92018903D01*
X215075410Y-92018903D02*
X215027791Y-91971284D01*
X215027791Y-91971284D02*
X214932553Y-91923665D01*
X219731518Y-84654869D02*
X220207708Y-84654869D01*
X219636280Y-84940584D02*
X219969613Y-83940584D01*
X219969613Y-83940584D02*
X220302946Y-84940584D01*
X220826756Y-83940584D02*
X220921994Y-83940584D01*
X220921994Y-83940584D02*
X221017232Y-83988203D01*
X221017232Y-83988203D02*
X221064851Y-84035822D01*
X221064851Y-84035822D02*
X221112470Y-84131060D01*
X221112470Y-84131060D02*
X221160089Y-84321536D01*
X221160089Y-84321536D02*
X221160089Y-84559631D01*
X221160089Y-84559631D02*
X221112470Y-84750107D01*
X221112470Y-84750107D02*
X221064851Y-84845345D01*
X221064851Y-84845345D02*
X221017232Y-84892965D01*
X221017232Y-84892965D02*
X220921994Y-84940584D01*
X220921994Y-84940584D02*
X220826756Y-84940584D01*
X220826756Y-84940584D02*
X220731518Y-84892965D01*
X220731518Y-84892965D02*
X220683899Y-84845345D01*
X220683899Y-84845345D02*
X220636280Y-84750107D01*
X220636280Y-84750107D02*
X220588661Y-84559631D01*
X220588661Y-84559631D02*
X220588661Y-84321536D01*
X220588661Y-84321536D02*
X220636280Y-84131060D01*
X220636280Y-84131060D02*
X220683899Y-84035822D01*
X220683899Y-84035822D02*
X220731518Y-83988203D01*
X220731518Y-83988203D02*
X220826756Y-83940584D01*
X222302946Y-83892965D02*
X221445804Y-85178679D01*
X222969613Y-84416774D02*
X222636280Y-84416774D01*
X222636280Y-84940584D02*
X222636280Y-83940584D01*
X222636280Y-83940584D02*
X223112470Y-83940584D01*
X223398185Y-83940584D02*
X224064851Y-83940584D01*
X224064851Y-83940584D02*
X223636280Y-84940584D01*
X211599225Y-89425847D02*
X211932558Y-89425847D01*
X212075415Y-89949657D02*
X211599225Y-89949657D01*
X211599225Y-89949657D02*
X211599225Y-88949657D01*
X211599225Y-88949657D02*
X212075415Y-88949657D01*
X212932558Y-88949657D02*
X212742082Y-88949657D01*
X212742082Y-88949657D02*
X212646844Y-88997276D01*
X212646844Y-88997276D02*
X212599225Y-89044895D01*
X212599225Y-89044895D02*
X212503987Y-89187752D01*
X212503987Y-89187752D02*
X212456368Y-89378228D01*
X212456368Y-89378228D02*
X212456368Y-89759180D01*
X212456368Y-89759180D02*
X212503987Y-89854418D01*
X212503987Y-89854418D02*
X212551606Y-89902038D01*
X212551606Y-89902038D02*
X212646844Y-89949657D01*
X212646844Y-89949657D02*
X212837320Y-89949657D01*
X212837320Y-89949657D02*
X212932558Y-89902038D01*
X212932558Y-89902038D02*
X212980177Y-89854418D01*
X212980177Y-89854418D02*
X213027796Y-89759180D01*
X213027796Y-89759180D02*
X213027796Y-89521085D01*
X213027796Y-89521085D02*
X212980177Y-89425847D01*
X212980177Y-89425847D02*
X212932558Y-89378228D01*
X212932558Y-89378228D02*
X212837320Y-89330609D01*
X212837320Y-89330609D02*
X212646844Y-89330609D01*
X212646844Y-89330609D02*
X212551606Y-89378228D01*
X212551606Y-89378228D02*
X212503987Y-89425847D01*
X212503987Y-89425847D02*
X212456368Y-89521085D01*
X214170653Y-88902038D02*
X213313511Y-90187752D01*
X214408749Y-88949657D02*
X215075415Y-88949657D01*
X215075415Y-88949657D02*
X214646844Y-89949657D01*
X212170641Y-84763507D02*
X212123022Y-84811127D01*
X212123022Y-84811127D02*
X211980165Y-84858746D01*
X211980165Y-84858746D02*
X211884927Y-84858746D01*
X211884927Y-84858746D02*
X211742070Y-84811127D01*
X211742070Y-84811127D02*
X211646832Y-84715888D01*
X211646832Y-84715888D02*
X211599213Y-84620650D01*
X211599213Y-84620650D02*
X211551594Y-84430174D01*
X211551594Y-84430174D02*
X211551594Y-84287317D01*
X211551594Y-84287317D02*
X211599213Y-84096841D01*
X211599213Y-84096841D02*
X211646832Y-84001603D01*
X211646832Y-84001603D02*
X211742070Y-83906365D01*
X211742070Y-83906365D02*
X211884927Y-83858746D01*
X211884927Y-83858746D02*
X211980165Y-83858746D01*
X211980165Y-83858746D02*
X212123022Y-83906365D01*
X212123022Y-83906365D02*
X212170641Y-83953984D01*
X213027784Y-83858746D02*
X212837308Y-83858746D01*
X212837308Y-83858746D02*
X212742070Y-83906365D01*
X212742070Y-83906365D02*
X212694451Y-83953984D01*
X212694451Y-83953984D02*
X212599213Y-84096841D01*
X212599213Y-84096841D02*
X212551594Y-84287317D01*
X212551594Y-84287317D02*
X212551594Y-84668269D01*
X212551594Y-84668269D02*
X212599213Y-84763507D01*
X212599213Y-84763507D02*
X212646832Y-84811127D01*
X212646832Y-84811127D02*
X212742070Y-84858746D01*
X212742070Y-84858746D02*
X212932546Y-84858746D01*
X212932546Y-84858746D02*
X213027784Y-84811127D01*
X213027784Y-84811127D02*
X213075403Y-84763507D01*
X213075403Y-84763507D02*
X213123022Y-84668269D01*
X213123022Y-84668269D02*
X213123022Y-84430174D01*
X213123022Y-84430174D02*
X213075403Y-84334936D01*
X213075403Y-84334936D02*
X213027784Y-84287317D01*
X213027784Y-84287317D02*
X212932546Y-84239698D01*
X212932546Y-84239698D02*
X212742070Y-84239698D01*
X212742070Y-84239698D02*
X212646832Y-84287317D01*
X212646832Y-84287317D02*
X212599213Y-84334936D01*
X212599213Y-84334936D02*
X212551594Y-84430174D01*
X214265879Y-83811127D02*
X213408737Y-85096841D01*
X215075403Y-83858746D02*
X214599213Y-83858746D01*
X214599213Y-83858746D02*
X214551594Y-84334936D01*
X214551594Y-84334936D02*
X214599213Y-84287317D01*
X214599213Y-84287317D02*
X214694451Y-84239698D01*
X214694451Y-84239698D02*
X214932546Y-84239698D01*
X214932546Y-84239698D02*
X215027784Y-84287317D01*
X215027784Y-84287317D02*
X215075403Y-84334936D01*
X215075403Y-84334936D02*
X215123022Y-84430174D01*
X215123022Y-84430174D02*
X215123022Y-84668269D01*
X215123022Y-84668269D02*
X215075403Y-84763507D01*
X215075403Y-84763507D02*
X215027784Y-84811127D01*
X215027784Y-84811127D02*
X214932546Y-84858746D01*
X214932546Y-84858746D02*
X214694451Y-84858746D01*
X214694451Y-84858746D02*
X214599213Y-84811127D01*
X214599213Y-84811127D02*
X214551594Y-84763507D01*
X212123041Y-73724550D02*
X212027803Y-73676931D01*
X212027803Y-73676931D02*
X211884946Y-73676931D01*
X211884946Y-73676931D02*
X211742089Y-73724550D01*
X211742089Y-73724550D02*
X211646851Y-73819788D01*
X211646851Y-73819788D02*
X211599232Y-73915026D01*
X211599232Y-73915026D02*
X211551613Y-74105502D01*
X211551613Y-74105502D02*
X211551613Y-74248359D01*
X211551613Y-74248359D02*
X211599232Y-74438835D01*
X211599232Y-74438835D02*
X211646851Y-74534073D01*
X211646851Y-74534073D02*
X211742089Y-74629312D01*
X211742089Y-74629312D02*
X211884946Y-74676931D01*
X211884946Y-74676931D02*
X211980184Y-74676931D01*
X211980184Y-74676931D02*
X212123041Y-74629312D01*
X212123041Y-74629312D02*
X212170660Y-74581692D01*
X212170660Y-74581692D02*
X212170660Y-74248359D01*
X212170660Y-74248359D02*
X211980184Y-74248359D01*
X212599232Y-74676931D02*
X212599232Y-73676931D01*
X212599232Y-73676931D02*
X213170660Y-74676931D01*
X213170660Y-74676931D02*
X213170660Y-73676931D01*
X213646851Y-74676931D02*
X213646851Y-73676931D01*
X213646851Y-73676931D02*
X213884946Y-73676931D01*
X213884946Y-73676931D02*
X214027803Y-73724550D01*
X214027803Y-73724550D02*
X214123041Y-73819788D01*
X214123041Y-73819788D02*
X214170660Y-73915026D01*
X214170660Y-73915026D02*
X214218279Y-74105502D01*
X214218279Y-74105502D02*
X214218279Y-74248359D01*
X214218279Y-74248359D02*
X214170660Y-74438835D01*
X214170660Y-74438835D02*
X214123041Y-74534073D01*
X214123041Y-74534073D02*
X214027803Y-74629312D01*
X214027803Y-74629312D02*
X213884946Y-74676931D01*
X213884946Y-74676931D02*
X213646851Y-74676931D01*
X220064848Y-92540576D02*
X219493420Y-92540576D01*
X219779134Y-92540576D02*
X219779134Y-91540576D01*
X219779134Y-91540576D02*
X219683896Y-91683433D01*
X219683896Y-91683433D02*
X219588658Y-91778671D01*
X219588658Y-91778671D02*
X219493420Y-91826290D01*
X220398182Y-91540576D02*
X221017229Y-91540576D01*
X221017229Y-91540576D02*
X220683896Y-91921528D01*
X220683896Y-91921528D02*
X220826753Y-91921528D01*
X220826753Y-91921528D02*
X220921991Y-91969147D01*
X220921991Y-91969147D02*
X220969610Y-92016766D01*
X220969610Y-92016766D02*
X221017229Y-92112004D01*
X221017229Y-92112004D02*
X221017229Y-92350099D01*
X221017229Y-92350099D02*
X220969610Y-92445337D01*
X220969610Y-92445337D02*
X220921991Y-92492957D01*
X220921991Y-92492957D02*
X220826753Y-92540576D01*
X220826753Y-92540576D02*
X220541039Y-92540576D01*
X220541039Y-92540576D02*
X220445801Y-92492957D01*
X220445801Y-92492957D02*
X220398182Y-92445337D01*
X222160086Y-91492957D02*
X221302944Y-92778671D01*
X222826753Y-92016766D02*
X222969610Y-92064385D01*
X222969610Y-92064385D02*
X223017229Y-92112004D01*
X223017229Y-92112004D02*
X223064848Y-92207242D01*
X223064848Y-92207242D02*
X223064848Y-92350099D01*
X223064848Y-92350099D02*
X223017229Y-92445337D01*
X223017229Y-92445337D02*
X222969610Y-92492957D01*
X222969610Y-92492957D02*
X222874372Y-92540576D01*
X222874372Y-92540576D02*
X222493420Y-92540576D01*
X222493420Y-92540576D02*
X222493420Y-91540576D01*
X222493420Y-91540576D02*
X222826753Y-91540576D01*
X222826753Y-91540576D02*
X222921991Y-91588195D01*
X222921991Y-91588195D02*
X222969610Y-91635814D01*
X222969610Y-91635814D02*
X223017229Y-91731052D01*
X223017229Y-91731052D02*
X223017229Y-91826290D01*
X223017229Y-91826290D02*
X222969610Y-91921528D01*
X222969610Y-91921528D02*
X222921991Y-91969147D01*
X222921991Y-91969147D02*
X222826753Y-92016766D01*
X222826753Y-92016766D02*
X222493420Y-92016766D01*
X223445801Y-91635814D02*
X223493420Y-91588195D01*
X223493420Y-91588195D02*
X223588658Y-91540576D01*
X223588658Y-91540576D02*
X223826753Y-91540576D01*
X223826753Y-91540576D02*
X223921991Y-91588195D01*
X223921991Y-91588195D02*
X223969610Y-91635814D01*
X223969610Y-91635814D02*
X224017229Y-91731052D01*
X224017229Y-91731052D02*
X224017229Y-91826290D01*
X224017229Y-91826290D02*
X223969610Y-91969147D01*
X223969610Y-91969147D02*
X223398182Y-92540576D01*
X223398182Y-92540576D02*
X224017229Y-92540576D01*
X211551597Y-77174771D02*
X211694454Y-77222390D01*
X211694454Y-77222390D02*
X211932549Y-77222390D01*
X211932549Y-77222390D02*
X212027787Y-77174771D01*
X212027787Y-77174771D02*
X212075406Y-77127151D01*
X212075406Y-77127151D02*
X212123025Y-77031913D01*
X212123025Y-77031913D02*
X212123025Y-76936675D01*
X212123025Y-76936675D02*
X212075406Y-76841437D01*
X212075406Y-76841437D02*
X212027787Y-76793818D01*
X212027787Y-76793818D02*
X211932549Y-76746199D01*
X211932549Y-76746199D02*
X211742073Y-76698580D01*
X211742073Y-76698580D02*
X211646835Y-76650961D01*
X211646835Y-76650961D02*
X211599216Y-76603342D01*
X211599216Y-76603342D02*
X211551597Y-76508104D01*
X211551597Y-76508104D02*
X211551597Y-76412866D01*
X211551597Y-76412866D02*
X211599216Y-76317628D01*
X211599216Y-76317628D02*
X211646835Y-76270009D01*
X211646835Y-76270009D02*
X211742073Y-76222390D01*
X211742073Y-76222390D02*
X211980168Y-76222390D01*
X211980168Y-76222390D02*
X212123025Y-76270009D01*
X212551597Y-77222390D02*
X212551597Y-76222390D01*
X212551597Y-76222390D02*
X212789692Y-76222390D01*
X212789692Y-76222390D02*
X212932549Y-76270009D01*
X212932549Y-76270009D02*
X213027787Y-76365247D01*
X213027787Y-76365247D02*
X213075406Y-76460485D01*
X213075406Y-76460485D02*
X213123025Y-76650961D01*
X213123025Y-76650961D02*
X213123025Y-76793818D01*
X213123025Y-76793818D02*
X213075406Y-76984294D01*
X213075406Y-76984294D02*
X213027787Y-77079532D01*
X213027787Y-77079532D02*
X212932549Y-77174771D01*
X212932549Y-77174771D02*
X212789692Y-77222390D01*
X212789692Y-77222390D02*
X212551597Y-77222390D01*
X213503978Y-76936675D02*
X213980168Y-76936675D01*
X213408740Y-77222390D02*
X213742073Y-76222390D01*
X213742073Y-76222390D02*
X214075406Y-77222390D01*
X219731524Y-79454862D02*
X220207714Y-79454862D01*
X219636286Y-79740577D02*
X219969619Y-78740577D01*
X219969619Y-78740577D02*
X220302952Y-79740577D01*
X220588667Y-78835815D02*
X220636286Y-78788196D01*
X220636286Y-78788196D02*
X220731524Y-78740577D01*
X220731524Y-78740577D02*
X220969619Y-78740577D01*
X220969619Y-78740577D02*
X221064857Y-78788196D01*
X221064857Y-78788196D02*
X221112476Y-78835815D01*
X221112476Y-78835815D02*
X221160095Y-78931053D01*
X221160095Y-78931053D02*
X221160095Y-79026291D01*
X221160095Y-79026291D02*
X221112476Y-79169148D01*
X221112476Y-79169148D02*
X220541048Y-79740577D01*
X220541048Y-79740577D02*
X221160095Y-79740577D01*
X222302952Y-78692958D02*
X221445810Y-79978672D01*
X222969619Y-79216767D02*
X222636286Y-79216767D01*
X222636286Y-79740577D02*
X222636286Y-78740577D01*
X222636286Y-78740577D02*
X223112476Y-78740577D01*
X223969619Y-78740577D02*
X223493429Y-78740577D01*
X223493429Y-78740577D02*
X223445810Y-79216767D01*
X223445810Y-79216767D02*
X223493429Y-79169148D01*
X223493429Y-79169148D02*
X223588667Y-79121529D01*
X223588667Y-79121529D02*
X223826762Y-79121529D01*
X223826762Y-79121529D02*
X223922000Y-79169148D01*
X223922000Y-79169148D02*
X223969619Y-79216767D01*
X223969619Y-79216767D02*
X224017238Y-79312005D01*
X224017238Y-79312005D02*
X224017238Y-79550100D01*
X224017238Y-79550100D02*
X223969619Y-79645338D01*
X223969619Y-79645338D02*
X223922000Y-79692958D01*
X223922000Y-79692958D02*
X223826762Y-79740577D01*
X223826762Y-79740577D02*
X223588667Y-79740577D01*
X223588667Y-79740577D02*
X223493429Y-79692958D01*
X223493429Y-79692958D02*
X223445810Y-79645338D01*
X211599219Y-87404192D02*
X211599219Y-86404192D01*
X211599219Y-86404192D02*
X211837314Y-86404192D01*
X211837314Y-86404192D02*
X211980171Y-86451811D01*
X211980171Y-86451811D02*
X212075409Y-86547049D01*
X212075409Y-86547049D02*
X212123028Y-86642287D01*
X212123028Y-86642287D02*
X212170647Y-86832763D01*
X212170647Y-86832763D02*
X212170647Y-86975620D01*
X212170647Y-86975620D02*
X212123028Y-87166096D01*
X212123028Y-87166096D02*
X212075409Y-87261334D01*
X212075409Y-87261334D02*
X211980171Y-87356573D01*
X211980171Y-87356573D02*
X211837314Y-87404192D01*
X211837314Y-87404192D02*
X211599219Y-87404192D01*
X212503981Y-86404192D02*
X213170647Y-86404192D01*
X213170647Y-86404192D02*
X212742076Y-87404192D01*
X214265885Y-86356573D02*
X213408743Y-87642287D01*
X215027790Y-86404192D02*
X214837314Y-86404192D01*
X214837314Y-86404192D02*
X214742076Y-86451811D01*
X214742076Y-86451811D02*
X214694457Y-86499430D01*
X214694457Y-86499430D02*
X214599219Y-86642287D01*
X214599219Y-86642287D02*
X214551600Y-86832763D01*
X214551600Y-86832763D02*
X214551600Y-87213715D01*
X214551600Y-87213715D02*
X214599219Y-87308953D01*
X214599219Y-87308953D02*
X214646838Y-87356573D01*
X214646838Y-87356573D02*
X214742076Y-87404192D01*
X214742076Y-87404192D02*
X214932552Y-87404192D01*
X214932552Y-87404192D02*
X215027790Y-87356573D01*
X215027790Y-87356573D02*
X215075409Y-87308953D01*
X215075409Y-87308953D02*
X215123028Y-87213715D01*
X215123028Y-87213715D02*
X215123028Y-86975620D01*
X215123028Y-86975620D02*
X215075409Y-86880382D01*
X215075409Y-86880382D02*
X215027790Y-86832763D01*
X215027790Y-86832763D02*
X214932552Y-86785144D01*
X214932552Y-86785144D02*
X214742076Y-86785144D01*
X214742076Y-86785144D02*
X214646838Y-86832763D01*
X214646838Y-86832763D02*
X214599219Y-86880382D01*
X214599219Y-86880382D02*
X214551600Y-86975620D01*
G36*
X224208336Y-74931699D02*
G01*
X221399079Y-74931699D01*
X221399079Y-74660955D01*
X221510190Y-74660955D01*
X221522136Y-74689794D01*
X221532085Y-74701917D01*
X221579704Y-74749537D01*
X221585839Y-74754572D01*
X221587224Y-74756169D01*
X221589628Y-74757682D01*
X221591826Y-74759486D01*
X221593778Y-74760294D01*
X221600496Y-74764523D01*
X221695734Y-74812142D01*
X221710380Y-74817747D01*
X221713247Y-74817950D01*
X221715904Y-74819051D01*
X221731511Y-74820588D01*
X222017225Y-74820588D01*
X222032832Y-74819051D01*
X222035488Y-74817950D01*
X222038355Y-74817747D01*
X222053002Y-74812142D01*
X222148240Y-74764523D01*
X222154957Y-74760294D01*
X222156910Y-74759486D01*
X222159107Y-74757682D01*
X222161512Y-74756169D01*
X222162896Y-74754572D01*
X222169032Y-74749537D01*
X222216651Y-74701917D01*
X222221684Y-74695783D01*
X222223282Y-74694398D01*
X222224797Y-74691990D01*
X222226600Y-74689794D01*
X222227408Y-74687842D01*
X222231636Y-74681126D01*
X222279255Y-74585888D01*
X222284860Y-74571242D01*
X222285063Y-74568374D01*
X222286164Y-74565718D01*
X222287701Y-74550111D01*
X222287701Y-74312016D01*
X222286164Y-74296409D01*
X222285063Y-74293752D01*
X222284860Y-74290885D01*
X222279255Y-74276239D01*
X222231636Y-74181001D01*
X222227406Y-74174282D01*
X222226599Y-74172332D01*
X222224797Y-74170137D01*
X222223282Y-74167729D01*
X222221684Y-74166343D01*
X222216650Y-74160209D01*
X222169032Y-74112590D01*
X222162894Y-74107553D01*
X222161512Y-74105959D01*
X222159108Y-74104446D01*
X222156909Y-74102641D01*
X222154954Y-74101831D01*
X222148240Y-74097605D01*
X222053002Y-74049986D01*
X222045717Y-74047198D01*
X222267907Y-73793268D01*
X222272728Y-73786524D01*
X222274219Y-73785034D01*
X222274804Y-73783621D01*
X222277028Y-73780511D01*
X222281192Y-73768197D01*
X222286164Y-73756195D01*
X222286164Y-73753498D01*
X222287029Y-73750941D01*
X222287006Y-73750594D01*
X222414044Y-73750594D01*
X222417521Y-73765886D01*
X222750854Y-74765886D01*
X222757248Y-74780206D01*
X222760992Y-74784523D01*
X222763549Y-74789637D01*
X222771124Y-74796207D01*
X222777699Y-74803788D01*
X222782815Y-74806345D01*
X222787131Y-74810089D01*
X222796643Y-74813259D01*
X222805618Y-74817747D01*
X222811319Y-74818152D01*
X222816743Y-74819960D01*
X222826755Y-74819248D01*
X222836755Y-74819959D01*
X222842172Y-74818153D01*
X222847879Y-74817748D01*
X222856857Y-74813258D01*
X222866367Y-74810089D01*
X222870683Y-74806345D01*
X222875798Y-74803788D01*
X222882370Y-74796209D01*
X222889949Y-74789637D01*
X222892505Y-74784523D01*
X222896250Y-74780206D01*
X222902644Y-74765886D01*
X222937621Y-74660955D01*
X223319714Y-74660955D01*
X223331660Y-74689794D01*
X223341609Y-74701917D01*
X223389228Y-74749537D01*
X223395363Y-74754572D01*
X223396748Y-74756169D01*
X223399152Y-74757682D01*
X223401350Y-74759486D01*
X223403302Y-74760294D01*
X223410020Y-74764523D01*
X223505258Y-74812142D01*
X223519904Y-74817747D01*
X223522771Y-74817950D01*
X223525428Y-74819051D01*
X223541035Y-74820588D01*
X223826749Y-74820588D01*
X223842356Y-74819051D01*
X223845012Y-74817950D01*
X223847879Y-74817747D01*
X223862526Y-74812142D01*
X223957764Y-74764523D01*
X223964481Y-74760294D01*
X223966434Y-74759486D01*
X223968631Y-74757682D01*
X223971036Y-74756169D01*
X223972420Y-74754572D01*
X223978556Y-74749537D01*
X224026175Y-74701917D01*
X224031208Y-74695783D01*
X224032806Y-74694398D01*
X224034321Y-74691990D01*
X224036124Y-74689794D01*
X224036932Y-74687842D01*
X224041160Y-74681126D01*
X224088779Y-74585888D01*
X224094384Y-74571242D01*
X224094587Y-74568374D01*
X224095688Y-74565718D01*
X224097225Y-74550111D01*
X224097225Y-74312016D01*
X224095688Y-74296409D01*
X224094587Y-74293752D01*
X224094384Y-74290885D01*
X224088779Y-74276239D01*
X224041160Y-74181001D01*
X224036930Y-74174282D01*
X224036123Y-74172332D01*
X224034321Y-74170137D01*
X224032806Y-74167729D01*
X224031208Y-74166343D01*
X224026174Y-74160209D01*
X223978556Y-74112590D01*
X223972418Y-74107553D01*
X223971036Y-74105959D01*
X223968632Y-74104446D01*
X223966433Y-74102641D01*
X223964478Y-74101831D01*
X223957764Y-74097605D01*
X223862526Y-74049986D01*
X223855241Y-74047198D01*
X224077431Y-73793268D01*
X224082252Y-73786524D01*
X224083743Y-73785034D01*
X224084328Y-73783621D01*
X224086552Y-73780511D01*
X224090716Y-73768197D01*
X224095688Y-73756195D01*
X224095688Y-73753498D01*
X224096553Y-73750941D01*
X224095688Y-73737970D01*
X224095688Y-73724981D01*
X224094655Y-73722488D01*
X224094476Y-73719796D01*
X224088716Y-73708149D01*
X224083743Y-73696142D01*
X224081834Y-73694233D01*
X224080639Y-73691816D01*
X224070861Y-73683260D01*
X224061671Y-73674070D01*
X224059178Y-73673037D01*
X224057148Y-73671261D01*
X224044834Y-73667096D01*
X224032832Y-73662125D01*
X224029027Y-73661750D01*
X224027578Y-73661260D01*
X224025473Y-73661400D01*
X224017225Y-73660588D01*
X223398178Y-73660588D01*
X223382571Y-73662125D01*
X223353732Y-73674070D01*
X223331660Y-73696142D01*
X223319715Y-73724981D01*
X223319715Y-73756195D01*
X223331660Y-73785034D01*
X223353732Y-73807106D01*
X223382571Y-73819051D01*
X223398178Y-73820588D01*
X223840924Y-73820588D01*
X223623686Y-74068860D01*
X223618864Y-74075603D01*
X223617374Y-74077094D01*
X223616788Y-74078506D01*
X223614565Y-74081617D01*
X223610400Y-74093930D01*
X223605429Y-74105933D01*
X223605429Y-74108629D01*
X223604564Y-74111187D01*
X223605429Y-74124157D01*
X223605429Y-74137147D01*
X223606461Y-74139639D01*
X223606641Y-74142332D01*
X223612400Y-74153978D01*
X223617374Y-74165986D01*
X223619282Y-74167894D01*
X223620478Y-74170312D01*
X223630255Y-74178867D01*
X223639446Y-74188058D01*
X223641938Y-74189090D01*
X223643969Y-74190867D01*
X223656282Y-74195031D01*
X223668285Y-74200003D01*
X223672089Y-74200377D01*
X223673539Y-74200868D01*
X223675643Y-74200727D01*
X223683892Y-74201540D01*
X223807864Y-74201540D01*
X223874596Y-74234906D01*
X223903858Y-74264167D01*
X223937225Y-74330901D01*
X223937225Y-74531226D01*
X223903857Y-74597960D01*
X223874597Y-74627221D01*
X223807864Y-74660588D01*
X223559920Y-74660588D01*
X223493186Y-74627221D01*
X223454747Y-74588781D01*
X223442625Y-74578832D01*
X223413786Y-74566886D01*
X223382572Y-74566885D01*
X223353733Y-74578831D01*
X223331661Y-74600902D01*
X223319715Y-74629741D01*
X223319714Y-74660955D01*
X222937621Y-74660955D01*
X223235977Y-73765887D01*
X223239454Y-73750594D01*
X223237241Y-73719458D01*
X223223282Y-73691539D01*
X223199700Y-73671087D01*
X223170088Y-73661217D01*
X223138951Y-73663429D01*
X223111032Y-73677388D01*
X223090581Y-73700970D01*
X223084187Y-73715290D01*
X222826749Y-74487604D01*
X222569311Y-73715290D01*
X222562917Y-73700970D01*
X222542465Y-73677388D01*
X222514546Y-73663428D01*
X222483410Y-73661216D01*
X222453798Y-73671087D01*
X222430216Y-73691539D01*
X222416256Y-73719458D01*
X222414044Y-73750594D01*
X222287006Y-73750594D01*
X222286164Y-73737970D01*
X222286164Y-73724981D01*
X222285131Y-73722488D01*
X222284952Y-73719796D01*
X222279192Y-73708149D01*
X222274219Y-73696142D01*
X222272310Y-73694233D01*
X222271115Y-73691816D01*
X222261337Y-73683260D01*
X222252147Y-73674070D01*
X222249654Y-73673037D01*
X222247624Y-73671261D01*
X222235310Y-73667096D01*
X222223308Y-73662125D01*
X222219503Y-73661750D01*
X222218054Y-73661260D01*
X222215949Y-73661400D01*
X222207701Y-73660588D01*
X221588654Y-73660588D01*
X221573047Y-73662125D01*
X221544208Y-73674070D01*
X221522136Y-73696142D01*
X221510191Y-73724981D01*
X221510191Y-73756195D01*
X221522136Y-73785034D01*
X221544208Y-73807106D01*
X221573047Y-73819051D01*
X221588654Y-73820588D01*
X222031400Y-73820588D01*
X221814162Y-74068860D01*
X221809340Y-74075603D01*
X221807850Y-74077094D01*
X221807264Y-74078506D01*
X221805041Y-74081617D01*
X221800876Y-74093930D01*
X221795905Y-74105933D01*
X221795905Y-74108629D01*
X221795040Y-74111187D01*
X221795905Y-74124157D01*
X221795905Y-74137147D01*
X221796937Y-74139639D01*
X221797117Y-74142332D01*
X221802876Y-74153978D01*
X221807850Y-74165986D01*
X221809758Y-74167894D01*
X221810954Y-74170312D01*
X221820731Y-74178867D01*
X221829922Y-74188058D01*
X221832414Y-74189090D01*
X221834445Y-74190867D01*
X221846758Y-74195031D01*
X221858761Y-74200003D01*
X221862565Y-74200377D01*
X221864015Y-74200868D01*
X221866119Y-74200727D01*
X221874368Y-74201540D01*
X221998340Y-74201540D01*
X222065072Y-74234906D01*
X222094334Y-74264167D01*
X222127701Y-74330901D01*
X222127701Y-74531226D01*
X222094333Y-74597960D01*
X222065073Y-74627221D01*
X221998340Y-74660588D01*
X221750396Y-74660588D01*
X221683662Y-74627221D01*
X221645223Y-74588781D01*
X221633101Y-74578832D01*
X221604262Y-74566886D01*
X221573048Y-74566885D01*
X221544209Y-74578831D01*
X221522137Y-74600902D01*
X221510191Y-74629741D01*
X221510190Y-74660955D01*
X221399079Y-74660955D01*
X221399079Y-73549477D01*
X224208336Y-73549477D01*
X224208336Y-74931699D01*
G37*
X211551604Y-79720213D02*
X211694461Y-79767832D01*
X211694461Y-79767832D02*
X211932556Y-79767832D01*
X211932556Y-79767832D02*
X212027794Y-79720213D01*
X212027794Y-79720213D02*
X212075413Y-79672593D01*
X212075413Y-79672593D02*
X212123032Y-79577355D01*
X212123032Y-79577355D02*
X212123032Y-79482117D01*
X212123032Y-79482117D02*
X212075413Y-79386879D01*
X212075413Y-79386879D02*
X212027794Y-79339260D01*
X212027794Y-79339260D02*
X211932556Y-79291641D01*
X211932556Y-79291641D02*
X211742080Y-79244022D01*
X211742080Y-79244022D02*
X211646842Y-79196403D01*
X211646842Y-79196403D02*
X211599223Y-79148784D01*
X211599223Y-79148784D02*
X211551604Y-79053546D01*
X211551604Y-79053546D02*
X211551604Y-78958308D01*
X211551604Y-78958308D02*
X211599223Y-78863070D01*
X211599223Y-78863070D02*
X211646842Y-78815451D01*
X211646842Y-78815451D02*
X211742080Y-78767832D01*
X211742080Y-78767832D02*
X211980175Y-78767832D01*
X211980175Y-78767832D02*
X212123032Y-78815451D01*
X213123032Y-79672593D02*
X213075413Y-79720213D01*
X213075413Y-79720213D02*
X212932556Y-79767832D01*
X212932556Y-79767832D02*
X212837318Y-79767832D01*
X212837318Y-79767832D02*
X212694461Y-79720213D01*
X212694461Y-79720213D02*
X212599223Y-79624974D01*
X212599223Y-79624974D02*
X212551604Y-79529736D01*
X212551604Y-79529736D02*
X212503985Y-79339260D01*
X212503985Y-79339260D02*
X212503985Y-79196403D01*
X212503985Y-79196403D02*
X212551604Y-79005927D01*
X212551604Y-79005927D02*
X212599223Y-78910689D01*
X212599223Y-78910689D02*
X212694461Y-78815451D01*
X212694461Y-78815451D02*
X212837318Y-78767832D01*
X212837318Y-78767832D02*
X212932556Y-78767832D01*
X212932556Y-78767832D02*
X213075413Y-78815451D01*
X213075413Y-78815451D02*
X213123032Y-78863070D01*
X214027794Y-79767832D02*
X213551604Y-79767832D01*
X213551604Y-79767832D02*
X213551604Y-78767832D01*
X221921997Y-68688198D02*
X221826759Y-68640579D01*
X221826759Y-68640579D02*
X221683902Y-68640579D01*
X221683902Y-68640579D02*
X221541045Y-68688198D01*
X221541045Y-68688198D02*
X221445807Y-68783436D01*
X221445807Y-68783436D02*
X221398188Y-68878674D01*
X221398188Y-68878674D02*
X221350569Y-69069150D01*
X221350569Y-69069150D02*
X221350569Y-69212007D01*
X221350569Y-69212007D02*
X221398188Y-69402483D01*
X221398188Y-69402483D02*
X221445807Y-69497721D01*
X221445807Y-69497721D02*
X221541045Y-69592960D01*
X221541045Y-69592960D02*
X221683902Y-69640579D01*
X221683902Y-69640579D02*
X221779140Y-69640579D01*
X221779140Y-69640579D02*
X221921997Y-69592960D01*
X221921997Y-69592960D02*
X221969616Y-69545340D01*
X221969616Y-69545340D02*
X221969616Y-69212007D01*
X221969616Y-69212007D02*
X221779140Y-69212007D01*
X222398188Y-69640579D02*
X222398188Y-68640579D01*
X222398188Y-68640579D02*
X222969616Y-69640579D01*
X222969616Y-69640579D02*
X222969616Y-68640579D01*
X223445807Y-69640579D02*
X223445807Y-68640579D01*
X223445807Y-68640579D02*
X223683902Y-68640579D01*
X223683902Y-68640579D02*
X223826759Y-68688198D01*
X223826759Y-68688198D02*
X223921997Y-68783436D01*
X223921997Y-68783436D02*
X223969616Y-68878674D01*
X223969616Y-68878674D02*
X224017235Y-69069150D01*
X224017235Y-69069150D02*
X224017235Y-69212007D01*
X224017235Y-69212007D02*
X223969616Y-69402483D01*
X223969616Y-69402483D02*
X223921997Y-69497721D01*
X223921997Y-69497721D02*
X223826759Y-69592960D01*
X223826759Y-69592960D02*
X223683902Y-69640579D01*
X223683902Y-69640579D02*
X223445807Y-69640579D01*
X219731521Y-82054868D02*
X220207711Y-82054868D01*
X219636283Y-82340583D02*
X219969616Y-81340583D01*
X219969616Y-81340583D02*
X220302949Y-82340583D01*
X221160092Y-82340583D02*
X220588664Y-82340583D01*
X220874378Y-82340583D02*
X220874378Y-81340583D01*
X220874378Y-81340583D02*
X220779140Y-81483440D01*
X220779140Y-81483440D02*
X220683902Y-81578678D01*
X220683902Y-81578678D02*
X220588664Y-81626297D01*
X222302949Y-81292964D02*
X221445807Y-82578678D01*
X222969616Y-81816773D02*
X222636283Y-81816773D01*
X222636283Y-82340583D02*
X222636283Y-81340583D01*
X222636283Y-81340583D02*
X223112473Y-81340583D01*
X223921997Y-81340583D02*
X223731521Y-81340583D01*
X223731521Y-81340583D02*
X223636283Y-81388202D01*
X223636283Y-81388202D02*
X223588664Y-81435821D01*
X223588664Y-81435821D02*
X223493426Y-81578678D01*
X223493426Y-81578678D02*
X223445807Y-81769154D01*
X223445807Y-81769154D02*
X223445807Y-82150106D01*
X223445807Y-82150106D02*
X223493426Y-82245344D01*
X223493426Y-82245344D02*
X223541045Y-82292964D01*
X223541045Y-82292964D02*
X223636283Y-82340583D01*
X223636283Y-82340583D02*
X223826759Y-82340583D01*
X223826759Y-82340583D02*
X223921997Y-82292964D01*
X223921997Y-82292964D02*
X223969616Y-82245344D01*
X223969616Y-82245344D02*
X224017235Y-82150106D01*
X224017235Y-82150106D02*
X224017235Y-81912011D01*
X224017235Y-81912011D02*
X223969616Y-81816773D01*
X223969616Y-81816773D02*
X223921997Y-81769154D01*
X223921997Y-81769154D02*
X223826759Y-81721535D01*
X223826759Y-81721535D02*
X223636283Y-81721535D01*
X223636283Y-81721535D02*
X223541045Y-81769154D01*
X223541045Y-81769154D02*
X223493426Y-81816773D01*
X223493426Y-81816773D02*
X223445807Y-81912011D01*
X220493415Y-72140576D02*
X220160082Y-71664385D01*
X219921987Y-72140576D02*
X219921987Y-71140576D01*
X219921987Y-71140576D02*
X220302939Y-71140576D01*
X220302939Y-71140576D02*
X220398177Y-71188195D01*
X220398177Y-71188195D02*
X220445796Y-71235814D01*
X220445796Y-71235814D02*
X220493415Y-71331052D01*
X220493415Y-71331052D02*
X220493415Y-71473909D01*
X220493415Y-71473909D02*
X220445796Y-71569147D01*
X220445796Y-71569147D02*
X220398177Y-71616766D01*
X220398177Y-71616766D02*
X220302939Y-71664385D01*
X220302939Y-71664385D02*
X219921987Y-71664385D01*
X220921987Y-71616766D02*
X221255320Y-71616766D01*
X221398177Y-72140576D02*
X220921987Y-72140576D01*
X220921987Y-72140576D02*
X220921987Y-71140576D01*
X220921987Y-71140576D02*
X221398177Y-71140576D01*
X221779130Y-72092957D02*
X221921987Y-72140576D01*
X221921987Y-72140576D02*
X222160082Y-72140576D01*
X222160082Y-72140576D02*
X222255320Y-72092957D01*
X222255320Y-72092957D02*
X222302939Y-72045337D01*
X222302939Y-72045337D02*
X222350558Y-71950099D01*
X222350558Y-71950099D02*
X222350558Y-71854861D01*
X222350558Y-71854861D02*
X222302939Y-71759623D01*
X222302939Y-71759623D02*
X222255320Y-71712004D01*
X222255320Y-71712004D02*
X222160082Y-71664385D01*
X222160082Y-71664385D02*
X221969606Y-71616766D01*
X221969606Y-71616766D02*
X221874368Y-71569147D01*
X221874368Y-71569147D02*
X221826749Y-71521528D01*
X221826749Y-71521528D02*
X221779130Y-71426290D01*
X221779130Y-71426290D02*
X221779130Y-71331052D01*
X221779130Y-71331052D02*
X221826749Y-71235814D01*
X221826749Y-71235814D02*
X221874368Y-71188195D01*
X221874368Y-71188195D02*
X221969606Y-71140576D01*
X221969606Y-71140576D02*
X222207701Y-71140576D01*
X222207701Y-71140576D02*
X222350558Y-71188195D01*
X222779130Y-71616766D02*
X223112463Y-71616766D01*
X223255320Y-72140576D02*
X222779130Y-72140576D01*
X222779130Y-72140576D02*
X222779130Y-71140576D01*
X222779130Y-71140576D02*
X223255320Y-71140576D01*
X223541035Y-71140576D02*
X224112463Y-71140576D01*
X223826749Y-72140576D02*
X223826749Y-71140576D01*
X211599219Y-82313294D02*
X211599219Y-81313294D01*
X211599219Y-81313294D02*
X211837314Y-81313294D01*
X211837314Y-81313294D02*
X211980171Y-81360913D01*
X211980171Y-81360913D02*
X212075409Y-81456151D01*
X212075409Y-81456151D02*
X212123028Y-81551389D01*
X212123028Y-81551389D02*
X212170647Y-81741865D01*
X212170647Y-81741865D02*
X212170647Y-81884722D01*
X212170647Y-81884722D02*
X212123028Y-82075198D01*
X212123028Y-82075198D02*
X212075409Y-82170436D01*
X212075409Y-82170436D02*
X211980171Y-82265675D01*
X211980171Y-82265675D02*
X211837314Y-82313294D01*
X211837314Y-82313294D02*
X211599219Y-82313294D01*
X213027790Y-81646627D02*
X213027790Y-82313294D01*
X212789695Y-81265675D02*
X212551600Y-81979960D01*
X212551600Y-81979960D02*
X213170647Y-81979960D01*
X214265885Y-81265675D02*
X213408743Y-82551389D01*
X215027790Y-81646627D02*
X215027790Y-82313294D01*
X214789695Y-81265675D02*
X214551600Y-81979960D01*
X214551600Y-81979960D02*
X215170647Y-81979960D01*
X212123023Y-71179101D02*
X212027785Y-71131482D01*
X212027785Y-71131482D02*
X211884928Y-71131482D01*
X211884928Y-71131482D02*
X211742071Y-71179101D01*
X211742071Y-71179101D02*
X211646833Y-71274339D01*
X211646833Y-71274339D02*
X211599214Y-71369577D01*
X211599214Y-71369577D02*
X211551595Y-71560053D01*
X211551595Y-71560053D02*
X211551595Y-71702910D01*
X211551595Y-71702910D02*
X211599214Y-71893386D01*
X211599214Y-71893386D02*
X211646833Y-71988624D01*
X211646833Y-71988624D02*
X211742071Y-72083863D01*
X211742071Y-72083863D02*
X211884928Y-72131482D01*
X211884928Y-72131482D02*
X211980166Y-72131482D01*
X211980166Y-72131482D02*
X212123023Y-72083863D01*
X212123023Y-72083863D02*
X212170642Y-72036243D01*
X212170642Y-72036243D02*
X212170642Y-71702910D01*
X212170642Y-71702910D02*
X211980166Y-71702910D01*
X212599214Y-72131482D02*
X212599214Y-71131482D01*
X212599214Y-71131482D02*
X213170642Y-72131482D01*
X213170642Y-72131482D02*
X213170642Y-71131482D01*
X213646833Y-72131482D02*
X213646833Y-71131482D01*
X213646833Y-71131482D02*
X213884928Y-71131482D01*
X213884928Y-71131482D02*
X214027785Y-71179101D01*
X214027785Y-71179101D02*
X214123023Y-71274339D01*
X214123023Y-71274339D02*
X214170642Y-71369577D01*
X214170642Y-71369577D02*
X214218261Y-71560053D01*
X214218261Y-71560053D02*
X214218261Y-71702910D01*
X214218261Y-71702910D02*
X214170642Y-71893386D01*
X214170642Y-71893386D02*
X214123023Y-71988624D01*
X214123023Y-71988624D02*
X214027785Y-72083863D01*
X214027785Y-72083863D02*
X213884928Y-72131482D01*
X213884928Y-72131482D02*
X213646833Y-72131482D01*
X220064849Y-90040580D02*
X219493421Y-90040580D01*
X219779135Y-90040580D02*
X219779135Y-89040580D01*
X219779135Y-89040580D02*
X219683897Y-89183437D01*
X219683897Y-89183437D02*
X219588659Y-89278675D01*
X219588659Y-89278675D02*
X219493421Y-89326294D01*
X220921992Y-89373913D02*
X220921992Y-90040580D01*
X220683897Y-88992961D02*
X220445802Y-89707246D01*
X220445802Y-89707246D02*
X221064849Y-89707246D01*
X222160087Y-88992961D02*
X221302945Y-90278675D01*
X222826754Y-89516770D02*
X222969611Y-89564389D01*
X222969611Y-89564389D02*
X223017230Y-89612008D01*
X223017230Y-89612008D02*
X223064849Y-89707246D01*
X223064849Y-89707246D02*
X223064849Y-89850103D01*
X223064849Y-89850103D02*
X223017230Y-89945341D01*
X223017230Y-89945341D02*
X222969611Y-89992961D01*
X222969611Y-89992961D02*
X222874373Y-90040580D01*
X222874373Y-90040580D02*
X222493421Y-90040580D01*
X222493421Y-90040580D02*
X222493421Y-89040580D01*
X222493421Y-89040580D02*
X222826754Y-89040580D01*
X222826754Y-89040580D02*
X222921992Y-89088199D01*
X222921992Y-89088199D02*
X222969611Y-89135818D01*
X222969611Y-89135818D02*
X223017230Y-89231056D01*
X223017230Y-89231056D02*
X223017230Y-89326294D01*
X223017230Y-89326294D02*
X222969611Y-89421532D01*
X222969611Y-89421532D02*
X222921992Y-89469151D01*
X222921992Y-89469151D02*
X222826754Y-89516770D01*
X222826754Y-89516770D02*
X222493421Y-89516770D01*
X223398183Y-89040580D02*
X224017230Y-89040580D01*
X224017230Y-89040580D02*
X223683897Y-89421532D01*
X223683897Y-89421532D02*
X223826754Y-89421532D01*
X223826754Y-89421532D02*
X223921992Y-89469151D01*
X223921992Y-89469151D02*
X223969611Y-89516770D01*
X223969611Y-89516770D02*
X224017230Y-89612008D01*
X224017230Y-89612008D02*
X224017230Y-89850103D01*
X224017230Y-89850103D02*
X223969611Y-89945341D01*
X223969611Y-89945341D02*
X223921992Y-89992961D01*
X223921992Y-89992961D02*
X223826754Y-90040580D01*
X223826754Y-90040580D02*
X223541040Y-90040580D01*
X223541040Y-90040580D02*
X223445802Y-89992961D01*
X223445802Y-89992961D02*
X223398183Y-89945341D01*
X211599228Y-69586017D02*
X211599228Y-68586017D01*
X211599228Y-68586017D02*
X211837323Y-68586017D01*
X211837323Y-68586017D02*
X211980180Y-68633636D01*
X211980180Y-68633636D02*
X212075418Y-68728874D01*
X212075418Y-68728874D02*
X212123037Y-68824112D01*
X212123037Y-68824112D02*
X212170656Y-69014588D01*
X212170656Y-69014588D02*
X212170656Y-69157445D01*
X212170656Y-69157445D02*
X212123037Y-69347921D01*
X212123037Y-69347921D02*
X212075418Y-69443159D01*
X212075418Y-69443159D02*
X211980180Y-69538398D01*
X211980180Y-69538398D02*
X211837323Y-69586017D01*
X211837323Y-69586017D02*
X211599228Y-69586017D01*
X212551609Y-68681255D02*
X212599228Y-68633636D01*
X212599228Y-68633636D02*
X212694466Y-68586017D01*
X212694466Y-68586017D02*
X212932561Y-68586017D01*
X212932561Y-68586017D02*
X213027799Y-68633636D01*
X213027799Y-68633636D02*
X213075418Y-68681255D01*
X213075418Y-68681255D02*
X213123037Y-68776493D01*
X213123037Y-68776493D02*
X213123037Y-68871731D01*
X213123037Y-68871731D02*
X213075418Y-69014588D01*
X213075418Y-69014588D02*
X212503990Y-69586017D01*
X212503990Y-69586017D02*
X213123037Y-69586017D01*
X214265894Y-68538398D02*
X213408752Y-69824112D01*
X215170656Y-69586017D02*
X214837323Y-69109826D01*
X214599228Y-69586017D02*
X214599228Y-68586017D01*
X214599228Y-68586017D02*
X214980180Y-68586017D01*
X214980180Y-68586017D02*
X215075418Y-68633636D01*
X215075418Y-68633636D02*
X215123037Y-68681255D01*
X215123037Y-68681255D02*
X215170656Y-68776493D01*
X215170656Y-68776493D02*
X215170656Y-68919350D01*
X215170656Y-68919350D02*
X215123037Y-69014588D01*
X215123037Y-69014588D02*
X215075418Y-69062207D01*
X215075418Y-69062207D02*
X214980180Y-69109826D01*
X214980180Y-69109826D02*
X214599228Y-69109826D01*
X215503990Y-68586017D02*
X216170656Y-69586017D01*
X216170656Y-68586017D02*
X215503990Y-69586017D01*
X300029345Y-140785325D02*
X300179659Y-140794348D01*
X300179659Y-140794348D02*
X300409642Y-140732724D01*
X300409642Y-140732724D02*
X300489310Y-140662078D01*
X300489310Y-140662078D02*
X300522982Y-140603757D01*
X300522982Y-140603757D02*
X300544329Y-140499439D01*
X300544329Y-140499439D02*
X300519679Y-140407446D01*
X300519679Y-140407446D02*
X300449033Y-140327778D01*
X300449033Y-140327778D02*
X300390712Y-140294106D01*
X300390712Y-140294106D02*
X300286394Y-140272759D01*
X300286394Y-140272759D02*
X300090084Y-140276062D01*
X300090084Y-140276062D02*
X299985766Y-140254715D01*
X299985766Y-140254715D02*
X299927445Y-140221043D01*
X299927445Y-140221043D02*
X299856799Y-140141375D01*
X299856799Y-140141375D02*
X299832150Y-140049382D01*
X299832150Y-140049382D02*
X299853497Y-139945064D01*
X299853497Y-139945064D02*
X299887168Y-139886743D01*
X299887168Y-139886743D02*
X299966837Y-139816097D01*
X299966837Y-139816097D02*
X300196819Y-139754473D01*
X300196819Y-139754473D02*
X300347133Y-139763496D01*
X301208741Y-139483330D02*
X300748777Y-139606577D01*
X300748777Y-139606577D02*
X300826027Y-140078866D01*
X300826027Y-140078866D02*
X300859699Y-140020545D01*
X300859699Y-140020545D02*
X300939367Y-139949899D01*
X300939367Y-139949899D02*
X301169350Y-139888276D01*
X301169350Y-139888276D02*
X301273667Y-139909623D01*
X301273667Y-139909623D02*
X301331989Y-139943294D01*
X301331989Y-139943294D02*
X301402634Y-140022963D01*
X301402634Y-140022963D02*
X301464258Y-140252945D01*
X301464258Y-140252945D02*
X301442911Y-140357263D01*
X301442911Y-140357263D02*
X301409239Y-140415584D01*
X301409239Y-140415584D02*
X301329571Y-140486230D01*
X301329571Y-140486230D02*
X301099589Y-140547853D01*
X301099589Y-140547853D02*
X300995271Y-140526506D01*
X300995271Y-140526506D02*
X300936950Y-140492834D01*
X302082674Y-139249160D02*
X301898688Y-139298459D01*
X301898688Y-139298459D02*
X301819020Y-139369105D01*
X301819020Y-139369105D02*
X301785348Y-139427426D01*
X301785348Y-139427426D02*
X301730330Y-139590065D01*
X301730330Y-139590065D02*
X301733632Y-139786375D01*
X301733632Y-139786375D02*
X301832230Y-140154347D01*
X301832230Y-140154347D02*
X301902876Y-140234015D01*
X301902876Y-140234015D02*
X301961197Y-140267687D01*
X301961197Y-140267687D02*
X302065515Y-140289034D01*
X302065515Y-140289034D02*
X302249500Y-140239735D01*
X302249500Y-140239735D02*
X302329169Y-140169089D01*
X302329169Y-140169089D02*
X302362840Y-140110768D01*
X302362840Y-140110768D02*
X302384187Y-140006451D01*
X302384187Y-140006451D02*
X302322564Y-139776468D01*
X302322564Y-139776468D02*
X302251918Y-139696800D01*
X302251918Y-139696800D02*
X302193597Y-139663128D01*
X302193597Y-139663128D02*
X302089279Y-139641781D01*
X302089279Y-139641781D02*
X301905293Y-139691080D01*
X301905293Y-139691080D02*
X301825625Y-139761726D01*
X301825625Y-139761726D02*
X301791953Y-139820047D01*
X301791953Y-139820047D02*
X301770606Y-139924365D01*
X281628455Y-145715832D02*
X281778769Y-145724855D01*
X281778769Y-145724855D02*
X282008752Y-145663231D01*
X282008752Y-145663231D02*
X282088420Y-145592585D01*
X282088420Y-145592585D02*
X282122092Y-145534264D01*
X282122092Y-145534264D02*
X282143439Y-145429946D01*
X282143439Y-145429946D02*
X282118789Y-145337953D01*
X282118789Y-145337953D02*
X282048143Y-145258285D01*
X282048143Y-145258285D02*
X281989822Y-145224613D01*
X281989822Y-145224613D02*
X281885504Y-145203266D01*
X281885504Y-145203266D02*
X281689194Y-145206569D01*
X281689194Y-145206569D02*
X281584876Y-145185222D01*
X281584876Y-145185222D02*
X281526555Y-145151550D01*
X281526555Y-145151550D02*
X281455909Y-145071882D01*
X281455909Y-145071882D02*
X281431260Y-144979889D01*
X281431260Y-144979889D02*
X281452607Y-144875571D01*
X281452607Y-144875571D02*
X281486278Y-144817250D01*
X281486278Y-144817250D02*
X281565947Y-144746604D01*
X281565947Y-144746604D02*
X281795929Y-144684980D01*
X281795929Y-144684980D02*
X281946243Y-144694003D01*
X282807851Y-144413837D02*
X282347887Y-144537084D01*
X282347887Y-144537084D02*
X282425137Y-145009373D01*
X282425137Y-145009373D02*
X282458809Y-144951052D01*
X282458809Y-144951052D02*
X282538477Y-144880406D01*
X282538477Y-144880406D02*
X282768460Y-144818783D01*
X282768460Y-144818783D02*
X282872777Y-144840130D01*
X282872777Y-144840130D02*
X282931099Y-144873801D01*
X282931099Y-144873801D02*
X283001744Y-144953470D01*
X283001744Y-144953470D02*
X283063368Y-145183452D01*
X283063368Y-145183452D02*
X283042021Y-145287770D01*
X283042021Y-145287770D02*
X283008349Y-145346091D01*
X283008349Y-145346091D02*
X282928681Y-145416737D01*
X282928681Y-145416737D02*
X282698699Y-145478360D01*
X282698699Y-145478360D02*
X282594381Y-145457013D01*
X282594381Y-145457013D02*
X282536060Y-145423341D01*
X283727781Y-144167342D02*
X283267816Y-144290590D01*
X283267816Y-144290590D02*
X283345067Y-144762879D01*
X283345067Y-144762879D02*
X283378739Y-144704558D01*
X283378739Y-144704558D02*
X283458407Y-144633912D01*
X283458407Y-144633912D02*
X283688389Y-144572288D01*
X283688389Y-144572288D02*
X283792707Y-144593635D01*
X283792707Y-144593635D02*
X283851028Y-144627307D01*
X283851028Y-144627307D02*
X283921674Y-144706975D01*
X283921674Y-144706975D02*
X283983297Y-144936958D01*
X283983297Y-144936958D02*
X283961950Y-145041275D01*
X283961950Y-145041275D02*
X283928279Y-145099596D01*
X283928279Y-145099596D02*
X283848610Y-145170242D01*
X283848610Y-145170242D02*
X283618628Y-145231866D01*
X283618628Y-145231866D02*
X283514310Y-145210519D01*
X283514310Y-145210519D02*
X283455989Y-145176847D01*
X263250981Y-153622267D02*
X263400578Y-153605050D01*
X263400578Y-153605050D02*
X263616365Y-153504427D01*
X263616365Y-153504427D02*
X263682556Y-153421020D01*
X263682556Y-153421020D02*
X263705589Y-153357738D01*
X263705589Y-153357738D02*
X263708497Y-153251298D01*
X263708497Y-153251298D02*
X263668247Y-153164983D01*
X263668247Y-153164983D02*
X263584841Y-153098793D01*
X263584841Y-153098793D02*
X263521558Y-153075760D01*
X263521558Y-153075760D02*
X263415119Y-153072852D01*
X263415119Y-153072852D02*
X263222364Y-153110193D01*
X263222364Y-153110193D02*
X263115924Y-153107285D01*
X263115924Y-153107285D02*
X263052642Y-153084252D01*
X263052642Y-153084252D02*
X262969235Y-153018062D01*
X262969235Y-153018062D02*
X262928986Y-152931747D01*
X262928986Y-152931747D02*
X262931894Y-152825307D01*
X262931894Y-152825307D02*
X262954927Y-152762025D01*
X262954927Y-152762025D02*
X263021117Y-152678618D01*
X263021117Y-152678618D02*
X263236905Y-152577995D01*
X263236905Y-152577995D02*
X263386502Y-152560778D01*
X264186370Y-152135252D02*
X263754795Y-152336498D01*
X263754795Y-152336498D02*
X263912884Y-152788198D01*
X263912884Y-152788198D02*
X263935917Y-152724916D01*
X263935917Y-152724916D02*
X264002107Y-152641509D01*
X264002107Y-152641509D02*
X264217895Y-152540886D01*
X264217895Y-152540886D02*
X264324335Y-152543794D01*
X264324335Y-152543794D02*
X264387617Y-152566827D01*
X264387617Y-152566827D02*
X264471024Y-152633017D01*
X264471024Y-152633017D02*
X264571647Y-152848805D01*
X264571647Y-152848805D02*
X264568739Y-152955244D01*
X264568739Y-152955244D02*
X264545706Y-153018527D01*
X264545706Y-153018527D02*
X264479516Y-153101933D01*
X264479516Y-153101933D02*
X264263728Y-153202557D01*
X264263728Y-153202557D02*
X264157288Y-153199649D01*
X264157288Y-153199649D02*
X264094006Y-153176616D01*
X265147236Y-152054985D02*
X265428981Y-152659190D01*
X264770451Y-151810349D02*
X264856533Y-152558335D01*
X264856533Y-152558335D02*
X265417581Y-152296714D01*
X242598932Y-167173983D02*
X242743267Y-167131051D01*
X242743267Y-167131051D02*
X242938303Y-166994485D01*
X242938303Y-166994485D02*
X242989004Y-166900852D01*
X242989004Y-166900852D02*
X243000698Y-166834531D01*
X243000698Y-166834531D02*
X242985079Y-166729204D01*
X242985079Y-166729204D02*
X242930453Y-166651189D01*
X242930453Y-166651189D02*
X242836819Y-166600488D01*
X242836819Y-166600488D02*
X242770499Y-166588794D01*
X242770499Y-166588794D02*
X242665171Y-166604413D01*
X242665171Y-166604413D02*
X242481829Y-166674658D01*
X242481829Y-166674658D02*
X242376502Y-166690277D01*
X242376502Y-166690277D02*
X242310181Y-166678583D01*
X242310181Y-166678583D02*
X242216548Y-166627882D01*
X242216548Y-166627882D02*
X242161921Y-166549867D01*
X242161921Y-166549867D02*
X242146302Y-166444540D01*
X242146302Y-166444540D02*
X242157996Y-166378219D01*
X242157996Y-166378219D02*
X242208698Y-166284586D01*
X242208698Y-166284586D02*
X242403734Y-166148020D01*
X242403734Y-166148020D02*
X242548069Y-166105088D01*
X243261893Y-165547130D02*
X242871821Y-165820262D01*
X242871821Y-165820262D02*
X243105945Y-166237648D01*
X243105945Y-166237648D02*
X243117639Y-166171327D01*
X243117639Y-166171327D02*
X243168341Y-166077694D01*
X243168341Y-166077694D02*
X243363377Y-165941128D01*
X243363377Y-165941128D02*
X243468704Y-165925509D01*
X243468704Y-165925509D02*
X243535025Y-165937203D01*
X243535025Y-165937203D02*
X243628658Y-165987904D01*
X243628658Y-165987904D02*
X243765224Y-166182940D01*
X243765224Y-166182940D02*
X243780843Y-166288268D01*
X243780843Y-166288268D02*
X243769149Y-166354588D01*
X243769149Y-166354588D02*
X243718448Y-166448222D01*
X243718448Y-166448222D02*
X243523412Y-166584788D01*
X243523412Y-166584788D02*
X243418084Y-166600407D01*
X243418084Y-166600407D02*
X243351764Y-166588713D01*
X243573951Y-165328625D02*
X244081045Y-164973554D01*
X244081045Y-164973554D02*
X244026500Y-165476804D01*
X244026500Y-165476804D02*
X244143522Y-165394864D01*
X244143522Y-165394864D02*
X244248849Y-165379245D01*
X244248849Y-165379245D02*
X244315170Y-165390939D01*
X244315170Y-165390939D02*
X244408803Y-165441641D01*
X244408803Y-165441641D02*
X244545369Y-165636677D01*
X244545369Y-165636677D02*
X244560988Y-165742005D01*
X244560988Y-165742005D02*
X244549294Y-165808325D01*
X244549294Y-165808325D02*
X244498593Y-165901959D01*
X244498593Y-165901959D02*
X244264549Y-166065838D01*
X244264549Y-166065838D02*
X244159222Y-166081457D01*
X244159222Y-166081457D02*
X244092901Y-166069763D01*
X182990464Y-160114107D02*
X183080172Y-160235054D01*
X183080172Y-160235054D02*
X183275209Y-160371620D01*
X183275209Y-160371620D02*
X183380536Y-160387239D01*
X183380536Y-160387239D02*
X183446857Y-160375545D01*
X183446857Y-160375545D02*
X183540490Y-160324844D01*
X183540490Y-160324844D02*
X183595116Y-160246829D01*
X183595116Y-160246829D02*
X183610736Y-160141501D01*
X183610736Y-160141501D02*
X183599042Y-160075181D01*
X183599042Y-160075181D02*
X183548340Y-159981547D01*
X183548340Y-159981547D02*
X183419624Y-159833288D01*
X183419624Y-159833288D02*
X183368923Y-159739654D01*
X183368923Y-159739654D02*
X183357229Y-159673334D01*
X183357229Y-159673334D02*
X183372848Y-159568006D01*
X183372848Y-159568006D02*
X183427474Y-159489991D01*
X183427474Y-159489991D02*
X183521108Y-159439290D01*
X183521108Y-159439290D02*
X183587428Y-159427596D01*
X183587428Y-159427596D02*
X183692756Y-159443215D01*
X183692756Y-159443215D02*
X183887792Y-159579781D01*
X183887792Y-159579781D02*
X183977501Y-159700728D01*
X184745952Y-160180671D02*
X184355879Y-159907539D01*
X184355879Y-159907539D02*
X184043740Y-160270298D01*
X184043740Y-160270298D02*
X184110061Y-160258604D01*
X184110061Y-160258604D02*
X184215388Y-160274223D01*
X184215388Y-160274223D02*
X184410425Y-160410789D01*
X184410425Y-160410789D02*
X184461126Y-160504423D01*
X184461126Y-160504423D02*
X184472820Y-160570743D01*
X184472820Y-160570743D02*
X184457201Y-160676071D01*
X184457201Y-160676071D02*
X184320635Y-160871107D01*
X184320635Y-160871107D02*
X184227001Y-160921808D01*
X184227001Y-160921808D02*
X184160681Y-160933502D01*
X184160681Y-160933502D02*
X184055353Y-160917883D01*
X184055353Y-160917883D02*
X183860317Y-160781317D01*
X183860317Y-160781317D02*
X183809616Y-160687684D01*
X183809616Y-160687684D02*
X183797922Y-160621363D01*
X185042390Y-160504504D02*
X185108711Y-160492809D01*
X185108711Y-160492809D02*
X185214038Y-160508429D01*
X185214038Y-160508429D02*
X185409075Y-160644994D01*
X185409075Y-160644994D02*
X185459776Y-160738628D01*
X185459776Y-160738628D02*
X185471470Y-160804948D01*
X185471470Y-160804948D02*
X185455851Y-160910276D01*
X185455851Y-160910276D02*
X185401225Y-160988290D01*
X185401225Y-160988290D02*
X185280278Y-161077999D01*
X185280278Y-161077999D02*
X184484433Y-161218328D01*
X184484433Y-161218328D02*
X184991527Y-161573399D01*
X161265656Y-148420468D02*
X161375004Y-148523999D01*
X161375004Y-148523999D02*
X161590791Y-148624622D01*
X161590791Y-148624622D02*
X161697231Y-148621714D01*
X161697231Y-148621714D02*
X161760513Y-148598681D01*
X161760513Y-148598681D02*
X161843920Y-148532491D01*
X161843920Y-148532491D02*
X161884169Y-148446176D01*
X161884169Y-148446176D02*
X161881261Y-148339736D01*
X161881261Y-148339736D02*
X161858228Y-148276454D01*
X161858228Y-148276454D02*
X161792038Y-148193047D01*
X161792038Y-148193047D02*
X161639533Y-148069391D01*
X161639533Y-148069391D02*
X161573342Y-147985984D01*
X161573342Y-147985984D02*
X161550309Y-147922702D01*
X161550309Y-147922702D02*
X161547401Y-147816262D01*
X161547401Y-147816262D02*
X161587651Y-147729947D01*
X161587651Y-147729947D02*
X161671058Y-147663757D01*
X161671058Y-147663757D02*
X161734340Y-147640724D01*
X161734340Y-147640724D02*
X161840779Y-147637816D01*
X161840779Y-147637816D02*
X162056567Y-147738439D01*
X162056567Y-147738439D02*
X162165915Y-147841971D01*
X163006032Y-148181182D02*
X162574457Y-147979936D01*
X162574457Y-147979936D02*
X162330053Y-148391386D01*
X162330053Y-148391386D02*
X162393335Y-148368353D01*
X162393335Y-148368353D02*
X162499775Y-148365445D01*
X162499775Y-148365445D02*
X162715562Y-148466068D01*
X162715562Y-148466068D02*
X162781753Y-148549475D01*
X162781753Y-148549475D02*
X162804786Y-148612757D01*
X162804786Y-148612757D02*
X162807694Y-148719197D01*
X162807694Y-148719197D02*
X162707070Y-148934985D01*
X162707070Y-148934985D02*
X162623663Y-149001175D01*
X162623663Y-149001175D02*
X162560381Y-149024208D01*
X162560381Y-149024208D02*
X162453942Y-149027116D01*
X162453942Y-149027116D02*
X162238154Y-148926493D01*
X162238154Y-148926493D02*
X162171964Y-148843086D01*
X162171964Y-148843086D02*
X162148931Y-148779804D01*
X163489722Y-149510108D02*
X162971832Y-149268612D01*
X163230777Y-149389360D02*
X163653395Y-148483053D01*
X163653395Y-148483053D02*
X163506706Y-148572276D01*
X163506706Y-148572276D02*
X163380142Y-148618341D01*
X163380142Y-148618341D02*
X163273702Y-148621250D01*
X142154362Y-142530155D02*
X142280027Y-142613126D01*
X142280027Y-142613126D02*
X142510009Y-142674749D01*
X142510009Y-142674749D02*
X142614327Y-142653402D01*
X142614327Y-142653402D02*
X142672648Y-142619731D01*
X142672648Y-142619731D02*
X142743294Y-142540062D01*
X142743294Y-142540062D02*
X142767943Y-142448069D01*
X142767943Y-142448069D02*
X142746596Y-142343752D01*
X142746596Y-142343752D02*
X142712925Y-142285431D01*
X142712925Y-142285431D02*
X142633256Y-142214785D01*
X142633256Y-142214785D02*
X142461595Y-142119489D01*
X142461595Y-142119489D02*
X142381927Y-142048843D01*
X142381927Y-142048843D02*
X142348255Y-141990522D01*
X142348255Y-141990522D02*
X142326908Y-141886205D01*
X142326908Y-141886205D02*
X142351558Y-141794212D01*
X142351558Y-141794212D02*
X142422203Y-141714543D01*
X142422203Y-141714543D02*
X142480525Y-141680872D01*
X142480525Y-141680872D02*
X142584842Y-141659525D01*
X142584842Y-141659525D02*
X142814825Y-141721148D01*
X142814825Y-141721148D02*
X142940489Y-141804119D01*
X143826747Y-141992292D02*
X143366782Y-141869045D01*
X143366782Y-141869045D02*
X143197539Y-142316685D01*
X143197539Y-142316685D02*
X143255860Y-142283013D01*
X143255860Y-142283013D02*
X143360177Y-142261666D01*
X143360177Y-142261666D02*
X143590160Y-142323290D01*
X143590160Y-142323290D02*
X143669828Y-142393936D01*
X143669828Y-142393936D02*
X143703500Y-142452257D01*
X143703500Y-142452257D02*
X143724847Y-142556574D01*
X143724847Y-142556574D02*
X143663223Y-142786557D01*
X143663223Y-142786557D02*
X143592577Y-142866225D01*
X143592577Y-142866225D02*
X143534256Y-142899897D01*
X143534256Y-142899897D02*
X143429939Y-142921244D01*
X143429939Y-142921244D02*
X143199956Y-142859620D01*
X143199956Y-142859620D02*
X143120288Y-142788974D01*
X143120288Y-142788974D02*
X143086616Y-142730653D01*
X144470698Y-142164838D02*
X144562691Y-142189487D01*
X144562691Y-142189487D02*
X144642359Y-142260133D01*
X144642359Y-142260133D02*
X144676030Y-142318455D01*
X144676030Y-142318455D02*
X144697378Y-142422772D01*
X144697378Y-142422772D02*
X144694075Y-142619083D01*
X144694075Y-142619083D02*
X144632452Y-142849065D01*
X144632452Y-142849065D02*
X144537156Y-143020726D01*
X144537156Y-143020726D02*
X144466510Y-143100395D01*
X144466510Y-143100395D02*
X144408189Y-143134066D01*
X144408189Y-143134066D02*
X144303871Y-143155413D01*
X144303871Y-143155413D02*
X144211879Y-143130764D01*
X144211879Y-143130764D02*
X144132210Y-143060118D01*
X144132210Y-143060118D02*
X144098539Y-143001797D01*
X144098539Y-143001797D02*
X144077192Y-142897479D01*
X144077192Y-142897479D02*
X144080494Y-142701169D01*
X144080494Y-142701169D02*
X144142117Y-142471186D01*
X144142117Y-142471186D02*
X144237413Y-142299525D01*
X144237413Y-142299525D02*
X144308059Y-142219857D01*
X144308059Y-142219857D02*
X144366380Y-142186185D01*
X144366380Y-142186185D02*
X144470698Y-142164838D01*
X123753485Y-137599652D02*
X123879150Y-137682623D01*
X123879150Y-137682623D02*
X124109132Y-137744246D01*
X124109132Y-137744246D02*
X124213450Y-137722899D01*
X124213450Y-137722899D02*
X124271771Y-137689228D01*
X124271771Y-137689228D02*
X124342417Y-137609559D01*
X124342417Y-137609559D02*
X124367066Y-137517566D01*
X124367066Y-137517566D02*
X124345719Y-137413249D01*
X124345719Y-137413249D02*
X124312048Y-137354928D01*
X124312048Y-137354928D02*
X124232379Y-137284282D01*
X124232379Y-137284282D02*
X124060718Y-137188986D01*
X124060718Y-137188986D02*
X123981050Y-137118340D01*
X123981050Y-137118340D02*
X123947378Y-137060019D01*
X123947378Y-137060019D02*
X123926031Y-136955702D01*
X123926031Y-136955702D02*
X123950681Y-136863709D01*
X123950681Y-136863709D02*
X124021326Y-136784040D01*
X124021326Y-136784040D02*
X124079648Y-136750369D01*
X124079648Y-136750369D02*
X124183965Y-136729022D01*
X124183965Y-136729022D02*
X124413948Y-136790645D01*
X124413948Y-136790645D02*
X124539612Y-136873616D01*
X125293600Y-137371440D02*
X125121054Y-138015390D01*
X125162216Y-136941844D02*
X124747363Y-137570168D01*
X124747363Y-137570168D02*
X125345317Y-137730389D01*
X125673012Y-138163287D02*
X125856998Y-138212586D01*
X125856998Y-138212586D02*
X125961316Y-138191239D01*
X125961316Y-138191239D02*
X126019637Y-138157567D01*
X126019637Y-138157567D02*
X126148604Y-138044227D01*
X126148604Y-138044227D02*
X126243899Y-137872566D01*
X126243899Y-137872566D02*
X126342497Y-137504594D01*
X126342497Y-137504594D02*
X126321150Y-137400276D01*
X126321150Y-137400276D02*
X126287478Y-137341955D01*
X126287478Y-137341955D02*
X126207810Y-137271309D01*
X126207810Y-137271309D02*
X126023824Y-137222010D01*
X126023824Y-137222010D02*
X125919506Y-137243357D01*
X125919506Y-137243357D02*
X125861185Y-137277029D01*
X125861185Y-137277029D02*
X125790539Y-137356697D01*
X125790539Y-137356697D02*
X125728916Y-137586680D01*
X125728916Y-137586680D02*
X125750263Y-137690997D01*
X125750263Y-137690997D02*
X125783935Y-137749319D01*
X125783935Y-137749319D02*
X125863603Y-137819964D01*
X125863603Y-137819964D02*
X126047589Y-137869263D01*
X126047589Y-137869263D02*
X126151906Y-137847916D01*
X126151906Y-137847916D02*
X126210227Y-137814245D01*
X126210227Y-137814245D02*
X126280873Y-137734576D01*
X341265413Y-110671549D02*
X341415727Y-110680572D01*
X341415727Y-110680572D02*
X341645710Y-110618948D01*
X341645710Y-110618948D02*
X341725378Y-110548302D01*
X341725378Y-110548302D02*
X341759050Y-110489981D01*
X341759050Y-110489981D02*
X341780397Y-110385663D01*
X341780397Y-110385663D02*
X341755747Y-110293670D01*
X341755747Y-110293670D02*
X341685101Y-110214002D01*
X341685101Y-110214002D02*
X341626780Y-110180330D01*
X341626780Y-110180330D02*
X341522462Y-110158983D01*
X341522462Y-110158983D02*
X341326152Y-110162286D01*
X341326152Y-110162286D02*
X341221834Y-110140939D01*
X341221834Y-110140939D02*
X341163513Y-110107267D01*
X341163513Y-110107267D02*
X341092867Y-110027599D01*
X341092867Y-110027599D02*
X341068218Y-109935606D01*
X341068218Y-109935606D02*
X341089565Y-109831288D01*
X341089565Y-109831288D02*
X341123236Y-109772967D01*
X341123236Y-109772967D02*
X341202905Y-109702321D01*
X341202905Y-109702321D02*
X341432887Y-109640697D01*
X341432887Y-109640697D02*
X341583201Y-109649720D01*
X342485086Y-109703854D02*
X342657632Y-110347804D01*
X342156506Y-109397506D02*
X342111394Y-110149076D01*
X342111394Y-110149076D02*
X342709348Y-109988855D01*
X343153686Y-109623301D02*
X343049368Y-109601954D01*
X343049368Y-109601954D02*
X342991047Y-109568282D01*
X342991047Y-109568282D02*
X342920401Y-109488614D01*
X342920401Y-109488614D02*
X342908076Y-109442617D01*
X342908076Y-109442617D02*
X342929424Y-109338299D01*
X342929424Y-109338299D02*
X342963095Y-109279978D01*
X342963095Y-109279978D02*
X343042764Y-109209332D01*
X343042764Y-109209332D02*
X343226749Y-109160034D01*
X343226749Y-109160034D02*
X343331067Y-109181381D01*
X343331067Y-109181381D02*
X343389388Y-109215052D01*
X343389388Y-109215052D02*
X343460034Y-109294721D01*
X343460034Y-109294721D02*
X343472359Y-109340717D01*
X343472359Y-109340717D02*
X343451012Y-109445035D01*
X343451012Y-109445035D02*
X343417340Y-109503356D01*
X343417340Y-109503356D02*
X343337672Y-109574002D01*
X343337672Y-109574002D02*
X343153686Y-109623301D01*
X343153686Y-109623301D02*
X343074018Y-109693946D01*
X343074018Y-109693946D02*
X343040346Y-109752268D01*
X343040346Y-109752268D02*
X343018999Y-109856585D01*
X343018999Y-109856585D02*
X343068298Y-110040571D01*
X343068298Y-110040571D02*
X343138944Y-110120239D01*
X343138944Y-110120239D02*
X343197265Y-110153911D01*
X343197265Y-110153911D02*
X343301583Y-110175258D01*
X343301583Y-110175258D02*
X343485568Y-110125959D01*
X343485568Y-110125959D02*
X343565237Y-110055313D01*
X343565237Y-110055313D02*
X343598908Y-109996992D01*
X343598908Y-109996992D02*
X343620255Y-109892675D01*
X343620255Y-109892675D02*
X343570957Y-109708689D01*
X343570957Y-109708689D02*
X343500311Y-109629021D01*
X343500311Y-109629021D02*
X343441989Y-109595349D01*
X343441989Y-109595349D02*
X343337672Y-109574002D01*
X336334905Y-92270653D02*
X336485219Y-92279676D01*
X336485219Y-92279676D02*
X336715202Y-92218052D01*
X336715202Y-92218052D02*
X336794870Y-92147406D01*
X336794870Y-92147406D02*
X336828542Y-92089085D01*
X336828542Y-92089085D02*
X336849889Y-91984767D01*
X336849889Y-91984767D02*
X336825239Y-91892774D01*
X336825239Y-91892774D02*
X336754593Y-91813106D01*
X336754593Y-91813106D02*
X336696272Y-91779434D01*
X336696272Y-91779434D02*
X336591954Y-91758087D01*
X336591954Y-91758087D02*
X336395644Y-91761390D01*
X336395644Y-91761390D02*
X336291326Y-91740043D01*
X336291326Y-91740043D02*
X336233005Y-91706371D01*
X336233005Y-91706371D02*
X336162359Y-91626703D01*
X336162359Y-91626703D02*
X336137710Y-91534710D01*
X336137710Y-91534710D02*
X336159057Y-91430392D01*
X336159057Y-91430392D02*
X336192728Y-91372071D01*
X336192728Y-91372071D02*
X336272397Y-91301425D01*
X336272397Y-91301425D02*
X336502379Y-91239801D01*
X336502379Y-91239801D02*
X336652693Y-91248824D01*
X337554578Y-91302958D02*
X337727124Y-91946908D01*
X337225998Y-90996610D02*
X337180886Y-91748180D01*
X337180886Y-91748180D02*
X337778840Y-91587959D01*
X337882273Y-90870060D02*
X338526224Y-90697514D01*
X338526224Y-90697514D02*
X338371075Y-91774362D01*
X331404412Y-73869774D02*
X331554726Y-73878797D01*
X331554726Y-73878797D02*
X331784709Y-73817173D01*
X331784709Y-73817173D02*
X331864377Y-73746527D01*
X331864377Y-73746527D02*
X331898049Y-73688206D01*
X331898049Y-73688206D02*
X331919396Y-73583888D01*
X331919396Y-73583888D02*
X331894746Y-73491895D01*
X331894746Y-73491895D02*
X331824100Y-73412227D01*
X331824100Y-73412227D02*
X331765779Y-73378555D01*
X331765779Y-73378555D02*
X331661461Y-73357208D01*
X331661461Y-73357208D02*
X331465151Y-73360511D01*
X331465151Y-73360511D02*
X331360833Y-73339164D01*
X331360833Y-73339164D02*
X331302512Y-73305492D01*
X331302512Y-73305492D02*
X331231866Y-73225824D01*
X331231866Y-73225824D02*
X331207217Y-73133831D01*
X331207217Y-73133831D02*
X331228564Y-73029513D01*
X331228564Y-73029513D02*
X331262235Y-72971192D01*
X331262235Y-72971192D02*
X331341904Y-72900546D01*
X331341904Y-72900546D02*
X331571886Y-72838922D01*
X331571886Y-72838922D02*
X331722200Y-72847945D01*
X332624085Y-72902079D02*
X332796631Y-73546029D01*
X332295505Y-72595731D02*
X332250393Y-73347301D01*
X332250393Y-73347301D02*
X332848347Y-73187080D01*
X333457741Y-72333609D02*
X333273755Y-72382908D01*
X333273755Y-72382908D02*
X333194087Y-72453554D01*
X333194087Y-72453554D02*
X333160415Y-72511875D01*
X333160415Y-72511875D02*
X333105397Y-72674514D01*
X333105397Y-72674514D02*
X333108699Y-72870824D01*
X333108699Y-72870824D02*
X333207297Y-73238796D01*
X333207297Y-73238796D02*
X333277943Y-73318464D01*
X333277943Y-73318464D02*
X333336264Y-73352136D01*
X333336264Y-73352136D02*
X333440582Y-73373483D01*
X333440582Y-73373483D02*
X333624567Y-73324184D01*
X333624567Y-73324184D02*
X333704236Y-73253538D01*
X333704236Y-73253538D02*
X333737907Y-73195217D01*
X333737907Y-73195217D02*
X333759254Y-73090900D01*
X333759254Y-73090900D02*
X333697631Y-72860917D01*
X333697631Y-72860917D02*
X333626985Y-72781249D01*
X333626985Y-72781249D02*
X333568664Y-72747577D01*
X333568664Y-72747577D02*
X333464346Y-72726230D01*
X333464346Y-72726230D02*
X333280360Y-72775529D01*
X333280360Y-72775529D02*
X333200692Y-72846175D01*
X333200692Y-72846175D02*
X333167020Y-72904496D01*
X333167020Y-72904496D02*
X333145673Y-73008814D01*
X326473902Y-55468891D02*
X326624216Y-55477914D01*
X326624216Y-55477914D02*
X326854199Y-55416290D01*
X326854199Y-55416290D02*
X326933867Y-55345644D01*
X326933867Y-55345644D02*
X326967539Y-55287323D01*
X326967539Y-55287323D02*
X326988886Y-55183005D01*
X326988886Y-55183005D02*
X326964236Y-55091012D01*
X326964236Y-55091012D02*
X326893590Y-55011344D01*
X326893590Y-55011344D02*
X326835269Y-54977672D01*
X326835269Y-54977672D02*
X326730951Y-54956325D01*
X326730951Y-54956325D02*
X326534641Y-54959628D01*
X326534641Y-54959628D02*
X326430323Y-54938281D01*
X326430323Y-54938281D02*
X326372002Y-54904609D01*
X326372002Y-54904609D02*
X326301356Y-54824941D01*
X326301356Y-54824941D02*
X326276707Y-54732948D01*
X326276707Y-54732948D02*
X326298054Y-54628630D01*
X326298054Y-54628630D02*
X326331725Y-54570309D01*
X326331725Y-54570309D02*
X326411394Y-54499663D01*
X326411394Y-54499663D02*
X326641376Y-54438039D01*
X326641376Y-54438039D02*
X326791690Y-54447062D01*
X327693575Y-54501196D02*
X327866121Y-55145146D01*
X327364995Y-54194848D02*
X327319883Y-54946418D01*
X327319883Y-54946418D02*
X327917837Y-54786197D01*
X328573228Y-53920401D02*
X328113263Y-54043649D01*
X328113263Y-54043649D02*
X328190514Y-54515938D01*
X328190514Y-54515938D02*
X328224186Y-54457617D01*
X328224186Y-54457617D02*
X328303854Y-54386971D01*
X328303854Y-54386971D02*
X328533836Y-54325347D01*
X328533836Y-54325347D02*
X328638154Y-54346694D01*
X328638154Y-54346694D02*
X328696475Y-54380366D01*
X328696475Y-54380366D02*
X328767121Y-54460034D01*
X328767121Y-54460034D02*
X328828744Y-54690017D01*
X328828744Y-54690017D02*
X328807397Y-54794334D01*
X328807397Y-54794334D02*
X328773726Y-54852655D01*
X328773726Y-54852655D02*
X328694057Y-54923301D01*
X328694057Y-54923301D02*
X328464075Y-54984925D01*
X328464075Y-54984925D02*
X328359757Y-54963578D01*
X328359757Y-54963578D02*
X328301436Y-54929906D01*
X322207122Y-113148595D02*
X322357436Y-113157618D01*
X322357436Y-113157618D02*
X322587419Y-113095994D01*
X322587419Y-113095994D02*
X322667087Y-113025348D01*
X322667087Y-113025348D02*
X322700759Y-112967027D01*
X322700759Y-112967027D02*
X322722106Y-112862709D01*
X322722106Y-112862709D02*
X322697456Y-112770716D01*
X322697456Y-112770716D02*
X322626810Y-112691048D01*
X322626810Y-112691048D02*
X322568489Y-112657376D01*
X322568489Y-112657376D02*
X322464171Y-112636029D01*
X322464171Y-112636029D02*
X322267861Y-112639332D01*
X322267861Y-112639332D02*
X322163543Y-112617985D01*
X322163543Y-112617985D02*
X322105222Y-112584313D01*
X322105222Y-112584313D02*
X322034576Y-112504645D01*
X322034576Y-112504645D02*
X322009927Y-112412652D01*
X322009927Y-112412652D02*
X322031274Y-112308334D01*
X322031274Y-112308334D02*
X322064945Y-112250013D01*
X322064945Y-112250013D02*
X322144614Y-112179367D01*
X322144614Y-112179367D02*
X322374596Y-112117743D01*
X322374596Y-112117743D02*
X322524910Y-112126766D01*
X323426795Y-112180900D02*
X323599341Y-112824850D01*
X323098215Y-111874552D02*
X323053103Y-112626122D01*
X323053103Y-112626122D02*
X323651057Y-112465901D01*
X324346724Y-111934405D02*
X324519270Y-112578356D01*
X324018144Y-111628057D02*
X323973033Y-112379628D01*
X323973033Y-112379628D02*
X324570987Y-112219406D01*
X317276619Y-94747717D02*
X317426933Y-94756740D01*
X317426933Y-94756740D02*
X317656916Y-94695116D01*
X317656916Y-94695116D02*
X317736584Y-94624470D01*
X317736584Y-94624470D02*
X317770256Y-94566149D01*
X317770256Y-94566149D02*
X317791603Y-94461831D01*
X317791603Y-94461831D02*
X317766953Y-94369838D01*
X317766953Y-94369838D02*
X317696307Y-94290170D01*
X317696307Y-94290170D02*
X317637986Y-94256498D01*
X317637986Y-94256498D02*
X317533668Y-94235151D01*
X317533668Y-94235151D02*
X317337358Y-94238454D01*
X317337358Y-94238454D02*
X317233040Y-94217107D01*
X317233040Y-94217107D02*
X317174719Y-94183435D01*
X317174719Y-94183435D02*
X317104073Y-94103767D01*
X317104073Y-94103767D02*
X317079424Y-94011774D01*
X317079424Y-94011774D02*
X317100771Y-93907456D01*
X317100771Y-93907456D02*
X317134442Y-93849135D01*
X317134442Y-93849135D02*
X317214111Y-93778489D01*
X317214111Y-93778489D02*
X317444093Y-93716865D01*
X317444093Y-93716865D02*
X317594407Y-93725888D01*
X318496292Y-93780022D02*
X318668838Y-94423972D01*
X318167712Y-93473674D02*
X318122600Y-94225244D01*
X318122600Y-94225244D02*
X318720554Y-94065023D01*
X318823987Y-93347124D02*
X319421941Y-93186903D01*
X319421941Y-93186903D02*
X319198564Y-93641147D01*
X319198564Y-93641147D02*
X319336553Y-93604173D01*
X319336553Y-93604173D02*
X319440871Y-93625520D01*
X319440871Y-93625520D02*
X319499192Y-93659192D01*
X319499192Y-93659192D02*
X319569838Y-93738860D01*
X319569838Y-93738860D02*
X319631461Y-93968843D01*
X319631461Y-93968843D02*
X319610114Y-94073160D01*
X319610114Y-94073160D02*
X319576443Y-94131481D01*
X319576443Y-94131481D02*
X319496774Y-94202127D01*
X319496774Y-94202127D02*
X319220796Y-94276076D01*
X319220796Y-94276076D02*
X319116478Y-94254729D01*
X319116478Y-94254729D02*
X319058157Y-94221057D01*
X312346117Y-76346824D02*
X312496431Y-76355847D01*
X312496431Y-76355847D02*
X312726414Y-76294223D01*
X312726414Y-76294223D02*
X312806082Y-76223577D01*
X312806082Y-76223577D02*
X312839754Y-76165256D01*
X312839754Y-76165256D02*
X312861101Y-76060938D01*
X312861101Y-76060938D02*
X312836451Y-75968945D01*
X312836451Y-75968945D02*
X312765805Y-75889277D01*
X312765805Y-75889277D02*
X312707484Y-75855605D01*
X312707484Y-75855605D02*
X312603166Y-75834258D01*
X312603166Y-75834258D02*
X312406856Y-75837561D01*
X312406856Y-75837561D02*
X312302538Y-75816214D01*
X312302538Y-75816214D02*
X312244217Y-75782542D01*
X312244217Y-75782542D02*
X312173571Y-75702874D01*
X312173571Y-75702874D02*
X312148922Y-75610881D01*
X312148922Y-75610881D02*
X312170269Y-75506563D01*
X312170269Y-75506563D02*
X312203940Y-75448242D01*
X312203940Y-75448242D02*
X312283609Y-75377596D01*
X312283609Y-75377596D02*
X312513591Y-75315972D01*
X312513591Y-75315972D02*
X312663905Y-75324995D01*
X313565790Y-75379129D02*
X313738336Y-76023079D01*
X313237210Y-75072781D02*
X313192098Y-75824351D01*
X313192098Y-75824351D02*
X313790052Y-75664130D01*
X313964131Y-75025899D02*
X313997803Y-74967578D01*
X313997803Y-74967578D02*
X314077471Y-74896932D01*
X314077471Y-74896932D02*
X314307453Y-74835309D01*
X314307453Y-74835309D02*
X314411771Y-74856656D01*
X314411771Y-74856656D02*
X314470092Y-74890327D01*
X314470092Y-74890327D02*
X314540738Y-74969996D01*
X314540738Y-74969996D02*
X314565388Y-75061988D01*
X314565388Y-75061988D02*
X314556365Y-75212303D01*
X314556365Y-75212303D02*
X314152304Y-75912157D01*
X314152304Y-75912157D02*
X314750258Y-75751935D01*
X307415608Y-57945935D02*
X307565922Y-57954958D01*
X307565922Y-57954958D02*
X307795905Y-57893334D01*
X307795905Y-57893334D02*
X307875573Y-57822688D01*
X307875573Y-57822688D02*
X307909245Y-57764367D01*
X307909245Y-57764367D02*
X307930592Y-57660049D01*
X307930592Y-57660049D02*
X307905942Y-57568056D01*
X307905942Y-57568056D02*
X307835296Y-57488388D01*
X307835296Y-57488388D02*
X307776975Y-57454716D01*
X307776975Y-57454716D02*
X307672657Y-57433369D01*
X307672657Y-57433369D02*
X307476347Y-57436672D01*
X307476347Y-57436672D02*
X307372029Y-57415325D01*
X307372029Y-57415325D02*
X307313708Y-57381653D01*
X307313708Y-57381653D02*
X307243062Y-57301985D01*
X307243062Y-57301985D02*
X307218413Y-57209992D01*
X307218413Y-57209992D02*
X307239760Y-57105674D01*
X307239760Y-57105674D02*
X307273431Y-57047353D01*
X307273431Y-57047353D02*
X307353100Y-56976707D01*
X307353100Y-56976707D02*
X307583082Y-56915083D01*
X307583082Y-56915083D02*
X307733396Y-56924106D01*
X308635281Y-56978240D02*
X308807827Y-57622190D01*
X308306701Y-56671892D02*
X308261589Y-57423462D01*
X308261589Y-57423462D02*
X308859543Y-57263241D01*
X309819749Y-57351046D02*
X309267792Y-57498943D01*
X309543770Y-57424995D02*
X309284951Y-56459069D01*
X309284951Y-56459069D02*
X309229933Y-56621708D01*
X309229933Y-56621708D02*
X309162589Y-56738350D01*
X309162589Y-56738350D02*
X309082921Y-56808996D01*
X303477535Y-116852374D02*
X303627849Y-116861397D01*
X303627849Y-116861397D02*
X303857832Y-116799773D01*
X303857832Y-116799773D02*
X303937500Y-116729127D01*
X303937500Y-116729127D02*
X303971172Y-116670806D01*
X303971172Y-116670806D02*
X303992519Y-116566488D01*
X303992519Y-116566488D02*
X303967869Y-116474495D01*
X303967869Y-116474495D02*
X303897223Y-116394827D01*
X303897223Y-116394827D02*
X303838902Y-116361155D01*
X303838902Y-116361155D02*
X303734584Y-116339808D01*
X303734584Y-116339808D02*
X303538274Y-116343111D01*
X303538274Y-116343111D02*
X303433956Y-116321764D01*
X303433956Y-116321764D02*
X303375635Y-116288092D01*
X303375635Y-116288092D02*
X303304989Y-116208424D01*
X303304989Y-116208424D02*
X303280340Y-116116431D01*
X303280340Y-116116431D02*
X303301687Y-116012113D01*
X303301687Y-116012113D02*
X303335358Y-115953792D01*
X303335358Y-115953792D02*
X303415027Y-115883146D01*
X303415027Y-115883146D02*
X303645009Y-115821522D01*
X303645009Y-115821522D02*
X303795323Y-115830545D01*
X304697208Y-115884679D02*
X304869754Y-116528629D01*
X304368628Y-115578331D02*
X304323516Y-116329901D01*
X304323516Y-116329901D02*
X304921470Y-116169680D01*
X305300882Y-115377833D02*
X305392875Y-115353183D01*
X305392875Y-115353183D02*
X305497193Y-115374530D01*
X305497193Y-115374530D02*
X305555514Y-115408202D01*
X305555514Y-115408202D02*
X305626160Y-115487870D01*
X305626160Y-115487870D02*
X305721455Y-115659531D01*
X305721455Y-115659531D02*
X305783079Y-115889514D01*
X305783079Y-115889514D02*
X305786381Y-116085824D01*
X305786381Y-116085824D02*
X305765034Y-116190142D01*
X305765034Y-116190142D02*
X305731362Y-116248463D01*
X305731362Y-116248463D02*
X305651694Y-116319109D01*
X305651694Y-116319109D02*
X305559701Y-116343758D01*
X305559701Y-116343758D02*
X305455383Y-116322411D01*
X305455383Y-116322411D02*
X305397062Y-116288740D01*
X305397062Y-116288740D02*
X305326416Y-116209071D01*
X305326416Y-116209071D02*
X305231121Y-116037410D01*
X305231121Y-116037410D02*
X305169497Y-115807428D01*
X305169497Y-115807428D02*
X305166195Y-115611117D01*
X305166195Y-115611117D02*
X305187542Y-115506800D01*
X305187542Y-115506800D02*
X305221214Y-115448479D01*
X305221214Y-115448479D02*
X305300882Y-115377833D01*
X298547040Y-98451481D02*
X298697354Y-98460504D01*
X298697354Y-98460504D02*
X298927337Y-98398880D01*
X298927337Y-98398880D02*
X299007005Y-98328234D01*
X299007005Y-98328234D02*
X299040677Y-98269913D01*
X299040677Y-98269913D02*
X299062024Y-98165595D01*
X299062024Y-98165595D02*
X299037374Y-98073602D01*
X299037374Y-98073602D02*
X298966728Y-97993934D01*
X298966728Y-97993934D02*
X298908407Y-97960262D01*
X298908407Y-97960262D02*
X298804089Y-97938915D01*
X298804089Y-97938915D02*
X298607779Y-97942218D01*
X298607779Y-97942218D02*
X298503461Y-97920871D01*
X298503461Y-97920871D02*
X298445140Y-97887199D01*
X298445140Y-97887199D02*
X298374494Y-97807531D01*
X298374494Y-97807531D02*
X298349845Y-97715538D01*
X298349845Y-97715538D02*
X298371192Y-97611220D01*
X298371192Y-97611220D02*
X298404863Y-97552899D01*
X298404863Y-97552899D02*
X298484532Y-97482253D01*
X298484532Y-97482253D02*
X298714514Y-97420629D01*
X298714514Y-97420629D02*
X298864828Y-97429652D01*
X299174479Y-97297382D02*
X299772433Y-97137161D01*
X299772433Y-97137161D02*
X299549055Y-97591406D01*
X299549055Y-97591406D02*
X299687045Y-97554432D01*
X299687045Y-97554432D02*
X299791362Y-97575779D01*
X299791362Y-97575779D02*
X299849684Y-97609450D01*
X299849684Y-97609450D02*
X299920329Y-97689119D01*
X299920329Y-97689119D02*
X299981953Y-97919101D01*
X299981953Y-97919101D02*
X299960606Y-98023419D01*
X299960606Y-98023419D02*
X299926934Y-98081740D01*
X299926934Y-98081740D02*
X299847266Y-98152386D01*
X299847266Y-98152386D02*
X299571287Y-98226334D01*
X299571287Y-98226334D02*
X299466970Y-98204987D01*
X299466970Y-98204987D02*
X299408648Y-98171315D01*
X300491217Y-97979840D02*
X300675202Y-97930541D01*
X300675202Y-97930541D02*
X300754871Y-97859895D01*
X300754871Y-97859895D02*
X300788542Y-97801574D01*
X300788542Y-97801574D02*
X300843561Y-97638935D01*
X300843561Y-97638935D02*
X300840259Y-97442624D01*
X300840259Y-97442624D02*
X300741661Y-97074653D01*
X300741661Y-97074653D02*
X300671015Y-96994984D01*
X300671015Y-96994984D02*
X300612694Y-96961313D01*
X300612694Y-96961313D02*
X300508376Y-96939966D01*
X300508376Y-96939966D02*
X300324391Y-96989264D01*
X300324391Y-96989264D02*
X300244722Y-97059910D01*
X300244722Y-97059910D02*
X300211051Y-97118231D01*
X300211051Y-97118231D02*
X300189703Y-97222549D01*
X300189703Y-97222549D02*
X300251327Y-97452531D01*
X300251327Y-97452531D02*
X300321973Y-97532200D01*
X300321973Y-97532200D02*
X300380294Y-97565871D01*
X300380294Y-97565871D02*
X300484612Y-97587218D01*
X300484612Y-97587218D02*
X300668598Y-97537920D01*
X300668598Y-97537920D02*
X300748266Y-97467274D01*
X300748266Y-97467274D02*
X300781938Y-97408953D01*
X300781938Y-97408953D02*
X300803285Y-97304635D01*
X293616534Y-80050596D02*
X293766848Y-80059619D01*
X293766848Y-80059619D02*
X293996831Y-79997995D01*
X293996831Y-79997995D02*
X294076499Y-79927349D01*
X294076499Y-79927349D02*
X294110171Y-79869028D01*
X294110171Y-79869028D02*
X294131518Y-79764710D01*
X294131518Y-79764710D02*
X294106868Y-79672717D01*
X294106868Y-79672717D02*
X294036222Y-79593049D01*
X294036222Y-79593049D02*
X293977901Y-79559377D01*
X293977901Y-79559377D02*
X293873583Y-79538030D01*
X293873583Y-79538030D02*
X293677273Y-79541333D01*
X293677273Y-79541333D02*
X293572955Y-79519986D01*
X293572955Y-79519986D02*
X293514634Y-79486314D01*
X293514634Y-79486314D02*
X293443988Y-79406646D01*
X293443988Y-79406646D02*
X293419339Y-79314653D01*
X293419339Y-79314653D02*
X293440686Y-79210335D01*
X293440686Y-79210335D02*
X293474357Y-79152014D01*
X293474357Y-79152014D02*
X293554026Y-79081368D01*
X293554026Y-79081368D02*
X293784008Y-79019744D01*
X293784008Y-79019744D02*
X293934322Y-79028767D01*
X294243973Y-78896497D02*
X294841927Y-78736276D01*
X294841927Y-78736276D02*
X294618549Y-79190521D01*
X294618549Y-79190521D02*
X294756539Y-79153547D01*
X294756539Y-79153547D02*
X294860856Y-79174894D01*
X294860856Y-79174894D02*
X294919178Y-79208565D01*
X294919178Y-79208565D02*
X294989823Y-79288234D01*
X294989823Y-79288234D02*
X295051447Y-79518216D01*
X295051447Y-79518216D02*
X295030100Y-79622534D01*
X295030100Y-79622534D02*
X294996428Y-79680855D01*
X294996428Y-79680855D02*
X294916760Y-79751501D01*
X294916760Y-79751501D02*
X294640781Y-79825449D01*
X294640781Y-79825449D02*
X294536464Y-79804102D01*
X294536464Y-79804102D02*
X294478142Y-79770430D01*
X295504807Y-79002348D02*
X295400489Y-78981001D01*
X295400489Y-78981001D02*
X295342168Y-78947329D01*
X295342168Y-78947329D02*
X295271522Y-78867661D01*
X295271522Y-78867661D02*
X295259197Y-78821664D01*
X295259197Y-78821664D02*
X295280545Y-78717346D01*
X295280545Y-78717346D02*
X295314216Y-78659025D01*
X295314216Y-78659025D02*
X295393885Y-78588379D01*
X295393885Y-78588379D02*
X295577870Y-78539081D01*
X295577870Y-78539081D02*
X295682188Y-78560428D01*
X295682188Y-78560428D02*
X295740509Y-78594099D01*
X295740509Y-78594099D02*
X295811155Y-78673768D01*
X295811155Y-78673768D02*
X295823480Y-78719764D01*
X295823480Y-78719764D02*
X295802133Y-78824082D01*
X295802133Y-78824082D02*
X295768461Y-78882403D01*
X295768461Y-78882403D02*
X295688793Y-78953049D01*
X295688793Y-78953049D02*
X295504807Y-79002348D01*
X295504807Y-79002348D02*
X295425139Y-79072993D01*
X295425139Y-79072993D02*
X295391467Y-79131315D01*
X295391467Y-79131315D02*
X295370120Y-79235632D01*
X295370120Y-79235632D02*
X295419419Y-79419618D01*
X295419419Y-79419618D02*
X295490065Y-79499286D01*
X295490065Y-79499286D02*
X295548386Y-79532958D01*
X295548386Y-79532958D02*
X295652704Y-79554305D01*
X295652704Y-79554305D02*
X295836689Y-79505006D01*
X295836689Y-79505006D02*
X295916358Y-79434360D01*
X295916358Y-79434360D02*
X295950029Y-79376039D01*
X295950029Y-79376039D02*
X295971376Y-79271722D01*
X295971376Y-79271722D02*
X295922078Y-79087736D01*
X295922078Y-79087736D02*
X295851432Y-79008068D01*
X295851432Y-79008068D02*
X295793110Y-78974396D01*
X295793110Y-78974396D02*
X295688793Y-78953049D01*
X288686026Y-61649717D02*
X288836340Y-61658740D01*
X288836340Y-61658740D02*
X289066323Y-61597116D01*
X289066323Y-61597116D02*
X289145991Y-61526470D01*
X289145991Y-61526470D02*
X289179663Y-61468149D01*
X289179663Y-61468149D02*
X289201010Y-61363831D01*
X289201010Y-61363831D02*
X289176360Y-61271838D01*
X289176360Y-61271838D02*
X289105714Y-61192170D01*
X289105714Y-61192170D02*
X289047393Y-61158498D01*
X289047393Y-61158498D02*
X288943075Y-61137151D01*
X288943075Y-61137151D02*
X288746765Y-61140454D01*
X288746765Y-61140454D02*
X288642447Y-61119107D01*
X288642447Y-61119107D02*
X288584126Y-61085435D01*
X288584126Y-61085435D02*
X288513480Y-61005767D01*
X288513480Y-61005767D02*
X288488831Y-60913774D01*
X288488831Y-60913774D02*
X288510178Y-60809456D01*
X288510178Y-60809456D02*
X288543849Y-60751135D01*
X288543849Y-60751135D02*
X288623518Y-60680489D01*
X288623518Y-60680489D02*
X288853500Y-60618865D01*
X288853500Y-60618865D02*
X289003814Y-60627888D01*
X289313465Y-60495618D02*
X289911419Y-60335397D01*
X289911419Y-60335397D02*
X289688041Y-60789642D01*
X289688041Y-60789642D02*
X289826031Y-60752668D01*
X289826031Y-60752668D02*
X289930348Y-60774015D01*
X289930348Y-60774015D02*
X289988670Y-60807686D01*
X289988670Y-60807686D02*
X290059315Y-60887355D01*
X290059315Y-60887355D02*
X290120939Y-61117337D01*
X290120939Y-61117337D02*
X290099592Y-61221655D01*
X290099592Y-61221655D02*
X290065920Y-61279976D01*
X290065920Y-61279976D02*
X289986252Y-61350622D01*
X289986252Y-61350622D02*
X289710273Y-61424570D01*
X289710273Y-61424570D02*
X289605956Y-61403223D01*
X289605956Y-61403223D02*
X289547634Y-61369551D01*
X290233394Y-60249124D02*
X290877345Y-60076578D01*
X290877345Y-60076578D02*
X290722196Y-61153426D01*
X284747957Y-120556150D02*
X284898271Y-120565173D01*
X284898271Y-120565173D02*
X285128254Y-120503549D01*
X285128254Y-120503549D02*
X285207922Y-120432903D01*
X285207922Y-120432903D02*
X285241594Y-120374582D01*
X285241594Y-120374582D02*
X285262941Y-120270264D01*
X285262941Y-120270264D02*
X285238291Y-120178271D01*
X285238291Y-120178271D02*
X285167645Y-120098603D01*
X285167645Y-120098603D02*
X285109324Y-120064931D01*
X285109324Y-120064931D02*
X285005006Y-120043584D01*
X285005006Y-120043584D02*
X284808696Y-120046887D01*
X284808696Y-120046887D02*
X284704378Y-120025540D01*
X284704378Y-120025540D02*
X284646057Y-119991868D01*
X284646057Y-119991868D02*
X284575411Y-119912200D01*
X284575411Y-119912200D02*
X284550762Y-119820207D01*
X284550762Y-119820207D02*
X284572109Y-119715889D01*
X284572109Y-119715889D02*
X284605780Y-119657568D01*
X284605780Y-119657568D02*
X284685449Y-119586922D01*
X284685449Y-119586922D02*
X284915431Y-119525298D01*
X284915431Y-119525298D02*
X285065745Y-119534321D01*
X285375396Y-119402051D02*
X285973350Y-119241830D01*
X285973350Y-119241830D02*
X285749972Y-119696075D01*
X285749972Y-119696075D02*
X285887962Y-119659101D01*
X285887962Y-119659101D02*
X285992279Y-119680448D01*
X285992279Y-119680448D02*
X286050601Y-119714119D01*
X286050601Y-119714119D02*
X286121246Y-119793788D01*
X286121246Y-119793788D02*
X286182870Y-120023770D01*
X286182870Y-120023770D02*
X286161523Y-120128088D01*
X286161523Y-120128088D02*
X286127851Y-120186409D01*
X286127851Y-120186409D02*
X286048183Y-120257055D01*
X286048183Y-120257055D02*
X285772204Y-120331003D01*
X285772204Y-120331003D02*
X285667887Y-120309656D01*
X285667887Y-120309656D02*
X285609565Y-120275984D01*
X286801286Y-119019985D02*
X286617300Y-119069284D01*
X286617300Y-119069284D02*
X286537632Y-119139930D01*
X286537632Y-119139930D02*
X286503960Y-119198251D01*
X286503960Y-119198251D02*
X286448942Y-119360890D01*
X286448942Y-119360890D02*
X286452244Y-119557200D01*
X286452244Y-119557200D02*
X286550842Y-119925172D01*
X286550842Y-119925172D02*
X286621488Y-120004840D01*
X286621488Y-120004840D02*
X286679809Y-120038512D01*
X286679809Y-120038512D02*
X286784127Y-120059859D01*
X286784127Y-120059859D02*
X286968112Y-120010560D01*
X286968112Y-120010560D02*
X287047781Y-119939914D01*
X287047781Y-119939914D02*
X287081452Y-119881593D01*
X287081452Y-119881593D02*
X287102799Y-119777276D01*
X287102799Y-119777276D02*
X287041176Y-119547293D01*
X287041176Y-119547293D02*
X286970530Y-119467625D01*
X286970530Y-119467625D02*
X286912209Y-119433953D01*
X286912209Y-119433953D02*
X286807891Y-119412606D01*
X286807891Y-119412606D02*
X286623905Y-119461905D01*
X286623905Y-119461905D02*
X286544237Y-119532551D01*
X286544237Y-119532551D02*
X286510565Y-119590872D01*
X286510565Y-119590872D02*
X286489218Y-119695190D01*
X279817455Y-102155264D02*
X279967769Y-102164287D01*
X279967769Y-102164287D02*
X280197752Y-102102663D01*
X280197752Y-102102663D02*
X280277420Y-102032017D01*
X280277420Y-102032017D02*
X280311092Y-101973696D01*
X280311092Y-101973696D02*
X280332439Y-101869378D01*
X280332439Y-101869378D02*
X280307789Y-101777385D01*
X280307789Y-101777385D02*
X280237143Y-101697717D01*
X280237143Y-101697717D02*
X280178822Y-101664045D01*
X280178822Y-101664045D02*
X280074504Y-101642698D01*
X280074504Y-101642698D02*
X279878194Y-101646001D01*
X279878194Y-101646001D02*
X279773876Y-101624654D01*
X279773876Y-101624654D02*
X279715555Y-101590982D01*
X279715555Y-101590982D02*
X279644909Y-101511314D01*
X279644909Y-101511314D02*
X279620260Y-101419321D01*
X279620260Y-101419321D02*
X279641607Y-101315003D01*
X279641607Y-101315003D02*
X279675278Y-101256682D01*
X279675278Y-101256682D02*
X279754947Y-101186036D01*
X279754947Y-101186036D02*
X279984929Y-101124412D01*
X279984929Y-101124412D02*
X280135243Y-101133435D01*
X280444894Y-101001165D02*
X281042848Y-100840944D01*
X281042848Y-100840944D02*
X280819470Y-101295189D01*
X280819470Y-101295189D02*
X280957460Y-101258215D01*
X280957460Y-101258215D02*
X281061777Y-101279562D01*
X281061777Y-101279562D02*
X281120099Y-101313233D01*
X281120099Y-101313233D02*
X281190744Y-101392902D01*
X281190744Y-101392902D02*
X281252368Y-101622884D01*
X281252368Y-101622884D02*
X281231021Y-101727202D01*
X281231021Y-101727202D02*
X281197349Y-101785523D01*
X281197349Y-101785523D02*
X281117681Y-101856169D01*
X281117681Y-101856169D02*
X280841702Y-101930117D01*
X280841702Y-101930117D02*
X280737385Y-101908770D01*
X280737385Y-101908770D02*
X280679063Y-101875098D01*
X281916781Y-100606774D02*
X281456816Y-100730022D01*
X281456816Y-100730022D02*
X281534067Y-101202311D01*
X281534067Y-101202311D02*
X281567739Y-101143990D01*
X281567739Y-101143990D02*
X281647407Y-101073344D01*
X281647407Y-101073344D02*
X281877389Y-101011720D01*
X281877389Y-101011720D02*
X281981707Y-101033067D01*
X281981707Y-101033067D02*
X282040028Y-101066739D01*
X282040028Y-101066739D02*
X282110674Y-101146407D01*
X282110674Y-101146407D02*
X282172297Y-101376390D01*
X282172297Y-101376390D02*
X282150950Y-101480707D01*
X282150950Y-101480707D02*
X282117279Y-101539028D01*
X282117279Y-101539028D02*
X282037610Y-101609674D01*
X282037610Y-101609674D02*
X281807628Y-101671298D01*
X281807628Y-101671298D02*
X281703310Y-101649951D01*
X281703310Y-101649951D02*
X281644989Y-101616279D01*
X274886945Y-83754380D02*
X275037259Y-83763403D01*
X275037259Y-83763403D02*
X275267242Y-83701779D01*
X275267242Y-83701779D02*
X275346910Y-83631133D01*
X275346910Y-83631133D02*
X275380582Y-83572812D01*
X275380582Y-83572812D02*
X275401929Y-83468494D01*
X275401929Y-83468494D02*
X275377279Y-83376501D01*
X275377279Y-83376501D02*
X275306633Y-83296833D01*
X275306633Y-83296833D02*
X275248312Y-83263161D01*
X275248312Y-83263161D02*
X275143994Y-83241814D01*
X275143994Y-83241814D02*
X274947684Y-83245117D01*
X274947684Y-83245117D02*
X274843366Y-83223770D01*
X274843366Y-83223770D02*
X274785045Y-83190098D01*
X274785045Y-83190098D02*
X274714399Y-83110430D01*
X274714399Y-83110430D02*
X274689750Y-83018437D01*
X274689750Y-83018437D02*
X274711097Y-82914119D01*
X274711097Y-82914119D02*
X274744768Y-82855798D01*
X274744768Y-82855798D02*
X274824437Y-82785152D01*
X274824437Y-82785152D02*
X275054419Y-82723528D01*
X275054419Y-82723528D02*
X275204733Y-82732551D01*
X275514384Y-82600281D02*
X276112338Y-82440060D01*
X276112338Y-82440060D02*
X275888960Y-82894305D01*
X275888960Y-82894305D02*
X276026950Y-82857331D01*
X276026950Y-82857331D02*
X276131267Y-82878678D01*
X276131267Y-82878678D02*
X276189589Y-82912349D01*
X276189589Y-82912349D02*
X276260234Y-82992018D01*
X276260234Y-82992018D02*
X276321858Y-83222000D01*
X276321858Y-83222000D02*
X276300511Y-83326318D01*
X276300511Y-83326318D02*
X276266839Y-83384639D01*
X276266839Y-83384639D02*
X276187171Y-83455285D01*
X276187171Y-83455285D02*
X275911192Y-83529233D01*
X275911192Y-83529233D02*
X275806875Y-83507886D01*
X275806875Y-83507886D02*
X275748553Y-83474214D01*
X277026547Y-82540190D02*
X277199093Y-83184141D01*
X276697967Y-82233842D02*
X276652856Y-82985413D01*
X276652856Y-82985413D02*
X277250810Y-82825191D01*
X269956445Y-65353489D02*
X270106759Y-65362512D01*
X270106759Y-65362512D02*
X270336742Y-65300888D01*
X270336742Y-65300888D02*
X270416410Y-65230242D01*
X270416410Y-65230242D02*
X270450082Y-65171921D01*
X270450082Y-65171921D02*
X270471429Y-65067603D01*
X270471429Y-65067603D02*
X270446779Y-64975610D01*
X270446779Y-64975610D02*
X270376133Y-64895942D01*
X270376133Y-64895942D02*
X270317812Y-64862270D01*
X270317812Y-64862270D02*
X270213494Y-64840923D01*
X270213494Y-64840923D02*
X270017184Y-64844226D01*
X270017184Y-64844226D02*
X269912866Y-64822879D01*
X269912866Y-64822879D02*
X269854545Y-64789207D01*
X269854545Y-64789207D02*
X269783899Y-64709539D01*
X269783899Y-64709539D02*
X269759250Y-64617546D01*
X269759250Y-64617546D02*
X269780597Y-64513228D01*
X269780597Y-64513228D02*
X269814268Y-64454907D01*
X269814268Y-64454907D02*
X269893937Y-64384261D01*
X269893937Y-64384261D02*
X270123919Y-64322637D01*
X270123919Y-64322637D02*
X270274233Y-64331660D01*
X270583884Y-64199390D02*
X271181838Y-64039169D01*
X271181838Y-64039169D02*
X270958460Y-64493414D01*
X270958460Y-64493414D02*
X271096450Y-64456440D01*
X271096450Y-64456440D02*
X271200767Y-64477787D01*
X271200767Y-64477787D02*
X271259089Y-64511458D01*
X271259089Y-64511458D02*
X271329734Y-64591127D01*
X271329734Y-64591127D02*
X271391358Y-64821109D01*
X271391358Y-64821109D02*
X271370011Y-64925427D01*
X271370011Y-64925427D02*
X271336339Y-64983748D01*
X271336339Y-64983748D02*
X271256671Y-65054394D01*
X271256671Y-65054394D02*
X270980692Y-65128342D01*
X270980692Y-65128342D02*
X270876375Y-65106995D01*
X270876375Y-65106995D02*
X270818053Y-65073323D01*
X271503813Y-63952896D02*
X272101767Y-63792675D01*
X272101767Y-63792675D02*
X271878390Y-64246919D01*
X271878390Y-64246919D02*
X272016379Y-64209945D01*
X272016379Y-64209945D02*
X272120697Y-64231292D01*
X272120697Y-64231292D02*
X272179018Y-64264964D01*
X272179018Y-64264964D02*
X272249664Y-64344632D01*
X272249664Y-64344632D02*
X272311287Y-64574615D01*
X272311287Y-64574615D02*
X272289940Y-64678932D01*
X272289940Y-64678932D02*
X272256269Y-64737253D01*
X272256269Y-64737253D02*
X272176600Y-64807899D01*
X272176600Y-64807899D02*
X271900622Y-64881848D01*
X271900622Y-64881848D02*
X271796304Y-64860501D01*
X271796304Y-64860501D02*
X271737983Y-64826829D01*
X267497520Y-129780188D02*
X267647834Y-129789211D01*
X267647834Y-129789211D02*
X267877817Y-129727587D01*
X267877817Y-129727587D02*
X267957485Y-129656941D01*
X267957485Y-129656941D02*
X267991157Y-129598620D01*
X267991157Y-129598620D02*
X268012504Y-129494302D01*
X268012504Y-129494302D02*
X267987854Y-129402309D01*
X267987854Y-129402309D02*
X267917208Y-129322641D01*
X267917208Y-129322641D02*
X267858887Y-129288969D01*
X267858887Y-129288969D02*
X267754569Y-129267622D01*
X267754569Y-129267622D02*
X267558259Y-129270925D01*
X267558259Y-129270925D02*
X267453941Y-129249578D01*
X267453941Y-129249578D02*
X267395620Y-129215906D01*
X267395620Y-129215906D02*
X267324974Y-129136238D01*
X267324974Y-129136238D02*
X267300325Y-129044245D01*
X267300325Y-129044245D02*
X267321672Y-128939927D01*
X267321672Y-128939927D02*
X267355343Y-128881606D01*
X267355343Y-128881606D02*
X267435012Y-128810960D01*
X267435012Y-128810960D02*
X267664994Y-128749336D01*
X267664994Y-128749336D02*
X267815308Y-128758359D01*
X268124959Y-128626089D02*
X268722913Y-128465868D01*
X268722913Y-128465868D02*
X268499535Y-128920113D01*
X268499535Y-128920113D02*
X268637525Y-128883139D01*
X268637525Y-128883139D02*
X268741842Y-128904486D01*
X268741842Y-128904486D02*
X268800164Y-128938157D01*
X268800164Y-128938157D02*
X268870809Y-129017826D01*
X268870809Y-129017826D02*
X268932433Y-129247808D01*
X268932433Y-129247808D02*
X268911086Y-129352126D01*
X268911086Y-129352126D02*
X268877414Y-129410447D01*
X268877414Y-129410447D02*
X268797746Y-129481093D01*
X268797746Y-129481093D02*
X268521767Y-129555041D01*
X268521767Y-129555041D02*
X268417450Y-129533694D01*
X268417450Y-129533694D02*
X268359128Y-129500022D01*
X269115534Y-128459263D02*
X269149206Y-128400942D01*
X269149206Y-128400942D02*
X269228874Y-128330296D01*
X269228874Y-128330296D02*
X269458856Y-128268673D01*
X269458856Y-128268673D02*
X269563174Y-128290020D01*
X269563174Y-128290020D02*
X269621495Y-128323691D01*
X269621495Y-128323691D02*
X269692141Y-128403360D01*
X269692141Y-128403360D02*
X269716791Y-128495352D01*
X269716791Y-128495352D02*
X269707768Y-128645667D01*
X269707768Y-128645667D02*
X269303707Y-129345521D01*
X269303707Y-129345521D02*
X269901661Y-129185299D01*
X262567015Y-111379311D02*
X262717329Y-111388334D01*
X262717329Y-111388334D02*
X262947312Y-111326710D01*
X262947312Y-111326710D02*
X263026980Y-111256064D01*
X263026980Y-111256064D02*
X263060652Y-111197743D01*
X263060652Y-111197743D02*
X263081999Y-111093425D01*
X263081999Y-111093425D02*
X263057349Y-111001432D01*
X263057349Y-111001432D02*
X262986703Y-110921764D01*
X262986703Y-110921764D02*
X262928382Y-110888092D01*
X262928382Y-110888092D02*
X262824064Y-110866745D01*
X262824064Y-110866745D02*
X262627754Y-110870048D01*
X262627754Y-110870048D02*
X262523436Y-110848701D01*
X262523436Y-110848701D02*
X262465115Y-110815029D01*
X262465115Y-110815029D02*
X262394469Y-110735361D01*
X262394469Y-110735361D02*
X262369820Y-110643368D01*
X262369820Y-110643368D02*
X262391167Y-110539050D01*
X262391167Y-110539050D02*
X262424838Y-110480729D01*
X262424838Y-110480729D02*
X262504507Y-110410083D01*
X262504507Y-110410083D02*
X262734489Y-110348459D01*
X262734489Y-110348459D02*
X262884803Y-110357482D01*
X263194454Y-110225212D02*
X263792408Y-110064991D01*
X263792408Y-110064991D02*
X263569030Y-110519236D01*
X263569030Y-110519236D02*
X263707020Y-110482262D01*
X263707020Y-110482262D02*
X263811337Y-110503609D01*
X263811337Y-110503609D02*
X263869659Y-110537280D01*
X263869659Y-110537280D02*
X263940304Y-110616949D01*
X263940304Y-110616949D02*
X264001928Y-110846931D01*
X264001928Y-110846931D02*
X263980581Y-110951249D01*
X263980581Y-110951249D02*
X263946909Y-111009570D01*
X263946909Y-111009570D02*
X263867241Y-111080216D01*
X263867241Y-111080216D02*
X263591262Y-111154164D01*
X263591262Y-111154164D02*
X263486945Y-111132817D01*
X263486945Y-111132817D02*
X263428623Y-111099145D01*
X264971156Y-110784422D02*
X264419199Y-110932319D01*
X264695177Y-110858371D02*
X264436358Y-109892445D01*
X264436358Y-109892445D02*
X264381340Y-110055084D01*
X264381340Y-110055084D02*
X264313996Y-110171726D01*
X264313996Y-110171726D02*
X264234328Y-110242372D01*
X257636508Y-92978420D02*
X257786822Y-92987443D01*
X257786822Y-92987443D02*
X258016805Y-92925819D01*
X258016805Y-92925819D02*
X258096473Y-92855173D01*
X258096473Y-92855173D02*
X258130145Y-92796852D01*
X258130145Y-92796852D02*
X258151492Y-92692534D01*
X258151492Y-92692534D02*
X258126842Y-92600541D01*
X258126842Y-92600541D02*
X258056196Y-92520873D01*
X258056196Y-92520873D02*
X257997875Y-92487201D01*
X257997875Y-92487201D02*
X257893557Y-92465854D01*
X257893557Y-92465854D02*
X257697247Y-92469157D01*
X257697247Y-92469157D02*
X257592929Y-92447810D01*
X257592929Y-92447810D02*
X257534608Y-92414138D01*
X257534608Y-92414138D02*
X257463962Y-92334470D01*
X257463962Y-92334470D02*
X257439313Y-92242477D01*
X257439313Y-92242477D02*
X257460660Y-92138159D01*
X257460660Y-92138159D02*
X257494331Y-92079838D01*
X257494331Y-92079838D02*
X257574000Y-92009192D01*
X257574000Y-92009192D02*
X257803982Y-91947568D01*
X257803982Y-91947568D02*
X257954296Y-91956591D01*
X258263947Y-91824321D02*
X258861901Y-91664100D01*
X258861901Y-91664100D02*
X258638523Y-92118345D01*
X258638523Y-92118345D02*
X258776513Y-92081371D01*
X258776513Y-92081371D02*
X258880830Y-92102718D01*
X258880830Y-92102718D02*
X258939152Y-92136389D01*
X258939152Y-92136389D02*
X259009797Y-92216058D01*
X259009797Y-92216058D02*
X259071421Y-92446040D01*
X259071421Y-92446040D02*
X259050074Y-92550358D01*
X259050074Y-92550358D02*
X259016402Y-92608679D01*
X259016402Y-92608679D02*
X258936734Y-92679325D01*
X258936734Y-92679325D02*
X258660755Y-92753273D01*
X258660755Y-92753273D02*
X258556438Y-92731926D01*
X258556438Y-92731926D02*
X258498116Y-92698254D01*
X259459855Y-91503879D02*
X259551848Y-91479229D01*
X259551848Y-91479229D02*
X259656166Y-91500576D01*
X259656166Y-91500576D02*
X259714487Y-91534248D01*
X259714487Y-91534248D02*
X259785133Y-91613916D01*
X259785133Y-91613916D02*
X259880428Y-91785577D01*
X259880428Y-91785577D02*
X259942052Y-92015560D01*
X259942052Y-92015560D02*
X259945354Y-92211870D01*
X259945354Y-92211870D02*
X259924007Y-92316188D01*
X259924007Y-92316188D02*
X259890335Y-92374509D01*
X259890335Y-92374509D02*
X259810667Y-92445155D01*
X259810667Y-92445155D02*
X259718674Y-92469804D01*
X259718674Y-92469804D02*
X259614356Y-92448457D01*
X259614356Y-92448457D02*
X259556035Y-92414786D01*
X259556035Y-92414786D02*
X259485389Y-92335117D01*
X259485389Y-92335117D02*
X259390094Y-92163456D01*
X259390094Y-92163456D02*
X259328470Y-91933474D01*
X259328470Y-91933474D02*
X259325168Y-91737163D01*
X259325168Y-91737163D02*
X259346515Y-91632846D01*
X259346515Y-91632846D02*
X259380187Y-91574525D01*
X259380187Y-91574525D02*
X259459855Y-91503879D01*
X252706006Y-74577533D02*
X252856320Y-74586556D01*
X252856320Y-74586556D02*
X253086303Y-74524932D01*
X253086303Y-74524932D02*
X253165971Y-74454286D01*
X253165971Y-74454286D02*
X253199643Y-74395965D01*
X253199643Y-74395965D02*
X253220990Y-74291647D01*
X253220990Y-74291647D02*
X253196340Y-74199654D01*
X253196340Y-74199654D02*
X253125694Y-74119986D01*
X253125694Y-74119986D02*
X253067373Y-74086314D01*
X253067373Y-74086314D02*
X252963055Y-74064967D01*
X252963055Y-74064967D02*
X252766745Y-74068270D01*
X252766745Y-74068270D02*
X252662427Y-74046923D01*
X252662427Y-74046923D02*
X252604106Y-74013251D01*
X252604106Y-74013251D02*
X252533460Y-73933583D01*
X252533460Y-73933583D02*
X252508811Y-73841590D01*
X252508811Y-73841590D02*
X252530158Y-73737272D01*
X252530158Y-73737272D02*
X252563829Y-73678951D01*
X252563829Y-73678951D02*
X252643498Y-73608305D01*
X252643498Y-73608305D02*
X252873480Y-73546681D01*
X252873480Y-73546681D02*
X253023794Y-73555704D01*
X253404091Y-73503103D02*
X253437762Y-73444781D01*
X253437762Y-73444781D02*
X253517431Y-73374135D01*
X253517431Y-73374135D02*
X253747413Y-73312512D01*
X253747413Y-73312512D02*
X253851731Y-73333859D01*
X253851731Y-73333859D02*
X253910052Y-73367531D01*
X253910052Y-73367531D02*
X253980698Y-73447199D01*
X253980698Y-73447199D02*
X254005347Y-73539192D01*
X254005347Y-73539192D02*
X253996325Y-73689506D01*
X253996325Y-73689506D02*
X253592264Y-74389360D01*
X253592264Y-74389360D02*
X254190218Y-74229139D01*
X254650183Y-74105892D02*
X254834168Y-74056593D01*
X254834168Y-74056593D02*
X254913837Y-73985947D01*
X254913837Y-73985947D02*
X254947508Y-73927626D01*
X254947508Y-73927626D02*
X255002527Y-73764987D01*
X255002527Y-73764987D02*
X254999225Y-73568676D01*
X254999225Y-73568676D02*
X254900627Y-73200705D01*
X254900627Y-73200705D02*
X254829981Y-73121036D01*
X254829981Y-73121036D02*
X254771660Y-73087365D01*
X254771660Y-73087365D02*
X254667342Y-73066018D01*
X254667342Y-73066018D02*
X254483357Y-73115316D01*
X254483357Y-73115316D02*
X254403688Y-73185962D01*
X254403688Y-73185962D02*
X254370017Y-73244283D01*
X254370017Y-73244283D02*
X254348669Y-73348601D01*
X254348669Y-73348601D02*
X254410293Y-73578583D01*
X254410293Y-73578583D02*
X254480939Y-73658252D01*
X254480939Y-73658252D02*
X254539260Y-73691923D01*
X254539260Y-73691923D02*
X254643578Y-73713270D01*
X254643578Y-73713270D02*
X254827564Y-73663972D01*
X254827564Y-73663972D02*
X254907232Y-73593326D01*
X254907232Y-73593326D02*
X254940904Y-73535005D01*
X254940904Y-73535005D02*
X254962251Y-73430687D01*
X249096619Y-134710702D02*
X249246933Y-134719725D01*
X249246933Y-134719725D02*
X249476916Y-134658101D01*
X249476916Y-134658101D02*
X249556584Y-134587455D01*
X249556584Y-134587455D02*
X249590256Y-134529134D01*
X249590256Y-134529134D02*
X249611603Y-134424816D01*
X249611603Y-134424816D02*
X249586953Y-134332823D01*
X249586953Y-134332823D02*
X249516307Y-134253155D01*
X249516307Y-134253155D02*
X249457986Y-134219483D01*
X249457986Y-134219483D02*
X249353668Y-134198136D01*
X249353668Y-134198136D02*
X249157358Y-134201439D01*
X249157358Y-134201439D02*
X249053040Y-134180092D01*
X249053040Y-134180092D02*
X248994719Y-134146420D01*
X248994719Y-134146420D02*
X248924073Y-134066752D01*
X248924073Y-134066752D02*
X248899424Y-133974759D01*
X248899424Y-133974759D02*
X248920771Y-133870441D01*
X248920771Y-133870441D02*
X248954442Y-133812120D01*
X248954442Y-133812120D02*
X249034111Y-133741474D01*
X249034111Y-133741474D02*
X249264093Y-133679850D01*
X249264093Y-133679850D02*
X249414407Y-133688873D01*
X249794704Y-133636272D02*
X249828375Y-133577950D01*
X249828375Y-133577950D02*
X249908044Y-133507304D01*
X249908044Y-133507304D02*
X250138026Y-133445681D01*
X250138026Y-133445681D02*
X250242344Y-133467028D01*
X250242344Y-133467028D02*
X250300665Y-133500700D01*
X250300665Y-133500700D02*
X250371311Y-133580368D01*
X250371311Y-133580368D02*
X250395960Y-133672361D01*
X250395960Y-133672361D02*
X250386938Y-133822675D01*
X250386938Y-133822675D02*
X249982877Y-134522529D01*
X249982877Y-134522529D02*
X250580831Y-134362308D01*
X250984892Y-133662454D02*
X250880574Y-133641107D01*
X250880574Y-133641107D02*
X250822253Y-133607435D01*
X250822253Y-133607435D02*
X250751607Y-133527767D01*
X250751607Y-133527767D02*
X250739282Y-133481770D01*
X250739282Y-133481770D02*
X250760630Y-133377452D01*
X250760630Y-133377452D02*
X250794301Y-133319131D01*
X250794301Y-133319131D02*
X250873970Y-133248485D01*
X250873970Y-133248485D02*
X251057955Y-133199187D01*
X251057955Y-133199187D02*
X251162273Y-133220534D01*
X251162273Y-133220534D02*
X251220594Y-133254205D01*
X251220594Y-133254205D02*
X251291240Y-133333874D01*
X251291240Y-133333874D02*
X251303565Y-133379870D01*
X251303565Y-133379870D02*
X251282218Y-133484188D01*
X251282218Y-133484188D02*
X251248546Y-133542509D01*
X251248546Y-133542509D02*
X251168878Y-133613155D01*
X251168878Y-133613155D02*
X250984892Y-133662454D01*
X250984892Y-133662454D02*
X250905224Y-133733099D01*
X250905224Y-133733099D02*
X250871552Y-133791421D01*
X250871552Y-133791421D02*
X250850205Y-133895738D01*
X250850205Y-133895738D02*
X250899504Y-134079724D01*
X250899504Y-134079724D02*
X250970150Y-134159392D01*
X250970150Y-134159392D02*
X251028471Y-134193064D01*
X251028471Y-134193064D02*
X251132789Y-134214411D01*
X251132789Y-134214411D02*
X251316774Y-134165112D01*
X251316774Y-134165112D02*
X251396443Y-134094466D01*
X251396443Y-134094466D02*
X251430114Y-134036145D01*
X251430114Y-134036145D02*
X251451461Y-133931828D01*
X251451461Y-133931828D02*
X251402163Y-133747842D01*
X251402163Y-133747842D02*
X251331517Y-133668174D01*
X251331517Y-133668174D02*
X251273195Y-133634502D01*
X251273195Y-133634502D02*
X251168878Y-133613155D01*
X244166116Y-116309809D02*
X244316430Y-116318832D01*
X244316430Y-116318832D02*
X244546413Y-116257208D01*
X244546413Y-116257208D02*
X244626081Y-116186562D01*
X244626081Y-116186562D02*
X244659753Y-116128241D01*
X244659753Y-116128241D02*
X244681100Y-116023923D01*
X244681100Y-116023923D02*
X244656450Y-115931930D01*
X244656450Y-115931930D02*
X244585804Y-115852262D01*
X244585804Y-115852262D02*
X244527483Y-115818590D01*
X244527483Y-115818590D02*
X244423165Y-115797243D01*
X244423165Y-115797243D02*
X244226855Y-115800546D01*
X244226855Y-115800546D02*
X244122537Y-115779199D01*
X244122537Y-115779199D02*
X244064216Y-115745527D01*
X244064216Y-115745527D02*
X243993570Y-115665859D01*
X243993570Y-115665859D02*
X243968921Y-115573866D01*
X243968921Y-115573866D02*
X243990268Y-115469548D01*
X243990268Y-115469548D02*
X244023939Y-115411227D01*
X244023939Y-115411227D02*
X244103608Y-115340581D01*
X244103608Y-115340581D02*
X244333590Y-115278957D01*
X244333590Y-115278957D02*
X244483904Y-115287980D01*
X244864201Y-115235379D02*
X244897872Y-115177057D01*
X244897872Y-115177057D02*
X244977541Y-115106411D01*
X244977541Y-115106411D02*
X245207523Y-115044788D01*
X245207523Y-115044788D02*
X245311841Y-115066135D01*
X245311841Y-115066135D02*
X245370162Y-115099807D01*
X245370162Y-115099807D02*
X245440808Y-115179475D01*
X245440808Y-115179475D02*
X245465457Y-115271468D01*
X245465457Y-115271468D02*
X245456435Y-115421782D01*
X245456435Y-115421782D02*
X245052374Y-116121636D01*
X245052374Y-116121636D02*
X245650328Y-115961415D01*
X245713484Y-114909216D02*
X246357435Y-114736670D01*
X246357435Y-114736670D02*
X246202286Y-115813518D01*
X239235618Y-97908921D02*
X239385932Y-97917944D01*
X239385932Y-97917944D02*
X239615915Y-97856320D01*
X239615915Y-97856320D02*
X239695583Y-97785674D01*
X239695583Y-97785674D02*
X239729255Y-97727353D01*
X239729255Y-97727353D02*
X239750602Y-97623035D01*
X239750602Y-97623035D02*
X239725952Y-97531042D01*
X239725952Y-97531042D02*
X239655306Y-97451374D01*
X239655306Y-97451374D02*
X239596985Y-97417702D01*
X239596985Y-97417702D02*
X239492667Y-97396355D01*
X239492667Y-97396355D02*
X239296357Y-97399658D01*
X239296357Y-97399658D02*
X239192039Y-97378311D01*
X239192039Y-97378311D02*
X239133718Y-97344639D01*
X239133718Y-97344639D02*
X239063072Y-97264971D01*
X239063072Y-97264971D02*
X239038423Y-97172978D01*
X239038423Y-97172978D02*
X239059770Y-97068660D01*
X239059770Y-97068660D02*
X239093441Y-97010339D01*
X239093441Y-97010339D02*
X239173110Y-96939693D01*
X239173110Y-96939693D02*
X239403092Y-96878069D01*
X239403092Y-96878069D02*
X239553406Y-96887092D01*
X239933703Y-96834491D02*
X239967374Y-96776169D01*
X239967374Y-96776169D02*
X240047043Y-96705523D01*
X240047043Y-96705523D02*
X240277025Y-96643900D01*
X240277025Y-96643900D02*
X240381343Y-96665247D01*
X240381343Y-96665247D02*
X240439664Y-96698919D01*
X240439664Y-96698919D02*
X240510310Y-96778587D01*
X240510310Y-96778587D02*
X240534959Y-96870580D01*
X240534959Y-96870580D02*
X240525937Y-97020894D01*
X240525937Y-97020894D02*
X240121876Y-97720748D01*
X240121876Y-97720748D02*
X240719830Y-97560527D01*
X241288947Y-96372756D02*
X241104961Y-96422055D01*
X241104961Y-96422055D02*
X241025293Y-96492701D01*
X241025293Y-96492701D02*
X240991621Y-96551022D01*
X240991621Y-96551022D02*
X240936603Y-96713661D01*
X240936603Y-96713661D02*
X240939905Y-96909971D01*
X240939905Y-96909971D02*
X241038503Y-97277943D01*
X241038503Y-97277943D02*
X241109149Y-97357611D01*
X241109149Y-97357611D02*
X241167470Y-97391283D01*
X241167470Y-97391283D02*
X241271788Y-97412630D01*
X241271788Y-97412630D02*
X241455773Y-97363331D01*
X241455773Y-97363331D02*
X241535442Y-97292685D01*
X241535442Y-97292685D02*
X241569113Y-97234364D01*
X241569113Y-97234364D02*
X241590460Y-97130047D01*
X241590460Y-97130047D02*
X241528837Y-96900064D01*
X241528837Y-96900064D02*
X241458191Y-96820396D01*
X241458191Y-96820396D02*
X241399870Y-96786724D01*
X241399870Y-96786724D02*
X241295552Y-96765377D01*
X241295552Y-96765377D02*
X241111566Y-96814676D01*
X241111566Y-96814676D02*
X241031898Y-96885322D01*
X241031898Y-96885322D02*
X240998226Y-96943643D01*
X240998226Y-96943643D02*
X240976879Y-97047961D01*
X234305112Y-79508036D02*
X234455426Y-79517059D01*
X234455426Y-79517059D02*
X234685409Y-79455435D01*
X234685409Y-79455435D02*
X234765077Y-79384789D01*
X234765077Y-79384789D02*
X234798749Y-79326468D01*
X234798749Y-79326468D02*
X234820096Y-79222150D01*
X234820096Y-79222150D02*
X234795446Y-79130157D01*
X234795446Y-79130157D02*
X234724800Y-79050489D01*
X234724800Y-79050489D02*
X234666479Y-79016817D01*
X234666479Y-79016817D02*
X234562161Y-78995470D01*
X234562161Y-78995470D02*
X234365851Y-78998773D01*
X234365851Y-78998773D02*
X234261533Y-78977426D01*
X234261533Y-78977426D02*
X234203212Y-78943754D01*
X234203212Y-78943754D02*
X234132566Y-78864086D01*
X234132566Y-78864086D02*
X234107917Y-78772093D01*
X234107917Y-78772093D02*
X234129264Y-78667775D01*
X234129264Y-78667775D02*
X234162935Y-78609454D01*
X234162935Y-78609454D02*
X234242604Y-78538808D01*
X234242604Y-78538808D02*
X234472586Y-78477184D01*
X234472586Y-78477184D02*
X234622900Y-78486207D01*
X235003197Y-78433606D02*
X235036868Y-78375284D01*
X235036868Y-78375284D02*
X235116537Y-78304638D01*
X235116537Y-78304638D02*
X235346519Y-78243015D01*
X235346519Y-78243015D02*
X235450837Y-78264362D01*
X235450837Y-78264362D02*
X235509158Y-78298034D01*
X235509158Y-78298034D02*
X235579804Y-78377702D01*
X235579804Y-78377702D02*
X235604453Y-78469695D01*
X235604453Y-78469695D02*
X235595431Y-78620009D01*
X235595431Y-78620009D02*
X235191370Y-79319863D01*
X235191370Y-79319863D02*
X235789324Y-79159642D01*
X236404438Y-77959546D02*
X235944473Y-78082794D01*
X235944473Y-78082794D02*
X236021724Y-78555083D01*
X236021724Y-78555083D02*
X236055396Y-78496762D01*
X236055396Y-78496762D02*
X236135064Y-78426116D01*
X236135064Y-78426116D02*
X236365046Y-78364492D01*
X236365046Y-78364492D02*
X236469364Y-78385839D01*
X236469364Y-78385839D02*
X236527685Y-78419511D01*
X236527685Y-78419511D02*
X236598331Y-78499179D01*
X236598331Y-78499179D02*
X236659954Y-78729162D01*
X236659954Y-78729162D02*
X236638607Y-78833479D01*
X236638607Y-78833479D02*
X236604936Y-78891800D01*
X236604936Y-78891800D02*
X236525267Y-78962446D01*
X236525267Y-78962446D02*
X236295285Y-79024070D01*
X236295285Y-79024070D02*
X236190967Y-79002723D01*
X236190967Y-79002723D02*
X236132646Y-78969051D01*
X174686197Y-131525027D02*
X174811862Y-131607998D01*
X174811862Y-131607998D02*
X175041844Y-131669621D01*
X175041844Y-131669621D02*
X175146162Y-131648274D01*
X175146162Y-131648274D02*
X175204483Y-131614603D01*
X175204483Y-131614603D02*
X175275129Y-131534934D01*
X175275129Y-131534934D02*
X175299778Y-131442941D01*
X175299778Y-131442941D02*
X175278431Y-131338624D01*
X175278431Y-131338624D02*
X175244760Y-131280303D01*
X175244760Y-131280303D02*
X175165091Y-131209657D01*
X175165091Y-131209657D02*
X174993430Y-131114361D01*
X174993430Y-131114361D02*
X174913762Y-131043715D01*
X174913762Y-131043715D02*
X174880090Y-130985394D01*
X174880090Y-130985394D02*
X174858743Y-130881077D01*
X174858743Y-130881077D02*
X174883393Y-130789084D01*
X174883393Y-130789084D02*
X174954038Y-130709415D01*
X174954038Y-130709415D02*
X175012360Y-130675744D01*
X175012360Y-130675744D02*
X175116677Y-130654397D01*
X175116677Y-130654397D02*
X175346660Y-130716020D01*
X175346660Y-130716020D02*
X175472324Y-130798991D01*
X175827971Y-130943585D02*
X175886293Y-130909913D01*
X175886293Y-130909913D02*
X175990610Y-130888566D01*
X175990610Y-130888566D02*
X176220593Y-130950190D01*
X176220593Y-130950190D02*
X176300261Y-131020836D01*
X176300261Y-131020836D02*
X176333933Y-131079157D01*
X176333933Y-131079157D02*
X176355280Y-131183475D01*
X176355280Y-131183475D02*
X176330630Y-131275468D01*
X176330630Y-131275468D02*
X176247660Y-131401132D01*
X176247660Y-131401132D02*
X175547805Y-131805193D01*
X175547805Y-131805193D02*
X176145759Y-131965415D01*
X177146242Y-131543309D02*
X176973696Y-132187259D01*
X177014857Y-131113714D02*
X176600004Y-131742037D01*
X176600004Y-131742037D02*
X177197958Y-131902258D01*
X179616700Y-113124127D02*
X179742365Y-113207098D01*
X179742365Y-113207098D02*
X179972347Y-113268721D01*
X179972347Y-113268721D02*
X180076665Y-113247374D01*
X180076665Y-113247374D02*
X180134986Y-113213703D01*
X180134986Y-113213703D02*
X180205632Y-113134034D01*
X180205632Y-113134034D02*
X180230281Y-113042041D01*
X180230281Y-113042041D02*
X180208934Y-112937724D01*
X180208934Y-112937724D02*
X180175263Y-112879403D01*
X180175263Y-112879403D02*
X180095594Y-112808757D01*
X180095594Y-112808757D02*
X179923933Y-112713461D01*
X179923933Y-112713461D02*
X179844265Y-112642815D01*
X179844265Y-112642815D02*
X179810593Y-112584494D01*
X179810593Y-112584494D02*
X179789246Y-112480177D01*
X179789246Y-112480177D02*
X179813896Y-112388184D01*
X179813896Y-112388184D02*
X179884541Y-112308515D01*
X179884541Y-112308515D02*
X179942863Y-112274844D01*
X179942863Y-112274844D02*
X180047180Y-112253497D01*
X180047180Y-112253497D02*
X180277163Y-112315120D01*
X180277163Y-112315120D02*
X180402827Y-112398091D01*
X180758474Y-112542685D02*
X180816796Y-112509013D01*
X180816796Y-112509013D02*
X180921113Y-112487666D01*
X180921113Y-112487666D02*
X181151096Y-112549290D01*
X181151096Y-112549290D02*
X181230764Y-112619936D01*
X181230764Y-112619936D02*
X181264436Y-112678257D01*
X181264436Y-112678257D02*
X181285783Y-112782575D01*
X181285783Y-112782575D02*
X181261133Y-112874568D01*
X181261133Y-112874568D02*
X181178163Y-113000232D01*
X181178163Y-113000232D02*
X180478308Y-113404293D01*
X180478308Y-113404293D02*
X181076262Y-113564515D01*
X181657057Y-112684862D02*
X182255011Y-112845083D01*
X182255011Y-112845083D02*
X181834438Y-113126782D01*
X181834438Y-113126782D02*
X181972427Y-113163756D01*
X181972427Y-113163756D02*
X182052095Y-113234402D01*
X182052095Y-113234402D02*
X182085767Y-113292723D01*
X182085767Y-113292723D02*
X182107114Y-113397041D01*
X182107114Y-113397041D02*
X182045491Y-113627023D01*
X182045491Y-113627023D02*
X181974845Y-113706691D01*
X181974845Y-113706691D02*
X181916524Y-113740363D01*
X181916524Y-113740363D02*
X181812206Y-113761710D01*
X181812206Y-113761710D02*
X181536227Y-113687762D01*
X181536227Y-113687762D02*
X181456559Y-113617116D01*
X181456559Y-113617116D02*
X181422887Y-113558795D01*
X184547214Y-94723238D02*
X184672879Y-94806209D01*
X184672879Y-94806209D02*
X184902861Y-94867832D01*
X184902861Y-94867832D02*
X185007179Y-94846485D01*
X185007179Y-94846485D02*
X185065500Y-94812814D01*
X185065500Y-94812814D02*
X185136146Y-94733145D01*
X185136146Y-94733145D02*
X185160795Y-94641152D01*
X185160795Y-94641152D02*
X185139448Y-94536835D01*
X185139448Y-94536835D02*
X185105777Y-94478514D01*
X185105777Y-94478514D02*
X185026108Y-94407868D01*
X185026108Y-94407868D02*
X184854447Y-94312572D01*
X184854447Y-94312572D02*
X184774779Y-94241926D01*
X184774779Y-94241926D02*
X184741107Y-94183605D01*
X184741107Y-94183605D02*
X184719760Y-94079288D01*
X184719760Y-94079288D02*
X184744410Y-93987295D01*
X184744410Y-93987295D02*
X184815055Y-93907626D01*
X184815055Y-93907626D02*
X184873377Y-93873955D01*
X184873377Y-93873955D02*
X184977694Y-93852608D01*
X184977694Y-93852608D02*
X185207677Y-93914231D01*
X185207677Y-93914231D02*
X185333341Y-93997202D01*
X185688988Y-94141796D02*
X185747310Y-94108124D01*
X185747310Y-94108124D02*
X185851627Y-94086777D01*
X185851627Y-94086777D02*
X186081610Y-94148401D01*
X186081610Y-94148401D02*
X186161278Y-94219047D01*
X186161278Y-94219047D02*
X186194950Y-94277368D01*
X186194950Y-94277368D02*
X186216297Y-94381686D01*
X186216297Y-94381686D02*
X186191647Y-94473679D01*
X186191647Y-94473679D02*
X186108677Y-94599343D01*
X186108677Y-94599343D02*
X185408822Y-95003404D01*
X185408822Y-95003404D02*
X186006776Y-95163626D01*
X186608918Y-94388290D02*
X186667239Y-94354619D01*
X186667239Y-94354619D02*
X186771557Y-94333272D01*
X186771557Y-94333272D02*
X187001539Y-94394895D01*
X187001539Y-94394895D02*
X187081207Y-94465541D01*
X187081207Y-94465541D02*
X187114879Y-94523862D01*
X187114879Y-94523862D02*
X187136226Y-94628180D01*
X187136226Y-94628180D02*
X187111577Y-94720173D01*
X187111577Y-94720173D02*
X187028606Y-94845838D01*
X187028606Y-94845838D02*
X186328752Y-95249899D01*
X186328752Y-95249899D02*
X186926706Y-95410120D01*
X189477723Y-76322356D02*
X189603388Y-76405327D01*
X189603388Y-76405327D02*
X189833370Y-76466950D01*
X189833370Y-76466950D02*
X189937688Y-76445603D01*
X189937688Y-76445603D02*
X189996009Y-76411932D01*
X189996009Y-76411932D02*
X190066655Y-76332263D01*
X190066655Y-76332263D02*
X190091304Y-76240270D01*
X190091304Y-76240270D02*
X190069957Y-76135953D01*
X190069957Y-76135953D02*
X190036286Y-76077632D01*
X190036286Y-76077632D02*
X189956617Y-76006986D01*
X189956617Y-76006986D02*
X189784956Y-75911690D01*
X189784956Y-75911690D02*
X189705288Y-75841044D01*
X189705288Y-75841044D02*
X189671616Y-75782723D01*
X189671616Y-75782723D02*
X189650269Y-75678406D01*
X189650269Y-75678406D02*
X189674919Y-75586413D01*
X189674919Y-75586413D02*
X189745564Y-75506744D01*
X189745564Y-75506744D02*
X189803886Y-75473073D01*
X189803886Y-75473073D02*
X189908203Y-75451726D01*
X189908203Y-75451726D02*
X190138186Y-75513349D01*
X190138186Y-75513349D02*
X190263850Y-75596320D01*
X190619497Y-75740914D02*
X190677819Y-75707242D01*
X190677819Y-75707242D02*
X190782136Y-75685895D01*
X190782136Y-75685895D02*
X191012119Y-75747519D01*
X191012119Y-75747519D02*
X191091787Y-75818165D01*
X191091787Y-75818165D02*
X191125459Y-75876486D01*
X191125459Y-75876486D02*
X191146806Y-75980804D01*
X191146806Y-75980804D02*
X191122156Y-76072797D01*
X191122156Y-76072797D02*
X191039186Y-76198461D01*
X191039186Y-76198461D02*
X190339331Y-76602522D01*
X190339331Y-76602522D02*
X190937285Y-76762744D01*
X191857215Y-77009238D02*
X191305257Y-76861341D01*
X191581236Y-76935290D02*
X191840055Y-75969364D01*
X191840055Y-75969364D02*
X191711088Y-76082704D01*
X191711088Y-76082704D02*
X191594446Y-76150047D01*
X191594446Y-76150047D02*
X191490128Y-76171394D01*
X156285308Y-126594515D02*
X156410973Y-126677486D01*
X156410973Y-126677486D02*
X156640955Y-126739109D01*
X156640955Y-126739109D02*
X156745273Y-126717762D01*
X156745273Y-126717762D02*
X156803594Y-126684091D01*
X156803594Y-126684091D02*
X156874240Y-126604422D01*
X156874240Y-126604422D02*
X156898889Y-126512429D01*
X156898889Y-126512429D02*
X156877542Y-126408112D01*
X156877542Y-126408112D02*
X156843871Y-126349791D01*
X156843871Y-126349791D02*
X156764202Y-126279145D01*
X156764202Y-126279145D02*
X156592541Y-126183849D01*
X156592541Y-126183849D02*
X156512873Y-126113203D01*
X156512873Y-126113203D02*
X156479201Y-126054882D01*
X156479201Y-126054882D02*
X156457854Y-125950565D01*
X156457854Y-125950565D02*
X156482504Y-125858572D01*
X156482504Y-125858572D02*
X156553149Y-125778903D01*
X156553149Y-125778903D02*
X156611471Y-125745232D01*
X156611471Y-125745232D02*
X156715788Y-125723885D01*
X156715788Y-125723885D02*
X156945771Y-125785508D01*
X156945771Y-125785508D02*
X157071435Y-125868479D01*
X157427082Y-126013073D02*
X157485404Y-125979401D01*
X157485404Y-125979401D02*
X157589721Y-125958054D01*
X157589721Y-125958054D02*
X157819704Y-126019678D01*
X157819704Y-126019678D02*
X157899372Y-126090324D01*
X157899372Y-126090324D02*
X157933044Y-126148645D01*
X157933044Y-126148645D02*
X157954391Y-126252963D01*
X157954391Y-126252963D02*
X157929741Y-126344956D01*
X157929741Y-126344956D02*
X157846771Y-126470620D01*
X157846771Y-126470620D02*
X157146916Y-126874681D01*
X157146916Y-126874681D02*
X157744870Y-127034903D01*
X158601644Y-126229198D02*
X158693637Y-126253847D01*
X158693637Y-126253847D02*
X158773305Y-126324493D01*
X158773305Y-126324493D02*
X158806976Y-126382815D01*
X158806976Y-126382815D02*
X158828324Y-126487132D01*
X158828324Y-126487132D02*
X158825021Y-126683443D01*
X158825021Y-126683443D02*
X158763398Y-126913425D01*
X158763398Y-126913425D02*
X158668102Y-127085086D01*
X158668102Y-127085086D02*
X158597456Y-127164755D01*
X158597456Y-127164755D02*
X158539135Y-127198426D01*
X158539135Y-127198426D02*
X158434817Y-127219773D01*
X158434817Y-127219773D02*
X158342825Y-127195124D01*
X158342825Y-127195124D02*
X158263156Y-127124478D01*
X158263156Y-127124478D02*
X158229485Y-127066157D01*
X158229485Y-127066157D02*
X158208138Y-126961839D01*
X158208138Y-126961839D02*
X158211440Y-126765529D01*
X158211440Y-126765529D02*
X158273063Y-126535546D01*
X158273063Y-126535546D02*
X158368359Y-126363885D01*
X158368359Y-126363885D02*
X158439005Y-126284217D01*
X158439005Y-126284217D02*
X158497326Y-126250545D01*
X158497326Y-126250545D02*
X158601644Y-126229198D01*
X161215824Y-108193632D02*
X161341489Y-108276603D01*
X161341489Y-108276603D02*
X161571471Y-108338226D01*
X161571471Y-108338226D02*
X161675789Y-108316879D01*
X161675789Y-108316879D02*
X161734110Y-108283208D01*
X161734110Y-108283208D02*
X161804756Y-108203539D01*
X161804756Y-108203539D02*
X161829405Y-108111546D01*
X161829405Y-108111546D02*
X161808058Y-108007229D01*
X161808058Y-108007229D02*
X161774387Y-107948908D01*
X161774387Y-107948908D02*
X161694718Y-107878262D01*
X161694718Y-107878262D02*
X161523057Y-107782966D01*
X161523057Y-107782966D02*
X161443389Y-107712320D01*
X161443389Y-107712320D02*
X161409717Y-107653999D01*
X161409717Y-107653999D02*
X161388370Y-107549682D01*
X161388370Y-107549682D02*
X161413020Y-107457689D01*
X161413020Y-107457689D02*
X161483665Y-107378020D01*
X161483665Y-107378020D02*
X161541987Y-107344349D01*
X161541987Y-107344349D02*
X161646304Y-107323002D01*
X161646304Y-107323002D02*
X161876287Y-107384625D01*
X161876287Y-107384625D02*
X162001951Y-107467596D01*
X162675386Y-108634020D02*
X162123429Y-108486123D01*
X162399408Y-108560071D02*
X162658227Y-107594145D01*
X162658227Y-107594145D02*
X162529260Y-107707485D01*
X162529260Y-107707485D02*
X162412617Y-107774829D01*
X162412617Y-107774829D02*
X162308300Y-107796176D01*
X163135351Y-108757267D02*
X163319337Y-108806566D01*
X163319337Y-108806566D02*
X163423655Y-108785219D01*
X163423655Y-108785219D02*
X163481976Y-108751547D01*
X163481976Y-108751547D02*
X163610943Y-108638207D01*
X163610943Y-108638207D02*
X163706238Y-108466546D01*
X163706238Y-108466546D02*
X163804836Y-108098574D01*
X163804836Y-108098574D02*
X163783489Y-107994256D01*
X163783489Y-107994256D02*
X163749817Y-107935935D01*
X163749817Y-107935935D02*
X163670149Y-107865289D01*
X163670149Y-107865289D02*
X163486163Y-107815990D01*
X163486163Y-107815990D02*
X163381845Y-107837337D01*
X163381845Y-107837337D02*
X163323524Y-107871009D01*
X163323524Y-107871009D02*
X163252878Y-107950677D01*
X163252878Y-107950677D02*
X163191255Y-108180660D01*
X163191255Y-108180660D02*
X163212602Y-108284977D01*
X163212602Y-108284977D02*
X163246274Y-108343299D01*
X163246274Y-108343299D02*
X163325942Y-108413944D01*
X163325942Y-108413944D02*
X163509928Y-108463243D01*
X163509928Y-108463243D02*
X163614245Y-108441896D01*
X163614245Y-108441896D02*
X163672566Y-108408225D01*
X163672566Y-108408225D02*
X163743212Y-108328556D01*
X166146327Y-89792747D02*
X166271992Y-89875718D01*
X166271992Y-89875718D02*
X166501974Y-89937341D01*
X166501974Y-89937341D02*
X166606292Y-89915994D01*
X166606292Y-89915994D02*
X166664613Y-89882323D01*
X166664613Y-89882323D02*
X166735259Y-89802654D01*
X166735259Y-89802654D02*
X166759908Y-89710661D01*
X166759908Y-89710661D02*
X166738561Y-89606344D01*
X166738561Y-89606344D02*
X166704890Y-89548023D01*
X166704890Y-89548023D02*
X166625221Y-89477377D01*
X166625221Y-89477377D02*
X166453560Y-89382081D01*
X166453560Y-89382081D02*
X166373892Y-89311435D01*
X166373892Y-89311435D02*
X166340220Y-89253114D01*
X166340220Y-89253114D02*
X166318873Y-89148797D01*
X166318873Y-89148797D02*
X166343523Y-89056804D01*
X166343523Y-89056804D02*
X166414168Y-88977135D01*
X166414168Y-88977135D02*
X166472490Y-88943464D01*
X166472490Y-88943464D02*
X166576807Y-88922117D01*
X166576807Y-88922117D02*
X166806790Y-88983740D01*
X166806790Y-88983740D02*
X166932454Y-89066711D01*
X167605889Y-90233135D02*
X167053932Y-90085238D01*
X167329911Y-90159186D02*
X167588730Y-89193260D01*
X167588730Y-89193260D02*
X167459763Y-89306600D01*
X167459763Y-89306600D02*
X167343120Y-89373944D01*
X167343120Y-89373944D02*
X167238803Y-89395291D01*
X168305744Y-89829074D02*
X168226075Y-89758428D01*
X168226075Y-89758428D02*
X168192404Y-89700106D01*
X168192404Y-89700106D02*
X168171057Y-89595789D01*
X168171057Y-89595789D02*
X168183381Y-89549792D01*
X168183381Y-89549792D02*
X168254027Y-89470124D01*
X168254027Y-89470124D02*
X168312348Y-89436452D01*
X168312348Y-89436452D02*
X168416666Y-89415105D01*
X168416666Y-89415105D02*
X168600652Y-89464404D01*
X168600652Y-89464404D02*
X168680320Y-89535050D01*
X168680320Y-89535050D02*
X168713992Y-89593371D01*
X168713992Y-89593371D02*
X168735339Y-89697689D01*
X168735339Y-89697689D02*
X168723014Y-89743685D01*
X168723014Y-89743685D02*
X168652368Y-89823354D01*
X168652368Y-89823354D02*
X168594047Y-89857025D01*
X168594047Y-89857025D02*
X168489730Y-89878372D01*
X168489730Y-89878372D02*
X168305744Y-89829074D01*
X168305744Y-89829074D02*
X168201426Y-89850421D01*
X168201426Y-89850421D02*
X168143105Y-89884092D01*
X168143105Y-89884092D02*
X168072459Y-89963761D01*
X168072459Y-89963761D02*
X168023160Y-90147746D01*
X168023160Y-90147746D02*
X168044507Y-90252064D01*
X168044507Y-90252064D02*
X168078179Y-90310385D01*
X168078179Y-90310385D02*
X168157847Y-90381031D01*
X168157847Y-90381031D02*
X168341833Y-90430330D01*
X168341833Y-90430330D02*
X168446151Y-90408983D01*
X168446151Y-90408983D02*
X168504472Y-90375311D01*
X168504472Y-90375311D02*
X168575118Y-90295643D01*
X168575118Y-90295643D02*
X168624417Y-90111657D01*
X168624417Y-90111657D02*
X168603069Y-90007340D01*
X168603069Y-90007340D02*
X168569398Y-89949018D01*
X168569398Y-89949018D02*
X168489730Y-89878372D01*
X171076815Y-71391864D02*
X171202480Y-71474835D01*
X171202480Y-71474835D02*
X171432462Y-71536458D01*
X171432462Y-71536458D02*
X171536780Y-71515111D01*
X171536780Y-71515111D02*
X171595101Y-71481440D01*
X171595101Y-71481440D02*
X171665747Y-71401771D01*
X171665747Y-71401771D02*
X171690396Y-71309778D01*
X171690396Y-71309778D02*
X171669049Y-71205461D01*
X171669049Y-71205461D02*
X171635378Y-71147140D01*
X171635378Y-71147140D02*
X171555709Y-71076494D01*
X171555709Y-71076494D02*
X171384048Y-70981198D01*
X171384048Y-70981198D02*
X171304380Y-70910552D01*
X171304380Y-70910552D02*
X171270708Y-70852231D01*
X171270708Y-70852231D02*
X171249361Y-70747914D01*
X171249361Y-70747914D02*
X171274011Y-70655921D01*
X171274011Y-70655921D02*
X171344656Y-70576252D01*
X171344656Y-70576252D02*
X171402978Y-70542581D01*
X171402978Y-70542581D02*
X171507295Y-70521234D01*
X171507295Y-70521234D02*
X171737278Y-70582857D01*
X171737278Y-70582857D02*
X171862942Y-70665828D01*
X172536377Y-71832252D02*
X171984420Y-71684355D01*
X172260399Y-71758303D02*
X172519218Y-70792377D01*
X172519218Y-70792377D02*
X172390251Y-70905717D01*
X172390251Y-70905717D02*
X172273608Y-70973061D01*
X172273608Y-70973061D02*
X172169291Y-70994408D01*
X173117172Y-70952599D02*
X173761122Y-71125145D01*
X173761122Y-71125145D02*
X173088335Y-71980148D01*
X139036115Y-117365856D02*
X139161780Y-117448827D01*
X139161780Y-117448827D02*
X139391762Y-117510450D01*
X139391762Y-117510450D02*
X139496080Y-117489103D01*
X139496080Y-117489103D02*
X139554401Y-117455432D01*
X139554401Y-117455432D02*
X139625047Y-117375763D01*
X139625047Y-117375763D02*
X139649696Y-117283770D01*
X139649696Y-117283770D02*
X139628349Y-117179453D01*
X139628349Y-117179453D02*
X139594678Y-117121132D01*
X139594678Y-117121132D02*
X139515009Y-117050486D01*
X139515009Y-117050486D02*
X139343348Y-116955190D01*
X139343348Y-116955190D02*
X139263680Y-116884544D01*
X139263680Y-116884544D02*
X139230008Y-116826223D01*
X139230008Y-116826223D02*
X139208661Y-116721906D01*
X139208661Y-116721906D02*
X139233311Y-116629913D01*
X139233311Y-116629913D02*
X139303956Y-116550244D01*
X139303956Y-116550244D02*
X139362278Y-116516573D01*
X139362278Y-116516573D02*
X139466595Y-116495226D01*
X139466595Y-116495226D02*
X139696578Y-116556849D01*
X139696578Y-116556849D02*
X139822242Y-116639820D01*
X140495677Y-117806244D02*
X139943720Y-117658347D01*
X140219699Y-117732295D02*
X140478518Y-116766369D01*
X140478518Y-116766369D02*
X140349551Y-116879709D01*
X140349551Y-116879709D02*
X140232908Y-116947053D01*
X140232908Y-116947053D02*
X140128591Y-116968400D01*
X141582433Y-117062163D02*
X141398447Y-117012864D01*
X141398447Y-117012864D02*
X141294129Y-117034211D01*
X141294129Y-117034211D02*
X141235808Y-117067883D01*
X141235808Y-117067883D02*
X141106841Y-117181223D01*
X141106841Y-117181223D02*
X141011546Y-117352884D01*
X141011546Y-117352884D02*
X140912948Y-117720855D01*
X140912948Y-117720855D02*
X140934295Y-117825173D01*
X140934295Y-117825173D02*
X140967967Y-117883494D01*
X140967967Y-117883494D02*
X141047635Y-117954140D01*
X141047635Y-117954140D02*
X141231621Y-118003439D01*
X141231621Y-118003439D02*
X141335939Y-117982092D01*
X141335939Y-117982092D02*
X141394260Y-117948420D01*
X141394260Y-117948420D02*
X141464906Y-117868752D01*
X141464906Y-117868752D02*
X141526529Y-117638770D01*
X141526529Y-117638770D02*
X141505182Y-117534452D01*
X141505182Y-117534452D02*
X141471510Y-117476131D01*
X141471510Y-117476131D02*
X141391842Y-117405485D01*
X141391842Y-117405485D02*
X141207856Y-117356186D01*
X141207856Y-117356186D02*
X141103539Y-117377533D01*
X141103539Y-117377533D02*
X141045218Y-117411205D01*
X141045218Y-117411205D02*
X140974572Y-117490873D01*
X143966616Y-98964977D02*
X144092281Y-99047948D01*
X144092281Y-99047948D02*
X144322263Y-99109571D01*
X144322263Y-99109571D02*
X144426581Y-99088224D01*
X144426581Y-99088224D02*
X144484902Y-99054553D01*
X144484902Y-99054553D02*
X144555548Y-98974884D01*
X144555548Y-98974884D02*
X144580197Y-98882891D01*
X144580197Y-98882891D02*
X144558850Y-98778574D01*
X144558850Y-98778574D02*
X144525179Y-98720253D01*
X144525179Y-98720253D02*
X144445510Y-98649607D01*
X144445510Y-98649607D02*
X144273849Y-98554311D01*
X144273849Y-98554311D02*
X144194181Y-98483665D01*
X144194181Y-98483665D02*
X144160509Y-98425344D01*
X144160509Y-98425344D02*
X144139162Y-98321027D01*
X144139162Y-98321027D02*
X144163812Y-98229034D01*
X144163812Y-98229034D02*
X144234457Y-98149365D01*
X144234457Y-98149365D02*
X144292779Y-98115694D01*
X144292779Y-98115694D02*
X144397096Y-98094347D01*
X144397096Y-98094347D02*
X144627079Y-98155970D01*
X144627079Y-98155970D02*
X144752743Y-98238941D01*
X145426178Y-99405365D02*
X144874221Y-99257468D01*
X145150200Y-99331416D02*
X145409019Y-98365490D01*
X145409019Y-98365490D02*
X145280052Y-98478830D01*
X145280052Y-98478830D02*
X145163409Y-98546174D01*
X145163409Y-98546174D02*
X145059092Y-98567521D01*
X146558930Y-98673608D02*
X146098966Y-98550361D01*
X146098966Y-98550361D02*
X145929722Y-98998001D01*
X145929722Y-98998001D02*
X145988043Y-98964329D01*
X145988043Y-98964329D02*
X146092361Y-98942982D01*
X146092361Y-98942982D02*
X146322343Y-99004606D01*
X146322343Y-99004606D02*
X146402011Y-99075252D01*
X146402011Y-99075252D02*
X146435683Y-99133573D01*
X146435683Y-99133573D02*
X146457030Y-99237891D01*
X146457030Y-99237891D02*
X146395407Y-99467873D01*
X146395407Y-99467873D02*
X146324761Y-99547541D01*
X146324761Y-99547541D02*
X146266440Y-99581213D01*
X146266440Y-99581213D02*
X146162122Y-99602560D01*
X146162122Y-99602560D02*
X145932140Y-99540936D01*
X145932140Y-99540936D02*
X145852471Y-99470291D01*
X145852471Y-99470291D02*
X145818800Y-99411969D01*
X148897120Y-80564091D02*
X149022785Y-80647062D01*
X149022785Y-80647062D02*
X149252767Y-80708685D01*
X149252767Y-80708685D02*
X149357085Y-80687338D01*
X149357085Y-80687338D02*
X149415406Y-80653667D01*
X149415406Y-80653667D02*
X149486052Y-80573998D01*
X149486052Y-80573998D02*
X149510701Y-80482005D01*
X149510701Y-80482005D02*
X149489354Y-80377688D01*
X149489354Y-80377688D02*
X149455683Y-80319367D01*
X149455683Y-80319367D02*
X149376014Y-80248721D01*
X149376014Y-80248721D02*
X149204353Y-80153425D01*
X149204353Y-80153425D02*
X149124685Y-80082779D01*
X149124685Y-80082779D02*
X149091013Y-80024458D01*
X149091013Y-80024458D02*
X149069666Y-79920141D01*
X149069666Y-79920141D02*
X149094316Y-79828148D01*
X149094316Y-79828148D02*
X149164961Y-79748479D01*
X149164961Y-79748479D02*
X149223283Y-79714808D01*
X149223283Y-79714808D02*
X149327600Y-79693461D01*
X149327600Y-79693461D02*
X149557583Y-79755084D01*
X149557583Y-79755084D02*
X149683247Y-79838055D01*
X150356682Y-81004479D02*
X149804725Y-80856582D01*
X150080704Y-80930530D02*
X150339523Y-79964604D01*
X150339523Y-79964604D02*
X150210556Y-80077944D01*
X150210556Y-80077944D02*
X150093913Y-80145288D01*
X150093913Y-80145288D02*
X149989596Y-80166635D01*
X151357165Y-80582373D02*
X151184619Y-81226323D01*
X151225780Y-80152778D02*
X150810927Y-80781101D01*
X150810927Y-80781101D02*
X151408881Y-80941322D01*
X153827619Y-62163196D02*
X153953284Y-62246167D01*
X153953284Y-62246167D02*
X154183266Y-62307790D01*
X154183266Y-62307790D02*
X154287584Y-62286443D01*
X154287584Y-62286443D02*
X154345905Y-62252772D01*
X154345905Y-62252772D02*
X154416551Y-62173103D01*
X154416551Y-62173103D02*
X154441200Y-62081110D01*
X154441200Y-62081110D02*
X154419853Y-61976793D01*
X154419853Y-61976793D02*
X154386182Y-61918472D01*
X154386182Y-61918472D02*
X154306513Y-61847826D01*
X154306513Y-61847826D02*
X154134852Y-61752530D01*
X154134852Y-61752530D02*
X154055184Y-61681884D01*
X154055184Y-61681884D02*
X154021512Y-61623563D01*
X154021512Y-61623563D02*
X154000165Y-61519246D01*
X154000165Y-61519246D02*
X154024815Y-61427253D01*
X154024815Y-61427253D02*
X154095460Y-61347584D01*
X154095460Y-61347584D02*
X154153782Y-61313913D01*
X154153782Y-61313913D02*
X154258099Y-61292566D01*
X154258099Y-61292566D02*
X154488082Y-61354189D01*
X154488082Y-61354189D02*
X154613746Y-61437160D01*
X155287181Y-62603584D02*
X154735224Y-62455687D01*
X155011203Y-62529635D02*
X155270022Y-61563709D01*
X155270022Y-61563709D02*
X155141055Y-61677049D01*
X155141055Y-61677049D02*
X155024412Y-61744393D01*
X155024412Y-61744393D02*
X154920095Y-61765740D01*
X155867976Y-61723931D02*
X156465930Y-61884152D01*
X156465930Y-61884152D02*
X156045357Y-62165851D01*
X156045357Y-62165851D02*
X156183346Y-62202825D01*
X156183346Y-62202825D02*
X156263014Y-62273471D01*
X156263014Y-62273471D02*
X156296686Y-62331792D01*
X156296686Y-62331792D02*
X156318033Y-62436110D01*
X156318033Y-62436110D02*
X156256410Y-62666092D01*
X156256410Y-62666092D02*
X156185764Y-62745760D01*
X156185764Y-62745760D02*
X156127443Y-62779432D01*
X156127443Y-62779432D02*
X156023125Y-62800779D01*
X156023125Y-62800779D02*
X155747146Y-62726831D01*
X155747146Y-62726831D02*
X155667478Y-62656185D01*
X155667478Y-62656185D02*
X155633806Y-62597864D01*
X120305294Y-113666704D02*
X120430959Y-113749675D01*
X120430959Y-113749675D02*
X120660941Y-113811298D01*
X120660941Y-113811298D02*
X120765259Y-113789951D01*
X120765259Y-113789951D02*
X120823580Y-113756280D01*
X120823580Y-113756280D02*
X120894226Y-113676611D01*
X120894226Y-113676611D02*
X120918875Y-113584618D01*
X120918875Y-113584618D02*
X120897528Y-113480301D01*
X120897528Y-113480301D02*
X120863857Y-113421980D01*
X120863857Y-113421980D02*
X120784188Y-113351334D01*
X120784188Y-113351334D02*
X120612527Y-113256038D01*
X120612527Y-113256038D02*
X120532859Y-113185392D01*
X120532859Y-113185392D02*
X120499187Y-113127071D01*
X120499187Y-113127071D02*
X120477840Y-113022754D01*
X120477840Y-113022754D02*
X120502490Y-112930761D01*
X120502490Y-112930761D02*
X120573135Y-112851092D01*
X120573135Y-112851092D02*
X120631457Y-112817421D01*
X120631457Y-112817421D02*
X120735774Y-112796074D01*
X120735774Y-112796074D02*
X120965757Y-112857697D01*
X120965757Y-112857697D02*
X121091421Y-112940668D01*
X121764856Y-114107092D02*
X121212899Y-113959195D01*
X121488878Y-114033143D02*
X121747697Y-113067217D01*
X121747697Y-113067217D02*
X121618730Y-113180557D01*
X121618730Y-113180557D02*
X121502087Y-113247901D01*
X121502087Y-113247901D02*
X121397770Y-113269248D01*
X122366998Y-113331756D02*
X122425319Y-113298085D01*
X122425319Y-113298085D02*
X122529637Y-113276738D01*
X122529637Y-113276738D02*
X122759619Y-113338361D01*
X122759619Y-113338361D02*
X122839287Y-113409007D01*
X122839287Y-113409007D02*
X122872959Y-113467328D01*
X122872959Y-113467328D02*
X122894306Y-113571646D01*
X122894306Y-113571646D02*
X122869657Y-113663639D01*
X122869657Y-113663639D02*
X122786686Y-113789304D01*
X122786686Y-113789304D02*
X122086832Y-114193365D01*
X122086832Y-114193365D02*
X122684786Y-114353586D01*
X125235789Y-95265805D02*
X125361454Y-95348776D01*
X125361454Y-95348776D02*
X125591436Y-95410399D01*
X125591436Y-95410399D02*
X125695754Y-95389052D01*
X125695754Y-95389052D02*
X125754075Y-95355381D01*
X125754075Y-95355381D02*
X125824721Y-95275712D01*
X125824721Y-95275712D02*
X125849370Y-95183719D01*
X125849370Y-95183719D02*
X125828023Y-95079402D01*
X125828023Y-95079402D02*
X125794352Y-95021081D01*
X125794352Y-95021081D02*
X125714683Y-94950435D01*
X125714683Y-94950435D02*
X125543022Y-94855139D01*
X125543022Y-94855139D02*
X125463354Y-94784493D01*
X125463354Y-94784493D02*
X125429682Y-94726172D01*
X125429682Y-94726172D02*
X125408335Y-94621855D01*
X125408335Y-94621855D02*
X125432985Y-94529862D01*
X125432985Y-94529862D02*
X125503630Y-94450193D01*
X125503630Y-94450193D02*
X125561952Y-94416522D01*
X125561952Y-94416522D02*
X125666269Y-94395175D01*
X125666269Y-94395175D02*
X125896252Y-94456798D01*
X125896252Y-94456798D02*
X126021916Y-94539769D01*
X126695351Y-95706193D02*
X126143394Y-95558296D01*
X126419373Y-95632244D02*
X126678192Y-94666318D01*
X126678192Y-94666318D02*
X126549225Y-94779658D01*
X126549225Y-94779658D02*
X126432582Y-94847002D01*
X126432582Y-94847002D02*
X126328265Y-94868349D01*
X127615281Y-95952687D02*
X127063323Y-95804790D01*
X127339302Y-95878739D02*
X127598121Y-94912813D01*
X127598121Y-94912813D02*
X127469154Y-95026153D01*
X127469154Y-95026153D02*
X127352512Y-95093496D01*
X127352512Y-95093496D02*
X127248194Y-95114843D01*
X130166300Y-76864920D02*
X130291965Y-76947891D01*
X130291965Y-76947891D02*
X130521947Y-77009514D01*
X130521947Y-77009514D02*
X130626265Y-76988167D01*
X130626265Y-76988167D02*
X130684586Y-76954496D01*
X130684586Y-76954496D02*
X130755232Y-76874827D01*
X130755232Y-76874827D02*
X130779881Y-76782834D01*
X130779881Y-76782834D02*
X130758534Y-76678517D01*
X130758534Y-76678517D02*
X130724863Y-76620196D01*
X130724863Y-76620196D02*
X130645194Y-76549550D01*
X130645194Y-76549550D02*
X130473533Y-76454254D01*
X130473533Y-76454254D02*
X130393865Y-76383608D01*
X130393865Y-76383608D02*
X130360193Y-76325287D01*
X130360193Y-76325287D02*
X130338846Y-76220970D01*
X130338846Y-76220970D02*
X130363496Y-76128977D01*
X130363496Y-76128977D02*
X130434141Y-76049308D01*
X130434141Y-76049308D02*
X130492463Y-76015637D01*
X130492463Y-76015637D02*
X130596780Y-75994290D01*
X130596780Y-75994290D02*
X130826763Y-76055913D01*
X130826763Y-76055913D02*
X130952427Y-76138884D01*
X131625862Y-77305308D02*
X131073905Y-77157411D01*
X131349884Y-77231359D02*
X131608703Y-76265433D01*
X131608703Y-76265433D02*
X131479736Y-76378773D01*
X131479736Y-76378773D02*
X131363093Y-76446117D01*
X131363093Y-76446117D02*
X131258776Y-76467464D01*
X132482636Y-76499603D02*
X132574629Y-76524252D01*
X132574629Y-76524252D02*
X132654297Y-76594898D01*
X132654297Y-76594898D02*
X132687968Y-76653220D01*
X132687968Y-76653220D02*
X132709316Y-76757537D01*
X132709316Y-76757537D02*
X132706013Y-76953848D01*
X132706013Y-76953848D02*
X132644390Y-77183830D01*
X132644390Y-77183830D02*
X132549094Y-77355491D01*
X132549094Y-77355491D02*
X132478448Y-77435160D01*
X132478448Y-77435160D02*
X132420127Y-77468831D01*
X132420127Y-77468831D02*
X132315809Y-77490178D01*
X132315809Y-77490178D02*
X132223817Y-77465529D01*
X132223817Y-77465529D02*
X132144148Y-77394883D01*
X132144148Y-77394883D02*
X132110477Y-77336562D01*
X132110477Y-77336562D02*
X132089130Y-77232244D01*
X132089130Y-77232244D02*
X132092432Y-77035934D01*
X132092432Y-77035934D02*
X132154055Y-76805951D01*
X132154055Y-76805951D02*
X132249351Y-76634290D01*
X132249351Y-76634290D02*
X132319997Y-76554622D01*
X132319997Y-76554622D02*
X132378318Y-76520950D01*
X132378318Y-76520950D02*
X132482636Y-76499603D01*
X135096801Y-58464034D02*
X135222466Y-58547005D01*
X135222466Y-58547005D02*
X135452448Y-58608628D01*
X135452448Y-58608628D02*
X135556766Y-58587281D01*
X135556766Y-58587281D02*
X135615087Y-58553610D01*
X135615087Y-58553610D02*
X135685733Y-58473941D01*
X135685733Y-58473941D02*
X135710382Y-58381948D01*
X135710382Y-58381948D02*
X135689035Y-58277631D01*
X135689035Y-58277631D02*
X135655364Y-58219310D01*
X135655364Y-58219310D02*
X135575695Y-58148664D01*
X135575695Y-58148664D02*
X135404034Y-58053368D01*
X135404034Y-58053368D02*
X135324366Y-57982722D01*
X135324366Y-57982722D02*
X135290694Y-57924401D01*
X135290694Y-57924401D02*
X135269347Y-57820084D01*
X135269347Y-57820084D02*
X135293997Y-57728091D01*
X135293997Y-57728091D02*
X135364642Y-57648422D01*
X135364642Y-57648422D02*
X135422964Y-57614751D01*
X135422964Y-57614751D02*
X135527281Y-57593404D01*
X135527281Y-57593404D02*
X135757264Y-57655027D01*
X135757264Y-57655027D02*
X135882928Y-57737998D01*
X136096399Y-58781174D02*
X136280385Y-58830473D01*
X136280385Y-58830473D02*
X136384702Y-58809126D01*
X136384702Y-58809126D02*
X136443023Y-58775454D01*
X136443023Y-58775454D02*
X136571991Y-58662115D01*
X136571991Y-58662115D02*
X136667286Y-58490453D01*
X136667286Y-58490453D02*
X136765884Y-58122482D01*
X136765884Y-58122482D02*
X136744537Y-58018164D01*
X136744537Y-58018164D02*
X136710865Y-57959843D01*
X136710865Y-57959843D02*
X136631197Y-57889197D01*
X136631197Y-57889197D02*
X136447211Y-57839898D01*
X136447211Y-57839898D02*
X136342893Y-57861245D01*
X136342893Y-57861245D02*
X136284572Y-57894917D01*
X136284572Y-57894917D02*
X136213926Y-57974585D01*
X136213926Y-57974585D02*
X136152302Y-58204567D01*
X136152302Y-58204567D02*
X136173649Y-58308885D01*
X136173649Y-58308885D02*
X136207321Y-58367206D01*
X136207321Y-58367206D02*
X136286989Y-58437852D01*
X136286989Y-58437852D02*
X136470975Y-58487151D01*
X136470975Y-58487151D02*
X136575293Y-58465804D01*
X136575293Y-58465804D02*
X136633614Y-58432132D01*
X136633614Y-58432132D02*
X136704260Y-58352464D01*
X101575700Y-109962911D02*
X101701365Y-110045882D01*
X101701365Y-110045882D02*
X101931347Y-110107505D01*
X101931347Y-110107505D02*
X102035665Y-110086158D01*
X102035665Y-110086158D02*
X102093986Y-110052487D01*
X102093986Y-110052487D02*
X102164632Y-109972818D01*
X102164632Y-109972818D02*
X102189281Y-109880825D01*
X102189281Y-109880825D02*
X102167934Y-109776508D01*
X102167934Y-109776508D02*
X102134263Y-109718187D01*
X102134263Y-109718187D02*
X102054594Y-109647541D01*
X102054594Y-109647541D02*
X101882933Y-109552245D01*
X101882933Y-109552245D02*
X101803265Y-109481599D01*
X101803265Y-109481599D02*
X101769593Y-109423278D01*
X101769593Y-109423278D02*
X101748246Y-109318961D01*
X101748246Y-109318961D02*
X101772896Y-109226968D01*
X101772896Y-109226968D02*
X101843541Y-109147299D01*
X101843541Y-109147299D02*
X101901863Y-109113628D01*
X101901863Y-109113628D02*
X102006180Y-109092281D01*
X102006180Y-109092281D02*
X102236163Y-109153904D01*
X102236163Y-109153904D02*
X102361827Y-109236875D01*
X102815187Y-109752743D02*
X102735519Y-109682097D01*
X102735519Y-109682097D02*
X102701847Y-109623776D01*
X102701847Y-109623776D02*
X102680500Y-109519458D01*
X102680500Y-109519458D02*
X102692825Y-109473462D01*
X102692825Y-109473462D02*
X102763471Y-109393794D01*
X102763471Y-109393794D02*
X102821792Y-109360122D01*
X102821792Y-109360122D02*
X102926110Y-109338775D01*
X102926110Y-109338775D02*
X103110096Y-109388074D01*
X103110096Y-109388074D02*
X103189764Y-109458720D01*
X103189764Y-109458720D02*
X103223436Y-109517041D01*
X103223436Y-109517041D02*
X103244783Y-109621359D01*
X103244783Y-109621359D02*
X103232458Y-109667355D01*
X103232458Y-109667355D02*
X103161812Y-109747023D01*
X103161812Y-109747023D02*
X103103491Y-109780695D01*
X103103491Y-109780695D02*
X102999173Y-109802042D01*
X102999173Y-109802042D02*
X102815187Y-109752743D01*
X102815187Y-109752743D02*
X102710870Y-109774090D01*
X102710870Y-109774090D02*
X102652548Y-109807762D01*
X102652548Y-109807762D02*
X102581903Y-109887430D01*
X102581903Y-109887430D02*
X102532604Y-110071416D01*
X102532604Y-110071416D02*
X102553951Y-110175734D01*
X102553951Y-110175734D02*
X102587622Y-110234055D01*
X102587622Y-110234055D02*
X102667291Y-110304701D01*
X102667291Y-110304701D02*
X102851277Y-110354000D01*
X102851277Y-110354000D02*
X102955594Y-110332653D01*
X102955594Y-110332653D02*
X103013915Y-110298981D01*
X103013915Y-110298981D02*
X103084561Y-110219313D01*
X103084561Y-110219313D02*
X103133860Y-110035327D01*
X103133860Y-110035327D02*
X103112513Y-109931009D01*
X103112513Y-109931009D02*
X103078841Y-109872688D01*
X103078841Y-109872688D02*
X102999173Y-109802042D01*
X106506203Y-91562036D02*
X106631868Y-91645007D01*
X106631868Y-91645007D02*
X106861850Y-91706630D01*
X106861850Y-91706630D02*
X106966168Y-91685283D01*
X106966168Y-91685283D02*
X107024489Y-91651612D01*
X107024489Y-91651612D02*
X107095135Y-91571943D01*
X107095135Y-91571943D02*
X107119784Y-91479950D01*
X107119784Y-91479950D02*
X107098437Y-91375633D01*
X107098437Y-91375633D02*
X107064766Y-91317312D01*
X107064766Y-91317312D02*
X106985097Y-91246666D01*
X106985097Y-91246666D02*
X106813436Y-91151370D01*
X106813436Y-91151370D02*
X106733768Y-91080724D01*
X106733768Y-91080724D02*
X106700096Y-91022403D01*
X106700096Y-91022403D02*
X106678749Y-90918086D01*
X106678749Y-90918086D02*
X106703399Y-90826093D01*
X106703399Y-90826093D02*
X106774044Y-90746424D01*
X106774044Y-90746424D02*
X106832366Y-90712753D01*
X106832366Y-90712753D02*
X106936683Y-90691406D01*
X106936683Y-90691406D02*
X107166666Y-90753029D01*
X107166666Y-90753029D02*
X107292330Y-90836000D01*
X107626630Y-90876276D02*
X108270581Y-91048822D01*
X108270581Y-91048822D02*
X107597794Y-91903826D01*
X111436704Y-73161145D02*
X111562369Y-73244116D01*
X111562369Y-73244116D02*
X111792351Y-73305739D01*
X111792351Y-73305739D02*
X111896669Y-73284392D01*
X111896669Y-73284392D02*
X111954990Y-73250721D01*
X111954990Y-73250721D02*
X112025636Y-73171052D01*
X112025636Y-73171052D02*
X112050285Y-73079059D01*
X112050285Y-73079059D02*
X112028938Y-72974742D01*
X112028938Y-72974742D02*
X111995267Y-72916421D01*
X111995267Y-72916421D02*
X111915598Y-72845775D01*
X111915598Y-72845775D02*
X111743937Y-72750479D01*
X111743937Y-72750479D02*
X111664269Y-72679833D01*
X111664269Y-72679833D02*
X111630597Y-72621512D01*
X111630597Y-72621512D02*
X111609250Y-72517195D01*
X111609250Y-72517195D02*
X111633900Y-72425202D01*
X111633900Y-72425202D02*
X111704545Y-72345533D01*
X111704545Y-72345533D02*
X111762867Y-72311862D01*
X111762867Y-72311862D02*
X111867184Y-72290515D01*
X111867184Y-72290515D02*
X112097167Y-72352138D01*
X112097167Y-72352138D02*
X112222831Y-72435109D01*
X113063093Y-72610957D02*
X112879107Y-72561658D01*
X112879107Y-72561658D02*
X112774789Y-72583005D01*
X112774789Y-72583005D02*
X112716468Y-72616677D01*
X112716468Y-72616677D02*
X112587501Y-72730017D01*
X112587501Y-72730017D02*
X112492205Y-72901678D01*
X112492205Y-72901678D02*
X112393608Y-73269650D01*
X112393608Y-73269650D02*
X112414955Y-73373968D01*
X112414955Y-73373968D02*
X112448626Y-73432289D01*
X112448626Y-73432289D02*
X112528295Y-73502935D01*
X112528295Y-73502935D02*
X112712281Y-73552234D01*
X112712281Y-73552234D02*
X112816598Y-73530887D01*
X112816598Y-73530887D02*
X112874919Y-73497215D01*
X112874919Y-73497215D02*
X112945565Y-73417547D01*
X112945565Y-73417547D02*
X113007189Y-73187564D01*
X113007189Y-73187564D02*
X112985842Y-73083247D01*
X112985842Y-73083247D02*
X112952170Y-73024926D01*
X112952170Y-73024926D02*
X112872502Y-72954280D01*
X112872502Y-72954280D02*
X112688516Y-72904981D01*
X112688516Y-72904981D02*
X112584198Y-72926328D01*
X112584198Y-72926328D02*
X112525877Y-72960000D01*
X112525877Y-72960000D02*
X112455231Y-73039668D01*
X116367207Y-54760262D02*
X116492872Y-54843233D01*
X116492872Y-54843233D02*
X116722854Y-54904856D01*
X116722854Y-54904856D02*
X116827172Y-54883509D01*
X116827172Y-54883509D02*
X116885493Y-54849838D01*
X116885493Y-54849838D02*
X116956139Y-54770169D01*
X116956139Y-54770169D02*
X116980788Y-54678176D01*
X116980788Y-54678176D02*
X116959441Y-54573859D01*
X116959441Y-54573859D02*
X116925770Y-54515538D01*
X116925770Y-54515538D02*
X116846101Y-54444892D01*
X116846101Y-54444892D02*
X116674440Y-54349596D01*
X116674440Y-54349596D02*
X116594772Y-54278950D01*
X116594772Y-54278950D02*
X116561100Y-54220629D01*
X116561100Y-54220629D02*
X116539753Y-54116312D01*
X116539753Y-54116312D02*
X116564403Y-54024319D01*
X116564403Y-54024319D02*
X116635048Y-53944650D01*
X116635048Y-53944650D02*
X116693370Y-53910979D01*
X116693370Y-53910979D02*
X116797687Y-53889632D01*
X116797687Y-53889632D02*
X117027670Y-53951255D01*
X117027670Y-53951255D02*
X117153334Y-54034226D01*
X118039592Y-54222399D02*
X117579627Y-54099152D01*
X117579627Y-54099152D02*
X117410384Y-54546792D01*
X117410384Y-54546792D02*
X117468705Y-54513120D01*
X117468705Y-54513120D02*
X117573022Y-54491773D01*
X117573022Y-54491773D02*
X117803005Y-54553397D01*
X117803005Y-54553397D02*
X117882673Y-54624043D01*
X117882673Y-54624043D02*
X117916345Y-54682364D01*
X117916345Y-54682364D02*
X117937692Y-54786681D01*
X117937692Y-54786681D02*
X117876068Y-55016664D01*
X117876068Y-55016664D02*
X117805422Y-55096332D01*
X117805422Y-55096332D02*
X117747101Y-55130004D01*
X117747101Y-55130004D02*
X117642784Y-55151351D01*
X117642784Y-55151351D02*
X117412801Y-55089727D01*
X117412801Y-55089727D02*
X117333133Y-55019081D01*
X117333133Y-55019081D02*
X117299461Y-54960760D01*
X82517413Y-107485873D02*
X82643078Y-107568844D01*
X82643078Y-107568844D02*
X82873060Y-107630467D01*
X82873060Y-107630467D02*
X82977378Y-107609120D01*
X82977378Y-107609120D02*
X83035699Y-107575449D01*
X83035699Y-107575449D02*
X83106345Y-107495780D01*
X83106345Y-107495780D02*
X83130994Y-107403787D01*
X83130994Y-107403787D02*
X83109647Y-107299470D01*
X83109647Y-107299470D02*
X83075976Y-107241149D01*
X83075976Y-107241149D02*
X82996307Y-107170503D01*
X82996307Y-107170503D02*
X82824646Y-107075207D01*
X82824646Y-107075207D02*
X82744978Y-107004561D01*
X82744978Y-107004561D02*
X82711306Y-106946240D01*
X82711306Y-106946240D02*
X82689959Y-106841923D01*
X82689959Y-106841923D02*
X82714609Y-106749930D01*
X82714609Y-106749930D02*
X82785254Y-106670261D01*
X82785254Y-106670261D02*
X82843576Y-106636590D01*
X82843576Y-106636590D02*
X82947893Y-106615243D01*
X82947893Y-106615243D02*
X83177876Y-106676866D01*
X83177876Y-106676866D02*
X83303540Y-106759837D01*
X84057528Y-107257661D02*
X83884982Y-107901611D01*
X83926144Y-106828065D02*
X83511291Y-107456389D01*
X83511291Y-107456389D02*
X84109245Y-107616610D01*
X87447912Y-89084983D02*
X87573577Y-89167954D01*
X87573577Y-89167954D02*
X87803559Y-89229577D01*
X87803559Y-89229577D02*
X87907877Y-89208230D01*
X87907877Y-89208230D02*
X87966198Y-89174559D01*
X87966198Y-89174559D02*
X88036844Y-89094890D01*
X88036844Y-89094890D02*
X88061493Y-89002897D01*
X88061493Y-89002897D02*
X88040146Y-88898580D01*
X88040146Y-88898580D02*
X88006475Y-88840259D01*
X88006475Y-88840259D02*
X87926806Y-88769613D01*
X87926806Y-88769613D02*
X87755145Y-88674317D01*
X87755145Y-88674317D02*
X87675477Y-88603671D01*
X87675477Y-88603671D02*
X87641805Y-88545350D01*
X87641805Y-88545350D02*
X87620458Y-88441033D01*
X87620458Y-88441033D02*
X87645108Y-88349040D01*
X87645108Y-88349040D02*
X87715753Y-88269371D01*
X87715753Y-88269371D02*
X87774075Y-88235700D01*
X87774075Y-88235700D02*
X87878392Y-88214353D01*
X87878392Y-88214353D02*
X88108375Y-88275976D01*
X88108375Y-88275976D02*
X88234039Y-88358947D01*
X88568339Y-88399223D02*
X89166293Y-88559445D01*
X89166293Y-88559445D02*
X88745720Y-88841143D01*
X88745720Y-88841143D02*
X88883710Y-88878118D01*
X88883710Y-88878118D02*
X88963378Y-88948764D01*
X88963378Y-88948764D02*
X88997050Y-89007085D01*
X88997050Y-89007085D02*
X89018397Y-89111402D01*
X89018397Y-89111402D02*
X88956773Y-89341385D01*
X88956773Y-89341385D02*
X88886127Y-89421053D01*
X88886127Y-89421053D02*
X88827806Y-89454725D01*
X88827806Y-89454725D02*
X88723489Y-89476072D01*
X88723489Y-89476072D02*
X88447510Y-89402123D01*
X88447510Y-89402123D02*
X88367841Y-89331477D01*
X88367841Y-89331477D02*
X88334170Y-89273156D01*
X92378427Y-70684094D02*
X92504092Y-70767065D01*
X92504092Y-70767065D02*
X92734074Y-70828688D01*
X92734074Y-70828688D02*
X92838392Y-70807341D01*
X92838392Y-70807341D02*
X92896713Y-70773670D01*
X92896713Y-70773670D02*
X92967359Y-70694001D01*
X92967359Y-70694001D02*
X92992008Y-70602008D01*
X92992008Y-70602008D02*
X92970661Y-70497691D01*
X92970661Y-70497691D02*
X92936990Y-70439370D01*
X92936990Y-70439370D02*
X92857321Y-70368724D01*
X92857321Y-70368724D02*
X92685660Y-70273428D01*
X92685660Y-70273428D02*
X92605992Y-70202782D01*
X92605992Y-70202782D02*
X92572320Y-70144461D01*
X92572320Y-70144461D02*
X92550973Y-70040144D01*
X92550973Y-70040144D02*
X92575623Y-69948151D01*
X92575623Y-69948151D02*
X92646268Y-69868482D01*
X92646268Y-69868482D02*
X92704590Y-69834811D01*
X92704590Y-69834811D02*
X92808907Y-69813464D01*
X92808907Y-69813464D02*
X93038890Y-69875087D01*
X93038890Y-69875087D02*
X93164554Y-69958058D01*
X93520201Y-70102652D02*
X93578523Y-70068980D01*
X93578523Y-70068980D02*
X93682840Y-70047633D01*
X93682840Y-70047633D02*
X93912823Y-70109257D01*
X93912823Y-70109257D02*
X93992491Y-70179903D01*
X93992491Y-70179903D02*
X94026163Y-70238224D01*
X94026163Y-70238224D02*
X94047510Y-70342542D01*
X94047510Y-70342542D02*
X94022860Y-70434535D01*
X94022860Y-70434535D02*
X93939890Y-70560199D01*
X93939890Y-70560199D02*
X93240035Y-70964260D01*
X93240035Y-70964260D02*
X93837989Y-71124482D01*
X97308921Y-52283206D02*
X97434586Y-52366177D01*
X97434586Y-52366177D02*
X97664568Y-52427800D01*
X97664568Y-52427800D02*
X97768886Y-52406453D01*
X97768886Y-52406453D02*
X97827207Y-52372782D01*
X97827207Y-52372782D02*
X97897853Y-52293113D01*
X97897853Y-52293113D02*
X97922502Y-52201120D01*
X97922502Y-52201120D02*
X97901155Y-52096803D01*
X97901155Y-52096803D02*
X97867484Y-52038482D01*
X97867484Y-52038482D02*
X97787815Y-51967836D01*
X97787815Y-51967836D02*
X97616154Y-51872540D01*
X97616154Y-51872540D02*
X97536486Y-51801894D01*
X97536486Y-51801894D02*
X97502814Y-51743573D01*
X97502814Y-51743573D02*
X97481467Y-51639256D01*
X97481467Y-51639256D02*
X97506117Y-51547263D01*
X97506117Y-51547263D02*
X97576762Y-51467594D01*
X97576762Y-51467594D02*
X97635084Y-51433923D01*
X97635084Y-51433923D02*
X97739401Y-51412576D01*
X97739401Y-51412576D02*
X97969384Y-51474199D01*
X97969384Y-51474199D02*
X98095048Y-51557170D01*
X98768483Y-52723594D02*
X98216526Y-52575697D01*
X98492505Y-52649645D02*
X98751324Y-51683719D01*
X98751324Y-51683719D02*
X98622357Y-51797059D01*
X98622357Y-51797059D02*
X98505714Y-51864403D01*
X98505714Y-51864403D02*
X98401397Y-51885750D01*
D11*
X216732306Y-130348282D02*
X216875163Y-130395901D01*
X216875163Y-130395901D02*
X216922782Y-130443520D01*
X216922782Y-130443520D02*
X216970401Y-130538758D01*
X216970401Y-130538758D02*
X216970401Y-130681615D01*
X216970401Y-130681615D02*
X216922782Y-130776853D01*
X216922782Y-130776853D02*
X216875163Y-130824473D01*
X216875163Y-130824473D02*
X216779925Y-130872092D01*
X216779925Y-130872092D02*
X216398973Y-130872092D01*
X216398973Y-130872092D02*
X216398973Y-129872092D01*
X216398973Y-129872092D02*
X216732306Y-129872092D01*
X216732306Y-129872092D02*
X216827544Y-129919711D01*
X216827544Y-129919711D02*
X216875163Y-129967330D01*
X216875163Y-129967330D02*
X216922782Y-130062568D01*
X216922782Y-130062568D02*
X216922782Y-130157806D01*
X216922782Y-130157806D02*
X216875163Y-130253044D01*
X216875163Y-130253044D02*
X216827544Y-130300663D01*
X216827544Y-130300663D02*
X216732306Y-130348282D01*
X216732306Y-130348282D02*
X216398973Y-130348282D01*
X217398973Y-130872092D02*
X217398973Y-130205425D01*
X217398973Y-130395901D02*
X217446592Y-130300663D01*
X217446592Y-130300663D02*
X217494211Y-130253044D01*
X217494211Y-130253044D02*
X217589449Y-130205425D01*
X217589449Y-130205425D02*
X217684687Y-130205425D01*
X218446592Y-130872092D02*
X218446592Y-129872092D01*
X218446592Y-130824473D02*
X218351354Y-130872092D01*
X218351354Y-130872092D02*
X218160878Y-130872092D01*
X218160878Y-130872092D02*
X218065640Y-130824473D01*
X218065640Y-130824473D02*
X218018021Y-130776853D01*
X218018021Y-130776853D02*
X217970402Y-130681615D01*
X217970402Y-130681615D02*
X217970402Y-130395901D01*
X217970402Y-130395901D02*
X218018021Y-130300663D01*
X218018021Y-130300663D02*
X218065640Y-130253044D01*
X218065640Y-130253044D02*
X218160878Y-130205425D01*
X218160878Y-130205425D02*
X218351354Y-130205425D01*
X218351354Y-130205425D02*
X218446592Y-130253044D01*
X219446592Y-130872092D02*
X218875164Y-130872092D01*
X219160878Y-130872092D02*
X219160878Y-129872092D01*
X219160878Y-129872092D02*
X219065640Y-130014949D01*
X219065640Y-130014949D02*
X218970402Y-130110187D01*
X218970402Y-130110187D02*
X218875164Y-130157806D01*
X295814990Y-128324820D02*
X296332628Y-130256671D01*
X297746843Y-127807181D02*
X295814990Y-128324820D01*
X298920818Y-139915928D02*
X299438457Y-141847781D01*
X299438457Y-141847781D02*
X301370308Y-141330143D01*
X307406100Y-125218991D02*
X309337951Y-124701353D01*
X309337951Y-124701353D02*
X309855590Y-126633206D01*
X311029565Y-138741953D02*
X312961418Y-138224314D01*
X312961418Y-138224314D02*
X312443780Y-136292463D01*
X277414100Y-133255327D02*
X277931738Y-135187178D01*
X279345953Y-132737688D02*
X277414100Y-133255327D01*
X280519928Y-144846435D02*
X281037567Y-146778288D01*
X281037567Y-146778288D02*
X282969418Y-146260650D01*
X289005210Y-130149498D02*
X290937061Y-129631860D01*
X290937061Y-129631860D02*
X291454700Y-131563713D01*
X292628675Y-143672460D02*
X294560528Y-143154821D01*
X294560528Y-143154821D02*
X294042890Y-141222970D01*
X256936907Y-142082880D02*
X257782143Y-143895496D01*
X258749522Y-141237644D02*
X256936907Y-142082880D01*
X262008326Y-152958574D02*
X262853562Y-154771189D01*
X262853562Y-154771189D02*
X264666178Y-153925953D01*
X267812600Y-137011461D02*
X269625216Y-136166225D01*
X269625216Y-136166225D02*
X270470452Y-137978840D01*
X273729256Y-149699770D02*
X275541871Y-148854534D01*
X275541871Y-148854534D02*
X274696635Y-147041918D01*
X234376988Y-156906332D02*
X235524142Y-158544636D01*
X236015293Y-155759179D02*
X234376988Y-156906332D01*
X241259906Y-166736156D02*
X242407059Y-168374461D01*
X242407059Y-168374461D02*
X244045363Y-167227307D01*
X244206813Y-150023415D02*
X245845117Y-148876261D01*
X245845117Y-148876261D02*
X246992270Y-150514566D01*
X252236883Y-161491543D02*
X253875188Y-160344390D01*
X253875188Y-160344390D02*
X252728034Y-158706086D01*
X181796760Y-160344393D02*
X183435064Y-161491546D01*
X182943913Y-158706089D02*
X181796760Y-160344393D01*
X189826830Y-148876265D02*
X188679677Y-150514569D01*
X191465134Y-150023418D02*
X189826830Y-148876265D01*
X191626584Y-167227310D02*
X193264888Y-168374463D01*
X193264888Y-168374463D02*
X194412041Y-166736159D01*
X199656654Y-155759182D02*
X201294958Y-156906335D01*
X201294958Y-156906335D02*
X200147805Y-158544639D01*
X160130076Y-148854540D02*
X161942691Y-149699776D01*
X160975312Y-147041924D02*
X160130076Y-148854540D01*
X166046731Y-136166231D02*
X165201495Y-137978846D01*
X167859347Y-137011467D02*
X166046731Y-136166231D01*
X171005769Y-153925959D02*
X172818385Y-154771195D01*
X172818385Y-154771195D02*
X173663621Y-152958580D01*
X176922425Y-141237650D02*
X178735040Y-142082886D01*
X178735040Y-142082886D02*
X177889804Y-143895502D01*
X141111410Y-143154824D02*
X143043263Y-143672463D01*
X141629048Y-141222973D02*
X141111410Y-143154824D01*
X144734877Y-129631863D02*
X144217238Y-131563716D01*
X146666728Y-130149501D02*
X144734877Y-129631863D01*
X152702520Y-146260653D02*
X154634371Y-146778291D01*
X154634371Y-146778291D02*
X155152010Y-144846438D01*
X156325985Y-132737691D02*
X158257838Y-133255330D01*
X158257838Y-133255330D02*
X157740200Y-135187181D01*
X122710533Y-138224321D02*
X124642386Y-138741960D01*
X123228171Y-136292470D02*
X122710533Y-138224321D01*
X126334000Y-124701360D02*
X125816361Y-126633213D01*
X128265851Y-125218998D02*
X126334000Y-124701360D01*
X134301643Y-141330150D02*
X136233494Y-141847788D01*
X136233494Y-141847788D02*
X136751133Y-139915935D01*
X137925108Y-127807188D02*
X139856961Y-128324827D01*
X139856961Y-128324827D02*
X139339323Y-130256678D01*
X337051058Y-98211044D02*
X337568696Y-100142895D01*
X338982911Y-97693405D02*
X337051058Y-98211044D01*
X340156886Y-109802152D02*
X340674525Y-111734005D01*
X340674525Y-111734005D02*
X342606376Y-111216367D01*
X348642168Y-95105215D02*
X350574019Y-94587577D01*
X350574019Y-94587577D02*
X351091658Y-96519430D01*
X352265633Y-108628177D02*
X354197486Y-108110538D01*
X354197486Y-108110538D02*
X353679848Y-106178687D01*
X332120550Y-79810148D02*
X332638188Y-81741999D01*
X334052403Y-79292509D02*
X332120550Y-79810148D01*
X335226378Y-91401256D02*
X335744017Y-93333109D01*
X335744017Y-93333109D02*
X337675868Y-92815471D01*
X343711660Y-76704319D02*
X345643511Y-76186681D01*
X345643511Y-76186681D02*
X346161150Y-78118534D01*
X347335125Y-90227281D02*
X349266978Y-89709642D01*
X349266978Y-89709642D02*
X348749340Y-87777791D01*
X327190057Y-61409269D02*
X327707695Y-63341120D01*
X329121910Y-60891630D02*
X327190057Y-61409269D01*
X330295885Y-73000377D02*
X330813524Y-74932230D01*
X330813524Y-74932230D02*
X332745375Y-74414592D01*
X338781167Y-58303440D02*
X340713018Y-57785802D01*
X340713018Y-57785802D02*
X341230657Y-59717655D01*
X342404632Y-71826402D02*
X344336485Y-71308763D01*
X344336485Y-71308763D02*
X343818847Y-69376912D01*
X322259547Y-43008386D02*
X322777185Y-44940237D01*
X324191400Y-42490747D02*
X322259547Y-43008386D01*
X325365375Y-54599494D02*
X325883014Y-56531347D01*
X325883014Y-56531347D02*
X327814865Y-56013709D01*
X333850657Y-39902557D02*
X335782508Y-39384919D01*
X335782508Y-39384919D02*
X336300147Y-41316772D01*
X337474122Y-53425519D02*
X339405975Y-52907880D01*
X339405975Y-52907880D02*
X338888337Y-50976029D01*
X317992767Y-100688090D02*
X318510405Y-102619941D01*
X319924620Y-100170451D02*
X317992767Y-100688090D01*
X321098595Y-112279198D02*
X321616234Y-114211051D01*
X321616234Y-114211051D02*
X323548085Y-113693413D01*
X329583877Y-97582261D02*
X331515728Y-97064623D01*
X331515728Y-97064623D02*
X332033367Y-98996476D01*
X333207342Y-111105223D02*
X335139195Y-110587584D01*
X335139195Y-110587584D02*
X334621557Y-108655733D01*
X313062264Y-82287212D02*
X313579902Y-84219063D01*
X314994117Y-81769573D02*
X313062264Y-82287212D01*
X316168092Y-93878320D02*
X316685731Y-95810173D01*
X316685731Y-95810173D02*
X318617582Y-95292535D01*
X324653374Y-79181383D02*
X326585225Y-78663745D01*
X326585225Y-78663745D02*
X327102864Y-80595598D01*
X328276839Y-92704345D02*
X330208692Y-92186706D01*
X330208692Y-92186706D02*
X329691054Y-90254855D01*
X308131762Y-63886319D02*
X308649400Y-65818170D01*
X310063615Y-63368680D02*
X308131762Y-63886319D01*
X311237590Y-75477427D02*
X311755229Y-77409280D01*
X311755229Y-77409280D02*
X313687080Y-76891642D01*
X319722872Y-60780490D02*
X321654723Y-60262852D01*
X321654723Y-60262852D02*
X322172362Y-62194705D01*
X323346337Y-74303452D02*
X325278190Y-73785813D01*
X325278190Y-73785813D02*
X324760552Y-71853962D01*
X303201253Y-45485430D02*
X303718891Y-47417281D01*
X305133106Y-44967791D02*
X303201253Y-45485430D01*
X306307081Y-57076538D02*
X306824720Y-59008391D01*
X306824720Y-59008391D02*
X308756571Y-58490753D01*
X314792363Y-42379601D02*
X316724214Y-41861963D01*
X316724214Y-41861963D02*
X317241853Y-43793816D01*
X318415828Y-55902563D02*
X320347681Y-55384924D01*
X320347681Y-55384924D02*
X319830043Y-53453073D01*
X299263180Y-104391869D02*
X299780818Y-106323720D01*
X301195033Y-103874230D02*
X299263180Y-104391869D01*
X302369008Y-115982977D02*
X302886647Y-117914830D01*
X302886647Y-117914830D02*
X304818498Y-117397192D01*
X310854290Y-101286040D02*
X312786141Y-100768402D01*
X312786141Y-100768402D02*
X313303780Y-102700255D01*
X314477755Y-114809002D02*
X316409608Y-114291363D01*
X316409608Y-114291363D02*
X315891970Y-112359512D01*
X294332685Y-85990976D02*
X294850323Y-87922827D01*
X296264538Y-85473337D02*
X294332685Y-85990976D01*
X297438513Y-97582084D02*
X297956152Y-99513937D01*
X297956152Y-99513937D02*
X299888003Y-98996299D01*
X305923795Y-82885147D02*
X307855646Y-82367509D01*
X307855646Y-82367509D02*
X308373285Y-84299362D01*
X309547260Y-96408109D02*
X311479113Y-95890470D01*
X311479113Y-95890470D02*
X310961475Y-93958619D01*
X289402179Y-67590091D02*
X289919817Y-69521942D01*
X291334032Y-67072452D02*
X289402179Y-67590091D01*
X292508007Y-79181199D02*
X293025646Y-81113052D01*
X293025646Y-81113052D02*
X294957497Y-80595414D01*
X300993289Y-64484262D02*
X302925140Y-63966624D01*
X302925140Y-63966624D02*
X303442779Y-65898477D01*
X304616754Y-78007224D02*
X306548607Y-77489585D01*
X306548607Y-77489585D02*
X306030969Y-75557734D01*
X284471671Y-49189212D02*
X284989309Y-51121063D01*
X286403524Y-48671573D02*
X284471671Y-49189212D01*
X287577499Y-60780320D02*
X288095138Y-62712173D01*
X288095138Y-62712173D02*
X290026989Y-62194535D01*
X296062781Y-46083383D02*
X297994632Y-45565745D01*
X297994632Y-45565745D02*
X298512271Y-47497598D01*
X299686246Y-59606345D02*
X301618099Y-59088706D01*
X301618099Y-59088706D02*
X301100461Y-57156855D01*
X280533602Y-108095645D02*
X281051240Y-110027496D01*
X282465455Y-107578006D02*
X280533602Y-108095645D01*
X283639430Y-119686753D02*
X284157069Y-121618606D01*
X284157069Y-121618606D02*
X286088920Y-121100968D01*
X292124712Y-104989816D02*
X294056563Y-104472178D01*
X294056563Y-104472178D02*
X294574202Y-106404031D01*
X295748177Y-118512778D02*
X297680030Y-117995139D01*
X297680030Y-117995139D02*
X297162392Y-116063288D01*
X275603100Y-89694759D02*
X276120738Y-91626610D01*
X277534953Y-89177120D02*
X275603100Y-89694759D01*
X278708928Y-101285867D02*
X279226567Y-103217720D01*
X279226567Y-103217720D02*
X281158418Y-102700082D01*
X287194210Y-86588930D02*
X289126061Y-86071292D01*
X289126061Y-86071292D02*
X289643700Y-88003145D01*
X290817675Y-100111892D02*
X292749528Y-99594253D01*
X292749528Y-99594253D02*
X292231890Y-97662402D01*
X270672590Y-71293875D02*
X271190228Y-73225726D01*
X272604443Y-70776236D02*
X270672590Y-71293875D01*
X273778418Y-82884983D02*
X274296057Y-84816836D01*
X274296057Y-84816836D02*
X276227908Y-84299198D01*
X282263700Y-68188046D02*
X284195551Y-67670408D01*
X284195551Y-67670408D02*
X284713190Y-69602261D01*
X285887165Y-81711008D02*
X287819018Y-81193369D01*
X287819018Y-81193369D02*
X287301380Y-79261518D01*
X265742090Y-52892984D02*
X266259728Y-54824835D01*
X267673943Y-52375345D02*
X265742090Y-52892984D01*
X268847918Y-64484092D02*
X269365557Y-66415945D01*
X269365557Y-66415945D02*
X271297408Y-65898307D01*
X277333200Y-49787155D02*
X279265051Y-49269517D01*
X279265051Y-49269517D02*
X279782690Y-51201370D01*
X280956665Y-63310117D02*
X282888518Y-62792478D01*
X282888518Y-62792478D02*
X282370880Y-60860627D01*
X263283165Y-117319683D02*
X263800803Y-119251534D01*
X265215018Y-116802044D02*
X263283165Y-117319683D01*
X266388993Y-128910791D02*
X266906632Y-130842644D01*
X266906632Y-130842644D02*
X268838483Y-130325006D01*
X274874275Y-114213854D02*
X276806126Y-113696216D01*
X276806126Y-113696216D02*
X277323765Y-115628069D01*
X278497740Y-127736816D02*
X280429593Y-127219177D01*
X280429593Y-127219177D02*
X279911955Y-125287326D01*
X258352660Y-98918806D02*
X258870298Y-100850657D01*
X260284513Y-98401167D02*
X258352660Y-98918806D01*
X261458488Y-110509914D02*
X261976127Y-112441767D01*
X261976127Y-112441767D02*
X263907978Y-111924129D01*
X269943770Y-95812977D02*
X271875621Y-95295339D01*
X271875621Y-95295339D02*
X272393260Y-97227192D01*
X273567235Y-109335939D02*
X275499088Y-108818300D01*
X275499088Y-108818300D02*
X274981450Y-106886449D01*
X253422153Y-80517915D02*
X253939791Y-82449766D01*
X255354006Y-80000276D02*
X253422153Y-80517915D01*
X256527981Y-92109023D02*
X257045620Y-94040876D01*
X257045620Y-94040876D02*
X258977471Y-93523238D01*
X265013263Y-77412086D02*
X266945114Y-76894448D01*
X266945114Y-76894448D02*
X267462753Y-78826301D01*
X268636728Y-90935048D02*
X270568581Y-90417409D01*
X270568581Y-90417409D02*
X270050943Y-88485558D01*
X248491651Y-62117028D02*
X249009289Y-64048879D01*
X250423504Y-61599389D02*
X248491651Y-62117028D01*
X251597479Y-73708136D02*
X252115118Y-75639989D01*
X252115118Y-75639989D02*
X254046969Y-75122351D01*
X260082761Y-59011199D02*
X262014612Y-58493561D01*
X262014612Y-58493561D02*
X262532251Y-60425414D01*
X263706226Y-72534161D02*
X265638079Y-72016522D01*
X265638079Y-72016522D02*
X265120441Y-70084671D01*
X244882264Y-122250197D02*
X245399902Y-124182048D01*
X246814117Y-121732558D02*
X244882264Y-122250197D01*
X247988092Y-133841305D02*
X248505731Y-135773158D01*
X248505731Y-135773158D02*
X250437582Y-135255520D01*
X256473374Y-119144368D02*
X258405225Y-118626730D01*
X258405225Y-118626730D02*
X258922864Y-120558583D01*
X260096839Y-132667330D02*
X262028692Y-132149691D01*
X262028692Y-132149691D02*
X261511054Y-130217840D01*
X239951761Y-103849304D02*
X240469399Y-105781155D01*
X241883614Y-103331665D02*
X239951761Y-103849304D01*
X243057589Y-115440412D02*
X243575228Y-117372265D01*
X243575228Y-117372265D02*
X245507079Y-116854627D01*
X251542871Y-100743475D02*
X253474722Y-100225837D01*
X253474722Y-100225837D02*
X253992361Y-102157690D01*
X255166336Y-114266437D02*
X257098189Y-113748798D01*
X257098189Y-113748798D02*
X256580551Y-111816947D01*
X235021263Y-85448416D02*
X235538901Y-87380267D01*
X236953116Y-84930777D02*
X235021263Y-85448416D01*
X238127091Y-97039524D02*
X238644730Y-98971377D01*
X238644730Y-98971377D02*
X240576581Y-98453739D01*
X246612373Y-82342587D02*
X248544224Y-81824949D01*
X248544224Y-81824949D02*
X249061863Y-83756802D01*
X250235838Y-95865549D02*
X252167691Y-95347910D01*
X252167691Y-95347910D02*
X251650053Y-93416059D01*
X230090757Y-67047531D02*
X230608395Y-68979382D01*
X232022610Y-66529892D02*
X230090757Y-67047531D01*
X233196585Y-78638639D02*
X233714224Y-80570492D01*
X233714224Y-80570492D02*
X235646075Y-80052854D01*
X241681867Y-63941702D02*
X243613718Y-63424064D01*
X243613718Y-63424064D02*
X244131357Y-65355917D01*
X245305332Y-77464664D02*
X247237185Y-76947025D01*
X247237185Y-76947025D02*
X246719547Y-75015174D01*
X173643245Y-132149696D02*
X175575098Y-132667335D01*
X174160883Y-130217845D02*
X173643245Y-132149696D01*
X177266712Y-118626735D02*
X176749073Y-120558588D01*
X179198563Y-119144373D02*
X177266712Y-118626735D01*
X185234355Y-135255525D02*
X187166206Y-135773163D01*
X187166206Y-135773163D02*
X187683845Y-133841310D01*
X188857820Y-121732563D02*
X190789673Y-122250202D01*
X190789673Y-122250202D02*
X190272035Y-124182053D01*
X178573748Y-113748796D02*
X180505601Y-114266435D01*
X179091386Y-111816945D02*
X178573748Y-113748796D01*
X182197215Y-100225835D02*
X181679576Y-102157688D01*
X184129066Y-100743473D02*
X182197215Y-100225835D01*
X190164858Y-116854625D02*
X192096709Y-117372263D01*
X192096709Y-117372263D02*
X192614348Y-115440410D01*
X193788323Y-103331663D02*
X195720176Y-103849302D01*
X195720176Y-103849302D02*
X195202538Y-105781153D01*
X183504262Y-95347907D02*
X185436115Y-95865546D01*
X184021900Y-93416056D02*
X183504262Y-95347907D01*
X187127729Y-81824946D02*
X186610090Y-83756799D01*
X189059580Y-82342584D02*
X187127729Y-81824946D01*
X195095372Y-98453736D02*
X197027223Y-98971374D01*
X197027223Y-98971374D02*
X197544862Y-97039521D01*
X198718837Y-84930774D02*
X200650690Y-85448413D01*
X200650690Y-85448413D02*
X200133052Y-87380264D01*
X188434771Y-76947025D02*
X190366624Y-77464664D01*
X188952409Y-75015174D02*
X188434771Y-76947025D01*
X192058238Y-63424064D02*
X191540599Y-65355917D01*
X193990089Y-63941702D02*
X192058238Y-63424064D01*
X200025881Y-80052854D02*
X201957732Y-80570492D01*
X201957732Y-80570492D02*
X202475371Y-78638639D01*
X203649346Y-66529892D02*
X205581199Y-67047531D01*
X205581199Y-67047531D02*
X205063561Y-68979382D01*
X155242356Y-127219184D02*
X157174209Y-127736823D01*
X155759994Y-125287333D02*
X155242356Y-127219184D01*
X158865823Y-113696223D02*
X158348184Y-115628076D01*
X160797674Y-114213861D02*
X158865823Y-113696223D01*
X166833466Y-130325013D02*
X168765317Y-130842651D01*
X168765317Y-130842651D02*
X169282956Y-128910798D01*
X170456931Y-116802051D02*
X172388784Y-117319690D01*
X172388784Y-117319690D02*
X171871146Y-119251541D01*
X160172872Y-108818301D02*
X162104725Y-109335940D01*
X160690510Y-106886450D02*
X160172872Y-108818301D01*
X163796339Y-95295340D02*
X163278700Y-97227193D01*
X165728190Y-95812978D02*
X163796339Y-95295340D01*
X171763982Y-111924130D02*
X173695833Y-112441768D01*
X173695833Y-112441768D02*
X174213472Y-110509915D01*
X175387447Y-98401168D02*
X177319300Y-98918807D01*
X177319300Y-98918807D02*
X176801662Y-100850658D01*
X165103375Y-90417416D02*
X167035228Y-90935055D01*
X165621013Y-88485565D02*
X165103375Y-90417416D01*
X168726842Y-76894455D02*
X168209203Y-78826308D01*
X170658693Y-77412093D02*
X168726842Y-76894455D01*
X176694485Y-93523245D02*
X178626336Y-94040883D01*
X178626336Y-94040883D02*
X179143975Y-92109030D01*
X180317950Y-80000283D02*
X182249803Y-80517922D01*
X182249803Y-80517922D02*
X181732165Y-82449773D01*
X170033863Y-72016533D02*
X171965716Y-72534172D01*
X170551501Y-70084682D02*
X170033863Y-72016533D01*
X173657330Y-58493572D02*
X173139691Y-60425425D01*
X175589181Y-59011210D02*
X173657330Y-58493572D01*
X181624973Y-75122362D02*
X183556824Y-75640000D01*
X183556824Y-75640000D02*
X184074463Y-73708147D01*
X185248438Y-61599400D02*
X187180291Y-62117039D01*
X187180291Y-62117039D02*
X186662653Y-64048890D01*
X137993163Y-117990525D02*
X139925016Y-118508164D01*
X138510801Y-116058674D02*
X137993163Y-117990525D01*
X141616630Y-104467564D02*
X141098991Y-106399417D01*
X143548481Y-104985202D02*
X141616630Y-104467564D01*
X149584273Y-121096354D02*
X151516124Y-121613992D01*
X151516124Y-121613992D02*
X152033763Y-119682139D01*
X153207738Y-107573392D02*
X155139591Y-108091031D01*
X155139591Y-108091031D02*
X154621953Y-110022882D01*
X142923664Y-99589646D02*
X144855517Y-100107285D01*
X143441302Y-97657795D02*
X142923664Y-99589646D01*
X146547131Y-86066685D02*
X146029492Y-87998538D01*
X148478982Y-86584323D02*
X146547131Y-86066685D01*
X154514774Y-102695475D02*
X156446625Y-103213113D01*
X156446625Y-103213113D02*
X156964264Y-101281260D01*
X158138239Y-89172513D02*
X160070092Y-89690152D01*
X160070092Y-89690152D02*
X159552454Y-91622003D01*
X147854168Y-81188760D02*
X149786021Y-81706399D01*
X148371806Y-79256909D02*
X147854168Y-81188760D01*
X151477635Y-67665799D02*
X150959996Y-69597652D01*
X153409486Y-68183437D02*
X151477635Y-67665799D01*
X159445278Y-84294589D02*
X161377129Y-84812227D01*
X161377129Y-84812227D02*
X161894768Y-82880374D01*
X163068743Y-70771627D02*
X165000596Y-71289266D01*
X165000596Y-71289266D02*
X164482958Y-73221117D01*
X152784667Y-62787865D02*
X154716520Y-63305504D01*
X153302305Y-60856014D02*
X152784667Y-62787865D01*
X156408134Y-49264904D02*
X155890495Y-51196757D01*
X158339985Y-49782542D02*
X156408134Y-49264904D01*
X164375777Y-65893694D02*
X166307628Y-66411332D01*
X166307628Y-66411332D02*
X166825267Y-64479479D01*
X167999242Y-52370732D02*
X169931095Y-52888371D01*
X169931095Y-52888371D02*
X169413457Y-54820222D01*
X119262342Y-114291373D02*
X121194195Y-114809012D01*
X119779980Y-112359522D02*
X119262342Y-114291373D01*
X122885809Y-100768412D02*
X122368170Y-102700265D01*
X124817660Y-101286050D02*
X122885809Y-100768412D01*
X130853452Y-117397202D02*
X132785303Y-117914840D01*
X132785303Y-117914840D02*
X133302942Y-115982987D01*
X134476917Y-103874240D02*
X136408770Y-104391879D01*
X136408770Y-104391879D02*
X135891132Y-106323730D01*
X124192837Y-95890474D02*
X126124690Y-96408113D01*
X124710475Y-93958623D02*
X124192837Y-95890474D01*
X127816304Y-82367513D02*
X127298665Y-84299366D01*
X129748155Y-82885151D02*
X127816304Y-82367513D01*
X135783947Y-98996303D02*
X137715798Y-99513941D01*
X137715798Y-99513941D02*
X138233437Y-97582088D01*
X139407412Y-85473341D02*
X141339265Y-85990980D01*
X141339265Y-85990980D02*
X140821627Y-87922831D01*
X129123348Y-77489589D02*
X131055201Y-78007228D01*
X129640986Y-75557738D02*
X129123348Y-77489589D01*
X132746815Y-63966628D02*
X132229176Y-65898481D01*
X134678666Y-64484266D02*
X132746815Y-63966628D01*
X140714458Y-80595418D02*
X142646309Y-81113056D01*
X142646309Y-81113056D02*
X143163948Y-79181203D01*
X144337923Y-67072456D02*
X146269776Y-67590095D01*
X146269776Y-67590095D02*
X145752138Y-69521946D01*
X134053849Y-59088703D02*
X135985702Y-59606342D01*
X134571487Y-57156852D02*
X134053849Y-59088703D01*
X137677316Y-45565742D02*
X137159677Y-47497595D01*
X139609167Y-46083380D02*
X137677316Y-45565742D01*
X145644959Y-62194532D02*
X147576810Y-62712170D01*
X147576810Y-62712170D02*
X148094449Y-60780317D01*
X149268424Y-48671570D02*
X151200277Y-49189209D01*
X151200277Y-49189209D02*
X150682639Y-51121060D01*
X100532748Y-110587580D02*
X102464601Y-111105219D01*
X101050386Y-108655729D02*
X100532748Y-110587580D01*
X104156215Y-97064619D02*
X103638576Y-98996472D01*
X106088066Y-97582257D02*
X104156215Y-97064619D01*
X112123858Y-113693409D02*
X114055709Y-114211047D01*
X114055709Y-114211047D02*
X114573348Y-112279194D01*
X115747323Y-100170447D02*
X117679176Y-100688086D01*
X117679176Y-100688086D02*
X117161538Y-102619937D01*
X105463251Y-92186705D02*
X107395104Y-92704344D01*
X105980889Y-90254854D02*
X105463251Y-92186705D01*
X109086718Y-78663744D02*
X108569079Y-80595597D01*
X111018569Y-79181382D02*
X109086718Y-78663744D01*
X117054361Y-95292534D02*
X118986212Y-95810172D01*
X118986212Y-95810172D02*
X119503851Y-93878319D01*
X120677826Y-81769572D02*
X122609679Y-82287211D01*
X122609679Y-82287211D02*
X122092041Y-84219062D01*
X110393752Y-73785814D02*
X112325605Y-74303453D01*
X110911390Y-71853963D02*
X110393752Y-73785814D01*
X114017219Y-60262853D02*
X113499580Y-62194706D01*
X115949070Y-60780491D02*
X114017219Y-60262853D01*
X121984862Y-76891643D02*
X123916713Y-77409281D01*
X123916713Y-77409281D02*
X124434352Y-75477428D01*
X125608327Y-63368681D02*
X127540180Y-63886320D01*
X127540180Y-63886320D02*
X127022542Y-65818171D01*
X115324255Y-55384931D02*
X117256108Y-55902570D01*
X115841893Y-53453080D02*
X115324255Y-55384931D01*
X118947722Y-41861970D02*
X118430083Y-43793823D01*
X120879573Y-42379608D02*
X118947722Y-41861970D01*
X126915365Y-58490760D02*
X128847216Y-59008398D01*
X128847216Y-59008398D02*
X129364855Y-57076545D01*
X130538830Y-44967798D02*
X132470683Y-45485437D01*
X132470683Y-45485437D02*
X131953045Y-47417288D01*
X81474461Y-108110542D02*
X83406314Y-108628181D01*
X81992099Y-106178691D02*
X81474461Y-108110542D01*
X85097928Y-94587581D02*
X84580289Y-96519434D01*
X87029779Y-95105219D02*
X85097928Y-94587581D01*
X93065571Y-111216371D02*
X94997422Y-111734009D01*
X94997422Y-111734009D02*
X95515061Y-109802156D01*
X96689036Y-97693409D02*
X98620889Y-98211048D01*
X98620889Y-98211048D02*
X98103251Y-100142899D01*
X86404960Y-89709652D02*
X88336813Y-90227291D01*
X86922598Y-87777801D02*
X86404960Y-89709652D01*
X90028427Y-76186691D02*
X89510788Y-78118544D01*
X91960278Y-76704329D02*
X90028427Y-76186691D01*
X97996070Y-92815481D02*
X99927921Y-93333119D01*
X99927921Y-93333119D02*
X100445560Y-91401266D01*
X101619535Y-79292519D02*
X103551388Y-79810158D01*
X103551388Y-79810158D02*
X103033750Y-81742009D01*
X91335475Y-71308763D02*
X93267328Y-71826402D01*
X91853113Y-69376912D02*
X91335475Y-71308763D01*
X94958942Y-57785802D02*
X94441303Y-59717655D01*
X96890793Y-58303440D02*
X94958942Y-57785802D01*
X102926585Y-74414592D02*
X104858436Y-74932230D01*
X104858436Y-74932230D02*
X105376075Y-73000377D01*
X106550050Y-60891630D02*
X108481903Y-61409269D01*
X108481903Y-61409269D02*
X107964265Y-63341120D01*
X96265969Y-52907875D02*
X98197822Y-53425514D01*
X96783607Y-50976024D02*
X96265969Y-52907875D01*
X99889436Y-39384914D02*
X99371797Y-41316767D01*
X101821287Y-39902552D02*
X99889436Y-39384914D01*
X107857079Y-56013704D02*
X109788930Y-56531342D01*
X109788930Y-56531342D02*
X110306569Y-54599489D01*
X111480544Y-42490742D02*
X113412397Y-43008381D01*
X113412397Y-43008381D02*
X112894759Y-44940232D01*
D12*
X231298973Y-142971273D02*
X203898973Y-142971273D01*
X231298973Y-115671273D02*
X231298973Y-142971273D01*
X230876973Y-139676273D02*
X207776973Y-139676273D01*
X230876973Y-123076273D02*
X230876973Y-139676273D01*
X222597973Y-142482273D02*
X222597973Y-140069273D01*
X222597973Y-142482273D02*
X212818973Y-142482273D01*
X212818973Y-142482273D02*
X212818973Y-140069273D01*
X212818973Y-140069273D02*
X222597973Y-140069273D01*
X207776973Y-139676273D02*
X204690973Y-139676273D01*
X207776973Y-123076273D02*
X230876973Y-123076273D01*
X207776973Y-123076273D02*
X204436973Y-123051273D01*
X204436973Y-139688273D02*
X204690973Y-139676273D01*
X204436973Y-123051273D02*
X204436973Y-139688273D01*
X203898973Y-142971273D02*
X203898973Y-115671273D01*
X203898973Y-115671273D02*
X231298973Y-115671273D01*
D11*
X226725970Y-95746275D02*
X208945972Y-95746275D01*
X226725970Y-65266275D02*
X226725970Y-95746275D01*
X221645969Y-65266275D02*
X226725970Y-65266275D01*
X208945972Y-65266275D02*
X214025970Y-65266275D01*
X208945972Y-65266275D02*
X208945972Y-95746275D01*
D13*
X225455972Y-66536279D03*
X225455972Y-69076274D03*
X225455971Y-71616273D03*
X225455966Y-74156275D03*
X225455971Y-76696275D03*
X225455970Y-79236275D03*
X225455965Y-81776275D03*
X225455971Y-84316276D03*
X225455970Y-86856278D03*
X225455971Y-89396277D03*
X225455969Y-91936275D03*
X225455973Y-94476275D03*
X210215970Y-94476271D03*
X210215970Y-91936276D03*
X210215971Y-89396277D03*
X210215976Y-86856275D03*
X210215971Y-84316275D03*
X210215972Y-81776275D03*
X210215977Y-79236275D03*
X210215971Y-76696274D03*
X210215972Y-74156272D03*
X210215971Y-71616273D03*
X210215973Y-69076275D03*
D14*
X210215969Y-66536275D03*
M02*
