M48
; DRILL file {KiCad 9.0.7} date 2026-02-21T20:18:25+0900
; FORMAT={-:-/ absolute / metric / decimal}
; #@! TF.CreationDate,2026-02-21T20:18:25+09:00
; #@! TF.GenerationSoftware,Kicad,Pcbnew,9.0.7
; #@! TF.FileFunction,Plated,1,2,PTH
FMAT,2
METRIC
; #@! TA.AperFunction,Plated,PTH,ViaDrill
T1C0.300
; #@! TA.AperFunction,Plated,PTH,ComponentDrill
T2C1.000
; #@! TA.AperFunction,Plated,PTH,ComponentDrill
T3C1.100
%
G90
G05
T1
X83.401Y-106.376
X87.823Y-88.891
X92.538Y-104.305
X92.861Y-69.598
X97.373Y-52.269
X97.633Y-85.291
X101.278Y-74.006
X101.357Y-76.656
X102.26Y-74.269
X102.301Y-86.498
X103.173Y-93.924
X103.346Y-72.119
X103.611Y-69.718
X103.618Y-73.927
X104.927Y-70.202
X106.045Y-70.697
X106.076Y-105.303
X107.0Y-67.865
X107.26Y-76.217
X107.304Y-66.237
X107.634Y-50.285
X110.35Y-80.991
X110.679Y-79.763
X112.035Y-78.155
X112.255Y-72.297
X112.406Y-81.544
X112.537Y-75.659
X113.35Y-73.248
X113.716Y-75.183
X114.015Y-77.502
X116.661Y-84.13
X117.189Y-87.558
X117.671Y-69.472
X119.761Y-51.776
X124.694Y-90.539
X128.094Y-132.422
X130.326Y-110.486
X130.952Y-123.719
X135.285Y-91.353
X138.656Y-80.734
X138.84Y-83.233
X139.638Y-80.997
X140.106Y-103.294
X141.196Y-80.578
X141.198Y-78.474
X141.255Y-75.943
X142.506Y-76.918
X142.854Y-140.453
X143.535Y-112.711
X143.685Y-77.431
X144.39Y-74.793
X144.621Y-94.853
X144.982Y-72.585
X144.982Y-82.644
X145.177Y-56.4
X147.849Y-87.619
X148.213Y-86.402
X148.252Y-133.904
X149.692Y-84.826
X149.788Y-78.935
X150.162Y-87.979
X150.193Y-82.331
X150.984Y-81.833
X151.007Y-79.919
X151.115Y-84.287
X154.092Y-77.659
X154.648Y-94.966
X155.09Y-91.6
X155.185Y-113.476
X157.22Y-59.184
X161.473Y-100.394
X161.577Y-145.927
X163.963Y-87.861
X164.075Y-83.026
X166.306Y-123.414
X167.823Y-99.175
X168.894Y-69.46
X169.006Y-64.626
X169.613Y-63.342
X169.779Y-68.12
X171.4Y-104.4
X171.65Y-83.216
X171.984Y-78.046
X172.684Y-110.879
X173.405Y-94.467
X174.657Y-96.816
X174.73Y-94.296
X176.287Y-88.617
X176.437Y-91.849
X176.611Y-94.143
X176.851Y-112.877
X178.236Y-156.725
X178.71Y-90.235
X179.186Y-126.865
X179.5Y-90.973
X179.979Y-108.14
X180.328Y-88.368
X180.638Y-69.212
X180.666Y-96.676
X180.941Y-85.836
X182.317Y-159.038
X183.29Y-103.636
X183.79Y-101.326
X184.118Y-100.1
X184.463Y-136.48
X184.808Y-91.343
X184.866Y-158.498
X185.36Y-132.644
X185.659Y-98.563
X186.009Y-95.872
X186.03Y-103.713
X186.811Y-95.824
X186.931Y-97.828
X187.411Y-90.827
X189.301Y-130.021
X189.532Y-109.779
X189.592Y-91.731
X189.884Y-125.573
X190.629Y-105.932
X192.058Y-113.533
X192.871Y-73.339
X194.524Y-107.029
X196.66Y-96.359
X196.766Y-110.193
X199.712Y-88.894
X200.863Y-94.659
X201.199Y-102.604
X201.453Y-77.23
X201.453Y-103.62
X201.834Y-104.763
X202.342Y-166.866
X203.534Y-89.474
X203.548Y-88.317
X203.548Y-87.237
X204.445Y-114.801
X204.445Y-113.531
X204.565Y-80.596
X205.418Y-72.016
X205.548Y-83.27
X206.787Y-168.136
X207.908Y-104.001
X208.501Y-76.252
X209.581Y-110.859
X209.835Y-113.526
X210.089Y-169.406
X210.089Y-164.072
X211.994Y-163.437
X212.121Y-67.171
X212.248Y-87.364
X212.629Y-161.786
X212.883Y-99.81
X213.01Y-85.205
X213.391Y-77.331
X213.462Y-114.801
X213.645Y-165.596
X213.708Y-82.856
X213.772Y-99.048
X214.788Y-99.048
X215.105Y-80.062
X216.566Y-74.791
X217.836Y-67.171
X219.625Y-72.344
X219.868Y-95.111
X220.249Y-92.444
X220.757Y-89.904
X221.138Y-118.606
X221.582Y-117.273
X221.784Y-130.175
X222.027Y-116.066
X222.408Y-165.596
X222.535Y-110.224
X222.725Y-162.485
X223.17Y-82.538
X224.313Y-161.786
X224.567Y-136.894
X224.694Y-163.725
X225.202Y-152.261
X225.837Y-110.732
X226.345Y-112.383
X226.535Y-104.065
X226.726Y-164.894
X227.384Y-113.042
X227.868Y-81.776
X227.869Y-78.728
X231.361Y-113.336
X232.06Y-110.859
X232.377Y-120.829
X232.566Y-83.098
X233.139Y-119.559
X234.219Y-115.812
X234.37Y-93.264
X234.443Y-79.308
X235.777Y-72.508
X235.997Y-120.71
X239.356Y-96.662
X240.179Y-114.454
X240.468Y-89.527
X242.634Y-73.563
X244.55Y-116.044
X245.366Y-107.805
X245.386Y-130.94
X248.234Y-91.522
X248.615Y-98.831
X248.972Y-133.529
X249.776Y-97.378
X250.004Y-86.84
X250.084Y-126.394
X250.556Y-99.709
X250.732Y-96.374
X250.76Y-89.661
X251.035Y-107.863
X251.357Y-92.131
X255.407Y-69.291
X255.422Y-95.775
X256.38Y-126.894
X258.311Y-91.221
X259.347Y-114.84
X259.955Y-93.311
X259.975Y-97.841
X260.303Y-99.068
X260.46Y-87.588
X260.519Y-95.724
X261.589Y-124.912
X261.622Y-94.377
X262.614Y-151.694
X263.284Y-98.933
X263.621Y-93.797
X267.437Y-116.885
X268.319Y-98.833
X269.601Y-103.617
X273.041Y-116.698
X274.715Y-120.983
X277.733Y-59.377
X278.988Y-120.467
X279.688Y-118.258
X280.996Y-143.69
X283.19Y-90.793
X283.277Y-77.613
X283.687Y-134.655
X283.986Y-85.168
X285.104Y-83.877
X285.622Y-72.563
X286.091Y-86.12
X286.412Y-82.87
X286.465Y-75.953
X286.937Y-93.725
X287.233Y-78.813
X291.049Y-82.021
X291.666Y-56.42
X292.031Y-112.739
X293.789Y-78.263
X295.28Y-79.902
X295.434Y-75.324
X295.665Y-103.662
X295.79Y-84.3
X296.119Y-85.527
X296.168Y-82.264
X296.947Y-80.967
X298.125Y-80.227
X298.8Y-110.815
X299.527Y-86.987
X302.977Y-85.142
X303.581Y-104.57
X304.194Y-86.985
X305.336Y-90.755
X309.074Y-104.216
X309.952Y-121.909
X310.311Y-109.078
X312.186Y-134.665
X315.192Y-51.969
X318.903Y-108.573
X320.263Y-80.081
X320.736Y-70.206
X321.329Y-77.327
X322.515Y-77.272
X323.36Y-65.212
X323.79Y-76.141
X324.133Y-69.081
X324.396Y-86.317
X324.448Y-78.595
X324.83Y-71.918
X328.918Y-75.162
X329.453Y-50.24
X329.491Y-105.332
X332.556Y-93.646
X332.598Y-70.314
X332.982Y-73.152
X333.779Y-69.257
X334.03Y-75.288
X335.028Y-73.919
X337.094Y-80.471
X341.459Y-98.234
X342.264Y-80.137
X342.868Y-69.32
X343.414Y-84.431
X346.973Y-98.203
X347.559Y-86.339
X348.222Y-102.865
X351.448Y-106.32
X352.237Y-109.264
T2
X213.899Y-141.271
X216.439Y-141.271
X218.979Y-141.271
X221.519Y-141.271
T3
X210.216Y-66.536
X210.216Y-91.936
X210.216Y-94.476
X210.216Y-71.616
X210.216Y-76.696
X210.216Y-84.316
X210.216Y-89.396
X210.216Y-74.156
X210.216Y-81.776
X210.216Y-69.076
X210.216Y-86.856
X210.216Y-79.236
X225.456Y-81.776
X225.456Y-74.156
X225.456Y-91.936
X225.456Y-79.236
X225.456Y-86.856
X225.456Y-71.616
X225.456Y-76.696
X225.456Y-84.316
X225.456Y-89.396
X225.456Y-66.536
X225.456Y-69.076
X225.456Y-94.476
M30
