%TF.GenerationSoftware,KiCad,Pcbnew,9.0.7*%
%TF.CreationDate,2026-02-21T19:36:55+09:00*%
%TF.ProjectId,mcu-cover,6d63752d-636f-4766-9572-2e6b69636164,rev?*%
%TF.SameCoordinates,Original*%
%TF.FileFunction,Drillmap*%
%TF.FilePolarity,Positive*%
%FSLAX45Y45*%
G04 Gerber Fmt 4.5, Leading zero omitted, Abs format (unit mm)*
G04 Created by KiCad (PCBNEW 9.0.7) date 2026-02-21 19:36:55*
%MOMM*%
%LPD*%
G01*
G04 APERTURE LIST*
%ADD10C,0.050000*%
%ADD11C,0.200000*%
G04 APERTURE END LIST*
D10*
X13253720Y-12984480D02*
X13253720Y-11320780D01*
X13705840Y-5542280D02*
X15483840Y-5542280D01*
X15900400Y-11320780D02*
X15900400Y-12984480D01*
X17594580Y-13418820D02*
X15486380Y-14894560D01*
X15483840Y-5542280D02*
X17594580Y-13418820D01*
X11592560Y-13423900D02*
X13692420Y-14894560D01*
X13253720Y-11320780D02*
X15900400Y-11320780D01*
X15900400Y-12984480D02*
X13253720Y-12984480D01*
X13705840Y-5542280D02*
X11592560Y-13423900D01*
X15486380Y-14894560D02*
X13693140Y-14894560D01*
D11*
X11850837Y-15208544D02*
X11850837Y-15008544D01*
X11850837Y-15008544D02*
X11898456Y-15008544D01*
X11898456Y-15008544D02*
X11927027Y-15018068D01*
X11927027Y-15018068D02*
X11946075Y-15037115D01*
X11946075Y-15037115D02*
X11955599Y-15056163D01*
X11955599Y-15056163D02*
X11965122Y-15094258D01*
X11965122Y-15094258D02*
X11965122Y-15122829D01*
X11965122Y-15122829D02*
X11955599Y-15160925D01*
X11955599Y-15160925D02*
X11946075Y-15179972D01*
X11946075Y-15179972D02*
X11927027Y-15199020D01*
X11927027Y-15199020D02*
X11898456Y-15208544D01*
X11898456Y-15208544D02*
X11850837Y-15208544D01*
X12050837Y-15208544D02*
X12050837Y-15075210D01*
X12050837Y-15113306D02*
X12060361Y-15094258D01*
X12060361Y-15094258D02*
X12069884Y-15084734D01*
X12069884Y-15084734D02*
X12088932Y-15075210D01*
X12088932Y-15075210D02*
X12107980Y-15075210D01*
X12174646Y-15208544D02*
X12174646Y-15075210D01*
X12174646Y-15008544D02*
X12165122Y-15018068D01*
X12165122Y-15018068D02*
X12174646Y-15027591D01*
X12174646Y-15027591D02*
X12184170Y-15018068D01*
X12184170Y-15018068D02*
X12174646Y-15008544D01*
X12174646Y-15008544D02*
X12174646Y-15027591D01*
X12298456Y-15208544D02*
X12279408Y-15199020D01*
X12279408Y-15199020D02*
X12269884Y-15179972D01*
X12269884Y-15179972D02*
X12269884Y-15008544D01*
X12403218Y-15208544D02*
X12384170Y-15199020D01*
X12384170Y-15199020D02*
X12374646Y-15179972D01*
X12374646Y-15179972D02*
X12374646Y-15008544D01*
X12631789Y-15208544D02*
X12631789Y-15008544D01*
X12631789Y-15008544D02*
X12698456Y-15151401D01*
X12698456Y-15151401D02*
X12765122Y-15008544D01*
X12765122Y-15008544D02*
X12765122Y-15208544D01*
X12946075Y-15208544D02*
X12946075Y-15103782D01*
X12946075Y-15103782D02*
X12936551Y-15084734D01*
X12936551Y-15084734D02*
X12917503Y-15075210D01*
X12917503Y-15075210D02*
X12879408Y-15075210D01*
X12879408Y-15075210D02*
X12860361Y-15084734D01*
X12946075Y-15199020D02*
X12927027Y-15208544D01*
X12927027Y-15208544D02*
X12879408Y-15208544D01*
X12879408Y-15208544D02*
X12860361Y-15199020D01*
X12860361Y-15199020D02*
X12850837Y-15179972D01*
X12850837Y-15179972D02*
X12850837Y-15160925D01*
X12850837Y-15160925D02*
X12860361Y-15141877D01*
X12860361Y-15141877D02*
X12879408Y-15132353D01*
X12879408Y-15132353D02*
X12927027Y-15132353D01*
X12927027Y-15132353D02*
X12946075Y-15122829D01*
X13041313Y-15075210D02*
X13041313Y-15275210D01*
X13041313Y-15084734D02*
X13060361Y-15075210D01*
X13060361Y-15075210D02*
X13098456Y-15075210D01*
X13098456Y-15075210D02*
X13117503Y-15084734D01*
X13117503Y-15084734D02*
X13127027Y-15094258D01*
X13127027Y-15094258D02*
X13136551Y-15113306D01*
X13136551Y-15113306D02*
X13136551Y-15170448D01*
X13136551Y-15170448D02*
X13127027Y-15189496D01*
X13127027Y-15189496D02*
X13117503Y-15199020D01*
X13117503Y-15199020D02*
X13098456Y-15208544D01*
X13098456Y-15208544D02*
X13060361Y-15208544D01*
X13060361Y-15208544D02*
X13041313Y-15199020D01*
X13222265Y-15189496D02*
X13231789Y-15199020D01*
X13231789Y-15199020D02*
X13222265Y-15208544D01*
X13222265Y-15208544D02*
X13212742Y-15199020D01*
X13212742Y-15199020D02*
X13222265Y-15189496D01*
X13222265Y-15189496D02*
X13222265Y-15208544D01*
X13222265Y-15084734D02*
X13231789Y-15094258D01*
X13231789Y-15094258D02*
X13222265Y-15103782D01*
X13222265Y-15103782D02*
X13212742Y-15094258D01*
X13212742Y-15094258D02*
X13222265Y-15084734D01*
X13222265Y-15084734D02*
X13222265Y-15103782D01*
M02*
