%TF.GenerationSoftware,KiCad,Pcbnew,9.0.7*%
%TF.CreationDate,2026-02-21T19:36:55+09:00*%
%TF.ProjectId,mcu-cover,6d63752d-636f-4766-9572-2e6b69636164,rev?*%
%TF.SameCoordinates,Original*%
%TF.FileFunction,Drillmap*%
%TF.FilePolarity,Positive*%
%FSLAX45Y45*%
G04 Gerber Fmt 4.5, Leading zero omitted, Abs format (unit mm)*
G04 Created by KiCad (PCBNEW 9.0.7) date 2026-02-21 19:36:55*
%MOMM*%
%LPD*%
G01*
G04 APERTURE LIST*
%ADD10C,0.050000*%
%ADD11C,0.200000*%
%ADD12C,0.220000*%
G04 APERTURE END LIST*
D10*
X13253720Y-12984480D02*
X13253720Y-11320780D01*
X13705840Y-5542280D02*
X15483840Y-5542280D01*
X15900400Y-11320780D02*
X15900400Y-12984480D01*
X17594580Y-13418820D02*
X15486380Y-14894560D01*
X15483840Y-5542280D02*
X17594580Y-13418820D01*
X11592560Y-13423900D02*
X13692420Y-14894560D01*
X13253720Y-11320780D02*
X15900400Y-11320780D01*
X15900400Y-12984480D02*
X13253720Y-12984480D01*
X13705840Y-5542280D02*
X11592560Y-13423900D01*
X15486380Y-14894560D02*
X13693140Y-14894560D01*
D11*
D12*
X12135244Y-13053756D02*
X12355244Y-13273756D01*
X12355244Y-13053756D02*
X12135244Y-13273756D01*
X13214744Y-8227757D02*
X13434744Y-8447757D01*
X13434744Y-8227757D02*
X13214744Y-8447757D01*
X15754744Y-8227757D02*
X15974744Y-8447757D01*
X15974744Y-8227757D02*
X15754744Y-8447757D01*
X16834243Y-13053758D02*
X17054243Y-13273758D01*
X17054243Y-13053758D02*
X16834243Y-13273758D01*
D11*
X11850837Y-15208544D02*
X11850837Y-15008544D01*
X11850837Y-15008544D02*
X11898456Y-15008544D01*
X11898456Y-15008544D02*
X11927027Y-15018068D01*
X11927027Y-15018068D02*
X11946075Y-15037115D01*
X11946075Y-15037115D02*
X11955599Y-15056163D01*
X11955599Y-15056163D02*
X11965122Y-15094258D01*
X11965122Y-15094258D02*
X11965122Y-15122829D01*
X11965122Y-15122829D02*
X11955599Y-15160925D01*
X11955599Y-15160925D02*
X11946075Y-15179972D01*
X11946075Y-15179972D02*
X11927027Y-15199020D01*
X11927027Y-15199020D02*
X11898456Y-15208544D01*
X11898456Y-15208544D02*
X11850837Y-15208544D01*
X12050837Y-15208544D02*
X12050837Y-15075210D01*
X12050837Y-15113306D02*
X12060361Y-15094258D01*
X12060361Y-15094258D02*
X12069884Y-15084734D01*
X12069884Y-15084734D02*
X12088932Y-15075210D01*
X12088932Y-15075210D02*
X12107980Y-15075210D01*
X12174646Y-15208544D02*
X12174646Y-15075210D01*
X12174646Y-15008544D02*
X12165122Y-15018068D01*
X12165122Y-15018068D02*
X12174646Y-15027591D01*
X12174646Y-15027591D02*
X12184170Y-15018068D01*
X12184170Y-15018068D02*
X12174646Y-15008544D01*
X12174646Y-15008544D02*
X12174646Y-15027591D01*
X12298456Y-15208544D02*
X12279408Y-15199020D01*
X12279408Y-15199020D02*
X12269884Y-15179972D01*
X12269884Y-15179972D02*
X12269884Y-15008544D01*
X12403218Y-15208544D02*
X12384170Y-15199020D01*
X12384170Y-15199020D02*
X12374646Y-15179972D01*
X12374646Y-15179972D02*
X12374646Y-15008544D01*
X12631789Y-15208544D02*
X12631789Y-15008544D01*
X12631789Y-15008544D02*
X12698456Y-15151401D01*
X12698456Y-15151401D02*
X12765122Y-15008544D01*
X12765122Y-15008544D02*
X12765122Y-15208544D01*
X12946075Y-15208544D02*
X12946075Y-15103782D01*
X12946075Y-15103782D02*
X12936551Y-15084734D01*
X12936551Y-15084734D02*
X12917503Y-15075210D01*
X12917503Y-15075210D02*
X12879408Y-15075210D01*
X12879408Y-15075210D02*
X12860361Y-15084734D01*
X12946075Y-15199020D02*
X12927027Y-15208544D01*
X12927027Y-15208544D02*
X12879408Y-15208544D01*
X12879408Y-15208544D02*
X12860361Y-15199020D01*
X12860361Y-15199020D02*
X12850837Y-15179972D01*
X12850837Y-15179972D02*
X12850837Y-15160925D01*
X12850837Y-15160925D02*
X12860361Y-15141877D01*
X12860361Y-15141877D02*
X12879408Y-15132353D01*
X12879408Y-15132353D02*
X12927027Y-15132353D01*
X12927027Y-15132353D02*
X12946075Y-15122829D01*
X13041313Y-15075210D02*
X13041313Y-15275210D01*
X13041313Y-15084734D02*
X13060361Y-15075210D01*
X13060361Y-15075210D02*
X13098456Y-15075210D01*
X13098456Y-15075210D02*
X13117503Y-15084734D01*
X13117503Y-15084734D02*
X13127027Y-15094258D01*
X13127027Y-15094258D02*
X13136551Y-15113306D01*
X13136551Y-15113306D02*
X13136551Y-15170448D01*
X13136551Y-15170448D02*
X13127027Y-15189496D01*
X13127027Y-15189496D02*
X13117503Y-15199020D01*
X13117503Y-15199020D02*
X13098456Y-15208544D01*
X13098456Y-15208544D02*
X13060361Y-15208544D01*
X13060361Y-15208544D02*
X13041313Y-15199020D01*
X13222265Y-15189496D02*
X13231789Y-15199020D01*
X13231789Y-15199020D02*
X13222265Y-15208544D01*
X13222265Y-15208544D02*
X13212742Y-15199020D01*
X13212742Y-15199020D02*
X13222265Y-15189496D01*
X13222265Y-15189496D02*
X13222265Y-15208544D01*
X13222265Y-15084734D02*
X13231789Y-15094258D01*
X13231789Y-15094258D02*
X13222265Y-15103782D01*
X13222265Y-15103782D02*
X13212742Y-15094258D01*
X13212742Y-15094258D02*
X13222265Y-15084734D01*
X13222265Y-15084734D02*
X13222265Y-15103782D01*
X11390060Y-15437060D02*
X11590060Y-15637060D01*
X11590060Y-15437060D02*
X11390060Y-15637060D01*
X11841313Y-15447591D02*
X11850837Y-15438068D01*
X11850837Y-15438068D02*
X11869884Y-15428544D01*
X11869884Y-15428544D02*
X11917503Y-15428544D01*
X11917503Y-15428544D02*
X11936551Y-15438068D01*
X11936551Y-15438068D02*
X11946075Y-15447591D01*
X11946075Y-15447591D02*
X11955599Y-15466639D01*
X11955599Y-15466639D02*
X11955599Y-15485687D01*
X11955599Y-15485687D02*
X11946075Y-15514258D01*
X11946075Y-15514258D02*
X11831789Y-15628544D01*
X11831789Y-15628544D02*
X11955599Y-15628544D01*
X12041313Y-15609496D02*
X12050837Y-15619020D01*
X12050837Y-15619020D02*
X12041313Y-15628544D01*
X12041313Y-15628544D02*
X12031789Y-15619020D01*
X12031789Y-15619020D02*
X12041313Y-15609496D01*
X12041313Y-15609496D02*
X12041313Y-15628544D01*
X12127027Y-15447591D02*
X12136551Y-15438068D01*
X12136551Y-15438068D02*
X12155599Y-15428544D01*
X12155599Y-15428544D02*
X12203218Y-15428544D01*
X12203218Y-15428544D02*
X12222265Y-15438068D01*
X12222265Y-15438068D02*
X12231789Y-15447591D01*
X12231789Y-15447591D02*
X12241313Y-15466639D01*
X12241313Y-15466639D02*
X12241313Y-15485687D01*
X12241313Y-15485687D02*
X12231789Y-15514258D01*
X12231789Y-15514258D02*
X12117503Y-15628544D01*
X12117503Y-15628544D02*
X12241313Y-15628544D01*
X12365122Y-15428544D02*
X12384170Y-15428544D01*
X12384170Y-15428544D02*
X12403218Y-15438068D01*
X12403218Y-15438068D02*
X12412742Y-15447591D01*
X12412742Y-15447591D02*
X12422265Y-15466639D01*
X12422265Y-15466639D02*
X12431789Y-15504734D01*
X12431789Y-15504734D02*
X12431789Y-15552353D01*
X12431789Y-15552353D02*
X12422265Y-15590448D01*
X12422265Y-15590448D02*
X12412742Y-15609496D01*
X12412742Y-15609496D02*
X12403218Y-15619020D01*
X12403218Y-15619020D02*
X12384170Y-15628544D01*
X12384170Y-15628544D02*
X12365122Y-15628544D01*
X12365122Y-15628544D02*
X12346075Y-15619020D01*
X12346075Y-15619020D02*
X12336551Y-15609496D01*
X12336551Y-15609496D02*
X12327027Y-15590448D01*
X12327027Y-15590448D02*
X12317503Y-15552353D01*
X12317503Y-15552353D02*
X12317503Y-15504734D01*
X12317503Y-15504734D02*
X12327027Y-15466639D01*
X12327027Y-15466639D02*
X12336551Y-15447591D01*
X12336551Y-15447591D02*
X12346075Y-15438068D01*
X12346075Y-15438068D02*
X12365122Y-15428544D01*
X12555599Y-15428544D02*
X12574646Y-15428544D01*
X12574646Y-15428544D02*
X12593694Y-15438068D01*
X12593694Y-15438068D02*
X12603218Y-15447591D01*
X12603218Y-15447591D02*
X12612742Y-15466639D01*
X12612742Y-15466639D02*
X12622265Y-15504734D01*
X12622265Y-15504734D02*
X12622265Y-15552353D01*
X12622265Y-15552353D02*
X12612742Y-15590448D01*
X12612742Y-15590448D02*
X12603218Y-15609496D01*
X12603218Y-15609496D02*
X12593694Y-15619020D01*
X12593694Y-15619020D02*
X12574646Y-15628544D01*
X12574646Y-15628544D02*
X12555599Y-15628544D01*
X12555599Y-15628544D02*
X12536551Y-15619020D01*
X12536551Y-15619020D02*
X12527027Y-15609496D01*
X12527027Y-15609496D02*
X12517503Y-15590448D01*
X12517503Y-15590448D02*
X12507980Y-15552353D01*
X12507980Y-15552353D02*
X12507980Y-15504734D01*
X12507980Y-15504734D02*
X12517503Y-15466639D01*
X12517503Y-15466639D02*
X12527027Y-15447591D01*
X12527027Y-15447591D02*
X12536551Y-15438068D01*
X12536551Y-15438068D02*
X12555599Y-15428544D01*
X12707980Y-15628544D02*
X12707980Y-15495210D01*
X12707980Y-15514258D02*
X12717503Y-15504734D01*
X12717503Y-15504734D02*
X12736551Y-15495210D01*
X12736551Y-15495210D02*
X12765123Y-15495210D01*
X12765123Y-15495210D02*
X12784170Y-15504734D01*
X12784170Y-15504734D02*
X12793694Y-15523782D01*
X12793694Y-15523782D02*
X12793694Y-15628544D01*
X12793694Y-15523782D02*
X12803218Y-15504734D01*
X12803218Y-15504734D02*
X12822265Y-15495210D01*
X12822265Y-15495210D02*
X12850837Y-15495210D01*
X12850837Y-15495210D02*
X12869884Y-15504734D01*
X12869884Y-15504734D02*
X12879408Y-15523782D01*
X12879408Y-15523782D02*
X12879408Y-15628544D01*
X12974646Y-15628544D02*
X12974646Y-15495210D01*
X12974646Y-15514258D02*
X12984170Y-15504734D01*
X12984170Y-15504734D02*
X13003218Y-15495210D01*
X13003218Y-15495210D02*
X13031789Y-15495210D01*
X13031789Y-15495210D02*
X13050837Y-15504734D01*
X13050837Y-15504734D02*
X13060361Y-15523782D01*
X13060361Y-15523782D02*
X13060361Y-15628544D01*
X13060361Y-15523782D02*
X13069884Y-15504734D01*
X13069884Y-15504734D02*
X13088932Y-15495210D01*
X13088932Y-15495210D02*
X13117503Y-15495210D01*
X13117503Y-15495210D02*
X13136551Y-15504734D01*
X13136551Y-15504734D02*
X13146075Y-15523782D01*
X13146075Y-15523782D02*
X13146075Y-15628544D01*
X13536551Y-15419020D02*
X13365123Y-15676163D01*
X13793694Y-15428544D02*
X13812742Y-15428544D01*
X13812742Y-15428544D02*
X13831789Y-15438068D01*
X13831789Y-15438068D02*
X13841313Y-15447591D01*
X13841313Y-15447591D02*
X13850837Y-15466639D01*
X13850837Y-15466639D02*
X13860361Y-15504734D01*
X13860361Y-15504734D02*
X13860361Y-15552353D01*
X13860361Y-15552353D02*
X13850837Y-15590448D01*
X13850837Y-15590448D02*
X13841313Y-15609496D01*
X13841313Y-15609496D02*
X13831789Y-15619020D01*
X13831789Y-15619020D02*
X13812742Y-15628544D01*
X13812742Y-15628544D02*
X13793694Y-15628544D01*
X13793694Y-15628544D02*
X13774646Y-15619020D01*
X13774646Y-15619020D02*
X13765123Y-15609496D01*
X13765123Y-15609496D02*
X13755599Y-15590448D01*
X13755599Y-15590448D02*
X13746075Y-15552353D01*
X13746075Y-15552353D02*
X13746075Y-15504734D01*
X13746075Y-15504734D02*
X13755599Y-15466639D01*
X13755599Y-15466639D02*
X13765123Y-15447591D01*
X13765123Y-15447591D02*
X13774646Y-15438068D01*
X13774646Y-15438068D02*
X13793694Y-15428544D01*
X13946075Y-15609496D02*
X13955599Y-15619020D01*
X13955599Y-15619020D02*
X13946075Y-15628544D01*
X13946075Y-15628544D02*
X13936551Y-15619020D01*
X13936551Y-15619020D02*
X13946075Y-15609496D01*
X13946075Y-15609496D02*
X13946075Y-15628544D01*
X14079408Y-15428544D02*
X14098456Y-15428544D01*
X14098456Y-15428544D02*
X14117504Y-15438068D01*
X14117504Y-15438068D02*
X14127027Y-15447591D01*
X14127027Y-15447591D02*
X14136551Y-15466639D01*
X14136551Y-15466639D02*
X14146075Y-15504734D01*
X14146075Y-15504734D02*
X14146075Y-15552353D01*
X14146075Y-15552353D02*
X14136551Y-15590448D01*
X14136551Y-15590448D02*
X14127027Y-15609496D01*
X14127027Y-15609496D02*
X14117504Y-15619020D01*
X14117504Y-15619020D02*
X14098456Y-15628544D01*
X14098456Y-15628544D02*
X14079408Y-15628544D01*
X14079408Y-15628544D02*
X14060361Y-15619020D01*
X14060361Y-15619020D02*
X14050837Y-15609496D01*
X14050837Y-15609496D02*
X14041313Y-15590448D01*
X14041313Y-15590448D02*
X14031789Y-15552353D01*
X14031789Y-15552353D02*
X14031789Y-15504734D01*
X14031789Y-15504734D02*
X14041313Y-15466639D01*
X14041313Y-15466639D02*
X14050837Y-15447591D01*
X14050837Y-15447591D02*
X14060361Y-15438068D01*
X14060361Y-15438068D02*
X14079408Y-15428544D01*
X14260361Y-15514258D02*
X14241313Y-15504734D01*
X14241313Y-15504734D02*
X14231789Y-15495210D01*
X14231789Y-15495210D02*
X14222266Y-15476163D01*
X14222266Y-15476163D02*
X14222266Y-15466639D01*
X14222266Y-15466639D02*
X14231789Y-15447591D01*
X14231789Y-15447591D02*
X14241313Y-15438068D01*
X14241313Y-15438068D02*
X14260361Y-15428544D01*
X14260361Y-15428544D02*
X14298456Y-15428544D01*
X14298456Y-15428544D02*
X14317504Y-15438068D01*
X14317504Y-15438068D02*
X14327027Y-15447591D01*
X14327027Y-15447591D02*
X14336551Y-15466639D01*
X14336551Y-15466639D02*
X14336551Y-15476163D01*
X14336551Y-15476163D02*
X14327027Y-15495210D01*
X14327027Y-15495210D02*
X14317504Y-15504734D01*
X14317504Y-15504734D02*
X14298456Y-15514258D01*
X14298456Y-15514258D02*
X14260361Y-15514258D01*
X14260361Y-15514258D02*
X14241313Y-15523782D01*
X14241313Y-15523782D02*
X14231789Y-15533306D01*
X14231789Y-15533306D02*
X14222266Y-15552353D01*
X14222266Y-15552353D02*
X14222266Y-15590448D01*
X14222266Y-15590448D02*
X14231789Y-15609496D01*
X14231789Y-15609496D02*
X14241313Y-15619020D01*
X14241313Y-15619020D02*
X14260361Y-15628544D01*
X14260361Y-15628544D02*
X14298456Y-15628544D01*
X14298456Y-15628544D02*
X14317504Y-15619020D01*
X14317504Y-15619020D02*
X14327027Y-15609496D01*
X14327027Y-15609496D02*
X14336551Y-15590448D01*
X14336551Y-15590448D02*
X14336551Y-15552353D01*
X14336551Y-15552353D02*
X14327027Y-15533306D01*
X14327027Y-15533306D02*
X14317504Y-15523782D01*
X14317504Y-15523782D02*
X14298456Y-15514258D01*
X14507980Y-15428544D02*
X14469885Y-15428544D01*
X14469885Y-15428544D02*
X14450837Y-15438068D01*
X14450837Y-15438068D02*
X14441313Y-15447591D01*
X14441313Y-15447591D02*
X14422266Y-15476163D01*
X14422266Y-15476163D02*
X14412742Y-15514258D01*
X14412742Y-15514258D02*
X14412742Y-15590448D01*
X14412742Y-15590448D02*
X14422266Y-15609496D01*
X14422266Y-15609496D02*
X14431789Y-15619020D01*
X14431789Y-15619020D02*
X14450837Y-15628544D01*
X14450837Y-15628544D02*
X14488932Y-15628544D01*
X14488932Y-15628544D02*
X14507980Y-15619020D01*
X14507980Y-15619020D02*
X14517504Y-15609496D01*
X14517504Y-15609496D02*
X14527027Y-15590448D01*
X14527027Y-15590448D02*
X14527027Y-15542829D01*
X14527027Y-15542829D02*
X14517504Y-15523782D01*
X14517504Y-15523782D02*
X14507980Y-15514258D01*
X14507980Y-15514258D02*
X14488932Y-15504734D01*
X14488932Y-15504734D02*
X14450837Y-15504734D01*
X14450837Y-15504734D02*
X14431789Y-15514258D01*
X14431789Y-15514258D02*
X14422266Y-15523782D01*
X14422266Y-15523782D02*
X14412742Y-15542829D01*
X14698456Y-15428544D02*
X14660361Y-15428544D01*
X14660361Y-15428544D02*
X14641313Y-15438068D01*
X14641313Y-15438068D02*
X14631789Y-15447591D01*
X14631789Y-15447591D02*
X14612742Y-15476163D01*
X14612742Y-15476163D02*
X14603218Y-15514258D01*
X14603218Y-15514258D02*
X14603218Y-15590448D01*
X14603218Y-15590448D02*
X14612742Y-15609496D01*
X14612742Y-15609496D02*
X14622266Y-15619020D01*
X14622266Y-15619020D02*
X14641313Y-15628544D01*
X14641313Y-15628544D02*
X14679408Y-15628544D01*
X14679408Y-15628544D02*
X14698456Y-15619020D01*
X14698456Y-15619020D02*
X14707980Y-15609496D01*
X14707980Y-15609496D02*
X14717504Y-15590448D01*
X14717504Y-15590448D02*
X14717504Y-15542829D01*
X14717504Y-15542829D02*
X14707980Y-15523782D01*
X14707980Y-15523782D02*
X14698456Y-15514258D01*
X14698456Y-15514258D02*
X14679408Y-15504734D01*
X14679408Y-15504734D02*
X14641313Y-15504734D01*
X14641313Y-15504734D02*
X14622266Y-15514258D01*
X14622266Y-15514258D02*
X14612742Y-15523782D01*
X14612742Y-15523782D02*
X14603218Y-15542829D01*
X14793694Y-15428544D02*
X14793694Y-15466639D01*
X14869885Y-15428544D02*
X14869885Y-15466639D01*
X15165123Y-15704734D02*
X15155599Y-15695210D01*
X15155599Y-15695210D02*
X15136551Y-15666639D01*
X15136551Y-15666639D02*
X15127028Y-15647591D01*
X15127028Y-15647591D02*
X15117504Y-15619020D01*
X15117504Y-15619020D02*
X15107980Y-15571401D01*
X15107980Y-15571401D02*
X15107980Y-15533306D01*
X15107980Y-15533306D02*
X15117504Y-15485687D01*
X15117504Y-15485687D02*
X15127028Y-15457115D01*
X15127028Y-15457115D02*
X15136551Y-15438068D01*
X15136551Y-15438068D02*
X15155599Y-15409496D01*
X15155599Y-15409496D02*
X15165123Y-15399972D01*
X15327028Y-15495210D02*
X15327028Y-15628544D01*
X15279408Y-15419020D02*
X15231789Y-15561877D01*
X15231789Y-15561877D02*
X15355599Y-15561877D01*
X15584170Y-15628544D02*
X15584170Y-15428544D01*
X15669885Y-15628544D02*
X15669885Y-15523782D01*
X15669885Y-15523782D02*
X15660361Y-15504734D01*
X15660361Y-15504734D02*
X15641313Y-15495210D01*
X15641313Y-15495210D02*
X15612742Y-15495210D01*
X15612742Y-15495210D02*
X15593694Y-15504734D01*
X15593694Y-15504734D02*
X15584170Y-15514258D01*
X15793694Y-15628544D02*
X15774647Y-15619020D01*
X15774647Y-15619020D02*
X15765123Y-15609496D01*
X15765123Y-15609496D02*
X15755599Y-15590448D01*
X15755599Y-15590448D02*
X15755599Y-15533306D01*
X15755599Y-15533306D02*
X15765123Y-15514258D01*
X15765123Y-15514258D02*
X15774647Y-15504734D01*
X15774647Y-15504734D02*
X15793694Y-15495210D01*
X15793694Y-15495210D02*
X15822266Y-15495210D01*
X15822266Y-15495210D02*
X15841313Y-15504734D01*
X15841313Y-15504734D02*
X15850837Y-15514258D01*
X15850837Y-15514258D02*
X15860361Y-15533306D01*
X15860361Y-15533306D02*
X15860361Y-15590448D01*
X15860361Y-15590448D02*
X15850837Y-15609496D01*
X15850837Y-15609496D02*
X15841313Y-15619020D01*
X15841313Y-15619020D02*
X15822266Y-15628544D01*
X15822266Y-15628544D02*
X15793694Y-15628544D01*
X15974647Y-15628544D02*
X15955599Y-15619020D01*
X15955599Y-15619020D02*
X15946075Y-15599972D01*
X15946075Y-15599972D02*
X15946075Y-15428544D01*
X16127028Y-15619020D02*
X16107980Y-15628544D01*
X16107980Y-15628544D02*
X16069885Y-15628544D01*
X16069885Y-15628544D02*
X16050837Y-15619020D01*
X16050837Y-15619020D02*
X16041313Y-15599972D01*
X16041313Y-15599972D02*
X16041313Y-15523782D01*
X16041313Y-15523782D02*
X16050837Y-15504734D01*
X16050837Y-15504734D02*
X16069885Y-15495210D01*
X16069885Y-15495210D02*
X16107980Y-15495210D01*
X16107980Y-15495210D02*
X16127028Y-15504734D01*
X16127028Y-15504734D02*
X16136551Y-15523782D01*
X16136551Y-15523782D02*
X16136551Y-15542829D01*
X16136551Y-15542829D02*
X16041313Y-15561877D01*
X16212742Y-15619020D02*
X16231790Y-15628544D01*
X16231790Y-15628544D02*
X16269885Y-15628544D01*
X16269885Y-15628544D02*
X16288932Y-15619020D01*
X16288932Y-15619020D02*
X16298456Y-15599972D01*
X16298456Y-15599972D02*
X16298456Y-15590448D01*
X16298456Y-15590448D02*
X16288932Y-15571401D01*
X16288932Y-15571401D02*
X16269885Y-15561877D01*
X16269885Y-15561877D02*
X16241313Y-15561877D01*
X16241313Y-15561877D02*
X16222266Y-15552353D01*
X16222266Y-15552353D02*
X16212742Y-15533306D01*
X16212742Y-15533306D02*
X16212742Y-15523782D01*
X16212742Y-15523782D02*
X16222266Y-15504734D01*
X16222266Y-15504734D02*
X16241313Y-15495210D01*
X16241313Y-15495210D02*
X16269885Y-15495210D01*
X16269885Y-15495210D02*
X16288932Y-15504734D01*
X16365123Y-15704734D02*
X16374647Y-15695210D01*
X16374647Y-15695210D02*
X16393694Y-15666639D01*
X16393694Y-15666639D02*
X16403218Y-15647591D01*
X16403218Y-15647591D02*
X16412742Y-15619020D01*
X16412742Y-15619020D02*
X16422266Y-15571401D01*
X16422266Y-15571401D02*
X16422266Y-15533306D01*
X16422266Y-15533306D02*
X16412742Y-15485687D01*
X16412742Y-15485687D02*
X16403218Y-15457115D01*
X16403218Y-15457115D02*
X16393694Y-15438068D01*
X16393694Y-15438068D02*
X16374647Y-15409496D01*
X16374647Y-15409496D02*
X16365123Y-15399972D01*
X16727028Y-15704734D02*
X16717504Y-15695210D01*
X16717504Y-15695210D02*
X16698456Y-15666639D01*
X16698456Y-15666639D02*
X16688932Y-15647591D01*
X16688932Y-15647591D02*
X16679409Y-15619020D01*
X16679409Y-15619020D02*
X16669885Y-15571401D01*
X16669885Y-15571401D02*
X16669885Y-15533306D01*
X16669885Y-15533306D02*
X16679409Y-15485687D01*
X16679409Y-15485687D02*
X16688932Y-15457115D01*
X16688932Y-15457115D02*
X16698456Y-15438068D01*
X16698456Y-15438068D02*
X16717504Y-15409496D01*
X16717504Y-15409496D02*
X16727028Y-15399972D01*
X16803218Y-15495210D02*
X16803218Y-15628544D01*
X16803218Y-15514258D02*
X16812742Y-15504734D01*
X16812742Y-15504734D02*
X16831790Y-15495210D01*
X16831790Y-15495210D02*
X16860361Y-15495210D01*
X16860361Y-15495210D02*
X16879409Y-15504734D01*
X16879409Y-15504734D02*
X16888933Y-15523782D01*
X16888933Y-15523782D02*
X16888933Y-15628544D01*
X17012742Y-15628544D02*
X16993694Y-15619020D01*
X16993694Y-15619020D02*
X16984171Y-15609496D01*
X16984171Y-15609496D02*
X16974647Y-15590448D01*
X16974647Y-15590448D02*
X16974647Y-15533306D01*
X16974647Y-15533306D02*
X16984171Y-15514258D01*
X16984171Y-15514258D02*
X16993694Y-15504734D01*
X16993694Y-15504734D02*
X17012742Y-15495210D01*
X17012742Y-15495210D02*
X17041314Y-15495210D01*
X17041314Y-15495210D02*
X17060361Y-15504734D01*
X17060361Y-15504734D02*
X17069885Y-15514258D01*
X17069885Y-15514258D02*
X17079409Y-15533306D01*
X17079409Y-15533306D02*
X17079409Y-15590448D01*
X17079409Y-15590448D02*
X17069885Y-15609496D01*
X17069885Y-15609496D02*
X17060361Y-15619020D01*
X17060361Y-15619020D02*
X17041314Y-15628544D01*
X17041314Y-15628544D02*
X17012742Y-15628544D01*
X17136552Y-15495210D02*
X17212742Y-15495210D01*
X17165123Y-15428544D02*
X17165123Y-15599972D01*
X17165123Y-15599972D02*
X17174647Y-15619020D01*
X17174647Y-15619020D02*
X17193694Y-15628544D01*
X17193694Y-15628544D02*
X17212742Y-15628544D01*
X17431790Y-15495210D02*
X17431790Y-15695210D01*
X17431790Y-15504734D02*
X17450837Y-15495210D01*
X17450837Y-15495210D02*
X17488933Y-15495210D01*
X17488933Y-15495210D02*
X17507980Y-15504734D01*
X17507980Y-15504734D02*
X17517504Y-15514258D01*
X17517504Y-15514258D02*
X17527028Y-15533306D01*
X17527028Y-15533306D02*
X17527028Y-15590448D01*
X17527028Y-15590448D02*
X17517504Y-15609496D01*
X17517504Y-15609496D02*
X17507980Y-15619020D01*
X17507980Y-15619020D02*
X17488933Y-15628544D01*
X17488933Y-15628544D02*
X17450837Y-15628544D01*
X17450837Y-15628544D02*
X17431790Y-15619020D01*
X17641314Y-15628544D02*
X17622266Y-15619020D01*
X17622266Y-15619020D02*
X17612742Y-15599972D01*
X17612742Y-15599972D02*
X17612742Y-15428544D01*
X17803218Y-15628544D02*
X17803218Y-15523782D01*
X17803218Y-15523782D02*
X17793695Y-15504734D01*
X17793695Y-15504734D02*
X17774647Y-15495210D01*
X17774647Y-15495210D02*
X17736552Y-15495210D01*
X17736552Y-15495210D02*
X17717504Y-15504734D01*
X17803218Y-15619020D02*
X17784171Y-15628544D01*
X17784171Y-15628544D02*
X17736552Y-15628544D01*
X17736552Y-15628544D02*
X17717504Y-15619020D01*
X17717504Y-15619020D02*
X17707980Y-15599972D01*
X17707980Y-15599972D02*
X17707980Y-15580925D01*
X17707980Y-15580925D02*
X17717504Y-15561877D01*
X17717504Y-15561877D02*
X17736552Y-15552353D01*
X17736552Y-15552353D02*
X17784171Y-15552353D01*
X17784171Y-15552353D02*
X17803218Y-15542829D01*
X17869885Y-15495210D02*
X17946075Y-15495210D01*
X17898456Y-15428544D02*
X17898456Y-15599972D01*
X17898456Y-15599972D02*
X17907980Y-15619020D01*
X17907980Y-15619020D02*
X17927028Y-15628544D01*
X17927028Y-15628544D02*
X17946075Y-15628544D01*
X18088933Y-15619020D02*
X18069885Y-15628544D01*
X18069885Y-15628544D02*
X18031790Y-15628544D01*
X18031790Y-15628544D02*
X18012742Y-15619020D01*
X18012742Y-15619020D02*
X18003218Y-15599972D01*
X18003218Y-15599972D02*
X18003218Y-15523782D01*
X18003218Y-15523782D02*
X18012742Y-15504734D01*
X18012742Y-15504734D02*
X18031790Y-15495210D01*
X18031790Y-15495210D02*
X18069885Y-15495210D01*
X18069885Y-15495210D02*
X18088933Y-15504734D01*
X18088933Y-15504734D02*
X18098456Y-15523782D01*
X18098456Y-15523782D02*
X18098456Y-15542829D01*
X18098456Y-15542829D02*
X18003218Y-15561877D01*
X18269885Y-15628544D02*
X18269885Y-15428544D01*
X18269885Y-15619020D02*
X18250837Y-15628544D01*
X18250837Y-15628544D02*
X18212742Y-15628544D01*
X18212742Y-15628544D02*
X18193695Y-15619020D01*
X18193695Y-15619020D02*
X18184171Y-15609496D01*
X18184171Y-15609496D02*
X18174647Y-15590448D01*
X18174647Y-15590448D02*
X18174647Y-15533306D01*
X18174647Y-15533306D02*
X18184171Y-15514258D01*
X18184171Y-15514258D02*
X18193695Y-15504734D01*
X18193695Y-15504734D02*
X18212742Y-15495210D01*
X18212742Y-15495210D02*
X18250837Y-15495210D01*
X18250837Y-15495210D02*
X18269885Y-15504734D01*
X18346076Y-15704734D02*
X18355599Y-15695210D01*
X18355599Y-15695210D02*
X18374647Y-15666639D01*
X18374647Y-15666639D02*
X18384171Y-15647591D01*
X18384171Y-15647591D02*
X18393695Y-15619020D01*
X18393695Y-15619020D02*
X18403218Y-15571401D01*
X18403218Y-15571401D02*
X18403218Y-15533306D01*
X18403218Y-15533306D02*
X18393695Y-15485687D01*
X18393695Y-15485687D02*
X18384171Y-15457115D01*
X18384171Y-15457115D02*
X18374647Y-15438068D01*
X18374647Y-15438068D02*
X18355599Y-15409496D01*
X18355599Y-15409496D02*
X18346076Y-15399972D01*
M02*
