%TF.GenerationSoftware,KiCad,Pcbnew,10.0.3*%
%TF.CreationDate,2026-06-20T15:11:12+09:00*%
%TF.ProjectId,top-plate,746f702d-706c-4617-9465-2e6b69636164,rev?*%
%TF.SameCoordinates,Original*%
%TF.FileFunction,Profile,NP*%
%FSLAX46Y46*%
G04 Gerber Fmt 4.6, Leading zero omitted, Abs format (unit mm)*
G04 Created by KiCad (PCBNEW 10.0.3) date 2026-06-20 15:11:12*
%MOMM*%
%LPD*%
G01*
G04 APERTURE LIST*
%TA.AperFunction,Profile*%
%ADD10C,0.050000*%
%TD*%
G04 APERTURE END LIST*
D10*
X155818420Y-128839432D02*
X169765146Y-127619255D01*
X170985323Y-141565980D01*
X157038599Y-142786160D01*
X155818420Y-128839432D01*
X159619571Y-47797008D02*
X173566296Y-46576827D01*
X174786477Y-60523554D01*
X160839751Y-61743733D01*
X159619571Y-47797008D01*
X161275528Y-66724709D02*
X175222254Y-65504527D01*
X176442435Y-79451253D01*
X162495709Y-80671435D01*
X161275528Y-66724709D01*
X162940202Y-85752028D02*
X176886928Y-84531846D01*
X178107112Y-98478572D01*
X164160383Y-99698750D01*
X162940202Y-85752028D01*
X164604879Y-104779344D02*
X178551604Y-103559166D01*
X179771783Y-117505891D01*
X165825058Y-118726071D01*
X164604879Y-104779344D01*
X178599258Y-46161596D02*
X192545980Y-44941415D01*
X193766164Y-58888142D01*
X179819438Y-60108320D01*
X178599258Y-46161596D01*
X180030591Y-126255909D02*
X193553554Y-122632445D01*
X197177018Y-136155405D01*
X183654057Y-139778873D01*
X180030591Y-126255909D01*
X180255213Y-65089297D02*
X194201939Y-63869114D01*
X195422122Y-77815839D01*
X181475396Y-79036022D01*
X180255213Y-65089297D01*
X181919890Y-84116615D02*
X195866616Y-82896433D01*
X197086799Y-96843159D01*
X183140070Y-98063336D01*
X181919890Y-84116615D01*
X183584565Y-103143931D02*
X197531291Y-101923754D01*
X198751468Y-115870477D01*
X184804744Y-117090658D01*
X183584565Y-103143931D01*
X197188924Y-40068212D02*
X211135646Y-38848032D01*
X212355830Y-52794758D01*
X198409103Y-54014935D01*
X197188924Y-40068212D01*
X198844879Y-58995913D02*
X212791605Y-57775731D01*
X214011789Y-71722457D01*
X200065061Y-72942638D01*
X198844879Y-58995913D01*
X200509555Y-78023230D02*
X214456282Y-76803051D01*
X215676464Y-90749776D01*
X201729736Y-91969954D01*
X200509555Y-78023230D01*
X201719377Y-121109487D02*
X215666105Y-119889308D01*
X216886282Y-133836033D01*
X202939558Y-135056214D01*
X201719377Y-121109487D01*
X202174231Y-97050547D02*
X216120957Y-95830368D01*
X217341135Y-109777094D01*
X203394410Y-110997276D01*
X202174231Y-97050547D01*
X216275378Y-39653139D02*
X230222101Y-38432958D01*
X231442284Y-52379685D01*
X217495557Y-53599862D01*
X216275378Y-39653139D01*
X217931333Y-58580840D02*
X231878058Y-57360658D01*
X233098242Y-71307383D01*
X219151514Y-72527565D01*
X217931333Y-58580840D01*
X219596010Y-77608157D02*
X233542736Y-76387977D01*
X234762917Y-90334703D01*
X220816189Y-91554879D01*
X219596010Y-77608157D01*
X220721791Y-119446991D02*
X234668518Y-118226813D01*
X235888696Y-132173537D01*
X221941971Y-133393718D01*
X220721791Y-119446991D01*
X221260685Y-96635473D02*
X235207412Y-95415297D01*
X236427588Y-109362020D01*
X222480864Y-110582202D01*
X221260685Y-96635473D01*
X235364010Y-39262970D02*
X249310734Y-38042789D01*
X250530915Y-51989516D01*
X236584190Y-53209694D01*
X235364010Y-39262970D01*
X237019966Y-58190671D02*
X250966692Y-56970488D01*
X252186874Y-70917214D01*
X238240147Y-72137397D01*
X237019966Y-58190671D01*
X238684642Y-77217989D02*
X252631368Y-75997808D01*
X253851551Y-89944534D01*
X239904822Y-91164711D01*
X238684642Y-77217989D01*
X240349318Y-96245305D02*
X254296043Y-95025128D01*
X255516221Y-108971851D01*
X241569496Y-110192034D01*
X240349318Y-96245305D01*
X254563767Y-40142949D02*
X268510491Y-38922768D01*
X269730671Y-52869495D01*
X255783946Y-54089674D01*
X254563767Y-40142949D01*
X256219722Y-59070649D02*
X270166449Y-57850469D01*
X271386629Y-71797192D01*
X257439903Y-73017377D01*
X256219722Y-59070649D01*
X257884398Y-78097969D02*
X271831126Y-76877787D01*
X273051306Y-90824513D01*
X259104579Y-92044691D01*
X257884398Y-78097969D01*
X259549073Y-97125285D02*
X273495799Y-95905107D01*
X274715979Y-109851832D01*
X260769252Y-111072012D01*
X259549073Y-97125285D01*
X19437497Y-111842535D02*
X26066346Y-35928943D01*
X28393893Y-38676370D02*
X42340617Y-39896548D01*
X41120438Y-53843275D01*
X27173712Y-52623094D01*
X28393893Y-38676370D01*
X26737933Y-57604068D02*
X40684659Y-58824248D01*
X39464479Y-72770974D01*
X25517753Y-71550793D01*
X26737933Y-57604068D01*
X25073257Y-76631389D02*
X39019983Y-77851568D01*
X37799804Y-91798295D01*
X23853077Y-90578112D01*
X25073257Y-76631389D01*
X23408584Y-95658705D02*
X37355311Y-96878888D01*
X36135127Y-110825614D01*
X22188404Y-109605433D01*
X23408584Y-95658705D01*
X26066346Y-35928943D02*
X45309209Y-35063503D01*
X47593648Y-37796389D02*
X61540374Y-39016571D01*
X60320194Y-52963297D01*
X46373469Y-51743117D01*
X47593648Y-37796389D01*
X45937688Y-56724088D02*
X59884414Y-57944268D01*
X58664235Y-71890995D01*
X44717509Y-70670814D01*
X45937688Y-56724088D01*
X44273015Y-75751406D02*
X58219741Y-76971588D01*
X56999560Y-90918314D01*
X43052835Y-89698134D01*
X44273015Y-75751406D01*
X42608339Y-94778728D02*
X56555066Y-95998909D01*
X55334884Y-109945633D01*
X41388159Y-108725454D01*
X42608339Y-94778728D01*
X45309209Y-35063503D02*
X64363556Y-35469328D01*
X57877345Y-134355184D02*
X19437497Y-111842535D01*
X66680103Y-38211463D02*
X80626829Y-39431644D01*
X79406648Y-53378369D01*
X65459921Y-52158188D01*
X66680103Y-38211463D01*
X65024143Y-57139163D02*
X78970869Y-58359344D01*
X77750686Y-72306070D01*
X63803960Y-71085890D01*
X65024143Y-57139163D01*
X63359469Y-76166482D02*
X77306194Y-77386662D01*
X76086015Y-91333386D01*
X62139287Y-90113208D01*
X63359469Y-76166482D01*
X61694794Y-95193799D02*
X75641518Y-96413979D01*
X74421337Y-110360704D01*
X60474612Y-109140525D01*
X61694794Y-95193799D01*
X64363556Y-35469328D02*
X83467930Y-35866319D01*
X61899271Y-118098780D02*
X75845996Y-119318961D01*
X74625816Y-133265687D01*
X60679090Y-132045507D01*
X61899271Y-118098780D01*
X85770912Y-38576727D02*
X99717636Y-39796909D01*
X98497458Y-53743634D01*
X84550734Y-52523454D01*
X85770912Y-38576727D01*
X84114955Y-57504425D02*
X98061679Y-58724606D01*
X96841500Y-72671332D01*
X82894774Y-71451150D01*
X84114955Y-57504425D01*
X82450280Y-76531745D02*
X96397006Y-77751926D01*
X95176824Y-91698652D01*
X81230099Y-90478471D01*
X82450280Y-76531745D01*
X80785604Y-95559065D02*
X94732331Y-96779244D01*
X93512150Y-110725970D01*
X79565424Y-109505792D01*
X80785604Y-95559065D01*
X83467930Y-35866319D02*
X102433815Y-37525729D01*
X80876781Y-119759098D02*
X94823503Y-120979279D01*
X93603325Y-134926004D01*
X79656600Y-133705824D01*
X80876781Y-119759098D01*
X96076908Y-137729968D02*
X57877345Y-134355184D01*
X104360579Y-44670110D02*
X118307304Y-45890290D01*
X117087125Y-59837016D01*
X103140399Y-58616834D01*
X104360579Y-44670110D01*
X102704622Y-63597810D02*
X116651346Y-64817989D01*
X115431168Y-78764716D01*
X101484439Y-77544537D01*
X102704622Y-63597810D01*
X101039945Y-82625130D02*
X114986670Y-83845311D01*
X113766492Y-97792037D01*
X99819764Y-96571854D01*
X101039945Y-82625130D01*
X99375272Y-101652447D02*
X113321996Y-102872627D01*
X112101814Y-116819355D01*
X98155090Y-115599174D01*
X99375272Y-101652447D01*
X102433815Y-37525729D02*
X139952842Y-44939753D01*
X102980693Y-122493705D02*
X116503653Y-126117174D01*
X112880187Y-139640133D01*
X99357225Y-136016669D01*
X102980693Y-122493705D01*
X114865761Y-142773536D02*
X96076908Y-137729968D01*
X114865761Y-142773536D02*
X117920846Y-143473752D01*
X123338088Y-46330427D02*
X137284814Y-47550606D01*
X136064633Y-61497333D01*
X122117907Y-60277150D01*
X123338088Y-46330427D01*
X121682128Y-65258127D02*
X135628853Y-66478307D01*
X134408674Y-80425032D01*
X120461948Y-79204853D01*
X121682128Y-65258127D01*
X120017454Y-84285447D02*
X133964180Y-85505627D01*
X132743999Y-99452353D01*
X118797273Y-98232170D01*
X120017454Y-84285447D01*
X118352780Y-103312762D02*
X132299507Y-104532945D01*
X131079323Y-118479670D01*
X117132598Y-117259491D01*
X118352780Y-103312762D01*
X126769024Y-127588665D02*
X140715748Y-128808845D01*
X139495569Y-142755571D01*
X125548843Y-141535391D01*
X126769024Y-127588665D01*
X133400000Y-121150000D02*
X148425000Y-122700000D01*
X139952842Y-44939753D02*
X133400000Y-121150000D01*
X146589104Y-145986234D02*
X117920846Y-143473752D01*
X146589104Y-145986234D02*
X149950353Y-146010595D01*
X148425000Y-122700000D02*
X163525000Y-121425000D01*
X156952839Y-45187618D02*
X163525000Y-121425000D01*
X156952839Y-45187618D02*
X194471870Y-37773604D01*
X178618613Y-143498124D02*
X149950353Y-146010595D01*
X181675896Y-142909554D02*
X178618613Y-143498124D01*
X194471870Y-37773604D02*
X213437755Y-36114185D01*
X200464745Y-137865986D02*
X181675896Y-142909554D01*
X213437755Y-36114185D02*
X232492108Y-35708371D01*
X232492108Y-35708371D02*
X251596482Y-35311380D01*
X238614286Y-134482373D02*
X200464745Y-137865986D01*
X251596482Y-35311380D02*
X270839340Y-36176817D01*
X270839340Y-36176817D02*
X277459369Y-112140436D01*
X277459369Y-112140436D02*
X238614286Y-134482373D01*
M02*
