%TF.GenerationSoftware,KiCad,Pcbnew,9.0.7*%
%TF.CreationDate,2026-02-21T19:36:22+09:00*%
%TF.ProjectId,top-plate,746f702d-706c-4617-9465-2e6b69636164,rev?*%
%TF.SameCoordinates,Original*%
%TF.FileFunction,Drillmap*%
%TF.FilePolarity,Positive*%
%FSLAX45Y45*%
G04 Gerber Fmt 4.5, Leading zero omitted, Abs format (unit mm)*
G04 Created by KiCad (PCBNEW 9.0.7) date 2026-02-21 19:36:22*
%MOMM*%
%LPD*%
G01*
G04 APERTURE LIST*
%ADD10C,0.050000*%
%ADD11C,0.200000*%
G04 APERTURE END LIST*
D10*
X16446812Y-9432947D02*
X17848892Y-9432947D01*
X14541812Y-9432947D02*
X15943892Y-9432947D01*
X14038892Y-12795907D02*
X14038892Y-14197987D01*
X8323892Y-13303907D02*
X8323892Y-14705987D01*
X12133892Y-8609987D02*
X10731812Y-8609987D01*
X14038892Y-14197987D02*
X12636812Y-14197987D01*
X12133892Y-12922907D02*
X12133892Y-14324987D01*
X8826812Y-12546987D02*
X8826812Y-11144907D01*
X17848892Y-11337947D02*
X17848892Y-12740027D01*
X8576774Y-7083541D02*
X10478495Y-6957899D01*
X11427797Y-16801204D02*
X6668622Y-14957714D01*
X12636812Y-12795907D02*
X14038892Y-12795907D01*
X8826812Y-13049907D02*
X10228892Y-13049907D01*
X13086392Y-15145407D02*
X13086392Y-16547487D01*
X12636812Y-14197987D02*
X12636812Y-12795907D01*
X14038892Y-8985907D02*
X14038892Y-10387987D01*
X20537606Y-16328410D02*
X18102598Y-15445181D01*
X11684312Y-16547487D02*
X11684312Y-15145407D01*
X14541812Y-10835027D02*
X14541812Y-9432947D01*
X15943892Y-8930027D02*
X14541812Y-8930027D01*
X15943892Y-9432947D02*
X15943892Y-10835027D01*
X8323892Y-10895987D02*
X6921812Y-10895987D01*
X14541812Y-11337947D02*
X15943892Y-11337947D01*
X12133892Y-12419987D02*
X10731812Y-12419987D01*
X12636812Y-8985907D02*
X14038892Y-8985907D01*
X16446812Y-13242947D02*
X17848892Y-13242947D01*
X6921812Y-7588907D02*
X8323892Y-7588907D01*
X6921812Y-14705987D02*
X6921812Y-13303907D01*
X17848892Y-8930027D02*
X16446812Y-8930027D01*
X17848892Y-14645027D02*
X16446812Y-14645027D01*
X15943892Y-13242947D02*
X15943892Y-14645027D01*
X8323892Y-7588907D02*
X8323892Y-8990987D01*
X19882437Y-18127826D02*
X17178324Y-17143150D01*
X14991392Y-16547487D02*
X13589312Y-16547487D01*
X13589312Y-15145407D02*
X14991392Y-15145407D01*
X8826812Y-9239907D02*
X10228892Y-9239907D01*
X10228892Y-9239907D02*
X10228892Y-10641987D01*
X15943892Y-7527947D02*
X15943892Y-8930027D01*
X19760992Y-16317083D02*
X19281452Y-17634607D01*
X10731812Y-12419987D02*
X10731812Y-11017907D01*
X16446812Y-7527947D02*
X17848892Y-7527947D01*
X10731812Y-9112907D02*
X12133892Y-9112907D01*
X12133892Y-11017907D02*
X12133892Y-12419987D01*
X6921812Y-9493907D02*
X8323892Y-9493907D01*
X15943892Y-14645027D02*
X14541812Y-14645027D01*
X6668622Y-14957714D02*
X6667354Y-7337468D01*
X17848892Y-13242947D02*
X17848892Y-14645027D01*
X16446812Y-8930027D02*
X16446812Y-7527947D01*
X15943892Y-10835027D02*
X14541812Y-10835027D01*
X8826812Y-11144907D02*
X10228892Y-11144907D01*
X17848892Y-12740027D02*
X16446812Y-12740027D01*
X11684312Y-15145407D02*
X13086392Y-15145407D01*
X14038892Y-12292987D02*
X12636812Y-12292987D01*
X12636812Y-10387987D02*
X12636812Y-8985907D01*
X16954812Y-16849747D02*
X15574033Y-16606279D01*
X10731812Y-14324987D02*
X10731812Y-12922907D01*
X14541812Y-12740027D02*
X14541812Y-11337947D01*
X12385123Y-6830941D02*
X14288957Y-6830953D01*
X12636812Y-7080907D02*
X14038892Y-7080907D01*
X10731812Y-7207907D02*
X12133892Y-7207907D01*
X10228892Y-14451987D02*
X8826812Y-14451987D01*
X14288957Y-6830953D02*
X18097688Y-7242140D01*
X15943892Y-12740027D02*
X14541812Y-12740027D01*
X8323892Y-12800987D02*
X6921812Y-12800987D01*
X15262630Y-16804467D02*
X11427797Y-16801204D01*
X13589312Y-16547487D02*
X13589312Y-15145407D01*
X6921812Y-12800987D02*
X6921812Y-11398907D01*
X17848892Y-7527947D02*
X17848892Y-8930027D01*
X12133892Y-14324987D02*
X10731812Y-14324987D01*
X8323892Y-8990987D02*
X6921812Y-8990987D01*
X8323892Y-11398907D02*
X8323892Y-12800987D01*
X14541812Y-8930027D02*
X14541812Y-7527947D01*
X16446812Y-10835027D02*
X16446812Y-9432947D01*
X14038892Y-8482987D02*
X12636812Y-8482987D01*
X10731812Y-12922907D02*
X12133892Y-12922907D01*
X16446812Y-12740027D02*
X16446812Y-11337947D01*
X6921812Y-11398907D02*
X8323892Y-11398907D01*
X15574033Y-16606279D02*
X15817501Y-15225499D01*
X10731812Y-8609987D02*
X10731812Y-7207907D01*
X14038892Y-10387987D02*
X12636812Y-10387987D01*
X19281452Y-17634607D02*
X17963928Y-17155068D01*
X18443468Y-15837543D02*
X19760992Y-16317083D01*
X8826812Y-14451987D02*
X8826812Y-13049907D01*
X10731812Y-11017907D02*
X12133892Y-11017907D01*
X17963928Y-17155068D02*
X18443468Y-15837543D01*
X20537606Y-16328410D02*
X19882437Y-18127826D01*
X6921812Y-10895987D02*
X6921812Y-9493907D01*
X16446812Y-11337947D02*
X17848892Y-11337947D01*
X6667354Y-7337468D02*
X8576774Y-7083541D01*
X12133892Y-10514987D02*
X10731812Y-10514987D01*
X17178324Y-17143150D02*
X15262630Y-16804467D01*
X10228892Y-12546987D02*
X8826812Y-12546987D01*
X10478495Y-6957899D02*
X12385123Y-6830941D01*
X12133892Y-9112907D02*
X12133892Y-10514987D01*
X10228892Y-11144907D02*
X10228892Y-12546987D01*
X14541812Y-14645027D02*
X14541812Y-13242947D01*
X17848892Y-9432947D02*
X17848892Y-10835027D01*
X13086392Y-16547487D02*
X11684312Y-16547487D01*
X14038892Y-7080907D02*
X14038892Y-8482987D01*
X8826812Y-7334907D02*
X10228892Y-7334907D01*
X10228892Y-7334907D02*
X10228892Y-8736987D01*
X14541812Y-13242947D02*
X15943892Y-13242947D01*
X8323892Y-9493907D02*
X8323892Y-10895987D01*
X15817501Y-15225499D02*
X17198281Y-15468968D01*
X6921812Y-13303907D02*
X8323892Y-13303907D01*
X10228892Y-8736987D02*
X8826812Y-8736987D01*
X14991392Y-15145407D02*
X14991392Y-16547487D01*
X12636812Y-10890907D02*
X14038892Y-10890907D01*
X17198281Y-15468968D02*
X16954812Y-16849747D01*
X16446812Y-14645027D02*
X16446812Y-13242947D01*
X10731812Y-10514987D02*
X10731812Y-9112907D01*
X12133892Y-7207907D02*
X12133892Y-8609987D01*
X8826812Y-10641987D02*
X8826812Y-9239907D01*
X12636812Y-8482987D02*
X12636812Y-7080907D01*
X12636812Y-12292987D02*
X12636812Y-10890907D01*
X14038892Y-10890907D02*
X14038892Y-12292987D01*
X17848892Y-10835027D02*
X16446812Y-10835027D01*
X8826812Y-8736987D02*
X8826812Y-7334907D01*
X6921812Y-8990987D02*
X6921812Y-7588907D01*
X15943892Y-11337947D02*
X15943892Y-12740027D01*
X18097688Y-7242140D02*
X18102598Y-15445181D01*
X8323892Y-14705987D02*
X6921812Y-14705987D01*
X10228892Y-10641987D02*
X8826812Y-10641987D01*
X10228892Y-13049907D02*
X10228892Y-14451987D01*
X14541812Y-7527947D02*
X15943892Y-7527947D01*
D11*
X6925630Y-18441809D02*
X6925630Y-18241809D01*
X6925630Y-18241809D02*
X6973249Y-18241809D01*
X6973249Y-18241809D02*
X7001821Y-18251333D01*
X7001821Y-18251333D02*
X7020869Y-18270381D01*
X7020869Y-18270381D02*
X7030392Y-18289428D01*
X7030392Y-18289428D02*
X7039916Y-18327524D01*
X7039916Y-18327524D02*
X7039916Y-18356095D01*
X7039916Y-18356095D02*
X7030392Y-18394190D01*
X7030392Y-18394190D02*
X7020869Y-18413238D01*
X7020869Y-18413238D02*
X7001821Y-18432286D01*
X7001821Y-18432286D02*
X6973249Y-18441809D01*
X6973249Y-18441809D02*
X6925630Y-18441809D01*
X7125630Y-18441809D02*
X7125630Y-18308476D01*
X7125630Y-18346571D02*
X7135154Y-18327524D01*
X7135154Y-18327524D02*
X7144678Y-18318000D01*
X7144678Y-18318000D02*
X7163726Y-18308476D01*
X7163726Y-18308476D02*
X7182773Y-18308476D01*
X7249440Y-18441809D02*
X7249440Y-18308476D01*
X7249440Y-18241809D02*
X7239916Y-18251333D01*
X7239916Y-18251333D02*
X7249440Y-18260857D01*
X7249440Y-18260857D02*
X7258964Y-18251333D01*
X7258964Y-18251333D02*
X7249440Y-18241809D01*
X7249440Y-18241809D02*
X7249440Y-18260857D01*
X7373249Y-18441809D02*
X7354202Y-18432286D01*
X7354202Y-18432286D02*
X7344678Y-18413238D01*
X7344678Y-18413238D02*
X7344678Y-18241809D01*
X7478011Y-18441809D02*
X7458964Y-18432286D01*
X7458964Y-18432286D02*
X7449440Y-18413238D01*
X7449440Y-18413238D02*
X7449440Y-18241809D01*
X7706583Y-18441809D02*
X7706583Y-18241809D01*
X7706583Y-18241809D02*
X7773250Y-18384667D01*
X7773250Y-18384667D02*
X7839916Y-18241809D01*
X7839916Y-18241809D02*
X7839916Y-18441809D01*
X8020869Y-18441809D02*
X8020869Y-18337048D01*
X8020869Y-18337048D02*
X8011345Y-18318000D01*
X8011345Y-18318000D02*
X7992297Y-18308476D01*
X7992297Y-18308476D02*
X7954202Y-18308476D01*
X7954202Y-18308476D02*
X7935154Y-18318000D01*
X8020869Y-18432286D02*
X8001821Y-18441809D01*
X8001821Y-18441809D02*
X7954202Y-18441809D01*
X7954202Y-18441809D02*
X7935154Y-18432286D01*
X7935154Y-18432286D02*
X7925630Y-18413238D01*
X7925630Y-18413238D02*
X7925630Y-18394190D01*
X7925630Y-18394190D02*
X7935154Y-18375143D01*
X7935154Y-18375143D02*
X7954202Y-18365619D01*
X7954202Y-18365619D02*
X8001821Y-18365619D01*
X8001821Y-18365619D02*
X8020869Y-18356095D01*
X8116107Y-18308476D02*
X8116107Y-18508476D01*
X8116107Y-18318000D02*
X8135154Y-18308476D01*
X8135154Y-18308476D02*
X8173250Y-18308476D01*
X8173250Y-18308476D02*
X8192297Y-18318000D01*
X8192297Y-18318000D02*
X8201821Y-18327524D01*
X8201821Y-18327524D02*
X8211345Y-18346571D01*
X8211345Y-18346571D02*
X8211345Y-18403714D01*
X8211345Y-18403714D02*
X8201821Y-18422762D01*
X8201821Y-18422762D02*
X8192297Y-18432286D01*
X8192297Y-18432286D02*
X8173250Y-18441809D01*
X8173250Y-18441809D02*
X8135154Y-18441809D01*
X8135154Y-18441809D02*
X8116107Y-18432286D01*
X8297059Y-18422762D02*
X8306583Y-18432286D01*
X8306583Y-18432286D02*
X8297059Y-18441809D01*
X8297059Y-18441809D02*
X8287535Y-18432286D01*
X8287535Y-18432286D02*
X8297059Y-18422762D01*
X8297059Y-18422762D02*
X8297059Y-18441809D01*
X8297059Y-18318000D02*
X8306583Y-18327524D01*
X8306583Y-18327524D02*
X8297059Y-18337048D01*
X8297059Y-18337048D02*
X8287535Y-18327524D01*
X8287535Y-18327524D02*
X8297059Y-18318000D01*
X8297059Y-18318000D02*
X8297059Y-18337048D01*
M02*
