G04 #@! TF.GenerationSoftware,KiCad,Pcbnew,9.0.7*
G04 #@! TF.CreationDate,2026-02-21T19:36:19+09:00*
G04 #@! TF.ProjectId,top-plate,746f702d-706c-4617-9465-2e6b69636164,rev?*
G04 #@! TF.SameCoordinates,Original*
G04 #@! TF.FileFunction,Profile,NP*
%FSLAX46Y46*%
G04 Gerber Fmt 4.6, Leading zero omitted, Abs format (unit mm)*
G04 Created by KiCad (PCBNEW 9.0.7) date 2026-02-21 19:36:19*
%MOMM*%
%LPD*%
G01*
G04 APERTURE LIST*
G04 #@! TA.AperFunction,Profile*
%ADD10C,0.050000*%
G04 #@! TD*
G04 APERTURE END LIST*
D10*
X164468119Y-94329471D02*
X178488922Y-94329472D01*
X145418119Y-94329471D02*
X159438921Y-94329473D01*
X140388920Y-127959071D02*
X140388921Y-141979872D01*
X83238921Y-133039073D02*
X83238921Y-147059872D01*
X121338921Y-86099872D02*
X107318120Y-86099873D01*
X140388921Y-141979872D02*
X126368120Y-141979873D01*
X121338920Y-129229072D02*
X121338920Y-143249872D01*
X88268121Y-125469872D02*
X88268119Y-111449072D01*
X178488920Y-113379472D02*
X178488922Y-127400272D01*
X85767742Y-70835409D02*
X104784954Y-69578990D01*
X114277968Y-168012043D02*
X66686217Y-149577138D01*
X126368120Y-127959074D02*
X140388920Y-127959071D01*
X88268119Y-130499071D02*
X102288920Y-130499071D01*
X130863920Y-151454072D02*
X130863918Y-165474871D01*
X126368120Y-141979873D02*
X126368120Y-127959074D01*
X140388921Y-89859073D02*
X140388920Y-103879873D01*
X205376059Y-163284104D02*
X181025984Y-154451811D01*
X116843121Y-165474872D02*
X116843120Y-151454072D01*
X145418120Y-108350271D02*
X145418119Y-94329471D01*
X159438921Y-89300273D02*
X145418120Y-89300271D01*
X159438921Y-94329473D02*
X159438920Y-108350271D01*
X83238920Y-108959872D02*
X69218119Y-108959873D01*
X145418119Y-113379472D02*
X159438920Y-113379471D01*
X121338920Y-124199872D02*
X107318120Y-124199873D01*
X126368119Y-89859073D02*
X140388921Y-89859073D01*
X164468120Y-132429472D02*
X178488920Y-132429472D01*
X69218120Y-75889071D02*
X83238919Y-75889073D01*
X69218121Y-147059873D02*
X69218121Y-133039072D01*
X178488920Y-89300272D02*
X164468121Y-89300271D01*
X178488922Y-146450273D02*
X164468119Y-146450271D01*
X159438920Y-132429472D02*
X159438921Y-146450273D01*
X83238919Y-75889073D02*
X83238920Y-89909871D01*
X198824366Y-181278256D02*
X171783236Y-171431495D01*
X149913919Y-165474871D02*
X135893121Y-165474872D01*
X135893120Y-151454071D02*
X149913920Y-151454072D01*
X88268119Y-92399073D02*
X102288920Y-92399072D01*
X102288920Y-92399072D02*
X102288921Y-106419872D01*
X159438920Y-75279473D02*
X159438921Y-89300273D01*
X197609916Y-163170830D02*
X192814520Y-176346072D01*
X107318120Y-124199873D02*
X107318121Y-110179071D01*
X164468121Y-75279472D02*
X178488922Y-75279473D01*
X107318120Y-91129072D02*
X121338920Y-91129072D01*
X121338919Y-110179072D02*
X121338920Y-124199872D01*
X69218121Y-94939072D02*
X83238919Y-94939071D01*
X159438921Y-146450273D02*
X145418119Y-146450271D01*
X66686217Y-149577138D02*
X66673537Y-73374683D01*
X178488920Y-132429472D02*
X178488922Y-146450273D01*
X164468121Y-89300271D02*
X164468121Y-75279472D01*
X159438920Y-108350271D02*
X145418120Y-108350271D01*
X88268119Y-111449072D02*
X102288920Y-111449073D01*
X178488922Y-127400272D02*
X164468121Y-127400273D01*
X116843120Y-151454072D02*
X130863920Y-151454072D01*
X140388921Y-122929871D02*
X126368119Y-122929871D01*
X126368119Y-103879871D02*
X126368119Y-89859073D01*
X169548120Y-168497473D02*
X155740328Y-166062786D01*
X107318120Y-143249873D02*
X107318120Y-129229072D01*
X145418120Y-127400273D02*
X145418119Y-113379472D01*
X123851230Y-68309412D02*
X142889574Y-68309526D01*
X126368120Y-70809074D02*
X140388921Y-70809071D01*
X107318120Y-72079072D02*
X121338920Y-72079072D01*
X102288919Y-144519871D02*
X88268121Y-144519872D01*
X142889574Y-68309526D02*
X180976880Y-72421401D01*
X159438921Y-127400272D02*
X145418120Y-127400273D01*
X83238920Y-128009873D02*
X69218121Y-128009873D01*
X152626304Y-168044672D02*
X114277968Y-168012043D01*
X135893121Y-165474872D02*
X135893120Y-151454071D01*
X69218121Y-128009873D02*
X69218121Y-113989073D01*
X178488922Y-75279473D02*
X178488920Y-89300272D01*
X121338920Y-143249872D02*
X107318120Y-143249873D01*
X83238920Y-89909871D02*
X69218119Y-89909873D01*
X83238922Y-113989072D02*
X83238920Y-128009873D01*
X145418120Y-89300271D02*
X145418120Y-75279472D01*
X164468121Y-108350271D02*
X164468119Y-94329471D01*
X140388920Y-84829873D02*
X126368120Y-84829873D01*
X107318120Y-129229072D02*
X121338920Y-129229072D01*
X164468121Y-127400273D02*
X164468120Y-113379473D01*
X69218121Y-113989073D02*
X83238922Y-113989072D01*
X155740328Y-166062786D02*
X158175015Y-152254993D01*
X107318120Y-86099873D02*
X107318120Y-72079072D01*
X140388920Y-103879873D02*
X126368119Y-103879871D01*
X192814520Y-176346072D02*
X179639279Y-171550677D01*
X184434675Y-158375434D02*
X197609916Y-163170830D01*
X88268121Y-144519872D02*
X88268119Y-130499071D01*
X107318121Y-110179071D02*
X121338919Y-110179072D01*
X179639279Y-171550677D02*
X184434675Y-158375434D01*
X205376059Y-163284104D02*
X198824366Y-181278256D01*
X69218119Y-108959873D02*
X69218121Y-94939072D01*
X164468120Y-113379473D02*
X178488920Y-113379472D01*
X66673537Y-73374683D02*
X85767742Y-70835409D01*
X121338921Y-105149872D02*
X107318119Y-105149872D01*
X171783236Y-171431495D02*
X152626304Y-168044672D01*
X102288920Y-125469872D02*
X88268121Y-125469872D01*
X104784954Y-69578990D02*
X123851230Y-68309412D01*
X121338920Y-91129072D02*
X121338921Y-105149872D01*
X102288920Y-111449073D02*
X102288920Y-125469872D01*
X145418119Y-146450271D02*
X145418119Y-132429473D01*
X178488922Y-94329472D02*
X178488921Y-108350271D01*
X130863918Y-165474871D02*
X116843121Y-165474872D01*
X140388921Y-70809071D02*
X140388920Y-84829873D01*
X88268120Y-73349072D02*
X102288919Y-73349071D01*
X102288919Y-73349071D02*
X102288921Y-87369871D01*
X145418119Y-132429473D02*
X159438920Y-132429472D01*
X83238919Y-94939071D02*
X83238920Y-108959872D01*
X158175015Y-152254993D02*
X171982806Y-154689678D01*
X69218121Y-133039072D02*
X83238921Y-133039073D01*
X102288921Y-87369871D02*
X88268121Y-87369872D01*
X149913920Y-151454072D02*
X149913919Y-165474871D01*
X126368120Y-108909072D02*
X140388920Y-108909072D01*
X171982806Y-154689678D02*
X169548120Y-168497473D01*
X164468119Y-146450271D02*
X164468120Y-132429472D01*
X107318119Y-105149872D02*
X107318120Y-91129072D01*
X121338920Y-72079072D02*
X121338921Y-86099872D01*
X88268120Y-106419872D02*
X88268119Y-92399073D01*
X126368120Y-84829873D02*
X126368120Y-70809074D01*
X126368119Y-122929871D02*
X126368120Y-108909072D01*
X140388920Y-108909072D02*
X140388921Y-122929871D01*
X178488921Y-108350271D02*
X164468121Y-108350271D01*
X88268121Y-87369872D02*
X88268120Y-73349072D01*
X69218119Y-89909873D02*
X69218120Y-75889071D01*
X159438920Y-113379471D02*
X159438921Y-127400272D01*
X180976880Y-72421401D02*
X181025984Y-154451811D01*
X83238921Y-147059872D02*
X69218121Y-147059873D01*
X102288921Y-106419872D02*
X88268120Y-106419872D01*
X102288920Y-130499071D02*
X102288919Y-144519871D01*
X145418120Y-75279472D02*
X159438920Y-75279473D01*
M02*
