%TF.GenerationSoftware,KiCad,Pcbnew,9.0.7*%
%TF.CreationDate,2026-02-21T19:35:25+09:00*%
%TF.ProjectId,bottom-plate,626f7474-6f6d-42d7-906c-6174652e6b69,rev?*%
%TF.SameCoordinates,Original*%
%TF.FileFunction,Drillmap*%
%TF.FilePolarity,Positive*%
%FSLAX45Y45*%
G04 Gerber Fmt 4.5, Leading zero omitted, Abs format (unit mm)*
G04 Created by KiCad (PCBNEW 9.0.7) date 2026-02-21 19:35:25*
%MOMM*%
%LPD*%
G01*
G04 APERTURE LIST*
%ADD10C,0.050000*%
%ADD11C,0.200000*%
G04 APERTURE END LIST*
D10*
X26949400Y-5836920D02*
X28823920Y-5466080D01*
X8930640Y-15590520D02*
X4810760Y-12578080D01*
X10561320Y-5836920D02*
X12435840Y-6207760D01*
X16753840Y-19060160D02*
X14396720Y-17409160D01*
X12633960Y-16586200D02*
X8930640Y-15590520D01*
X17840960Y-8082169D02*
X19674840Y-8082169D01*
X14274800Y-6700520D02*
X17840960Y-8082169D01*
X28823920Y-5466080D02*
X30734001Y-5217160D01*
X12435840Y-6207760D02*
X14274800Y-6700520D01*
X6781800Y-5217160D02*
X8691880Y-5466079D01*
X19674840Y-8082169D02*
X23241000Y-6700520D01*
X23241000Y-6700520D02*
X25079960Y-6207760D01*
X24881840Y-16586201D02*
X23119080Y-17409160D01*
X32705040Y-12583161D02*
X28580080Y-15590520D01*
X14396720Y-17409160D02*
X12633960Y-16586200D01*
X25079960Y-6207760D02*
X26949400Y-5836920D01*
X30734001Y-5217160D02*
X32705040Y-12583161D01*
X28580080Y-15590520D02*
X24881840Y-16586201D01*
X20761960Y-19060160D02*
X16753840Y-19060160D01*
X23119080Y-17409160D02*
X20761960Y-19060160D01*
X8691880Y-5466079D02*
X10561320Y-5836920D01*
X4810760Y-12578080D02*
X6781800Y-5217160D01*
D11*
X5069037Y-19374144D02*
X5069037Y-19174144D01*
X5069037Y-19174144D02*
X5116656Y-19174144D01*
X5116656Y-19174144D02*
X5145228Y-19183668D01*
X5145228Y-19183668D02*
X5164275Y-19202715D01*
X5164275Y-19202715D02*
X5173799Y-19221763D01*
X5173799Y-19221763D02*
X5183323Y-19259858D01*
X5183323Y-19259858D02*
X5183323Y-19288429D01*
X5183323Y-19288429D02*
X5173799Y-19326525D01*
X5173799Y-19326525D02*
X5164275Y-19345572D01*
X5164275Y-19345572D02*
X5145228Y-19364620D01*
X5145228Y-19364620D02*
X5116656Y-19374144D01*
X5116656Y-19374144D02*
X5069037Y-19374144D01*
X5269037Y-19374144D02*
X5269037Y-19240810D01*
X5269037Y-19278906D02*
X5278561Y-19259858D01*
X5278561Y-19259858D02*
X5288085Y-19250334D01*
X5288085Y-19250334D02*
X5307132Y-19240810D01*
X5307132Y-19240810D02*
X5326180Y-19240810D01*
X5392847Y-19374144D02*
X5392847Y-19240810D01*
X5392847Y-19174144D02*
X5383323Y-19183668D01*
X5383323Y-19183668D02*
X5392847Y-19193191D01*
X5392847Y-19193191D02*
X5402370Y-19183668D01*
X5402370Y-19183668D02*
X5392847Y-19174144D01*
X5392847Y-19174144D02*
X5392847Y-19193191D01*
X5516656Y-19374144D02*
X5497609Y-19364620D01*
X5497609Y-19364620D02*
X5488085Y-19345572D01*
X5488085Y-19345572D02*
X5488085Y-19174144D01*
X5621418Y-19374144D02*
X5602370Y-19364620D01*
X5602370Y-19364620D02*
X5592847Y-19345572D01*
X5592847Y-19345572D02*
X5592847Y-19174144D01*
X5849989Y-19374144D02*
X5849989Y-19174144D01*
X5849989Y-19174144D02*
X5916656Y-19317001D01*
X5916656Y-19317001D02*
X5983323Y-19174144D01*
X5983323Y-19174144D02*
X5983323Y-19374144D01*
X6164275Y-19374144D02*
X6164275Y-19269382D01*
X6164275Y-19269382D02*
X6154751Y-19250334D01*
X6154751Y-19250334D02*
X6135704Y-19240810D01*
X6135704Y-19240810D02*
X6097608Y-19240810D01*
X6097608Y-19240810D02*
X6078561Y-19250334D01*
X6164275Y-19364620D02*
X6145228Y-19374144D01*
X6145228Y-19374144D02*
X6097608Y-19374144D01*
X6097608Y-19374144D02*
X6078561Y-19364620D01*
X6078561Y-19364620D02*
X6069037Y-19345572D01*
X6069037Y-19345572D02*
X6069037Y-19326525D01*
X6069037Y-19326525D02*
X6078561Y-19307477D01*
X6078561Y-19307477D02*
X6097608Y-19297953D01*
X6097608Y-19297953D02*
X6145228Y-19297953D01*
X6145228Y-19297953D02*
X6164275Y-19288429D01*
X6259513Y-19240810D02*
X6259513Y-19440810D01*
X6259513Y-19250334D02*
X6278561Y-19240810D01*
X6278561Y-19240810D02*
X6316656Y-19240810D01*
X6316656Y-19240810D02*
X6335704Y-19250334D01*
X6335704Y-19250334D02*
X6345228Y-19259858D01*
X6345228Y-19259858D02*
X6354751Y-19278906D01*
X6354751Y-19278906D02*
X6354751Y-19336048D01*
X6354751Y-19336048D02*
X6345228Y-19355096D01*
X6345228Y-19355096D02*
X6335704Y-19364620D01*
X6335704Y-19364620D02*
X6316656Y-19374144D01*
X6316656Y-19374144D02*
X6278561Y-19374144D01*
X6278561Y-19374144D02*
X6259513Y-19364620D01*
X6440466Y-19355096D02*
X6449989Y-19364620D01*
X6449989Y-19364620D02*
X6440466Y-19374144D01*
X6440466Y-19374144D02*
X6430942Y-19364620D01*
X6430942Y-19364620D02*
X6440466Y-19355096D01*
X6440466Y-19355096D02*
X6440466Y-19374144D01*
X6440466Y-19250334D02*
X6449989Y-19259858D01*
X6449989Y-19259858D02*
X6440466Y-19269382D01*
X6440466Y-19269382D02*
X6430942Y-19259858D01*
X6430942Y-19259858D02*
X6440466Y-19250334D01*
X6440466Y-19250334D02*
X6440466Y-19269382D01*
M02*
