%TF.GenerationSoftware,KiCad,Pcbnew,9.0.7*%
%TF.CreationDate,2026-02-21T19:35:25+09:00*%
%TF.ProjectId,bottom-plate,626f7474-6f6d-42d7-906c-6174652e6b69,rev?*%
%TF.SameCoordinates,Original*%
%TF.FileFunction,Drillmap*%
%TF.FilePolarity,Positive*%
%FSLAX45Y45*%
G04 Gerber Fmt 4.5, Leading zero omitted, Abs format (unit mm)*
G04 Created by KiCad (PCBNEW 9.0.7) date 2026-02-21 19:35:25*
%MOMM*%
%LPD*%
G01*
G04 APERTURE LIST*
%ADD10C,0.050000*%
%ADD11C,0.200000*%
%ADD12C,0.220000*%
%ADD13C,0.350000*%
G04 APERTURE END LIST*
D10*
X26949400Y-5836920D02*
X28823920Y-5466080D01*
X8930640Y-15590520D02*
X4810760Y-12578080D01*
X10561320Y-5836920D02*
X12435840Y-6207760D01*
X16753840Y-19060160D02*
X14396720Y-17409160D01*
X12633960Y-16586200D02*
X8930640Y-15590520D01*
X17840960Y-8082169D02*
X19674840Y-8082169D01*
X14274800Y-6700520D02*
X17840960Y-8082169D01*
X28823920Y-5466080D02*
X30734001Y-5217160D01*
X12435840Y-6207760D02*
X14274800Y-6700520D01*
X6781800Y-5217160D02*
X8691880Y-5466079D01*
X19674840Y-8082169D02*
X23241000Y-6700520D01*
X23241000Y-6700520D02*
X25079960Y-6207760D01*
X24881840Y-16586201D02*
X23119080Y-17409160D01*
X32705040Y-12583161D02*
X28580080Y-15590520D01*
X14396720Y-17409160D02*
X12633960Y-16586200D01*
X25079960Y-6207760D02*
X26949400Y-5836920D01*
X30734001Y-5217160D02*
X32705040Y-12583161D01*
X28580080Y-15590520D02*
X24881840Y-16586201D01*
X20761960Y-19060160D02*
X16753840Y-19060160D01*
X23119080Y-17409160D02*
X20761960Y-19060160D01*
X8691880Y-5466079D02*
X10561320Y-5836920D01*
X4810760Y-12578080D02*
X6781800Y-5217160D01*
D11*
D12*
X6910003Y-13251572D02*
X7130003Y-13471572D01*
X7130003Y-13251572D02*
X6910003Y-13471572D01*
X8065703Y-7307972D02*
X8285703Y-7527972D01*
X8285703Y-7307972D02*
X8065703Y-7527972D01*
X13082203Y-14940672D02*
X13302203Y-15160672D01*
X13302203Y-14940672D02*
X13082203Y-15160672D01*
X15393603Y-9352673D02*
X15613603Y-9572673D01*
X15613603Y-9352673D02*
X15393603Y-9572673D01*
X21896003Y-9352673D02*
X22116003Y-9572673D01*
X22116003Y-9352673D02*
X21896003Y-9572673D01*
X24207403Y-14940672D02*
X24427403Y-15160672D01*
X24427403Y-14940672D02*
X24207403Y-15160672D01*
X29223903Y-7307972D02*
X29443903Y-7527972D01*
X29443903Y-7307972D02*
X29223903Y-7527972D01*
X30379603Y-13251572D02*
X30599603Y-13471572D01*
X30599603Y-13251572D02*
X30379603Y-13471572D01*
D13*
X18945600Y-14947900D02*
G75*
G02*
X18595600Y-14947900I-175000J0D01*
G01*
X18595600Y-14947900D02*
G75*
G02*
X18945600Y-14947900I175000J0D01*
G01*
D11*
X5069037Y-19374144D02*
X5069037Y-19174144D01*
X5069037Y-19174144D02*
X5116656Y-19174144D01*
X5116656Y-19174144D02*
X5145228Y-19183668D01*
X5145228Y-19183668D02*
X5164275Y-19202715D01*
X5164275Y-19202715D02*
X5173799Y-19221763D01*
X5173799Y-19221763D02*
X5183323Y-19259858D01*
X5183323Y-19259858D02*
X5183323Y-19288429D01*
X5183323Y-19288429D02*
X5173799Y-19326525D01*
X5173799Y-19326525D02*
X5164275Y-19345572D01*
X5164275Y-19345572D02*
X5145228Y-19364620D01*
X5145228Y-19364620D02*
X5116656Y-19374144D01*
X5116656Y-19374144D02*
X5069037Y-19374144D01*
X5269037Y-19374144D02*
X5269037Y-19240810D01*
X5269037Y-19278906D02*
X5278561Y-19259858D01*
X5278561Y-19259858D02*
X5288085Y-19250334D01*
X5288085Y-19250334D02*
X5307132Y-19240810D01*
X5307132Y-19240810D02*
X5326180Y-19240810D01*
X5392847Y-19374144D02*
X5392847Y-19240810D01*
X5392847Y-19174144D02*
X5383323Y-19183668D01*
X5383323Y-19183668D02*
X5392847Y-19193191D01*
X5392847Y-19193191D02*
X5402370Y-19183668D01*
X5402370Y-19183668D02*
X5392847Y-19174144D01*
X5392847Y-19174144D02*
X5392847Y-19193191D01*
X5516656Y-19374144D02*
X5497609Y-19364620D01*
X5497609Y-19364620D02*
X5488085Y-19345572D01*
X5488085Y-19345572D02*
X5488085Y-19174144D01*
X5621418Y-19374144D02*
X5602370Y-19364620D01*
X5602370Y-19364620D02*
X5592847Y-19345572D01*
X5592847Y-19345572D02*
X5592847Y-19174144D01*
X5849989Y-19374144D02*
X5849989Y-19174144D01*
X5849989Y-19174144D02*
X5916656Y-19317001D01*
X5916656Y-19317001D02*
X5983323Y-19174144D01*
X5983323Y-19174144D02*
X5983323Y-19374144D01*
X6164275Y-19374144D02*
X6164275Y-19269382D01*
X6164275Y-19269382D02*
X6154751Y-19250334D01*
X6154751Y-19250334D02*
X6135704Y-19240810D01*
X6135704Y-19240810D02*
X6097608Y-19240810D01*
X6097608Y-19240810D02*
X6078561Y-19250334D01*
X6164275Y-19364620D02*
X6145228Y-19374144D01*
X6145228Y-19374144D02*
X6097608Y-19374144D01*
X6097608Y-19374144D02*
X6078561Y-19364620D01*
X6078561Y-19364620D02*
X6069037Y-19345572D01*
X6069037Y-19345572D02*
X6069037Y-19326525D01*
X6069037Y-19326525D02*
X6078561Y-19307477D01*
X6078561Y-19307477D02*
X6097608Y-19297953D01*
X6097608Y-19297953D02*
X6145228Y-19297953D01*
X6145228Y-19297953D02*
X6164275Y-19288429D01*
X6259513Y-19240810D02*
X6259513Y-19440810D01*
X6259513Y-19250334D02*
X6278561Y-19240810D01*
X6278561Y-19240810D02*
X6316656Y-19240810D01*
X6316656Y-19240810D02*
X6335704Y-19250334D01*
X6335704Y-19250334D02*
X6345228Y-19259858D01*
X6345228Y-19259858D02*
X6354751Y-19278906D01*
X6354751Y-19278906D02*
X6354751Y-19336048D01*
X6354751Y-19336048D02*
X6345228Y-19355096D01*
X6345228Y-19355096D02*
X6335704Y-19364620D01*
X6335704Y-19364620D02*
X6316656Y-19374144D01*
X6316656Y-19374144D02*
X6278561Y-19374144D01*
X6278561Y-19374144D02*
X6259513Y-19364620D01*
X6440466Y-19355096D02*
X6449989Y-19364620D01*
X6449989Y-19364620D02*
X6440466Y-19374144D01*
X6440466Y-19374144D02*
X6430942Y-19364620D01*
X6430942Y-19364620D02*
X6440466Y-19355096D01*
X6440466Y-19355096D02*
X6440466Y-19374144D01*
X6440466Y-19250334D02*
X6449989Y-19259858D01*
X6449989Y-19259858D02*
X6440466Y-19269382D01*
X6440466Y-19269382D02*
X6430942Y-19259858D01*
X6430942Y-19259858D02*
X6440466Y-19250334D01*
X6440466Y-19250334D02*
X6440466Y-19269382D01*
X4608260Y-19602660D02*
X4808260Y-19802660D01*
X4808260Y-19602660D02*
X4608260Y-19802660D01*
X5059513Y-19613191D02*
X5069037Y-19603668D01*
X5069037Y-19603668D02*
X5088085Y-19594144D01*
X5088085Y-19594144D02*
X5135704Y-19594144D01*
X5135704Y-19594144D02*
X5154751Y-19603668D01*
X5154751Y-19603668D02*
X5164275Y-19613191D01*
X5164275Y-19613191D02*
X5173799Y-19632239D01*
X5173799Y-19632239D02*
X5173799Y-19651287D01*
X5173799Y-19651287D02*
X5164275Y-19679858D01*
X5164275Y-19679858D02*
X5049990Y-19794144D01*
X5049990Y-19794144D02*
X5173799Y-19794144D01*
X5259513Y-19775096D02*
X5269037Y-19784620D01*
X5269037Y-19784620D02*
X5259513Y-19794144D01*
X5259513Y-19794144D02*
X5249990Y-19784620D01*
X5249990Y-19784620D02*
X5259513Y-19775096D01*
X5259513Y-19775096D02*
X5259513Y-19794144D01*
X5345228Y-19613191D02*
X5354751Y-19603668D01*
X5354751Y-19603668D02*
X5373799Y-19594144D01*
X5373799Y-19594144D02*
X5421418Y-19594144D01*
X5421418Y-19594144D02*
X5440466Y-19603668D01*
X5440466Y-19603668D02*
X5449990Y-19613191D01*
X5449990Y-19613191D02*
X5459513Y-19632239D01*
X5459513Y-19632239D02*
X5459513Y-19651287D01*
X5459513Y-19651287D02*
X5449990Y-19679858D01*
X5449990Y-19679858D02*
X5335704Y-19794144D01*
X5335704Y-19794144D02*
X5459513Y-19794144D01*
X5583323Y-19594144D02*
X5602370Y-19594144D01*
X5602370Y-19594144D02*
X5621418Y-19603668D01*
X5621418Y-19603668D02*
X5630942Y-19613191D01*
X5630942Y-19613191D02*
X5640466Y-19632239D01*
X5640466Y-19632239D02*
X5649989Y-19670334D01*
X5649989Y-19670334D02*
X5649989Y-19717953D01*
X5649989Y-19717953D02*
X5640466Y-19756048D01*
X5640466Y-19756048D02*
X5630942Y-19775096D01*
X5630942Y-19775096D02*
X5621418Y-19784620D01*
X5621418Y-19784620D02*
X5602370Y-19794144D01*
X5602370Y-19794144D02*
X5583323Y-19794144D01*
X5583323Y-19794144D02*
X5564275Y-19784620D01*
X5564275Y-19784620D02*
X5554751Y-19775096D01*
X5554751Y-19775096D02*
X5545228Y-19756048D01*
X5545228Y-19756048D02*
X5535704Y-19717953D01*
X5535704Y-19717953D02*
X5535704Y-19670334D01*
X5535704Y-19670334D02*
X5545228Y-19632239D01*
X5545228Y-19632239D02*
X5554751Y-19613191D01*
X5554751Y-19613191D02*
X5564275Y-19603668D01*
X5564275Y-19603668D02*
X5583323Y-19594144D01*
X5773799Y-19594144D02*
X5792847Y-19594144D01*
X5792847Y-19594144D02*
X5811894Y-19603668D01*
X5811894Y-19603668D02*
X5821418Y-19613191D01*
X5821418Y-19613191D02*
X5830942Y-19632239D01*
X5830942Y-19632239D02*
X5840466Y-19670334D01*
X5840466Y-19670334D02*
X5840466Y-19717953D01*
X5840466Y-19717953D02*
X5830942Y-19756048D01*
X5830942Y-19756048D02*
X5821418Y-19775096D01*
X5821418Y-19775096D02*
X5811894Y-19784620D01*
X5811894Y-19784620D02*
X5792847Y-19794144D01*
X5792847Y-19794144D02*
X5773799Y-19794144D01*
X5773799Y-19794144D02*
X5754751Y-19784620D01*
X5754751Y-19784620D02*
X5745228Y-19775096D01*
X5745228Y-19775096D02*
X5735704Y-19756048D01*
X5735704Y-19756048D02*
X5726180Y-19717953D01*
X5726180Y-19717953D02*
X5726180Y-19670334D01*
X5726180Y-19670334D02*
X5735704Y-19632239D01*
X5735704Y-19632239D02*
X5745228Y-19613191D01*
X5745228Y-19613191D02*
X5754751Y-19603668D01*
X5754751Y-19603668D02*
X5773799Y-19594144D01*
X5926180Y-19794144D02*
X5926180Y-19660810D01*
X5926180Y-19679858D02*
X5935704Y-19670334D01*
X5935704Y-19670334D02*
X5954751Y-19660810D01*
X5954751Y-19660810D02*
X5983323Y-19660810D01*
X5983323Y-19660810D02*
X6002370Y-19670334D01*
X6002370Y-19670334D02*
X6011894Y-19689382D01*
X6011894Y-19689382D02*
X6011894Y-19794144D01*
X6011894Y-19689382D02*
X6021418Y-19670334D01*
X6021418Y-19670334D02*
X6040466Y-19660810D01*
X6040466Y-19660810D02*
X6069037Y-19660810D01*
X6069037Y-19660810D02*
X6088085Y-19670334D01*
X6088085Y-19670334D02*
X6097609Y-19689382D01*
X6097609Y-19689382D02*
X6097609Y-19794144D01*
X6192847Y-19794144D02*
X6192847Y-19660810D01*
X6192847Y-19679858D02*
X6202370Y-19670334D01*
X6202370Y-19670334D02*
X6221418Y-19660810D01*
X6221418Y-19660810D02*
X6249990Y-19660810D01*
X6249990Y-19660810D02*
X6269037Y-19670334D01*
X6269037Y-19670334D02*
X6278561Y-19689382D01*
X6278561Y-19689382D02*
X6278561Y-19794144D01*
X6278561Y-19689382D02*
X6288085Y-19670334D01*
X6288085Y-19670334D02*
X6307132Y-19660810D01*
X6307132Y-19660810D02*
X6335704Y-19660810D01*
X6335704Y-19660810D02*
X6354751Y-19670334D01*
X6354751Y-19670334D02*
X6364275Y-19689382D01*
X6364275Y-19689382D02*
X6364275Y-19794144D01*
X6754751Y-19584620D02*
X6583323Y-19841763D01*
X7011894Y-19594144D02*
X7030942Y-19594144D01*
X7030942Y-19594144D02*
X7049990Y-19603668D01*
X7049990Y-19603668D02*
X7059513Y-19613191D01*
X7059513Y-19613191D02*
X7069037Y-19632239D01*
X7069037Y-19632239D02*
X7078561Y-19670334D01*
X7078561Y-19670334D02*
X7078561Y-19717953D01*
X7078561Y-19717953D02*
X7069037Y-19756048D01*
X7069037Y-19756048D02*
X7059513Y-19775096D01*
X7059513Y-19775096D02*
X7049990Y-19784620D01*
X7049990Y-19784620D02*
X7030942Y-19794144D01*
X7030942Y-19794144D02*
X7011894Y-19794144D01*
X7011894Y-19794144D02*
X6992847Y-19784620D01*
X6992847Y-19784620D02*
X6983323Y-19775096D01*
X6983323Y-19775096D02*
X6973799Y-19756048D01*
X6973799Y-19756048D02*
X6964275Y-19717953D01*
X6964275Y-19717953D02*
X6964275Y-19670334D01*
X6964275Y-19670334D02*
X6973799Y-19632239D01*
X6973799Y-19632239D02*
X6983323Y-19613191D01*
X6983323Y-19613191D02*
X6992847Y-19603668D01*
X6992847Y-19603668D02*
X7011894Y-19594144D01*
X7164275Y-19775096D02*
X7173799Y-19784620D01*
X7173799Y-19784620D02*
X7164275Y-19794144D01*
X7164275Y-19794144D02*
X7154752Y-19784620D01*
X7154752Y-19784620D02*
X7164275Y-19775096D01*
X7164275Y-19775096D02*
X7164275Y-19794144D01*
X7297609Y-19594144D02*
X7316656Y-19594144D01*
X7316656Y-19594144D02*
X7335704Y-19603668D01*
X7335704Y-19603668D02*
X7345228Y-19613191D01*
X7345228Y-19613191D02*
X7354752Y-19632239D01*
X7354752Y-19632239D02*
X7364275Y-19670334D01*
X7364275Y-19670334D02*
X7364275Y-19717953D01*
X7364275Y-19717953D02*
X7354752Y-19756048D01*
X7354752Y-19756048D02*
X7345228Y-19775096D01*
X7345228Y-19775096D02*
X7335704Y-19784620D01*
X7335704Y-19784620D02*
X7316656Y-19794144D01*
X7316656Y-19794144D02*
X7297609Y-19794144D01*
X7297609Y-19794144D02*
X7278561Y-19784620D01*
X7278561Y-19784620D02*
X7269037Y-19775096D01*
X7269037Y-19775096D02*
X7259513Y-19756048D01*
X7259513Y-19756048D02*
X7249990Y-19717953D01*
X7249990Y-19717953D02*
X7249990Y-19670334D01*
X7249990Y-19670334D02*
X7259513Y-19632239D01*
X7259513Y-19632239D02*
X7269037Y-19613191D01*
X7269037Y-19613191D02*
X7278561Y-19603668D01*
X7278561Y-19603668D02*
X7297609Y-19594144D01*
X7478561Y-19679858D02*
X7459513Y-19670334D01*
X7459513Y-19670334D02*
X7449990Y-19660810D01*
X7449990Y-19660810D02*
X7440466Y-19641763D01*
X7440466Y-19641763D02*
X7440466Y-19632239D01*
X7440466Y-19632239D02*
X7449990Y-19613191D01*
X7449990Y-19613191D02*
X7459513Y-19603668D01*
X7459513Y-19603668D02*
X7478561Y-19594144D01*
X7478561Y-19594144D02*
X7516656Y-19594144D01*
X7516656Y-19594144D02*
X7535704Y-19603668D01*
X7535704Y-19603668D02*
X7545228Y-19613191D01*
X7545228Y-19613191D02*
X7554752Y-19632239D01*
X7554752Y-19632239D02*
X7554752Y-19641763D01*
X7554752Y-19641763D02*
X7545228Y-19660810D01*
X7545228Y-19660810D02*
X7535704Y-19670334D01*
X7535704Y-19670334D02*
X7516656Y-19679858D01*
X7516656Y-19679858D02*
X7478561Y-19679858D01*
X7478561Y-19679858D02*
X7459513Y-19689382D01*
X7459513Y-19689382D02*
X7449990Y-19698906D01*
X7449990Y-19698906D02*
X7440466Y-19717953D01*
X7440466Y-19717953D02*
X7440466Y-19756048D01*
X7440466Y-19756048D02*
X7449990Y-19775096D01*
X7449990Y-19775096D02*
X7459513Y-19784620D01*
X7459513Y-19784620D02*
X7478561Y-19794144D01*
X7478561Y-19794144D02*
X7516656Y-19794144D01*
X7516656Y-19794144D02*
X7535704Y-19784620D01*
X7535704Y-19784620D02*
X7545228Y-19775096D01*
X7545228Y-19775096D02*
X7554752Y-19756048D01*
X7554752Y-19756048D02*
X7554752Y-19717953D01*
X7554752Y-19717953D02*
X7545228Y-19698906D01*
X7545228Y-19698906D02*
X7535704Y-19689382D01*
X7535704Y-19689382D02*
X7516656Y-19679858D01*
X7726180Y-19594144D02*
X7688085Y-19594144D01*
X7688085Y-19594144D02*
X7669037Y-19603668D01*
X7669037Y-19603668D02*
X7659513Y-19613191D01*
X7659513Y-19613191D02*
X7640466Y-19641763D01*
X7640466Y-19641763D02*
X7630942Y-19679858D01*
X7630942Y-19679858D02*
X7630942Y-19756048D01*
X7630942Y-19756048D02*
X7640466Y-19775096D01*
X7640466Y-19775096D02*
X7649990Y-19784620D01*
X7649990Y-19784620D02*
X7669037Y-19794144D01*
X7669037Y-19794144D02*
X7707133Y-19794144D01*
X7707133Y-19794144D02*
X7726180Y-19784620D01*
X7726180Y-19784620D02*
X7735704Y-19775096D01*
X7735704Y-19775096D02*
X7745228Y-19756048D01*
X7745228Y-19756048D02*
X7745228Y-19708429D01*
X7745228Y-19708429D02*
X7735704Y-19689382D01*
X7735704Y-19689382D02*
X7726180Y-19679858D01*
X7726180Y-19679858D02*
X7707133Y-19670334D01*
X7707133Y-19670334D02*
X7669037Y-19670334D01*
X7669037Y-19670334D02*
X7649990Y-19679858D01*
X7649990Y-19679858D02*
X7640466Y-19689382D01*
X7640466Y-19689382D02*
X7630942Y-19708429D01*
X7916656Y-19594144D02*
X7878561Y-19594144D01*
X7878561Y-19594144D02*
X7859513Y-19603668D01*
X7859513Y-19603668D02*
X7849990Y-19613191D01*
X7849990Y-19613191D02*
X7830942Y-19641763D01*
X7830942Y-19641763D02*
X7821418Y-19679858D01*
X7821418Y-19679858D02*
X7821418Y-19756048D01*
X7821418Y-19756048D02*
X7830942Y-19775096D01*
X7830942Y-19775096D02*
X7840466Y-19784620D01*
X7840466Y-19784620D02*
X7859513Y-19794144D01*
X7859513Y-19794144D02*
X7897609Y-19794144D01*
X7897609Y-19794144D02*
X7916656Y-19784620D01*
X7916656Y-19784620D02*
X7926180Y-19775096D01*
X7926180Y-19775096D02*
X7935704Y-19756048D01*
X7935704Y-19756048D02*
X7935704Y-19708429D01*
X7935704Y-19708429D02*
X7926180Y-19689382D01*
X7926180Y-19689382D02*
X7916656Y-19679858D01*
X7916656Y-19679858D02*
X7897609Y-19670334D01*
X7897609Y-19670334D02*
X7859513Y-19670334D01*
X7859513Y-19670334D02*
X7840466Y-19679858D01*
X7840466Y-19679858D02*
X7830942Y-19689382D01*
X7830942Y-19689382D02*
X7821418Y-19708429D01*
X8011894Y-19594144D02*
X8011894Y-19632239D01*
X8088085Y-19594144D02*
X8088085Y-19632239D01*
X8383323Y-19870334D02*
X8373799Y-19860810D01*
X8373799Y-19860810D02*
X8354752Y-19832239D01*
X8354752Y-19832239D02*
X8345228Y-19813191D01*
X8345228Y-19813191D02*
X8335704Y-19784620D01*
X8335704Y-19784620D02*
X8326180Y-19737001D01*
X8326180Y-19737001D02*
X8326180Y-19698906D01*
X8326180Y-19698906D02*
X8335704Y-19651287D01*
X8335704Y-19651287D02*
X8345228Y-19622715D01*
X8345228Y-19622715D02*
X8354752Y-19603668D01*
X8354752Y-19603668D02*
X8373799Y-19575096D01*
X8373799Y-19575096D02*
X8383323Y-19565572D01*
X8488085Y-19679858D02*
X8469037Y-19670334D01*
X8469037Y-19670334D02*
X8459514Y-19660810D01*
X8459514Y-19660810D02*
X8449990Y-19641763D01*
X8449990Y-19641763D02*
X8449990Y-19632239D01*
X8449990Y-19632239D02*
X8459514Y-19613191D01*
X8459514Y-19613191D02*
X8469037Y-19603668D01*
X8469037Y-19603668D02*
X8488085Y-19594144D01*
X8488085Y-19594144D02*
X8526180Y-19594144D01*
X8526180Y-19594144D02*
X8545228Y-19603668D01*
X8545228Y-19603668D02*
X8554752Y-19613191D01*
X8554752Y-19613191D02*
X8564276Y-19632239D01*
X8564276Y-19632239D02*
X8564276Y-19641763D01*
X8564276Y-19641763D02*
X8554752Y-19660810D01*
X8554752Y-19660810D02*
X8545228Y-19670334D01*
X8545228Y-19670334D02*
X8526180Y-19679858D01*
X8526180Y-19679858D02*
X8488085Y-19679858D01*
X8488085Y-19679858D02*
X8469037Y-19689382D01*
X8469037Y-19689382D02*
X8459514Y-19698906D01*
X8459514Y-19698906D02*
X8449990Y-19717953D01*
X8449990Y-19717953D02*
X8449990Y-19756048D01*
X8449990Y-19756048D02*
X8459514Y-19775096D01*
X8459514Y-19775096D02*
X8469037Y-19784620D01*
X8469037Y-19784620D02*
X8488085Y-19794144D01*
X8488085Y-19794144D02*
X8526180Y-19794144D01*
X8526180Y-19794144D02*
X8545228Y-19784620D01*
X8545228Y-19784620D02*
X8554752Y-19775096D01*
X8554752Y-19775096D02*
X8564276Y-19756048D01*
X8564276Y-19756048D02*
X8564276Y-19717953D01*
X8564276Y-19717953D02*
X8554752Y-19698906D01*
X8554752Y-19698906D02*
X8545228Y-19689382D01*
X8545228Y-19689382D02*
X8526180Y-19679858D01*
X8802371Y-19794144D02*
X8802371Y-19594144D01*
X8888085Y-19794144D02*
X8888085Y-19689382D01*
X8888085Y-19689382D02*
X8878561Y-19670334D01*
X8878561Y-19670334D02*
X8859514Y-19660810D01*
X8859514Y-19660810D02*
X8830942Y-19660810D01*
X8830942Y-19660810D02*
X8811895Y-19670334D01*
X8811895Y-19670334D02*
X8802371Y-19679858D01*
X9011895Y-19794144D02*
X8992847Y-19784620D01*
X8992847Y-19784620D02*
X8983323Y-19775096D01*
X8983323Y-19775096D02*
X8973799Y-19756048D01*
X8973799Y-19756048D02*
X8973799Y-19698906D01*
X8973799Y-19698906D02*
X8983323Y-19679858D01*
X8983323Y-19679858D02*
X8992847Y-19670334D01*
X8992847Y-19670334D02*
X9011895Y-19660810D01*
X9011895Y-19660810D02*
X9040466Y-19660810D01*
X9040466Y-19660810D02*
X9059514Y-19670334D01*
X9059514Y-19670334D02*
X9069038Y-19679858D01*
X9069038Y-19679858D02*
X9078561Y-19698906D01*
X9078561Y-19698906D02*
X9078561Y-19756048D01*
X9078561Y-19756048D02*
X9069038Y-19775096D01*
X9069038Y-19775096D02*
X9059514Y-19784620D01*
X9059514Y-19784620D02*
X9040466Y-19794144D01*
X9040466Y-19794144D02*
X9011895Y-19794144D01*
X9192847Y-19794144D02*
X9173799Y-19784620D01*
X9173799Y-19784620D02*
X9164276Y-19765572D01*
X9164276Y-19765572D02*
X9164276Y-19594144D01*
X9345228Y-19784620D02*
X9326180Y-19794144D01*
X9326180Y-19794144D02*
X9288085Y-19794144D01*
X9288085Y-19794144D02*
X9269038Y-19784620D01*
X9269038Y-19784620D02*
X9259514Y-19765572D01*
X9259514Y-19765572D02*
X9259514Y-19689382D01*
X9259514Y-19689382D02*
X9269038Y-19670334D01*
X9269038Y-19670334D02*
X9288085Y-19660810D01*
X9288085Y-19660810D02*
X9326180Y-19660810D01*
X9326180Y-19660810D02*
X9345228Y-19670334D01*
X9345228Y-19670334D02*
X9354752Y-19689382D01*
X9354752Y-19689382D02*
X9354752Y-19708429D01*
X9354752Y-19708429D02*
X9259514Y-19727477D01*
X9430942Y-19784620D02*
X9449990Y-19794144D01*
X9449990Y-19794144D02*
X9488085Y-19794144D01*
X9488085Y-19794144D02*
X9507133Y-19784620D01*
X9507133Y-19784620D02*
X9516657Y-19765572D01*
X9516657Y-19765572D02*
X9516657Y-19756048D01*
X9516657Y-19756048D02*
X9507133Y-19737001D01*
X9507133Y-19737001D02*
X9488085Y-19727477D01*
X9488085Y-19727477D02*
X9459514Y-19727477D01*
X9459514Y-19727477D02*
X9440466Y-19717953D01*
X9440466Y-19717953D02*
X9430942Y-19698906D01*
X9430942Y-19698906D02*
X9430942Y-19689382D01*
X9430942Y-19689382D02*
X9440466Y-19670334D01*
X9440466Y-19670334D02*
X9459514Y-19660810D01*
X9459514Y-19660810D02*
X9488085Y-19660810D01*
X9488085Y-19660810D02*
X9507133Y-19670334D01*
X9583323Y-19870334D02*
X9592847Y-19860810D01*
X9592847Y-19860810D02*
X9611895Y-19832239D01*
X9611895Y-19832239D02*
X9621419Y-19813191D01*
X9621419Y-19813191D02*
X9630942Y-19784620D01*
X9630942Y-19784620D02*
X9640466Y-19737001D01*
X9640466Y-19737001D02*
X9640466Y-19698906D01*
X9640466Y-19698906D02*
X9630942Y-19651287D01*
X9630942Y-19651287D02*
X9621419Y-19622715D01*
X9621419Y-19622715D02*
X9611895Y-19603668D01*
X9611895Y-19603668D02*
X9592847Y-19575096D01*
X9592847Y-19575096D02*
X9583323Y-19565572D01*
X9945228Y-19870334D02*
X9935704Y-19860810D01*
X9935704Y-19860810D02*
X9916657Y-19832239D01*
X9916657Y-19832239D02*
X9907133Y-19813191D01*
X9907133Y-19813191D02*
X9897609Y-19784620D01*
X9897609Y-19784620D02*
X9888085Y-19737001D01*
X9888085Y-19737001D02*
X9888085Y-19698906D01*
X9888085Y-19698906D02*
X9897609Y-19651287D01*
X9897609Y-19651287D02*
X9907133Y-19622715D01*
X9907133Y-19622715D02*
X9916657Y-19603668D01*
X9916657Y-19603668D02*
X9935704Y-19575096D01*
X9935704Y-19575096D02*
X9945228Y-19565572D01*
X10021419Y-19660810D02*
X10021419Y-19794144D01*
X10021419Y-19679858D02*
X10030942Y-19670334D01*
X10030942Y-19670334D02*
X10049990Y-19660810D01*
X10049990Y-19660810D02*
X10078561Y-19660810D01*
X10078561Y-19660810D02*
X10097609Y-19670334D01*
X10097609Y-19670334D02*
X10107133Y-19689382D01*
X10107133Y-19689382D02*
X10107133Y-19794144D01*
X10230942Y-19794144D02*
X10211895Y-19784620D01*
X10211895Y-19784620D02*
X10202371Y-19775096D01*
X10202371Y-19775096D02*
X10192847Y-19756048D01*
X10192847Y-19756048D02*
X10192847Y-19698906D01*
X10192847Y-19698906D02*
X10202371Y-19679858D01*
X10202371Y-19679858D02*
X10211895Y-19670334D01*
X10211895Y-19670334D02*
X10230942Y-19660810D01*
X10230942Y-19660810D02*
X10259514Y-19660810D01*
X10259514Y-19660810D02*
X10278561Y-19670334D01*
X10278561Y-19670334D02*
X10288085Y-19679858D01*
X10288085Y-19679858D02*
X10297609Y-19698906D01*
X10297609Y-19698906D02*
X10297609Y-19756048D01*
X10297609Y-19756048D02*
X10288085Y-19775096D01*
X10288085Y-19775096D02*
X10278561Y-19784620D01*
X10278561Y-19784620D02*
X10259514Y-19794144D01*
X10259514Y-19794144D02*
X10230942Y-19794144D01*
X10354752Y-19660810D02*
X10430942Y-19660810D01*
X10383323Y-19594144D02*
X10383323Y-19765572D01*
X10383323Y-19765572D02*
X10392847Y-19784620D01*
X10392847Y-19784620D02*
X10411895Y-19794144D01*
X10411895Y-19794144D02*
X10430942Y-19794144D01*
X10649990Y-19660810D02*
X10649990Y-19860810D01*
X10649990Y-19670334D02*
X10669038Y-19660810D01*
X10669038Y-19660810D02*
X10707133Y-19660810D01*
X10707133Y-19660810D02*
X10726181Y-19670334D01*
X10726181Y-19670334D02*
X10735704Y-19679858D01*
X10735704Y-19679858D02*
X10745228Y-19698906D01*
X10745228Y-19698906D02*
X10745228Y-19756048D01*
X10745228Y-19756048D02*
X10735704Y-19775096D01*
X10735704Y-19775096D02*
X10726181Y-19784620D01*
X10726181Y-19784620D02*
X10707133Y-19794144D01*
X10707133Y-19794144D02*
X10669038Y-19794144D01*
X10669038Y-19794144D02*
X10649990Y-19784620D01*
X10859514Y-19794144D02*
X10840466Y-19784620D01*
X10840466Y-19784620D02*
X10830942Y-19765572D01*
X10830942Y-19765572D02*
X10830942Y-19594144D01*
X11021419Y-19794144D02*
X11021419Y-19689382D01*
X11021419Y-19689382D02*
X11011895Y-19670334D01*
X11011895Y-19670334D02*
X10992847Y-19660810D01*
X10992847Y-19660810D02*
X10954752Y-19660810D01*
X10954752Y-19660810D02*
X10935704Y-19670334D01*
X11021419Y-19784620D02*
X11002371Y-19794144D01*
X11002371Y-19794144D02*
X10954752Y-19794144D01*
X10954752Y-19794144D02*
X10935704Y-19784620D01*
X10935704Y-19784620D02*
X10926181Y-19765572D01*
X10926181Y-19765572D02*
X10926181Y-19746525D01*
X10926181Y-19746525D02*
X10935704Y-19727477D01*
X10935704Y-19727477D02*
X10954752Y-19717953D01*
X10954752Y-19717953D02*
X11002371Y-19717953D01*
X11002371Y-19717953D02*
X11021419Y-19708429D01*
X11088085Y-19660810D02*
X11164276Y-19660810D01*
X11116657Y-19594144D02*
X11116657Y-19765572D01*
X11116657Y-19765572D02*
X11126181Y-19784620D01*
X11126181Y-19784620D02*
X11145228Y-19794144D01*
X11145228Y-19794144D02*
X11164276Y-19794144D01*
X11307133Y-19784620D02*
X11288085Y-19794144D01*
X11288085Y-19794144D02*
X11249990Y-19794144D01*
X11249990Y-19794144D02*
X11230942Y-19784620D01*
X11230942Y-19784620D02*
X11221419Y-19765572D01*
X11221419Y-19765572D02*
X11221419Y-19689382D01*
X11221419Y-19689382D02*
X11230942Y-19670334D01*
X11230942Y-19670334D02*
X11249990Y-19660810D01*
X11249990Y-19660810D02*
X11288085Y-19660810D01*
X11288085Y-19660810D02*
X11307133Y-19670334D01*
X11307133Y-19670334D02*
X11316657Y-19689382D01*
X11316657Y-19689382D02*
X11316657Y-19708429D01*
X11316657Y-19708429D02*
X11221419Y-19727477D01*
X11488085Y-19794144D02*
X11488085Y-19594144D01*
X11488085Y-19784620D02*
X11469038Y-19794144D01*
X11469038Y-19794144D02*
X11430942Y-19794144D01*
X11430942Y-19794144D02*
X11411895Y-19784620D01*
X11411895Y-19784620D02*
X11402371Y-19775096D01*
X11402371Y-19775096D02*
X11392847Y-19756048D01*
X11392847Y-19756048D02*
X11392847Y-19698906D01*
X11392847Y-19698906D02*
X11402371Y-19679858D01*
X11402371Y-19679858D02*
X11411895Y-19670334D01*
X11411895Y-19670334D02*
X11430942Y-19660810D01*
X11430942Y-19660810D02*
X11469038Y-19660810D01*
X11469038Y-19660810D02*
X11488085Y-19670334D01*
X11564276Y-19870334D02*
X11573800Y-19860810D01*
X11573800Y-19860810D02*
X11592847Y-19832239D01*
X11592847Y-19832239D02*
X11602371Y-19813191D01*
X11602371Y-19813191D02*
X11611895Y-19784620D01*
X11611895Y-19784620D02*
X11621419Y-19737001D01*
X11621419Y-19737001D02*
X11621419Y-19698906D01*
X11621419Y-19698906D02*
X11611895Y-19651287D01*
X11611895Y-19651287D02*
X11602371Y-19622715D01*
X11602371Y-19622715D02*
X11592847Y-19603668D01*
X11592847Y-19603668D02*
X11573800Y-19575096D01*
X11573800Y-19575096D02*
X11564276Y-19565572D01*
X4808260Y-20022660D02*
G75*
G02*
X4608260Y-20022660I-100000J0D01*
G01*
X4608260Y-20022660D02*
G75*
G02*
X4808260Y-20022660I100000J0D01*
G01*
X5049990Y-19914144D02*
X5173799Y-19914144D01*
X5173799Y-19914144D02*
X5107132Y-19990334D01*
X5107132Y-19990334D02*
X5135704Y-19990334D01*
X5135704Y-19990334D02*
X5154751Y-19999858D01*
X5154751Y-19999858D02*
X5164275Y-20009382D01*
X5164275Y-20009382D02*
X5173799Y-20028429D01*
X5173799Y-20028429D02*
X5173799Y-20076048D01*
X5173799Y-20076048D02*
X5164275Y-20095096D01*
X5164275Y-20095096D02*
X5154751Y-20104620D01*
X5154751Y-20104620D02*
X5135704Y-20114144D01*
X5135704Y-20114144D02*
X5078561Y-20114144D01*
X5078561Y-20114144D02*
X5059513Y-20104620D01*
X5059513Y-20104620D02*
X5049990Y-20095096D01*
X5259513Y-20095096D02*
X5269037Y-20104620D01*
X5269037Y-20104620D02*
X5259513Y-20114144D01*
X5259513Y-20114144D02*
X5249990Y-20104620D01*
X5249990Y-20104620D02*
X5259513Y-20095096D01*
X5259513Y-20095096D02*
X5259513Y-20114144D01*
X5449990Y-19914144D02*
X5354751Y-19914144D01*
X5354751Y-19914144D02*
X5345228Y-20009382D01*
X5345228Y-20009382D02*
X5354751Y-19999858D01*
X5354751Y-19999858D02*
X5373799Y-19990334D01*
X5373799Y-19990334D02*
X5421418Y-19990334D01*
X5421418Y-19990334D02*
X5440466Y-19999858D01*
X5440466Y-19999858D02*
X5449990Y-20009382D01*
X5449990Y-20009382D02*
X5459513Y-20028429D01*
X5459513Y-20028429D02*
X5459513Y-20076048D01*
X5459513Y-20076048D02*
X5449990Y-20095096D01*
X5449990Y-20095096D02*
X5440466Y-20104620D01*
X5440466Y-20104620D02*
X5421418Y-20114144D01*
X5421418Y-20114144D02*
X5373799Y-20114144D01*
X5373799Y-20114144D02*
X5354751Y-20104620D01*
X5354751Y-20104620D02*
X5345228Y-20095096D01*
X5583323Y-19914144D02*
X5602370Y-19914144D01*
X5602370Y-19914144D02*
X5621418Y-19923668D01*
X5621418Y-19923668D02*
X5630942Y-19933191D01*
X5630942Y-19933191D02*
X5640466Y-19952239D01*
X5640466Y-19952239D02*
X5649989Y-19990334D01*
X5649989Y-19990334D02*
X5649989Y-20037953D01*
X5649989Y-20037953D02*
X5640466Y-20076048D01*
X5640466Y-20076048D02*
X5630942Y-20095096D01*
X5630942Y-20095096D02*
X5621418Y-20104620D01*
X5621418Y-20104620D02*
X5602370Y-20114144D01*
X5602370Y-20114144D02*
X5583323Y-20114144D01*
X5583323Y-20114144D02*
X5564275Y-20104620D01*
X5564275Y-20104620D02*
X5554751Y-20095096D01*
X5554751Y-20095096D02*
X5545228Y-20076048D01*
X5545228Y-20076048D02*
X5535704Y-20037953D01*
X5535704Y-20037953D02*
X5535704Y-19990334D01*
X5535704Y-19990334D02*
X5545228Y-19952239D01*
X5545228Y-19952239D02*
X5554751Y-19933191D01*
X5554751Y-19933191D02*
X5564275Y-19923668D01*
X5564275Y-19923668D02*
X5583323Y-19914144D01*
X5773799Y-19914144D02*
X5792847Y-19914144D01*
X5792847Y-19914144D02*
X5811894Y-19923668D01*
X5811894Y-19923668D02*
X5821418Y-19933191D01*
X5821418Y-19933191D02*
X5830942Y-19952239D01*
X5830942Y-19952239D02*
X5840466Y-19990334D01*
X5840466Y-19990334D02*
X5840466Y-20037953D01*
X5840466Y-20037953D02*
X5830942Y-20076048D01*
X5830942Y-20076048D02*
X5821418Y-20095096D01*
X5821418Y-20095096D02*
X5811894Y-20104620D01*
X5811894Y-20104620D02*
X5792847Y-20114144D01*
X5792847Y-20114144D02*
X5773799Y-20114144D01*
X5773799Y-20114144D02*
X5754751Y-20104620D01*
X5754751Y-20104620D02*
X5745228Y-20095096D01*
X5745228Y-20095096D02*
X5735704Y-20076048D01*
X5735704Y-20076048D02*
X5726180Y-20037953D01*
X5726180Y-20037953D02*
X5726180Y-19990334D01*
X5726180Y-19990334D02*
X5735704Y-19952239D01*
X5735704Y-19952239D02*
X5745228Y-19933191D01*
X5745228Y-19933191D02*
X5754751Y-19923668D01*
X5754751Y-19923668D02*
X5773799Y-19914144D01*
X5926180Y-20114144D02*
X5926180Y-19980810D01*
X5926180Y-19999858D02*
X5935704Y-19990334D01*
X5935704Y-19990334D02*
X5954751Y-19980810D01*
X5954751Y-19980810D02*
X5983323Y-19980810D01*
X5983323Y-19980810D02*
X6002370Y-19990334D01*
X6002370Y-19990334D02*
X6011894Y-20009382D01*
X6011894Y-20009382D02*
X6011894Y-20114144D01*
X6011894Y-20009382D02*
X6021418Y-19990334D01*
X6021418Y-19990334D02*
X6040466Y-19980810D01*
X6040466Y-19980810D02*
X6069037Y-19980810D01*
X6069037Y-19980810D02*
X6088085Y-19990334D01*
X6088085Y-19990334D02*
X6097609Y-20009382D01*
X6097609Y-20009382D02*
X6097609Y-20114144D01*
X6192847Y-20114144D02*
X6192847Y-19980810D01*
X6192847Y-19999858D02*
X6202370Y-19990334D01*
X6202370Y-19990334D02*
X6221418Y-19980810D01*
X6221418Y-19980810D02*
X6249990Y-19980810D01*
X6249990Y-19980810D02*
X6269037Y-19990334D01*
X6269037Y-19990334D02*
X6278561Y-20009382D01*
X6278561Y-20009382D02*
X6278561Y-20114144D01*
X6278561Y-20009382D02*
X6288085Y-19990334D01*
X6288085Y-19990334D02*
X6307132Y-19980810D01*
X6307132Y-19980810D02*
X6335704Y-19980810D01*
X6335704Y-19980810D02*
X6354751Y-19990334D01*
X6354751Y-19990334D02*
X6364275Y-20009382D01*
X6364275Y-20009382D02*
X6364275Y-20114144D01*
X6754751Y-19904620D02*
X6583323Y-20161763D01*
X7011894Y-19914144D02*
X7030942Y-19914144D01*
X7030942Y-19914144D02*
X7049990Y-19923668D01*
X7049990Y-19923668D02*
X7059513Y-19933191D01*
X7059513Y-19933191D02*
X7069037Y-19952239D01*
X7069037Y-19952239D02*
X7078561Y-19990334D01*
X7078561Y-19990334D02*
X7078561Y-20037953D01*
X7078561Y-20037953D02*
X7069037Y-20076048D01*
X7069037Y-20076048D02*
X7059513Y-20095096D01*
X7059513Y-20095096D02*
X7049990Y-20104620D01*
X7049990Y-20104620D02*
X7030942Y-20114144D01*
X7030942Y-20114144D02*
X7011894Y-20114144D01*
X7011894Y-20114144D02*
X6992847Y-20104620D01*
X6992847Y-20104620D02*
X6983323Y-20095096D01*
X6983323Y-20095096D02*
X6973799Y-20076048D01*
X6973799Y-20076048D02*
X6964275Y-20037953D01*
X6964275Y-20037953D02*
X6964275Y-19990334D01*
X6964275Y-19990334D02*
X6973799Y-19952239D01*
X6973799Y-19952239D02*
X6983323Y-19933191D01*
X6983323Y-19933191D02*
X6992847Y-19923668D01*
X6992847Y-19923668D02*
X7011894Y-19914144D01*
X7164275Y-20095096D02*
X7173799Y-20104620D01*
X7173799Y-20104620D02*
X7164275Y-20114144D01*
X7164275Y-20114144D02*
X7154752Y-20104620D01*
X7154752Y-20104620D02*
X7164275Y-20095096D01*
X7164275Y-20095096D02*
X7164275Y-20114144D01*
X7364275Y-20114144D02*
X7249990Y-20114144D01*
X7307132Y-20114144D02*
X7307132Y-19914144D01*
X7307132Y-19914144D02*
X7288085Y-19942715D01*
X7288085Y-19942715D02*
X7269037Y-19961763D01*
X7269037Y-19961763D02*
X7249990Y-19971287D01*
X7430942Y-19914144D02*
X7554752Y-19914144D01*
X7554752Y-19914144D02*
X7488085Y-19990334D01*
X7488085Y-19990334D02*
X7516656Y-19990334D01*
X7516656Y-19990334D02*
X7535704Y-19999858D01*
X7535704Y-19999858D02*
X7545228Y-20009382D01*
X7545228Y-20009382D02*
X7554752Y-20028429D01*
X7554752Y-20028429D02*
X7554752Y-20076048D01*
X7554752Y-20076048D02*
X7545228Y-20095096D01*
X7545228Y-20095096D02*
X7535704Y-20104620D01*
X7535704Y-20104620D02*
X7516656Y-20114144D01*
X7516656Y-20114144D02*
X7459513Y-20114144D01*
X7459513Y-20114144D02*
X7440466Y-20104620D01*
X7440466Y-20104620D02*
X7430942Y-20095096D01*
X7621418Y-19914144D02*
X7754752Y-19914144D01*
X7754752Y-19914144D02*
X7669037Y-20114144D01*
X7859513Y-19999858D02*
X7840466Y-19990334D01*
X7840466Y-19990334D02*
X7830942Y-19980810D01*
X7830942Y-19980810D02*
X7821418Y-19961763D01*
X7821418Y-19961763D02*
X7821418Y-19952239D01*
X7821418Y-19952239D02*
X7830942Y-19933191D01*
X7830942Y-19933191D02*
X7840466Y-19923668D01*
X7840466Y-19923668D02*
X7859513Y-19914144D01*
X7859513Y-19914144D02*
X7897609Y-19914144D01*
X7897609Y-19914144D02*
X7916656Y-19923668D01*
X7916656Y-19923668D02*
X7926180Y-19933191D01*
X7926180Y-19933191D02*
X7935704Y-19952239D01*
X7935704Y-19952239D02*
X7935704Y-19961763D01*
X7935704Y-19961763D02*
X7926180Y-19980810D01*
X7926180Y-19980810D02*
X7916656Y-19990334D01*
X7916656Y-19990334D02*
X7897609Y-19999858D01*
X7897609Y-19999858D02*
X7859513Y-19999858D01*
X7859513Y-19999858D02*
X7840466Y-20009382D01*
X7840466Y-20009382D02*
X7830942Y-20018906D01*
X7830942Y-20018906D02*
X7821418Y-20037953D01*
X7821418Y-20037953D02*
X7821418Y-20076048D01*
X7821418Y-20076048D02*
X7830942Y-20095096D01*
X7830942Y-20095096D02*
X7840466Y-20104620D01*
X7840466Y-20104620D02*
X7859513Y-20114144D01*
X7859513Y-20114144D02*
X7897609Y-20114144D01*
X7897609Y-20114144D02*
X7916656Y-20104620D01*
X7916656Y-20104620D02*
X7926180Y-20095096D01*
X7926180Y-20095096D02*
X7935704Y-20076048D01*
X7935704Y-20076048D02*
X7935704Y-20037953D01*
X7935704Y-20037953D02*
X7926180Y-20018906D01*
X7926180Y-20018906D02*
X7916656Y-20009382D01*
X7916656Y-20009382D02*
X7897609Y-19999858D01*
X8011894Y-19914144D02*
X8011894Y-19952239D01*
X8088085Y-19914144D02*
X8088085Y-19952239D01*
X8383323Y-20190334D02*
X8373799Y-20180810D01*
X8373799Y-20180810D02*
X8354752Y-20152239D01*
X8354752Y-20152239D02*
X8345228Y-20133191D01*
X8345228Y-20133191D02*
X8335704Y-20104620D01*
X8335704Y-20104620D02*
X8326180Y-20057001D01*
X8326180Y-20057001D02*
X8326180Y-20018906D01*
X8326180Y-20018906D02*
X8335704Y-19971287D01*
X8335704Y-19971287D02*
X8345228Y-19942715D01*
X8345228Y-19942715D02*
X8354752Y-19923668D01*
X8354752Y-19923668D02*
X8373799Y-19895096D01*
X8373799Y-19895096D02*
X8383323Y-19885572D01*
X8564276Y-20114144D02*
X8449990Y-20114144D01*
X8507133Y-20114144D02*
X8507133Y-19914144D01*
X8507133Y-19914144D02*
X8488085Y-19942715D01*
X8488085Y-19942715D02*
X8469037Y-19961763D01*
X8469037Y-19961763D02*
X8449990Y-19971287D01*
X8802371Y-20114144D02*
X8802371Y-19914144D01*
X8888085Y-20114144D02*
X8888085Y-20009382D01*
X8888085Y-20009382D02*
X8878561Y-19990334D01*
X8878561Y-19990334D02*
X8859514Y-19980810D01*
X8859514Y-19980810D02*
X8830942Y-19980810D01*
X8830942Y-19980810D02*
X8811895Y-19990334D01*
X8811895Y-19990334D02*
X8802371Y-19999858D01*
X9011895Y-20114144D02*
X8992847Y-20104620D01*
X8992847Y-20104620D02*
X8983323Y-20095096D01*
X8983323Y-20095096D02*
X8973799Y-20076048D01*
X8973799Y-20076048D02*
X8973799Y-20018906D01*
X8973799Y-20018906D02*
X8983323Y-19999858D01*
X8983323Y-19999858D02*
X8992847Y-19990334D01*
X8992847Y-19990334D02*
X9011895Y-19980810D01*
X9011895Y-19980810D02*
X9040466Y-19980810D01*
X9040466Y-19980810D02*
X9059514Y-19990334D01*
X9059514Y-19990334D02*
X9069038Y-19999858D01*
X9069038Y-19999858D02*
X9078561Y-20018906D01*
X9078561Y-20018906D02*
X9078561Y-20076048D01*
X9078561Y-20076048D02*
X9069038Y-20095096D01*
X9069038Y-20095096D02*
X9059514Y-20104620D01*
X9059514Y-20104620D02*
X9040466Y-20114144D01*
X9040466Y-20114144D02*
X9011895Y-20114144D01*
X9192847Y-20114144D02*
X9173799Y-20104620D01*
X9173799Y-20104620D02*
X9164276Y-20085572D01*
X9164276Y-20085572D02*
X9164276Y-19914144D01*
X9345228Y-20104620D02*
X9326180Y-20114144D01*
X9326180Y-20114144D02*
X9288085Y-20114144D01*
X9288085Y-20114144D02*
X9269038Y-20104620D01*
X9269038Y-20104620D02*
X9259514Y-20085572D01*
X9259514Y-20085572D02*
X9259514Y-20009382D01*
X9259514Y-20009382D02*
X9269038Y-19990334D01*
X9269038Y-19990334D02*
X9288085Y-19980810D01*
X9288085Y-19980810D02*
X9326180Y-19980810D01*
X9326180Y-19980810D02*
X9345228Y-19990334D01*
X9345228Y-19990334D02*
X9354752Y-20009382D01*
X9354752Y-20009382D02*
X9354752Y-20028429D01*
X9354752Y-20028429D02*
X9259514Y-20047477D01*
X9421419Y-20190334D02*
X9430942Y-20180810D01*
X9430942Y-20180810D02*
X9449990Y-20152239D01*
X9449990Y-20152239D02*
X9459514Y-20133191D01*
X9459514Y-20133191D02*
X9469038Y-20104620D01*
X9469038Y-20104620D02*
X9478561Y-20057001D01*
X9478561Y-20057001D02*
X9478561Y-20018906D01*
X9478561Y-20018906D02*
X9469038Y-19971287D01*
X9469038Y-19971287D02*
X9459514Y-19942715D01*
X9459514Y-19942715D02*
X9449990Y-19923668D01*
X9449990Y-19923668D02*
X9430942Y-19895096D01*
X9430942Y-19895096D02*
X9421419Y-19885572D01*
X9783323Y-20190334D02*
X9773799Y-20180810D01*
X9773799Y-20180810D02*
X9754752Y-20152239D01*
X9754752Y-20152239D02*
X9745228Y-20133191D01*
X9745228Y-20133191D02*
X9735704Y-20104620D01*
X9735704Y-20104620D02*
X9726180Y-20057001D01*
X9726180Y-20057001D02*
X9726180Y-20018906D01*
X9726180Y-20018906D02*
X9735704Y-19971287D01*
X9735704Y-19971287D02*
X9745228Y-19942715D01*
X9745228Y-19942715D02*
X9754752Y-19923668D01*
X9754752Y-19923668D02*
X9773799Y-19895096D01*
X9773799Y-19895096D02*
X9783323Y-19885572D01*
X9859514Y-19980810D02*
X9859514Y-20114144D01*
X9859514Y-19999858D02*
X9869038Y-19990334D01*
X9869038Y-19990334D02*
X9888085Y-19980810D01*
X9888085Y-19980810D02*
X9916657Y-19980810D01*
X9916657Y-19980810D02*
X9935704Y-19990334D01*
X9935704Y-19990334D02*
X9945228Y-20009382D01*
X9945228Y-20009382D02*
X9945228Y-20114144D01*
X10069038Y-20114144D02*
X10049990Y-20104620D01*
X10049990Y-20104620D02*
X10040466Y-20095096D01*
X10040466Y-20095096D02*
X10030942Y-20076048D01*
X10030942Y-20076048D02*
X10030942Y-20018906D01*
X10030942Y-20018906D02*
X10040466Y-19999858D01*
X10040466Y-19999858D02*
X10049990Y-19990334D01*
X10049990Y-19990334D02*
X10069038Y-19980810D01*
X10069038Y-19980810D02*
X10097609Y-19980810D01*
X10097609Y-19980810D02*
X10116657Y-19990334D01*
X10116657Y-19990334D02*
X10126180Y-19999858D01*
X10126180Y-19999858D02*
X10135704Y-20018906D01*
X10135704Y-20018906D02*
X10135704Y-20076048D01*
X10135704Y-20076048D02*
X10126180Y-20095096D01*
X10126180Y-20095096D02*
X10116657Y-20104620D01*
X10116657Y-20104620D02*
X10097609Y-20114144D01*
X10097609Y-20114144D02*
X10069038Y-20114144D01*
X10192847Y-19980810D02*
X10269038Y-19980810D01*
X10221419Y-19914144D02*
X10221419Y-20085572D01*
X10221419Y-20085572D02*
X10230942Y-20104620D01*
X10230942Y-20104620D02*
X10249990Y-20114144D01*
X10249990Y-20114144D02*
X10269038Y-20114144D01*
X10488085Y-19980810D02*
X10488085Y-20180810D01*
X10488085Y-19990334D02*
X10507133Y-19980810D01*
X10507133Y-19980810D02*
X10545228Y-19980810D01*
X10545228Y-19980810D02*
X10564276Y-19990334D01*
X10564276Y-19990334D02*
X10573800Y-19999858D01*
X10573800Y-19999858D02*
X10583323Y-20018906D01*
X10583323Y-20018906D02*
X10583323Y-20076048D01*
X10583323Y-20076048D02*
X10573800Y-20095096D01*
X10573800Y-20095096D02*
X10564276Y-20104620D01*
X10564276Y-20104620D02*
X10545228Y-20114144D01*
X10545228Y-20114144D02*
X10507133Y-20114144D01*
X10507133Y-20114144D02*
X10488085Y-20104620D01*
X10697609Y-20114144D02*
X10678561Y-20104620D01*
X10678561Y-20104620D02*
X10669038Y-20085572D01*
X10669038Y-20085572D02*
X10669038Y-19914144D01*
X10859514Y-20114144D02*
X10859514Y-20009382D01*
X10859514Y-20009382D02*
X10849990Y-19990334D01*
X10849990Y-19990334D02*
X10830942Y-19980810D01*
X10830942Y-19980810D02*
X10792847Y-19980810D01*
X10792847Y-19980810D02*
X10773800Y-19990334D01*
X10859514Y-20104620D02*
X10840466Y-20114144D01*
X10840466Y-20114144D02*
X10792847Y-20114144D01*
X10792847Y-20114144D02*
X10773800Y-20104620D01*
X10773800Y-20104620D02*
X10764276Y-20085572D01*
X10764276Y-20085572D02*
X10764276Y-20066525D01*
X10764276Y-20066525D02*
X10773800Y-20047477D01*
X10773800Y-20047477D02*
X10792847Y-20037953D01*
X10792847Y-20037953D02*
X10840466Y-20037953D01*
X10840466Y-20037953D02*
X10859514Y-20028429D01*
X10926181Y-19980810D02*
X11002371Y-19980810D01*
X10954752Y-19914144D02*
X10954752Y-20085572D01*
X10954752Y-20085572D02*
X10964276Y-20104620D01*
X10964276Y-20104620D02*
X10983323Y-20114144D01*
X10983323Y-20114144D02*
X11002371Y-20114144D01*
X11145228Y-20104620D02*
X11126181Y-20114144D01*
X11126181Y-20114144D02*
X11088085Y-20114144D01*
X11088085Y-20114144D02*
X11069038Y-20104620D01*
X11069038Y-20104620D02*
X11059514Y-20085572D01*
X11059514Y-20085572D02*
X11059514Y-20009382D01*
X11059514Y-20009382D02*
X11069038Y-19990334D01*
X11069038Y-19990334D02*
X11088085Y-19980810D01*
X11088085Y-19980810D02*
X11126181Y-19980810D01*
X11126181Y-19980810D02*
X11145228Y-19990334D01*
X11145228Y-19990334D02*
X11154752Y-20009382D01*
X11154752Y-20009382D02*
X11154752Y-20028429D01*
X11154752Y-20028429D02*
X11059514Y-20047477D01*
X11326180Y-20114144D02*
X11326180Y-19914144D01*
X11326180Y-20104620D02*
X11307133Y-20114144D01*
X11307133Y-20114144D02*
X11269038Y-20114144D01*
X11269038Y-20114144D02*
X11249990Y-20104620D01*
X11249990Y-20104620D02*
X11240466Y-20095096D01*
X11240466Y-20095096D02*
X11230942Y-20076048D01*
X11230942Y-20076048D02*
X11230942Y-20018906D01*
X11230942Y-20018906D02*
X11240466Y-19999858D01*
X11240466Y-19999858D02*
X11249990Y-19990334D01*
X11249990Y-19990334D02*
X11269038Y-19980810D01*
X11269038Y-19980810D02*
X11307133Y-19980810D01*
X11307133Y-19980810D02*
X11326180Y-19990334D01*
X11402371Y-20190334D02*
X11411895Y-20180810D01*
X11411895Y-20180810D02*
X11430942Y-20152239D01*
X11430942Y-20152239D02*
X11440466Y-20133191D01*
X11440466Y-20133191D02*
X11449990Y-20104620D01*
X11449990Y-20104620D02*
X11459514Y-20057001D01*
X11459514Y-20057001D02*
X11459514Y-20018906D01*
X11459514Y-20018906D02*
X11449990Y-19971287D01*
X11449990Y-19971287D02*
X11440466Y-19942715D01*
X11440466Y-19942715D02*
X11430942Y-19923668D01*
X11430942Y-19923668D02*
X11411895Y-19895096D01*
X11411895Y-19895096D02*
X11402371Y-19885572D01*
M02*
