G04 #@! TF.GenerationSoftware,KiCad,Pcbnew,9.0.7*
G04 #@! TF.CreationDate,2026-02-21T19:35:19+09:00*
G04 #@! TF.ProjectId,bottom-plate,626f7474-6f6d-42d7-906c-6174652e6b69,rev?*
G04 #@! TF.SameCoordinates,Original*
G04 #@! TF.FileFunction,Profile,NP*
%FSLAX46Y46*%
G04 Gerber Fmt 4.6, Leading zero omitted, Abs format (unit mm)*
G04 Created by KiCad (PCBNEW 9.0.7) date 2026-02-21 19:35:19*
%MOMM*%
%LPD*%
G01*
G04 APERTURE LIST*
G04 #@! TA.AperFunction,Profile*
%ADD10C,0.050000*%
G04 #@! TD*
G04 APERTURE END LIST*
D10*
X269494002Y-58369200D02*
X288239201Y-54660798D01*
X89306401Y-155905205D02*
X48107603Y-125780802D01*
X105613203Y-58369203D02*
X124358402Y-62077602D01*
X167538402Y-190601599D02*
X143967205Y-174091599D01*
X126339603Y-165862001D02*
X89306401Y-155905205D01*
X178409596Y-80821695D02*
X196748402Y-80821691D01*
X142748001Y-67005197D02*
X178409596Y-80821695D01*
X288239201Y-54660798D02*
X307340006Y-52171603D01*
X124358402Y-62077602D02*
X142748001Y-67005197D01*
X67818003Y-52171600D02*
X86918801Y-54660794D01*
X196748402Y-80821691D02*
X232410005Y-67005202D01*
X232410005Y-67005202D02*
X250799600Y-62077598D01*
X248818399Y-165862006D02*
X231190803Y-174091599D01*
X327050400Y-125831606D02*
X285800803Y-155905200D01*
X143967205Y-174091599D02*
X126339603Y-165862001D01*
X250799600Y-62077598D02*
X269494002Y-58369200D01*
X307340006Y-52171603D02*
X327050400Y-125831606D01*
X285800803Y-155905200D02*
X248818399Y-165862006D01*
X207619600Y-190601597D02*
X167538402Y-190601599D01*
X231190803Y-174091599D02*
X207619600Y-190601597D01*
X86918801Y-54660794D02*
X105613203Y-58369203D01*
X48107603Y-125780802D02*
X67818003Y-52171600D01*
M02*
