<?xml version="1.0" encoding="UTF-8" standalone="no"?>
<!DOCTYPE svg PUBLIC "-//W3C//DTD SVG 1.1//EN" "http://www.w3.org/Graphics/SVG/1.1/DTD/svg11.dtd">
<svg width="100%" height="100%" viewBox="0 0 3290 2633" version="1.1" xmlns="http://www.w3.org/2000/svg" xmlns:xlink="http://www.w3.org/1999/xlink" xml:space="preserve" xmlns:serif="http://www.serif.com/" style="fill-rule:evenodd;clip-rule:evenodd;stroke-linejoin:round;stroke-miterlimit:2;">
    <g transform="matrix(1,0,0,1,-488.675,-817.021)">
        <path d="M3185.34,2133.33C3166.53,2078.47 3142.97,2024.95 3115.14,1973.37L3777.99,2133.33L3115.14,2293.3C3142.97,2241.72 3166.53,2188.2 3185.34,2133.33ZM1905.98,2133.33C1906.3,1916.36 2008.05,1724.94 2133.33,1643.21C2258.62,1724.94 2360.37,1916.36 2360.69,2133.33C2360.37,2350.31 2258.62,2541.73 2133.33,2623.46C2008.05,2541.73 1906.3,2350.31 1905.98,2133.33ZM2133.33,3449.65L1908.8,2869.36C1981.48,2885.3 2056.61,2893.78 2133.33,2893.78C2210.06,2893.78 2285.18,2885.3 2357.86,2869.36L2133.33,3449.65ZM488.675,2133.33L1151.52,1973.37C1123.7,2024.95 1100.14,2078.47 1081.33,2133.33C1100.14,2188.2 1123.7,2241.72 1151.52,2293.3L488.675,2133.33ZM2133.33,1372.89C2056.61,1372.89 1981.48,1381.37 1908.8,1397.31L2133.33,817.021L2357.86,1397.31C2285.18,1381.37 2210.06,1372.89 2133.33,1372.89ZM2756.32,2693.64L2772.15,2930.13L2574.07,2797.38C2638.11,2768.38 2699.11,2733.5 2756.32,2693.64ZM1510.35,2693.64C1567.56,2733.5 1628.56,2768.38 1692.6,2797.38L1494.52,2930.13L1510.35,2693.64ZM2756.32,1573.03C2699.11,1533.17 2638.11,1498.29 2574.07,1469.29L2772.15,1336.54L2756.32,1573.03ZM1510.35,1573.03L1494.52,1336.54L1692.6,1469.29C1628.56,1498.29 1567.56,1533.17 1510.35,1573.03Z" style="fill:white;"/>
    </g>
</svg>
